<svg xmlns="http://www.w3.org/2000/svg" width="374" height="47" fill="none">
  <path fill="#007A99" d="M83.982 31V19.096h2.88l.24 1.536h.096a9.056 9.056 0 0 1 1.584-1.272c.56-.368 1.232-.552 2.016-.552.848 0 1.528.176 2.04.528.528.336.944.824 1.248 1.464a9.7 9.7 0 0 1 1.68-1.392c.592-.4 1.28-.6 2.064-.6 1.28 0 2.216.432 2.808 1.296.608.848.912 2.016.912 3.504V31h-3.528v-6.936c0-.864-.12-1.456-.36-1.776-.224-.32-.592-.48-1.104-.48-.592 0-1.272.384-2.04 1.152V31H90.99v-6.936c0-.864-.12-1.456-.36-1.776-.224-.32-.592-.48-1.104-.48-.592 0-1.264.384-2.016 1.152V31h-3.528Zm-9.656.288c-1.088 0-1.952-.344-2.592-1.032-.64-.704-.96-1.56-.96-2.568 0-1.248.528-2.224 1.584-2.928 1.056-.704 2.76-1.176 5.112-1.416-.032-.528-.192-.944-.48-1.248-.272-.32-.736-.48-1.392-.48-.496 0-1 .096-1.512.288-.512.192-1.056.456-1.632.792l-1.272-2.328c.752-.464 1.552-.84 2.4-1.128a8.444 8.444 0 0 1 2.688-.432c1.52 0 2.688.44 3.504 1.32.816.88 1.224 2.232 1.224 4.056V31h-2.88l-.24-1.224h-.096a7.19 7.19 0 0 1-1.608 1.104 4.173 4.173 0 0 1-1.848.408Zm1.2-2.736c.4 0 .744-.088 1.032-.264.304-.192.608-.44.912-.744v-2.088c-1.248.16-2.112.416-2.592.768-.48.336-.72.736-.72 1.2 0 .384.12.672.36.864.256.176.592.264 1.008.264ZM64.49 31.288c-1.136 0-2.16-.248-3.072-.744a5.437 5.437 0 0 1-2.16-2.136c-.528-.928-.792-2.048-.792-3.36 0-1.296.264-2.408.792-3.336.544-.928 1.248-1.64 2.112-2.136.864-.512 1.768-.768 2.712-.768 1.136 0 2.072.256 2.808.768a4.488 4.488 0 0 1 1.68 2.04c.384.848.576 1.816.576 2.904 0 .304-.016.608-.048.912a6.602 6.602 0 0 1-.096.648h-7.128c.16.864.52 1.504 1.08 1.92.56.4 1.232.6 2.016.6.848 0 1.704-.264 2.568-.792l1.176 2.136a7.773 7.773 0 0 1-2.04.984c-.752.24-1.48.36-2.184.36Zm-2.64-7.536h4.296c0-.656-.16-1.192-.48-1.608-.304-.432-.808-.648-1.512-.648-.544 0-1.032.192-1.464.576-.432.368-.712.928-.84 1.68Zm-6.87 7.536c-1.472 0-2.528-.424-3.168-1.272-.624-.848-.936-1.96-.936-3.336v-4.824h-1.632V19.24l1.824-.144.408-3.168h2.928v3.168h2.856v2.76h-2.856v4.776c0 .672.136 1.16.408 1.464.288.288.664.432 1.128.432.192 0 .384-.024.576-.072.208-.048.392-.104.552-.168l.552 2.568c-.304.096-.68.192-1.128.288a7.03 7.03 0 0 1-1.512.144ZM36.662 31V19.096h2.88l.24 1.512h.096a9.155 9.155 0 0 1 1.68-1.248c.624-.368 1.336-.552 2.136-.552 1.296 0 2.232.432 2.808 1.296.592.848.888 2.016.888 3.504V31h-3.528v-6.936c0-.864-.12-1.456-.36-1.776-.224-.32-.592-.48-1.104-.48-.448 0-.832.104-1.152.312-.32.192-.672.472-1.056.84V31h-3.528ZM27.1 31V19.096h2.88l.24 2.088h.095c.432-.8.952-1.392 1.56-1.776.608-.4 1.216-.6 1.824-.6.336 0 .616.024.84.072.224.032.416.088.576.168l-.576 3.048a4.135 4.135 0 0 0-1.296-.192c-.448 0-.92.168-1.416.504-.48.32-.88.88-1.2 1.68V31H27.1Zm-7.095.288c-1.136 0-2.16-.248-3.072-.744a5.437 5.437 0 0 1-2.16-2.136c-.528-.928-.792-2.048-.792-3.36 0-1.296.264-2.408.792-3.336.544-.928 1.248-1.64 2.112-2.136.864-.512 1.768-.768 2.712-.768 1.136 0 2.072.256 2.808.768a4.488 4.488 0 0 1 1.68 2.04c.384.848.576 1.816.576 2.904 0 .304-.016.608-.048.912a6.602 6.602 0 0 1-.096.648H17.39c.16.864.52 1.504 1.08 1.92.56.4 1.232.6 2.016.6.848 0 1.704-.264 2.568-.792l1.176 2.136a7.773 7.773 0 0 1-2.04.984c-.752.24-1.48.36-2.184.36Zm-2.64-7.536h4.296c0-.656-.16-1.192-.48-1.608-.304-.432-.808-.648-1.512-.648-.544 0-1.032.192-1.464.576-.432.368-.712.928-.84 1.68ZM.598 31V15.352h3.528v6.408h.096l4.656-6.408h3.888l-4.728 6.24L13.63 31H9.766L5.95 24.4l-1.824 2.4V31H.598Zm363.915 4.656a5.43 5.43 0 0 1-.936-.072 10.138 10.138 0 0 1-.744-.168l.624-2.688c.112.016.24.04.384.072.144.048.28.072.408.072.592 0 1.048-.144 1.368-.432.32-.288.56-.664.72-1.128l.168-.624-4.584-11.592h3.552l1.704 5.112c.176.544.336 1.096.48 1.656.144.56.296 1.136.456 1.728h.096l.384-1.68c.144-.576.288-1.144.432-1.704l1.44-5.112h3.384l-4.128 12.024c-.368.992-.776 1.824-1.224 2.496-.448.688-.992 1.2-1.632 1.536-.624.336-1.408.504-2.352.504Zm-5.924-4.368c-1.472 0-2.528-.424-3.168-1.272-.624-.848-.936-1.96-.936-3.336v-4.824h-1.632V19.24l1.824-.144.408-3.168h2.928v3.168h2.856v2.76h-2.856v4.776c0 .672.136 1.16.408 1.464.288.288.664.432 1.128.432.192 0 .384-.024.576-.072.208-.048.392-.104.552-.168l.552 2.568c-.304.096-.68.192-1.128.288a7.03 7.03 0 0 1-1.512.144ZM347.372 31V19.096h3.528V31h-3.528Zm1.752-13.656c-.592 0-1.072-.168-1.44-.504-.368-.336-.552-.784-.552-1.344s.184-1.008.552-1.344c.368-.336.848-.504 1.44-.504s1.072.168 1.44.504c.368.336.552.784.552 1.344s-.184 1.008-.552 1.344c-.368.336-.848.504-1.44.504ZM333.638 31V19.096h2.88l.24 1.512h.096a9.155 9.155 0 0 1 1.68-1.248c.624-.368 1.336-.552 2.136-.552 1.296 0 2.232.432 2.808 1.296.592.848.888 2.016.888 3.504V31h-3.528v-6.936c0-.864-.12-1.456-.36-1.776-.224-.32-.592-.48-1.104-.48-.448 0-.832.104-1.152.312-.32.192-.672.472-1.056.84V31h-3.528Zm-10.065.288c-1.296 0-2.24-.424-2.832-1.272-.576-.864-.864-2.04-.864-3.528v-7.392h3.528v6.936c0 .848.12 1.44.36 1.776.24.32.616.48 1.128.48.448 0 .824-.104 1.128-.312.304-.208.632-.544.984-1.008v-7.872h3.528V31h-2.88l-.264-1.656h-.072a6.413 6.413 0 0 1-1.632 1.416c-.592.352-1.296.528-2.112.528ZM299.419 31V19.096h2.88l.24 1.536h.096a9.056 9.056 0 0 1 1.584-1.272c.56-.368 1.232-.552 2.016-.552.848 0 1.528.176 2.04.528.528.336.944.824 1.248 1.464a9.7 9.7 0 0 1 1.68-1.392c.592-.4 1.28-.6 2.064-.6 1.28 0 2.216.432 2.808 1.296.608.848.912 2.016.912 3.504V31h-3.528v-6.936c0-.864-.12-1.456-.36-1.776-.224-.32-.592-.48-1.104-.48-.592 0-1.272.384-2.04 1.152V31h-3.528v-6.936c0-.864-.12-1.456-.36-1.776-.224-.32-.592-.48-1.104-.48-.592 0-1.264.384-2.016 1.152V31h-3.528Zm-20.578 0V19.096h2.88l.24 1.536h.096a9.056 9.056 0 0 1 1.584-1.272c.56-.368 1.232-.552 2.016-.552.848 0 1.528.176 2.04.528.528.336.944.824 1.248 1.464a9.7 9.7 0 0 1 1.68-1.392c.592-.4 1.28-.6 2.064-.6 1.28 0 2.216.432 2.808 1.296.608.848.912 2.016.912 3.504V31h-3.528v-6.936c0-.864-.12-1.456-.36-1.776-.224-.32-.592-.48-1.104-.48-.592 0-1.272.384-2.04 1.152V31h-3.528v-6.936c0-.864-.12-1.456-.36-1.776-.224-.32-.592-.48-1.104-.48-.592 0-1.264.384-2.016 1.152V31h-3.528Zm-8.2.288a5.96 5.96 0 0 1-2.856-.72c-.88-.496-1.592-1.208-2.136-2.136-.544-.944-.816-2.072-.816-3.384 0-1.328.272-2.456.816-3.384.544-.928 1.256-1.632 2.136-2.112a5.808 5.808 0 0 1 2.856-.744c1.008 0 1.952.248 2.832.744.88.48 1.592 1.184 2.136 2.112.544.928.816 2.056.816 3.384 0 1.312-.272 2.44-.816 3.384-.544.928-1.256 1.64-2.136 2.136-.88.48-1.824.72-2.832.72Zm0-2.856c.72 0 1.264-.304 1.632-.912.368-.624.552-1.448.552-2.472 0-1.04-.184-1.864-.552-2.472-.368-.608-.912-.912-1.632-.912-.736 0-1.288.304-1.656.912-.352.608-.528 1.432-.528 2.472 0 1.024.176 1.848.528 2.472.368.608.92.912 1.656.912Zm-12.265 2.856c-1.312 0-2.52-.304-3.624-.912-1.104-.608-1.992-1.504-2.664-2.688-.656-1.2-.984-2.672-.984-4.416 0-1.728.336-3.2 1.008-4.416.688-1.232 1.592-2.168 2.712-2.808a7.22 7.22 0 0 1 3.672-.984c1.008 0 1.912.208 2.712.624.8.4 1.464.872 1.992 1.416l-1.872 2.256a5.536 5.536 0 0 0-1.272-.888c-.432-.24-.928-.36-1.488-.36a3.4 3.4 0 0 0-1.944.6c-.576.4-1.04.976-1.392 1.728-.336.752-.504 1.656-.504 2.712 0 1.6.344 2.848 1.032 3.744.688.896 1.608 1.344 2.76 1.344.64 0 1.208-.144 1.704-.432.512-.288.96-.632 1.344-1.032l1.872 2.208c-1.312 1.536-3 2.304-5.064 2.304ZM202.818 0c-6.157 0-12.125 2.458-17.73 7.305a2.372 2.372 0 0 0-.261 3.312 2.298 2.298 0 0 0 3.267.264c4.745-4.101 9.698-6.181 14.724-6.181a18.42 18.42 0 0 1 13.114 5.506 18.932 18.932 0 0 1 5.432 13.294c0 4.986-1.954 9.768-5.432 13.294a18.42 18.42 0 0 1-13.114 5.506c-11.564 0-18.548-9.8-25.939-20.177C169.13 11.247 161.118 0 147.182 0c-6.148 0-12.045 2.476-16.392 6.883C126.442 11.29 124 17.267 124 23.5c0 6.233 2.442 12.21 6.79 16.617C135.137 44.524 141.034 47 147.182 47c6.157 0 12.125-2.458 17.73-7.305a2.372 2.372 0 0 0 .261-3.312 2.332 2.332 0 0 0-.71-.567 2.29 2.29 0 0 0-2.557.304c-4.745 4.1-9.698 6.18-14.724 6.18a18.42 18.42 0 0 1-13.114-5.506 18.932 18.932 0 0 1-5.432-13.294c0-4.986 1.954-9.768 5.432-13.294A18.42 18.42 0 0 1 147.182 4.7c11.564 0 18.548 9.8 25.939 20.177C180.87 35.752 188.882 47 202.818 47c6.148 0 12.045-2.476 16.392-6.883C223.558 35.71 226 29.733 226 23.5c0-6.233-2.442-12.21-6.79-16.617C214.863 2.476 208.966 0 202.818 0Z"/>
</svg>
