<svg width="960" height="540" viewBox="0 0 960 540" fill="none" xmlns="http://www.w3.org/2000/svg">
<symbol id="component-illustration">
<g clip-path="url(#clip0_641_3038)">
<rect width="960" height="540" fill="var(--component-illustration-background-color, white)"/>
<g clip-path="url(#clip1_641_3038)">
<rect width="960" height="540" fill="var(--component-illustration-background-color, white)"/>
<rect width="2" height="540" transform="translate(69)" fill="var(--component-illustration-grid-color, #eee)"/>
<rect width="2" height="540" transform="translate(151)" fill="var(--component-illustration-grid-color, #eee)"/>
<rect width="2" height="540" transform="translate(233)" fill="var(--component-illustration-grid-color, #eee)"/>
<rect width="2" height="540" transform="translate(315)" fill="var(--component-illustration-grid-color, #eee)"/>
<rect width="2" height="540" transform="translate(397)" fill="var(--component-illustration-grid-color, #eee)"/>
<rect width="2" height="540" transform="translate(479)" fill="var(--component-illustration-grid-color, #eee)"/>
<rect width="2" height="540" transform="translate(561)" fill="var(--component-illustration-grid-color, #eee)"/>
<rect width="2" height="540" transform="translate(643)" fill="var(--component-illustration-grid-color, #eee)"/>
<rect width="2" height="540" transform="translate(725)" fill="var(--component-illustration-grid-color, #eee)"/>
<rect width="2" height="540" transform="translate(807)" fill="var(--component-illustration-grid-color, #eee)"/>
<rect width="2" height="540" transform="translate(889)" fill="var(--component-illustration-grid-color, #eee)"/>
<rect width="960" height="2" transform="translate(0 64)" fill="var(--component-illustration-grid-color, #eee)"/>
<rect width="960" height="2" transform="translate(0 146)" fill="var(--component-illustration-grid-color, #eee)"/>
<rect width="960" height="2" transform="translate(0 228)" fill="var(--component-illustration-grid-color, #eee)"/>
<rect width="960" height="2" transform="translate(0 310)" fill="var(--component-illustration-grid-color, #eee)"/>
<rect width="960" height="2" transform="translate(0 392)" fill="var(--component-illustration-grid-color, #eee)"/>
<rect width="960" height="2" transform="translate(0 474)" fill="var(--component-illustration-grid-color, #eee)"/>
</g>
<rect x="233" y="262" width="494" height="16" rx="8" fill="var(--component-illustration-color, #666)"/>
<rect x="233" y="303" width="494" height="16" rx="8" fill="var(--component-illustration-color, #666)"/>
<rect x="233" y="344" width="330" height="16" rx="8" fill="var(--component-illustration-color, #666)"/>
<rect x="233" y="168" width="330" height="40" rx="20" fill="var(--component-illustration-color, #666)"/>
<path d="M151 66V64H149V66H151ZM809 66H811V64H809V66ZM149 66V69.95H153V66H149ZM149 77.85V85.75H153V77.85H149ZM149 93.65V101.55H153V93.65H149ZM149 109.45V117.35H153V109.45H149ZM149 125.25V133.15H153V125.25H149ZM149 141.05V148.95H153V141.05H149ZM149 156.85V164.75H153V156.85H149ZM149 172.65V180.55H153V172.65H149ZM149 188.45V196.35H153V188.45H149ZM149 204.25V212.15H153V204.25H149ZM149 220.05V227.95H153V220.05H149ZM149 235.85V243.75H153V235.85H149ZM149 251.65V259.55H153V251.65H149ZM149 267.45V275.35H153V267.45H149ZM149 283.25V291.15H153V283.25H149ZM149 299.05V306.95H153V299.05H149ZM149 314.85V322.75H153V314.85H149ZM149 330.65V338.55H153V330.65H149ZM149 346.45V354.35H153V346.45H149ZM149 362.25V370.15H153V362.25H149ZM149 378.05V385.95H153V378.05H149ZM149 393.85V401.75H153V393.85H149ZM149 409.65V417.55H153V409.65H149ZM149 425.45V433.35H153V425.45H149ZM149 441.25V449.15H153V441.25H149ZM149 457.05V464.95H153V457.05H149ZM149 472.85V480.75H153V472.85H149ZM149 488.65V496.55H153V488.65H149ZM149 504.45V512.35H153V504.45H149ZM149 520.25V528.15H153V520.25H149ZM149 536.05V540H153V536.05H149ZM811 540V536.05H807V540H811ZM811 528.15V520.25H807V528.15H811ZM811 512.35V504.45H807V512.35H811ZM811 496.55V488.65H807V496.55H811ZM811 480.75V472.85H807V480.75H811ZM811 464.95V457.05H807V464.95H811ZM811 449.15V441.25H807V449.15H811ZM811 433.35V425.45H807V433.35H811ZM811 417.55V409.65H807V417.55H811ZM811 401.75V393.85H807V401.75H811ZM811 385.95V378.05H807V385.95H811ZM811 370.15V362.25H807V370.15H811ZM811 354.35V346.45H807V354.35H811ZM811 338.55V330.65H807V338.55H811ZM811 322.75V314.85H807V322.75H811ZM811 306.95V299.05H807V306.95H811ZM811 291.15V283.25H807V291.15H811ZM811 275.35V267.45H807V275.35H811ZM811 259.55V251.65H807V259.55H811ZM811 243.75V235.85H807V243.75H811ZM811 227.95V220.05H807V227.95H811ZM811 212.15V204.25H807V212.15H811ZM811 196.35V188.45H807V196.35H811ZM811 180.55V172.65H807V180.55H811ZM811 164.75V156.85H807V164.75H811ZM811 148.95V141.05H807V148.95H811ZM811 133.15V125.25H807V133.15H811ZM811 117.35V109.45H807V117.35H811ZM811 101.55V93.6502H807V101.55H811ZM811 85.7502V77.8502H807V85.7502H811ZM811 69.9503V66H807V69.9503H811ZM809 64H804.988V68H809V64ZM796.963 64H788.939V68H796.963V64ZM780.915 64H772.89V68H780.915V64ZM764.866 64H756.841V68H764.866V64ZM748.817 64H740.793V68H748.817V64ZM732.768 64H724.744V68H732.768V64ZM716.719 64H708.695V68H716.719V64ZM700.671 64H692.646V68H700.671V64ZM684.622 64H676.598V68H684.622V64ZM668.573 64H660.549V68H668.573V64ZM652.524 64H644.5V68H652.524V64ZM636.476 64H628.451V68H636.476V64ZM620.427 64H612.402V68H620.427V64ZM604.378 64H596.354V68H604.378V64ZM588.329 64H580.305V68H588.329V64ZM572.281 64H564.256V68H572.281V64ZM556.232 64H548.207V68H556.232V64ZM540.183 64H532.159V68H540.183V64ZM524.134 64H516.11V68H524.134V64ZM508.085 64H500.061V68H508.085V64ZM492.037 64H484.012V68H492.037V64ZM475.988 64H467.964V68H475.988V64ZM459.939 64H451.915V68H459.939V64ZM443.89 64H435.866V68H443.89V64ZM427.842 64H419.817V68H427.842V64ZM411.793 64H403.768V68H411.793V64ZM395.744 64H387.72V68H395.744V64ZM379.695 64H371.671V68H379.695V64ZM363.647 64H355.622V68H363.647V64ZM347.598 64H339.573V68H347.598V64ZM331.549 64H323.525V68H331.549V64ZM315.5 64H307.476V68H315.5V64ZM299.452 64H291.427V68H299.452V64ZM283.403 64H275.378V68H283.403V64ZM267.354 64H259.329V68H267.354V64ZM251.305 64H243.281V68H251.305V64ZM235.256 64H227.232V68H235.256V64ZM219.207 64H211.183V68H219.207V64ZM203.159 64H195.134V68H203.159V64ZM187.11 64H179.085V68H187.11V64ZM171.061 64H163.036V68H171.061V64ZM155.012 64H151V68H155.012V64ZM151 66V62H147V66H151ZM809 66H813V62H809V66ZM147 66V69.95H155V66H147ZM147 77.85V85.75H155V77.85H147ZM147 93.65V101.55H155V93.65H147ZM147 109.45V117.35H155V109.45H147ZM147 125.25V133.15H155V125.25H147ZM147 141.05V148.95H155V141.05H147ZM147 156.85V164.75H155V156.85H147ZM147 172.65V180.55H155V172.65H147ZM147 188.45V196.35H155V188.45H147ZM147 204.25V212.15H155V204.25H147ZM147 220.05V227.95H155V220.05H147ZM147 235.85V243.75H155V235.85H147ZM147 251.65V259.55H155V251.65H147ZM147 267.45V275.35H155V267.45H147ZM147 283.25V291.15H155V283.25H147ZM147 299.05V306.95H155V299.05H147ZM147 314.85V322.75H155V314.85H147ZM147 330.65V338.55H155V330.65H147ZM147 346.45V354.35H155V346.45H147ZM147 362.25V370.15H155V362.25H147ZM147 378.05V385.95H155V378.05H147ZM147 393.85V401.75H155V393.85H147ZM147 409.65V417.55H155V409.65H147ZM147 425.45V433.35H155V425.45H147ZM147 441.25V449.15H155V441.25H147ZM147 457.05V464.95H155V457.05H147ZM147 472.85V480.75H155V472.85H147ZM147 488.65V496.55H155V488.65H147ZM147 504.45V512.35H155V504.45H147ZM147 520.25V528.15H155V520.25H147ZM147 536.05V540H155V536.05H147ZM813 540V536.05H805V540H813ZM813 528.15V520.25H805V528.15H813ZM813 512.35V504.45H805V512.35H813ZM813 496.55V488.65H805V496.55H813ZM813 480.75V472.85H805V480.75H813ZM813 464.95V457.05H805V464.95H813ZM813 449.15V441.25H805V449.15H813ZM813 433.35V425.45H805V433.35H813ZM813 417.55V409.65H805V417.55H813ZM813 401.75V393.85H805V401.75H813ZM813 385.95V378.05H805V385.95H813ZM813 370.15V362.25H805V370.15H813ZM813 354.35V346.45H805V354.35H813ZM813 338.55V330.65H805V338.55H813ZM813 322.75V314.85H805V322.75H813ZM813 306.95V299.05H805V306.95H813ZM813 291.15V283.25H805V291.15H813ZM813 275.35V267.45H805V275.35H813ZM813 259.55V251.65H805V259.55H813ZM813 243.75V235.85H805V243.75H813ZM813 227.95V220.05H805V227.95H813ZM813 212.15V204.25H805V212.15H813ZM813 196.35V188.45H805V196.35H813ZM813 180.55V172.65H805V180.55H813ZM813 164.75V156.85H805V164.75H813ZM813 148.95V141.05H805V148.95H813ZM813 133.15V125.25H805V133.15H813ZM813 117.35V109.45H805V117.35H813ZM813 101.55V93.6502H805V101.55H813ZM813 85.7502V77.8502H805V85.7502H813ZM813 69.9503V66H805V69.9503H813ZM809 62H804.988V70H809V62ZM796.963 62H788.939V70H796.963V62ZM780.915 62H772.89V70H780.915V62ZM764.866 62H756.841V70H764.866V62ZM748.817 62H740.793V70H748.817V62ZM732.768 62H724.744V70H732.768V62ZM716.719 62H708.695V70H716.719V62ZM700.671 62H692.646V70H700.671V62ZM684.622 62H676.598V70H684.622V62ZM668.573 62H660.549V70H668.573V62ZM652.524 62H644.5V70H652.524V62ZM636.476 62H628.451V70H636.476V62ZM620.427 62H612.402V70H620.427V62ZM604.378 62H596.354V70H604.378V62ZM588.329 62H580.305V70H588.329V62ZM572.281 62H564.256V70H572.281V62ZM556.232 62H548.207V70H556.232V62ZM540.183 62H532.159V70H540.183V62ZM524.134 62H516.11V70H524.134V62ZM508.085 62H500.061V70H508.085V62ZM492.037 62H484.012V70H492.037V62ZM475.988 62H467.964V70H475.988V62ZM459.939 62H451.915V70H459.939V62ZM443.89 62H435.866V70H443.89V62ZM427.842 62H419.817V70H427.842V62ZM411.793 62H403.768V70H411.793V62ZM395.744 62H387.72V70H395.744V62ZM379.695 62H371.671V70H379.695V62ZM363.647 62H355.622V70H363.647V62ZM347.598 62H339.573V70H347.598V62ZM331.549 62H323.525V70H331.549V62ZM315.5 62H307.476V70H315.5V62ZM299.452 62H291.427V70H299.452V62ZM283.403 62H275.378V70H283.403V62ZM267.354 62H259.329V70H267.354V62ZM251.305 62H243.281V70H251.305V62ZM235.256 62H227.232V70H235.256V62ZM219.207 62H211.183V70H219.207V62ZM203.159 62H195.134V70H203.159V62ZM187.11 62H179.085V70H187.11V62ZM171.061 62H163.036V70H171.061V62ZM155.012 62H151V70H155.012V62Z" fill="var(--component-illustration-color, #666)" mask="url(#path-5-inside-1_641_3038)"/>
<g clip-path="url(#clip2_641_3038)">
<circle cx="241" cy="453" r="8" fill="var(--component-illustration-color, #666)"/>
</g>
<rect x="265" y="445" width="462" height="16" rx="8" fill="var(--component-illustration-color, #666)"/>
<g clip-path="url(#clip3_641_3038)">
<circle cx="241" cy="494" r="8" fill="var(--component-illustration-color, #666)"/>
</g>
<rect x="265" y="486" width="462" height="16" rx="8" fill="var(--component-illustration-color, #666)"/>
</g>
</symbol>
<use href="#component-illustration"/>
</svg>
