<svg width="960" height="540" viewBox="0 0 960 540" fill="none" xmlns="http://www.w3.org/2000/svg">
<symbol id="component-illustration">
<rect width="960" height="540" fill="var(--component-illustration-background-color, white)"/>
<rect width="960" height="540" fill="var(--component-illustration-background-color, white)"/>
<rect width="2" height="540" transform="translate(69)" fill="var(--component-illustration-grid-color, #eee)"/>
<rect width="2" height="540" transform="translate(151)" fill="var(--component-illustration-grid-color, #eee)"/>
<rect width="2" height="540" transform="translate(233)" fill="var(--component-illustration-grid-color, #eee)"/>
<rect width="2" height="540" transform="translate(315)" fill="var(--component-illustration-grid-color, #eee)"/>
<rect width="2" height="540" transform="translate(397)" fill="var(--component-illustration-grid-color, #eee)"/>
<rect width="2" height="540" transform="translate(479)" fill="var(--component-illustration-grid-color, #eee)"/>
<rect width="2" height="540" transform="translate(561)" fill="var(--component-illustration-grid-color, #eee)"/>
<rect width="2" height="540" transform="translate(643)" fill="var(--component-illustration-grid-color, #eee)"/>
<rect width="2" height="540" transform="translate(725)" fill="var(--component-illustration-grid-color, #eee)"/>
<rect width="2" height="540" transform="translate(807)" fill="var(--component-illustration-grid-color, #eee)"/>
<rect width="2" height="540" transform="translate(889)" fill="var(--component-illustration-grid-color, #eee)"/>
<rect width="960" height="2" transform="translate(0 64)" fill="var(--component-illustration-grid-color, #eee)"/>
<rect width="960" height="2" transform="translate(0 146)" fill="var(--component-illustration-grid-color, #eee)"/>
<rect width="960" height="2" transform="translate(0 228)" fill="var(--component-illustration-grid-color, #eee)"/>
<rect width="960" height="2" transform="translate(0 310)" fill="var(--component-illustration-grid-color, #eee)"/>
<rect width="960" height="2" transform="translate(0 392)" fill="var(--component-illustration-grid-color, #eee)"/>
<rect width="960" height="2" transform="translate(0 474)" fill="var(--component-illustration-grid-color, #eee)"/>
<path d="M70 64L70 476" stroke="var(--component-illustration-color, #666)" stroke-width="4" stroke-linecap="round"/>
<path d="M86.3984 64L86.3984 476" stroke="var(--component-illustration-color, #666)" stroke-width="4" stroke-linecap="round"/>
<path d="M102.801 64L102.801 476" stroke="var(--component-illustration-color, #666)" stroke-width="4" stroke-linecap="round"/>
<path d="M119.199 64L119.199 476" stroke="var(--component-illustration-color, #666)" stroke-width="4" stroke-linecap="round"/>
<path d="M135.602 64L135.602 476" stroke="var(--component-illustration-color, #666)" stroke-width="4" stroke-linecap="round"/>
<path d="M152 64L152 476" stroke="var(--component-illustration-color, #666)" stroke-width="4" stroke-linecap="round"/>
<path d="M168.398 64L168.398 476" stroke="var(--component-illustration-color, #666)" stroke-width="4" stroke-linecap="round"/>
<path d="M184.801 64L184.801 476" stroke="var(--component-illustration-color, #666)" stroke-width="4" stroke-linecap="round"/>
<path d="M201.199 64L201.199 476" stroke="var(--component-illustration-color, #666)" stroke-width="4" stroke-linecap="round"/>
<path d="M217.602 64L217.602 476" stroke="var(--component-illustration-color, #666)" stroke-width="4" stroke-linecap="round"/>
<path d="M234 64L234 476" stroke="var(--component-illustration-color, #666)" stroke-width="4" stroke-linecap="round"/>
<path d="M250.398 64L250.398 476" stroke="var(--component-illustration-color, #666)" stroke-width="4" stroke-linecap="round"/>
<path d="M266.801 64L266.801 476" stroke="var(--component-illustration-color, #666)" stroke-width="4" stroke-linecap="round"/>
<path d="M283.199 64L283.199 476" stroke="var(--component-illustration-color, #666)" stroke-width="4" stroke-linecap="round"/>
<path d="M299.602 64L299.602 476" stroke="var(--component-illustration-color, #666)" stroke-width="4" stroke-linecap="round"/>
<path d="M316 64L316 476" stroke="var(--component-illustration-color, #666)" stroke-width="4" stroke-linecap="round"/>
<path d="M332.398 64L332.398 476" stroke="var(--component-illustration-color, #666)" stroke-width="4" stroke-linecap="round"/>
<path d="M348.801 64L348.801 476" stroke="var(--component-illustration-color, #666)" stroke-width="4" stroke-linecap="round"/>
<path d="M365.199 64L365.199 476" stroke="var(--component-illustration-color, #666)" stroke-width="4" stroke-linecap="round"/>
<path d="M381.602 64L381.602 476" stroke="var(--component-illustration-color, #666)" stroke-width="4" stroke-linecap="round"/>
<path d="M398 64L398 476" stroke="var(--component-illustration-color, #666)" stroke-width="4" stroke-linecap="round"/>
<path d="M414.398 64L414.398 476" stroke="var(--component-illustration-color, #666)" stroke-width="4" stroke-linecap="round"/>
<path d="M430.801 64L430.801 476" stroke="var(--component-illustration-color, #666)" stroke-width="4" stroke-linecap="round"/>
<path d="M447.199 64L447.199 476" stroke="var(--component-illustration-color, #666)" stroke-width="4" stroke-linecap="round"/>
<path d="M463.602 64L463.602 476" stroke="var(--component-illustration-color, #666)" stroke-width="4" stroke-linecap="round"/>
<path d="M480 64L480 476" stroke="var(--component-illustration-color, #666)" stroke-width="4" stroke-linecap="round"/>
<path d="M496.398 64L496.398 476" stroke="var(--component-illustration-color, #666)" stroke-width="4" stroke-linecap="round"/>
<path d="M512.801 64L512.801 476" stroke="var(--component-illustration-color, #666)" stroke-width="4" stroke-linecap="round"/>
<path d="M529.199 64L529.199 476" stroke="var(--component-illustration-color, #666)" stroke-width="4" stroke-linecap="round"/>
<path d="M545.602 64L545.602 476" stroke="var(--component-illustration-color, #666)" stroke-width="4" stroke-linecap="round"/>
<path d="M562 64L562 476" stroke="var(--component-illustration-color, #666)" stroke-width="4" stroke-linecap="round"/>
<path d="M578.398 64L578.398 476" stroke="var(--component-illustration-color, #666)" stroke-width="4" stroke-linecap="round"/>
<path d="M594.801 64L594.801 476" stroke="var(--component-illustration-color, #666)" stroke-width="4" stroke-linecap="round"/>
<path d="M611.199 64L611.199 476" stroke="var(--component-illustration-color, #666)" stroke-width="4" stroke-linecap="round"/>
<path d="M627.602 64L627.602 476" stroke="var(--component-illustration-color, #666)" stroke-width="4" stroke-linecap="round"/>
<path d="M644 64L644 476" stroke="var(--component-illustration-color, #666)" stroke-width="4" stroke-linecap="round"/>
<path d="M660.398 64L660.398 476" stroke="var(--component-illustration-color, #666)" stroke-width="4" stroke-linecap="round"/>
<path d="M676.801 64L676.801 476" stroke="var(--component-illustration-color, #666)" stroke-width="4" stroke-linecap="round"/>
<path d="M693.199 64L693.199 476" stroke="var(--component-illustration-color, #666)" stroke-width="4" stroke-linecap="round"/>
<path d="M709.602 64L709.602 476" stroke="var(--component-illustration-color, #666)" stroke-width="4" stroke-linecap="round"/>
<path d="M726 64L726 476" stroke="var(--component-illustration-color, #666)" stroke-width="4" stroke-linecap="round"/>
<path d="M742.398 64L742.398 476" stroke="var(--component-illustration-color, #666)" stroke-width="4" stroke-linecap="round"/>
<path d="M758.801 64L758.801 476" stroke="var(--component-illustration-color, #666)" stroke-width="4" stroke-linecap="round"/>
<path d="M775.199 64L775.199 476" stroke="var(--component-illustration-color, #666)" stroke-width="4" stroke-linecap="round"/>
<path d="M791.602 64L791.602 476" stroke="var(--component-illustration-color, #666)" stroke-width="4" stroke-linecap="round"/>
<path d="M808 64L808 476" stroke="var(--component-illustration-color, #666)" stroke-width="4" stroke-linecap="round"/>
<path d="M824.398 64L824.398 476" stroke="var(--component-illustration-color, #666)" stroke-width="4" stroke-linecap="round"/>
<path d="M840.801 64L840.801 476" stroke="var(--component-illustration-color, #666)" stroke-width="4" stroke-linecap="round"/>
<path d="M857.199 64L857.199 476" stroke="var(--component-illustration-color, #666)" stroke-width="4" stroke-linecap="round"/>
<path d="M873.602 64L873.602 476" stroke="var(--component-illustration-color, #666)" stroke-width="4" stroke-linecap="round"/>
<path d="M890 64L890 476" stroke="var(--component-illustration-color, #666)" stroke-width="4" stroke-linecap="round"/>
<g filter="url(#filter0_d_640_2876)">
<rect x="233" y="161" width="494" height="218" fill="var(--component-illustration-background-color, white)"/>
<rect x="273" y="209" width="346" height="16" rx="8" fill="var(--component-illustration-color, #666)"/>
<rect x="273" y="241" width="240" height="16" rx="8" fill="var(--component-illustration-color, #666)"/>
<rect x="273" y="289" width="165" height="42" rx="8" fill="var(--component-illustration-color, #666)"/>
<rect x="295.5" y="306" width="120" height="8" rx="4" fill="var(--component-illustration-background-color, white)"/>
<rect x="476.5" y="306" width="120" height="8" rx="4" fill="var(--component-illustration-color, #666)"/>
<rect x="456" y="291" width="161" height="38" rx="6" stroke="var(--component-illustration-color, #666)" stroke-width="4"/>
<path fill-rule="evenodd" clip-rule="evenodd" d="M657.586 203.586C658.367 202.805 659.633 202.805 660.414 203.586L671 214.172L681.586 203.586C682.367 202.805 683.633 202.805 684.414 203.586C685.195 204.367 685.195 205.633 684.414 206.414L673.828 217L684.414 227.586C685.195 228.367 685.195 229.633 684.414 230.414C683.633 231.195 682.367 231.195 681.586 230.414L671 219.828L660.414 230.414C659.633 231.195 658.367 231.195 657.586 230.414C656.805 229.633 656.805 228.367 657.586 227.586L668.172 217L657.586 206.414C656.805 205.633 656.805 204.367 657.586 203.586Z" fill="var(--component-illustration-color, #666)"/>
<rect x="235" y="163" width="490" height="214" stroke="var(--component-illustration-color, #666)" stroke-width="4"/>
<defs>
<filter id="filter0_d_640_2876" x="233" y="161" width="502" height="226" filterUnits="userSpaceOnUse" color-interpolation-filters="sRGB">
<feFlood flood-opacity="0" result="BackgroundImageFix"/>
<feColorMatrix in="SourceAlpha" type="matrix" values="0 0 0 0 0 0 0 0 0 0 0 0 0 0 0 0 0 0 127 0" result="hardAlpha"/>
<feOffset dx="8" dy="8"/>
<feComposite in2="hardAlpha" operator="out"/>
<feColorMatrix type="matrix"/>
<feBlend mode="normal" in2="BackgroundImageFix" result="effect1_dropShadow_640_2876"/>
<feBlend mode="normal" in="SourceGraphic" in2="effect1_dropShadow_640_2876" result="shape"/>
</filter>
</defs>
</symbol>
<use href="#component-illustration"/>
</svg>
