<svg width="960" height="540" viewBox="0 0 960 540" fill="none" xmlns="http://www.w3.org/2000/svg" >
<symbol id="component-illustration">
<g clip-path="url(#clip0_1107_2400)">
<rect width="960" height="540" fill="var(--component-illustration-background-color, white)"/>
<g clip-path="url(#clip1_1107_2400)">
<rect width="960" height="540" fill="var(--component-illustration-background-color, white)"/>
<rect width="2" height="540" transform="translate(69)" fill="var(--component-illustration-grid-color, #eee)"/>
<rect width="2" height="540" transform="translate(151)" fill="var(--component-illustration-grid-color, #eee)"/>
<rect width="2" height="540" transform="translate(233)" fill="var(--component-illustration-grid-color, #eee)"/>
<rect width="2" height="540" transform="translate(315)" fill="var(--component-illustration-grid-color, #eee)"/>
<rect width="2" height="540" transform="translate(397)" fill="var(--component-illustration-grid-color, #eee)"/>
<rect width="2" height="540" transform="translate(479)" fill="var(--component-illustration-grid-color, #eee)"/>
<rect width="2" height="540" transform="translate(561)" fill="var(--component-illustration-grid-color, #eee)"/>
<rect width="2" height="540" transform="translate(643)" fill="var(--component-illustration-grid-color, #eee)"/>
<rect width="2" height="540" transform="translate(725)" fill="var(--component-illustration-grid-color, #eee)"/>
<rect width="2" height="540" transform="translate(807)" fill="var(--component-illustration-grid-color, #eee)"/>
<rect width="2" height="540" transform="translate(889)" fill="var(--component-illustration-grid-color, #eee)"/>
<rect width="960" height="2" transform="translate(0 64)" fill="var(--component-illustration-grid-color, #eee)"/>
<rect width="960" height="2" transform="translate(0 146)" fill="var(--component-illustration-grid-color, #eee)"/>
<rect width="960" height="2" transform="translate(0 228)" fill="var(--component-illustration-grid-color, #eee)"/>
<rect width="960" height="2" transform="translate(0 310)" fill="var(--component-illustration-grid-color, #eee)"/>
<rect width="960" height="2" transform="translate(0 392)" fill="var(--component-illustration-grid-color, #eee)"/>
<rect width="960" height="2" transform="translate(0 474)" fill="var(--component-illustration-grid-color, #eee)"/>
</g>
<path d="M70 64L70 476" stroke="var(--component-illustration-color, #666)" stroke-width="4" stroke-linecap="round"/>
<path d="M86.4004 64L86.4004 476" stroke="var(--component-illustration-color, #666)" stroke-width="4" stroke-linecap="round"/>
<path d="M102.801 64L102.801 476" stroke="var(--component-illustration-color, #666)" stroke-width="4" stroke-linecap="round"/>
<path d="M119.199 64L119.199 476" stroke="var(--component-illustration-color, #666)" stroke-width="4" stroke-linecap="round"/>
<path d="M135.6 64L135.6 476" stroke="var(--component-illustration-color, #666)" stroke-width="4" stroke-linecap="round"/>
<path d="M152 64L152 476" stroke="var(--component-illustration-color, #666)" stroke-width="4" stroke-linecap="round"/>
<path d="M168.4 64L168.4 476" stroke="var(--component-illustration-color, #666)" stroke-width="4" stroke-linecap="round"/>
<path d="M184.801 64L184.801 476" stroke="var(--component-illustration-color, #666)" stroke-width="4" stroke-linecap="round"/>
<path d="M201.199 64L201.199 476" stroke="var(--component-illustration-color, #666)" stroke-width="4" stroke-linecap="round"/>
<path d="M217.6 64L217.6 476" stroke="var(--component-illustration-color, #666)" stroke-width="4" stroke-linecap="round"/>
<path d="M234 64L234 476" stroke="var(--component-illustration-color, #666)" stroke-width="4" stroke-linecap="round"/>
<path d="M250.4 64L250.4 476" stroke="var(--component-illustration-color, #666)" stroke-width="4" stroke-linecap="round"/>
<path d="M266.801 64L266.801 476" stroke="var(--component-illustration-color, #666)" stroke-width="4" stroke-linecap="round"/>
<path d="M283.199 64L283.199 476" stroke="var(--component-illustration-color, #666)" stroke-width="4" stroke-linecap="round"/>
<path d="M299.6 64L299.6 476" stroke="var(--component-illustration-color, #666)" stroke-width="4" stroke-linecap="round"/>
<path d="M316 64L316 476" stroke="var(--component-illustration-color, #666)" stroke-width="4" stroke-linecap="round"/>
<path d="M332.4 64L332.4 476" stroke="var(--component-illustration-color, #666)" stroke-width="4" stroke-linecap="round"/>
<path d="M348.801 64L348.801 476" stroke="var(--component-illustration-color, #666)" stroke-width="4" stroke-linecap="round"/>
<path d="M365.199 64L365.199 476" stroke="var(--component-illustration-color, #666)" stroke-width="4" stroke-linecap="round"/>
<path d="M381.6 64L381.6 476" stroke="var(--component-illustration-color, #666)" stroke-width="4" stroke-linecap="round"/>
<path d="M398 64L398 476" stroke="var(--component-illustration-color, #666)" stroke-width="4" stroke-linecap="round"/>
<path d="M414.4 64L414.4 476" stroke="var(--component-illustration-color, #666)" stroke-width="4" stroke-linecap="round"/>
<path d="M430.801 64L430.801 476" stroke="var(--component-illustration-color, #666)" stroke-width="4" stroke-linecap="round"/>
<path d="M447.199 64L447.199 476" stroke="var(--component-illustration-color, #666)" stroke-width="4" stroke-linecap="round"/>
<path d="M463.6 64L463.6 476" stroke="var(--component-illustration-color, #666)" stroke-width="4" stroke-linecap="round"/>
<path d="M480 64L480 476" stroke="var(--component-illustration-color, #666)" stroke-width="4" stroke-linecap="round"/>
<path d="M496.4 64L496.4 476" stroke="var(--component-illustration-color, #666)" stroke-width="4" stroke-linecap="round"/>
<path d="M512.801 64L512.801 476" stroke="var(--component-illustration-color, #666)" stroke-width="4" stroke-linecap="round"/>
<path d="M529.199 64L529.199 476" stroke="var(--component-illustration-color, #666)" stroke-width="4" stroke-linecap="round"/>
<path d="M545.6 64L545.6 476" stroke="var(--component-illustration-color, #666)" stroke-width="4" stroke-linecap="round"/>
<path d="M562 64L562 476" stroke="var(--component-illustration-color, #666)" stroke-width="4" stroke-linecap="round"/>
<path d="M578.4 64L578.4 476" stroke="var(--component-illustration-color, #666)" stroke-width="4" stroke-linecap="round"/>
<path d="M594.801 64L594.801 476" stroke="var(--component-illustration-color, #666)" stroke-width="4" stroke-linecap="round"/>
<path d="M611.199 64L611.199 476" stroke="var(--component-illustration-color, #666)" stroke-width="4" stroke-linecap="round"/>
<path d="M627.6 64L627.6 476" stroke="var(--component-illustration-color, #666)" stroke-width="4" stroke-linecap="round"/>
<path d="M644 64L644 476" stroke="var(--component-illustration-color, #666)" stroke-width="4" stroke-linecap="round"/>
<path d="M660.4 64L660.4 476" stroke="var(--component-illustration-color, #666)" stroke-width="4" stroke-linecap="round"/>
<path d="M676.801 64L676.801 476" stroke="var(--component-illustration-color, #666)" stroke-width="4" stroke-linecap="round"/>
<path d="M693.199 64L693.199 476" stroke="var(--component-illustration-color, #666)" stroke-width="4" stroke-linecap="round"/>
<path d="M709.6 64L709.6 476" stroke="var(--component-illustration-color, #666)" stroke-width="4" stroke-linecap="round"/>
<path d="M726 64L726 476" stroke="var(--component-illustration-color, #666)" stroke-width="4" stroke-linecap="round"/>
<path d="M742.4 64L742.4 476" stroke="var(--component-illustration-color, #666)" stroke-width="4" stroke-linecap="round"/>
<path d="M758.801 64L758.801 476" stroke="var(--component-illustration-color, #666)" stroke-width="4" stroke-linecap="round"/>
<path d="M775.199 64L775.199 476" stroke="var(--component-illustration-color, #666)" stroke-width="4" stroke-linecap="round"/>
<path d="M791.6 64L791.6 476" stroke="var(--component-illustration-color, #666)" stroke-width="4" stroke-linecap="round"/>
<path d="M808 64L808 476" stroke="var(--component-illustration-color, #666)" stroke-width="4" stroke-linecap="round"/>
<path d="M824.4 64L824.4 476" stroke="var(--component-illustration-color, #666)" stroke-width="4" stroke-linecap="round"/>
<path d="M840.801 64L840.801 476" stroke="var(--component-illustration-color, #666)" stroke-width="4" stroke-linecap="round"/>
<path d="M857.201 64L857.201 476" stroke="var(--component-illustration-color, #666)" stroke-width="4" stroke-linecap="round"/>
<path d="M873.6 64L873.6 476" stroke="var(--component-illustration-color, #666)" stroke-width="4" stroke-linecap="round"/>
<path d="M890 64L890 476" stroke="var(--component-illustration-color, #666)" stroke-width="4" stroke-linecap="round"/>
<g clip-path="url(#clip2_1107_2400)">
<rect x="553" y="62" width="342" height="417" fill="var(--component-illustration-color, #666)"/>
</g>
<rect x="563" y="64" width="330" height="410" fill="var(--component-illustration-background-color, white)"/>
<rect x="563" y="64" width="330" height="410" stroke="var(--component-illustration-color, #666)" stroke-width="4"/>
<rect x="601" y="104" width="126" height="24" rx="12" fill="var(--component-illustration-color, #666)"/>
<rect x="601" y="176" width="254" height="16" rx="8" fill="var(--component-illustration-color, #666)"/>
<rect x="601" y="208" width="254" height="16" rx="8" fill="var(--component-illustration-color, #666)"/>
<rect x="601" y="240" width="196" height="16" rx="8" fill="var(--component-illustration-color, #666)"/>
<path fill-rule="evenodd" clip-rule="evenodd" d="M825.586 102.586C826.367 101.805 827.633 101.805 828.414 102.586L839 113.172L849.586 102.586C850.367 101.805 851.633 101.805 852.414 102.586C853.195 103.367 853.195 104.633 852.414 105.414L841.828 116L852.414 126.586C853.195 127.367 853.195 128.633 852.414 129.414C851.633 130.195 850.367 130.195 849.586 129.414L839 118.828L828.414 129.414C827.633 130.195 826.367 130.195 825.586 129.414C824.805 128.633 824.805 127.367 825.586 126.586L836.172 116L825.586 105.414C824.805 104.633 824.805 103.367 825.586 102.586Z" fill="var(--component-illustration-color, #666)"/>
</g>
<defs>
<clipPath id="clip0_1107_2400">
<rect width="960" height="540" fill="var(--component-illustration-background-color, white)"/>
</clipPath>
<clipPath id="clip1_1107_2400">
<rect width="960" height="540" fill="var(--component-illustration-background-color, white)"/>
</clipPath>
<clipPath id="clip2_1107_2400">
<rect width="342" height="417" fill="var(--component-illustration-background-color, white)" transform="translate(553 62)"/>
</clipPath>
</defs>
</symbol>
<use href="#component-illustration"/>
</svg>
