<svg width="960" height="540" viewBox="0 0 960 540" fill="none" xmlns="http://www.w3.org/2000/svg">
<symbol id="component-illustration">
<g fill="var(--component-illustration-background-color, white)">
<rect width="960" height="540"/>
<rect width="960" height="540"/>
</g>
<g fill="var(--component-illustration-grid-color, #eee)">
    <rect width="2" height="540" transform="translate(69)"/>
    <rect width="2" height="540" transform="translate(151)"/>
    <rect width="2" height="540" transform="translate(233)"/>
    <rect width="2" height="540" transform="translate(315)"/>
    <rect width="2" height="540" transform="translate(397)"/>
    <rect width="2" height="540" transform="translate(479)"/>
    <rect width="2" height="540" transform="translate(561)"/>
    <rect width="2" height="540" transform="translate(643)"/>
    <rect width="2" height="540" transform="translate(725)"/>
    <rect width="2" height="540" transform="translate(807)"/>
    <rect width="2" height="540" transform="translate(889)"/>
    <rect width="960" height="2" transform="translate(0 64)"/>
    <rect width="960" height="2" transform="translate(0 146)"/>
    <rect width="960" height="2" transform="translate(0 228)"/>
    <rect width="960" height="2" transform="translate(0 310)"/>
    <rect width="960" height="2" transform="translate(0 392)"/>
    <rect width="960" height="2" transform="translate(0 474)"/>
</g>
<path fill-rule="evenodd" clip-rule="evenodd" d="M459.999 210C463.681 210 466.665 212.828 466.665 216.316V222.631H473.332C477.014 222.631 479.998 225.459 479.998 228.947C479.998 232.435 477.014 235.263 473.332 235.263H466.426C465.473 247.764 461.713 259.192 455.888 268.021C455.693 268.317 455.494 268.611 455.293 268.903C461.572 271.353 469.417 272.956 478.162 273.159C481.843 273.245 484.753 276.141 484.663 279.628C484.573 283.115 481.515 285.872 477.835 285.787C465.929 285.51 454.871 283.003 446.097 278.8C440.564 283.115 434 285.788 426.666 285.788C422.985 285.788 420 282.961 420 279.473C420 275.985 422.985 273.157 426.666 273.157C429.269 273.157 431.951 272.469 434.586 271.047C429.819 266.472 426.666 260.79 426.666 254.21C426.666 250.722 429.651 247.894 433.333 247.894C437.015 247.894 439.999 250.722 439.999 254.21C439.999 256.615 441.179 259.389 444.027 262.146C444.213 261.878 444.398 261.605 444.582 261.326C448.979 254.661 452.128 245.603 453.053 235.263H426.666C422.985 235.263 420 232.435 420 228.947C420 225.459 422.985 222.631 426.666 222.631H453.332V216.316C453.332 212.828 456.317 210 459.999 210ZM506.666 260.526C509.3 260.526 511.688 261.996 512.758 264.276L539.424 321.118C540.919 324.305 539.404 328.037 536.039 329.454C532.675 330.871 528.735 329.435 527.24 326.248L523.074 317.367H490.258L486.092 326.248C484.597 329.435 480.657 330.871 477.292 329.454C473.928 328.037 472.413 324.305 473.908 321.118L500.574 264.276C501.644 261.996 504.031 260.526 506.666 260.526ZM496.184 304.736H517.148L506.666 282.392L496.184 304.736Z" fill="var(--component-illustration-color, #666)"/>
</symbol>
<use href="#component-illustration"/>
</svg>
