<svg width="98" height="48" fill="none" xmlns="http://www.w3.org/2000/svg"><path d="M0 2a2 2 0 0 1 2-2h94a2 2 0 0 1 2 2v44a2 2 0 0 1-2 2H2a2 2 0 0 1-2-2V2Z" fill="#fff"/><path d="M30.917 23.176c.757.128 1.37.395 1.84.8s.704 1.035.704 1.888c0 2.09-1.456 3.136-4.368 3.136h-3.04V17.976h2.608c1.397 0 2.464.23 3.2.688.747.459 1.12 1.157 1.12 2.096 0 .64-.203 1.173-.608 1.6-.394.427-.88.699-1.456.816Zm-3.344-4v3.472h1.664c.64 0 1.163-.155 1.568-.464.416-.31.624-.747.624-1.312 0-.64-.218-1.083-.656-1.328-.427-.245-1.077-.368-1.952-.368h-1.248Zm1.52 8.608c.896 0 1.579-.133 2.048-.4.48-.267.72-.773.72-1.52 0-.725-.23-1.248-.688-1.568-.458-.32-1.056-.48-1.792-.48h-1.808v3.968h1.52ZM41.98 29h-1.264l-.113-1.312c-.32.523-.688.907-1.104 1.152-.416.235-.922.352-1.52.352-.736 0-1.312-.224-1.727-.672-.416-.448-.625-1.083-.625-1.904v-6.048H37.1v5.888c0 .576.102.987.305 1.232.202.235.533.352.991.352.822 0 1.526-.485 2.112-1.456v-6.016h1.473V29Zm7.296-.384a3.238 3.238 0 0 1-1.888.576c-.715 0-1.275-.203-1.68-.608-.395-.416-.592-1.013-.592-1.792v-5.088h-1.472v-1.136h1.472v-1.904l1.472-.176v2.08h2l-.16 1.136h-1.84v5.024c0 .437.075.757.224.96.16.192.421.288.784.288.33 0 .704-.112 1.12-.336l.56.976Zm5.781 0a3.238 3.238 0 0 1-1.888.576c-.714 0-1.274-.203-1.68-.608-.394-.416-.592-1.013-.592-1.792v-5.088h-1.472v-1.136h1.472v-1.904l1.472-.176v2.08h2l-.16 1.136h-1.84v5.024c0 .437.075.757.224.96.16.192.422.288.784.288.33 0 .704-.112 1.12-.336l.56.976Zm4.46-8.24c1.183 0 2.1.395 2.751 1.184.661.79.992 1.861.992 3.216 0 .875-.15 1.648-.448 2.32-.298.661-.73 1.179-1.296 1.552-.565.363-1.237.544-2.016.544-1.184 0-2.106-.395-2.768-1.184-.661-.79-.992-1.861-.992-3.216 0-.875.15-1.643.448-2.304.299-.672.73-1.19 1.296-1.552.566-.373 1.243-.56 2.032-.56Zm0 1.184c-1.462 0-2.193 1.077-2.193 3.232 0 2.144.726 3.216 2.176 3.216 1.45 0 2.176-1.077 2.176-3.232 0-2.144-.72-3.216-2.16-3.216Zm10.143-1.184c.768 0 1.365.23 1.792.688.437.459.656 1.088.656 1.888V29h-1.472v-5.84c0-.597-.112-1.019-.336-1.264-.224-.245-.555-.368-.992-.368a1.92 1.92 0 0 0-1.184.384c-.341.256-.661.624-.96 1.104V29h-1.472v-8.432h1.264l.128 1.248c.298-.448.666-.8 1.104-1.056a2.915 2.915 0 0 1 1.472-.384ZM2 2h94v-4H2v4Zm94 0v44h4V2h-4Zm0 44H2v4h94v-4ZM2 46V2h-4v44h4Zm0 0h-4a4 4 0 0 0 4 4v-4Zm94 0v4a4 4 0 0 0 4-4h-4Zm0-44h4a4 4 0 0 0-4-4v4ZM2-2a4 4 0 0 0-4 4h4v-4Z" fill="#005F89"/></svg>