<svg width="431" height="194" fill="none" xmlns="http://www.w3.org/2000/svg"><path d="M0 2a2 2 0 0 1 2-2h427a2 2 0 0 1 2 2v190a2 2 0 0 1-2 2H2a2 2 0 0 1-2-2V2Z" fill="#fff"/><path d="M24.184 22.176c.992 0 1.824.128 2.496.384.688.256 1.384.672 2.088 1.248l-1.248 1.464c-1.008-.816-2.072-1.224-3.192-1.224-1.376 0-2.488.528-3.336 1.584-.832 1.056-1.248 2.752-1.248 5.088 0 2.272.416 3.952 1.248 5.04.832 1.072 1.936 1.608 3.312 1.608.704 0 1.32-.12 1.848-.36A9.706 9.706 0 0 0 27.832 36l1.128 1.44c-.512.528-1.168.968-1.968 1.32-.8.352-1.72.528-2.76.528-1.344 0-2.544-.328-3.6-.984-1.04-.672-1.856-1.648-2.448-2.928-.576-1.296-.864-2.848-.864-4.656 0-1.808.304-3.352.912-4.632.608-1.296 1.432-2.272 2.472-2.928 1.04-.656 2.2-.984 3.48-.984Zm16.311 13.872c0 .512.088.896.264 1.152.176.24.44.424.792.552l-.504 1.536c-.656-.08-1.184-.264-1.584-.552-.4-.288-.696-.736-.888-1.344-.848 1.264-2.104 1.896-3.768 1.896-1.248 0-2.232-.352-2.952-1.056-.72-.704-1.08-1.624-1.08-2.76 0-1.344.48-2.376 1.44-3.096.976-.72 2.352-1.08 4.128-1.08h1.944v-.936c0-.896-.216-1.536-.648-1.92-.432-.384-1.096-.576-1.992-.576-.928 0-2.064.224-3.408.672l-.552-1.608c1.568-.576 3.024-.864 4.368-.864 1.488 0 2.6.368 3.336 1.104.736.72 1.104 1.752 1.104 3.096v5.784Zm-5.184 1.584c1.264 0 2.256-.656 2.976-1.968V32.76h-1.656c-2.336 0-3.504.864-3.504 2.592 0 .752.184 1.32.552 1.704.368.384.912.576 1.632.576Zm15.715-11.568c.448 0 .864.048 1.248.144l-.408 2.16a4.55 4.55 0 0 0-1.104-.144c-.784 0-1.416.288-1.896.864-.48.576-.856 1.472-1.128 2.688V39H45.53V26.352h1.896l.216 2.568c.336-.944.792-1.656 1.368-2.136a3.054 3.054 0 0 1 2.016-.72Zm13.327-4.8V39H62.41l-.216-1.752a4.69 4.69 0 0 1-1.56 1.512 4.175 4.175 0 0 1-2.088.528c-1.504 0-2.68-.592-3.528-1.776-.832-1.184-1.248-2.776-1.248-4.776 0-1.296.2-2.448.6-3.456.4-1.008.976-1.792 1.728-2.352.752-.576 1.632-.864 2.64-.864 1.296 0 2.432.52 3.408 1.56V21l2.208.264Zm-5.328 16.272c.672 0 1.248-.152 1.728-.456.48-.32.944-.792 1.392-1.416v-6.192c-.416-.544-.864-.952-1.344-1.224a2.941 2.941 0 0 0-1.584-.432c-.976 0-1.736.408-2.28 1.224-.528.816-.792 2.032-.792 3.648 0 1.632.248 2.848.744 3.648.496.8 1.208 1.2 2.136 1.2Zm21.84-11.472c.752 0 1.44.112 2.064.336.624.208 1.224.552 1.8 1.032l-1.056 1.392a5.024 5.024 0 0 0-1.32-.696 3.85 3.85 0 0 0-1.392-.24c-1.024 0-1.824.408-2.4 1.224-.56.816-.84 2.024-.84 3.624s.28 2.784.84 3.552c.56.752 1.36 1.128 2.4 1.128.496 0 .952-.072 1.368-.216.416-.16.88-.408 1.392-.744l1.008 1.44c-1.152.928-2.44 1.392-3.864 1.392-1.712 0-3.064-.576-4.056-1.728-.976-1.152-1.464-2.744-1.464-4.776 0-1.344.224-2.52.672-3.528.448-1.008 1.08-1.792 1.896-2.352.832-.56 1.816-.84 2.952-.84Zm11.636 0c1.776 0 3.152.592 4.128 1.776.992 1.184 1.488 2.792 1.488 4.824 0 1.312-.224 2.472-.672 3.48-.448.992-1.096 1.768-1.944 2.328-.848.544-1.856.816-3.024.816-1.776 0-3.16-.592-4.152-1.776-.992-1.184-1.488-2.792-1.488-4.824 0-1.312.224-2.464.672-3.456.448-1.008 1.096-1.784 1.944-2.328.848-.56 1.864-.84 3.048-.84Zm0 1.776c-2.192 0-3.288 1.616-3.288 4.848 0 3.216 1.088 4.824 3.264 4.824 2.176 0 3.264-1.616 3.264-4.848 0-3.216-1.08-4.824-3.24-4.824Zm15.715-1.776c1.152 0 2.048.344 2.688 1.032.656.688.984 1.632.984 2.832V39h-2.208v-8.76c0-.896-.168-1.528-.504-1.896-.336-.368-.832-.552-1.488-.552a2.88 2.88 0 0 0-1.776.576c-.512.384-.992.936-1.44 1.656V39h-2.208V26.352h1.896l.192 1.872c.448-.672 1-1.2 1.656-1.584a4.373 4.373 0 0 1 2.208-.576Zm14.995 12.36c-.832.576-1.776.864-2.832.864-1.072 0-1.912-.304-2.52-.912-.592-.624-.888-1.52-.888-2.688v-7.632h-2.208v-1.704h2.208v-2.856l2.208-.264v3.12h3l-.24 1.704h-2.76v7.536c0 .656.112 1.136.336 1.44.24.288.632.432 1.176.432.496 0 1.056-.168 1.68-.504l.84 1.464Zm11.144-2.376c0 .512.088.896.264 1.152.176.24.44.424.792.552l-.504 1.536c-.656-.08-1.184-.264-1.584-.552-.4-.288-.696-.736-.888-1.344-.848 1.264-2.104 1.896-3.768 1.896-1.248 0-2.232-.352-2.952-1.056-.72-.704-1.08-1.624-1.08-2.76 0-1.344.48-2.376 1.44-3.096.976-.72 2.352-1.08 4.128-1.08h1.944v-.936c0-.896-.216-1.536-.648-1.92-.432-.384-1.096-.576-1.992-.576-.928 0-2.064.224-3.408.672l-.552-1.608c1.568-.576 3.024-.864 4.368-.864 1.488 0 2.6.368 3.336 1.104.736.72 1.104 1.752 1.104 3.096v5.784Zm-5.184 1.584c1.264 0 2.256-.656 2.976-1.968V32.76h-1.656c-2.336 0-3.504.864-3.504 2.592 0 .752.184 1.32.552 1.704.368.384.912.576 1.632.576Zm12.426-11.28V39h-2.208V26.352h2.208Zm-1.128-6.072c.464 0 .84.144 1.128.432.288.288.432.648.432 1.08 0 .432-.144.792-.432 1.08-.288.272-.664.408-1.128.408-.448 0-.816-.136-1.104-.408a1.465 1.465 0 0 1-.432-1.08c0-.432.144-.792.432-1.08.288-.288.656-.432 1.104-.432Zm12.146 5.784c1.152 0 2.048.344 2.688 1.032.656.688.984 1.632.984 2.832V39h-2.208v-8.76c0-.896-.168-1.528-.504-1.896-.336-.368-.832-.552-1.488-.552a2.88 2.88 0 0 0-1.776.576c-.512.384-.992.936-1.44 1.656V39h-2.208V26.352h1.896l.192 1.872c.448-.672 1-1.2 1.656-1.584a4.373 4.373 0 0 1 2.208-.576Zm18.162 6.24c0 .368-.016.744-.048 1.128h-8.064c.096 1.392.448 2.416 1.056 3.072.608.656 1.392.984 2.352.984.608 0 1.168-.088 1.68-.264.512-.176 1.048-.456 1.608-.84l.96 1.32c-1.344 1.056-2.816 1.584-4.416 1.584-1.76 0-3.136-.576-4.128-1.728-.976-1.152-1.464-2.736-1.464-4.752 0-1.312.208-2.472.624-3.48.432-1.024 1.04-1.824 1.824-2.4.8-.576 1.736-.864 2.808-.864 1.68 0 2.968.552 3.864 1.656.896 1.104 1.344 2.632 1.344 4.584Zm-2.184-.648c0-1.248-.248-2.2-.744-2.856-.496-.656-1.24-.984-2.232-.984-1.808 0-2.792 1.328-2.952 3.984h5.928v-.144Zm11.706-5.592c.448 0 .864.048 1.248.144l-.408 2.16a4.55 4.55 0 0 0-1.104-.144c-.784 0-1.416.288-1.896.864-.48.576-.856 1.472-1.128 2.688V39h-2.208V26.352h1.896l.216 2.568c.336-.944.792-1.656 1.368-2.136a3.054 3.054 0 0 1 2.016-.72ZM19.12 59.976v9.696h4.528L23.472 71H17.6V59.976h1.52Zm9.13 2.4c1.184 0 2.102.395 2.753 1.184.66.79.991 1.861.991 3.216 0 .875-.149 1.648-.447 2.32-.3.661-.731 1.179-1.297 1.552-.565.363-1.237.544-2.015.544-1.184 0-2.107-.395-2.768-1.184-.662-.79-.992-1.861-.992-3.216 0-.875.149-1.643.447-2.304.3-.672.731-1.19 1.296-1.552.566-.373 1.243-.56 2.032-.56Zm0 1.184c-1.46 0-2.192 1.077-2.192 3.232 0 2.144.726 3.216 2.177 3.216 1.45 0 2.175-1.077 2.175-3.232 0-2.144-.72-3.216-2.16-3.216Zm9.84-1.184c.299 0 .576.032.832.096l-.272 1.44a3.034 3.034 0 0 0-.736-.096c-.522 0-.944.192-1.264.576-.32.384-.57.981-.752 1.792V71h-1.472v-8.432h1.264l.144 1.712c.224-.63.528-1.104.912-1.424.384-.32.832-.48 1.344-.48Zm8.392 4.16c0 .245-.01.496-.032.752h-5.376c.064.928.298 1.61.704 2.048.405.437.928.656 1.568.656.405 0 .778-.059 1.12-.176a4.517 4.517 0 0 0 1.072-.56l.64.88c-.896.704-1.878 1.056-2.944 1.056-1.174 0-2.09-.384-2.752-1.152-.65-.768-.976-1.824-.976-3.168 0-.875.138-1.648.416-2.32.288-.683.693-1.216 1.216-1.6.533-.384 1.157-.576 1.872-.576 1.12 0 1.978.368 2.576 1.104.597.736.896 1.755.896 3.056Zm-1.456-.432c0-.832-.166-1.467-.496-1.904-.33-.437-.827-.656-1.488-.656-1.206 0-1.862.885-1.968 2.656h3.952v-.096Zm12.27-3.728c.694 0 1.248.235 1.665.704.416.459.623 1.083.623 1.872V71h-1.472v-5.84c0-1.088-.394-1.632-1.184-1.632-.415 0-.767.123-1.055.368-.288.235-.598.608-.928 1.12V71h-1.473v-5.84c0-1.088-.394-1.632-1.184-1.632-.426 0-.783.123-1.071.368-.288.245-.593.619-.913 1.12V71h-1.471v-8.432h1.264l.127 1.232c.63-.95 1.44-1.424 2.433-1.424.522 0 .965.133 1.328.4.373.267.64.64.8 1.12.33-.49.693-.864 1.088-1.12.405-.267.88-.4 1.424-.4Zm10.962.192V71h-1.472v-8.432h1.472Zm-.752-4.048c.309 0 .56.096.752.288a.977.977 0 0 1 .288.72.977.977 0 0 1-.288.72c-.192.181-.443.272-.752.272-.299 0-.544-.09-.736-.272a.977.977 0 0 1-.288-.72c0-.288.096-.528.288-.72a.997.997 0 0 1 .736-.288Zm7.667 3.856c1.078 0 1.867.384 2.368 1.152.502.768.752 1.85.752 3.248 0 1.323-.288 2.39-.864 3.2-.576.81-1.392 1.216-2.448 1.216-.938 0-1.674-.32-2.208-.96v4l-1.472.176v-11.84h1.264l.112 1.136c.31-.427.683-.752 1.12-.976a2.87 2.87 0 0 1 1.376-.352Zm-.544 7.616c1.387 0 2.08-1.072 2.08-3.216 0-2.155-.634-3.232-1.904-3.232-.416 0-.794.123-1.136.368-.341.245-.64.56-.896.944v4.112c.214.33.48.587.8.768.32.17.672.256 1.056.256Zm8.46-7.616c.576 0 1.094.08 1.552.24.459.16.896.4 1.312.72l-.624.928a5.02 5.02 0 0 0-1.104-.544 3.325 3.325 0 0 0-1.088-.176c-.48 0-.858.101-1.136.304a.92.92 0 0 0-.416.8c0 .341.128.608.384.8.267.192.742.379 1.424.56.939.235 1.638.555 2.096.96.47.405.704.96.704 1.664 0 .832-.325 1.467-.976 1.904-.64.437-1.424.656-2.352.656-1.28 0-2.341-.368-3.184-1.104l.784-.896c.715.544 1.504.816 2.368.816.555 0 .992-.112 1.312-.336.33-.235.496-.55.496-.944 0-.288-.058-.517-.176-.688-.117-.181-.32-.336-.608-.464-.288-.139-.71-.283-1.264-.432-.896-.235-1.546-.55-1.952-.944-.394-.395-.592-.896-.592-1.504 0-.437.128-.832.384-1.184.267-.363.63-.64 1.088-.832.47-.203.992-.304 1.568-.304ZM94.542 71h-1.264l-.112-1.312c-.32.523-.688.907-1.104 1.152-.416.235-.923.352-1.52.352-.736 0-1.312-.224-1.728-.672-.416-.448-.624-1.083-.624-1.904v-6.048h1.472v5.888c0 .576.101.987.304 1.232.203.235.533.352.992.352.821 0 1.525-.485 2.112-1.456v-6.016h1.472V71Zm11.505-8.624c.693 0 1.248.235 1.664.704.416.459.624 1.083.624 1.872V71h-1.472v-5.84c0-1.088-.395-1.632-1.184-1.632-.416 0-.768.123-1.056.368-.288.235-.598.608-.928 1.12V71h-1.472v-5.84c0-1.088-.395-1.632-1.184-1.632-.427 0-.784.123-1.073.368-.287.245-.591.619-.911 1.12V71h-1.473v-8.432h1.265l.128 1.232c.629-.95 1.44-1.424 2.432-1.424.522 0 .965.133 1.328.4.373.267.64.64.8 1.12.33-.49.693-.864 1.088-1.12.405-.267.88-.4 1.424-.4Zm16.017-3.2V71h-1.296l-.144-1.168a3.132 3.132 0 0 1-1.04 1.008c-.416.235-.88.352-1.392.352-1.003 0-1.787-.395-2.352-1.184-.555-.79-.832-1.85-.832-3.184 0-.864.133-1.632.4-2.304.266-.672.65-1.195 1.152-1.568.501-.384 1.088-.576 1.76-.576.864 0 1.621.347 2.272 1.04V59l1.472.176Zm-3.552 10.848c.448 0 .832-.101 1.152-.304.32-.213.629-.528.928-.944v-4.128c-.278-.363-.576-.635-.896-.816a1.964 1.964 0 0 0-1.056-.288c-.651 0-1.158.272-1.52.816-.352.544-.528 1.355-.528 2.432 0 1.088.165 1.899.496 2.432.33.533.805.8 1.424.8Zm9.754-7.648c1.184 0 2.101.395 2.752 1.184.661.79.992 1.861.992 3.216 0 .875-.149 1.648-.448 2.32-.299.661-.731 1.179-1.296 1.552-.565.363-1.237.544-2.016.544-1.184 0-2.107-.395-2.768-1.184-.661-.79-.992-1.861-.992-3.216 0-.875.149-1.643.448-2.304.299-.672.731-1.19 1.296-1.552.565-.373 1.243-.56 2.032-.56Zm0 1.184c-1.461 0-2.192 1.077-2.192 3.232 0 2.144.725 3.216 2.176 3.216s2.176-1.077 2.176-3.232c0-2.144-.72-3.216-2.16-3.216Zm7.856 7.632c-.544 0-.976-.16-1.296-.48-.309-.33-.464-.79-.464-1.376v-10.16l1.472-.176v10.304c0 .235.037.405.112.512.085.107.224.16.416.16.203 0 .384-.032.544-.096l.384 1.024a2.398 2.398 0 0 1-1.168.288Zm6.097-8.816c1.184 0 2.102.395 2.752 1.184.662.79.992 1.861.992 3.216 0 .875-.149 1.648-.448 2.32-.298.661-.73 1.179-1.296 1.552-.565.363-1.237.544-2.016.544-1.184 0-2.106-.395-2.768-1.184-.661-.79-.992-1.861-.992-3.216 0-.875.15-1.643.448-2.304.299-.672.731-1.19 1.296-1.552.566-.373 1.243-.56 2.032-.56Zm0 1.184c-1.461 0-2.192 1.077-2.192 3.232 0 2.144.726 3.216 2.176 3.216 1.451 0 2.176-1.077 2.176-3.232 0-2.144-.72-3.216-2.16-3.216Zm9.84-1.184c.299 0 .576.032.832.096l-.272 1.44a3.032 3.032 0 0 0-.736-.096c-.523 0-.944.192-1.264.576-.32.384-.571.981-.752 1.792V71h-1.472v-8.432h1.264l.144 1.712c.224-.63.528-1.104.912-1.424.384-.32.832-.48 1.344-.48Zm9.03 0c.576 0 1.094.08 1.552.24.459.16.896.4 1.312.72l-.624.928a5.02 5.02 0 0 0-1.104-.544 3.323 3.323 0 0 0-1.088-.176c-.48 0-.858.101-1.136.304a.92.92 0 0 0-.416.8c0 .341.128.608.384.8.267.192.742.379 1.424.56.939.235 1.638.555 2.096.96.47.405.704.96.704 1.664 0 .832-.325 1.467-.976 1.904-.64.437-1.424.656-2.352.656-1.28 0-2.341-.368-3.184-1.104l.784-.896c.715.544 1.504.816 2.368.816.555 0 .992-.112 1.312-.336a1.1 1.1 0 0 0 .496-.944c0-.288-.058-.517-.176-.688-.117-.181-.32-.336-.608-.464-.288-.139-.709-.283-1.264-.432-.896-.235-1.546-.55-1.952-.944-.394-.395-.592-.896-.592-1.504 0-.437.128-.832.384-1.184a2.53 2.53 0 0 1 1.088-.832c.47-.203.992-.304 1.568-.304Zm6.653.192V71h-1.472v-8.432h1.472Zm-.752-4.048c.309 0 .56.096.752.288a.977.977 0 0 1 .288.72.977.977 0 0 1-.288.72c-.192.181-.443.272-.752.272-.299 0-.544-.09-.736-.272a.977.977 0 0 1-.288-.72c0-.288.096-.528.288-.72a.996.996 0 0 1 .736-.288Zm8.052 12.096a3.238 3.238 0 0 1-1.888.576c-.715 0-1.275-.203-1.68-.608-.395-.416-.592-1.013-.592-1.792v-5.088h-1.472v-1.136h1.472v-1.904l1.472-.176v2.08h2l-.16 1.136h-1.84v5.024c0 .437.074.757.224.96.16.192.421.288.784.288.33 0 .704-.112 1.12-.336l.56.976Zm11.439-1.584c0 .341.059.597.176.768.118.16.294.283.528.368l-.336 1.024c-.437-.053-.789-.176-1.056-.368-.266-.192-.464-.49-.592-.896-.565.843-1.402 1.264-2.512 1.264-.832 0-1.488-.235-1.968-.704-.48-.47-.72-1.083-.72-1.84 0-.896.32-1.584.96-2.064.651-.48 1.568-.72 2.752-.72h1.296v-.624c0-.597-.144-1.024-.432-1.28-.288-.256-.73-.384-1.328-.384-.618 0-1.376.15-2.272.448l-.368-1.072c1.046-.384 2.016-.576 2.912-.576.992 0 1.734.245 2.224.736.491.48.736 1.168.736 2.064v3.856Zm-3.456 1.056c.843 0 1.504-.437 1.984-1.312V66.84h-1.104c-1.557 0-2.336.576-2.336 1.728 0 .501.123.88.368 1.136.246.256.608.384 1.088.384Zm14.943-7.712c.694 0 1.248.235 1.664.704.416.459.624 1.083.624 1.872V71h-1.472v-5.84c0-1.088-.394-1.632-1.184-1.632-.416 0-.768.123-1.056.368-.288.235-.597.608-.928 1.12V71h-1.472v-5.84c0-1.088-.394-1.632-1.184-1.632-.426 0-.784.123-1.072.368-.288.245-.592.619-.912 1.12V71h-1.472v-8.432h1.264l.128 1.232c.63-.95 1.44-1.424 2.432-1.424.523 0 .966.133 1.328.4.374.267.64.64.8 1.12.331-.49.694-.864 1.088-1.12.406-.267.88-.4 1.424-.4Zm11.623 4.16c0 .245-.011.496-.032.752h-5.376c.064.928.299 1.61.704 2.048.405.437.928.656 1.568.656.405 0 .779-.059 1.12-.176a4.515 4.515 0 0 0 1.072-.56l.64.88c-.896.704-1.877 1.056-2.944 1.056-1.173 0-2.091-.384-2.752-1.152-.651-.768-.976-1.824-.976-3.168 0-.875.139-1.648.416-2.32.288-.683.693-1.216 1.216-1.6.533-.384 1.157-.576 1.872-.576 1.12 0 1.979.368 2.576 1.104.597.736.896 1.755.896 3.056Zm-1.456-.432c0-.832-.165-1.467-.496-1.904-.331-.437-.827-.656-1.488-.656-1.205 0-1.861.885-1.968 2.656h3.952v-.096Zm8.063 4.512a3.238 3.238 0 0 1-1.888.576c-.715 0-1.275-.203-1.68-.608-.395-.416-.592-1.013-.592-1.792v-5.088h-1.472v-1.136h1.472v-1.904l1.472-.176v2.08h2l-.16 1.136h-1.84v5.024c0 .437.075.757.224.96.16.192.421.288.784.288.331 0 .704-.112 1.12-.336l.56.976Zm1.972-1.648c.32 0 .586.107.8.32.213.213.32.475.32.784 0 .33-.096.71-.288 1.136l-1.072 2.448h-1.056l.64-2.656a1.217 1.217 0 0 1-.336-.4 1.228 1.228 0 0 1-.112-.528c0-.31.106-.57.32-.784.213-.213.474-.32.784-.32Zm10.766-6.592c.501 0 .96.075 1.376.224a3.71 3.71 0 0 1 1.2.688l-.704.928a3.356 3.356 0 0 0-.88-.464 2.57 2.57 0 0 0-.928-.16c-.683 0-1.216.272-1.6.816-.374.544-.56 1.35-.56 2.416 0 1.067.186 1.856.56 2.368.373.501.906.752 1.6.752.33 0 .634-.048.912-.144a5.05 5.05 0 0 0 .928-.496l.672.96c-.768.619-1.627.928-2.576.928-1.142 0-2.043-.384-2.704-1.152-.651-.768-.976-1.83-.976-3.184 0-.896.149-1.68.448-2.352.298-.672.72-1.195 1.264-1.568.554-.373 1.21-.56 1.968-.56Zm7.424 0c1.184 0 2.101.395 2.752 1.184.661.79.992 1.861.992 3.216 0 .875-.149 1.648-.448 2.32-.299.661-.731 1.179-1.296 1.552-.565.363-1.237.544-2.016.544-1.184 0-2.107-.395-2.768-1.184-.661-.79-.992-1.861-.992-3.216 0-.875.149-1.643.448-2.304.299-.672.731-1.19 1.296-1.552.565-.373 1.243-.56 2.032-.56Zm0 1.184c-1.461 0-2.192 1.077-2.192 3.232 0 2.144.725 3.216 2.176 3.216s2.176-1.077 2.176-3.232c0-2.144-.72-3.216-2.16-3.216Zm10.144-1.184c.768 0 1.365.23 1.792.688.437.459.656 1.088.656 1.888V71h-1.472v-5.84c0-.597-.112-1.019-.336-1.264-.224-.245-.555-.368-.992-.368a1.92 1.92 0 0 0-1.184.384c-.342.256-.662.624-.96 1.104V71h-1.472v-8.432h1.264l.128 1.248c.298-.448.666-.8 1.104-1.056a2.914 2.914 0 0 1 1.472-.384Zm7.695 0c.576 0 1.093.08 1.552.24.458.16.896.4 1.312.72l-.624.928a5.02 5.02 0 0 0-1.104-.544 3.328 3.328 0 0 0-1.088-.176c-.48 0-.859.101-1.136.304a.918.918 0 0 0-.416.8c0 .341.128.608.384.8.266.192.741.379 1.424.56.938.235 1.637.555 2.096.96.469.405.704.96.704 1.664 0 .832-.326 1.467-.976 1.904-.64.437-1.424.656-2.352.656-1.28 0-2.342-.368-3.184-1.104l.784-.896c.714.544 1.504.816 2.368.816.554 0 .992-.112 1.312-.336.33-.235.496-.55.496-.944 0-.288-.059-.517-.176-.688-.118-.181-.32-.336-.608-.464-.288-.139-.71-.283-1.264-.432-.896-.235-1.547-.55-1.952-.944-.395-.395-.592-.896-.592-1.504 0-.437.128-.832.384-1.184.266-.363.629-.64 1.088-.832a3.914 3.914 0 0 1 1.568-.304Zm11.548 4.16c0 .245-.01.496-.032.752h-5.376c.064.928.299 1.61.704 2.048.406.437.928.656 1.568.656.406 0 .779-.059 1.12-.176a4.496 4.496 0 0 0 1.072-.56l.64.88c-.896.704-1.877 1.056-2.944 1.056-1.173 0-2.09-.384-2.752-1.152-.65-.768-.976-1.824-.976-3.168 0-.875.139-1.648.416-2.32.288-.683.694-1.216 1.216-1.6.534-.384 1.158-.576 1.872-.576 1.12 0 1.979.368 2.576 1.104.598.736.896 1.755.896 3.056Zm-1.456-.432c0-.832-.165-1.467-.496-1.904-.33-.437-.826-.656-1.488-.656-1.205 0-1.861.885-1.968 2.656h3.952v-.096Zm6.879-3.728c.501 0 .96.075 1.376.224a3.71 3.71 0 0 1 1.2.688l-.704.928a3.356 3.356 0 0 0-.88-.464 2.566 2.566 0 0 0-.928-.16c-.683 0-1.216.272-1.6.816-.373.544-.56 1.35-.56 2.416 0 1.067.187 1.856.56 2.368.373.501.907.752 1.6.752.331 0 .635-.048.912-.144.277-.107.587-.272.928-.496l.672.96c-.768.619-1.627.928-2.576.928-1.141 0-2.043-.384-2.704-1.152-.651-.768-.976-1.83-.976-3.184 0-.896.149-1.68.448-2.352.299-.672.72-1.195 1.264-1.568.555-.373 1.211-.56 1.968-.56Zm8.825 8.24a3.238 3.238 0 0 1-1.888.576c-.715 0-1.275-.203-1.68-.608-.395-.416-.592-1.013-.592-1.792v-5.088h-1.472v-1.136h1.472v-1.904l1.472-.176v2.08h2l-.16 1.136h-1.84v5.024c0 .437.074.757.224.96.16.192.421.288.784.288.33 0 .704-.112 1.12-.336l.56.976Zm7.659-4.08c0 .245-.011.496-.032.752h-5.376c.064.928.298 1.61.704 2.048.405.437.928.656 1.568.656a3.43 3.43 0 0 0 1.12-.176 4.534 4.534 0 0 0 1.072-.56l.64.88c-.896.704-1.878 1.056-2.944 1.056-1.174 0-2.091-.384-2.752-1.152-.651-.768-.976-1.824-.976-3.168 0-.875.138-1.648.416-2.32.288-.683.693-1.216 1.216-1.6.533-.384 1.157-.576 1.872-.576 1.12 0 1.978.368 2.576 1.104.597.736.896 1.755.896 3.056Zm-1.456-.432c0-.832-.166-1.467-.496-1.904-.331-.437-.827-.656-1.488-.656-1.206 0-1.862.885-1.968 2.656h3.952v-.096Zm8.062 4.512a3.236 3.236 0 0 1-1.888.576c-.714 0-1.274-.203-1.68-.608-.394-.416-.592-1.013-.592-1.792v-5.088h-1.472v-1.136h1.472v-1.904l1.472-.176v2.08h2l-.16 1.136h-1.84v5.024c0 .437.075.757.224.96.16.192.422.288.784.288.331 0 .704-.112 1.12-.336l.56.976Zm7.798.384h-1.264l-.112-1.312c-.32.523-.688.907-1.104 1.152-.416.235-.923.352-1.52.352-.736 0-1.312-.224-1.728-.672-.416-.448-.624-1.083-.624-1.904v-6.048h1.472v5.888c0 .576.101.987.304 1.232.202.235.533.352.992.352.821 0 1.525-.485 2.112-1.456v-6.016h1.472V71Zm6.704-8.624c.299 0 .576.032.832.096l-.272 1.44a3.032 3.032 0 0 0-.736-.096c-.523 0-.944.192-1.264.576-.32.384-.571.981-.752 1.792V71h-1.472v-8.432h1.264l.144 1.712c.224-.63.528-1.104.912-1.424.384-.32.832-.48 1.344-.48Zm12.422 6.656c0 .341.059.597.176.768.118.16.294.283.528.368l-.336 1.024c-.437-.053-.789-.176-1.056-.368-.266-.192-.464-.49-.592-.896-.565.843-1.402 1.264-2.512 1.264-.832 0-1.488-.235-1.968-.704-.48-.47-.72-1.083-.72-1.84 0-.896.32-1.584.96-2.064.651-.48 1.568-.72 2.752-.72h1.296v-.624c0-.597-.144-1.024-.432-1.28-.288-.256-.73-.384-1.328-.384-.618 0-1.376.15-2.272.448l-.368-1.072c1.046-.384 2.016-.576 2.912-.576.992 0 1.734.245 2.224.736.491.48.736 1.168.736 2.064v3.856Zm-3.456 1.056c.843 0 1.504-.437 1.984-1.312V66.84h-1.104c-1.557 0-2.336.576-2.336 1.728 0 .501.123.88.368 1.136.246.256.608.384 1.088.384Zm13.008-10.912V71h-1.296l-.144-1.168a3.132 3.132 0 0 1-1.04 1.008c-.416.235-.88.352-1.392.352-1.003 0-1.787-.395-2.352-1.184-.555-.79-.832-1.85-.832-3.184 0-.864.133-1.632.4-2.304.266-.672.65-1.195 1.152-1.568.501-.384 1.088-.576 1.76-.576.864 0 1.621.347 2.272 1.04V59l1.472.176Zm-3.552 10.848c.448 0 .832-.101 1.152-.304.32-.213.629-.528.928-.944v-4.128c-.278-.363-.576-.635-.896-.816a1.964 1.964 0 0 0-1.056-.288c-.651 0-1.158.272-1.52.816-.352.544-.528 1.355-.528 2.432 0 1.088.165 1.899.496 2.432.33.533.805.8 1.424.8Zm8.058-7.456V71h-1.472v-8.432h1.472Zm-.752-4.048c.309 0 .56.096.752.288a.977.977 0 0 1 .288.72.977.977 0 0 1-.288.72c-.192.181-.443.272-.752.272-.299 0-.544-.09-.736-.272a.977.977 0 0 1-.288-.72c0-.288.096-.528.288-.72a.996.996 0 0 1 .736-.288Zm7.668 3.856c1.077 0 1.866.384 2.368 1.152.501.768.752 1.85.752 3.248 0 1.323-.288 2.39-.864 3.2-.576.81-1.392 1.216-2.448 1.216-.939 0-1.675-.32-2.208-.96v4l-1.472.176v-11.84h1.264l.112 1.136a3.14 3.14 0 0 1 1.12-.976 2.87 2.87 0 0 1 1.376-.352Zm-.544 7.616c1.386 0 2.08-1.072 2.08-3.216 0-2.155-.635-3.232-1.904-3.232-.416 0-.795.123-1.136.368-.342.245-.64.56-.896.944v4.112c.213.33.48.587.8.768.32.17.672.256 1.056.256Zm7.644-7.424V71h-1.472v-8.432h1.472Zm-.752-4.048c.309 0 .56.096.752.288a.977.977 0 0 1 .288.72.977.977 0 0 1-.288.72c-.192.181-.443.272-.752.272-.299 0-.544-.09-.736-.272a.977.977 0 0 1-.288-.72c0-.288.096-.528.288-.72a.996.996 0 0 1 .736-.288Zm6.083 3.856c.576 0 1.094.08 1.552.24.459.16.896.4 1.312.72l-.624.928a5.02 5.02 0 0 0-1.104-.544 3.323 3.323 0 0 0-1.088-.176c-.48 0-.858.101-1.136.304a.92.92 0 0 0-.416.8c0 .341.128.608.384.8.267.192.742.379 1.424.56.939.235 1.638.555 2.096.96.47.405.704.96.704 1.664 0 .832-.325 1.467-.976 1.904-.64.437-1.424.656-2.352.656-1.28 0-2.341-.368-3.184-1.104l.784-.896c.715.544 1.504.816 2.368.816.555 0 .992-.112 1.312-.336a1.1 1.1 0 0 0 .496-.944c0-.288-.058-.517-.176-.688-.117-.181-.32-.336-.608-.464-.288-.139-.709-.283-1.264-.432-.896-.235-1.546-.55-1.952-.944-.394-.395-.592-.896-.592-1.504 0-.437.128-.832.384-1.184a2.53 2.53 0 0 1 1.088-.832c.47-.203.992-.304 1.568-.304Zm8.253 0c.501 0 .96.075 1.376.224a3.71 3.71 0 0 1 1.2.688l-.704.928a3.356 3.356 0 0 0-.88-.464 2.566 2.566 0 0 0-.928-.16c-.683 0-1.216.272-1.6.816-.373.544-.56 1.35-.56 2.416 0 1.067.187 1.856.56 2.368.373.501.907.752 1.6.752.331 0 .635-.048.912-.144.277-.107.587-.272.928-.496l.672.96c-.768.619-1.627.928-2.576.928-1.141 0-2.043-.384-2.704-1.152-.651-.768-.976-1.83-.976-3.184 0-.896.149-1.68.448-2.352.299-.672.72-1.195 1.264-1.568.555-.373 1.211-.56 1.968-.56Zm6.041.192V71h-1.472v-8.432h1.472Zm-.752-4.048c.309 0 .56.096.752.288a.977.977 0 0 1 .288.72.977.977 0 0 1-.288.72c-.192.181-.443.272-.752.272-.299 0-.544-.09-.736-.272a.977.977 0 0 1-.288-.72c0-.288.096-.528.288-.72a.996.996 0 0 1 .736-.288Zm7.763 3.856c.768 0 1.366.23 1.792.688.438.459.656 1.088.656 1.888V71h-1.472v-5.84c0-.597-.112-1.019-.336-1.264-.224-.245-.554-.368-.992-.368-.448 0-.842.128-1.184.384-.341.256-.661.624-.96 1.104V71h-1.472v-8.432h1.264l.128 1.248c.299-.448.667-.8 1.104-1.056a2.916 2.916 0 0 1 1.472-.384Zm12.207.576c-.32.107-.672.176-1.056.208s-.853.048-1.408.048c.992.448 1.488 1.157 1.488 2.128 0 .843-.288 1.53-.864 2.064-.576.533-1.36.8-2.352.8-.384 0-.741-.053-1.072-.16a.895.895 0 0 0-.304.352.907.907 0 0 0-.112.432c0 .459.368.688 1.104.688h1.344c.566 0 1.067.101 1.504.304.438.203.774.48 1.008.832.246.352.368.752.368 1.2 0 .821-.336 1.45-1.008 1.888-.672.448-1.653.672-2.944.672-.906 0-1.626-.096-2.16-.288-.522-.181-.896-.459-1.12-.832-.224-.373-.336-.853-.336-1.44h1.328c0 .341.064.608.192.8.128.203.358.352.688.448.331.107.8.16 1.408.16.886 0 1.515-.112 1.888-.336.384-.213.576-.539.576-.976 0-.395-.149-.693-.448-.896-.298-.203-.714-.304-1.248-.304h-1.328c-.714 0-1.258-.15-1.632-.448-.362-.31-.544-.693-.544-1.152 0-.277.08-.544.24-.8.16-.256.39-.485.688-.688-.49-.256-.853-.57-1.088-.944-.224-.384-.336-.848-.336-1.392 0-.565.139-1.072.416-1.52a2.907 2.907 0 0 1 1.168-1.04 3.607 3.607 0 0 1 1.664-.384c.662.01 1.216-.01 1.664-.064a6.468 6.468 0 0 0 1.104-.24c.299-.107.662-.256 1.088-.448l.432 1.328Zm-4.288.48c-.554 0-.986.176-1.296.528-.298.341-.448.795-.448 1.36 0 .576.155 1.04.464 1.392.31.341.747.512 1.312.512.576 0 1.014-.165 1.312-.496.31-.341.464-.816.464-1.424 0-1.248-.602-1.872-1.808-1.872ZM23.888 90.536c0 .245-.01.496-.032.752H18.48c.064.928.299 1.61.704 2.048.405.437.928.656 1.568.656.405 0 .779-.059 1.12-.176a4.515 4.515 0 0 0 1.072-.56l.64.88c-.896.704-1.877 1.056-2.944 1.056-1.173 0-2.09-.384-2.752-1.152-.65-.768-.976-1.824-.976-3.168 0-.875.139-1.648.416-2.32.288-.683.693-1.216 1.216-1.6.533-.384 1.157-.576 1.872-.576 1.12 0 1.979.368 2.576 1.104.597.736.896 1.755.896 3.056Zm-1.456-.432c0-.832-.165-1.467-.496-1.904-.33-.437-.827-.656-1.488-.656-1.205 0-1.861.885-1.968 2.656h3.952v-.096Zm5.487 5.088c-.544 0-.976-.16-1.296-.48-.31-.33-.464-.79-.464-1.376v-10.16L27.63 83v10.304c0 .235.037.405.112.512.085.107.224.16.416.16.202 0 .384-.032.544-.096l.384 1.024a2.4 2.4 0 0 1-1.168.288Zm4.48-8.624V95h-1.473v-8.432h1.472Zm-.753-4.048c.31 0 .56.096.752.288a.977.977 0 0 1 .288.72.977.977 0 0 1-.288.72c-.192.181-.442.272-.752.272-.298 0-.544-.09-.736-.272a.977.977 0 0 1-.288-.72c0-.288.096-.528.288-.72a.997.997 0 0 1 .736-.288Zm8.052 12.096a3.238 3.238 0 0 1-1.888.576c-.715 0-1.275-.203-1.68-.608-.395-.416-.592-1.013-.592-1.792v-5.088h-1.472v-1.136h1.472v-1.904l1.472-.176v2.08h2l-.16 1.136h-1.84v5.024c0 .437.075.757.224.96.16.192.421.288.784.288.33 0 .704-.112 1.12-.336l.56.976Zm1.972-1.648c.32 0 .586.107.8.32.213.213.32.475.32.784 0 .31-.107.576-.32.8-.214.213-.48.32-.8.32-.31 0-.571-.107-.784-.32a1.12 1.12 0 0 1-.32-.8c0-.31.106-.57.32-.784.213-.213.474-.32.784-.32Zm10.67-8.992c1.365 0 2.421.288 3.168.864.746.565 1.12 1.413 1.12 2.544 0 1.205-.39 2.101-1.168 2.688-.779.587-1.814.88-3.104.88h-1.392V95h-1.52V83.976h2.896Zm-.048 5.776c.885 0 1.557-.17 2.016-.512.47-.341.704-.955.704-1.84 0-.79-.235-1.36-.704-1.712-.459-.352-1.12-.528-1.984-.528h-1.36v4.592h1.328Zm9.72-3.376c.299 0 .576.032.832.096l-.272 1.44a3.034 3.034 0 0 0-.736-.096c-.523 0-.944.192-1.264.576-.32.384-.57.981-.752 1.792V95h-1.472v-8.432h1.264l.144 1.712c.224-.63.528-1.104.912-1.424.384-.32.832-.48 1.344-.48Zm7.626 6.656c0 .341.058.597.175.768.118.16.294.283.528.368l-.335 1.024c-.438-.053-.79-.176-1.056-.368-.267-.192-.465-.49-.593-.896-.565.843-1.402 1.264-2.511 1.264-.833 0-1.489-.235-1.969-.704-.48-.47-.72-1.083-.72-1.84 0-.896.32-1.584.96-2.064.651-.48 1.569-.72 2.752-.72h1.296v-.624c0-.597-.144-1.024-.431-1.28-.288-.256-.731-.384-1.328-.384-.62 0-1.377.15-2.273.448l-.367-1.072c1.045-.384 2.015-.576 2.911-.576.992 0 1.734.245 2.224.736.491.48.737 1.168.737 2.064v3.856Zm-3.457 1.056c.843 0 1.505-.437 1.984-1.312V90.84h-1.104c-1.557 0-2.336.576-2.336 1.728 0 .501.123.88.369 1.136.245.256.608.384 1.088.384Zm12.848-3.552c0 .245-.011.496-.032.752H73.62c.064.928.298 1.61.704 2.048.405.437.928.656 1.568.656.405 0 .778-.059 1.12-.176a4.513 4.513 0 0 0 1.072-.56l.64.88c-.896.704-1.878 1.056-2.944 1.056-1.174 0-2.091-.384-2.752-1.152-.651-.768-.976-1.824-.976-3.168 0-.875.138-1.648.416-2.32.288-.683.693-1.216 1.216-1.6.533-.384 1.157-.576 1.872-.576 1.12 0 1.978.368 2.576 1.104.597.736.896 1.755.896 3.056Zm-1.456-.432c0-.832-.166-1.467-.496-1.904-.331-.437-.827-.656-1.488-.656-1.206 0-1.862.885-1.968 2.656h3.952v-.096Zm6.094-3.728c.576 0 1.094.08 1.552.24.459.16.896.4 1.312.72l-.624.928a5.02 5.02 0 0 0-1.104-.544 3.325 3.325 0 0 0-1.088-.176c-.48 0-.858.101-1.136.304a.92.92 0 0 0-.416.8c0 .341.128.608.384.8.267.192.742.379 1.424.56.939.235 1.638.555 2.096.96.47.405.704.96.704 1.664 0 .832-.325 1.467-.976 1.904-.64.437-1.424.656-2.352.656-1.28 0-2.341-.368-3.184-1.104l.784-.896c.715.544 1.504.816 2.368.816.555 0 .992-.112 1.312-.336.331-.235.496-.55.496-.944 0-.288-.058-.517-.176-.688-.117-.181-.32-.336-.608-.464-.288-.139-.709-.283-1.264-.432-.896-.235-1.546-.55-1.952-.944-.394-.395-.592-.896-.592-1.504 0-.437.128-.832.384-1.184.267-.363.63-.64 1.088-.832.47-.203.992-.304 1.568-.304Zm11.55 4.16c0 .245-.011.496-.033.752h-5.376c.064.928.299 1.61.704 2.048.406.437.928.656 1.568.656.406 0 .779-.059 1.12-.176a4.513 4.513 0 0 0 1.072-.56l.64.88c-.896.704-1.877 1.056-2.944 1.056-1.173 0-2.09-.384-2.752-1.152-.65-.768-.976-1.824-.976-3.168 0-.875.139-1.648.416-2.32.288-.683.694-1.216 1.216-1.6.534-.384 1.157-.576 1.872-.576 1.12 0 1.979.368 2.576 1.104.598.736.896 1.755.896 3.056Zm-1.457-.432c0-.832-.165-1.467-.496-1.904-.33-.437-.826-.656-1.488-.656-1.205 0-1.861.885-1.968 2.656h3.952v-.096Zm7.775-3.728c.768 0 1.365.23 1.792.688.437.459.656 1.088.656 1.888V95h-1.472v-5.84c0-.597-.112-1.019-.336-1.264-.224-.245-.555-.368-.992-.368a1.92 1.92 0 0 0-1.184.384c-.341.256-.661.624-.96 1.104V95h-1.472v-8.432h1.264l.128 1.248c.298-.448.666-.8 1.104-1.056a2.916 2.916 0 0 1 1.472-.384Zm9.663 8.24a3.238 3.238 0 0 1-1.888.576c-.715 0-1.275-.203-1.68-.608-.395-.416-.592-1.013-.592-1.792v-5.088h-1.472v-1.136h1.472v-1.904l1.472-.176v2.08h2l-.16 1.136h-1.84v5.024c0 .437.075.757.224.96.16.192.421.288.784.288.331 0 .704-.112 1.12-.336l.56.976Zm11.44-1.584c0 .341.058.597.176.768.117.16.293.283.528.368l-.336 1.024c-.438-.053-.79-.176-1.056-.368-.267-.192-.464-.49-.592-.896-.566.843-1.403 1.264-2.512 1.264-.832 0-1.488-.235-1.968-.704-.48-.47-.72-1.083-.72-1.84 0-.896.32-1.584.96-2.064.65-.48 1.568-.72 2.752-.72h1.296v-.624c0-.597-.144-1.024-.432-1.28-.288-.256-.731-.384-1.328-.384-.619 0-1.376.15-2.272.448l-.368-1.072c1.045-.384 2.016-.576 2.912-.576.992 0 1.733.245 2.224.736.49.48.736 1.168.736 2.064v3.856Zm-3.456 1.056c.842 0 1.504-.437 1.984-1.312V90.84h-1.104c-1.558 0-2.336.576-2.336 1.728 0 .501.122.88.368 1.136.245.256.608.384 1.088.384Zm10.143-7.712c.298 0 .576.032.832.096l-.272 1.44a3.038 3.038 0 0 0-.736-.096c-.523 0-.944.192-1.264.576-.32.384-.571.981-.752 1.792V95h-1.472v-8.432h1.264l.144 1.712c.224-.63.528-1.104.912-1.424.384-.32.832-.48 1.344-.48Zm5.095 0c.501 0 .96.075 1.376.224a3.71 3.71 0 0 1 1.2.688l-.704.928a3.356 3.356 0 0 0-.88-.464 2.566 2.566 0 0 0-.928-.16c-.683 0-1.216.272-1.6.816-.373.544-.56 1.35-.56 2.416 0 1.067.187 1.856.56 2.368.373.501.907.752 1.6.752.331 0 .635-.048.912-.144.277-.107.587-.272.928-.496l.672.96c-.768.619-1.627.928-2.576.928-1.141 0-2.043-.384-2.704-1.152-.651-.768-.976-1.83-.976-3.184 0-.896.149-1.68.448-2.352.299-.672.72-1.195 1.264-1.568.555-.373 1.211-.56 1.968-.56ZM145.105 95h-1.264l-.112-1.312c-.32.523-.688.907-1.104 1.152-.416.235-.923.352-1.52.352-.736 0-1.312-.224-1.728-.672-.416-.448-.624-1.083-.624-1.904v-6.048h1.472v5.888c0 .576.101.987.304 1.232.202.235.533.352.992.352.821 0 1.525-.485 2.112-1.456v-6.016h1.472V95Zm15.738-8.624c.694 0 1.248.235 1.664.704.416.459.624 1.083.624 1.872V95h-1.472v-5.84c0-1.088-.394-1.632-1.184-1.632-.416 0-.768.123-1.056.368-.288.235-.597.608-.928 1.12V95h-1.472v-5.84c0-1.088-.394-1.632-1.184-1.632-.426 0-.784.123-1.072.368-.288.245-.592.619-.912 1.12V95h-1.472v-8.432h1.264l.128 1.232c.63-.95 1.44-1.424 2.432-1.424.523 0 .966.133 1.328.4.374.267.64.64.8 1.12.331-.49.694-.864 1.088-1.12.406-.267.88-.4 1.424-.4Zm6.727.192V95h-1.472v-8.432h1.472Zm-.752-4.048c.309 0 .56.096.752.288a.977.977 0 0 1 .288.72.977.977 0 0 1-.288.72c-.192.181-.443.272-.752.272-.299 0-.544-.09-.736-.272a.977.977 0 0 1-.288-.72c0-.288.096-.528.288-.72a.996.996 0 0 1 .736-.288Zm4.18 10.448c.32 0 .586.107.8.32.213.213.32.475.32.784 0 .33-.096.71-.288 1.136l-1.072 2.448h-1.056l.64-2.656a1.217 1.217 0 0 1-.336-.4 1.228 1.228 0 0 1-.112-.528c0-.31.106-.57.32-.784.213-.213.474-.32.784-.32Zm13.374.064c0 .341.059.597.176.768.117.16.293.283.528.368l-.336 1.024c-.437-.053-.789-.176-1.056-.368s-.464-.49-.592-.896c-.565.843-1.403 1.264-2.512 1.264-.832 0-1.488-.235-1.968-.704-.48-.47-.72-1.083-.72-1.84 0-.896.32-1.584.96-2.064.651-.48 1.568-.72 2.752-.72h1.296v-.624c0-.597-.144-1.024-.432-1.28-.288-.256-.731-.384-1.328-.384-.619 0-1.376.15-2.272.448l-.368-1.072c1.045-.384 2.016-.576 2.912-.576.992 0 1.733.245 2.224.736.491.48.736 1.168.736 2.064v3.856Zm-3.456 1.056c.843 0 1.504-.437 1.984-1.312V90.84h-1.104c-1.557 0-2.336.576-2.336 1.728 0 .501.123.88.368 1.136.245.256.608.384 1.088.384Zm8.003 1.104c-.544 0-.976-.16-1.296-.48-.31-.33-.464-.79-.464-1.376v-10.16l1.472-.176v10.304c0 .235.037.405.112.512.085.107.224.16.416.16.202 0 .384-.032.544-.096l.384 1.024a2.4 2.4 0 0 1-1.168.288Zm4.479-8.624V95h-1.472v-8.432h1.472Zm-.752-4.048c.31 0 .56.096.752.288a.977.977 0 0 1 .288.72.977.977 0 0 1-.288.72c-.192.181-.442.272-.752.272-.298 0-.544-.09-.736-.272a.977.977 0 0 1-.288-.72c0-.288.096-.528.288-.72a.998.998 0 0 1 .736-.288Zm10.324 4.048v11.84l-1.472-.176V93.88a3.025 3.025 0 0 1-1.04.976 2.764 2.764 0 0 1-1.36.336c-1.003 0-1.787-.395-2.352-1.184-.555-.79-.832-1.85-.832-3.184 0-.864.133-1.632.4-2.304.267-.672.651-1.195 1.152-1.568.501-.384 1.088-.576 1.76-.576.896 0 1.685.379 2.368 1.136l.112-.944h1.264Zm-3.552 7.456c.448 0 .832-.101 1.152-.304.32-.213.629-.528.928-.944v-4.128c-.277-.363-.576-.635-.896-.816a1.96 1.96 0 0 0-1.056-.288c-.651 0-1.157.272-1.52.816-.352.544-.528 1.355-.528 2.432 0 1.088.165 1.899.496 2.432.331.533.805.8 1.424.8Zm12.858.976h-1.264l-.112-1.312c-.32.523-.688.907-1.104 1.152-.416.235-.922.352-1.52.352-.736 0-1.312-.224-1.728-.672-.416-.448-.624-1.083-.624-1.904v-6.048h1.472v5.888c0 .576.102.987.304 1.232.203.235.534.352.992.352.822 0 1.526-.485 2.112-1.456v-6.016h1.472V95Zm8.721-1.968c0 .341.059.597.176.768.117.16.293.283.528.368l-.336 1.024c-.437-.053-.789-.176-1.056-.368s-.464-.49-.592-.896c-.565.843-1.403 1.264-2.512 1.264-.832 0-1.488-.235-1.968-.704-.48-.47-.72-1.083-.72-1.84 0-.896.32-1.584.96-2.064.651-.48 1.568-.72 2.752-.72h1.296v-.624c0-.597-.144-1.024-.432-1.28-.288-.256-.731-.384-1.328-.384-.619 0-1.376.15-2.272.448l-.368-1.072c1.045-.384 2.016-.576 2.912-.576.992 0 1.733.245 2.224.736.491.48.736 1.168.736 2.064v3.856Zm-3.456 1.056c.843 0 1.504-.437 1.984-1.312V90.84h-1.104c-1.557 0-2.336.576-2.336 1.728 0 .501.123.88.368 1.136.245.256.608.384 1.088.384Zm14.943-7.712c.693 0 1.248.235 1.664.704.416.459.624 1.083.624 1.872V95H233.3v-5.84c0-1.088-.395-1.632-1.184-1.632-.416 0-.768.123-1.056.368-.288.235-.597.608-.928 1.12V95h-1.472v-5.84c0-1.088-.395-1.632-1.184-1.632-.427 0-.784.123-1.072.368-.288.245-.592.619-.912 1.12V95h-1.472v-8.432h1.264l.128 1.232c.629-.95 1.44-1.424 2.432-1.424.523 0 .965.133 1.328.4.373.267.64.64.8 1.12.331-.49.693-.864 1.088-1.12.405-.267.88-.4 1.424-.4Zm15.857 4.16c0 .245-.011.496-.032.752h-5.376c.064.928.299 1.61.704 2.048.405.437.928.656 1.568.656.405 0 .779-.059 1.12-.176a4.515 4.515 0 0 0 1.072-.56l.64.88c-.896.704-1.877 1.056-2.944 1.056-1.173 0-2.091-.384-2.752-1.152-.651-.768-.976-1.824-.976-3.168 0-.875.139-1.648.416-2.32.288-.683.693-1.216 1.216-1.6.533-.384 1.157-.576 1.872-.576 1.12 0 1.979.368 2.576 1.104.597.736.896 1.755.896 3.056Zm-1.456-.432c0-.832-.165-1.467-.496-1.904-.331-.437-.827-.656-1.488-.656-1.205 0-1.861.885-1.968 2.656h3.952v-.096Zm8.063 4.512a3.238 3.238 0 0 1-1.888.576c-.715 0-1.275-.203-1.68-.608-.395-.416-.592-1.013-.592-1.792v-5.088h-1.472v-1.136h1.472v-1.904l1.472-.176v2.08h2l-.16 1.136h-1.84v5.024c0 .437.075.757.224.96.16.192.421.288.784.288.331 0 .704-.112 1.12-.336l.56.976Zm7.232-8.048V95h-1.472v-8.432h1.472Zm-.752-4.048c.309 0 .56.096.752.288a.977.977 0 0 1 .288.72.977.977 0 0 1-.288.72c-.192.181-.443.272-.752.272-.299 0-.544-.09-.736-.272a.977.977 0 0 1-.288-.72c0-.288.096-.528.288-.72a.996.996 0 0 1 .736-.288Zm7.667 3.856c1.077 0 1.867.384 2.368 1.152.501.768.752 1.85.752 3.248 0 1.323-.288 2.39-.864 3.2-.576.81-1.392 1.216-2.448 1.216-.939 0-1.675-.32-2.208-.96v4l-1.472.176v-11.84h1.264l.112 1.136a3.149 3.149 0 0 1 1.12-.976 2.87 2.87 0 0 1 1.376-.352Zm-.544 7.616c1.387 0 2.08-1.072 2.08-3.216 0-2.155-.635-3.232-1.904-3.232-.416 0-.795.123-1.136.368a3.62 3.62 0 0 0-.896.944v4.112c.213.33.48.587.8.768.32.17.672.256 1.056.256Zm8.46-7.616c.576 0 1.093.08 1.552.24.459.16.896.4 1.312.72l-.624.928a5.02 5.02 0 0 0-1.104-.544 3.323 3.323 0 0 0-1.088-.176c-.48 0-.859.101-1.136.304a.92.92 0 0 0-.416.8c0 .341.128.608.384.8.267.192.741.379 1.424.56.939.235 1.637.555 2.096.96.469.405.704.96.704 1.664 0 .832-.325 1.467-.976 1.904-.64.437-1.424.656-2.352.656-1.28 0-2.341-.368-3.184-1.104l.784-.896c.715.544 1.504.816 2.368.816.555 0 .992-.112 1.312-.336a1.1 1.1 0 0 0 .496-.944c0-.288-.059-.517-.176-.688-.117-.181-.32-.336-.608-.464-.288-.139-.709-.283-1.264-.432-.896-.235-1.547-.55-1.952-.944-.395-.395-.592-.896-.592-1.504 0-.437.128-.832.384-1.184.267-.363.629-.64 1.088-.832a3.914 3.914 0 0 1 1.568-.304ZM288.464 95H287.2l-.112-1.312c-.32.523-.688.907-1.104 1.152-.416.235-.923.352-1.52.352-.736 0-1.312-.224-1.728-.672-.416-.448-.624-1.083-.624-1.904v-6.048h1.472v5.888c0 .576.101.987.304 1.232.203.235.533.352.992.352.821 0 1.525-.485 2.112-1.456v-6.016h1.472V95Zm11.504-8.624c.694 0 1.248.235 1.664.704.416.459.624 1.083.624 1.872V95h-1.472v-5.84c0-1.088-.394-1.632-1.184-1.632-.416 0-.768.123-1.056.368-.288.235-.597.608-.928 1.12V95h-1.472v-5.84c0-1.088-.394-1.632-1.184-1.632-.426 0-.784.123-1.072.368-.288.245-.592.619-.912 1.12V95h-1.472v-8.432h1.264l.128 1.232c.63-.95 1.44-1.424 2.432-1.424.523 0 .966.133 1.328.4.374.267.64.64.8 1.12.331-.49.694-.864 1.088-1.12.406-.267.88-.4 1.424-.4Zm15.858 4.16c0 .245-.011.496-.032.752h-5.376c.064.928.298 1.61.704 2.048.405.437.928.656 1.568.656a3.43 3.43 0 0 0 1.12-.176 4.534 4.534 0 0 0 1.072-.56l.64.88c-.896.704-1.878 1.056-2.944 1.056-1.174 0-2.091-.384-2.752-1.152-.651-.768-.976-1.824-.976-3.168 0-.875.138-1.648.416-2.32.288-.683.693-1.216 1.216-1.6.533-.384 1.157-.576 1.872-.576 1.12 0 1.978.368 2.576 1.104.597.736.896 1.755.896 3.056Zm-1.456-.432c0-.832-.166-1.467-.496-1.904-.331-.437-.827-.656-1.488-.656-1.206 0-1.862.885-1.968 2.656h3.952v-.096ZM324.448 95h-1.264l-.112-1.312c-.32.523-.688.907-1.104 1.152-.416.235-.922.352-1.52.352-.736 0-1.312-.224-1.728-.672-.416-.448-.624-1.083-.624-1.904v-6.048h1.472v5.888c0 .576.102.987.304 1.232.203.235.534.352.992.352.822 0 1.526-.485 2.112-1.456v-6.016h1.472V95Zm3.425-2.032c.32 0 .586.107.8.32.213.213.32.475.32.784 0 .33-.096.71-.288 1.136l-1.072 2.448h-1.056l.64-2.656a1.217 1.217 0 0 1-.336-.4 1.228 1.228 0 0 1-.112-.528c0-.31.106-.57.32-.784.213-.213.474-.32.784-.32Zm14.494-6.016c-.32.107-.672.176-1.056.208s-.853.048-1.408.048c.992.448 1.488 1.157 1.488 2.128 0 .843-.288 1.53-.864 2.064-.576.533-1.36.8-2.352.8-.384 0-.741-.053-1.072-.16a.895.895 0 0 0-.304.352.896.896 0 0 0-.112.432c0 .459.368.688 1.104.688h1.344c.565 0 1.067.101 1.504.304.437.203.773.48 1.008.832.245.352.368.752.368 1.2 0 .821-.336 1.45-1.008 1.888-.672.448-1.653.672-2.944.672-.907 0-1.627-.096-2.16-.288-.523-.181-.896-.459-1.12-.832-.224-.373-.336-.853-.336-1.44h1.328c0 .341.064.608.192.8.128.203.357.352.688.448.331.107.8.16 1.408.16.885 0 1.515-.112 1.888-.336.384-.213.576-.539.576-.976 0-.395-.149-.693-.448-.896-.299-.203-.715-.304-1.248-.304h-1.328c-.715 0-1.259-.15-1.632-.448-.363-.31-.544-.693-.544-1.152 0-.277.08-.544.24-.8.16-.256.389-.485.688-.688-.491-.256-.853-.57-1.088-.944-.224-.384-.336-.848-.336-1.392 0-.565.139-1.072.416-1.52a2.9 2.9 0 0 1 1.168-1.04 3.604 3.604 0 0 1 1.664-.384c.661.01 1.216-.01 1.664-.064a6.468 6.468 0 0 0 1.104-.24c.299-.107.661-.256 1.088-.448l.432 1.328Zm-4.288.48c-.555 0-.987.176-1.296.528-.299.341-.448.795-.448 1.36 0 .576.155 1.04.464 1.392.309.341.747.512 1.312.512.576 0 1.013-.165 1.312-.496.309-.341.464-.816.464-1.424 0-1.248-.603-1.872-1.808-1.872Zm9.464-1.056c.299 0 .576.032.832.096l-.272 1.44a3.032 3.032 0 0 0-.736-.096c-.522 0-.944.192-1.264.576-.32.384-.57.981-.752 1.792V95h-1.472v-8.432h1.264l.144 1.712c.224-.63.528-1.104.912-1.424.384-.32.832-.48 1.344-.48Zm7.626 6.656c0 .341.058.597.176.768.117.16.293.283.528.368l-.336 1.024c-.438-.053-.79-.176-1.056-.368-.267-.192-.464-.49-.592-.896-.566.843-1.403 1.264-2.512 1.264-.832 0-1.488-.235-1.968-.704-.48-.47-.72-1.083-.72-1.84 0-.896.32-1.584.96-2.064.65-.48 1.568-.72 2.752-.72h1.296v-.624c0-.597-.144-1.024-.432-1.28-.288-.256-.731-.384-1.328-.384-.619 0-1.376.15-2.272.448l-.368-1.072c1.045-.384 2.016-.576 2.912-.576.992 0 1.733.245 2.224.736.49.48.736 1.168.736 2.064v3.856Zm-3.456 1.056c.842 0 1.504-.437 1.984-1.312V90.84h-1.104c-1.558 0-2.336.576-2.336 1.728 0 .501.122.88.368 1.136.245.256.608.384 1.088.384Zm12.437-7.52L361.286 95h-1.776l-2.912-8.432h1.6l2.208 7.12 2.192-7.12h1.552Zm3.155 0V95h-1.472v-8.432h1.472Zm-.752-4.048c.309 0 .56.096.752.288a.977.977 0 0 1 .288.72.977.977 0 0 1-.288.72c-.192.181-.443.272-.752.272-.299 0-.544-.09-.736-.272a.977.977 0 0 1-.288-.72c0-.288.096-.528.288-.72a.996.996 0 0 1 .736-.288Zm10.323.656V95h-1.296l-.144-1.168a3.122 3.122 0 0 1-1.04 1.008c-.416.235-.88.352-1.392.352-1.003 0-1.787-.395-2.352-1.184-.555-.79-.832-1.85-.832-3.184 0-.864.133-1.632.4-2.304.267-.672.651-1.195 1.152-1.568.501-.384 1.088-.576 1.76-.576.864 0 1.621.347 2.272 1.04V83l1.472.176Zm-3.552 10.848c.448 0 .832-.101 1.152-.304.32-.213.629-.528.928-.944v-4.128c-.277-.363-.576-.635-.896-.816a1.96 1.96 0 0 0-1.056-.288c-.651 0-1.157.272-1.52.816-.352.544-.528 1.355-.528 2.432 0 1.088.165 1.899.496 2.432.331.533.805.8 1.424.8Zm12.267-.992c0 .341.058.597.176.768.117.16.293.283.528.368l-.336 1.024c-.438-.053-.79-.176-1.056-.368-.267-.192-.464-.49-.592-.896-.566.843-1.403 1.264-2.512 1.264-.832 0-1.488-.235-1.968-.704-.48-.47-.72-1.083-.72-1.84 0-.896.32-1.584.96-2.064.65-.48 1.568-.72 2.752-.72h1.296v-.624c0-.597-.144-1.024-.432-1.28-.288-.256-.731-.384-1.328-.384-.619 0-1.376.15-2.272.448l-.368-1.072c1.045-.384 2.016-.576 2.912-.576.992 0 1.733.245 2.224.736.49.48.736 1.168.736 2.064v3.856Zm-3.456 1.056c.842 0 1.504-.437 1.984-1.312V90.84h-1.104c-1.558 0-2.336.576-2.336 1.728 0 .501.122.88.368 1.136.245.256.608.384 1.088.384ZM21.776 118.616a3.238 3.238 0 0 1-1.888.576c-.715 0-1.275-.203-1.68-.608-.395-.416-.592-1.013-.592-1.792v-5.088h-1.472v-1.136h1.472v-1.904l1.472-.176v2.08h2l-.16 1.136h-1.84v5.024c0 .437.075.757.224.96.16.192.421.288.784.288.33 0 .704-.112 1.12-.336l.56.976Zm2.997-8.048V119h-1.472v-8.432h1.472Zm-.752-4.048c.31 0 .56.096.752.288a.977.977 0 0 1 .288.72.977.977 0 0 1-.288.72c-.192.181-.442.272-.752.272-.298 0-.544-.091-.736-.272a.977.977 0 0 1-.288-.72c0-.288.096-.528.288-.72a.997.997 0 0 1 .736-.288Zm7.764 3.856c.768 0 1.365.229 1.792.688.437.459.656 1.088.656 1.888V119H32.76v-5.84c0-.597-.112-1.019-.336-1.264-.224-.245-.555-.368-.992-.368a1.92 1.92 0 0 0-1.184.384c-.341.256-.662.624-.96 1.104V119h-1.472v-8.432h1.264l.128 1.248c.299-.448.666-.8 1.104-1.056a2.915 2.915 0 0 1 1.472-.384Zm8.479 0c.501 0 .96.075 1.376.224.416.139.816.368 1.2.688l-.704.928a3.36 3.36 0 0 0-.88-.464 2.56 2.56 0 0 0-.928-.16c-.683 0-1.216.272-1.6.816-.373.544-.56 1.349-.56 2.416s.187 1.856.56 2.368c.373.501.907.752 1.6.752.33 0 .634-.048.912-.144a5.04 5.04 0 0 0 .928-.496l.672.96c-.768.619-1.627.928-2.576.928-1.142 0-2.043-.384-2.704-1.152-.65-.768-.976-1.829-.976-3.184 0-.896.15-1.68.448-2.352.299-.672.72-1.195 1.264-1.568.554-.373 1.21-.56 1.968-.56Zm6.04.192V119h-1.471v-8.432h1.471Zm-.752-4.048c.31 0 .56.096.752.288a.977.977 0 0 1 .288.72.977.977 0 0 1-.288.72c-.192.181-.442.272-.752.272-.298 0-.544-.091-.736-.272a.977.977 0 0 1-.288-.72c0-.288.096-.528.288-.72a.997.997 0 0 1 .736-.288Zm10.324.656V119H54.58l-.144-1.168a3.12 3.12 0 0 1-1.04 1.008 2.78 2.78 0 0 1-1.392.352c-1.002 0-1.786-.395-2.352-1.184-.555-.789-.832-1.851-.832-3.184 0-.864.133-1.632.4-2.304.267-.672.65-1.195 1.152-1.568.502-.384 1.088-.576 1.76-.576.864 0 1.622.347 2.272 1.04V107l1.472.176Zm-3.552 10.848c.448 0 .832-.101 1.152-.304.32-.213.63-.528.928-.944v-4.128c-.277-.363-.576-.635-.896-.816a1.96 1.96 0 0 0-1.056-.288c-.65 0-1.157.272-1.52.816-.352.544-.528 1.355-.528 2.432 0 1.088.165 1.899.496 2.432.33.533.806.8 1.424.8Zm12.859.976h-1.264l-.112-1.312c-.32.523-.688.907-1.104 1.152-.416.235-.923.352-1.52.352-.736 0-1.312-.224-1.728-.672-.416-.448-.624-1.083-.624-1.904v-6.048h1.472v5.888c0 .576.101.987.304 1.232.202.235.533.352.992.352.821 0 1.525-.485 2.112-1.456v-6.016h1.472V119Zm7.008-8.624c.768 0 1.365.229 1.792.688.438.459.656 1.088.656 1.888V119h-1.472v-5.84c0-.597-.112-1.019-.336-1.264-.224-.245-.555-.368-.992-.368a1.92 1.92 0 0 0-1.184.384c-.341.256-.661.624-.96 1.104V119h-1.472v-8.432h1.264l.128 1.248a3.36 3.36 0 0 1 1.104-1.056 2.915 2.915 0 0 1 1.472-.384Zm9.663 8.24a3.238 3.238 0 0 1-1.888.576c-.715 0-1.274-.203-1.68-.608-.395-.416-.592-1.013-.592-1.792v-5.088h-1.472v-1.136h1.472v-1.904l1.472-.176v2.08h2l-.16 1.136h-1.84v5.024c0 .437.075.757.224.96.16.192.421.288.784.288.33 0 .704-.112 1.12-.336l.56.976Zm9.728-8.24c.768 0 1.365.229 1.792.688.437.459.656 1.088.656 1.888V119h-1.472v-5.84c0-.597-.112-1.019-.336-1.264-.224-.245-.555-.368-.992-.368a1.92 1.92 0 0 0-1.184.384c-.342.256-.662.624-.96 1.104V119h-1.472v-8.432h1.264l.128 1.248c.298-.448.666-.8 1.104-1.056a2.915 2.915 0 0 1 1.472-.384ZM103.26 119h-1.264l-.112-1.312c-.32.523-.688.907-1.104 1.152-.416.235-.923.352-1.52.352-.736 0-1.312-.224-1.728-.672-.416-.448-.624-1.083-.624-1.904v-6.048h1.472v5.888c0 .576.101.987.304 1.232.202.235.533.352.992.352.821 0 1.525-.485 2.112-1.456v-6.016h1.472V119Zm7.008-8.624c.768 0 1.366.229 1.792.688.438.459.656 1.088.656 1.888V119h-1.472v-5.84c0-.597-.112-1.019-.336-1.264-.224-.245-.554-.368-.992-.368-.448 0-.842.128-1.184.384-.341.256-.661.624-.96 1.104V119h-1.472v-8.432h1.264l.128 1.248c.299-.448.667-.8 1.104-1.056a2.916 2.916 0 0 1 1.472-.384Zm8.479 0c.502 0 .96.075 1.376.224.416.139.816.368 1.2.688l-.704.928a3.349 3.349 0 0 0-.88-.464 2.556 2.556 0 0 0-.928-.16c-.682 0-1.216.272-1.6.816-.373.544-.56 1.349-.56 2.416s.187 1.856.56 2.368c.374.501.907.752 1.6.752.331 0 .635-.048.912-.144.278-.107.587-.272.928-.496l.672.96c-.768.619-1.626.928-2.576.928-1.141 0-2.042-.384-2.704-1.152-.65-.768-.976-1.829-.976-3.184 0-.896.15-1.68.448-2.352.299-.672.72-1.195 1.264-1.568.555-.373 1.211-.56 1.968-.56Zm5.109 6.592c.32 0 .587.107.8.32.213.213.32.475.32.784 0 .309-.107.576-.32.8-.213.213-.48.32-.8.32-.309 0-.571-.107-.784-.32a1.122 1.122 0 0 1-.32-.8c0-.309.107-.571.32-.784.213-.213.475-.32.784-.32Zm10.078-8.992c1.664 0 2.998.389 4 1.168 1.014.768 1.52 2.197 1.52 4.288 0 2.037-.506 3.477-1.52 4.32-1.002.832-2.224 1.248-3.664 1.248h-2.64v-11.024h2.304Zm-.784 1.216v8.608h1.232c1.024 0 1.856-.315 2.496-.944.64-.629.96-1.771.96-3.424 0-1.163-.165-2.053-.496-2.672-.33-.629-.752-1.045-1.264-1.248-.512-.213-1.114-.32-1.808-.32h-1.12Zm11.865 1.184c1.184 0 2.101.395 2.752 1.184.661.789.992 1.861.992 3.216 0 .875-.149 1.648-.448 2.32-.299.661-.731 1.179-1.296 1.552-.565.363-1.237.544-2.016.544-1.184 0-2.107-.395-2.768-1.184-.661-.789-.992-1.861-.992-3.216 0-.875.149-1.643.448-2.304.299-.672.731-1.189 1.296-1.552.565-.373 1.243-.56 2.032-.56Zm0 1.184c-1.461 0-2.192 1.077-2.192 3.232 0 2.144.725 3.216 2.176 3.216s2.176-1.077 2.176-3.232c0-2.144-.72-3.216-2.16-3.216Zm10.144-1.184c.768 0 1.365.229 1.792.688.437.459.656 1.088.656 1.888V119h-1.472v-5.84c0-.597-.112-1.019-.336-1.264-.224-.245-.555-.368-.992-.368a1.92 1.92 0 0 0-1.184.384c-.341.256-.661.624-.96 1.104V119h-1.472v-8.432h1.264l.128 1.248c.299-.448.667-.8 1.104-1.056a2.916 2.916 0 0 1 1.472-.384Zm11.775 4.16c0 .245-.011.496-.032.752h-5.376c.064.928.299 1.611.704 2.048.405.437.928.656 1.568.656.405 0 .779-.059 1.12-.176a4.504 4.504 0 0 0 1.072-.56l.64.88c-.896.704-1.877 1.056-2.944 1.056-1.173 0-2.091-.384-2.752-1.152-.651-.768-.976-1.824-.976-3.168 0-.875.139-1.648.416-2.32.288-.683.693-1.216 1.216-1.6.533-.384 1.157-.576 1.872-.576 1.12 0 1.979.368 2.576 1.104.597.736.896 1.755.896 3.056Zm-1.456-.432c0-.832-.165-1.467-.496-1.904-.331-.437-.827-.656-1.488-.656-1.205 0-1.861.885-1.968 2.656h3.952v-.096Zm6.879-3.728c.501 0 .96.075 1.376.224.416.139.816.368 1.2.688l-.704.928a3.365 3.365 0 0 0-.88-.464 2.564 2.564 0 0 0-.928-.16c-.683 0-1.216.272-1.6.816-.374.544-.56 1.349-.56 2.416s.186 1.856.56 2.368c.373.501.906.752 1.6.752.33 0 .634-.048.912-.144.277-.107.586-.272.928-.496l.672.96c-.768.619-1.627.928-2.576.928-1.142 0-2.043-.384-2.704-1.152-.651-.768-.976-1.829-.976-3.184 0-.896.149-1.68.448-2.352.298-.672.72-1.195 1.264-1.568.554-.373 1.21-.56 1.968-.56Zm14.483 6.656c0 .341.058.597.176.768.117.16.293.283.528.368l-.336 1.024c-.438-.053-.79-.176-1.056-.368-.267-.192-.464-.491-.592-.896-.566.843-1.403 1.264-2.512 1.264-.832 0-1.488-.235-1.968-.704s-.72-1.083-.72-1.84c0-.896.32-1.584.96-2.064.65-.48 1.568-.72 2.752-.72h1.296v-.624c0-.597-.144-1.024-.432-1.28-.288-.256-.731-.384-1.328-.384-.619 0-1.376.149-2.272.448l-.368-1.072c1.045-.384 2.016-.576 2.912-.576.992 0 1.733.245 2.224.736.49.48.736 1.168.736 2.064v3.856Zm-3.456 1.056c.842 0 1.504-.437 1.984-1.312v-1.936h-1.104c-1.558 0-2.336.576-2.336 1.728 0 .501.122.88.368 1.136.245.256.608.384 1.088.384Zm10.735.528a3.238 3.238 0 0 1-1.888.576c-.715 0-1.275-.203-1.68-.608-.395-.416-.592-1.013-.592-1.792v-5.088h-1.472v-1.136h1.472v-1.904l1.472-.176v2.08h2l-.16 1.136h-1.84v5.024c0 .437.074.757.224.96.16.192.421.288.784.288.33 0 .704-.112 1.12-.336l.56.976Zm9.631-8.24c1.078 0 1.867.384 2.368 1.152.502.768.752 1.851.752 3.248 0 1.323-.288 2.389-.864 3.2-.576.811-1.392 1.216-2.448 1.216-.938 0-1.674-.32-2.208-.96v4l-1.472.176v-11.84h1.264l.112 1.136c.31-.427.683-.752 1.12-.976a2.869 2.869 0 0 1 1.376-.352Zm-.544 7.616c1.387 0 2.08-1.072 2.08-3.216 0-2.155-.634-3.232-1.904-3.232-.416 0-.794.123-1.136.368-.341.245-.64.56-.896.944v4.112c.214.331.48.587.8.768.32.171.672.256 1.056.256Zm9.34-7.616c1.184 0 2.102.395 2.752 1.184.662.789.992 1.861.992 3.216 0 .875-.149 1.648-.448 2.32-.298.661-.73 1.179-1.296 1.552-.565.363-1.237.544-2.016.544-1.184 0-2.106-.395-2.768-1.184-.661-.789-.992-1.861-.992-3.216 0-.875.15-1.643.448-2.304.299-.672.731-1.189 1.296-1.552.566-.373 1.243-.56 2.032-.56Zm0 1.184c-1.461 0-2.192 1.077-2.192 3.232 0 2.144.726 3.216 2.176 3.216 1.451 0 2.176-1.077 2.176-3.232 0-2.144-.72-3.216-2.16-3.216Zm8.464-1.184c.576 0 1.093.08 1.552.24.459.16.896.4 1.312.72l-.624.928a5.02 5.02 0 0 0-1.104-.544 3.331 3.331 0 0 0-1.088-.176c-.48 0-.859.101-1.136.304a.92.92 0 0 0-.416.8c0 .341.128.608.384.8.267.192.741.379 1.424.56.939.235 1.637.555 2.096.96.469.405.704.96.704 1.664 0 .832-.325 1.467-.976 1.904-.64.437-1.424.656-2.352.656-1.28 0-2.341-.368-3.184-1.104l.784-.896c.715.544 1.504.816 2.368.816.555 0 .992-.112 1.312-.336a1.1 1.1 0 0 0 .496-.944c0-.288-.059-.517-.176-.688-.117-.181-.32-.336-.608-.464-.288-.139-.709-.283-1.264-.432-.896-.235-1.547-.549-1.952-.944-.395-.395-.592-.896-.592-1.504 0-.437.128-.832.384-1.184.267-.363.629-.64 1.088-.832a3.909 3.909 0 0 1 1.568-.304ZM232.464 119H231.2l-.112-1.312c-.32.523-.688.907-1.104 1.152-.416.235-.923.352-1.52.352-.736 0-1.312-.224-1.728-.672-.416-.448-.624-1.083-.624-1.904v-6.048h1.472v5.888c0 .576.101.987.304 1.232.203.235.533.352.992.352.821 0 1.525-.485 2.112-1.456v-6.016h1.472V119Zm9.408-4.464c0 .245-.01.496-.032.752h-5.376c.064.928.299 1.611.704 2.048.406.437.928.656 1.568.656a3.43 3.43 0 0 0 1.12-.176 4.486 4.486 0 0 0 1.072-.56l.64.88c-.896.704-1.877 1.056-2.944 1.056-1.173 0-2.09-.384-2.752-1.152-.65-.768-.976-1.824-.976-3.168 0-.875.139-1.648.416-2.32.288-.683.694-1.216 1.216-1.6.534-.384 1.158-.576 1.872-.576 1.12 0 1.979.368 2.576 1.104.598.736.896 1.755.896 3.056Zm-1.456-.432c0-.832-.165-1.467-.496-1.904-.33-.437-.826-.656-1.488-.656-1.205 0-1.861.885-1.968 2.656h3.952v-.096Zm7.471-3.728c.299 0 .576.032.832.096l-.272 1.44a3.032 3.032 0 0 0-.736-.096c-.523 0-.944.192-1.264.576-.32.384-.571.981-.752 1.792V119h-1.472v-8.432h1.264l.144 1.712c.224-.629.528-1.104.912-1.424.384-.32.832-.48 1.344-.48Zm8.392 4.16c0 .245-.011.496-.032.752h-5.376c.064.928.298 1.611.704 2.048.405.437.928.656 1.568.656.405 0 .778-.059 1.12-.176a4.523 4.523 0 0 0 1.072-.56l.64.88c-.896.704-1.878 1.056-2.944 1.056-1.174 0-2.091-.384-2.752-1.152-.651-.768-.976-1.824-.976-3.168 0-.875.138-1.648.416-2.32.288-.683.693-1.216 1.216-1.6.533-.384 1.157-.576 1.872-.576 1.12 0 1.978.368 2.576 1.104.597.736.896 1.755.896 3.056Zm-1.456-.432c0-.832-.166-1.467-.496-1.904-.331-.437-.827-.656-1.488-.656-1.206 0-1.862.885-1.968 2.656h3.952v-.096Zm10.905-5.92c-.448 0-.768.101-.96.304-.192.192-.288.496-.288.912v1.168h2.048l-.16 1.136h-1.888V119h-1.472v-7.296h-1.504v-1.136h1.504v-1.152c0-.725.229-1.307.688-1.744.469-.448 1.12-.672 1.952-.672.384 0 .725.037 1.024.112.309.064.64.171.992.32l-.464 1.072a3.597 3.597 0 0 0-1.472-.32Zm8.707 6.352c0 .245-.011.496-.032.752h-5.376c.064.928.299 1.611.704 2.048.405.437.928.656 1.568.656.405 0 .779-.059 1.12-.176a4.504 4.504 0 0 0 1.072-.56l.64.88c-.896.704-1.877 1.056-2.944 1.056-1.173 0-2.091-.384-2.752-1.152-.651-.768-.976-1.824-.976-3.168 0-.875.139-1.648.416-2.32.288-.683.693-1.216 1.216-1.6.533-.384 1.157-.576 1.872-.576 1.12 0 1.979.368 2.576 1.104.597.736.896 1.755.896 3.056Zm-1.456-.432c0-.832-.165-1.467-.496-1.904-.331-.437-.827-.656-1.488-.656-1.205 0-1.861.885-1.968 2.656h3.952v-.096Zm5.487 5.088c-.544 0-.976-.16-1.296-.48-.31-.331-.464-.789-.464-1.376v-10.16l1.472-.176v10.304c0 .235.037.405.112.512.085.107.224.16.416.16.202 0 .384-.032.544-.096l.384 1.024a2.4 2.4 0 0 1-1.168.288Zm4.479-8.624V119h-1.472v-8.432h1.472Zm-.752-4.048c.309 0 .56.096.752.288a.977.977 0 0 1 .288.72.977.977 0 0 1-.288.72c-.192.181-.443.272-.752.272-.299 0-.544-.091-.736-.272a.977.977 0 0 1-.288-.72c0-.288.096-.528.288-.72a.996.996 0 0 1 .736-.288Zm6.084 3.856c.576 0 1.093.08 1.552.24.458.16.896.4 1.312.72l-.624.928a5.02 5.02 0 0 0-1.104-.544 3.335 3.335 0 0 0-1.088-.176c-.48 0-.859.101-1.136.304a.918.918 0 0 0-.416.8c0 .341.128.608.384.8.266.192.741.379 1.424.56.938.235 1.637.555 2.096.96.469.405.704.96.704 1.664 0 .832-.326 1.467-.976 1.904-.64.437-1.424.656-2.352.656-1.28 0-2.342-.368-3.184-1.104l.784-.896c.714.544 1.504.816 2.368.816.554 0 .992-.112 1.312-.336.33-.235.496-.549.496-.944 0-.288-.059-.517-.176-.688-.118-.181-.32-.336-.608-.464-.288-.139-.71-.283-1.264-.432-.896-.235-1.547-.549-1.952-.944-.395-.395-.592-.896-.592-1.504 0-.437.128-.832.384-1.184.266-.363.629-.64 1.088-.832a3.909 3.909 0 0 1 1.568-.304Zm5.565 6.592c.32 0 .586.107.8.32.213.213.32.475.32.784 0 .331-.096.709-.288 1.136l-1.072 2.448h-1.056l.64-2.656a1.22 1.22 0 0 1-.336-.4 1.228 1.228 0 0 1-.112-.528c0-.309.106-.571.32-.784.213-.213.474-.32.784-.32Zm11.566-6.592c1.077 0 1.866.384 2.368 1.152.501.768.752 1.851.752 3.248 0 1.323-.288 2.389-.864 3.2-.576.811-1.392 1.216-2.448 1.216-.939 0-1.675-.32-2.208-.96v4l-1.472.176v-11.84h1.264l.112 1.136a3.137 3.137 0 0 1 1.12-.976 2.866 2.866 0 0 1 1.376-.352Zm-.544 7.616c1.386 0 2.08-1.072 2.08-3.216 0-2.155-.635-3.232-1.904-3.232-.416 0-.795.123-1.136.368a3.6 3.6 0 0 0-.896.944v4.112c.213.331.48.587.8.768.32.171.672.256 1.056.256Zm9.34-7.616c1.184 0 2.101.395 2.752 1.184.661.789.992 1.861.992 3.216 0 .875-.15 1.648-.448 2.32-.299.661-.731 1.179-1.296 1.552-.566.363-1.238.544-2.016.544-1.184 0-2.107-.395-2.768-1.184-.662-.789-.992-1.861-.992-3.216 0-.875.149-1.643.448-2.304.298-.672.73-1.189 1.296-1.552.565-.373 1.242-.56 2.032-.56Zm0 1.184c-1.462 0-2.192 1.077-2.192 3.232 0 2.144.725 3.216 2.176 3.216 1.45 0 2.176-1.077 2.176-3.232 0-2.144-.72-3.216-2.16-3.216Zm9.839-1.184c.299 0 .576.032.832.096l-.272 1.44a3.032 3.032 0 0 0-.736-.096c-.522 0-.944.192-1.264.576-.32.384-.57.981-.752 1.792V119h-1.472v-8.432h1.264l.144 1.712c.224-.629.528-1.104.912-1.424.384-.32.832-.48 1.344-.48Zm6.764 8.24a3.236 3.236 0 0 1-1.888.576c-.714 0-1.274-.203-1.68-.608-.394-.416-.592-1.013-.592-1.792v-5.088h-1.472v-1.136h1.472v-1.904l1.472-.176v2.08h2l-.16 1.136h-1.84v5.024c0 .437.075.757.224.96.16.192.422.288.784.288.331 0 .704-.112 1.12-.336l.56.976Zm7.096-1.584c0 .341.059.597.176.768.117.16.293.283.528.368l-.336 1.024c-.437-.053-.789-.176-1.056-.368s-.464-.491-.592-.896c-.565.843-1.403 1.264-2.512 1.264-.832 0-1.488-.235-1.968-.704s-.72-1.083-.72-1.84c0-.896.32-1.584.96-2.064.651-.48 1.568-.72 2.752-.72h1.296v-.624c0-.597-.144-1.024-.432-1.28-.288-.256-.731-.384-1.328-.384-.619 0-1.376.149-2.272.448l-.368-1.072c1.045-.384 2.016-.576 2.912-.576.992 0 1.733.245 2.224.736.491.48.736 1.168.736 2.064v3.856Zm-3.456 1.056c.843 0 1.504-.437 1.984-1.312v-1.936h-1.104c-1.557 0-2.336.576-2.336 1.728 0 .501.123.88.368 1.136.245.256.608.384 1.088.384Zm14.586-7.712c1.077 0 1.866.384 2.368 1.152.501.768.752 1.851.752 3.248 0 1.323-.288 2.389-.864 3.2-.576.811-1.392 1.216-2.448 1.216-.939 0-1.675-.32-2.208-.96v4l-1.472.176v-11.84h1.264l.112 1.136a3.137 3.137 0 0 1 1.12-.976 2.866 2.866 0 0 1 1.376-.352Zm-.544 7.616c1.386 0 2.08-1.072 2.08-3.216 0-2.155-.635-3.232-1.904-3.232-.416 0-.795.123-1.136.368a3.6 3.6 0 0 0-.896.944v4.112c.213.331.48.587.8.768.32.171.672.256 1.056.256Zm7.852 1.2c-.544 0-.976-.16-1.296-.48-.31-.331-.464-.789-.464-1.376v-10.16l1.472-.176v10.304c0 .235.037.405.112.512.085.107.224.16.416.16.202 0 .384-.032.544-.096l.384 1.024a2.4 2.4 0 0 1-1.168.288Zm8.609-2.16c0 .341.059.597.176.768.117.16.293.283.528.368l-.336 1.024c-.437-.053-.789-.176-1.056-.368s-.464-.491-.592-.896c-.565.843-1.403 1.264-2.512 1.264-.832 0-1.488-.235-1.968-.704s-.72-1.083-.72-1.84c0-.896.32-1.584.96-2.064.651-.48 1.568-.72 2.752-.72h1.296v-.624c0-.597-.144-1.024-.432-1.28-.288-.256-.731-.384-1.328-.384-.619 0-1.376.149-2.272.448l-.368-1.072c1.045-.384 2.016-.576 2.912-.576.992 0 1.733.245 2.224.736.491.48.736 1.168.736 2.064v3.856Zm-3.456 1.056c.843 0 1.504-.437 1.984-1.312v-1.936h-1.104c-1.557 0-2.336.576-2.336 1.728 0 .501.123.88.368 1.136.245.256.608.384 1.088.384Zm9.551-7.712c.501 0 .96.075 1.376.224.416.139.816.368 1.2.688l-.704.928a3.365 3.365 0 0 0-.88-.464 2.56 2.56 0 0 0-.928-.16c-.683 0-1.216.272-1.6.816-.373.544-.56 1.349-.56 2.416s.187 1.856.56 2.368c.373.501.907.752 1.6.752.331 0 .635-.048.912-.144.277-.107.587-.272.928-.496l.672.96c-.768.619-1.627.928-2.576.928-1.141 0-2.043-.384-2.704-1.152-.651-.768-.976-1.829-.976-3.184 0-.896.149-1.68.448-2.352.299-.672.72-1.195 1.264-1.568.555-.373 1.211-.56 1.968-.56Zm10.624 4.16c0 .245-.01.496-.032.752h-5.376c.064.928.299 1.611.704 2.048.406.437.928.656 1.568.656a3.43 3.43 0 0 0 1.12-.176 4.486 4.486 0 0 0 1.072-.56l.64.88c-.896.704-1.877 1.056-2.944 1.056-1.173 0-2.09-.384-2.752-1.152-.65-.768-.976-1.824-.976-3.168 0-.875.139-1.648.416-2.32.288-.683.694-1.216 1.216-1.6.534-.384 1.158-.576 1.872-.576 1.12 0 1.979.368 2.576 1.104.598.736.896 1.755.896 3.056Zm-1.456-.432c0-.832-.165-1.467-.496-1.904-.33-.437-.826-.656-1.488-.656-1.205 0-1.861.885-1.968 2.656h3.952v-.096Zm7.471-3.728c.299 0 .576.032.832.096l-.272 1.44a3.032 3.032 0 0 0-.736-.096c-.523 0-.944.192-1.264.576-.32.384-.571.981-.752 1.792V119h-1.472v-8.432h1.264l.144 1.712c.224-.629.528-1.104.912-1.424.384-.32.832-.48 1.344-.48Zm7.625 6.656c0 .341.059.597.176.768a1.1 1.1 0 0 0 .528.368l-.336 1.024c-.437-.053-.789-.176-1.056-.368-.266-.192-.464-.491-.592-.896-.565.843-1.402 1.264-2.512 1.264-.832 0-1.488-.235-1.968-.704s-.72-1.083-.72-1.84c0-.896.32-1.584.96-2.064.651-.48 1.568-.72 2.752-.72h1.296v-.624c0-.597-.144-1.024-.432-1.28-.288-.256-.73-.384-1.328-.384-.618 0-1.376.149-2.272.448l-.368-1.072c1.046-.384 2.016-.576 2.912-.576.992 0 1.734.245 2.224.736.491.48.736 1.168.736 2.064v3.856Zm-3.456 1.056c.843 0 1.504-.437 1.984-1.312v-1.936h-1.104c-1.557 0-2.336.576-2.336 1.728 0 .501.123.88.368 1.136.246.256.608.384 1.088.384Zm10.736.528a3.238 3.238 0 0 1-1.888.576c-.715 0-1.275-.203-1.68-.608-.395-.416-.592-1.013-.592-1.792v-5.088h-1.472v-1.136h1.472v-1.904l1.472-.176v2.08h2l-.16 1.136h-1.84v5.024c0 .437.074.757.224.96.16.192.421.288.784.288.33 0 .704-.112 1.12-.336l.56.976Zm-381.101 15.76c.768 0 1.365.229 1.792.688.437.459.656 1.088.656 1.888V143h-1.472v-5.84c0-.597-.112-1.019-.336-1.264-.224-.245-.555-.368-.992-.368a1.92 1.92 0 0 0-1.184.384c-.341.256-.661.624-.96 1.104V143H17.52v-8.432h1.264l.128 1.248a3.36 3.36 0 0 1 1.104-1.056 2.915 2.915 0 0 1 1.472-.384ZM33.167 143h-1.264l-.112-1.312c-.32.523-.688.907-1.104 1.152-.416.235-.923.352-1.52.352-.736 0-1.312-.224-1.728-.672-.416-.448-.624-1.083-.624-1.904v-6.048h1.472v5.888c0 .576.101.987.304 1.232.203.235.533.352.992.352.821 0 1.525-.485 2.112-1.456v-6.016h1.472V143Zm4.72.192c-.544 0-.976-.16-1.295-.48-.31-.331-.465-.789-.465-1.376v-10.16L37.6 131v10.304c0 .235.038.405.113.512.085.107.223.16.415.16.203 0 .384-.032.544-.096l.385 1.024a2.399 2.399 0 0 1-1.168.288Zm4.688 0c-.544 0-.976-.16-1.296-.48-.31-.331-.464-.789-.464-1.376v-10.16l1.472-.176v10.304c0 .235.037.405.112.512.085.107.224.16.416.16.203 0 .384-.032.544-.096l.384 1.024a2.399 2.399 0 0 1-1.168.288Zm8.61-2.16c0 .341.058.597.175.768.118.16.294.283.528.368l-.336 1.024c-.437-.053-.789-.176-1.056-.368-.266-.192-.464-.491-.592-.896-.565.843-1.402 1.264-2.512 1.264-.832 0-1.488-.235-1.968-.704s-.72-1.083-.72-1.84c0-.896.32-1.584.96-2.064.651-.48 1.568-.72 2.752-.72h1.296v-.624c0-.597-.144-1.024-.432-1.28-.288-.256-.73-.384-1.328-.384-.618 0-1.376.149-2.272.448l-.368-1.072c1.046-.384 2.016-.576 2.912-.576.992 0 1.734.245 2.224.736.491.48.736 1.168.736 2.064v3.856Zm-3.457 1.056c.843 0 1.504-.437 1.984-1.312v-1.936h-1.104c-1.557 0-2.336.576-2.336 1.728 0 .501.123.88.368 1.136.246.256.608.384 1.088.384Zm6.864-1.12c.32 0 .586.107.8.32.213.213.32.475.32.784 0 .309-.107.576-.32.8-.214.213-.48.32-.8.32-.31 0-.571-.107-.785-.32a1.12 1.12 0 0 1-.32-.8c0-.309.107-.571.32-.784.214-.213.475-.32.785-.32ZM62.366 143v-11.024h5.856l-.176 1.216h-4.16v3.76h3.6v1.2h-3.6V143h-1.52Zm13.457 0H74.56l-.112-1.312c-.32.523-.688.907-1.104 1.152-.416.235-.922.352-1.52.352-.736 0-1.312-.224-1.728-.672-.416-.448-.624-1.083-.624-1.904v-6.048h1.472v5.888c0 .576.102.987.304 1.232.203.235.534.352.992.352.822 0 1.526-.485 2.112-1.456v-6.016h1.472V143Zm5.329-8.624c.576 0 1.093.08 1.552.24.458.16.896.4 1.312.72l-.624.928a5.02 5.02 0 0 0-1.104-.544 3.333 3.333 0 0 0-1.088-.176c-.48 0-.859.101-1.136.304a.92.92 0 0 0-.416.8c0 .341.128.608.384.8.266.192.741.379 1.424.56.938.235 1.637.555 2.096.96.47.405.704.96.704 1.664 0 .832-.326 1.467-.976 1.904-.64.437-1.424.656-2.352.656-1.28 0-2.342-.368-3.184-1.104l.784-.896c.714.544 1.504.816 2.368.816.554 0 .992-.112 1.312-.336.33-.235.496-.549.496-.944 0-.288-.059-.517-.176-.688-.118-.181-.32-.336-.608-.464-.288-.139-.71-.283-1.264-.432-.896-.235-1.547-.549-1.952-.944-.395-.395-.592-.896-.592-1.504 0-.437.128-.832.384-1.184.266-.363.63-.64 1.088-.832a3.91 3.91 0 0 1 1.568-.304Zm8.252 0c.502 0 .96.075 1.377.224.415.139.816.368 1.2.688l-.704.928a3.36 3.36 0 0 0-.88-.464 2.56 2.56 0 0 0-.928-.16c-.683 0-1.216.272-1.6.816-.374.544-.56 1.349-.56 2.416s.186 1.856.56 2.368c.373.501.906.752 1.6.752.33 0 .634-.048.912-.144.277-.107.586-.272.927-.496l.672.96c-.767.619-1.626.928-2.576.928-1.14 0-2.042-.384-2.703-1.152-.651-.768-.976-1.829-.976-3.184 0-.896.149-1.68.448-2.352.298-.672.72-1.195 1.263-1.568.555-.373 1.211-.56 1.968-.56Zm10.625 4.16c0 .245-.011.496-.032.752H94.62c.064.928.298 1.611.704 2.048.405.437.928.656 1.568.656.405 0 .778-.059 1.12-.176a4.502 4.502 0 0 0 1.072-.56l.64.88c-.896.704-1.878 1.056-2.944 1.056-1.174 0-2.091-.384-2.752-1.152-.651-.768-.976-1.824-.976-3.168 0-.875.138-1.648.416-2.32.288-.683.693-1.216 1.216-1.6.533-.384 1.157-.576 1.872-.576 1.12 0 1.978.368 2.576 1.104.597.736.896 1.755.896 3.056Zm-1.456-.432c0-.832-.166-1.467-.496-1.904-.331-.437-.827-.656-1.488-.656-1.206 0-1.862.885-1.968 2.656h3.952v-.096Zm11.913-3.728c1.077 0 1.866.384 2.368 1.152.501.768.752 1.851.752 3.248 0 1.323-.288 2.389-.864 3.2-.576.811-1.392 1.216-2.448 1.216-.939 0-1.675-.32-2.208-.96v4l-1.472.176v-11.84h1.264l.112 1.136a3.137 3.137 0 0 1 1.12-.976 2.866 2.866 0 0 1 1.376-.352Zm-.544 7.616c1.386 0 2.08-1.072 2.08-3.216 0-2.155-.635-3.232-1.904-3.232-.416 0-.795.123-1.136.368a3.6 3.6 0 0 0-.896.944v4.112c.213.331.48.587.8.768.32.171.672.256 1.056.256Zm12.54-3.456c0 .245-.011.496-.032.752h-5.376c.064.928.298 1.611.704 2.048.405.437.928.656 1.568.656.405 0 .778-.059 1.12-.176a4.523 4.523 0 0 0 1.072-.56l.64.88c-.896.704-1.878 1.056-2.944 1.056-1.174 0-2.091-.384-2.752-1.152-.651-.768-.976-1.824-.976-3.168 0-.875.138-1.648.416-2.32.288-.683.693-1.216 1.216-1.6.533-.384 1.157-.576 1.872-.576 1.12 0 1.978.368 2.576 1.104.597.736.896 1.755.896 3.056Zm-1.456-.432c0-.832-.166-1.467-.496-1.904-.331-.437-.827-.656-1.488-.656-1.206 0-1.862.885-1.968 2.656h3.952v-.096Zm5.487 5.088c-.544 0-.976-.16-1.296-.48-.31-.331-.464-.789-.464-1.376v-10.16l1.472-.176v10.304c0 .235.037.405.112.512.085.107.224.16.416.16.202 0 .384-.032.544-.096l.384 1.024a2.4 2.4 0 0 1-1.168.288Zm4.687 0c-.544 0-.976-.16-1.296-.48-.309-.331-.464-.789-.464-1.376v-10.16l1.472-.176v10.304c0 .235.037.405.112.512.085.107.224.16.416.16.203 0 .384-.032.544-.096l.384 1.024a2.398 2.398 0 0 1-1.168.288Zm9.297-4.656c0 .245-.01.496-.032.752h-5.376c.064.928.299 1.611.704 2.048.406.437.928.656 1.568.656a3.43 3.43 0 0 0 1.12-.176 4.486 4.486 0 0 0 1.072-.56l.64.88c-.896.704-1.877 1.056-2.944 1.056-1.173 0-2.09-.384-2.752-1.152-.65-.768-.976-1.824-.976-3.168 0-.875.139-1.648.416-2.32.288-.683.694-1.216 1.216-1.6.534-.384 1.158-.576 1.872-.576 1.12 0 1.979.368 2.576 1.104.598.736.896 1.755.896 3.056Zm-1.456-.432c0-.832-.165-1.467-.496-1.904-.33-.437-.826-.656-1.488-.656-1.205 0-1.861.885-1.968 2.656h3.952v-.096Zm7.775-3.728c.768 0 1.365.229 1.792.688.437.459.656 1.088.656 1.888V143h-1.472v-5.84c0-.597-.112-1.019-.336-1.264-.224-.245-.555-.368-.992-.368a1.92 1.92 0 0 0-1.184.384c-.341.256-.661.624-.96 1.104V143h-1.472v-8.432h1.264l.128 1.248c.299-.448.667-.8 1.104-1.056a2.916 2.916 0 0 1 1.472-.384Zm9.663 8.24a3.238 3.238 0 0 1-1.888.576c-.715 0-1.275-.203-1.68-.608-.395-.416-.592-1.013-.592-1.792v-5.088h-1.472v-1.136h1.472v-1.904l1.472-.176v2.08h2l-.16 1.136h-1.84v5.024c0 .437.075.757.224.96.16.192.421.288.784.288.331 0 .704-.112 1.12-.336l.56.976Zm7.659-4.08c0 .245-.011.496-.032.752h-5.376c.064.928.299 1.611.704 2.048.405.437.928.656 1.568.656.405 0 .779-.059 1.12-.176a4.504 4.504 0 0 0 1.072-.56l.64.88c-.896.704-1.877 1.056-2.944 1.056-1.173 0-2.091-.384-2.752-1.152-.651-.768-.976-1.824-.976-3.168 0-.875.139-1.648.416-2.32.288-.683.693-1.216 1.216-1.6.533-.384 1.157-.576 1.872-.576 1.12 0 1.979.368 2.576 1.104.597.736.896 1.755.896 3.056Zm-1.456-.432c0-.832-.165-1.467-.496-1.904-.331-.437-.827-.656-1.488-.656-1.205 0-1.861.885-1.968 2.656h3.952v-.096Zm6.095-3.728c.576 0 1.093.08 1.552.24.458.16.896.4 1.312.72l-.624.928a5.02 5.02 0 0 0-1.104-.544 3.335 3.335 0 0 0-1.088-.176c-.48 0-.859.101-1.136.304a.918.918 0 0 0-.416.8c0 .341.128.608.384.8.266.192.741.379 1.424.56.938.235 1.637.555 2.096.96.469.405.704.96.704 1.664 0 .832-.326 1.467-.976 1.904-.64.437-1.424.656-2.352.656-1.28 0-2.342-.368-3.184-1.104l.784-.896c.714.544 1.504.816 2.368.816.554 0 .992-.112 1.312-.336.33-.235.496-.549.496-.944 0-.288-.059-.517-.176-.688-.118-.181-.32-.336-.608-.464-.288-.139-.71-.283-1.264-.432-.896-.235-1.547-.549-1.952-.944-.395-.395-.592-.896-.592-1.504 0-.437.128-.832.384-1.184.266-.363.629-.64 1.088-.832a3.909 3.909 0 0 1 1.568-.304Zm11.709.192v11.84l-1.472-.176v-4.352a3.037 3.037 0 0 1-1.04.976 2.767 2.767 0 0 1-1.36.336c-1.003 0-1.787-.395-2.352-1.184-.555-.789-.832-1.851-.832-3.184 0-.864.133-1.632.4-2.304.266-.672.65-1.195 1.152-1.568.501-.384 1.088-.576 1.76-.576.896 0 1.685.379 2.368 1.136l.112-.944h1.264Zm-3.552 7.456c.448 0 .832-.101 1.152-.304.32-.213.629-.528.928-.944v-4.128c-.278-.363-.576-.635-.896-.816a1.964 1.964 0 0 0-1.056-.288c-.651 0-1.158.272-1.52.816-.352.544-.528 1.355-.528 2.432 0 1.088.165 1.899.496 2.432.33.533.805.8 1.424.8Zm12.858.976h-1.264l-.112-1.312c-.32.523-.688.907-1.104 1.152-.416.235-.923.352-1.52.352-.736 0-1.312-.224-1.728-.672-.416-.448-.624-1.083-.624-1.904v-6.048h1.472v5.888c0 .576.101.987.304 1.232.203.235.533.352.992.352.821 0 1.525-.485 2.112-1.456v-6.016h1.472V143Zm9.409-4.464c0 .245-.011.496-.032.752h-5.376c.064.928.298 1.611.704 2.048.405.437.928.656 1.568.656.405 0 .778-.059 1.12-.176a4.523 4.523 0 0 0 1.072-.56l.64.88c-.896.704-1.878 1.056-2.944 1.056-1.174 0-2.091-.384-2.752-1.152-.651-.768-.976-1.824-.976-3.168 0-.875.138-1.648.416-2.32.288-.683.693-1.216 1.216-1.6.533-.384 1.157-.576 1.872-.576 1.12 0 1.978.368 2.576 1.104.597.736.896 1.755.896 3.056Zm-1.456-.432c0-.832-.166-1.467-.496-1.904-.331-.437-.827-.656-1.488-.656-1.206 0-1.862.885-1.968 2.656h3.952v-.096Zm12.297 4.512a3.238 3.238 0 0 1-1.888.576c-.715 0-1.275-.203-1.68-.608-.395-.416-.592-1.013-.592-1.792v-5.088h-1.472v-1.136h1.472v-1.904l1.472-.176v2.08h2l-.16 1.136h-1.84v5.024c0 .437.074.757.224.96.16.192.421.288.784.288.33 0 .704-.112 1.12-.336l.56.976Zm7.659-4.08c0 .245-.011.496-.032.752h-5.376c.064.928.298 1.611.704 2.048.405.437.928.656 1.568.656.405 0 .778-.059 1.12-.176a4.523 4.523 0 0 0 1.072-.56l.64.88c-.896.704-1.878 1.056-2.944 1.056-1.174 0-2.091-.384-2.752-1.152-.651-.768-.976-1.824-.976-3.168 0-.875.138-1.648.416-2.32.288-.683.693-1.216 1.216-1.6.533-.384 1.157-.576 1.872-.576 1.12 0 1.978.368 2.576 1.104.597.736.896 1.755.896 3.056Zm-1.456-.432c0-.832-.166-1.467-.496-1.904-.331-.437-.827-.656-1.488-.656-1.206 0-1.862.885-1.968 2.656h3.952v-.096Zm5.486 5.088c-.544 0-.976-.16-1.296-.48-.309-.331-.464-.789-.464-1.376v-10.16l1.472-.176v10.304c0 .235.038.405.112.512.086.107.224.16.416.16.203 0 .384-.032.544-.096l.384 1.024a2.398 2.398 0 0 1-1.168.288Zm4.688 0c-.544 0-.976-.16-1.296-.48-.31-.331-.464-.789-.464-1.376v-10.16l1.472-.176v10.304c0 .235.037.405.112.512.085.107.224.16.416.16.202 0 .384-.032.544-.096l.384 1.024a2.4 2.4 0 0 1-1.168.288Zm9.279-.192h-1.264l-.112-1.312c-.32.523-.688.907-1.104 1.152-.416.235-.922.352-1.52.352-.736 0-1.312-.224-1.728-.672-.416-.448-.624-1.083-.624-1.904v-6.048h1.472v5.888c0 .576.102.987.304 1.232.203.235.534.352.992.352.822 0 1.526-.485 2.112-1.456v-6.016h1.472V143Zm5.329-8.624c.576 0 1.093.08 1.552.24.458.16.896.4 1.312.72l-.624.928a5.02 5.02 0 0 0-1.104-.544 3.335 3.335 0 0 0-1.088-.176c-.48 0-.859.101-1.136.304a.918.918 0 0 0-.416.8c0 .341.128.608.384.8.266.192.741.379 1.424.56.938.235 1.637.555 2.096.96.469.405.704.96.704 1.664 0 .832-.326 1.467-.976 1.904-.64.437-1.424.656-2.352.656-1.28 0-2.342-.368-3.184-1.104l.784-.896c.714.544 1.504.816 2.368.816.554 0 .992-.112 1.312-.336.33-.235.496-.549.496-.944 0-.288-.059-.517-.176-.688-.118-.181-.32-.336-.608-.464-.288-.139-.71-.283-1.264-.432-.896-.235-1.547-.549-1.952-.944-.395-.395-.592-.896-.592-1.504 0-.437.128-.832.384-1.184.266-.363.629-.64 1.088-.832a3.909 3.909 0 0 1 1.568-.304Zm10.887.192V143h-1.472v-8.432h1.472Zm-.752-4.048c.309 0 .56.096.752.288a.977.977 0 0 1 .288.72.977.977 0 0 1-.288.72c-.192.181-.443.272-.752.272-.299 0-.544-.091-.736-.272a.977.977 0 0 1-.288-.72c0-.288.096-.528.288-.72a.996.996 0 0 1 .736-.288Zm10.324.656V143h-1.296l-.144-1.168a3.126 3.126 0 0 1-1.04 1.008 2.78 2.78 0 0 1-1.392.352c-1.003 0-1.787-.395-2.352-1.184-.555-.789-.832-1.851-.832-3.184 0-.864.133-1.632.4-2.304.266-.672.65-1.195 1.152-1.568.501-.384 1.088-.576 1.76-.576.864 0 1.621.347 2.272 1.04V131l1.472.176Zm-3.552 10.848c.448 0 .832-.101 1.152-.304.32-.213.629-.528.928-.944v-4.128c-.278-.363-.576-.635-.896-.816a1.964 1.964 0 0 0-1.056-.288c-.651 0-1.158.272-1.52.816-.352.544-.528 1.355-.528 2.432 0 1.088.165 1.899.496 2.432.33.533.805.8 1.424.8Zm12.26.464c0 .779-.096 1.403-.288 1.872a2.683 2.683 0 0 1-.848 1.136c-.362.299-.874.597-1.536.896l-.432-1.072c.416-.192.736-.384.96-.576.224-.181.39-.443.496-.784.118-.331.176-.789.176-1.376v-8.016h1.472v7.92Zm-.736-11.968c.31 0 .56.096.752.288a.977.977 0 0 1 .288.72.977.977 0 0 1-.288.72c-.192.181-.442.272-.752.272-.298 0-.544-.091-.736-.272a.977.977 0 0 1-.288-.72c0-.288.096-.528.288-.72a.998.998 0 0 1 .736-.288ZM279.511 143h-1.264l-.112-1.312c-.32.523-.688.907-1.104 1.152-.416.235-.923.352-1.52.352-.736 0-1.312-.224-1.728-.672-.416-.448-.624-1.083-.624-1.904v-6.048h1.472v5.888c0 .576.101.987.304 1.232.202.235.533.352.992.352.821 0 1.525-.485 2.112-1.456v-6.016h1.472V143Zm5.328-8.624c.576 0 1.094.08 1.552.24.459.16.896.4 1.312.72l-.624.928a5.02 5.02 0 0 0-1.104-.544 3.331 3.331 0 0 0-1.088-.176c-.48 0-.858.101-1.136.304a.92.92 0 0 0-.416.8c0 .341.128.608.384.8.267.192.742.379 1.424.56.939.235 1.638.555 2.096.96.47.405.704.96.704 1.664 0 .832-.325 1.467-.976 1.904-.64.437-1.424.656-2.352.656-1.28 0-2.341-.368-3.184-1.104l.784-.896c.715.544 1.504.816 2.368.816.555 0 .992-.112 1.312-.336a1.1 1.1 0 0 0 .496-.944c0-.288-.058-.517-.176-.688-.117-.181-.32-.336-.608-.464-.288-.139-.709-.283-1.264-.432-.896-.235-1.546-.549-1.952-.944-.394-.395-.592-.896-.592-1.504 0-.437.128-.832.384-1.184.267-.363.63-.64 1.088-.832.47-.203.992-.304 1.568-.304Zm9.437 8.24a3.238 3.238 0 0 1-1.888.576c-.715 0-1.275-.203-1.68-.608-.395-.416-.592-1.013-.592-1.792v-5.088h-1.472v-1.136h1.472v-1.904l1.472-.176v2.08h2l-.16 1.136h-1.84v5.024c0 .437.075.757.224.96.16.192.421.288.784.288.331 0 .704-.112 1.12-.336l.56.976Zm4.459-8.24c1.184 0 2.101.395 2.752 1.184.661.789.992 1.861.992 3.216 0 .875-.149 1.648-.448 2.32-.299.661-.731 1.179-1.296 1.552-.565.363-1.237.544-2.016.544-1.184 0-2.107-.395-2.768-1.184-.661-.789-.992-1.861-.992-3.216 0-.875.149-1.643.448-2.304.299-.672.731-1.189 1.296-1.552.565-.373 1.243-.56 2.032-.56Zm0 1.184c-1.461 0-2.192 1.077-2.192 3.232 0 2.144.725 3.216 2.176 3.216s2.176-1.077 2.176-3.232c0-2.144-.72-3.216-2.16-3.216Zm14.282-1.184c1.077 0 1.867.384 2.368 1.152.501.768.752 1.851.752 3.248 0 1.323-.288 2.389-.864 3.2-.576.811-1.392 1.216-2.448 1.216-.939 0-1.675-.32-2.208-.96v4l-1.472.176v-11.84h1.264l.112 1.136a3.146 3.146 0 0 1 1.12-.976 2.866 2.866 0 0 1 1.376-.352Zm-.544 7.616c1.387 0 2.08-1.072 2.08-3.216 0-2.155-.635-3.232-1.904-3.232-.416 0-.795.123-1.136.368-.341.245-.64.56-.896.944v4.112c.213.331.48.587.8.768.32.171.672.256 1.056.256Zm9.836-7.616c.299 0 .576.032.832.096l-.272 1.44a3.032 3.032 0 0 0-.736-.096c-.523 0-.944.192-1.264.576-.32.384-.571.981-.752 1.792V143h-1.472v-8.432h1.264l.144 1.712c.224-.629.528-1.104.912-1.424.384-.32.832-.48 1.344-.48Zm8.392 4.16c0 .245-.011.496-.032.752h-5.376c.064.928.298 1.611.704 2.048.405.437.928.656 1.568.656.405 0 .778-.059 1.12-.176a4.523 4.523 0 0 0 1.072-.56l.64.88c-.896.704-1.878 1.056-2.944 1.056-1.174 0-2.091-.384-2.752-1.152-.651-.768-.976-1.824-.976-3.168 0-.875.138-1.648.416-2.32.288-.683.693-1.216 1.216-1.6.533-.384 1.157-.576 1.872-.576 1.12 0 1.978.368 2.576 1.104.597.736.896 1.755.896 3.056Zm-1.456-.432c0-.832-.166-1.467-.496-1.904-.331-.437-.827-.656-1.488-.656-1.206 0-1.862.885-1.968 2.656h3.952v-.096Zm8.062 4.512a3.236 3.236 0 0 1-1.888.576c-.714 0-1.274-.203-1.68-.608-.394-.416-.592-1.013-.592-1.792v-5.088h-1.472v-1.136h1.472v-1.904l1.472-.176v2.08h2l-.16 1.136h-1.84v5.024c0 .437.075.757.224.96.16.192.422.288.784.288.331 0 .704-.112 1.12-.336l.56.976Zm2.998-8.048V143h-1.472v-8.432h1.472Zm-.752-4.048c.309 0 .56.096.752.288a.977.977 0 0 1 .288.72.977.977 0 0 1-.288.72c-.192.181-.443.272-.752.272-.299 0-.544-.091-.736-.272a.977.977 0 0 1-.288-.72c0-.288.096-.528.288-.72a.996.996 0 0 1 .736-.288ZM349.62 143h-1.264l-.112-1.312c-.32.523-.688.907-1.104 1.152-.416.235-.923.352-1.52.352-.736 0-1.312-.224-1.728-.672-.416-.448-.624-1.083-.624-1.904v-6.048h1.472v5.888c0 .576.101.987.304 1.232.203.235.533.352.992.352.821 0 1.525-.485 2.112-1.456v-6.016h1.472V143Zm11.505-8.624c.693 0 1.248.235 1.664.704.416.459.624 1.083.624 1.872V143h-1.472v-5.84c0-1.088-.395-1.632-1.184-1.632-.416 0-.768.123-1.056.368-.288.235-.598.608-.928 1.12V143h-1.472v-5.84c0-1.088-.395-1.632-1.184-1.632-.427 0-.784.123-1.072.368-.288.245-.592.619-.912 1.12V143h-1.472v-8.432h1.264l.128 1.232c.629-.949 1.44-1.424 2.432-1.424.522 0 .965.133 1.328.4.373.267.64.64.8 1.12.33-.491.693-.864 1.088-1.12.405-.267.88-.4 1.424-.4Zm-339.733 24c1.077 0 1.867.384 2.368 1.152.501.768.752 1.851.752 3.248 0 1.323-.288 2.389-.864 3.2-.576.811-1.392 1.216-2.448 1.216-.939 0-1.675-.32-2.208-.96v4l-1.472.176v-11.84h1.264l.112 1.136c.31-.427.683-.752 1.12-.976a2.867 2.867 0 0 1 1.376-.352Zm-.544 7.616c1.387 0 2.08-1.072 2.08-3.216 0-2.155-.635-3.232-1.904-3.232-.416 0-.795.123-1.136.368-.341.245-.64.56-.896.944v4.112c.213.331.48.587.8.768.32.171.672.256 1.056.256ZM33.292 167h-1.264l-.112-1.312c-.32.523-.688.907-1.104 1.152-.416.235-.923.352-1.52.352-.736 0-1.312-.224-1.728-.672-.416-.448-.624-1.083-.624-1.904v-6.048h1.472v5.888c0 .576.101.987.304 1.232.203.235.533.352.992.352.821 0 1.525-.485 2.112-1.456v-6.016h1.472V167Zm4.72.192c-.544 0-.976-.16-1.295-.48-.31-.331-.465-.789-.465-1.376v-10.16l1.472-.176v10.304c0 .235.038.405.113.512.085.107.223.16.415.16.203 0 .384-.032.544-.096l.385 1.024a2.399 2.399 0 0 1-1.168.288Zm9.044-8.624L44.192 167h-1.776l-2.912-8.432h1.6l2.208 7.12 2.192-7.12h1.552Zm3.155 0V167h-1.472v-8.432h1.472Zm-.752-4.048c.31 0 .56.096.752.288a.977.977 0 0 1 .288.72.977.977 0 0 1-.288.72c-.192.181-.443.272-.752.272-.299 0-.544-.091-.736-.272a.977.977 0 0 1-.288-.72c0-.288.096-.528.288-.72a.997.997 0 0 1 .736-.288Zm7.763 3.856c.768 0 1.366.229 1.792.688.438.459.656 1.088.656 1.888V167h-1.472v-5.84c0-.597-.112-1.019-.336-1.264-.224-.245-.554-.368-.992-.368a1.92 1.92 0 0 0-1.184.384c-.341.256-.661.624-.96 1.104V167h-1.472v-8.432h1.264l.128 1.248c.299-.448.667-.8 1.104-1.056a2.915 2.915 0 0 1 1.472-.384Zm11.087 6.656c0 .341.059.597.176.768.118.16.294.283.528.368l-.336 1.024c-.437-.053-.789-.176-1.056-.368-.266-.192-.464-.491-.592-.896-.565.843-1.402 1.264-2.512 1.264-.832 0-1.488-.235-1.968-.704s-.72-1.083-.72-1.84c0-.896.32-1.584.96-2.064.651-.48 1.568-.72 2.752-.72h1.296v-.624c0-.597-.144-1.024-.432-1.28-.288-.256-.73-.384-1.328-.384-.618 0-1.376.149-2.272.448l-.368-1.072c1.046-.384 2.016-.576 2.912-.576.992 0 1.734.245 2.224.736.491.48.736 1.168.736 2.064v3.856Zm-3.456 1.056c.843 0 1.504-.437 1.984-1.312v-1.936h-1.104c-1.557 0-2.336.576-2.336 1.728 0 .501.123.88.368 1.136.246.256.608.384 1.088.384Zm10.144-7.712c.298 0 .576.032.832.096l-.272 1.44a3.034 3.034 0 0 0-.737-.096c-.522 0-.944.192-1.263.576-.32.384-.571.981-.752 1.792V167h-1.473v-8.432h1.265l.144 1.712c.224-.629.528-1.104.912-1.424.383-.32.831-.48 1.343-.48Zm1.61 6.592c.32 0 .587.107.8.32.214.213.32.475.32.784 0 .309-.106.576-.32.8-.213.213-.48.32-.8.32-.31 0-.57-.107-.784-.32a1.12 1.12 0 0 1-.32-.8c0-.309.107-.571.32-.784.214-.213.475-.32.784-.32Z" fill="#1C1C1C"/><path d="M2 1h427v-2H2v2Zm428 1v190h2V2h-2Zm-1 191H2v2h427v-2ZM1 192V2h-2v190h2Zm1 1a1 1 0 0 1-1-1h-2a3 3 0 0 0 3 3v-2Zm428-1a1 1 0 0 1-1 1v2a3 3 0 0 0 3-3h-2ZM429 1a1 1 0 0 1 1 1h2a3 3 0 0 0-3-3v2ZM2-1a3 3 0 0 0-3 3h2a1 1 0 0 1 1-1v-2Z" fill="#F5F5F5"/></svg>