<svg xmlns="http://www.w3.org/2000/svg" fill="none" viewBox="0 0 378 68"><path fill="#1C1C1C" d="M4.32 5.784c.736 0 1.365.107 1.888.32.523.203 1.03.523 1.52.96l-.832.928a4.506 4.506 0 0 0-1.232-.72 3.375 3.375 0 0 0-1.28-.24c-.576 0-1.05.133-1.424.4-.373.267-.56.656-.56 1.168 0 .32.064.592.192.816.128.213.363.41.704.592.352.181.859.373 1.52.576.693.213 1.27.443 1.728.688.459.245.827.587 1.104 1.024.288.427.432.97.432 1.632 0 .64-.16 1.205-.48 1.696-.31.49-.763.875-1.36 1.152-.587.277-1.285.416-2.096.416-1.525 0-2.773-.475-3.744-1.424l.832-.928c.448.363.901.64 1.36.832.459.181.97.272 1.536.272.683 0 1.248-.165 1.696-.496.448-.341.672-.832.672-1.472 0-.363-.07-.661-.208-.896-.139-.245-.379-.464-.72-.656-.33-.192-.816-.384-1.456-.576-1.13-.341-1.957-.752-2.48-1.232-.523-.48-.784-1.13-.784-1.952 0-.555.144-1.05.432-1.488.299-.437.71-.779 1.232-1.024.533-.245 1.136-.368 1.808-.368Zm12.287 6.752c0 .245-.01.496-.032.752h-5.376c.064.928.298 1.61.704 2.048.405.437.928.656 1.568.656.405 0 .778-.059 1.12-.176a4.517 4.517 0 0 0 1.072-.56l.64.88c-.896.704-1.878 1.056-2.944 1.056-1.174 0-2.09-.384-2.752-1.152-.65-.768-.976-1.824-.976-3.168 0-.875.138-1.648.416-2.32.288-.683.693-1.216 1.216-1.6.533-.384 1.157-.576 1.872-.576 1.12 0 1.978.368 2.576 1.104.597.736.896 1.755.896 3.056Zm-1.456-.432c0-.832-.166-1.467-.496-1.904-.33-.437-.827-.656-1.488-.656-1.206 0-1.862.885-1.968 2.656h3.952v-.096Zm5.486 5.088c-.544 0-.976-.16-1.296-.48-.309-.33-.463-.79-.463-1.376V5.176L20.349 5v10.304c0 .235.038.405.113.512.085.107.224.16.416.16.202 0 .384-.032.544-.096l.383 1.024a2.399 2.399 0 0 1-1.168.288Zm9.298-4.656c0 .245-.01.496-.032.752h-5.376c.064.928.299 1.61.704 2.048.405.437.928.656 1.568.656.405 0 .779-.059 1.12-.176a4.517 4.517 0 0 0 1.072-.56l.64.88c-.896.704-1.878 1.056-2.944 1.056-1.174 0-2.09-.384-2.752-1.152-.65-.768-.976-1.824-.976-3.168 0-.875.139-1.648.416-2.32.288-.683.693-1.216 1.216-1.6.533-.384 1.157-.576 1.872-.576 1.12 0 1.979.368 2.576 1.104.597.736.896 1.755.896 3.056Zm-1.456-.432c0-.832-.165-1.467-.496-1.904-.33-.437-.827-.656-1.488-.656-1.206 0-1.861.885-1.968 2.656h3.952v-.096Zm6.879-3.728c.501 0 .96.075 1.376.224a3.71 3.71 0 0 1 1.2.688l-.704.928a3.35 3.35 0 0 0-.88-.464 2.567 2.567 0 0 0-.928-.16c-.683 0-1.216.272-1.6.816-.374.544-.56 1.35-.56 2.416 0 1.067.186 1.856.56 2.368.373.501.906.752 1.6.752.33 0 .634-.048.912-.144.277-.107.586-.272.928-.496l.672.96c-.768.619-1.627.928-2.576.928-1.142 0-2.043-.384-2.704-1.152-.651-.768-.976-1.83-.976-3.184 0-.896.149-1.68.448-2.352.298-.672.72-1.195 1.264-1.568.554-.373 1.21-.56 1.968-.56Zm8.824 8.24a3.238 3.238 0 0 1-1.888.576c-.714 0-1.274-.203-1.68-.608-.394-.416-.592-1.013-.592-1.792V9.704H38.55V8.568h1.472V6.664l1.472-.176v2.08h2l-.16 1.136h-1.84v5.024c0 .437.075.757.224.96.16.192.422.288.784.288.33 0 .704-.112 1.12-.336l.56.976Zm14.224-8.24c.693 0 1.248.235 1.664.704.416.459.624 1.083.624 1.872V17h-1.472v-5.84c0-1.088-.395-1.632-1.184-1.632-.416 0-.768.123-1.056.368-.288.235-.597.608-.928 1.12V17h-1.472v-5.84c0-1.088-.395-1.632-1.184-1.632-.427 0-.784.123-1.072.368-.288.245-.592.619-.912 1.12V17h-1.472V8.568h1.264l.128 1.232c.63-.95 1.44-1.424 2.432-1.424.523 0 .965.133 1.328.4.373.267.64.64.8 1.12.33-.49.693-.864 1.088-1.12.405-.267.88-.4 1.424-.4Zm11.623 4.16c0 .245-.011.496-.032.752H64.62c.064.928.298 1.61.704 2.048.405.437.928.656 1.568.656.405 0 .778-.059 1.12-.176a4.513 4.513 0 0 0 1.072-.56l.64.88c-.896.704-1.878 1.056-2.944 1.056-1.174 0-2.091-.384-2.752-1.152-.651-.768-.976-1.824-.976-3.168 0-.875.138-1.648.416-2.32.288-.683.693-1.216 1.216-1.6.533-.384 1.157-.576 1.872-.576 1.12 0 1.978.368 2.576 1.104.597.736.896 1.755.896 3.056Zm-1.456-.432c0-.832-.166-1.467-.496-1.904-.331-.437-.827-.656-1.488-.656-1.206 0-1.862.885-1.968 2.656h3.952v-.096Zm7.774-3.728c.768 0 1.366.23 1.792.688.438.459.656 1.088.656 1.888V17h-1.472v-5.84c0-.597-.112-1.019-.336-1.264-.224-.245-.554-.368-.992-.368a1.92 1.92 0 0 0-1.184.384c-.341.256-.661.624-.96 1.104V17H72.38V8.568h1.264l.128 1.248c.299-.448.667-.8 1.104-1.056a2.915 2.915 0 0 1 1.472-.384ZM88.027 17h-1.265l-.112-1.312c-.32.523-.688.907-1.104 1.152-.416.235-.922.352-1.52.352-.736 0-1.312-.224-1.728-.672-.416-.448-.624-1.083-.624-1.904V8.568h1.472v5.888c0 .576.102.987.304 1.232.203.235.534.352.992.352.822 0 1.526-.485 2.112-1.456V8.568h1.472V17Z"/><rect width="376" height="38" x="1" y="29" fill="#fff" rx="1"/><path fill="#1C1C1C" d="M17.536 41.784c.928 0 1.739.224 2.432.672.704.437 1.248 1.083 1.632 1.936.395.853.592 1.888.592 3.104 0 1.195-.197 2.219-.592 3.072-.384.853-.928 1.504-1.632 1.952-.693.448-1.504.672-2.432.672-.928 0-1.744-.219-2.448-.656-.693-.437-1.237-1.083-1.632-1.936-.384-.853-.576-1.883-.576-3.088 0-1.184.192-2.208.576-3.072.395-.864.944-1.52 1.648-1.968.704-.459 1.515-.688 2.432-.688Zm0 1.248c-.96 0-1.707.363-2.24 1.088-.533.725-.8 1.856-.8 3.392 0 1.525.267 2.645.8 3.36.544.715 1.29 1.072 2.24 1.072 2.027 0 3.04-1.483 3.04-4.448 0-2.976-1.013-4.464-3.04-4.464Zm10.934 1.344c1.078 0 1.867.384 2.368 1.152.502.768.752 1.85.752 3.248 0 1.323-.288 2.39-.864 3.2-.576.81-1.392 1.216-2.448 1.216-.938 0-1.674-.32-2.208-.96v4l-1.472.176v-11.84h1.264l.112 1.136a3.15 3.15 0 0 1 1.12-.976 2.87 2.87 0 0 1 1.376-.352Zm-.544 7.616c1.387 0 2.08-1.072 2.08-3.216 0-2.155-.634-3.232-1.904-3.232-.416 0-.794.123-1.136.368-.341.245-.64.56-.896.944v4.112c.213.33.48.587.8.768.32.17.672.256 1.056.256Zm10.428.624a3.238 3.238 0 0 1-1.888.576c-.715 0-1.275-.203-1.68-.608-.395-.416-.592-1.013-.592-1.792v-5.088h-1.472v-1.136h1.472v-1.904l1.472-.176v2.08h2l-.16 1.136h-1.84v5.024c0 .437.075.757.224.96.16.192.422.288.784.288.33 0 .704-.112 1.12-.336l.56.976Zm2.997-8.048V53H39.88v-8.432h1.472ZM40.6 40.52c.31 0 .56.096.752.288a.977.977 0 0 1 .288.72.977.977 0 0 1-.288.72c-.192.181-.442.272-.752.272-.298 0-.544-.09-.736-.272a.977.977 0 0 1-.288-.72c0-.288.096-.528.288-.72a.997.997 0 0 1 .736-.288Zm6.964 3.856c1.184 0 2.101.395 2.752 1.184.661.79.992 1.861.992 3.216 0 .875-.15 1.648-.448 2.32-.299.661-.73 1.179-1.296 1.552-.565.363-1.237.544-2.016.544-1.184 0-2.107-.395-2.768-1.184-.661-.79-.992-1.861-.992-3.216 0-.875.15-1.643.448-2.304.299-.672.73-1.19 1.296-1.552.565-.373 1.243-.56 2.032-.56Zm0 1.184c-1.461 0-2.192 1.077-2.192 3.232 0 2.144.725 3.216 2.176 3.216 1.45 0 2.176-1.077 2.176-3.232 0-2.144-.72-3.216-2.16-3.216Zm10.144-1.184c.768 0 1.365.23 1.792.688.437.459.656 1.088.656 1.888V53h-1.472v-5.84c0-.597-.112-1.019-.336-1.264-.224-.245-.555-.368-.992-.368a1.92 1.92 0 0 0-1.184.384c-.342.256-.662.624-.96 1.104V53h-1.472v-8.432h1.264l.128 1.248c.298-.448.666-.8 1.104-1.056a2.915 2.915 0 0 1 1.472-.384Z"/><path stroke="#3F3F3F" stroke-linecap="round" stroke-linejoin="round" stroke-width="2" d="m348 45 6 6 6-6"/><rect width="376" height="38" x="1" y="29" stroke="#646464" stroke-width="2" rx="1"/></svg>