<svg width="142" height="24" fill="none" xmlns="http://www.w3.org/2000/svg"><rect x="1" y="1" width="22" height="22" rx="1" fill="#fff"/><rect width="24" height="24" rx="2" fill="#646464"/><path d="M10.79 18.023c.523 0 .929-.187 1.21-.601l5.633-8.453c.195-.297.281-.586.281-.852 0-.742-.578-1.289-1.336-1.289-.515 0-.844.18-1.156.68l-4.656 7.304L8.43 12.04a1.252 1.252 0 0 0-1.024-.469c-.758 0-1.32.555-1.32 1.297 0 .336.094.61.383.938L9.625 17.5c.313.367.688.523 1.164.523Z" fill="#fff"/><rect x="1" y="1" width="22" height="22" rx="1" stroke="#646464" stroke-width="2"/><path d="M37.456 5.784c.661 0 1.216.085 1.664.256.459.17.923.448 1.392.832l-.832.976c-.672-.544-1.381-.816-2.128-.816-.917 0-1.659.352-2.224 1.056-.555.704-.832 1.835-.832 3.392 0 1.515.277 2.635.832 3.36.555.715 1.29 1.072 2.208 1.072.47 0 .88-.08 1.232-.24.352-.16.725-.384 1.12-.672l.752.96c-.341.352-.779.645-1.312.88s-1.147.352-1.84.352c-.896 0-1.696-.219-2.4-.656-.693-.448-1.237-1.099-1.632-1.952-.384-.864-.576-1.899-.576-3.104s.203-2.235.608-3.088c.405-.864.955-1.515 1.648-1.952a4.26 4.26 0 0 1 2.32-.656Zm8.829 2.592c.768 0 1.365.23 1.792.688.437.459.656 1.088.656 1.888V17H47.26v-5.84c0-.597-.117-1.019-.352-1.264-.224-.245-.555-.368-.992-.368-.438 0-.827.128-1.168.384-.342.256-.662.619-.96 1.088v6h-1.472V5.192l1.472-.16v4.704c.661-.907 1.493-1.36 2.496-1.36Zm11.775 4.16c0 .245-.01.496-.032.752h-5.376c.064.928.298 1.61.704 2.048.405.437.928.656 1.568.656.405 0 .779-.059 1.12-.176a4.517 4.517 0 0 0 1.072-.56l.64.88c-.896.704-1.877 1.056-2.944 1.056-1.173 0-2.09-.384-2.752-1.152-.65-.768-.976-1.824-.976-3.168 0-.875.138-1.648.416-2.32.288-.683.693-1.216 1.216-1.6.533-.384 1.157-.576 1.872-.576 1.12 0 1.978.368 2.576 1.104.597.736.896 1.755.896 3.056Zm-1.456-.432c0-.832-.166-1.467-.496-1.904-.33-.437-.827-.656-1.488-.656-1.206 0-1.861.885-1.968 2.656h3.952v-.096Zm6.879-3.728c.501 0 .96.075 1.376.224a3.71 3.71 0 0 1 1.2.688l-.704.928a3.35 3.35 0 0 0-.88-.464 2.567 2.567 0 0 0-.928-.16c-.683 0-1.216.272-1.6.816-.374.544-.56 1.35-.56 2.416 0 1.067.186 1.856.56 2.368.373.501.906.752 1.6.752.33 0 .634-.048.912-.144.277-.107.586-.272.928-.496l.672.96c-.768.619-1.627.928-2.576.928-1.142 0-2.043-.384-2.704-1.152-.651-.768-.976-1.83-.976-3.184 0-.896.149-1.68.448-2.352.298-.672.72-1.195 1.264-1.568.554-.373 1.21-.56 1.968-.56ZM69.523 5v12h-1.472V5.176L69.523 5Zm4.848 3.568-3.104 3.728L74.723 17h-1.76l-3.344-4.608 3.104-3.824h1.648Zm5.724-.192c.96 0 1.722.39 2.288 1.168.565.768.848 1.845.848 3.232 0 .875-.134 1.648-.4 2.32-.267.661-.65 1.179-1.152 1.552-.502.363-1.088.544-1.76.544-.886 0-1.632-.373-2.24-1.12l-.144.928h-1.296V5.176L77.71 5v4.624c.608-.832 1.402-1.248 2.384-1.248Zm-.528 7.648c.65 0 1.157-.261 1.52-.784.373-.533.56-1.355.56-2.464 0-1.141-.17-1.963-.512-2.464-.342-.512-.827-.768-1.456-.768-.747 0-1.403.437-1.968 1.312v4.032c.224.352.496.63.816.832.33.203.677.304 1.04.304Zm9.34-7.648c1.184 0 2.101.395 2.752 1.184.661.79.992 1.861.992 3.216 0 .875-.15 1.648-.448 2.32-.299.661-.73 1.179-1.296 1.552-.566.363-1.238.544-2.016.544-1.184 0-2.107-.395-2.768-1.184-.662-.79-.992-1.861-.992-3.216 0-.875.15-1.643.448-2.304.298-.672.73-1.19 1.296-1.552.565-.373 1.242-.56 2.032-.56Zm0 1.184c-1.462 0-2.192 1.077-2.192 3.232 0 2.144.725 3.216 2.176 3.216 1.45 0 2.176-1.077 2.176-3.232 0-2.144-.72-3.216-2.16-3.216Zm9.267 2.928L101.102 17h-1.776l-2.064-3.568L95.166 17h-1.664l2.944-4.448-2.608-3.984h1.728l1.76 3.088 1.776-3.088h1.664l-2.592 3.92Zm10.448 4.704c-.544 0-.976-.16-1.296-.48-.309-.33-.464-.79-.464-1.376V5.176L108.334 5v10.304c0 .235.037.405.112.512.085.107.224.16.416.16.203 0 .384-.032.544-.096l.384 1.024a2.398 2.398 0 0 1-1.168.288Zm8.609-2.16c0 .341.059.597.176.768.118.16.294.283.528.368l-.336 1.024c-.437-.053-.789-.176-1.056-.368-.266-.192-.464-.49-.592-.896-.565.843-1.402 1.264-2.512 1.264-.832 0-1.488-.235-1.968-.704-.48-.47-.72-1.083-.72-1.84 0-.896.32-1.584.96-2.064.651-.48 1.568-.72 2.752-.72h1.296v-.624c0-.597-.144-1.024-.432-1.28-.288-.256-.73-.384-1.328-.384-.618 0-1.376.15-2.272.448l-.368-1.072c1.046-.384 2.016-.576 2.912-.576.992 0 1.734.245 2.224.736.491.48.736 1.168.736 2.064v3.856Zm-3.456 1.056c.843 0 1.504-.437 1.984-1.312V12.84h-1.104c-1.557 0-2.336.576-2.336 1.728 0 .501.123.88.368 1.136.246.256.608.384 1.088.384Zm10.335-7.712c.96 0 1.723.39 2.288 1.168.566.768.848 1.845.848 3.232 0 .875-.133 1.648-.4 2.32-.266.661-.65 1.179-1.152 1.552-.501.363-1.088.544-1.76.544-.885 0-1.632-.373-2.24-1.12l-.144.928h-1.296V5.176L121.726 5v4.624c.608-.832 1.403-1.248 2.384-1.248Zm-.528 7.648c.651 0 1.158-.261 1.52-.784.374-.533.56-1.355.56-2.464 0-1.141-.17-1.963-.512-2.464-.341-.512-.826-.768-1.456-.768-.746 0-1.402.437-1.968 1.312v4.032c.224.352.496.63.816.832.331.203.678.304 1.04.304Zm12.54-3.488c0 .245-.01.496-.032.752h-5.376c.064.928.299 1.61.704 2.048.406.437.928.656 1.568.656.406 0 .779-.059 1.12-.176a4.496 4.496 0 0 0 1.072-.56l.64.88c-.896.704-1.877 1.056-2.944 1.056-1.173 0-2.09-.384-2.752-1.152-.65-.768-.976-1.824-.976-3.168 0-.875.139-1.648.416-2.32.288-.683.694-1.216 1.216-1.6.534-.384 1.158-.576 1.872-.576 1.12 0 1.979.368 2.576 1.104.598.736.896 1.755.896 3.056Zm-1.456-.432c0-.832-.165-1.467-.496-1.904-.33-.437-.826-.656-1.488-.656-1.205 0-1.861.885-1.968 2.656h3.952v-.096Zm5.487 5.088c-.544 0-.976-.16-1.296-.48-.309-.33-.464-.79-.464-1.376V5.176L139.865 5v10.304c0 .235.037.405.112.512.085.107.224.16.416.16.203 0 .384-.032.544-.096l.384 1.024a2.398 2.398 0 0 1-1.168.288Z" fill="#1C1C1C"/></svg>