<svg width="960" height="540" viewBox="0 0 960 540" fill="none" xmlns="http://www.w3.org/2000/svg">
 <g fill="var(--component-illustration-background-color, white)">
    <rect width="960" height="540"/>
    <rect width="960" height="540"/>
  </g>
  <g fill="var(--component-illustration-grid-color, #eee)">
    <rect width="2" height="540" transform="translate(69)"/>
    <rect width="2" height="540" transform="translate(151)"/>
    <rect width="2" height="540" transform="translate(233)"/>
    <rect width="2" height="540" transform="translate(315)"/>
    <rect width="2" height="540" transform="translate(397)"/>
    <rect width="2" height="540" transform="translate(479)"/>
    <rect width="2" height="540" transform="translate(561)"/>
    <rect width="2" height="540" transform="translate(643)"/>
    <rect width="2" height="540" transform="translate(725)"/>
    <rect width="2" height="540" transform="translate(807)"/>
    <rect width="2" height="540" transform="translate(889)"/>
    <rect width="960" height="2" transform="translate(0 64)"/>
    <rect width="960" height="2" transform="translate(0 146)"/>
    <rect width="960" height="2" transform="translate(0 228)"/>
    <rect width="960" height="2" transform="translate(0 310)"/>
    <rect width="960" height="2" transform="translate(0 392)"/>
    <rect width="960" height="2" transform="translate(0 474)"/>
  </g>
  <mask id="path-1-inside-1_1120_2564" fill="var(--component-illustration-background-color, white)">
    <path d="M151 145H809V272H151V145Z"/>
  </mask>
  <path d="M151 149H809V141H151V149ZM809 268H151V276H809V268Z" fill="var(--component-illustration-color, #666)" mask="url(#path-1-inside-1_1120_2564)"/>
  <g fill="var(--component-illustration-color, #666)">
    <rect x="151" y="179" width="136" height="16" rx="8"/>
    <rect x="479" y="179" width="330" height="16" rx="8"/>
    <rect x="479" y="220" width="128" height="16" rx="8"/>
  </g>
  <mask id="path-6-inside-2_1120_2564" fill="var(--component-illustration-background-color, white)">
    <path d="M151 268H809V395H151V268Z"/>
  </mask>
  <path d="M151 272H809V264H151V272ZM809 391H151V399H809V391Z" fill="var(--component-illustration-color, #666)" mask="url(#path-6-inside-2_1120_2564)"/>
  <g fill="var(--component-illustration-color, #666)">
    <rect x="151" y="302" width="212" height="16" rx="8"/>
    <rect x="479" y="302" width="330" height="16" rx="8"/>
    <rect x="479" y="343" width="211" height="16" rx="8"/>
  </g>
</svg>
