<svg width="960" height="540" viewBox="0 0 960 540" fill="none" xmlns="http://www.w3.org/2000/svg">
<g clip-path="url(#clip0_1223_2572)">
<rect width="960" height="540" fill="#F9F6F3"/>
<g clip-path="url(#clip1_1223_2572)">
<rect width="960" height="540" fill="#F9F6F3"/>
<rect width="2" height="540" transform="translate(69)" fill="#E4EBED"/>
<rect width="2" height="540" transform="translate(151)" fill="#E4EBED"/>
<rect width="2" height="540" transform="translate(233)" fill="#E4EBED"/>
<rect width="2" height="540" transform="translate(315)" fill="#E4EBED"/>
<rect width="2" height="540" transform="translate(397)" fill="#E4EBED"/>
<rect width="2" height="540" transform="translate(479)" fill="#E4EBED"/>
<rect width="2" height="540" transform="translate(561)" fill="#E4EBED"/>
<rect width="2" height="540" transform="translate(643)" fill="#E4EBED"/>
<rect width="2" height="540" transform="translate(725)" fill="#E4EBED"/>
<rect width="2" height="540" transform="translate(807)" fill="#E4EBED"/>
<rect width="2" height="540" transform="translate(889)" fill="#E4EBED"/>
<rect width="960" height="2" transform="translate(0 64)" fill="#E4EBED"/>
<rect width="960" height="2" transform="translate(0 146)" fill="#E4EBED"/>
<rect width="960" height="2" transform="translate(0 228)" fill="#E4EBED"/>
<rect width="960" height="2" transform="translate(0 310)" fill="#E4EBED"/>
<rect width="960" height="2" transform="translate(0 392)" fill="#E4EBED"/>
<rect width="960" height="2" transform="translate(0 474)" fill="#E4EBED"/>
</g>
<rect x="233" y="213" width="122" height="16" rx="8" fill="#004152"/>
<rect x="233" y="323" width="494" height="16" rx="8" fill="#004152"/>
<rect x="233" y="364" width="494" height="16" rx="8" fill="#004152"/>
<rect x="233" y="405" width="330" height="16" rx="8" fill="#004152"/>
<rect x="233" y="119" width="374" height="40" rx="20" fill="#004152"/>
<rect x="233" y="253" width="240" height="24" rx="12" fill="#004152"/>
<path d="M130 222L207.449 222M208 221C201.403 219.343 195.769 215 189 215M207.343 221.943C202.95 222.744 199.408 225.095 195.295 226.456C193.139 227.169 190.956 228.001 189.27 229.435" stroke="#004152" stroke-width="4" stroke-linecap="round" stroke-linejoin="round"/>
</g>
<defs>
<clipPath id="clip0_1223_2572">
<rect width="960" height="540" fill="white"/>
</clipPath>
<clipPath id="clip1_1223_2572">
<rect width="960" height="540" fill="white"/>
</clipPath>
</defs>
</svg>
