<svg fill="none" height="540" viewBox="0 0 960 540" width="960" xmlns="http://www.w3.org/2000/svg" xmlns:xlink="http://www.w3.org/1999/xlink"><clipPath id="a"><path d="m0 0h960v540h-960z"/></clipPath><clipPath id="b"><path d="m0 0h960v540h-960z"/></clipPath><clipPath id="c"><path d="m355 162h16v16h-16z"/></clipPath><clipPath id="d"><path d="m394 162h16v16h-16z"/></clipPath><clipPath id="e"><path d="m433 162h16v16h-16z"/></clipPath><clipPath id="f"><path d="m472 162h16v16h-16z"/></clipPath><clipPath id="g"><path d="m511 162h16v16h-16z"/></clipPath><clipPath id="h"><path d="m550 162h16v16h-16z"/></clipPath><clipPath id="i"><path d="m589 162h16v16h-16z"/></clipPath><clipPath id="j"><path d="m355 202h16v16h-16z"/></clipPath><clipPath id="k"><path d="m394 202h16v16h-16z"/></clipPath><clipPath id="l"><path d="m433 202h16v16h-16z"/></clipPath><clipPath id="m"><path d="m472 202h16v16h-16z"/></clipPath><clipPath id="n"><path d="m511 202h16v16h-16z"/></clipPath><clipPath id="o"><path d="m550 202h16v16h-16z"/></clipPath><clipPath id="p"><path d="m589 202h16v16h-16z"/></clipPath><clipPath id="q"><path d="m355 242h16v16h-16z"/></clipPath><clipPath id="r"><path d="m394 242h16v16h-16z"/></clipPath><clipPath id="s"><path d="m433 242h16v16h-16z"/></clipPath><clipPath id="t"><path d="m472 242h16v16h-16z"/></clipPath><clipPath id="u"><path d="m511 242h16v16h-16z"/></clipPath><clipPath id="v"><path d="m550 242h16v16h-16z"/></clipPath><clipPath id="w"><path d="m589 242h16v16h-16z"/></clipPath><clipPath id="x"><path d="m355 282h16v16h-16z"/></clipPath><clipPath id="y"><path d="m394 282h16v16h-16z"/></clipPath><clipPath id="z"><path d="m433 282h16v16h-16z"/></clipPath><clipPath id="A"><path d="m472 282h16v16h-16z"/></clipPath><clipPath id="B"><path d="m511 282h16v16h-16z"/></clipPath><clipPath id="C"><path d="m550 282h16v16h-16z"/></clipPath><clipPath id="D"><path d="m589 282h16v16h-16z"/></clipPath><clipPath id="E"><path d="m355 322h16v16h-16z"/></clipPath><clipPath id="F"><path d="m394 322h16v16h-16z"/></clipPath><clipPath id="G"><path d="m433 322h16v16h-16z"/></clipPath><clipPath id="H"><path d="m472 322h16v16h-16z"/></clipPath><clipPath id="I"><path d="m511 322h16v16h-16z"/></clipPath><clipPath id="J"><path d="m550 322h16v16h-16z"/></clipPath><clipPath id="K"><path d="m589 322h16v16h-16z"/></clipPath><clipPath id="L"><path d="m355 362h16v16h-16z"/></clipPath><clipPath id="M"><path d="m394 362h16v16h-16z"/></clipPath><clipPath id="N"><path d="m433 362h16v16h-16z"/></clipPath><clipPath id="O"><path d="m472 362h16v16h-16z"/></clipPath><clipPath id="P"><path d="m511 362h16v16h-16z"/></clipPath><clipPath id="Q"><path d="m550 362h16v16h-16z"/></clipPath><clipPath id="R"><path d="m589 362h16v16h-16z"/></clipPath><clipPath id="S"><rect height="48" rx="24" width="48" x="495" y="226"/></clipPath><g clip-path="url(#a)"><path d="m0 0h960v540h-960z" fill="#f9f6f3"/><g clip-path="url(#b)"><path d="m0 0h960v540h-960z" fill="#f9f6f3"/><g fill="#e4ebed"><path d="m0 0h2v540h-2z" transform="translate(69)"/><path d="m0 0h2v540h-2z" transform="translate(151)"/><path d="m0 0h2v540h-2z" transform="translate(233)"/><path d="m0 0h2v540h-2z" transform="translate(315)"/><path d="m0 0h2v540h-2z" transform="translate(397)"/><path d="m0 0h2v540h-2z" transform="translate(479)"/><path d="m0 0h2v540h-2z" transform="translate(561)"/><path d="m0 0h2v540h-2z" transform="translate(643)"/><path d="m0 0h2v540h-2z" transform="translate(725)"/><path d="m0 0h2v540h-2z" transform="translate(807)"/><path d="m0 0h2v540h-2z" transform="translate(889)"/><path d="m0 0h960v2h-960z" transform="translate(0 64)"/><path d="m0 0h960v2h-960z" transform="translate(0 146)"/><path d="m0 0h960v2h-960z" transform="translate(0 228)"/><path d="m0 0h960v2h-960z" transform="translate(0 310)"/><path d="m0 0h960v2h-960z" transform="translate(0 392)"/><path d="m0 0h960v2h-960z" transform="translate(0 474)"/></g></g><path d="m317 116h326v308h-326z" fill="#f9f6f3"/><path d="m317 116h326v308h-326z" stroke="#004152" stroke-width="4"/><g clip-path="url(#c)"><path d="m355 162h16v16h-16z" fill="#f9f6f3"/></g><g clip-path="url(#d)"><path d="m394 162h16v16h-16z" fill="#004152"/></g><g clip-path="url(#e)"><path d="m433 162h16v16h-16z" fill="#004152"/></g><g clip-path="url(#f)"><path d="m472 162h16v16h-16z" fill="#004152"/></g><g clip-path="url(#g)"><path d="m511 162h16v16h-16z" fill="#004152"/></g><g clip-path="url(#h)"><path d="m550 162h16v16h-16z" fill="#004152"/></g><g clip-path="url(#i)"><path d="m589 162h16v16h-16z" fill="#004152"/></g><g clip-path="url(#j)"><path d="m355 202h16v16h-16z" fill="#004152"/></g><g clip-path="url(#k)"><path d="m394 202h16v16h-16z" fill="#004152"/></g><g clip-path="url(#l)"><path d="m433 202h16v16h-16z" fill="#004152"/></g><g clip-path="url(#m)"><path d="m472 202h16v16h-16z" fill="#004152"/></g><g clip-path="url(#n)"><path d="m511 202h16v16h-16z" fill="#004152"/></g><g clip-path="url(#o)"><path d="m550 202h16v16h-16z" fill="#004152"/></g><g clip-path="url(#p)"><path d="m589 202h16v16h-16z" fill="#004152"/></g><g clip-path="url(#q)"><path d="m355 242h16v16h-16z" fill="#004152"/></g><g clip-path="url(#r)"><path d="m394 242h16v16h-16z" fill="#004152"/></g><g clip-path="url(#s)"><path d="m433 242h16v16h-16z" fill="#004152"/></g><g clip-path="url(#t)"><path d="m472 242h16v16h-16z" fill="#004152"/></g><g clip-path="url(#u)"><path d="m511 242h16v16h-16z" fill="#004152"/></g><g clip-path="url(#v)"><path d="m550 242h16v16h-16z" fill="#004152"/></g><g clip-path="url(#w)"><path d="m589 242h16v16h-16z" fill="#004152"/></g><g clip-path="url(#x)"><path d="m355 282h16v16h-16z" fill="#004152"/></g><g clip-path="url(#y)"><path d="m394 282h16v16h-16z" fill="#004152"/></g><g clip-path="url(#z)"><path d="m433 282h16v16h-16z" fill="#004152"/></g><g clip-path="url(#A)"><path d="m472 282h16v16h-16z" fill="#004152"/></g><g clip-path="url(#B)"><path d="m511 282h16v16h-16z" fill="#004152"/></g><g clip-path="url(#C)"><path d="m550 282h16v16h-16z" fill="#004152"/></g><g clip-path="url(#D)"><path d="m589 282h16v16h-16z" fill="#004152"/></g><g clip-path="url(#E)"><path d="m355 322h16v16h-16z" fill="#004152"/></g><g clip-path="url(#F)"><path d="m394 322h16v16h-16z" fill="#004152"/></g><g clip-path="url(#G)"><path d="m433 322h16v16h-16z" fill="#004152"/></g><g clip-path="url(#H)"><path d="m472 322h16v16h-16z" fill="#004152"/></g><g clip-path="url(#I)"><path d="m511 322h16v16h-16z" fill="#004152"/></g><g clip-path="url(#J)"><path d="m550 322h16v16h-16z" fill="#004152"/></g><g clip-path="url(#K)"><path d="m589 322h16v16h-16z" fill="#004152"/></g><g clip-path="url(#L)"><path d="m355 362h16v16h-16z" fill="#004152"/></g><g clip-path="url(#M)"><path d="m394 362h16v16h-16z" fill="#004152"/></g><g clip-path="url(#N)"><path d="m433 362h16v16h-16z" fill="#004152"/></g><g clip-path="url(#O)"><path d="m472 362h16v16h-16z" fill="#004152"/></g><g clip-path="url(#P)"><path d="m511 362h16v16h-16z" fill="#f9f6f3"/></g><g clip-path="url(#Q)"><path d="m550 362h16v16h-16z" fill="#f9f6f3"/></g><g clip-path="url(#R)"><path d="m589 362h16v16h-16z" fill="#f9f6f3"/></g><g clip-path="url(#S)"><circle cx="519" cy="250" r="22" stroke="#004152" stroke-width="4"/></g></g></svg>