<svg width="960" height="540" viewBox="0 0 960 540" fill="none" xmlns="http://www.w3.org/2000/svg">
<g clip-path="url(#clip0_1223_2661)">
<rect width="960" height="540" fill="#F9F6F3"/>
<g clip-path="url(#clip1_1223_2661)">
<rect width="960" height="540" fill="#F9F6F3"/>
<rect width="2" height="540" transform="translate(69)" fill="#E4EBED"/>
<rect width="2" height="540" transform="translate(151)" fill="#E4EBED"/>
<rect width="2" height="540" transform="translate(233)" fill="#E4EBED"/>
<rect width="2" height="540" transform="translate(315)" fill="#E4EBED"/>
<rect width="2" height="540" transform="translate(397)" fill="#E4EBED"/>
<rect width="2" height="540" transform="translate(479)" fill="#E4EBED"/>
<rect width="2" height="540" transform="translate(561)" fill="#E4EBED"/>
<rect width="2" height="540" transform="translate(643)" fill="#E4EBED"/>
<rect width="2" height="540" transform="translate(725)" fill="#E4EBED"/>
<rect width="2" height="540" transform="translate(807)" fill="#E4EBED"/>
<rect width="2" height="540" transform="translate(889)" fill="#E4EBED"/>
<rect width="960" height="2" transform="translate(0 64)" fill="#E4EBED"/>
<rect width="960" height="2" transform="translate(0 146)" fill="#E4EBED"/>
<rect width="960" height="2" transform="translate(0 228)" fill="#E4EBED"/>
<rect width="960" height="2" transform="translate(0 310)" fill="#E4EBED"/>
<rect width="960" height="2" transform="translate(0 392)" fill="#E4EBED"/>
<rect width="960" height="2" transform="translate(0 474)" fill="#E4EBED"/>
</g>
<path fill-rule="evenodd" clip-rule="evenodd" d="M289.509 195.488C290.16 196.139 290.16 197.194 289.509 197.845L272.843 214.512C272.192 215.163 271.136 215.163 270.486 214.512L262.152 206.179C261.501 205.528 261.501 204.472 262.152 203.821C262.803 203.171 263.858 203.171 264.509 203.821L271.664 210.976L287.152 195.488C287.803 194.837 288.858 194.837 289.509 195.488Z" fill="#004152"/>
<rect x="311" y="197" width="323" height="16" rx="8" fill="#004152"/>
<g clip-path="url(#clip2_1223_2661)">
<circle cx="275" cy="270" r="8" fill="#004152"/>
</g>
<rect x="311" y="262" width="395" height="16" rx="8" fill="#004152"/>
<g clip-path="url(#clip3_1223_2661)">
<circle cx="275" cy="335" r="8" fill="#004152"/>
</g>
<rect x="311" y="327" width="298" height="16" rx="8" fill="#004152"/>
</g>
<defs>
<clipPath id="clip0_1223_2661">
<rect width="960" height="540" fill="white"/>
</clipPath>
<clipPath id="clip1_1223_2661">
<rect width="960" height="540" fill="white"/>
</clipPath>
<clipPath id="clip2_1223_2661">
<rect x="267" y="262" width="16" height="16" rx="8" fill="white"/>
</clipPath>
<clipPath id="clip3_1223_2661">
<rect x="267" y="327" width="16" height="16" rx="8" fill="white"/>
</clipPath>
</defs>
</svg>
