<svg width="625" height="24" fill="none" xmlns="http://www.w3.org/2000/svg"><path fill="#fff" d="M0 0h625v24H0z"/><path fill="#fff" d="M0 0h133v24H0z"/><rect width="109" height="24" rx="2" fill="#fff"/><path d="M8.496 5.976c1.365 0 2.421.288 3.168.864.747.565 1.12 1.413 1.12 2.544 0 1.205-.39 2.101-1.168 2.688-.779.587-1.813.88-3.104.88H7.12V17H5.6V5.976h2.896Zm-.048 5.776c.885 0 1.557-.17 2.016-.512.47-.341.704-.955.704-1.84 0-.79-.235-1.36-.704-1.712-.459-.352-1.12-.528-1.984-.528H7.12v4.592h1.328Zm9.72-3.376c.299 0 .576.032.832.096l-.272 1.44a3.034 3.034 0 0 0-.736-.096c-.522 0-.944.192-1.264.576-.32.384-.57.981-.752 1.792V17h-1.472V8.568h1.264l.144 1.712c.224-.63.528-1.104.912-1.424.384-.32.832-.48 1.344-.48Zm8.392 4.16c0 .245-.01.496-.032.752h-5.376c.064.928.299 1.61.704 2.048.405.437.928.656 1.568.656.405 0 .779-.059 1.12-.176a4.517 4.517 0 0 0 1.072-.56l.64.88c-.896.704-1.878 1.056-2.944 1.056-1.174 0-2.09-.384-2.752-1.152-.65-.768-.976-1.824-.976-3.168 0-.875.139-1.648.416-2.32.288-.683.693-1.216 1.216-1.6.533-.384 1.157-.576 1.872-.576 1.12 0 1.979.368 2.576 1.104.597.736.896 1.755.896 3.056Zm-1.456-.432c0-.832-.165-1.467-.496-1.904-.33-.437-.827-.656-1.488-.656-1.206 0-1.861.885-1.968 2.656h3.952v-.096Zm9.936-3.536L32.176 17H30.4l-2.912-8.432h1.6l2.208 7.12 2.192-7.12h1.552Zm3.155 0V17h-1.472V8.568h1.472Zm-.752-4.048c.31 0 .56.096.752.288a.977.977 0 0 1 .288.72.977.977 0 0 1-.288.72c-.192.181-.443.272-.752.272-.298 0-.544-.09-.736-.272a.977.977 0 0 1-.288-.72c0-.288.096-.528.288-.72a.997.997 0 0 1 .736-.288Zm6.964 3.856c1.184 0 2.101.395 2.752 1.184.661.79.992 1.861.992 3.216 0 .875-.15 1.648-.448 2.32-.299.661-.73 1.179-1.296 1.552-.566.363-1.238.544-2.016.544-1.184 0-2.107-.395-2.768-1.184-.662-.79-.992-1.861-.992-3.216 0-.875.15-1.643.448-2.304.298-.672.73-1.19 1.296-1.552.565-.373 1.242-.56 2.032-.56Zm0 1.184c-1.462 0-2.192 1.077-2.192 3.232 0 2.144.725 3.216 2.176 3.216 1.45 0 2.176-1.077 2.176-3.232 0-2.144-.72-3.216-2.16-3.216ZM56.855 17H55.59l-.113-1.312c-.32.523-.688.907-1.104 1.152-.416.235-.922.352-1.52.352-.736 0-1.312-.224-1.727-.672-.416-.448-.625-1.083-.625-1.904V8.568h1.472v5.888c0 .576.102.987.305 1.232.202.235.533.352.991.352.822 0 1.526-.485 2.112-1.456V8.568h1.473V17Zm5.328-8.624c.576 0 1.093.08 1.552.24.459.16.896.4 1.312.72l-.624.928a5.022 5.022 0 0 0-1.104-.544 3.324 3.324 0 0 0-1.088-.176c-.48 0-.859.101-1.136.304a.92.92 0 0 0-.416.8c0 .341.128.608.384.8.267.192.741.379 1.424.56.939.235 1.637.555 2.096.96.47.405.704.96.704 1.664 0 .832-.325 1.467-.976 1.904-.64.437-1.424.656-2.352.656-1.28 0-2.341-.368-3.184-1.104l.784-.896c.715.544 1.504.816 2.368.816.555 0 .992-.112 1.312-.336.33-.235.496-.55.496-.944 0-.288-.059-.517-.176-.688-.117-.181-.32-.336-.608-.464-.288-.139-.71-.283-1.264-.432-.896-.235-1.547-.55-1.952-.944-.395-.395-.592-.896-.592-1.504 0-.437.128-.832.384-1.184.267-.363.63-.64 1.088-.832.47-.203.992-.304 1.568-.304Zm13.287 0c1.078 0 1.867.384 2.368 1.152.502.768.752 1.85.752 3.248 0 1.323-.288 2.39-.864 3.2-.576.81-1.392 1.216-2.448 1.216-.939 0-1.675-.32-2.208-.96v4l-1.472.176V8.568h1.264l.112 1.136a3.15 3.15 0 0 1 1.12-.976 2.87 2.87 0 0 1 1.376-.352Zm-.544 7.616c1.387 0 2.08-1.072 2.08-3.216 0-2.155-.635-3.232-1.904-3.232-.416 0-.794.123-1.136.368-.341.245-.64.56-.896.944v4.112c.214.33.48.587.8.768.32.17.672.256 1.056.256Zm11.696-.96c0 .341.058.597.176.768.117.16.293.283.528.368l-.336 1.024c-.438-.053-.79-.176-1.056-.368-.267-.192-.464-.49-.592-.896-.566.843-1.403 1.264-2.512 1.264-.832 0-1.488-.235-1.968-.704-.48-.47-.72-1.083-.72-1.84 0-.896.32-1.584.96-2.064.65-.48 1.568-.72 2.752-.72h1.296v-.624c0-.597-.144-1.024-.432-1.28-.288-.256-.73-.384-1.328-.384-.619 0-1.376.15-2.272.448l-.368-1.072c1.045-.384 2.016-.576 2.912-.576.992 0 1.733.245 2.224.736.49.48.736 1.168.736 2.064v3.856Zm-3.456 1.056c.843 0 1.504-.437 1.984-1.312V12.84h-1.104c-1.558 0-2.336.576-2.336 1.728 0 .501.123.88.368 1.136.245.256.608.384 1.088.384Zm13.123-7.136a4.52 4.52 0 0 1-1.056.208 17.37 17.37 0 0 1-1.408.048c.992.448 1.488 1.157 1.488 2.128 0 .843-.288 1.53-.864 2.064-.576.533-1.36.8-2.352.8-.384 0-.742-.053-1.072-.16a.892.892 0 0 0-.304.352.9.9 0 0 0-.112.432c0 .459.368.688 1.104.688h1.344c.565 0 1.066.101 1.504.304.437.203.773.48 1.008.832.245.352.368.752.368 1.2 0 .821-.336 1.45-1.008 1.888-.672.448-1.654.672-2.944.672-.907 0-1.627-.096-2.16-.288-.523-.181-.896-.459-1.12-.832-.224-.373-.336-.853-.336-1.44h1.328c0 .341.064.608.192.8.128.203.357.352.688.448.33.107.8.16 1.408.16.885 0 1.514-.112 1.888-.336.384-.213.576-.539.576-.976 0-.395-.15-.693-.448-.896-.299-.203-.715-.304-1.248-.304h-1.328c-.715 0-1.259-.15-1.632-.448-.363-.31-.544-.693-.544-1.152 0-.277.08-.544.24-.8.16-.256.39-.485.688-.688-.49-.256-.854-.57-1.088-.944-.224-.384-.336-.848-.336-1.392 0-.565.138-1.072.416-1.52a2.903 2.903 0 0 1 1.168-1.04A3.605 3.605 0 0 1 92 8.376c.661.01 1.216-.01 1.664-.064a6.468 6.468 0 0 0 1.104-.24c.298-.107.661-.256 1.088-.448l.432 1.328ZM92 9.432c-.555 0-.987.176-1.296.528-.299.341-.448.795-.448 1.36 0 .576.154 1.04.464 1.392.31.341.746.512 1.312.512.576 0 1.013-.165 1.312-.496.31-.341.464-.816.464-1.424 0-1.248-.603-1.872-1.808-1.872Zm11.918 3.104c0 .245-.01.496-.032.752h-5.376c.064.928.299 1.61.704 2.048.406.437.928.656 1.568.656.406 0 .779-.059 1.12-.176a4.496 4.496 0 0 0 1.072-.56l.64.88c-.896.704-1.877 1.056-2.944 1.056-1.173 0-2.09-.384-2.752-1.152-.65-.768-.976-1.824-.976-3.168 0-.875.139-1.648.416-2.32.288-.683.694-1.216 1.216-1.6.534-.384 1.158-.576 1.872-.576 1.12 0 1.979.368 2.576 1.104.598.736.896 1.755.896 3.056Zm-1.456-.432c0-.832-.165-1.467-.496-1.904-.33-.437-.826-.656-1.488-.656-1.205 0-1.861.885-1.968 2.656h3.952v-.096Z" fill="#005F89"/><path d="M4 18.6h100.751v.8H4v-.8Z" fill="#005F89"/><path fill-rule="evenodd" clip-rule="evenodd" d="M121.707 6.626a1 1 0 1 0-1.414 1.414l2.959 2.96h-6.919a1 1 0 0 0 0 2h6.919l-2.959 2.96a1 1 0 1 0 1.414 1.414l4.666-4.666h.001m.217-1.09a.998.998 0 0 0-.217-.325l-4.667-4.667m4.884 4.991c.048.117.075.245.076.38Zm.076.386v-.006m0 .006a.998.998 0 0 1-.291.702Z" fill="#3F3F3F"/><path fill="#fff" d="M133 0h133v24H133z"/><rect x="133" width="109" height="24" rx="2" fill="#fff"/><path d="M141.496 5.976c1.365 0 2.421.288 3.168.864.747.565 1.12 1.413 1.12 2.544 0 1.205-.389 2.101-1.168 2.688-.779.587-1.813.88-3.104.88h-1.392V17h-1.52V5.976h2.896Zm-.048 5.776c.885 0 1.557-.17 2.016-.512.469-.341.704-.955.704-1.84 0-.79-.235-1.36-.704-1.712-.459-.352-1.12-.528-1.984-.528h-1.36v4.592h1.328Zm9.72-3.376c.299 0 .576.032.832.096l-.272 1.44a3.032 3.032 0 0 0-.736-.096c-.522 0-.944.192-1.264.576-.32.384-.57.981-.752 1.792V17h-1.472V8.568h1.264l.144 1.712c.224-.63.528-1.104.912-1.424.384-.32.832-.48 1.344-.48Zm8.392 4.16c0 .245-.011.496-.032.752h-5.376c.064.928.299 1.61.704 2.048.405.437.928.656 1.568.656.405 0 .779-.059 1.12-.176a4.515 4.515 0 0 0 1.072-.56l.64.88c-.896.704-1.877 1.056-2.944 1.056-1.173 0-2.091-.384-2.752-1.152-.651-.768-.976-1.824-.976-3.168 0-.875.139-1.648.416-2.32.288-.683.693-1.216 1.216-1.6.533-.384 1.157-.576 1.872-.576 1.12 0 1.979.368 2.576 1.104.597.736.896 1.755.896 3.056Zm-1.456-.432c0-.832-.165-1.467-.496-1.904-.331-.437-.827-.656-1.488-.656-1.205 0-1.861.885-1.968 2.656h3.952v-.096Zm9.936-3.536L165.176 17H163.4l-2.912-8.432h1.6l2.208 7.12 2.192-7.12h1.552Zm3.155 0V17h-1.472V8.568h1.472Zm-.752-4.048c.309 0 .56.096.752.288a.977.977 0 0 1 .288.72.977.977 0 0 1-.288.72c-.192.181-.443.272-.752.272-.299 0-.544-.09-.736-.272a.977.977 0 0 1-.288-.72c0-.288.096-.528.288-.72a.996.996 0 0 1 .736-.288Zm6.964 3.856c1.184 0 2.101.395 2.752 1.184.661.79.992 1.861.992 3.216 0 .875-.15 1.648-.448 2.32-.299.661-.731 1.179-1.296 1.552-.566.363-1.238.544-2.016.544-1.184 0-2.107-.395-2.768-1.184-.662-.79-.992-1.861-.992-3.216 0-.875.149-1.643.448-2.304.298-.672.73-1.19 1.296-1.552.565-.373 1.242-.56 2.032-.56Zm0 1.184c-1.462 0-2.192 1.077-2.192 3.232 0 2.144.725 3.216 2.176 3.216 1.45 0 2.176-1.077 2.176-3.232 0-2.144-.72-3.216-2.16-3.216ZM189.855 17h-1.264l-.112-1.312c-.32.523-.688.907-1.104 1.152-.416.235-.923.352-1.52.352-.736 0-1.312-.224-1.728-.672-.416-.448-.624-1.083-.624-1.904V8.568h1.472v5.888c0 .576.101.987.304 1.232.202.235.533.352.992.352.821 0 1.525-.485 2.112-1.456V8.568h1.472V17Zm5.328-8.624c.576 0 1.093.08 1.552.24.459.16.896.4 1.312.72l-.624.928a5.022 5.022 0 0 0-1.104-.544 3.322 3.322 0 0 0-1.088-.176c-.48 0-.859.101-1.136.304a.92.92 0 0 0-.416.8c0 .341.128.608.384.8.267.192.741.379 1.424.56.939.235 1.637.555 2.096.96.469.405.704.96.704 1.664 0 .832-.325 1.467-.976 1.904-.64.437-1.424.656-2.352.656-1.28 0-2.341-.368-3.184-1.104l.784-.896c.715.544 1.504.816 2.368.816.555 0 .992-.112 1.312-.336a1.1 1.1 0 0 0 .496-.944c0-.288-.059-.517-.176-.688-.117-.181-.32-.336-.608-.464-.288-.139-.709-.283-1.264-.432-.896-.235-1.547-.55-1.952-.944-.395-.395-.592-.896-.592-1.504 0-.437.128-.832.384-1.184.267-.363.629-.64 1.088-.832a3.914 3.914 0 0 1 1.568-.304Zm13.287 0c1.077 0 1.867.384 2.368 1.152.501.768.752 1.85.752 3.248 0 1.323-.288 2.39-.864 3.2-.576.81-1.392 1.216-2.448 1.216-.939 0-1.675-.32-2.208-.96v4l-1.472.176V8.568h1.264l.112 1.136a3.149 3.149 0 0 1 1.12-.976 2.87 2.87 0 0 1 1.376-.352Zm-.544 7.616c1.387 0 2.08-1.072 2.08-3.216 0-2.155-.635-3.232-1.904-3.232-.416 0-.795.123-1.136.368a3.62 3.62 0 0 0-.896.944v4.112c.213.33.48.587.8.768.32.17.672.256 1.056.256Zm11.696-.96c0 .341.059.597.176.768.117.16.293.283.528.368l-.336 1.024c-.437-.053-.789-.176-1.056-.368s-.464-.49-.592-.896c-.565.843-1.403 1.264-2.512 1.264-.832 0-1.488-.235-1.968-.704-.48-.47-.72-1.083-.72-1.84 0-.896.32-1.584.96-2.064.651-.48 1.568-.72 2.752-.72h1.296v-.624c0-.597-.144-1.024-.432-1.28-.288-.256-.731-.384-1.328-.384-.619 0-1.376.15-2.272.448l-.368-1.072c1.045-.384 2.016-.576 2.912-.576.992 0 1.733.245 2.224.736.491.48.736 1.168.736 2.064v3.856Zm-3.456 1.056c.843 0 1.504-.437 1.984-1.312V12.84h-1.104c-1.557 0-2.336.576-2.336 1.728 0 .501.123.88.368 1.136.245.256.608.384 1.088.384Zm13.123-7.136a4.52 4.52 0 0 1-1.056.208 17.38 17.38 0 0 1-1.408.048c.992.448 1.488 1.157 1.488 2.128 0 .843-.288 1.53-.864 2.064-.576.533-1.36.8-2.352.8a3.47 3.47 0 0 1-1.072-.16.887.887 0 0 0-.304.352.896.896 0 0 0-.112.432c0 .459.368.688 1.104.688h1.344c.565 0 1.066.101 1.504.304.437.203.773.48 1.008.832.245.352.368.752.368 1.2 0 .821-.336 1.45-1.008 1.888-.672.448-1.654.672-2.944.672-.907 0-1.627-.096-2.16-.288-.523-.181-.896-.459-1.12-.832-.224-.373-.336-.853-.336-1.44h1.328c0 .341.064.608.192.8.128.203.357.352.688.448.33.107.8.16 1.408.16.885 0 1.514-.112 1.888-.336.384-.213.576-.539.576-.976 0-.395-.15-.693-.448-.896-.299-.203-.715-.304-1.248-.304h-1.328c-.715 0-1.259-.15-1.632-.448-.363-.31-.544-.693-.544-1.152 0-.277.08-.544.24-.8.16-.256.389-.485.688-.688-.491-.256-.854-.57-1.088-.944-.224-.384-.336-.848-.336-1.392 0-.565.138-1.072.416-1.52a2.9 2.9 0 0 1 1.168-1.04 3.604 3.604 0 0 1 1.664-.384c.661.01 1.216-.01 1.664-.064a6.468 6.468 0 0 0 1.104-.24c.298-.107.661-.256 1.088-.448l.432 1.328Zm-4.288.48c-.555 0-.987.176-1.296.528-.299.341-.448.795-.448 1.36 0 .576.154 1.04.464 1.392.309.341.746.512 1.312.512.576 0 1.013-.165 1.312-.496.309-.341.464-.816.464-1.424 0-1.248-.603-1.872-1.808-1.872Zm11.918 3.104c0 .245-.01.496-.032.752h-5.376c.064.928.299 1.61.704 2.048.406.437.928.656 1.568.656.406 0 .779-.059 1.12-.176a4.496 4.496 0 0 0 1.072-.56l.64.88c-.896.704-1.877 1.056-2.944 1.056-1.173 0-2.09-.384-2.752-1.152-.65-.768-.976-1.824-.976-3.168 0-.875.139-1.648.416-2.32.288-.683.694-1.216 1.216-1.6.534-.384 1.158-.576 1.872-.576 1.12 0 1.979.368 2.576 1.104.598.736.896 1.755.896 3.056Zm-1.456-.432c0-.832-.165-1.467-.496-1.904-.33-.437-.826-.656-1.488-.656-1.205 0-1.861.885-1.968 2.656h3.952v-.096Z" fill="#005F89"/><path d="M137 18.6h100.751v.8H137v-.8Z" fill="#005F89"/><path fill-rule="evenodd" clip-rule="evenodd" d="M254.707 6.626a1 1 0 1 0-1.414 1.414l2.959 2.96h-6.919a1 1 0 0 0 0 2h6.919l-2.959 2.96a1 1 0 1 0 1.414 1.414l4.666-4.666h.001m.217-1.09a.998.998 0 0 0-.217-.325l-4.667-4.667m4.884 4.991c.048.117.075.245.076.38Zm.076.386v-.006m0 .006a.998.998 0 0 1-.291.702Z" fill="#3F3F3F"/><path fill="#fff" d="M266 0h133v24H266z"/><rect x="266" width="109" height="24" rx="2" fill="#fff"/><path d="M274.496 5.976c1.365 0 2.421.288 3.168.864.747.565 1.12 1.413 1.12 2.544 0 1.205-.389 2.101-1.168 2.688-.779.587-1.813.88-3.104.88h-1.392V17h-1.52V5.976h2.896Zm-.048 5.776c.885 0 1.557-.17 2.016-.512.469-.341.704-.955.704-1.84 0-.79-.235-1.36-.704-1.712-.459-.352-1.12-.528-1.984-.528h-1.36v4.592h1.328Zm9.72-3.376c.299 0 .576.032.832.096l-.272 1.44a3.032 3.032 0 0 0-.736-.096c-.522 0-.944.192-1.264.576-.32.384-.57.981-.752 1.792V17h-1.472V8.568h1.264l.144 1.712c.224-.63.528-1.104.912-1.424.384-.32.832-.48 1.344-.48Zm8.392 4.16c0 .245-.011.496-.032.752h-5.376c.064.928.299 1.61.704 2.048.405.437.928.656 1.568.656.405 0 .779-.059 1.12-.176a4.515 4.515 0 0 0 1.072-.56l.64.88c-.896.704-1.877 1.056-2.944 1.056-1.173 0-2.091-.384-2.752-1.152-.651-.768-.976-1.824-.976-3.168 0-.875.139-1.648.416-2.32.288-.683.693-1.216 1.216-1.6.533-.384 1.157-.576 1.872-.576 1.12 0 1.979.368 2.576 1.104.597.736.896 1.755.896 3.056Zm-1.456-.432c0-.832-.165-1.467-.496-1.904-.331-.437-.827-.656-1.488-.656-1.205 0-1.861.885-1.968 2.656h3.952v-.096Zm9.936-3.536L298.176 17H296.4l-2.912-8.432h1.6l2.208 7.12 2.192-7.12h1.552Zm3.155 0V17h-1.472V8.568h1.472Zm-.752-4.048c.309 0 .56.096.752.288a.977.977 0 0 1 .288.72.977.977 0 0 1-.288.72c-.192.181-.443.272-.752.272-.299 0-.544-.09-.736-.272a.977.977 0 0 1-.288-.72c0-.288.096-.528.288-.72a.996.996 0 0 1 .736-.288Zm6.964 3.856c1.184 0 2.101.395 2.752 1.184.661.79.992 1.861.992 3.216 0 .875-.15 1.648-.448 2.32-.299.661-.731 1.179-1.296 1.552-.566.363-1.238.544-2.016.544-1.184 0-2.107-.395-2.768-1.184-.662-.79-.992-1.861-.992-3.216 0-.875.149-1.643.448-2.304.298-.672.73-1.19 1.296-1.552.565-.373 1.242-.56 2.032-.56Zm0 1.184c-1.462 0-2.192 1.077-2.192 3.232 0 2.144.725 3.216 2.176 3.216 1.45 0 2.176-1.077 2.176-3.232 0-2.144-.72-3.216-2.16-3.216ZM322.855 17h-1.264l-.112-1.312c-.32.523-.688.907-1.104 1.152-.416.235-.923.352-1.52.352-.736 0-1.312-.224-1.728-.672-.416-.448-.624-1.083-.624-1.904V8.568h1.472v5.888c0 .576.101.987.304 1.232.202.235.533.352.992.352.821 0 1.525-.485 2.112-1.456V8.568h1.472V17Zm5.328-8.624c.576 0 1.093.08 1.552.24.459.16.896.4 1.312.72l-.624.928a5.022 5.022 0 0 0-1.104-.544 3.322 3.322 0 0 0-1.088-.176c-.48 0-.859.101-1.136.304a.92.92 0 0 0-.416.8c0 .341.128.608.384.8.267.192.741.379 1.424.56.939.235 1.637.555 2.096.96.469.405.704.96.704 1.664 0 .832-.325 1.467-.976 1.904-.64.437-1.424.656-2.352.656-1.28 0-2.341-.368-3.184-1.104l.784-.896c.715.544 1.504.816 2.368.816.555 0 .992-.112 1.312-.336a1.1 1.1 0 0 0 .496-.944c0-.288-.059-.517-.176-.688-.117-.181-.32-.336-.608-.464-.288-.139-.709-.283-1.264-.432-.896-.235-1.547-.55-1.952-.944-.395-.395-.592-.896-.592-1.504 0-.437.128-.832.384-1.184.267-.363.629-.64 1.088-.832a3.914 3.914 0 0 1 1.568-.304Zm13.287 0c1.077 0 1.867.384 2.368 1.152.501.768.752 1.85.752 3.248 0 1.323-.288 2.39-.864 3.2-.576.81-1.392 1.216-2.448 1.216-.939 0-1.675-.32-2.208-.96v4l-1.472.176V8.568h1.264l.112 1.136a3.149 3.149 0 0 1 1.12-.976 2.87 2.87 0 0 1 1.376-.352Zm-.544 7.616c1.387 0 2.08-1.072 2.08-3.216 0-2.155-.635-3.232-1.904-3.232-.416 0-.795.123-1.136.368a3.62 3.62 0 0 0-.896.944v4.112c.213.33.48.587.8.768.32.17.672.256 1.056.256Zm11.696-.96c0 .341.059.597.176.768.117.16.293.283.528.368l-.336 1.024c-.437-.053-.789-.176-1.056-.368s-.464-.49-.592-.896c-.565.843-1.403 1.264-2.512 1.264-.832 0-1.488-.235-1.968-.704-.48-.47-.72-1.083-.72-1.84 0-.896.32-1.584.96-2.064.651-.48 1.568-.72 2.752-.72h1.296v-.624c0-.597-.144-1.024-.432-1.28-.288-.256-.731-.384-1.328-.384-.619 0-1.376.15-2.272.448l-.368-1.072c1.045-.384 2.016-.576 2.912-.576.992 0 1.733.245 2.224.736.491.48.736 1.168.736 2.064v3.856Zm-3.456 1.056c.843 0 1.504-.437 1.984-1.312V12.84h-1.104c-1.557 0-2.336.576-2.336 1.728 0 .501.123.88.368 1.136.245.256.608.384 1.088.384Zm13.123-7.136a4.52 4.52 0 0 1-1.056.208 17.38 17.38 0 0 1-1.408.048c.992.448 1.488 1.157 1.488 2.128 0 .843-.288 1.53-.864 2.064-.576.533-1.36.8-2.352.8a3.47 3.47 0 0 1-1.072-.16.887.887 0 0 0-.304.352.896.896 0 0 0-.112.432c0 .459.368.688 1.104.688h1.344c.565 0 1.066.101 1.504.304.437.203.773.48 1.008.832.245.352.368.752.368 1.2 0 .821-.336 1.45-1.008 1.888-.672.448-1.654.672-2.944.672-.907 0-1.627-.096-2.16-.288-.523-.181-.896-.459-1.12-.832-.224-.373-.336-.853-.336-1.44h1.328c0 .341.064.608.192.8.128.203.357.352.688.448.33.107.8.16 1.408.16.885 0 1.514-.112 1.888-.336.384-.213.576-.539.576-.976 0-.395-.15-.693-.448-.896-.299-.203-.715-.304-1.248-.304h-1.328c-.715 0-1.259-.15-1.632-.448-.363-.31-.544-.693-.544-1.152 0-.277.08-.544.24-.8.16-.256.389-.485.688-.688-.491-.256-.854-.57-1.088-.944-.224-.384-.336-.848-.336-1.392 0-.565.138-1.072.416-1.52a2.9 2.9 0 0 1 1.168-1.04 3.604 3.604 0 0 1 1.664-.384c.661.01 1.216-.01 1.664-.064a6.468 6.468 0 0 0 1.104-.24c.298-.107.661-.256 1.088-.448l.432 1.328Zm-4.288.48c-.555 0-.987.176-1.296.528-.299.341-.448.795-.448 1.36 0 .576.154 1.04.464 1.392.309.341.746.512 1.312.512.576 0 1.013-.165 1.312-.496.309-.341.464-.816.464-1.424 0-1.248-.603-1.872-1.808-1.872Zm11.918 3.104c0 .245-.01.496-.032.752h-5.376c.064.928.299 1.61.704 2.048.406.437.928.656 1.568.656.406 0 .779-.059 1.12-.176a4.496 4.496 0 0 0 1.072-.56l.64.88c-.896.704-1.877 1.056-2.944 1.056-1.173 0-2.09-.384-2.752-1.152-.65-.768-.976-1.824-.976-3.168 0-.875.139-1.648.416-2.32.288-.683.694-1.216 1.216-1.6.534-.384 1.158-.576 1.872-.576 1.12 0 1.979.368 2.576 1.104.598.736.896 1.755.896 3.056Zm-1.456-.432c0-.832-.165-1.467-.496-1.904-.33-.437-.826-.656-1.488-.656-1.205 0-1.861.885-1.968 2.656h3.952v-.096Z" fill="#005F89"/><path d="M270 18.6h100.751v.8H270v-.8Z" fill="#005F89"/><path fill-rule="evenodd" clip-rule="evenodd" d="M387.707 6.626a1 1 0 1 0-1.414 1.414l2.959 2.96h-6.919a1 1 0 0 0 0 2h6.919l-2.959 2.96a1 1 0 1 0 1.414 1.414l4.666-4.666h.001m.217-1.09a.998.998 0 0 0-.217-.325l-4.667-4.667m4.884 4.991c.048.117.075.245.076.38Zm.076.386v-.006m0 .006a.998.998 0 0 1-.291.702Z" fill="#3F3F3F"/><path fill="#fff" d="M399 0h133v24H399z"/><rect x="399" width="109" height="24" rx="2" fill="#fff"/><path d="M407.496 5.976c1.365 0 2.421.288 3.168.864.747.565 1.12 1.413 1.12 2.544 0 1.205-.389 2.101-1.168 2.688-.779.587-1.813.88-3.104.88h-1.392V17h-1.52V5.976h2.896Zm-.048 5.776c.885 0 1.557-.17 2.016-.512.469-.341.704-.955.704-1.84 0-.79-.235-1.36-.704-1.712-.459-.352-1.12-.528-1.984-.528h-1.36v4.592h1.328Zm9.72-3.376c.299 0 .576.032.832.096l-.272 1.44a3.032 3.032 0 0 0-.736-.096c-.522 0-.944.192-1.264.576-.32.384-.57.981-.752 1.792V17h-1.472V8.568h1.264l.144 1.712c.224-.63.528-1.104.912-1.424.384-.32.832-.48 1.344-.48Zm8.392 4.16c0 .245-.011.496-.032.752h-5.376c.064.928.299 1.61.704 2.048.405.437.928.656 1.568.656.405 0 .779-.059 1.12-.176a4.515 4.515 0 0 0 1.072-.56l.64.88c-.896.704-1.877 1.056-2.944 1.056-1.173 0-2.091-.384-2.752-1.152-.651-.768-.976-1.824-.976-3.168 0-.875.139-1.648.416-2.32.288-.683.693-1.216 1.216-1.6.533-.384 1.157-.576 1.872-.576 1.12 0 1.979.368 2.576 1.104.597.736.896 1.755.896 3.056Zm-1.456-.432c0-.832-.165-1.467-.496-1.904-.331-.437-.827-.656-1.488-.656-1.205 0-1.861.885-1.968 2.656h3.952v-.096Zm9.936-3.536L431.176 17H429.4l-2.912-8.432h1.6l2.208 7.12 2.192-7.12h1.552Zm3.155 0V17h-1.472V8.568h1.472Zm-.752-4.048c.309 0 .56.096.752.288a.977.977 0 0 1 .288.72.977.977 0 0 1-.288.72c-.192.181-.443.272-.752.272-.299 0-.544-.09-.736-.272a.977.977 0 0 1-.288-.72c0-.288.096-.528.288-.72a.996.996 0 0 1 .736-.288Zm6.964 3.856c1.184 0 2.101.395 2.752 1.184.661.79.992 1.861.992 3.216 0 .875-.15 1.648-.448 2.32-.299.661-.731 1.179-1.296 1.552-.566.363-1.238.544-2.016.544-1.184 0-2.107-.395-2.768-1.184-.662-.79-.992-1.861-.992-3.216 0-.875.149-1.643.448-2.304.298-.672.73-1.19 1.296-1.552.565-.373 1.242-.56 2.032-.56Zm0 1.184c-1.462 0-2.192 1.077-2.192 3.232 0 2.144.725 3.216 2.176 3.216 1.45 0 2.176-1.077 2.176-3.232 0-2.144-.72-3.216-2.16-3.216ZM455.855 17h-1.264l-.112-1.312c-.32.523-.688.907-1.104 1.152-.416.235-.923.352-1.52.352-.736 0-1.312-.224-1.728-.672-.416-.448-.624-1.083-.624-1.904V8.568h1.472v5.888c0 .576.101.987.304 1.232.202.235.533.352.992.352.821 0 1.525-.485 2.112-1.456V8.568h1.472V17Zm5.328-8.624c.576 0 1.093.08 1.552.24.459.16.896.4 1.312.72l-.624.928a5.022 5.022 0 0 0-1.104-.544 3.322 3.322 0 0 0-1.088-.176c-.48 0-.859.101-1.136.304a.92.92 0 0 0-.416.8c0 .341.128.608.384.8.267.192.741.379 1.424.56.939.235 1.637.555 2.096.96.469.405.704.96.704 1.664 0 .832-.325 1.467-.976 1.904-.64.437-1.424.656-2.352.656-1.28 0-2.341-.368-3.184-1.104l.784-.896c.715.544 1.504.816 2.368.816.555 0 .992-.112 1.312-.336a1.1 1.1 0 0 0 .496-.944c0-.288-.059-.517-.176-.688-.117-.181-.32-.336-.608-.464-.288-.139-.709-.283-1.264-.432-.896-.235-1.547-.55-1.952-.944-.395-.395-.592-.896-.592-1.504 0-.437.128-.832.384-1.184.267-.363.629-.64 1.088-.832a3.914 3.914 0 0 1 1.568-.304Zm13.287 0c1.077 0 1.867.384 2.368 1.152.501.768.752 1.85.752 3.248 0 1.323-.288 2.39-.864 3.2-.576.81-1.392 1.216-2.448 1.216-.939 0-1.675-.32-2.208-.96v4l-1.472.176V8.568h1.264l.112 1.136a3.149 3.149 0 0 1 1.12-.976 2.87 2.87 0 0 1 1.376-.352Zm-.544 7.616c1.387 0 2.08-1.072 2.08-3.216 0-2.155-.635-3.232-1.904-3.232-.416 0-.795.123-1.136.368a3.62 3.62 0 0 0-.896.944v4.112c.213.33.48.587.8.768.32.17.672.256 1.056.256Zm11.696-.96c0 .341.059.597.176.768.117.16.293.283.528.368l-.336 1.024c-.437-.053-.789-.176-1.056-.368s-.464-.49-.592-.896c-.565.843-1.403 1.264-2.512 1.264-.832 0-1.488-.235-1.968-.704-.48-.47-.72-1.083-.72-1.84 0-.896.32-1.584.96-2.064.651-.48 1.568-.72 2.752-.72h1.296v-.624c0-.597-.144-1.024-.432-1.28-.288-.256-.731-.384-1.328-.384-.619 0-1.376.15-2.272.448l-.368-1.072c1.045-.384 2.016-.576 2.912-.576.992 0 1.733.245 2.224.736.491.48.736 1.168.736 2.064v3.856Zm-3.456 1.056c.843 0 1.504-.437 1.984-1.312V12.84h-1.104c-1.557 0-2.336.576-2.336 1.728 0 .501.123.88.368 1.136.245.256.608.384 1.088.384Zm13.123-7.136a4.52 4.52 0 0 1-1.056.208 17.38 17.38 0 0 1-1.408.048c.992.448 1.488 1.157 1.488 2.128 0 .843-.288 1.53-.864 2.064-.576.533-1.36.8-2.352.8a3.47 3.47 0 0 1-1.072-.16.887.887 0 0 0-.304.352.896.896 0 0 0-.112.432c0 .459.368.688 1.104.688h1.344c.565 0 1.066.101 1.504.304.437.203.773.48 1.008.832.245.352.368.752.368 1.2 0 .821-.336 1.45-1.008 1.888-.672.448-1.654.672-2.944.672-.907 0-1.627-.096-2.16-.288-.523-.181-.896-.459-1.12-.832-.224-.373-.336-.853-.336-1.44h1.328c0 .341.064.608.192.8.128.203.357.352.688.448.33.107.8.16 1.408.16.885 0 1.514-.112 1.888-.336.384-.213.576-.539.576-.976 0-.395-.15-.693-.448-.896-.299-.203-.715-.304-1.248-.304h-1.328c-.715 0-1.259-.15-1.632-.448-.363-.31-.544-.693-.544-1.152 0-.277.08-.544.24-.8.16-.256.389-.485.688-.688-.491-.256-.854-.57-1.088-.944-.224-.384-.336-.848-.336-1.392 0-.565.138-1.072.416-1.52a2.9 2.9 0 0 1 1.168-1.04 3.604 3.604 0 0 1 1.664-.384c.661.01 1.216-.01 1.664-.064a6.468 6.468 0 0 0 1.104-.24c.298-.107.661-.256 1.088-.448l.432 1.328Zm-4.288.48c-.555 0-.987.176-1.296.528-.299.341-.448.795-.448 1.36 0 .576.154 1.04.464 1.392.309.341.746.512 1.312.512.576 0 1.013-.165 1.312-.496.309-.341.464-.816.464-1.424 0-1.248-.603-1.872-1.808-1.872Zm11.918 3.104c0 .245-.01.496-.032.752h-5.376c.064.928.299 1.61.704 2.048.406.437.928.656 1.568.656.406 0 .779-.059 1.12-.176a4.496 4.496 0 0 0 1.072-.56l.64.88c-.896.704-1.877 1.056-2.944 1.056-1.173 0-2.09-.384-2.752-1.152-.65-.768-.976-1.824-.976-3.168 0-.875.139-1.648.416-2.32.288-.683.694-1.216 1.216-1.6.534-.384 1.158-.576 1.872-.576 1.12 0 1.979.368 2.576 1.104.598.736.896 1.755.896 3.056Zm-1.456-.432c0-.832-.165-1.467-.496-1.904-.33-.437-.826-.656-1.488-.656-1.205 0-1.861.885-1.968 2.656h3.952v-.096Z" fill="#005F89"/><path d="M403 18.6h100.751v.8H403v-.8Z" fill="#005F89"/><path fill-rule="evenodd" clip-rule="evenodd" d="M520.707 6.626a1 1 0 1 0-1.414 1.414l2.959 2.96h-6.919a1 1 0 0 0 0 2h6.919l-2.959 2.96a1 1 0 1 0 1.414 1.414l4.666-4.666h.001m.217-1.09a.998.998 0 0 0-.217-.325l-4.667-4.667m4.884 4.991c.048.117.075.245.076.38Zm.076.386v-.006m0 .006a.998.998 0 0 1-.291.702Z" fill="#3F3F3F"/><path d="M537.456 5.784c.661 0 1.216.085 1.664.256.459.17.923.448 1.392.832l-.832.976c-.672-.544-1.381-.816-2.128-.816-.917 0-1.659.352-2.224 1.056-.555.704-.832 1.835-.832 3.392 0 1.515.277 2.635.832 3.36.555.715 1.291 1.072 2.208 1.072.469 0 .88-.08 1.232-.24.352-.16.725-.384 1.12-.672l.752.96c-.341.352-.779.645-1.312.88s-1.147.352-1.84.352c-.896 0-1.696-.219-2.4-.656-.693-.448-1.237-1.099-1.632-1.952-.384-.864-.576-1.899-.576-3.104s.203-2.235.608-3.088c.405-.864.955-1.515 1.648-1.952a4.26 4.26 0 0 1 2.32-.656ZM548.48 17h-1.264l-.112-1.312c-.32.523-.688.907-1.104 1.152-.416.235-.923.352-1.52.352-.736 0-1.312-.224-1.728-.672-.416-.448-.624-1.083-.624-1.904V8.568h1.472v5.888c0 .576.101.987.304 1.232.202.235.533.352.992.352.821 0 1.525-.485 2.112-1.456V8.568h1.472V17Zm6.704-8.624c.299 0 .576.032.832.096l-.272 1.44a3.032 3.032 0 0 0-.736-.096c-.523 0-.944.192-1.264.576-.32.384-.571.981-.752 1.792V17h-1.472V8.568h1.264l.144 1.712c.224-.63.528-1.104.912-1.424.384-.32.832-.48 1.344-.48Zm6.172 0c.299 0 .576.032.832.096l-.272 1.44a3.032 3.032 0 0 0-.736-.096c-.523 0-.944.192-1.264.576-.32.384-.571.981-.752 1.792V17h-1.472V8.568h1.264l.144 1.712c.224-.63.528-1.104.912-1.424.384-.32.832-.48 1.344-.48Zm8.391 4.16c0 .245-.01.496-.032.752h-5.376c.064.928.299 1.61.704 2.048.406.437.928.656 1.568.656.406 0 .779-.059 1.12-.176a4.496 4.496 0 0 0 1.072-.56l.64.88c-.896.704-1.877 1.056-2.944 1.056-1.173 0-2.09-.384-2.752-1.152-.65-.768-.976-1.824-.976-3.168 0-.875.139-1.648.416-2.32.288-.683.694-1.216 1.216-1.6.534-.384 1.158-.576 1.872-.576 1.12 0 1.979.368 2.576 1.104.598.736.896 1.755.896 3.056Zm-1.456-.432c0-.832-.165-1.467-.496-1.904-.33-.437-.826-.656-1.488-.656-1.205 0-1.861.885-1.968 2.656h3.952v-.096Zm7.775-3.728c.768 0 1.365.23 1.792.688.437.459.656 1.088.656 1.888V17h-1.472v-5.84c0-.597-.112-1.019-.336-1.264-.224-.245-.555-.368-.992-.368a1.92 1.92 0 0 0-1.184.384c-.341.256-.661.624-.96 1.104V17h-1.472V8.568h1.264l.128 1.248c.299-.448.667-.8 1.104-1.056a2.916 2.916 0 0 1 1.472-.384Zm9.663 8.24a3.238 3.238 0 0 1-1.888.576c-.715 0-1.275-.203-1.68-.608-.395-.416-.592-1.013-.592-1.792V9.704h-1.472V8.568h1.472V6.664l1.472-.176v2.08h2l-.16 1.136h-1.84v5.024c0 .437.075.757.224.96.16.192.421.288.784.288.331 0 .704-.112 1.12-.336l.56.976Zm9.632-8.24c1.077 0 1.866.384 2.368 1.152.501.768.752 1.85.752 3.248 0 1.323-.288 2.39-.864 3.2-.576.81-1.392 1.216-2.448 1.216-.939 0-1.675-.32-2.208-.96v4l-1.472.176V8.568h1.264l.112 1.136a3.14 3.14 0 0 1 1.12-.976 2.87 2.87 0 0 1 1.376-.352Zm-.544 7.616c1.386 0 2.08-1.072 2.08-3.216 0-2.155-.635-3.232-1.904-3.232-.416 0-.795.123-1.136.368-.342.245-.64.56-.896.944v4.112c.213.33.48.587.8.768.32.17.672.256 1.056.256Zm11.696-.96c0 .341.058.597.176.768.117.16.293.283.528.368l-.336 1.024c-.438-.053-.79-.176-1.056-.368-.267-.192-.464-.49-.592-.896-.566.843-1.403 1.264-2.512 1.264-.832 0-1.488-.235-1.968-.704-.48-.47-.72-1.083-.72-1.84 0-.896.32-1.584.96-2.064.65-.48 1.568-.72 2.752-.72h1.296v-.624c0-.597-.144-1.024-.432-1.28-.288-.256-.731-.384-1.328-.384-.619 0-1.376.15-2.272.448l-.368-1.072c1.045-.384 2.016-.576 2.912-.576.992 0 1.733.245 2.224.736.49.48.736 1.168.736 2.064v3.856Zm-3.456 1.056c.842 0 1.504-.437 1.984-1.312V12.84h-1.104c-1.558 0-2.336.576-2.336 1.728 0 .501.122.88.368 1.136.245.256.608.384 1.088.384Zm13.122-7.136a4.52 4.52 0 0 1-1.056.208c-.384.032-.853.048-1.408.048.992.448 1.488 1.157 1.488 2.128 0 .843-.288 1.53-.864 2.064-.576.533-1.36.8-2.352.8-.384 0-.741-.053-1.072-.16a.895.895 0 0 0-.304.352.907.907 0 0 0-.112.432c0 .459.368.688 1.104.688h1.344c.566 0 1.067.101 1.504.304.438.203.774.48 1.008.832.246.352.368.752.368 1.2 0 .821-.336 1.45-1.008 1.888-.672.448-1.653.672-2.944.672-.906 0-1.626-.096-2.16-.288-.522-.181-.896-.459-1.12-.832-.224-.373-.336-.853-.336-1.44h1.328c0 .341.064.608.192.8.128.203.358.352.688.448.331.107.8.16 1.408.16.886 0 1.515-.112 1.888-.336.384-.213.576-.539.576-.976 0-.395-.149-.693-.448-.896-.298-.203-.714-.304-1.248-.304h-1.328c-.714 0-1.258-.15-1.632-.448-.362-.31-.544-.693-.544-1.152 0-.277.08-.544.24-.8.16-.256.39-.485.688-.688-.49-.256-.853-.57-1.088-.944-.224-.384-.336-.848-.336-1.392 0-.565.139-1.072.416-1.52a2.907 2.907 0 0 1 1.168-1.04 3.607 3.607 0 0 1 1.664-.384c.662.01 1.216-.01 1.664-.064a6.468 6.468 0 0 0 1.104-.24c.299-.107.662-.256 1.088-.448l.432 1.328Zm-4.288.48c-.554 0-.986.176-1.296.528-.298.341-.448.795-.448 1.36 0 .576.155 1.04.464 1.392.31.341.747.512 1.312.512.576 0 1.014-.165 1.312-.496.31-.341.464-.816.464-1.424 0-1.248-.602-1.872-1.808-1.872Zm11.919 3.104c0 .245-.011.496-.032.752h-5.376c.064.928.299 1.61.704 2.048.405.437.928.656 1.568.656.405 0 .779-.059 1.12-.176a4.515 4.515 0 0 0 1.072-.56l.64.88c-.896.704-1.877 1.056-2.944 1.056-1.173 0-2.091-.384-2.752-1.152-.651-.768-.976-1.824-.976-3.168 0-.875.139-1.648.416-2.32.288-.683.693-1.216 1.216-1.6.533-.384 1.157-.576 1.872-.576 1.12 0 1.979.368 2.576 1.104.597.736.896 1.755.896 3.056Zm-1.456-.432c0-.832-.165-1.467-.496-1.904-.331-.437-.827-.656-1.488-.656-1.205 0-1.861.885-1.968 2.656h3.952v-.096Z" fill="#1C1C1C"/></svg>