<svg width="245" height="21" fill="none" xmlns="http://www.w3.org/2000/svg"><rect y="8" width="200" height="4" rx="2" fill="#ACACAC"/><rect y="8" width="100" height="4" rx="2" fill="green"/><path d="M222.142 5.448h-4.176V8.6a3.722 3.722 0 0 1 1.712-.416c.917 0 1.653.304 2.208.912.555.597.832 1.424.832 2.48 0 .704-.155 1.333-.464 1.888-.309.544-.747.97-1.312 1.28-.555.299-1.2.448-1.936.448-.651 0-1.232-.112-1.744-.336a4.764 4.764 0 0 1-1.424-1.024l.864-.848c.341.341.693.597 1.056.768.363.16.773.24 1.232.24.683 0 1.216-.213 1.6-.64.395-.427.592-1.03.592-1.808 0-.779-.176-1.344-.528-1.696-.352-.352-.827-.528-1.424-.528-.277 0-.533.032-.768.096a3.594 3.594 0 0 0-.752.272h-1.152V4.296h5.792l-.208 1.152Zm5.76-1.312c1.184 0 2.074.475 2.672 1.424.608.939.912 2.304.912 4.096 0 1.792-.304 3.163-.912 4.112-.598.95-1.488 1.424-2.672 1.424-1.184 0-2.08-.475-2.688-1.424-.598-.95-.896-2.32-.896-4.112 0-1.792.298-3.157.896-4.096.608-.95 1.504-1.424 2.688-1.424Zm0 1.168c-.694 0-1.211.341-1.552 1.024-.331.683-.496 1.792-.496 3.328 0 1.536.165 2.65.496 3.344.341.683.858 1.024 1.552 1.024.682 0 1.194-.341 1.536-1.024.341-.693.512-1.808.512-3.344 0-1.525-.171-2.63-.512-3.312-.342-.693-.854-1.04-1.536-1.04Zm14.265-1.68 1.024.672-7.408 11.2-1.024-.672 7.408-11.2Zm-6.496.512c.768 0 1.392.245 1.872.736.491.49.736 1.147.736 1.968s-.245 1.477-.736 1.968c-.48.49-1.104.736-1.872.736-.757 0-1.381-.245-1.872-.736-.48-.49-.72-1.147-.72-1.968s.24-1.477.72-1.968c.491-.49 1.115-.736 1.872-.736Zm0 .992c-.469 0-.805.16-1.008.48-.192.32-.288.73-.288 1.232 0 .49.096.901.288 1.232.203.32.539.48 1.008.48.864 0 1.296-.57 1.296-1.712 0-.49-.096-.896-.288-1.216-.192-.33-.528-.496-1.008-.496Zm6.592 4.656c.768 0 1.392.245 1.872.736.48.49.72 1.147.72 1.968s-.24 1.477-.72 1.968c-.48.49-1.104.736-1.872.736s-1.397-.245-1.888-.736c-.48-.49-.72-1.147-.72-1.968s.24-1.477.72-1.968c.491-.49 1.12-.736 1.888-.736Zm0 1.008c-.469 0-.805.16-1.008.48-.192.31-.288.715-.288 1.216 0 .49.096.901.288 1.232.203.32.539.48 1.008.48.864 0 1.296-.57 1.296-1.712 0-.49-.096-.896-.288-1.216-.192-.32-.528-.48-1.008-.48Z" fill="green"/></svg>