<svg width="104" height="24" fill="none" xmlns="http://www.w3.org/2000/svg"><rect x="1" y="1" width="46" height="22" rx="11" fill="#fff" stroke="#646464" stroke-width="2"/><rect x="28" y="4" width="16" height="16" rx="8" fill="#646464"/><path d="M60.32 5.784c.736 0 1.365.107 1.888.32.523.203 1.03.523 1.52.96l-.832.928a4.506 4.506 0 0 0-1.232-.72 3.375 3.375 0 0 0-1.28-.24c-.576 0-1.05.133-1.424.4-.373.267-.56.656-.56 1.168 0 .32.064.592.192.816.128.213.363.41.704.592.352.181.859.373 1.52.576.693.213 1.27.443 1.728.688.459.245.827.587 1.104 1.024.288.427.432.97.432 1.632 0 .64-.16 1.205-.48 1.696-.31.49-.763.875-1.36 1.152-.587.277-1.285.416-2.096.416-1.525 0-2.773-.475-3.744-1.424l.832-.928c.448.363.901.64 1.36.832.459.181.97.272 1.536.272.683 0 1.248-.165 1.696-.496.448-.341.672-.832.672-1.472 0-.363-.07-.661-.208-.896-.139-.245-.379-.464-.72-.656-.33-.192-.816-.384-1.456-.576-1.13-.341-1.957-.752-2.48-1.232-.523-.48-.784-1.13-.784-1.952 0-.555.144-1.05.432-1.488.299-.437.71-.779 1.232-1.024.533-.245 1.136-.368 1.808-.368Zm15.55 2.784L73.95 17h-2L70.48 9.896 68.959 17h-1.952l-1.968-8.432h1.472l1.52 7.408 1.664-7.408h1.648l1.584 7.408 1.536-7.408h1.408Zm3.31 0V17h-1.473V8.568h1.473Zm-.753-4.048c.31 0 .56.096.752.288a.977.977 0 0 1 .288.72.977.977 0 0 1-.287.72c-.193.181-.443.272-.753.272-.298 0-.544-.09-.736-.272a.977.977 0 0 1-.288-.72c0-.288.096-.528.288-.72a.997.997 0 0 1 .736-.288Zm8.052 12.096a3.238 3.238 0 0 1-1.888.576c-.715 0-1.274-.203-1.68-.608-.395-.416-.592-1.013-.592-1.792V9.704h-1.472V8.568h1.472V6.664l1.472-.176v2.08h2l-.16 1.136h-1.84v5.024c0 .437.075.757.224.96.16.192.421.288.784.288.33 0 .704-.112 1.12-.336l.56.976Zm4.363-8.24c.501 0 .96.075 1.376.224a3.71 3.71 0 0 1 1.2.688l-.704.928a3.35 3.35 0 0 0-.88-.464 2.567 2.567 0 0 0-.928-.16c-.683 0-1.216.272-1.6.816-.373.544-.56 1.35-.56 2.416 0 1.067.187 1.856.56 2.368.373.501.907.752 1.6.752.33 0 .635-.048.912-.144.277-.107.587-.272.928-.496l.672.96c-.768.619-1.627.928-2.576.928-1.141 0-2.043-.384-2.704-1.152-.65-.768-.976-1.83-.976-3.184 0-.896.15-1.68.448-2.352.299-.672.72-1.195 1.264-1.568.555-.373 1.21-.56 1.968-.56Zm8.537 0c.768 0 1.365.23 1.792.688.437.459.656 1.088.656 1.888V17h-1.472v-5.84c0-.597-.118-1.019-.352-1.264-.224-.245-.555-.368-.992-.368-.438 0-.827.128-1.168.384-.342.256-.662.619-.96 1.088v6H95.41V5.192l1.472-.16v4.704c.661-.907 1.493-1.36 2.496-1.36Z" fill="#1C1C1C"/></svg>