<svg width="489" height="40" fill="none" xmlns="http://www.w3.org/2000/svg"><path d="M0 2a2 2 0 0 1 2-2h68a2 2 0 0 1 2 2v38H0V2Z" fill="#fff"/><path d="M24.182 25v-5.168h-4.64V25h-1.52V13.976h1.52v4.608h4.64v-4.608h1.52V25h-1.52Zm7.803-8.624c1.184 0 2.101.395 2.752 1.184.661.79.992 1.861.992 3.216 0 .875-.15 1.648-.448 2.32-.299.661-.73 1.179-1.296 1.552-.566.363-1.237.544-2.016.544-1.184 0-2.107-.395-2.768-1.184-.662-.79-.992-1.861-.992-3.216 0-.875.15-1.643.448-2.304.299-.672.73-1.19 1.296-1.552.565-.373 1.242-.56 2.032-.56Zm0 1.184c-1.462 0-2.192 1.077-2.192 3.232 0 2.144.725 3.216 2.176 3.216 1.45 0 2.176-1.077 2.176-3.232 0-2.144-.72-3.216-2.16-3.216Zm10.144-1.184c.768 0 1.365.23 1.792.688.437.459.656 1.088.656 1.888V25h-1.472v-5.84c0-.597-.112-1.019-.336-1.264-.224-.245-.555-.368-.992-.368a1.92 1.92 0 0 0-1.184.384c-.342.256-.662.624-.96 1.104V25H38.16v-8.432h1.264l.128 1.248a3.36 3.36 0 0 1 1.104-1.056 2.915 2.915 0 0 1 1.472-.384Zm11.935-3.2V25h-1.296l-.144-1.168a3.125 3.125 0 0 1-1.04 1.008c-.416.235-.88.352-1.392.352-1.003 0-1.787-.395-2.352-1.184-.555-.79-.832-1.85-.832-3.184 0-.864.133-1.632.4-2.304.266-.672.65-1.195 1.152-1.568.501-.384 1.088-.576 1.76-.576.864 0 1.621.347 2.272 1.04V13l1.472.176Zm-3.552 10.848c.448 0 .832-.101 1.152-.304.32-.213.629-.528.928-.944v-4.128c-.278-.363-.576-.635-.896-.816a1.96 1.96 0 0 0-1.056-.288c-.651 0-1.158.272-1.52.816-.352.544-.528 1.355-.528 2.432 0 1.088.165 1.899.496 2.432.33.533.805.8 1.424.8Z" fill="#1C1C1C"/><path d="M72 2a2 2 0 0 1 2-2h52a2 2 0 0 1 2 2v38H72V2Z" fill="#fff"/><path d="M91.222 13.976V25h-1.52V13.976h1.52Zm6 0-4.176 5.04L97.526 25h-1.872l-4.352-5.888 4.192-5.136h1.728Zm7.392 9.056c0 .341.059.597.176.768.117.16.293.283.528.368l-.336 1.024c-.437-.053-.789-.176-1.056-.368s-.464-.49-.592-.896c-.565.843-1.403 1.264-2.512 1.264-.832 0-1.488-.235-1.968-.704-.48-.47-.72-1.083-.72-1.84 0-.896.32-1.584.96-2.064.65-.48 1.568-.72 2.752-.72h1.296v-.624c0-.597-.144-1.024-.432-1.28-.288-.256-.731-.384-1.328-.384-.619 0-1.376.15-2.272.448l-.368-1.072c1.045-.384 2.016-.576 2.912-.576.992 0 1.733.245 2.224.736.491.48.736 1.168.736 2.064v3.856Zm-3.456 1.056c.843 0 1.504-.437 1.984-1.312V20.84h-1.104c-1.557 0-2.336.576-2.336 1.728 0 .501.123.88.368 1.136.245.256.608.384 1.088.384Zm10.735.528a3.236 3.236 0 0 1-1.888.576c-.714 0-1.274-.203-1.68-.608-.394-.416-.592-1.013-.592-1.792v-5.088h-1.472v-1.136h1.472v-1.904l1.472-.176v2.08h2l-.16 1.136h-1.84v5.024c0 .437.075.757.224.96.16.192.422.288.784.288.331 0 .704-.112 1.12-.336l.56.976Z" fill="#1C1C1C"/><path d="M128 2a2 2 0 0 1 2-2h65a2 2 0 0 1 2 2v38h-69V2Z" fill="#fff"/><path d="m152.432 13.976-.16 1.296h-3.056V25h-1.52v-9.728h-3.136v-1.296h7.872Zm6.557 9.056c0 .341.059.597.176.768.117.16.293.283.528.368l-.336 1.024c-.437-.053-.789-.176-1.056-.368s-.464-.49-.592-.896c-.565.843-1.403 1.264-2.512 1.264-.832 0-1.488-.235-1.968-.704-.48-.47-.72-1.083-.72-1.84 0-.896.32-1.584.96-2.064.651-.48 1.568-.72 2.752-.72h1.296v-.624c0-.597-.144-1.024-.432-1.28-.288-.256-.731-.384-1.328-.384-.619 0-1.376.15-2.272.448l-.368-1.072c1.045-.384 2.016-.576 2.912-.576.992 0 1.733.245 2.224.736.491.48.736 1.168.736 2.064v3.856Zm-3.456 1.056c.843 0 1.504-.437 1.984-1.312V20.84h-1.104c-1.557 0-2.336.576-2.336 1.728 0 .501.123.88.368 1.136.245.256.608.384 1.088.384Zm10.351-7.712c1.078 0 1.867.384 2.368 1.152.502.768.752 1.85.752 3.248 0 1.323-.288 2.39-.864 3.2-.576.81-1.392 1.216-2.448 1.216-.938 0-1.674-.32-2.208-.96v4l-1.472.176v-11.84h1.264l.112 1.136c.31-.427.683-.752 1.12-.976a2.872 2.872 0 0 1 1.376-.352Zm-.544 7.616c1.387 0 2.08-1.072 2.08-3.216 0-2.155-.634-3.232-1.904-3.232-.416 0-.794.123-1.136.368a3.62 3.62 0 0 0-.896.944v4.112c.214.33.48.587.8.768.32.17.672.256 1.056.256Zm7.644-7.424V25h-1.472v-8.432h1.472Zm-.752-4.048c.31 0 .56.096.752.288a.977.977 0 0 1 .288.72.977.977 0 0 1-.288.72c-.192.181-.442.272-.752.272-.298 0-.544-.09-.736-.272a.977.977 0 0 1-.288-.72c0-.288.096-.528.288-.72a.998.998 0 0 1 .736-.288Zm7.46 3.856c.298 0 .576.032.832.096l-.272 1.44a3.038 3.038 0 0 0-.736-.096c-.523 0-.944.192-1.264.576-.32.384-.571.981-.752 1.792V25h-1.472v-8.432h1.264l.144 1.712c.224-.63.528-1.104.912-1.424.384-.32.832-.48 1.344-.48Z" fill="#1C1C1C"/><path d="M128 38a2 2 0 0 1 2-2h65a2 2 0 0 1 2 2v2h-69v-2Z" fill="#005F89"/><path d="M197 2a2 2 0 0 1 2-2h88a2 2 0 0 1 2 2v38h-92V2Z" fill="#fff"/><path d="M225.839 13.976 223.599 25h-1.952l-2.032-9.232L217.567 25h-1.904l-2.24-11.024h1.488l1.776 9.696 2.128-9.696h1.616l2.176 9.696 1.84-9.696h1.392Zm4.935 2.4c1.184 0 2.101.395 2.752 1.184.661.79.992 1.861.992 3.216 0 .875-.149 1.648-.448 2.32-.299.661-.731 1.179-1.296 1.552-.565.363-1.237.544-2.016.544-1.184 0-2.107-.395-2.768-1.184-.661-.79-.992-1.861-.992-3.216 0-.875.149-1.643.448-2.304.299-.672.731-1.19 1.296-1.552.565-.373 1.243-.56 2.032-.56Zm0 1.184c-1.461 0-2.192 1.077-2.192 3.232 0 2.144.725 3.216 2.176 3.216s2.176-1.077 2.176-3.232c0-2.144-.72-3.216-2.16-3.216Zm14.64-1.184c.693 0 1.248.235 1.664.704.416.459.624 1.083.624 1.872V25h-1.472v-5.84c0-1.088-.395-1.632-1.184-1.632-.416 0-.768.123-1.056.368-.288.235-.598.608-.928 1.12V25h-1.472v-5.84c0-1.088-.395-1.632-1.184-1.632-.427 0-.784.123-1.072.368-.288.245-.592.619-.912 1.12V25h-1.472v-8.432h1.264l.128 1.232c.629-.95 1.44-1.424 2.432-1.424.522 0 .965.133 1.328.4.373.267.64.64.8 1.12.33-.49.693-.864 1.088-1.12.405-.267.88-.4 1.424-.4Zm9.11 0c.96 0 1.723.39 2.288 1.168.566.768.848 1.845.848 3.232 0 .875-.133 1.648-.4 2.32-.266.661-.65 1.179-1.152 1.552-.501.363-1.088.544-1.76.544-.885 0-1.632-.373-2.24-1.12l-.144.928h-1.296V13.176L252.14 13v4.624c.608-.832 1.403-1.248 2.384-1.248Zm-.528 7.648c.651 0 1.158-.261 1.52-.784.374-.533.56-1.355.56-2.464 0-1.141-.17-1.963-.512-2.464-.341-.512-.826-.768-1.456-.768-.746 0-1.402.437-1.968 1.312v4.032c.224.352.496.63.816.832.331.203.678.304 1.04.304Zm11.696-.992c0 .341.059.597.176.768.118.16.294.283.528.368l-.336 1.024c-.437-.053-.789-.176-1.056-.368-.266-.192-.464-.49-.592-.896-.565.843-1.402 1.264-2.512 1.264-.832 0-1.488-.235-1.968-.704-.48-.47-.72-1.083-.72-1.84 0-.896.32-1.584.96-2.064.651-.48 1.568-.72 2.752-.72h1.296v-.624c0-.597-.144-1.024-.432-1.28-.288-.256-.73-.384-1.328-.384-.618 0-1.376.15-2.272.448l-.368-1.072c1.046-.384 2.016-.576 2.912-.576.992 0 1.734.245 2.224.736.491.48.736 1.168.736 2.064v3.856Zm-3.456 1.056c.843 0 1.504-.437 1.984-1.312V20.84h-1.104c-1.557 0-2.336.576-2.336 1.728 0 .501.123.88.368 1.136.246.256.608.384 1.088.384Zm10.735.528a3.236 3.236 0 0 1-1.888.576c-.714 0-1.274-.203-1.68-.608-.394-.416-.592-1.013-.592-1.792v-5.088h-1.472v-1.136h1.472v-1.904l1.472-.176v2.08h2l-.16 1.136h-1.84v5.024c0 .437.075.757.224.96.16.192.422.288.784.288.331 0 .704-.112 1.12-.336l.56.976Z" fill="#1C1C1C"/><path d="M289 2a2 2 0 0 1 2-2h123a2 2 0 0 1 2 2v38H289V2Z" fill="#fff"/><path d="M314.034 13.976 310.514 25h-1.632l-3.552-11.024h1.632l2.768 9.376 2.768-9.376h1.536Zm4.373 2.4c1.184 0 2.101.395 2.752 1.184.661.79.992 1.861.992 3.216 0 .875-.15 1.648-.448 2.32-.299.661-.731 1.179-1.296 1.552-.566.363-1.238.544-2.016.544-1.184 0-2.107-.395-2.768-1.184-.662-.79-.992-1.861-.992-3.216 0-.875.149-1.643.448-2.304.298-.672.73-1.19 1.296-1.552.565-.373 1.242-.56 2.032-.56Zm0 1.184c-1.462 0-2.192 1.077-2.192 3.232 0 2.144.725 3.216 2.176 3.216 1.45 0 2.176-1.077 2.176-3.232 0-2.144-.72-3.216-2.16-3.216Zm12.976-.608c-.32.107-.672.176-1.056.208a17.38 17.38 0 0 1-1.408.048c.992.448 1.488 1.157 1.488 2.128 0 .843-.288 1.53-.864 2.064-.576.533-1.36.8-2.352.8a3.47 3.47 0 0 1-1.072-.16.887.887 0 0 0-.304.352.896.896 0 0 0-.112.432c0 .459.368.688 1.104.688h1.344c.565 0 1.066.101 1.504.304.437.203.773.48 1.008.832.245.352.368.752.368 1.2 0 .821-.336 1.45-1.008 1.888-.672.448-1.654.672-2.944.672-.907 0-1.627-.096-2.16-.288-.523-.181-.896-.459-1.12-.832-.224-.373-.336-.853-.336-1.44h1.328c0 .341.064.608.192.8.128.203.357.352.688.448.33.107.8.16 1.408.16.885 0 1.514-.112 1.888-.336.384-.213.576-.539.576-.976 0-.395-.15-.693-.448-.896-.299-.203-.715-.304-1.248-.304h-1.328c-.715 0-1.259-.15-1.632-.448-.363-.31-.544-.693-.544-1.152 0-.277.08-.544.24-.8.16-.256.389-.485.688-.688-.491-.256-.854-.57-1.088-.944-.224-.384-.336-.848-.336-1.392 0-.565.138-1.072.416-1.52a2.9 2.9 0 0 1 1.168-1.04 3.604 3.604 0 0 1 1.664-.384c.661.01 1.216-.01 1.664-.064a6.468 6.468 0 0 0 1.104-.24c.298-.107.661-.256 1.088-.448l.432 1.328Zm-4.288.48c-.555 0-.987.176-1.296.528-.299.341-.448.795-.448 1.36 0 .576.154 1.04.464 1.392.309.341.746.512 1.312.512.576 0 1.013-.165 1.312-.496.309-.341.464-.816.464-1.424 0-1.248-.603-1.872-1.808-1.872Zm11.918 3.104c0 .245-.011.496-.032.752h-5.376c.064.928.299 1.61.704 2.048.405.437.928.656 1.568.656.405 0 .779-.059 1.12-.176a4.515 4.515 0 0 0 1.072-.56l.64.88c-.896.704-1.877 1.056-2.944 1.056-1.173 0-2.091-.384-2.752-1.152-.651-.768-.976-1.824-.976-3.168 0-.875.139-1.648.416-2.32.288-.683.693-1.216 1.216-1.6.533-.384 1.157-.576 1.872-.576 1.12 0 1.979.368 2.576 1.104.597.736.896 1.755.896 3.056Zm-1.456-.432c0-.832-.165-1.467-.496-1.904-.331-.437-.827-.656-1.488-.656-1.205 0-1.861.885-1.968 2.656h3.952v-.096Zm5.487 5.088c-.544 0-.976-.16-1.296-.48-.31-.33-.464-.79-.464-1.376v-10.16l1.472-.176v10.304c0 .235.037.405.112.512.085.107.224.16.416.16.202 0 .384-.032.544-.096l.384 1.024a2.4 2.4 0 0 1-1.168.288Zm6.863-8.816c.96 0 1.723.39 2.288 1.168.566.768.848 1.845.848 3.232 0 .875-.133 1.648-.4 2.32-.266.661-.65 1.179-1.152 1.552-.501.363-1.088.544-1.76.544-.885 0-1.632-.373-2.24-1.12l-.144.928h-1.296V13.176l1.472-.176v4.624c.608-.832 1.403-1.248 2.384-1.248Zm-.528 7.648c.651 0 1.158-.261 1.52-.784.374-.533.56-1.355.56-2.464 0-1.141-.17-1.963-.512-2.464-.341-.512-.826-.768-1.456-.768-.746 0-1.402.437-1.968 1.312v4.032c.224.352.496.63.816.832.331.203.678.304 1.04.304Zm12.54-3.488c0 .245-.01.496-.032.752h-5.376c.064.928.299 1.61.704 2.048.406.437.928.656 1.568.656.406 0 .779-.059 1.12-.176a4.496 4.496 0 0 0 1.072-.56l.64.88c-.896.704-1.877 1.056-2.944 1.056-1.173 0-2.09-.384-2.752-1.152-.65-.768-.976-1.824-.976-3.168 0-.875.139-1.648.416-2.32.288-.683.694-1.216 1.216-1.6.534-.384 1.158-.576 1.872-.576 1.12 0 1.979.368 2.576 1.104.598.736.896 1.755.896 3.056Zm-1.456-.432c0-.832-.165-1.467-.496-1.904-.33-.437-.826-.656-1.488-.656-1.205 0-1.861.885-1.968 2.656h3.952v-.096ZM365.742 13v12h-1.472V13.176l1.472-.176Zm4.848 3.568-3.104 3.728L370.942 25h-1.76l-3.344-4.608 3.104-3.824h1.648Zm8.255-3.392V25h-1.296l-.144-1.168a3.122 3.122 0 0 1-1.04 1.008c-.416.235-.88.352-1.392.352-1.003 0-1.787-.395-2.352-1.184-.555-.79-.832-1.85-.832-3.184 0-.864.133-1.632.4-2.304.267-.672.651-1.195 1.152-1.568.501-.384 1.088-.576 1.76-.576.864 0 1.621.347 2.272 1.04V13l1.472.176Zm-3.552 10.848c.448 0 .832-.101 1.152-.304.32-.213.629-.528.928-.944v-4.128c-.277-.363-.576-.635-.896-.816a1.96 1.96 0 0 0-1.056-.288c-.651 0-1.157.272-1.52.816-.352.544-.528 1.355-.528 2.432 0 1.088.165 1.899.496 2.432.331.533.805.8 1.424.8Zm8.058-7.456V25h-1.472v-8.432h1.472Zm-.752-4.048c.31 0 .56.096.752.288a.977.977 0 0 1 .288.72.977.977 0 0 1-.288.72c-.192.181-.442.272-.752.272-.298 0-.544-.09-.736-.272a.977.977 0 0 1-.288-.72c0-.288.096-.528.288-.72a.998.998 0 0 1 .736-.288Zm10.164 8.016c0 .245-.011.496-.032.752h-5.376c.064.928.299 1.61.704 2.048.405.437.928.656 1.568.656.405 0 .779-.059 1.12-.176a4.515 4.515 0 0 0 1.072-.56l.64.88c-.896.704-1.877 1.056-2.944 1.056-1.173 0-2.091-.384-2.752-1.152-.651-.768-.976-1.824-.976-3.168 0-.875.139-1.648.416-2.32.288-.683.693-1.216 1.216-1.6.533-.384 1.157-.576 1.872-.576 1.12 0 1.979.368 2.576 1.104.597.736.896 1.755.896 3.056Zm-1.456-.432c0-.832-.165-1.467-.496-1.904-.331-.437-.827-.656-1.488-.656-1.205 0-1.861.885-1.968 2.656h3.952v-.096Zm7.471-3.728c.298 0 .576.032.832.096l-.272 1.44a3.038 3.038 0 0 0-.736-.096c-.523 0-.944.192-1.264.576-.32.384-.571.981-.752 1.792V25h-1.472v-8.432h1.264l.144 1.712c.224-.63.528-1.104.912-1.424.384-.32.832-.48 1.344-.48Z" fill="#1C1C1C"/><path d="M416 2a2 2 0 0 1 2-2h69a2 2 0 0 1 2 2v38h-73V2Z" fill="#F5F5F5"/><path d="M435.495 13.976V25h-1.52V13.976h1.52Zm6 0-4.176 5.04 4.48 5.984h-1.872l-4.352-5.888 4.192-5.136h1.728Zm4.771 2.4c1.184 0 2.101.395 2.752 1.184.661.79.992 1.861.992 3.216 0 .875-.149 1.648-.448 2.32-.299.661-.731 1.179-1.296 1.552-.565.363-1.237.544-2.016.544-1.184 0-2.107-.395-2.768-1.184-.661-.79-.992-1.861-.992-3.216 0-.875.149-1.643.448-2.304.299-.672.731-1.19 1.296-1.552.565-.373 1.243-.56 2.032-.56Zm0 1.184c-1.461 0-2.192 1.077-2.192 3.232 0 2.144.725 3.216 2.176 3.216s2.176-1.077 2.176-3.232c0-2.144-.72-3.216-2.16-3.216Zm11.7 5.472c0 .341.058.597.176.768.117.16.293.283.528.368l-.336 1.024c-.438-.053-.79-.176-1.056-.368-.267-.192-.464-.49-.592-.896-.566.843-1.403 1.264-2.512 1.264-.832 0-1.488-.235-1.968-.704-.48-.47-.72-1.083-.72-1.84 0-.896.32-1.584.96-2.064.65-.48 1.568-.72 2.752-.72h1.296v-.624c0-.597-.144-1.024-.432-1.28-.288-.256-.731-.384-1.328-.384-.619 0-1.376.15-2.272.448l-.368-1.072c1.045-.384 2.016-.576 2.912-.576.992 0 1.733.245 2.224.736.49.48.736 1.168.736 2.064v3.856Zm-3.456 1.056c.842 0 1.504-.437 1.984-1.312V20.84h-1.104c-1.558 0-2.336.576-2.336 1.728 0 .501.122.88.368 1.136.245.256.608.384 1.088.384Zm8.003 1.104c-.544 0-.976-.16-1.296-.48-.31-.33-.464-.79-.464-1.376v-10.16l1.472-.176v10.304c0 .235.037.405.112.512.085.107.224.16.416.16.202 0 .384-.032.544-.096l.384 1.024a2.4 2.4 0 0 1-1.168.288Zm8.609-2.16c0 .341.059.597.176.768.117.16.293.283.528.368l-.336 1.024c-.437-.053-.789-.176-1.056-.368s-.464-.49-.592-.896c-.565.843-1.403 1.264-2.512 1.264-.832 0-1.488-.235-1.968-.704-.48-.47-.72-1.083-.72-1.84 0-.896.32-1.584.96-2.064.651-.48 1.568-.72 2.752-.72h1.296v-.624c0-.597-.144-1.024-.432-1.28-.288-.256-.731-.384-1.328-.384-.619 0-1.376.15-2.272.448l-.368-1.072c1.045-.384 2.016-.576 2.912-.576.992 0 1.733.245 2.224.736.491.48.736 1.168.736 2.064v3.856Zm-3.456 1.056c.843 0 1.504-.437 1.984-1.312V20.84h-1.104c-1.557 0-2.336.576-2.336 1.728 0 .501.123.88.368 1.136.245.256.608.384 1.088.384Z" fill="#888"/></svg>