<svg width="960" height="540" viewBox="0 0 960 540" fill="none" xmlns="http://www.w3.org/2000/svg">
<g clip-path="url(#clip0_1237_2635)">
<rect width="960" height="540" fill="#F9F6F3"/>
<g clip-path="url(#clip1_1237_2635)">
<rect width="960" height="540" fill="#F9F6F3"/>
<rect width="2" height="540" transform="translate(69)" fill="#E4EBED"/>
<rect width="2" height="540" transform="translate(151)" fill="#E4EBED"/>
<rect width="2" height="540" transform="translate(233)" fill="#E4EBED"/>
<rect width="2" height="540" transform="translate(315)" fill="#E4EBED"/>
<rect width="2" height="540" transform="translate(397)" fill="#E4EBED"/>
<rect width="2" height="540" transform="translate(479)" fill="#E4EBED"/>
<rect width="2" height="540" transform="translate(561)" fill="#E4EBED"/>
<rect width="2" height="540" transform="translate(643)" fill="#E4EBED"/>
<rect width="2" height="540" transform="translate(725)" fill="#E4EBED"/>
<rect width="2" height="540" transform="translate(807)" fill="#E4EBED"/>
<rect width="2" height="540" transform="translate(889)" fill="#E4EBED"/>
<rect width="960" height="2" transform="translate(0 64)" fill="#E4EBED"/>
<rect width="960" height="2" transform="translate(0 146)" fill="#E4EBED"/>
<rect width="960" height="2" transform="translate(0 228)" fill="#E4EBED"/>
<rect width="960" height="2" transform="translate(0 310)" fill="#E4EBED"/>
<rect width="960" height="2" transform="translate(0 392)" fill="#E4EBED"/>
<rect width="960" height="2" transform="translate(0 474)" fill="#E4EBED"/>
</g>
<rect x="317" y="116" width="326" height="308" fill="#F9F6F3"/>
<rect x="317" y="116" width="326" height="308" stroke="#004152" stroke-width="4"/>
<g clip-path="url(#clip2_1237_2635)">
<rect x="355" y="162" width="16" height="16" fill="#F9F6F3"/>
</g>
<g clip-path="url(#clip3_1237_2635)">
<rect x="394" y="162" width="16" height="16" fill="#004152"/>
</g>
<g clip-path="url(#clip4_1237_2635)">
<rect x="433" y="162" width="16" height="16" fill="#004152"/>
</g>
<g clip-path="url(#clip5_1237_2635)">
<rect x="472" y="162" width="16" height="16" fill="#004152"/>
</g>
<g clip-path="url(#clip6_1237_2635)">
<rect x="511" y="162" width="16" height="16" fill="#004152"/>
</g>
<g clip-path="url(#clip7_1237_2635)">
<rect x="550" y="162" width="16" height="16" fill="#004152"/>
</g>
<g clip-path="url(#clip8_1237_2635)">
<rect x="589" y="162" width="16" height="16" fill="#004152"/>
</g>
<g clip-path="url(#clip9_1237_2635)">
<rect x="355" y="202" width="16" height="16" fill="#004152"/>
</g>
<g clip-path="url(#clip10_1237_2635)">
<rect x="394" y="202" width="16" height="16" fill="#004152"/>
</g>
<g clip-path="url(#clip11_1237_2635)">
<rect x="433" y="202" width="16" height="16" fill="#004152"/>
</g>
<g clip-path="url(#clip12_1237_2635)">
<rect x="472" y="202" width="16" height="16" fill="#004152"/>
</g>
<g clip-path="url(#clip13_1237_2635)">
<rect x="511" y="202" width="16" height="16" fill="#004152"/>
</g>
<g clip-path="url(#clip14_1237_2635)">
<rect x="550" y="202" width="16" height="16" fill="#004152"/>
</g>
<g clip-path="url(#clip15_1237_2635)">
<rect x="589" y="202" width="16" height="16" fill="#004152"/>
</g>
<g clip-path="url(#clip16_1237_2635)">
<rect x="355" y="242" width="16" height="16" fill="#004152"/>
</g>
<g clip-path="url(#clip17_1237_2635)">
<rect x="394" y="242" width="16" height="16" fill="#004152"/>
</g>
<g clip-path="url(#clip18_1237_2635)">
<rect x="433" y="242" width="16" height="16" fill="#004152"/>
</g>
<g clip-path="url(#clip19_1237_2635)">
<rect x="472" y="242" width="16" height="16" fill="#004152"/>
</g>
<g clip-path="url(#clip20_1237_2635)">
<rect x="511" y="242" width="16" height="16" fill="#004152"/>
</g>
<g clip-path="url(#clip21_1237_2635)">
<rect x="550" y="242" width="16" height="16" fill="#004152"/>
</g>
<g clip-path="url(#clip22_1237_2635)">
<rect x="589" y="242" width="16" height="16" fill="#004152"/>
</g>
<g clip-path="url(#clip23_1237_2635)">
<rect x="355" y="282" width="16" height="16" fill="#004152"/>
</g>
<g clip-path="url(#clip24_1237_2635)">
<rect x="394" y="282" width="16" height="16" fill="#004152"/>
</g>
<g clip-path="url(#clip25_1237_2635)">
<rect x="433" y="282" width="16" height="16" fill="#004152"/>
</g>
<g clip-path="url(#clip26_1237_2635)">
<rect x="472" y="282" width="16" height="16" fill="#004152"/>
</g>
<g clip-path="url(#clip27_1237_2635)">
<rect x="511" y="282" width="16" height="16" fill="#004152"/>
</g>
<g clip-path="url(#clip28_1237_2635)">
<rect x="550" y="282" width="16" height="16" fill="#004152"/>
</g>
<g clip-path="url(#clip29_1237_2635)">
<rect x="589" y="282" width="16" height="16" fill="#004152"/>
</g>
<g clip-path="url(#clip30_1237_2635)">
<rect x="355" y="322" width="16" height="16" fill="#004152"/>
</g>
<g clip-path="url(#clip31_1237_2635)">
<rect x="394" y="322" width="16" height="16" fill="#004152"/>
</g>
<g clip-path="url(#clip32_1237_2635)">
<rect x="433" y="322" width="16" height="16" fill="#004152"/>
</g>
<g clip-path="url(#clip33_1237_2635)">
<rect x="472" y="322" width="16" height="16" fill="#004152"/>
</g>
<g clip-path="url(#clip34_1237_2635)">
<rect x="511" y="322" width="16" height="16" fill="#004152"/>
</g>
<g clip-path="url(#clip35_1237_2635)">
<rect x="550" y="322" width="16" height="16" fill="#004152"/>
</g>
<g clip-path="url(#clip36_1237_2635)">
<rect x="589" y="322" width="16" height="16" fill="#004152"/>
</g>
<g clip-path="url(#clip37_1237_2635)">
<rect x="355" y="362" width="16" height="16" fill="#004152"/>
</g>
<g clip-path="url(#clip38_1237_2635)">
<rect x="394" y="362" width="16" height="16" fill="#004152"/>
</g>
<g clip-path="url(#clip39_1237_2635)">
<rect x="433" y="362" width="16" height="16" fill="#004152"/>
</g>
<g clip-path="url(#clip40_1237_2635)">
<rect x="472" y="362" width="16" height="16" fill="#004152"/>
</g>
<g clip-path="url(#clip41_1237_2635)">
<rect x="511" y="362" width="16" height="16" fill="#F9F6F3"/>
</g>
<g clip-path="url(#clip42_1237_2635)">
<rect x="550" y="362" width="16" height="16" fill="#F9F6F3"/>
</g>
<g clip-path="url(#clip43_1237_2635)">
<rect x="589" y="362" width="16" height="16" fill="#F9F6F3"/>
</g>
<g clip-path="url(#clip44_1237_2635)">
<circle cx="519" cy="250" r="22" stroke="#004152" stroke-width="4"/>
</g>
</g>
<defs>
<clipPath id="clip0_1237_2635">
<rect width="960" height="540" fill="white"/>
</clipPath>
<clipPath id="clip1_1237_2635">
<rect width="960" height="540" fill="white"/>
</clipPath>
<clipPath id="clip2_1237_2635">
<rect width="16" height="16" fill="white" transform="translate(355 162)"/>
</clipPath>
<clipPath id="clip3_1237_2635">
<rect width="16" height="16" fill="white" transform="translate(394 162)"/>
</clipPath>
<clipPath id="clip4_1237_2635">
<rect width="16" height="16" fill="white" transform="translate(433 162)"/>
</clipPath>
<clipPath id="clip5_1237_2635">
<rect width="16" height="16" fill="white" transform="translate(472 162)"/>
</clipPath>
<clipPath id="clip6_1237_2635">
<rect width="16" height="16" fill="white" transform="translate(511 162)"/>
</clipPath>
<clipPath id="clip7_1237_2635">
<rect width="16" height="16" fill="white" transform="translate(550 162)"/>
</clipPath>
<clipPath id="clip8_1237_2635">
<rect width="16" height="16" fill="white" transform="translate(589 162)"/>
</clipPath>
<clipPath id="clip9_1237_2635">
<rect width="16" height="16" fill="white" transform="translate(355 202)"/>
</clipPath>
<clipPath id="clip10_1237_2635">
<rect width="16" height="16" fill="white" transform="translate(394 202)"/>
</clipPath>
<clipPath id="clip11_1237_2635">
<rect width="16" height="16" fill="white" transform="translate(433 202)"/>
</clipPath>
<clipPath id="clip12_1237_2635">
<rect width="16" height="16" fill="white" transform="translate(472 202)"/>
</clipPath>
<clipPath id="clip13_1237_2635">
<rect width="16" height="16" fill="white" transform="translate(511 202)"/>
</clipPath>
<clipPath id="clip14_1237_2635">
<rect width="16" height="16" fill="white" transform="translate(550 202)"/>
</clipPath>
<clipPath id="clip15_1237_2635">
<rect width="16" height="16" fill="white" transform="translate(589 202)"/>
</clipPath>
<clipPath id="clip16_1237_2635">
<rect width="16" height="16" fill="white" transform="translate(355 242)"/>
</clipPath>
<clipPath id="clip17_1237_2635">
<rect width="16" height="16" fill="white" transform="translate(394 242)"/>
</clipPath>
<clipPath id="clip18_1237_2635">
<rect width="16" height="16" fill="white" transform="translate(433 242)"/>
</clipPath>
<clipPath id="clip19_1237_2635">
<rect width="16" height="16" fill="white" transform="translate(472 242)"/>
</clipPath>
<clipPath id="clip20_1237_2635">
<rect width="16" height="16" fill="white" transform="translate(511 242)"/>
</clipPath>
<clipPath id="clip21_1237_2635">
<rect width="16" height="16" fill="white" transform="translate(550 242)"/>
</clipPath>
<clipPath id="clip22_1237_2635">
<rect width="16" height="16" fill="white" transform="translate(589 242)"/>
</clipPath>
<clipPath id="clip23_1237_2635">
<rect width="16" height="16" fill="white" transform="translate(355 282)"/>
</clipPath>
<clipPath id="clip24_1237_2635">
<rect width="16" height="16" fill="white" transform="translate(394 282)"/>
</clipPath>
<clipPath id="clip25_1237_2635">
<rect width="16" height="16" fill="white" transform="translate(433 282)"/>
</clipPath>
<clipPath id="clip26_1237_2635">
<rect width="16" height="16" fill="white" transform="translate(472 282)"/>
</clipPath>
<clipPath id="clip27_1237_2635">
<rect width="16" height="16" fill="white" transform="translate(511 282)"/>
</clipPath>
<clipPath id="clip28_1237_2635">
<rect width="16" height="16" fill="white" transform="translate(550 282)"/>
</clipPath>
<clipPath id="clip29_1237_2635">
<rect width="16" height="16" fill="white" transform="translate(589 282)"/>
</clipPath>
<clipPath id="clip30_1237_2635">
<rect width="16" height="16" fill="white" transform="translate(355 322)"/>
</clipPath>
<clipPath id="clip31_1237_2635">
<rect width="16" height="16" fill="white" transform="translate(394 322)"/>
</clipPath>
<clipPath id="clip32_1237_2635">
<rect width="16" height="16" fill="white" transform="translate(433 322)"/>
</clipPath>
<clipPath id="clip33_1237_2635">
<rect width="16" height="16" fill="white" transform="translate(472 322)"/>
</clipPath>
<clipPath id="clip34_1237_2635">
<rect width="16" height="16" fill="white" transform="translate(511 322)"/>
</clipPath>
<clipPath id="clip35_1237_2635">
<rect width="16" height="16" fill="white" transform="translate(550 322)"/>
</clipPath>
<clipPath id="clip36_1237_2635">
<rect width="16" height="16" fill="white" transform="translate(589 322)"/>
</clipPath>
<clipPath id="clip37_1237_2635">
<rect width="16" height="16" fill="white" transform="translate(355 362)"/>
</clipPath>
<clipPath id="clip38_1237_2635">
<rect width="16" height="16" fill="white" transform="translate(394 362)"/>
</clipPath>
<clipPath id="clip39_1237_2635">
<rect width="16" height="16" fill="white" transform="translate(433 362)"/>
</clipPath>
<clipPath id="clip40_1237_2635">
<rect width="16" height="16" fill="white" transform="translate(472 362)"/>
</clipPath>
<clipPath id="clip41_1237_2635">
<rect width="16" height="16" fill="white" transform="translate(511 362)"/>
</clipPath>
<clipPath id="clip42_1237_2635">
<rect width="16" height="16" fill="white" transform="translate(550 362)"/>
</clipPath>
<clipPath id="clip43_1237_2635">
<rect width="16" height="16" fill="white" transform="translate(589 362)"/>
</clipPath>
<clipPath id="clip44_1237_2635">
<rect x="495" y="226" width="48" height="48" rx="24" fill="white"/>
</clipPath>
</defs>
</svg>
