<svg width="960" height="540" viewBox="0 0 960 540" fill="none" xmlns="http://www.w3.org/2000/svg">
<g clip-path="url(#clip0_634_2098)">
<rect width="960" height="540" fill="#F9F6F3"/>
<g clip-path="url(#clip1_634_2098)">
<rect width="960" height="540" fill="#F9F6F3"/>
<rect width="2" height="540" transform="translate(69)" fill="#E4EBED"/>
<rect width="2" height="540" transform="translate(151)" fill="#E4EBED"/>
<rect width="2" height="540" transform="translate(233)" fill="#E4EBED"/>
<rect width="2" height="540" transform="translate(315)" fill="#E4EBED"/>
<rect width="2" height="540" transform="translate(397)" fill="#E4EBED"/>
<rect width="2" height="540" transform="translate(479)" fill="#E4EBED"/>
<rect width="2" height="540" transform="translate(561)" fill="#E4EBED"/>
<rect width="2" height="540" transform="translate(643)" fill="#E4EBED"/>
<rect width="2" height="540" transform="translate(725)" fill="#E4EBED"/>
<rect width="2" height="540" transform="translate(807)" fill="#E4EBED"/>
<rect width="2" height="540" transform="translate(889)" fill="#E4EBED"/>
<rect width="960" height="2" transform="translate(0 64)" fill="#E4EBED"/>
<rect width="960" height="2" transform="translate(0 146)" fill="#E4EBED"/>
<rect width="960" height="2" transform="translate(0 228)" fill="#E4EBED"/>
<rect width="960" height="2" transform="translate(0 310)" fill="#E4EBED"/>
<rect width="960" height="2" transform="translate(0 392)" fill="#E4EBED"/>
<rect width="960" height="2" transform="translate(0 474)" fill="#E4EBED"/>
</g>
<mask id="path-1-inside-1_634_2098" fill="white">
<path d="M151 146H809V230H151V146Z"/>
</mask>
<path d="M151 150H809V142H151V150ZM809 226H151V234H809V226Z" fill="#004152" mask="url(#path-1-inside-1_634_2098)"/>
<rect x="151" y="180" width="240" height="16" rx="8" fill="#004152"/>
<rect x="479" y="180" width="84" height="16" rx="8" fill="#004152"/>
<mask id="path-5-inside-2_634_2098" fill="white">
<path d="M151 229H809V313H151V229Z"/>
</mask>
<path d="M809 309H151V317H809V309Z" fill="#004152" mask="url(#path-5-inside-2_634_2098)"/>
<rect x="151" y="263" width="160" height="16" rx="8" fill="#004152"/>
<rect x="479" y="263" width="124" height="16" rx="8" fill="#004152"/>
<mask id="path-9-inside-3_634_2098" fill="white">
<path d="M151 311H809V395H151V311Z"/>
</mask>
<path d="M809 391H151V399H809V391Z" fill="#004152" mask="url(#path-9-inside-3_634_2098)"/>
<rect x="151" y="345" width="240" height="16" rx="8" fill="#004152"/>
<rect x="479" y="345" width="102" height="16" rx="8" fill="#004152"/>
</g>
<defs>
<clipPath id="clip0_634_2098">
<rect width="960" height="540" fill="white"/>
</clipPath>
<clipPath id="clip1_634_2098">
<rect width="960" height="540" fill="white"/>
</clipPath>
</defs>
</svg>
