<svg width="960" height="540" viewBox="0 0 960 540" fill="none" xmlns="http://www.w3.org/2000/svg">
<g clip-path="url(#clip0_1237_2635)">
<rect width="960" height="540" fill="var(--component-illustration-background-color, white)"/>
<g clip-path="url(#clip1_1237_2635)">
<rect width="960" height="540" fill="var(--component-illustration-background-color, white)"/>
<rect width="2" height="540" transform="translate(69)" fill="var(--component-illustration-grid-color, #eee)"/>
<rect width="2" height="540" transform="translate(151)" fill="var(--component-illustration-grid-color, #eee)"/>
<rect width="2" height="540" transform="translate(233)" fill="var(--component-illustration-grid-color, #eee)"/>
<rect width="2" height="540" transform="translate(315)" fill="var(--component-illustration-grid-color, #eee)"/>
<rect width="2" height="540" transform="translate(397)" fill="var(--component-illustration-grid-color, #eee)"/>
<rect width="2" height="540" transform="translate(479)" fill="var(--component-illustration-grid-color, #eee)"/>
<rect width="2" height="540" transform="translate(561)" fill="var(--component-illustration-grid-color, #eee)"/>
<rect width="2" height="540" transform="translate(643)" fill="var(--component-illustration-grid-color, #eee)"/>
<rect width="2" height="540" transform="translate(725)" fill="var(--component-illustration-grid-color, #eee)"/>
<rect width="2" height="540" transform="translate(807)" fill="var(--component-illustration-grid-color, #eee)"/>
<rect width="2" height="540" transform="translate(889)" fill="var(--component-illustration-grid-color, #eee)"/>
<rect width="960" height="2" transform="translate(0 64)" fill="var(--component-illustration-grid-color, #eee)"/>
<rect width="960" height="2" transform="translate(0 146)" fill="var(--component-illustration-grid-color, #eee)"/>
<rect width="960" height="2" transform="translate(0 228)" fill="var(--component-illustration-grid-color, #eee)"/>
<rect width="960" height="2" transform="translate(0 310)" fill="var(--component-illustration-grid-color, #eee)"/>
<rect width="960" height="2" transform="translate(0 392)" fill="var(--component-illustration-grid-color, #eee)"/>
<rect width="960" height="2" transform="translate(0 474)" fill="var(--component-illustration-grid-color, #eee)"/>
</g>
<rect x="317" y="116" width="326" height="308" fill="var(--component-illustration-background-color, white)"/>
<rect x="317" y="116" width="326" height="308" stroke="var(--component-illustration-color, #666)" stroke-width="4"/>
<g clip-path="url(#clip2_1237_2635)">
<rect x="355" y="162" width="16" height="16" fill="var(--component-illustration-background-color, white)"/>
</g>
<g clip-path="url(#clip3_1237_2635)">
<rect x="394" y="162" width="16" height="16" fill="var(--component-illustration-color, #666)"/>
</g>
<g clip-path="url(#clip4_1237_2635)">
<rect x="433" y="162" width="16" height="16" fill="var(--component-illustration-color, #666)"/>
</g>
<g clip-path="url(#clip5_1237_2635)">
<rect x="472" y="162" width="16" height="16" fill="var(--component-illustration-color, #666)"/>
</g>
<g clip-path="url(#clip6_1237_2635)">
<rect x="511" y="162" width="16" height="16" fill="var(--component-illustration-color, #666)"/>
</g>
<g clip-path="url(#clip7_1237_2635)">
<rect x="550" y="162" width="16" height="16" fill="var(--component-illustration-color, #666)"/>
</g>
<g clip-path="url(#clip8_1237_2635)">
<rect x="589" y="162" width="16" height="16" fill="var(--component-illustration-color, #666)"/>
</g>
<g clip-path="url(#clip9_1237_2635)">
<rect x="355" y="202" width="16" height="16" fill="var(--component-illustration-color, #666)"/>
</g>
<g clip-path="url(#clip10_1237_2635)">
<rect x="394" y="202" width="16" height="16" fill="var(--component-illustration-color, #666)"/>
</g>
<g clip-path="url(#clip11_1237_2635)">
<rect x="433" y="202" width="16" height="16" fill="var(--component-illustration-color, #666)"/>
</g>
<g clip-path="url(#clip12_1237_2635)">
<rect x="472" y="202" width="16" height="16" fill="var(--component-illustration-color, #666)"/>
</g>
<g clip-path="url(#clip13_1237_2635)">
<rect x="511" y="202" width="16" height="16" fill="var(--component-illustration-color, #666)"/>
</g>
<g clip-path="url(#clip14_1237_2635)">
<rect x="550" y="202" width="16" height="16" fill="var(--component-illustration-color, #666)"/>
</g>
<g clip-path="url(#clip15_1237_2635)">
<rect x="589" y="202" width="16" height="16" fill="var(--component-illustration-color, #666)"/>
</g>
<g clip-path="url(#clip16_1237_2635)">
<rect x="355" y="242" width="16" height="16" fill="var(--component-illustration-color, #666)"/>
</g>
<g clip-path="url(#clip17_1237_2635)">
<rect x="394" y="242" width="16" height="16" fill="var(--component-illustration-color, #666)"/>
</g>
<g clip-path="url(#clip18_1237_2635)">
<rect x="433" y="242" width="16" height="16" fill="var(--component-illustration-color, #666)"/>
</g>
<g clip-path="url(#clip19_1237_2635)">
<rect x="472" y="242" width="16" height="16" fill="var(--component-illustration-color, #666)"/>
</g>
<g clip-path="url(#clip20_1237_2635)">
<rect x="511" y="242" width="16" height="16" fill="var(--component-illustration-color, #666)"/>
</g>
<g clip-path="url(#clip21_1237_2635)">
<rect x="550" y="242" width="16" height="16" fill="var(--component-illustration-color, #666)"/>
</g>
<g clip-path="url(#clip22_1237_2635)">
<rect x="589" y="242" width="16" height="16" fill="var(--component-illustration-color, #666)"/>
</g>
<g clip-path="url(#clip23_1237_2635)">
<rect x="355" y="282" width="16" height="16" fill="var(--component-illustration-color, #666)"/>
</g>
<g clip-path="url(#clip24_1237_2635)">
<rect x="394" y="282" width="16" height="16" fill="var(--component-illustration-color, #666)"/>
</g>
<g clip-path="url(#clip25_1237_2635)">
<rect x="433" y="282" width="16" height="16" fill="var(--component-illustration-color, #666)"/>
</g>
<g clip-path="url(#clip26_1237_2635)">
<rect x="472" y="282" width="16" height="16" fill="var(--component-illustration-color, #666)"/>
</g>
<g clip-path="url(#clip27_1237_2635)">
<rect x="511" y="282" width="16" height="16" fill="var(--component-illustration-color, #666)"/>
</g>
<g clip-path="url(#clip28_1237_2635)">
<rect x="550" y="282" width="16" height="16" fill="var(--component-illustration-color, #666)"/>
</g>
<g clip-path="url(#clip29_1237_2635)">
<rect x="589" y="282" width="16" height="16" fill="var(--component-illustration-color, #666)"/>
</g>
<g clip-path="url(#clip30_1237_2635)">
<rect x="355" y="322" width="16" height="16" fill="var(--component-illustration-color, #666)"/>
</g>
<g clip-path="url(#clip31_1237_2635)">
<rect x="394" y="322" width="16" height="16" fill="var(--component-illustration-color, #666)"/>
</g>
<g clip-path="url(#clip32_1237_2635)">
<rect x="433" y="322" width="16" height="16" fill="var(--component-illustration-color, #666)"/>
</g>
<g clip-path="url(#clip33_1237_2635)">
<rect x="472" y="322" width="16" height="16" fill="var(--component-illustration-color, #666)"/>
</g>
<g clip-path="url(#clip34_1237_2635)">
<rect x="511" y="322" width="16" height="16" fill="var(--component-illustration-color, #666)"/>
</g>
<g clip-path="url(#clip35_1237_2635)">
<rect x="550" y="322" width="16" height="16" fill="var(--component-illustration-color, #666)"/>
</g>
<g clip-path="url(#clip36_1237_2635)">
<rect x="589" y="322" width="16" height="16" fill="var(--component-illustration-color, #666)"/>
</g>
<g clip-path="url(#clip37_1237_2635)">
<rect x="355" y="362" width="16" height="16" fill="var(--component-illustration-color, #666)"/>
</g>
<g clip-path="url(#clip38_1237_2635)">
<rect x="394" y="362" width="16" height="16" fill="var(--component-illustration-color, #666)"/>
</g>
<g clip-path="url(#clip39_1237_2635)">
<rect x="433" y="362" width="16" height="16" fill="var(--component-illustration-color, #666)"/>
</g>
<g clip-path="url(#clip40_1237_2635)">
<rect x="472" y="362" width="16" height="16" fill="var(--component-illustration-color, #666)"/>
</g>
<g clip-path="url(#clip41_1237_2635)">
<rect x="511" y="362" width="16" height="16" fill="var(--component-illustration-background-color, white)"/>
</g>
<g clip-path="url(#clip42_1237_2635)">
<rect x="550" y="362" width="16" height="16" fill="var(--component-illustration-background-color, white)"/>
</g>
<g clip-path="url(#clip43_1237_2635)">
<rect x="589" y="362" width="16" height="16" fill="var(--component-illustration-background-color, white)"/>
</g>
<g clip-path="url(#clip44_1237_2635)">
<circle cx="519" cy="250" r="22" stroke="var(--component-illustration-color, #666)" stroke-width="4"/>
</g>
</g>
<defs>
</defs>
</svg>
