<svg width="359" height="206" fill="none" xmlns="http://www.w3.org/2000/svg"><path fill="#fff" d="M0 0h359v144H0z"/><path stroke="green" stroke-width="2" d="M16 31v113"/><rect width="32" height="32" rx="16" fill="green"/><path d="M14.79 21.023c.523 0 .929-.187 1.21-.601l5.633-8.453c.195-.297.281-.586.281-.852 0-.742-.578-1.289-1.336-1.289-.515 0-.844.18-1.156.68l-4.656 7.305-2.336-2.774a1.253 1.253 0 0 0-1.024-.469c-.758 0-1.32.555-1.32 1.297 0 .336.094.61.383.938l3.156 3.695c.313.367.688.523 1.164.523ZM44 0h315v120H44z" fill="#fff"/><path d="M54.21 6.22c1.776 0 3.156.57 4.14 1.71.996 1.14 1.494 2.748 1.494 4.824 0 1.356-.228 2.526-.684 3.51-.444.984-1.092 1.74-1.944 2.268-.84.516-1.842.774-3.006.774-1.164 0-2.166-.258-3.006-.774-.84-.516-1.488-1.26-1.944-2.232-.444-.984-.666-2.166-.666-3.546 0-1.344.222-2.508.666-3.492.456-.984 1.104-1.734 1.944-2.25.84-.528 1.842-.792 3.006-.792Zm0 2.16c-.852 0-1.488.348-1.908 1.044-.408.684-.612 1.794-.612 3.33s.21 2.652.63 3.348c.42.696 1.05 1.044 1.89 1.044.864 0 1.5-.342 1.908-1.026.42-.696.63-1.818.63-3.366s-.21-2.664-.63-3.348c-.42-.684-1.056-1.026-1.908-1.026Zm12.95.756c.827 0 1.475.252 1.943.756.468.504.702 1.212.702 2.124V19h-2.844v-6.498c0-.48-.078-.81-.234-.99-.144-.192-.366-.288-.666-.288-.576 0-1.128.414-1.656 1.242V19h-2.844V9.442h2.484l.198 1.134c.408-.48.846-.84 1.314-1.08.48-.24 1.014-.36 1.602-.36Zm13.358-3.492V19h-2.52l-.144-1.116c-.672.948-1.578 1.422-2.718 1.422-1.188 0-2.094-.456-2.718-1.368-.612-.912-.918-2.16-.918-3.744 0-.972.162-1.842.486-2.61.324-.768.78-1.368 1.368-1.8a3.423 3.423 0 0 1 2.052-.648c.912 0 1.668.3 2.268.9V5.338l2.844.306Zm-4.5 11.574c.66 0 1.212-.36 1.656-1.08v-4.122a2.493 2.493 0 0 0-.702-.612 1.552 1.552 0 0 0-.792-.198c-.528 0-.948.246-1.26.738-.312.492-.468 1.248-.468 2.268 0 1.116.132 1.896.396 2.34.276.444.666.666 1.17.666Zm15.059-3.186c0 .396-.018.738-.054 1.026h-5.922c.096.804.324 1.368.684 1.692.36.324.858.486 1.494.486.384 0 .756-.066 1.116-.198.36-.144.75-.36 1.17-.648l1.17 1.584c-1.116.888-2.358 1.332-3.726 1.332-1.548 0-2.736-.456-3.564-1.368-.828-.912-1.242-2.136-1.242-3.672 0-.972.174-1.842.522-2.61.348-.78.858-1.392 1.53-1.836.672-.456 1.476-.684 2.412-.684 1.38 0 2.46.432 3.24 1.296.78.864 1.17 2.064 1.17 3.6Zm-2.79-.81c-.024-1.464-.54-2.196-1.548-2.196-.492 0-.876.18-1.152.54-.264.36-.426.954-.486 1.782h3.186v-.126Zm9.572-4.05a3.4 3.4 0 0 1 .954.126l-.45 2.754a4.017 4.017 0 0 0-.864-.126c-.564 0-.996.198-1.296.594-.288.384-.516.966-.684 1.746V19h-2.844V9.442h2.484l.234 1.854c.216-.66.54-1.176.972-1.548.444-.384.942-.576 1.494-.576Zm8.596.27v1.998l-4.32 5.4h4.41l-.252 2.16h-7.452v-2.016l4.338-5.4h-3.96V9.442h7.236Zm5.512-.306c1.464 0 2.61.45 3.438 1.35.828.888 1.242 2.136 1.242 3.744 0 1.02-.192 1.914-.576 2.682a4.116 4.116 0 0 1-1.62 1.764c-.696.42-1.524.63-2.484.63-1.452 0-2.598-.444-3.438-1.332-.828-.9-1.242-2.154-1.242-3.762 0-1.02.186-1.908.558-2.664.384-.768.924-1.362 1.62-1.782.708-.42 1.542-.63 2.502-.63Zm0 2.088c-.576 0-1.008.246-1.296.738-.288.48-.432 1.23-.432 2.25 0 1.044.138 1.806.414 2.286.288.48.726.72 1.314.72.576 0 1.008-.24 1.296-.72.288-.492.432-1.248.432-2.268 0-1.044-.144-1.806-.432-2.286-.276-.48-.708-.72-1.296-.72Zm14.706 2.808c0 .396-.018.738-.054 1.026h-5.922c.096.804.324 1.368.684 1.692.36.324.858.486 1.494.486.384 0 .756-.066 1.116-.198.36-.144.75-.36 1.17-.648l1.17 1.584c-1.116.888-2.358 1.332-3.726 1.332-1.548 0-2.736-.456-3.564-1.368-.828-.912-1.242-2.136-1.242-3.672 0-.972.174-1.842.522-2.61.348-.78.858-1.392 1.53-1.836.672-.456 1.476-.684 2.412-.684 1.38 0 2.46.432 3.24 1.296.78.864 1.17 2.064 1.17 3.6Zm-2.79-.81c-.024-1.464-.54-2.196-1.548-2.196-.492 0-.876.18-1.152.54-.264.36-.426.954-.486 1.782h3.186v-.126Zm7.231-7.884V19h-2.844V5.644l2.844-.306Zm5.904 4.104-2.898 4.194L137.252 19h-3.204l-2.844-5.22 2.916-4.338h2.898Zm11.053-.306c.828 0 1.476.252 1.944.756.468.504.702 1.212.702 2.124V19h-2.844v-6.498c0-.48-.078-.81-.234-.99-.144-.192-.366-.288-.666-.288-.576 0-1.128.414-1.656 1.242V19h-2.844V9.442h2.484l.198 1.134c.408-.48.846-.84 1.314-1.08.48-.24 1.014-.36 1.602-.36Zm12.387 7.092c0 .36.048.624.144.792a.974.974 0 0 0 .504.378l-.594 1.854c-.588-.048-1.068-.174-1.44-.378-.372-.216-.66-.552-.864-1.008-.624.96-1.584 1.44-2.88 1.44-.948 0-1.704-.276-2.268-.828-.564-.552-.846-1.272-.846-2.16 0-1.044.384-1.842 1.152-2.394.768-.552 1.878-.828 3.33-.828h.972v-.414c0-.564-.12-.948-.36-1.152-.24-.216-.66-.324-1.26-.324-.312 0-.69.048-1.134.144-.444.084-.9.204-1.368.36l-.648-1.872c.6-.228 1.212-.402 1.836-.522a9.56 9.56 0 0 1 1.764-.18c1.368 0 2.37.282 3.006.846.636.564.954 1.41.954 2.538v3.708Zm-4.302 1.044c.648 0 1.152-.306 1.512-.918v-1.692h-.702c-.648 0-1.134.114-1.458.342-.312.228-.468.582-.468 1.062 0 .384.096.684.288.9.204.204.48.306.828.306Zm14.076-1.044c0 .36.048.624.144.792a.974.974 0 0 0 .504.378l-.594 1.854c-.588-.048-1.068-.174-1.44-.378-.372-.216-.66-.552-.864-1.008-.624.96-1.584 1.44-2.88 1.44-.948 0-1.704-.276-2.268-.828-.564-.552-.846-1.272-.846-2.16 0-1.044.384-1.842 1.152-2.394.768-.552 1.878-.828 3.33-.828h.972v-.414c0-.564-.12-.948-.36-1.152-.24-.216-.66-.324-1.26-.324-.312 0-.69.048-1.134.144-.444.084-.9.204-1.368.36l-.648-1.872c.6-.228 1.212-.402 1.836-.522a9.56 9.56 0 0 1 1.764-.18c1.368 0 2.37.282 3.006.846.636.564.954 1.41.954 2.538v3.708Zm-4.302 1.044c.648 0 1.152-.306 1.512-.918v-1.692h-.702c-.648 0-1.134.114-1.458.342-.312.228-.468.582-.468 1.062 0 .384.096.684.288.9.204.204.48.306.828.306Zm11.751-8.1a3.4 3.4 0 0 1 .954.126l-.45 2.754a4.017 4.017 0 0 0-.864-.126c-.564 0-.996.198-1.296.594-.288.384-.516.966-.684 1.746V19h-2.844V9.442h2.484l.234 1.854c.216-.66.54-1.176.972-1.548.444-.384.942-.576 1.494-.576Zm15.114.828c-.624.252-1.542.378-2.754.378.624.264 1.08.588 1.368.972.288.384.432.882.432 1.494s-.162 1.164-.486 1.656c-.324.48-.792.858-1.404 1.134-.6.276-1.308.414-2.124.414a5.41 5.41 0 0 1-1.098-.108.55.55 0 0 0-.234.234.675.675 0 0 0-.072.306c0 .18.066.324.198.432.144.096.426.144.846.144h1.44c.732 0 1.374.12 1.926.36.552.24.978.57 1.278.99.3.42.45.894.45 1.422 0 .996-.432 1.77-1.296 2.322-.852.564-2.088.846-3.708.846-1.164 0-2.082-.126-2.754-.378-.672-.24-1.146-.582-1.422-1.026-.264-.444-.396-1.002-.396-1.674h2.556c0 .288.054.516.162.684.12.168.33.294.63.378.3.084.732.126 1.296.126.78 0 1.32-.096 1.62-.288.3-.18.45-.444.45-.792a.805.805 0 0 0-.342-.684c-.228-.168-.57-.252-1.026-.252h-1.386c-.984 0-1.722-.174-2.214-.522-.48-.36-.72-.816-.72-1.368 0-.348.102-.684.306-1.008.204-.336.48-.612.828-.828-.6-.324-1.038-.702-1.314-1.134-.264-.444-.396-.978-.396-1.602 0-1.068.384-1.914 1.152-2.538.768-.636 1.782-.954 3.042-.954.96.024 1.77-.072 2.43-.288a10.19 10.19 0 0 0 2.07-.954l.666 2.106Zm-5.094 1.008c-.444 0-.798.144-1.062.432-.252.276-.378.66-.378 1.152 0 .516.126.918.378 1.206.264.276.618.414 1.062.414.468 0 .822-.138 1.062-.414.252-.276.378-.69.378-1.242 0-1.032-.48-1.548-1.44-1.548Zm14.136 3.024c0 .396-.018.738-.054 1.026h-5.922c.096.804.324 1.368.684 1.692.36.324.858.486 1.494.486.384 0 .756-.066 1.116-.198.36-.144.75-.36 1.17-.648l1.17 1.584c-1.116.888-2.358 1.332-3.726 1.332-1.548 0-2.736-.456-3.564-1.368-.828-.912-1.242-2.136-1.242-3.672 0-.972.174-1.842.522-2.61.348-.78.858-1.392 1.53-1.836.672-.456 1.476-.684 2.412-.684 1.38 0 2.46.432 3.24 1.296.78.864 1.17 2.064 1.17 3.6Zm-2.79-.81c-.024-1.464-.54-2.196-1.548-2.196-.492 0-.876.18-1.152.54-.264.36-.426.954-.486 1.782h3.186v-.126Zm6.925 6.084c-.828 0-1.476-.234-1.944-.702-.456-.48-.684-1.158-.684-2.034V5.644l2.844-.306v11.124c0 .396.162.594.486.594.168 0 .324-.03.468-.09l.558 2.016a4.434 4.434 0 0 1-1.728.324Zm10.87-.306h-2.466l-.126-1.206c-.696 1.008-1.662 1.512-2.898 1.512-.876 0-1.542-.264-1.998-.792-.444-.528-.666-1.266-.666-2.214V9.442h2.844v6.498c0 .468.072.798.216.99.156.18.39.27.702.27.6 0 1.116-.372 1.548-1.116V9.442h2.844V19Zm5.081-9.558V19h-2.844V9.442h2.844Zm-1.44-5.04c.492 0 .894.156 1.206.468.324.3.486.684.486 1.152 0 .468-.162.858-.486 1.17-.312.3-.714.45-1.206.45s-.894-.15-1.206-.45c-.312-.312-.468-.702-.468-1.17 0-.468.156-.852.468-1.152.312-.312.714-.468 1.206-.468Zm12.244 1.242V19h-2.52l-.144-1.116c-.672.948-1.578 1.422-2.718 1.422-1.188 0-2.094-.456-2.718-1.368-.612-.912-.918-2.16-.918-3.744 0-.972.162-1.842.486-2.61.324-.768.78-1.368 1.368-1.8a3.423 3.423 0 0 1 2.052-.648c.912 0 1.668.3 2.268.9V5.338l2.844.306Zm-4.5 11.574c.66 0 1.212-.36 1.656-1.08v-4.122a2.493 2.493 0 0 0-.702-.612 1.552 1.552 0 0 0-.792-.198c-.528 0-.948.246-1.26.738-.312.492-.468 1.248-.468 2.268 0 1.116.132 1.896.396 2.34.276.444.666.666 1.17.666Zm10.091-8.082c.684 0 1.326.102 1.926.306.6.204 1.128.492 1.584.864l-1.044 1.602c-.78-.492-1.566-.738-2.358-.738-.372 0-.66.066-.864.198a.58.58 0 0 0-.288.522c0 .18.042.33.126.45.096.108.282.222.558.342.276.12.702.264 1.278.432.996.288 1.734.666 2.214 1.134.492.456.738 1.092.738 1.908 0 .648-.186 1.212-.558 1.692-.372.468-.882.828-1.53 1.08-.648.252-1.368.378-2.16.378a6.56 6.56 0 0 1-2.25-.378 5.166 5.166 0 0 1-1.746-1.044l1.386-1.548c.804.624 1.65.936 2.538.936.432 0 .768-.078 1.008-.234a.74.74 0 0 0 .378-.666c0-.228-.048-.408-.144-.54-.096-.132-.282-.252-.558-.36-.276-.12-.714-.264-1.314-.432-.948-.276-1.656-.66-2.124-1.152-.468-.492-.702-1.104-.702-1.836 0-.552.156-1.044.468-1.476.324-.444.78-.792 1.368-1.044.6-.264 1.29-.396 2.07-.396Zm9.475 0c1.464 0 2.61.45 3.438 1.35.828.888 1.242 2.136 1.242 3.744 0 1.02-.192 1.914-.576 2.682a4.116 4.116 0 0 1-1.62 1.764c-.696.42-1.524.63-2.484.63-1.452 0-2.598-.444-3.438-1.332-.828-.9-1.242-2.154-1.242-3.762 0-1.02.186-1.908.558-2.664.384-.768.924-1.362 1.62-1.782.708-.42 1.542-.63 2.502-.63Zm0 2.088c-.576 0-1.008.246-1.296.738-.288.48-.432 1.23-.432 2.25 0 1.044.138 1.806.414 2.286.288.48.726.72 1.314.72.576 0 1.008-.24 1.296-.72.288-.492.432-1.248.432-2.268 0-1.044-.144-1.806-.432-2.286-.276-.48-.708-.72-1.296-.72Zm14.457-1.782L259.244 19h-3.366L252.8 9.442h3.096l1.692 7.398 1.764-7.398h2.898Zm9.196 4.59c0 .396-.018.738-.054 1.026h-5.922c.096.804.324 1.368.684 1.692.36.324.858.486 1.494.486.384 0 .756-.066 1.116-.198.36-.144.75-.36 1.17-.648l1.17 1.584c-1.116.888-2.358 1.332-3.726 1.332-1.548 0-2.736-.456-3.564-1.368-.828-.912-1.242-2.136-1.242-3.672 0-.972.174-1.842.522-2.61.348-.78.858-1.392 1.53-1.836.672-.456 1.476-.684 2.412-.684 1.38 0 2.46.432 3.24 1.296.78.864 1.17 2.064 1.17 3.6Zm-2.79-.81c-.024-1.464-.54-2.196-1.548-2.196-.492 0-.876.18-1.152.54-.264.36-.426.954-.486 1.782h3.186v-.126Zm9.572-4.05a3.4 3.4 0 0 1 .954.126l-.45 2.754a4.017 4.017 0 0 0-.864-.126c-.564 0-.996.198-1.296.594-.288.384-.516.966-.684 1.746V19h-2.844V9.442h2.484l.234 1.854c.216-.66.54-1.176.972-1.548.444-.384.942-.576 1.494-.576Zm4.578 10.134c-.828 0-1.476-.234-1.944-.702-.456-.48-.684-1.158-.684-2.034V5.644l2.844-.306v11.124c0 .396.162.594.486.594.168 0 .324-.03.468-.09l.558 2.016a4.434 4.434 0 0 1-1.728.324Zm10.314-3.078c0 .36.048.624.144.792a.974.974 0 0 0 .504.378l-.594 1.854c-.588-.048-1.068-.174-1.44-.378-.372-.216-.66-.552-.864-1.008-.624.96-1.584 1.44-2.88 1.44-.948 0-1.704-.276-2.268-.828-.564-.552-.846-1.272-.846-2.16 0-1.044.384-1.842 1.152-2.394.768-.552 1.878-.828 3.33-.828h.972v-.414c0-.564-.12-.948-.36-1.152-.24-.216-.66-.324-1.26-.324-.312 0-.69.048-1.134.144-.444.084-.9.204-1.368.36l-.648-1.872c.6-.228 1.212-.402 1.836-.522a9.56 9.56 0 0 1 1.764-.18c1.368 0 2.37.282 3.006.846.636.564.954 1.41.954 2.538v3.708Zm-4.302 1.044c.648 0 1.152-.306 1.512-.918v-1.692h-.702c-.648 0-1.134.114-1.458.342-.312.228-.468.582-.468 1.062 0 .384.096.684.288.9.204.204.48.306.828.306Zm9.758-8.136c.684 0 1.326.102 1.926.306.6.204 1.128.492 1.584.864l-1.044 1.602c-.78-.492-1.566-.738-2.358-.738-.372 0-.66.066-.864.198a.58.58 0 0 0-.288.522c0 .18.042.33.126.45.096.108.282.222.558.342.276.12.702.264 1.278.432.996.288 1.734.666 2.214 1.134.492.456.738 1.092.738 1.908 0 .648-.186 1.212-.558 1.692-.372.468-.882.828-1.53 1.08-.648.252-1.368.378-2.16.378a6.56 6.56 0 0 1-2.25-.378 5.166 5.166 0 0 1-1.746-1.044l1.386-1.548c.804.624 1.65.936 2.538.936.432 0 .768-.078 1.008-.234a.74.74 0 0 0 .378-.666c0-.228-.048-.408-.144-.54-.096-.132-.282-.252-.558-.36-.276-.12-.714-.264-1.314-.432-.948-.276-1.656-.66-2.124-1.152-.468-.492-.702-1.104-.702-1.836 0-.552.156-1.044.468-1.476.324-.444.78-.792 1.368-1.044.6-.264 1.29-.396 2.07-.396Zm11.329 9.414c-.348.24-.756.426-1.224.558a4.9 4.9 0 0 1-1.368.198c-2.088-.012-3.132-1.164-3.132-3.456v-4.428h-1.35v-1.98h1.35v-2.07l2.844-.324v2.394h2.196l-.306 1.98h-1.89v4.392c0 .444.072.762.216.954.144.192.372.288.684.288.324 0 .666-.102 1.026-.306l.954 1.8Z" fill="#1C1C1C"/><path d="m324 11 6 6 6-6" stroke="#3F3F3F" stroke-width="2" stroke-linecap="round" stroke-linejoin="round"/><path d="m52.406 59-.936-3.114h-4.698L45.836 59h-1.728l3.978-12.402h2.16L54.206 59h-1.8Zm-5.22-4.5h3.87l-1.926-6.48-1.944 6.48Zm12.064-7.668c-.504 0-.864.114-1.08.342-.216.216-.324.558-.324 1.026v1.314h2.304l-.18 1.278h-2.124V59H56.19v-8.208h-1.692v-1.278h1.692v-1.296c0-.816.258-1.47.774-1.962.528-.504 1.26-.756 2.196-.756.432 0 .816.042 1.152.126.348.072.72.192 1.116.36l-.522 1.206a4.04 4.04 0 0 0-1.656-.36Zm5.294 2.466c.648 0 1.23.09 1.746.27.516.18 1.008.45 1.476.81l-.702 1.044a5.648 5.648 0 0 0-1.242-.612 3.74 3.74 0 0 0-1.224-.198c-.54 0-.966.114-1.278.342a1.034 1.034 0 0 0-.468.9c0 .384.144.684.432.9.3.216.834.426 1.602.63 1.056.264 1.842.624 2.358 1.08.528.456.792 1.08.792 1.872 0 .936-.366 1.65-1.098 2.142-.72.492-1.602.738-2.646.738-1.44 0-2.634-.414-3.582-1.242l.882-1.008c.804.612 1.692.918 2.664.918.624 0 1.116-.126 1.476-.378.372-.264.558-.618.558-1.062 0-.324-.066-.582-.198-.774-.132-.204-.36-.378-.684-.522-.324-.156-.798-.318-1.422-.486-1.008-.264-1.74-.618-2.196-1.062-.444-.444-.666-1.008-.666-1.692 0-.492.144-.936.432-1.332.3-.408.708-.72 1.224-.936a4.405 4.405 0 0 1 1.764-.342Zm10.184 0c1.212 0 2.1.432 2.664 1.296.564.864.846 2.082.846 3.654 0 1.488-.324 2.688-.972 3.6-.648.912-1.566 1.368-2.754 1.368-1.056 0-1.884-.36-2.484-1.08v4.5l-1.656.198v-13.32h1.422l.126 1.278c.348-.48.768-.846 1.26-1.098a3.23 3.23 0 0 1 1.548-.396Zm-.612 8.568c1.56 0 2.34-1.206 2.34-3.618 0-2.424-.714-3.636-2.142-3.636a2.14 2.14 0 0 0-1.278.414c-.384.276-.72.63-1.008 1.062v4.626c.24.372.54.66.9.864.36.192.756.288 1.188.288Zm11.066-8.568c.336 0 .648.036.936.108l-.306 1.62a3.413 3.413 0 0 0-.828-.108c-.588 0-1.062.216-1.422.648-.36.432-.642 1.104-.846 2.016V59H81.06v-9.486h1.422l.162 1.926c.252-.708.594-1.242 1.026-1.602a2.29 2.29 0 0 1 1.512-.54Zm8.578 7.488c0 .384.066.672.198.864.132.18.33.318.594.414l-.378 1.152c-.492-.06-.888-.198-1.188-.414-.3-.216-.522-.552-.666-1.008-.636.948-1.578 1.422-2.826 1.422-.936 0-1.674-.264-2.214-.792s-.81-1.218-.81-2.07c0-1.008.36-1.782 1.08-2.322.732-.54 1.764-.81 3.096-.81h1.458v-.702c0-.672-.162-1.152-.486-1.44-.324-.288-.822-.432-1.494-.432-.696 0-1.548.168-2.556.504l-.414-1.206c1.176-.432 2.268-.648 3.276-.648 1.116 0 1.95.276 2.502.828.552.54.828 1.314.828 2.322v4.338Zm-3.888 1.188c.948 0 1.692-.492 2.232-1.476V54.32h-1.242c-1.752 0-2.628.648-2.628 1.944 0 .564.138.99.414 1.278.276.288.684.432 1.224.432Zm13.591-1.188c0 .384.066.672.198.864.132.18.33.318.594.414l-.378 1.152c-.492-.06-.888-.198-1.188-.414-.3-.216-.522-.552-.666-1.008-.636.948-1.578 1.422-2.826 1.422-.936 0-1.674-.264-2.214-.792s-.81-1.218-.81-2.07c0-1.008.36-1.782 1.08-2.322.732-.54 1.764-.81 3.096-.81h1.458v-.702c0-.672-.162-1.152-.486-1.44-.324-.288-.822-.432-1.494-.432-.696 0-1.548.168-2.556.504l-.414-1.206c1.176-.432 2.268-.648 3.276-.648 1.116 0 1.95.276 2.502.828.552.54.828 1.314.828 2.322v4.338Zm-3.888 1.188c.948 0 1.692-.492 2.232-1.476V54.32h-1.242c-1.752 0-2.628.648-2.628 1.944 0 .564.138.99.414 1.278.276.288.684.432 1.224.432ZM108.52 45.5V59h-1.656V45.698l1.656-.198Zm5.454 4.014-3.492 4.194L114.37 59h-1.98l-3.762-5.184 3.492-4.302h1.854Zm16.387-.216c.78 0 1.404.264 1.872.792.468.516.702 1.218.702 2.106V59h-1.656v-6.57c0-1.224-.444-1.836-1.332-1.836-.468 0-.864.138-1.188.414-.324.264-.672.684-1.044 1.26V59h-1.656v-6.57c0-1.224-.444-1.836-1.332-1.836-.48 0-.882.138-1.206.414-.324.276-.666.696-1.026 1.26V59h-1.656v-9.486h1.422l.144 1.386c.708-1.068 1.62-1.602 2.736-1.602.588 0 1.086.15 1.494.45.42.3.72.72.9 1.26.372-.552.78-.972 1.224-1.26.456-.3.99-.45 1.602-.45Zm13.076 4.68c0 .276-.012.558-.036.846h-6.048c.072 1.044.336 1.812.792 2.304.456.492 1.044.738 1.764.738.456 0 .876-.066 1.26-.198a5.081 5.081 0 0 0 1.206-.63l.72.99c-1.008.792-2.112 1.188-3.312 1.188-1.32 0-2.352-.432-3.096-1.296-.732-.864-1.098-2.052-1.098-3.564 0-.984.156-1.854.468-2.61.324-.768.78-1.368 1.368-1.8.6-.432 1.302-.648 2.106-.648 1.26 0 2.226.414 2.898 1.242.672.828 1.008 1.974 1.008 3.438Zm-1.638-.486c0-.936-.186-1.65-.558-2.142-.372-.492-.93-.738-1.674-.738-1.356 0-2.094.996-2.214 2.988h4.446v-.108Zm9.07 5.076a3.642 3.642 0 0 1-2.124.648c-.804 0-1.434-.228-1.89-.684-.444-.468-.666-1.14-.666-2.016v-5.724h-1.656v-1.278h1.656v-2.142l1.656-.198v2.34h2.25l-.18 1.278h-2.07v5.652c0 .492.084.852.252 1.08.18.216.474.324.882.324.372 0 .792-.126 1.26-.378l.63 1.098Zm8.616-4.59c0 .276-.012.558-.036.846h-6.048c.072 1.044.336 1.812.792 2.304.456.492 1.044.738 1.764.738.456 0 .876-.066 1.26-.198a5.081 5.081 0 0 0 1.206-.63l.72.99c-1.008.792-2.112 1.188-3.312 1.188-1.32 0-2.352-.432-3.096-1.296-.732-.864-1.098-2.052-1.098-3.564 0-.984.156-1.854.468-2.61.324-.768.78-1.368 1.368-1.8.6-.432 1.302-.648 2.106-.648 1.26 0 2.226.414 2.898 1.242.672.828 1.008 1.974 1.008 3.438Zm-1.638-.486c0-.936-.186-1.65-.558-2.142-.372-.492-.93-.738-1.674-.738-1.356 0-2.094.996-2.214 2.988h4.446v-.108Zm8.747-4.194c.864 0 1.536.258 2.016.774.492.516.738 1.224.738 2.124V59h-1.656v-6.57c0-.672-.126-1.146-.378-1.422s-.624-.414-1.116-.414a2.16 2.16 0 0 0-1.332.432c-.384.288-.744.702-1.08 1.242V59h-1.656v-9.486h1.422l.144 1.404c.336-.504.75-.9 1.242-1.188a3.28 3.28 0 0 1 1.656-.432ZM53.36 71.946c-.36.12-.756.198-1.188.234-.432.036-.96.054-1.584.054 1.116.504 1.674 1.302 1.674 2.394 0 .948-.324 1.722-.972 2.322-.648.6-1.53.9-2.646.9-.432 0-.834-.06-1.206-.18a1.004 1.004 0 0 0-.342.396 1.012 1.012 0 0 0-.126.486c0 .516.414.774 1.242.774h1.512c.636 0 1.2.114 1.692.342.492.228.87.54 1.134.936.276.396.414.846.414 1.35 0 .924-.378 1.632-1.134 2.124-.756.504-1.86.756-3.312.756-1.02 0-1.83-.108-2.43-.324-.588-.204-1.008-.516-1.26-.936-.252-.42-.378-.96-.378-1.62h1.494c0 .384.072.684.216.9.144.228.402.396.774.504.372.12.9.18 1.584.18.996 0 1.704-.126 2.124-.378.432-.24.648-.606.648-1.098 0-.444-.168-.78-.504-1.008-.336-.228-.804-.342-1.404-.342h-1.494c-.804 0-1.416-.168-1.836-.504-.408-.348-.612-.78-.612-1.296 0-.312.09-.612.27-.9.18-.288.438-.546.774-.774-.552-.288-.96-.642-1.224-1.062-.252-.432-.378-.954-.378-1.566 0-.636.156-1.206.468-1.71a3.266 3.266 0 0 1 1.314-1.17 4.056 4.056 0 0 1 1.872-.432c.744.012 1.368-.012 1.872-.072a7.277 7.277 0 0 0 1.242-.27c.336-.12.744-.288 1.224-.504l.486 1.494Zm-4.824.54c-.624 0-1.11.198-1.458.594-.336.384-.504.894-.504 1.53 0 .648.174 1.17.522 1.566.348.384.84.576 1.476.576.648 0 1.14-.186 1.476-.558.348-.384.522-.918.522-1.602 0-1.404-.678-2.106-2.034-2.106Zm13.408 3.492c0 .276-.012.558-.036.846H55.86c.072 1.044.336 1.812.792 2.304.456.492 1.044.738 1.764.738.456 0 .876-.066 1.26-.198a5.081 5.081 0 0 0 1.206-.63l.72.99c-1.008.792-2.112 1.188-3.312 1.188-1.32 0-2.352-.432-3.096-1.296-.732-.864-1.098-2.052-1.098-3.564 0-.984.156-1.854.468-2.61.324-.768.78-1.368 1.368-1.8.6-.432 1.302-.648 2.106-.648 1.26 0 2.226.414 2.898 1.242.672.828 1.008 1.974 1.008 3.438Zm-1.638-.486c0-.936-.186-1.65-.558-2.142-.372-.492-.93-.738-1.674-.738-1.356 0-2.094.996-2.214 2.988h4.446v-.108Zm6.173 5.724c-.612 0-1.098-.18-1.458-.54-.348-.372-.522-.888-.522-1.548v-11.43l1.656-.198v11.592c0 .264.042.456.126.576.096.12.252.18.468.18.228 0 .432-.036.612-.108l.432 1.152a2.699 2.699 0 0 1-1.314.324ZM76.919 81h-1.423l-.126-1.476c-.36.588-.774 1.02-1.242 1.296-.468.264-1.038.396-1.71.396-.828 0-1.476-.252-1.944-.756-.468-.504-.702-1.218-.702-2.142v-6.804h1.656v6.624c0 .648.114 1.11.342 1.386.228.264.6.396 1.116.396.924 0 1.716-.546 2.376-1.638v-6.768h1.656V81Zm5.076-9.486V81h-1.656v-9.486h1.656Zm-.846-4.554c.348 0 .63.108.846.324.216.216.324.486.324.81 0 .324-.108.594-.324.81-.216.204-.498.306-.846.306-.336 0-.612-.102-.828-.306a1.099 1.099 0 0 1-.324-.81c0-.324.108-.594.324-.81.216-.216.492-.324.828-.324Zm11.614.738V81h-1.458l-.162-1.314c-.312.48-.702.858-1.17 1.134-.468.264-.99.396-1.566.396-1.128 0-2.01-.444-2.646-1.332-.624-.888-.936-2.082-.936-3.582 0-.972.15-1.836.45-2.592.3-.756.732-1.344 1.296-1.764.564-.432 1.224-.648 1.98-.648.972 0 1.824.39 2.556 1.17V67.5l1.656.198Zm-3.996 12.204c.504 0 .936-.114 1.296-.342.36-.24.708-.594 1.044-1.062v-4.644c-.312-.408-.648-.714-1.008-.918a2.206 2.206 0 0 0-1.188-.324c-.732 0-1.302.306-1.71.918-.396.612-.594 1.524-.594 2.736 0 1.224.186 2.136.558 2.736.372.6.906.9 1.602.9Zm9.984-8.604c.648 0 1.23.09 1.746.27.516.18 1.008.45 1.476.81l-.702 1.044a5.648 5.648 0 0 0-1.242-.612 3.741 3.741 0 0 0-1.224-.198c-.54 0-.966.114-1.278.342a1.034 1.034 0 0 0-.468.9c0 .384.144.684.432.9.3.216.834.426 1.602.63 1.056.264 1.842.624 2.358 1.08.528.456.792 1.08.792 1.872 0 .936-.366 1.65-1.098 2.142-.72.492-1.602.738-2.646.738-1.44 0-2.634-.414-3.582-1.242l.882-1.008c.804.612 1.692.918 2.664.918.624 0 1.116-.126 1.476-.378.372-.264.558-.618.558-1.062 0-.324-.066-.582-.198-.774-.132-.204-.36-.378-.684-.522-.324-.156-.798-.318-1.422-.486-1.008-.264-1.74-.618-2.196-1.062-.444-.444-.666-1.008-.666-1.692 0-.492.144-.936.432-1.332.3-.408.708-.72 1.224-.936a4.405 4.405 0 0 1 1.764-.342Zm9.392 0c1.332 0 2.364.444 3.096 1.332.744.888 1.116 2.094 1.116 3.618 0 .984-.168 1.854-.504 2.61-.336.744-.822 1.326-1.458 1.746-.636.408-1.392.612-2.268.612-1.332 0-2.37-.444-3.114-1.332-.744-.888-1.116-2.094-1.116-3.618 0-.984.168-1.848.504-2.592.336-.756.822-1.338 1.458-1.746.636-.42 1.398-.63 2.286-.63Zm0 1.332c-1.644 0-2.466 1.212-2.466 3.636 0 2.412.816 3.618 2.448 3.618 1.632 0 2.448-1.212 2.448-3.636 0-2.412-.81-3.618-2.43-3.618Zm13.844-1.116L118.765 81h-1.998l-3.276-9.486h1.8l2.484 8.01 2.466-8.01h1.746Zm8.987 4.464c0 .276-.012.558-.036.846h-6.048c.072 1.044.336 1.812.792 2.304.456.492 1.044.738 1.764.738.456 0 .876-.066 1.26-.198a5.081 5.081 0 0 0 1.206-.63l.72.99c-1.008.792-2.112 1.188-3.312 1.188-1.32 0-2.352-.432-3.096-1.296-.732-.864-1.098-2.052-1.098-3.564 0-.984.156-1.854.468-2.61.324-.768.78-1.368 1.368-1.8.6-.432 1.302-.648 2.106-.648 1.26 0 2.226.414 2.898 1.242.672.828 1.008 1.974 1.008 3.438Zm-1.638-.486c0-.936-.186-1.65-.558-2.142-.372-.492-.93-.738-1.674-.738-1.356 0-2.094.996-2.214 2.988h4.446v-.108Zm8.404-4.194c.336 0 .648.036.936.108l-.306 1.62a3.413 3.413 0 0 0-.828-.108c-.588 0-1.062.216-1.422.648-.36.432-.642 1.104-.846 2.016V81h-1.656v-9.486h1.422l.162 1.926c.252-.708.594-1.242 1.026-1.602a2.29 2.29 0 0 1 1.512-.54Zm4.712 9.918c-.612 0-1.098-.18-1.458-.54-.348-.372-.522-.888-.522-1.548v-11.43l1.656-.198v11.592c0 .264.042.456.126.576.096.12.252.18.468.18.228 0 .432-.036.612-.108l.432 1.152a2.699 2.699 0 0 1-1.314.324Zm9.685-2.43c0 .384.066.672.198.864.132.18.33.318.594.414l-.378 1.152c-.492-.06-.888-.198-1.188-.414-.3-.216-.522-.552-.666-1.008-.636.948-1.578 1.422-2.826 1.422-.936 0-1.674-.264-2.214-.792s-.81-1.218-.81-2.07c0-1.008.36-1.782 1.08-2.322.732-.54 1.764-.81 3.096-.81h1.458v-.702c0-.672-.162-1.152-.486-1.44-.324-.288-.822-.432-1.494-.432-.696 0-1.548.168-2.556.504l-.414-1.206c1.176-.432 2.268-.648 3.276-.648 1.116 0 1.95.276 2.502.828.552.54.828 1.314.828 2.322v4.338Zm-3.888 1.188c.948 0 1.692-.492 2.232-1.476V76.32h-1.242c-1.752 0-2.628.648-2.628 1.944 0 .564.138.99.414 1.278.276.288.684.432 1.224.432Zm9.687-8.676c.648 0 1.23.09 1.746.27.516.18 1.008.45 1.476.81l-.702 1.044a5.648 5.648 0 0 0-1.242-.612 3.74 3.74 0 0 0-1.224-.198c-.54 0-.966.114-1.278.342a1.034 1.034 0 0 0-.468.9c0 .384.144.684.432.9.3.216.834.426 1.602.63 1.056.264 1.842.624 2.358 1.08.528.456.792 1.08.792 1.872 0 .936-.366 1.65-1.098 2.142-.72.492-1.602.738-2.646.738-1.44 0-2.634-.414-3.582-1.242l.882-1.008c.804.612 1.692.918 2.664.918.624 0 1.116-.126 1.476-.378.372-.264.558-.618.558-1.062 0-.324-.066-.582-.198-.774-.132-.204-.36-.378-.684-.522-.324-.156-.798-.318-1.422-.486-1.008-.264-1.74-.618-2.196-1.062-.444-.444-.666-1.008-.666-1.692 0-.492.144-.936.432-1.332.3-.408.708-.72 1.224-.936a4.405 4.405 0 0 1 1.764-.342Zm10.617 9.27a3.642 3.642 0 0 1-2.124.648c-.804 0-1.434-.228-1.89-.684-.444-.468-.666-1.14-.666-2.016v-5.724h-1.656v-1.278h1.656v-2.142l1.656-.198v2.34h2.25l-.18 1.278h-2.07v5.652c0 .492.084.852.252 1.08.18.216.474.324.882.324.372 0 .792-.126 1.26-.378l.63 1.098Zm14.129-8.622c-.36.12-.756.198-1.188.234-.432.036-.96.054-1.584.054 1.116.504 1.674 1.302 1.674 2.394 0 .948-.324 1.722-.972 2.322-.648.6-1.53.9-2.646.9-.432 0-.834-.06-1.206-.18a1.004 1.004 0 0 0-.342.396 1.012 1.012 0 0 0-.126.486c0 .516.414.774 1.242.774h1.512c.636 0 1.2.114 1.692.342.492.228.87.54 1.134.936.276.396.414.846.414 1.35 0 .924-.378 1.632-1.134 2.124-.756.504-1.86.756-3.312.756-1.02 0-1.83-.108-2.43-.324-.588-.204-1.008-.516-1.26-.936-.252-.42-.378-.96-.378-1.62h1.494c0 .384.072.684.216.9.144.228.402.396.774.504.372.12.9.18 1.584.18.996 0 1.704-.126 2.124-.378.432-.24.648-.606.648-1.098 0-.444-.168-.78-.504-1.008-.336-.228-.804-.342-1.404-.342h-1.494c-.804 0-1.416-.168-1.836-.504-.408-.348-.612-.78-.612-1.296 0-.312.09-.612.27-.9.18-.288.438-.546.774-.774-.552-.288-.96-.642-1.224-1.062-.252-.432-.378-.954-.378-1.566 0-.636.156-1.206.468-1.71a3.266 3.266 0 0 1 1.314-1.17 4.056 4.056 0 0 1 1.872-.432c.744.012 1.368-.012 1.872-.072a7.277 7.277 0 0 0 1.242-.27c.336-.12.744-.288 1.224-.504l.486 1.494Zm-4.824.54c-.624 0-1.11.198-1.458.594-.336.384-.504.894-.504 1.53 0 .648.174 1.17.522 1.566.348.384.84.576 1.476.576.648 0 1.14-.186 1.476-.558.348-.384.522-.918.522-1.602 0-1.404-.678-2.106-2.034-2.106Zm13.409 3.492c0 .276-.012.558-.036.846h-6.048c.072 1.044.336 1.812.792 2.304.456.492 1.044.738 1.764.738.456 0 .876-.066 1.26-.198a5.081 5.081 0 0 0 1.206-.63l.72.99c-1.008.792-2.112 1.188-3.312 1.188-1.32 0-2.352-.432-3.096-1.296-.732-.864-1.098-2.052-1.098-3.564 0-.984.156-1.854.468-2.61.324-.768.78-1.368 1.368-1.8.6-.432 1.302-.648 2.106-.648 1.26 0 2.226.414 2.898 1.242.672.828 1.008 1.974 1.008 3.438Zm-1.638-.486c0-.936-.186-1.65-.558-2.142-.372-.492-.93-.738-1.674-.738-1.356 0-2.094.996-2.214 2.988h4.446v-.108Zm13.804-4.194c.78 0 1.404.264 1.872.792.468.516.702 1.218.702 2.106V81h-1.656v-6.57c0-1.224-.444-1.836-1.332-1.836-.468 0-.864.138-1.188.414-.324.264-.672.684-1.044 1.26V81h-1.656v-6.57c0-1.224-.444-1.836-1.332-1.836-.48 0-.882.138-1.206.414-.324.276-.666.696-1.026 1.26V81h-1.656v-9.486h1.422l.144 1.386c.708-1.068 1.62-1.602 2.736-1.602.588 0 1.086.15 1.494.45.42.3.72.72.9 1.26.372-.552.78-.972 1.224-1.26.456-.3.99-.45 1.602-.45Zm12.302 7.488c0 .384.066.672.198.864.132.18.33.318.594.414l-.378 1.152c-.492-.06-.888-.198-1.188-.414-.3-.216-.522-.552-.666-1.008-.636.948-1.578 1.422-2.826 1.422-.936 0-1.674-.264-2.214-.792s-.81-1.218-.81-2.07c0-1.008.36-1.782 1.08-2.322.732-.54 1.764-.81 3.096-.81h1.458v-.702c0-.672-.162-1.152-.486-1.44-.324-.288-.822-.432-1.494-.432-.696 0-1.548.168-2.556.504l-.414-1.206c1.176-.432 2.268-.648 3.276-.648 1.116 0 1.95.276 2.502.828.552.54.828 1.314.828 2.322v4.338Zm-3.888 1.188c.948 0 1.692-.492 2.232-1.476V76.32h-1.242c-1.752 0-2.628.648-2.628 1.944 0 .564.138.99.414 1.278.276.288.684.432 1.224.432Zm13.591-1.188c0 .384.066.672.198.864.132.18.33.318.594.414l-.378 1.152c-.492-.06-.888-.198-1.188-.414-.3-.216-.522-.552-.666-1.008-.636.948-1.578 1.422-2.826 1.422-.936 0-1.674-.264-2.214-.792s-.81-1.218-.81-2.07c0-1.008.36-1.782 1.08-2.322.732-.54 1.764-.81 3.096-.81h1.458v-.702c0-.672-.162-1.152-.486-1.44-.324-.288-.822-.432-1.494-.432-.696 0-1.548.168-2.556.504l-.414-1.206c1.176-.432 2.268-.648 3.276-.648 1.116 0 1.95.276 2.502.828.552.54.828 1.314.828 2.322v4.338Zm-3.888 1.188c.948 0 1.692-.492 2.232-1.476V76.32h-1.242c-1.752 0-2.628.648-2.628 1.944 0 .564.138.99.414 1.278.276.288.684.432 1.224.432Zm8.945-12.474V81h-1.656V67.698l1.656-.198Zm5.454 4.014-3.492 4.194L236.345 81h-1.98l-3.762-5.184 3.492-4.302h1.854Zm6.889 9.054a3.642 3.642 0 0 1-2.124.648c-.804 0-1.434-.228-1.89-.684-.444-.468-.666-1.14-.666-2.016v-5.724h-1.656v-1.278h1.656v-2.142l1.656-.198v2.34h2.25l-.18 1.278h-2.07v5.652c0 .492.084.852.252 1.08.18.216.474.324.882.324.372 0 .792-.126 1.26-.378l.63 1.098ZM48.104 102.778c.72 0 1.35.144 1.89.432a3.15 3.15 0 0 1 1.728 2.862c0 .732-.168 1.434-.504 2.106-.324.672-.828 1.398-1.512 2.178s-1.722 1.866-3.114 3.258h5.418L51.812 115h-7.11v-1.314c1.608-1.668 2.748-2.886 3.42-3.654.672-.78 1.152-1.458 1.44-2.034a4.089 4.089 0 0 0 .432-1.854c0-.624-.18-1.11-.54-1.458-.36-.36-.84-.54-1.44-.54-.492 0-.924.102-1.296.306-.372.204-.768.54-1.188 1.008l-1.08-.864c.492-.612 1.038-1.068 1.638-1.368.6-.3 1.272-.45 2.016-.45Zm13.352 7.938v1.314H59.89V115h-1.602v-2.97H53.14v-1.188l3.618-8.064 1.386.576-3.258 7.362h3.42l.144-3.24h1.44v3.24h1.566Zm16.54-5.418c.78 0 1.404.264 1.872.792.468.516.702 1.218.702 2.106V115h-1.656v-6.57c0-1.224-.444-1.836-1.332-1.836-.468 0-.864.138-1.188.414-.324.264-.672.684-1.044 1.26V115h-1.656v-6.57c0-1.224-.444-1.836-1.332-1.836-.48 0-.882.138-1.206.414-.324.276-.666.696-1.026 1.26V115h-1.656v-9.486h1.422l.144 1.386c.708-1.068 1.62-1.602 2.736-1.602.588 0 1.086.15 1.494.45.42.3.72.72.9 1.26.372-.552.78-.972 1.224-1.26.456-.3.99-.45 1.602-.45Zm13.075 4.68c0 .276-.012.558-.036.846h-6.048c.072 1.044.336 1.812.792 2.304.456.492 1.044.738 1.764.738.456 0 .876-.066 1.26-.198a5.081 5.081 0 0 0 1.206-.63l.72.99c-1.008.792-2.112 1.188-3.312 1.188-1.32 0-2.352-.432-3.096-1.296-.732-.864-1.098-2.052-1.098-3.564 0-.984.156-1.854.468-2.61.324-.768.78-1.368 1.368-1.8.6-.432 1.302-.648 2.106-.648 1.26 0 2.226.414 2.898 1.242.672.828 1.008 1.974 1.008 3.438Zm-1.638-.486c0-.936-.186-1.65-.558-2.142-.372-.492-.93-.738-1.674-.738-1.356 0-2.094.996-2.214 2.988h4.446v-.108Zm5.939-3.978V115h-1.656v-9.486h1.656Zm-.846-4.554c.348 0 .63.108.846.324.216.216.324.486.324.81 0 .324-.108.594-.324.81-.216.204-.498.306-.846.306-.336 0-.612-.102-.828-.306a1.099 1.099 0 0 1-.324-.81c0-.324.108-.594.324-.81.216-.216.492-.324.828-.324Z" fill="#646464"/><path fill="#fff" d="M0 144h359v46H0z"/><path transform="matrix(0 -1 -1 0 15 190)" stroke="green" stroke-width="2" d="M0-1h46"/><rect x="9" y="148" width="14" height="14" rx="7" fill="#fff" stroke="green" stroke-width="2"/><path d="M48.86 148.382c.828 0 1.536.12 2.124.36.588.228 1.158.588 1.71 1.08l-.936 1.044c-.468-.372-.93-.642-1.386-.81a3.796 3.796 0 0 0-1.44-.27c-.648 0-1.182.15-1.602.45-.42.3-.63.738-.63 1.314 0 .36.072.666.216.918.144.24.408.462.792.666.396.204.966.42 1.71.648.78.24 1.428.498 1.944.774s.93.66 1.242 1.152c.324.48.486 1.092.486 1.836 0 .72-.18 1.356-.54 1.908-.348.552-.858.984-1.53 1.296-.66.312-1.446.468-2.358.468-1.716 0-3.12-.534-4.212-1.602l.936-1.044a6.33 6.33 0 0 0 1.53.936 4.664 4.664 0 0 0 1.728.306c.768 0 1.404-.186 1.908-.558.504-.384.756-.936.756-1.656 0-.408-.078-.744-.234-1.008-.156-.276-.426-.522-.81-.738-.372-.216-.918-.432-1.638-.648-1.272-.384-2.202-.846-2.79-1.386-.588-.54-.882-1.272-.882-2.196 0-.624.162-1.182.486-1.674.336-.492.798-.876 1.386-1.152.6-.276 1.278-.414 2.034-.414ZM62.575 161h-1.422l-.126-1.476c-.36.588-.774 1.02-1.242 1.296-.468.264-1.038.396-1.71.396-.828 0-1.476-.252-1.944-.756-.468-.504-.702-1.218-.702-2.142v-6.804h1.656v6.624c0 .648.114 1.11.342 1.386.228.264.6.396 1.116.396.924 0 1.716-.546 2.376-1.638v-6.768h1.656V161Zm7.758-9.702c1.08 0 1.938.438 2.574 1.314.636.864.954 2.076.954 3.636 0 .984-.15 1.854-.45 2.61-.3.744-.732 1.326-1.296 1.746-.564.408-1.224.612-1.98.612-.996 0-1.836-.42-2.52-1.26L67.453 161h-1.458v-13.302l1.656-.198v5.202c.684-.936 1.578-1.404 2.682-1.404Zm-.594 8.604c.732 0 1.302-.294 1.71-.882.42-.6.63-1.524.63-2.772 0-1.284-.192-2.208-.576-2.772-.384-.576-.93-.864-1.638-.864-.84 0-1.578.492-2.214 1.476v4.536c.252.396.558.708.918.936.372.228.762.342 1.17.342Zm9.518-8.604c.648 0 1.23.09 1.746.27.516.18 1.008.45 1.476.81l-.702 1.044a5.648 5.648 0 0 0-1.242-.612 3.74 3.74 0 0 0-1.224-.198c-.54 0-.966.114-1.278.342a1.034 1.034 0 0 0-.468.9c0 .384.144.684.432.9.3.216.834.426 1.602.63 1.056.264 1.842.624 2.358 1.08.528.456.792 1.08.792 1.872 0 .936-.366 1.65-1.098 2.142-.72.492-1.602.738-2.646.738-1.44 0-2.634-.414-3.582-1.242l.882-1.008c.804.612 1.692.918 2.664.918.624 0 1.116-.126 1.476-.378.372-.264.558-.618.558-1.062 0-.324-.066-.582-.198-.774-.132-.204-.36-.378-.684-.522-.324-.156-.798-.318-1.422-.486-1.008-.264-1.74-.618-2.196-1.062-.444-.444-.666-1.008-.666-1.692 0-.492.144-.936.432-1.332.3-.408.708-.72 1.224-.936a4.405 4.405 0 0 1 1.764-.342Zm10.616 9.27a3.642 3.642 0 0 1-2.124.648c-.804 0-1.434-.228-1.89-.684-.444-.468-.666-1.14-.666-2.016v-5.724h-1.656v-1.278h1.656v-2.142l1.656-.198v2.34h2.25l-.18 1.278h-2.07v5.652c0 .492.084.852.252 1.08.18.216.474.324.882.324.372 0 .792-.126 1.26-.378l.63 1.098Zm7.983-1.782c0 .384.066.672.198.864.132.18.33.318.594.414l-.378 1.152c-.492-.06-.888-.198-1.188-.414-.3-.216-.522-.552-.666-1.008-.636.948-1.578 1.422-2.826 1.422-.936 0-1.674-.264-2.214-.792s-.81-1.218-.81-2.07c0-1.008.36-1.782 1.08-2.322.732-.54 1.764-.81 3.096-.81H96.2v-.702c0-.672-.162-1.152-.486-1.44-.324-.288-.822-.432-1.494-.432-.696 0-1.548.168-2.556.504l-.414-1.206c1.176-.432 2.268-.648 3.276-.648 1.116 0 1.95.276 2.502.828.552.54.828 1.314.828 2.322v4.338Zm-3.888 1.188c.948 0 1.692-.492 2.232-1.476v-2.178h-1.242c-1.752 0-2.628.648-2.628 1.944 0 .564.138.99.414 1.278.276.288.684.432 1.224.432Zm12.077.594a3.642 3.642 0 0 1-2.124.648c-.804 0-1.434-.228-1.89-.684-.444-.468-.666-1.14-.666-2.016v-5.724h-1.656v-1.278h1.656v-2.142l1.656-.198v2.34h2.25l-.18 1.278h-2.07v5.652c0 .492.084.852.252 1.08.18.216.474.324.882.324.372 0 .792-.126 1.26-.378l.63 1.098Zm8.772.432h-1.422l-.126-1.476c-.36.588-.774 1.02-1.242 1.296-.468.264-1.038.396-1.71.396-.828 0-1.476-.252-1.944-.756-.468-.504-.702-1.218-.702-2.142v-6.804h1.656v6.624c0 .648.114 1.11.342 1.386.228.264.6.396 1.116.396.924 0 1.716-.546 2.376-1.638v-6.768h1.656V161Zm5.994-9.702c.648 0 1.23.09 1.746.27.516.18 1.008.45 1.476.81l-.702 1.044a5.648 5.648 0 0 0-1.242-.612 3.74 3.74 0 0 0-1.224-.198c-.54 0-.966.114-1.278.342a1.034 1.034 0 0 0-.468.9c0 .384.144.684.432.9.3.216.834.426 1.602.63 1.056.264 1.842.624 2.358 1.08.528.456.792 1.08.792 1.872 0 .936-.366 1.65-1.098 2.142-.72.492-1.602.738-2.646.738-1.44 0-2.634-.414-3.582-1.242l.882-1.008c.804.612 1.692.918 2.664.918.624 0 1.116-.126 1.476-.378.372-.264.558-.618.558-1.062 0-.324-.066-.582-.198-.774-.132-.204-.36-.378-.684-.522-.324-.156-.798-.318-1.422-.486-1.008-.264-1.74-.618-2.196-1.062-.444-.444-.666-1.008-.666-1.692 0-.492.144-.936.432-1.332.3-.408.708-.72 1.224-.936a4.405 4.405 0 0 1 1.764-.342Z" fill="green"/></svg>