<svg width="632" height="224" fill="none" xmlns="http://www.w3.org/2000/svg"><path fill="#fff" d="M8 8h616v112H8z"/><path fill="#fff" d="M8 8h616v40H8z"/><path d="m34 31-6-6-6 6" stroke="#1C1C1C" stroke-width="2" stroke-linecap="round" stroke-linejoin="round"/><path d="m57.126 20.598-.18 1.458h-3.438V33h-1.71V22.056H48.27v-1.458h8.856Zm7.876 10.188c0 .384.066.672.198.864.132.18.33.318.594.414l-.378 1.152c-.492-.06-.888-.198-1.188-.414-.3-.216-.522-.552-.666-1.008-.636.948-1.578 1.422-2.826 1.422-.936 0-1.674-.264-2.214-.792s-.81-1.218-.81-2.07c0-1.008.36-1.782 1.08-2.322.732-.54 1.764-.81 3.096-.81h1.458v-.702c0-.672-.162-1.152-.486-1.44-.324-.288-.822-.432-1.494-.432-.696 0-1.548.168-2.556.504l-.414-1.206c1.176-.432 2.268-.648 3.276-.648 1.116 0 1.95.276 2.502.828.552.54.828 1.314.828 2.322v4.338Zm-3.888 1.188c.948 0 1.692-.492 2.232-1.476V28.32h-1.242c-1.752 0-2.628.648-2.628 1.944 0 .564.138.99.414 1.278.276.288.684.432 1.224.432Zm12.145-8.676c1.212 0 2.1.432 2.664 1.296.564.864.846 2.082.846 3.654 0 1.488-.324 2.688-.972 3.6-.648.912-1.566 1.368-2.754 1.368-1.056 0-1.884-.36-2.484-1.08v4.5l-1.656.198v-13.32h1.422l.126 1.278c.348-.48.768-.846 1.26-1.098a3.23 3.23 0 0 1 1.548-.396Zm-.612 8.568c1.56 0 2.34-1.206 2.34-3.618 0-2.424-.714-3.636-2.142-3.636a2.14 2.14 0 0 0-1.278.414c-.384.276-.72.63-1.008 1.062v4.626c.24.372.54.66.9.864.36.192.756.288 1.188.288Zm9.1-8.352V33H80.09v-9.486h1.656ZM80.9 18.96c.348 0 .63.108.846.324.216.216.324.486.324.81 0 .324-.108.594-.324.81-.216.204-.498.306-.846.306-.336 0-.612-.102-.828-.306a1.099 1.099 0 0 1-.324-.81c0-.324.108-.594.324-.81.216-.216.492-.324.828-.324Zm8.892 4.338c.336 0 .648.036.936.108l-.306 1.62a3.413 3.413 0 0 0-.828-.108c-.588 0-1.062.216-1.422.648-.36.432-.642 1.104-.846 2.016V33H85.67v-9.486h1.422l.162 1.926c.252-.708.594-1.242 1.026-1.602a2.29 2.29 0 0 1 1.512-.54Z" fill="#1B1B1B"/><path fill="#fff" d="M8 56h616v64H8z"/><path d="M19.12 69.976v9.696h4.528L23.472 81H17.6V69.976h1.52Zm11.892 9.056c0 .341.06.597.177.768.117.16.293.283.527.368l-.335 1.024c-.438-.053-.79-.176-1.056-.368-.267-.192-.465-.49-.592-.896-.566.843-1.403 1.264-2.512 1.264-.832 0-1.488-.235-1.968-.704-.48-.47-.72-1.083-.72-1.84 0-.896.32-1.584.96-2.064.65-.48 1.568-.72 2.752-.72h1.296v-.624c0-.597-.145-1.024-.433-1.28-.288-.256-.73-.384-1.328-.384-.618 0-1.376.15-2.271.448l-.369-1.072c1.046-.384 2.017-.576 2.912-.576.992 0 1.734.245 2.224.736.491.48.736 1.168.736 2.064v3.856Zm-3.456 1.056c.843 0 1.505-.437 1.985-1.312V76.84h-1.105c-1.557 0-2.335.576-2.335 1.728 0 .501.122.88.367 1.136.246.256.608.384 1.088.384ZM37.7 72.376c.298 0 .576.032.832.096l-.272 1.44a3.034 3.034 0 0 0-.736-.096c-.523 0-.944.192-1.264.576-.32.384-.571.981-.752 1.792V81h-1.472v-8.432H35.3l.144 1.712c.224-.63.528-1.104.912-1.424.384-.32.832-.48 1.344-.48Zm9.073.576c-.32.107-.672.176-1.056.208s-.853.048-1.408.048c.992.448 1.488 1.157 1.488 2.128 0 .843-.288 1.53-.864 2.064-.576.533-1.36.8-2.352.8-.384 0-.741-.053-1.072-.16a.893.893 0 0 0-.304.352.9.9 0 0 0-.112.432c0 .459.368.688 1.104.688h1.344c.566 0 1.067.101 1.504.304.438.203.773.48 1.008.832.245.352.368.752.368 1.2 0 .821-.336 1.45-1.008 1.888-.672.448-1.653.672-2.944.672-.907 0-1.627-.096-2.16-.288-.523-.181-.896-.459-1.12-.832-.224-.373-.336-.853-.336-1.44h1.328c0 .341.064.608.192.8.128.203.358.352.688.448.33.107.8.16 1.408.16.886 0 1.515-.112 1.888-.336.384-.213.576-.539.576-.976 0-.395-.15-.693-.448-.896-.298-.203-.715-.304-1.248-.304H41.91c-.715 0-1.258-.15-1.632-.448-.363-.31-.544-.693-.544-1.152 0-.277.08-.544.24-.8.16-.256.39-.485.688-.688-.49-.256-.853-.57-1.088-.944-.224-.384-.336-.848-.336-1.392 0-.565.139-1.072.416-1.52a2.903 2.903 0 0 1 1.168-1.04 3.605 3.605 0 0 1 1.664-.384c.662.01 1.216-.01 1.664-.064a6.468 6.468 0 0 0 1.104-.24c.299-.107.661-.256 1.088-.448l.432 1.328Zm-4.288.48c-.554 0-.986.176-1.296.528-.298.341-.448.795-.448 1.36 0 .576.155 1.04.464 1.392.31.341.747.512 1.312.512.576 0 1.014-.165 1.312-.496.31-.341.464-.816.464-1.424 0-1.248-.602-1.872-1.808-1.872Zm11.919 3.104c0 .245-.011.496-.032.752h-5.376c.064.928.298 1.61.704 2.048.405.437.928.656 1.568.656.405 0 .778-.059 1.12-.176a4.513 4.513 0 0 0 1.072-.56l.64.88c-.896.704-1.878 1.056-2.944 1.056-1.174 0-2.091-.384-2.752-1.152-.651-.768-.976-1.824-.976-3.168 0-.875.138-1.648.416-2.32.288-.683.693-1.216 1.216-1.6.533-.384 1.157-.576 1.872-.576 1.12 0 1.978.368 2.576 1.104.597.736.896 1.755.896 3.056Zm-1.456-.432c0-.832-.166-1.467-.496-1.904-.331-.437-.827-.656-1.488-.656-1.206 0-1.862.885-1.968 2.656h3.952v-.096Zm9.513-3.536V81h-1.472v-8.432h1.472Zm-.752-4.048c.31 0 .56.096.752.288a.977.977 0 0 1 .288.72.977.977 0 0 1-.288.72c-.192.181-.443.272-.752.272-.299 0-.544-.09-.736-.272a.977.977 0 0 1-.288-.72c0-.288.096-.528.288-.72a.997.997 0 0 1 .736-.288Zm7.763 3.856c.768 0 1.366.23 1.792.688.438.459.656 1.088.656 1.888V81h-1.472v-5.84c0-.597-.112-1.019-.336-1.264-.224-.245-.554-.368-.992-.368a1.92 1.92 0 0 0-1.184.384c-.341.256-.661.624-.96 1.104V81h-1.472v-8.432h1.264l.128 1.248c.299-.448.667-.8 1.104-1.056a2.915 2.915 0 0 1 1.472-.384Zm8.575 0c1.184 0 2.102.395 2.752 1.184.662.79.992 1.861.992 3.216 0 .875-.149 1.648-.448 2.32-.298.661-.73 1.179-1.296 1.552-.565.363-1.237.544-2.016.544-1.184 0-2.106-.395-2.768-1.184-.661-.79-.992-1.861-.992-3.216 0-.875.15-1.643.448-2.304.299-.672.731-1.19 1.296-1.552.566-.373 1.243-.56 2.032-.56Zm0 1.184c-1.461 0-2.192 1.077-2.192 3.232 0 2.144.726 3.216 2.176 3.216 1.451 0 2.176-1.077 2.176-3.232 0-2.144-.72-3.216-2.16-3.216Zm9.04-3.376c-.448 0-.768.101-.96.304-.192.192-.288.496-.288.912v1.168h2.048l-.16 1.136H85.84V81h-1.472v-7.296h-1.504v-1.136h1.504v-1.152c0-.725.23-1.307.688-1.744.47-.448 1.12-.672 1.952-.672.384 0 .725.037 1.024.112.31.064.64.17.992.32l-.464 1.072a3.59 3.59 0 0 0-1.472-.32Zm5.36 0c-.448 0-.769.101-.96.304-.192.192-.288.496-.288.912v1.168h2.047l-.16 1.136h-1.888V81h-1.471v-7.296h-1.505v-1.136h1.505v-1.152c0-.725.229-1.307.688-1.744.469-.448 1.12-.672 1.951-.672.385 0 .726.037 1.025.112.309.064.64.17.991.32l-.464 1.072c-.48-.213-.97-.32-1.472-.32Zm8.707 6.352c0 .245-.011.496-.032.752h-5.376c.064.928.298 1.61.704 2.048.405.437.928.656 1.568.656.405 0 .778-.059 1.12-.176a4.523 4.523 0 0 0 1.072-.56l.64.88c-.896.704-1.878 1.056-2.944 1.056-1.174 0-2.091-.384-2.752-1.152-.651-.768-.976-1.824-.976-3.168 0-.875.138-1.648.416-2.32.288-.683.693-1.216 1.216-1.6.533-.384 1.157-.576 1.872-.576 1.12 0 1.978.368 2.576 1.104.597.736.896 1.755.896 3.056Zm-1.456-.432c0-.832-.166-1.467-.496-1.904-.331-.437-.827-.656-1.488-.656-1.206 0-1.862.885-1.968 2.656h3.952v-.096Zm7.774-3.728c.768 0 1.366.23 1.792.688.438.459.656 1.088.656 1.888V81h-1.472v-5.84c0-.597-.112-1.019-.336-1.264-.224-.245-.554-.368-.992-.368-.448 0-.842.128-1.184.384-.341.256-.661.624-.96 1.104V81h-1.472v-8.432h1.264l.128 1.248c.299-.448.667-.8 1.104-1.056a2.916 2.916 0 0 1 1.472-.384Zm7.695 0c.576 0 1.094.08 1.552.24.459.16.896.4 1.312.72l-.624.928a5.02 5.02 0 0 0-1.104-.544 3.323 3.323 0 0 0-1.088-.176c-.48 0-.858.101-1.136.304a.92.92 0 0 0-.416.8c0 .341.128.608.384.8.267.192.742.379 1.424.56.939.235 1.638.555 2.096.96.47.405.704.96.704 1.664 0 .832-.325 1.467-.976 1.904-.64.437-1.424.656-2.352.656-1.28 0-2.341-.368-3.184-1.104l.784-.896c.715.544 1.504.816 2.368.816.555 0 .992-.112 1.312-.336a1.1 1.1 0 0 0 .496-.944c0-.288-.058-.517-.176-.688-.117-.181-.32-.336-.608-.464-.288-.139-.709-.283-1.264-.432-.896-.235-1.546-.55-1.952-.944-.394-.395-.592-.896-.592-1.504 0-.437.128-.832.384-1.184a2.53 2.53 0 0 1 1.088-.832c.47-.203.992-.304 1.568-.304Zm6.653.192V81h-1.472v-8.432h1.472Zm-.752-4.048c.309 0 .56.096.752.288a.977.977 0 0 1 .288.72.977.977 0 0 1-.288.72c-.192.181-.443.272-.752.272-.299 0-.544-.09-.736-.272a.977.977 0 0 1-.288-.72c0-.288.096-.528.288-.72a.996.996 0 0 1 .736-.288Zm9.988 4.048L128.192 81h-1.776l-2.912-8.432h1.6l2.208 7.12 2.192-7.12h1.552Zm7.988 3.968c0 .245-.01.496-.032.752h-5.376c.064.928.299 1.61.704 2.048.406.437.928.656 1.568.656.406 0 .779-.059 1.12-.176a4.496 4.496 0 0 0 1.072-.56l.64.88c-.896.704-1.877 1.056-2.944 1.056-1.173 0-2.09-.384-2.752-1.152-.65-.768-.976-1.824-.976-3.168 0-.875.139-1.648.416-2.32.288-.683.694-1.216 1.216-1.6.534-.384 1.158-.576 1.872-.576 1.12 0 1.979.368 2.576 1.104.598.736.896 1.755.896 3.056Zm-1.456-.432c0-.832-.165-1.467-.496-1.904-.33-.437-.826-.656-1.488-.656-1.205 0-1.861.885-1.968 2.656h3.952v-.096Zm11.113-3.728c.502 0 .96.075 1.376.224a3.71 3.71 0 0 1 1.2.688l-.704.928a3.34 3.34 0 0 0-.88-.464 2.562 2.562 0 0 0-.928-.16c-.682 0-1.216.272-1.6.816-.373.544-.56 1.35-.56 2.416 0 1.067.187 1.856.56 2.368.374.501.907.752 1.6.752.331 0 .635-.048.912-.144.278-.107.587-.272.928-.496l.672.96c-.768.619-1.626.928-2.576.928-1.141 0-2.042-.384-2.704-1.152-.65-.768-.976-1.83-.976-3.184 0-.896.15-1.68.448-2.352.299-.672.72-1.195 1.264-1.568.555-.373 1.211-.56 1.968-.56Zm8.537 0c.768 0 1.365.23 1.792.688.437.459.656 1.088.656 1.888V81h-1.472v-5.84c0-.597-.117-1.019-.352-1.264-.224-.245-.555-.368-.992-.368-.437 0-.827.128-1.168.384-.341.256-.661.619-.96 1.088v6h-1.472V69.192l1.472-.16v4.704c.661-.907 1.493-1.36 2.496-1.36Zm6.879.192V81h-1.472v-8.432h1.472Zm-.752-4.048c.309 0 .56.096.752.288a.977.977 0 0 1 .288.72.977.977 0 0 1-.288.72c-.192.181-.443.272-.752.272-.299 0-.544-.09-.736-.272a.977.977 0 0 1-.288-.72c0-.288.096-.528.288-.72a.996.996 0 0 1 .736-.288Zm10.164 8.016c0 .245-.011.496-.032.752h-5.376c.064.928.298 1.61.704 2.048.405.437.928.656 1.568.656a3.43 3.43 0 0 0 1.12-.176 4.534 4.534 0 0 0 1.072-.56l.64.88c-.896.704-1.878 1.056-2.944 1.056-1.174 0-2.091-.384-2.752-1.152-.651-.768-.976-1.824-.976-3.168 0-.875.138-1.648.416-2.32.288-.683.693-1.216 1.216-1.6.533-.384 1.157-.576 1.872-.576 1.12 0 1.978.368 2.576 1.104.597.736.896 1.755.896 3.056Zm-1.456-.432c0-.832-.166-1.467-.496-1.904-.331-.437-.827-.656-1.488-.656-1.206 0-1.862.885-1.968 2.656h3.952v-.096Zm11.438 4.8c-.394.192-.81.288-1.248.288-.544 0-.96-.155-1.248-.464-.288-.32-.432-.784-.432-1.392v-8.88a7.208 7.208 0 0 0-.912-.208 6.121 6.121 0 0 0-.928-.064c-.522 0-.89.096-1.104.288-.202.192-.304.501-.304.928v1.168h2.048l-.16 1.136h-1.888V81h-1.472v-7.296h-1.344v-1.136h1.344v-1.152c0-.736.235-1.323.704-1.76.48-.437 1.174-.656 2.08-.656.363 0 .688.027.976.08.299.053.624.133.976.24l1.456-.192v10.176c0 .224.038.395.112.512.086.107.224.16.416.16.203 0 .384-.032.544-.096l.384 1.024Zm5.057.144c-.331.981-.795 1.755-1.392 2.32-.587.576-1.429.923-2.528 1.04l-.16-1.152c.555-.096.997-.235 1.328-.416a2.18 2.18 0 0 0 .784-.704c.203-.277.389-.656.56-1.136h-.496l-2.832-8.432h1.568l2.256 7.36 2.208-7.36h1.52l-2.816 8.48Zm12.701-8.672c.768 0 1.366.23 1.792.688.438.459.656 1.088.656 1.888V81h-1.472v-5.84c0-.597-.112-1.019-.336-1.264-.224-.245-.554-.368-.992-.368-.448 0-.842.128-1.184.384-.341.256-.661.624-.96 1.104V81h-1.472v-8.432h1.264l.128 1.248c.299-.448.667-.8 1.104-1.056a2.916 2.916 0 0 1 1.472-.384Zm8.575 0c1.184 0 2.102.395 2.752 1.184.662.79.992 1.861.992 3.216 0 .875-.149 1.648-.448 2.32-.298.661-.73 1.179-1.296 1.552-.565.363-1.237.544-2.016.544-1.184 0-2.106-.395-2.768-1.184-.661-.79-.992-1.861-.992-3.216 0-.875.15-1.643.448-2.304.299-.672.731-1.19 1.296-1.552.566-.373 1.243-.56 2.032-.56Zm0 1.184c-1.461 0-2.192 1.077-2.192 3.232 0 2.144.726 3.216 2.176 3.216 1.451 0 2.176-1.077 2.176-3.232 0-2.144-.72-3.216-2.16-3.216Zm9.248-1.184c.501 0 .96.075 1.376.224a3.71 3.71 0 0 1 1.2.688l-.704.928a3.356 3.356 0 0 0-.88-.464 2.566 2.566 0 0 0-.928-.16c-.683 0-1.216.272-1.6.816-.373.544-.56 1.35-.56 2.416 0 1.067.187 1.856.56 2.368.373.501.907.752 1.6.752.331 0 .635-.048.912-.144.277-.107.587-.272.928-.496l.672.96c-.768.619-1.627.928-2.576.928-1.141 0-2.043-.384-2.704-1.152-.651-.768-.976-1.83-.976-3.184 0-.896.149-1.68.448-2.352.299-.672.72-1.195 1.264-1.568.555-.373 1.211-.56 1.968-.56Zm8.825 8.24a3.238 3.238 0 0 1-1.888.576c-.715 0-1.275-.203-1.68-.608-.395-.416-.592-1.013-.592-1.792v-5.088h-1.472v-1.136h1.472v-1.904l1.472-.176v2.08h2l-.16 1.136h-1.84v5.024c0 .437.074.757.224.96.16.192.421.288.784.288.33 0 .704-.112 1.12-.336l.56.976Zm7.797.384h-1.264l-.112-1.312c-.32.523-.688.907-1.104 1.152-.416.235-.923.352-1.52.352-.736 0-1.312-.224-1.728-.672-.416-.448-.624-1.083-.624-1.904v-6.048h1.472v5.888c0 .576.101.987.304 1.232.203.235.533.352.992.352.821 0 1.525-.485 2.112-1.456v-6.016h1.472V81Zm6.704-8.624c.299 0 .576.032.832.096l-.272 1.44a3.032 3.032 0 0 0-.736-.096c-.522 0-.944.192-1.264.576-.32.384-.57.981-.752 1.792V81h-1.472v-8.432h1.264l.144 1.712c.224-.63.528-1.104.912-1.424.384-.32.832-.48 1.344-.48Zm6.476 0c.768 0 1.366.23 1.792.688.438.459.656 1.088.656 1.888V81h-1.472v-5.84c0-.597-.112-1.019-.336-1.264-.224-.245-.554-.368-.992-.368-.448 0-.842.128-1.184.384-.341.256-.661.624-.96 1.104V81h-1.472v-8.432h1.264l.128 1.248c.299-.448.667-.8 1.104-1.056a2.916 2.916 0 0 1 1.472-.384Zm11.087 6.656c0 .341.059.597.176.768.118.16.294.283.528.368l-.336 1.024c-.437-.053-.789-.176-1.056-.368-.266-.192-.464-.49-.592-.896-.565.843-1.402 1.264-2.512 1.264-.832 0-1.488-.235-1.968-.704-.48-.47-.72-1.083-.72-1.84 0-.896.32-1.584.96-2.064.651-.48 1.568-.72 2.752-.72h1.296v-.624c0-.597-.144-1.024-.432-1.28-.288-.256-.73-.384-1.328-.384-.618 0-1.376.15-2.272.448l-.368-1.072c1.046-.384 2.016-.576 2.912-.576.992 0 1.734.245 2.224.736.491.48.736 1.168.736 2.064v3.856Zm-3.456 1.056c.843 0 1.504-.437 1.984-1.312V76.84h-1.104c-1.557 0-2.336.576-2.336 1.728 0 .501.123.88.368 1.136.246.256.608.384 1.088.384Zm8.003 1.104c-.544 0-.976-.16-1.296-.48-.309-.33-.464-.79-.464-1.376v-10.16L264.24 69v10.304c0 .235.037.405.112.512.085.107.224.16.416.16.203 0 .384-.032.544-.096l.384 1.024a2.398 2.398 0 0 1-1.168.288ZM278.042 81h-1.264l-.112-1.312c-.32.523-.688.907-1.104 1.152-.416.235-.923.352-1.52.352-.736 0-1.312-.224-1.728-.672-.416-.448-.624-1.083-.624-1.904v-6.048h1.472v5.888c0 .576.101.987.304 1.232.203.235.533.352.992.352.821 0 1.525-.485 2.112-1.456v-6.016h1.472V81Zm7.009-8.624c.768 0 1.365.23 1.792.688.437.459.656 1.088.656 1.888V81h-1.472v-5.84c0-.597-.112-1.019-.336-1.264-.224-.245-.555-.368-.992-.368a1.92 1.92 0 0 0-1.184.384c-.342.256-.662.624-.96 1.104V81h-1.472v-8.432h1.264l.128 1.248c.298-.448.666-.8 1.104-1.056a2.914 2.914 0 0 1 1.472-.384Zm12.207.576c-.32.107-.672.176-1.056.208a17.38 17.38 0 0 1-1.408.048c.992.448 1.488 1.157 1.488 2.128 0 .843-.288 1.53-.864 2.064-.576.533-1.36.8-2.352.8a3.47 3.47 0 0 1-1.072-.16.887.887 0 0 0-.304.352.896.896 0 0 0-.112.432c0 .459.368.688 1.104.688h1.344c.565 0 1.066.101 1.504.304.437.203.773.48 1.008.832.245.352.368.752.368 1.2 0 .821-.336 1.45-1.008 1.888-.672.448-1.654.672-2.944.672-.907 0-1.627-.096-2.16-.288-.523-.181-.896-.459-1.12-.832-.224-.373-.336-.853-.336-1.44h1.328c0 .341.064.608.192.8.128.203.357.352.688.448.33.107.8.16 1.408.16.885 0 1.514-.112 1.888-.336.384-.213.576-.539.576-.976 0-.395-.15-.693-.448-.896-.299-.203-.715-.304-1.248-.304h-1.328c-.715 0-1.259-.15-1.632-.448-.363-.31-.544-.693-.544-1.152 0-.277.08-.544.24-.8.16-.256.389-.485.688-.688-.491-.256-.854-.57-1.088-.944-.224-.384-.336-.848-.336-1.392 0-.565.138-1.072.416-1.52a2.9 2.9 0 0 1 1.168-1.04 3.604 3.604 0 0 1 1.664-.384c.661.01 1.216-.01 1.664-.064a6.468 6.468 0 0 0 1.104-.24c.298-.107.661-.256 1.088-.448l.432 1.328Zm-4.288.48c-.555 0-.987.176-1.296.528-.299.341-.448.795-.448 1.36 0 .576.154 1.04.464 1.392.309.341.746.512 1.312.512.576 0 1.013-.165 1.312-.496.309-.341.464-.816.464-1.424 0-1.248-.603-1.872-1.808-1.872ZM304.886 81h-1.264l-.112-1.312c-.32.523-.688.907-1.104 1.152-.416.235-.923.352-1.52.352-.736 0-1.312-.224-1.728-.672-.416-.448-.624-1.083-.624-1.904v-6.048h1.472v5.888c0 .576.101.987.304 1.232.202.235.533.352.992.352.821 0 1.525-.485 2.112-1.456v-6.016h1.472V81Zm4.72.192c-.544 0-.976-.16-1.296-.48-.309-.33-.464-.79-.464-1.376v-10.16l1.472-.176v10.304c0 .235.038.405.112.512.086.107.224.16.416.16.203 0 .384-.032.544-.096l.384 1.024a2.398 2.398 0 0 1-1.168.288Zm8.61-2.16c0 .341.058.597.176.768.117.16.293.283.528.368l-.336 1.024c-.438-.053-.79-.176-1.056-.368-.267-.192-.464-.49-.592-.896-.566.843-1.403 1.264-2.512 1.264-.832 0-1.488-.235-1.968-.704-.48-.47-.72-1.083-.72-1.84 0-.896.32-1.584.96-2.064.65-.48 1.568-.72 2.752-.72h1.296v-.624c0-.597-.144-1.024-.432-1.28-.288-.256-.731-.384-1.328-.384-.619 0-1.376.15-2.272.448l-.368-1.072c1.045-.384 2.016-.576 2.912-.576.992 0 1.733.245 2.224.736.49.48.736 1.168.736 2.064v3.856Zm-3.456 1.056c.842 0 1.504-.437 1.984-1.312V76.84h-1.104c-1.558 0-2.336.576-2.336 1.728 0 .501.122.88.368 1.136.245.256.608.384 1.088.384Zm10.735.528a3.238 3.238 0 0 1-1.888.576c-.715 0-1.275-.203-1.68-.608-.395-.416-.592-1.013-.592-1.792v-5.088h-1.472v-1.136h1.472v-1.904l1.472-.176v2.08h2l-.16 1.136h-1.84v5.024c0 .437.074.757.224.96.16.192.421.288.784.288.33 0 .704-.112 1.12-.336l.56.976Zm7.659-4.08c0 .245-.011.496-.032.752h-5.376c.064.928.298 1.61.704 2.048.405.437.928.656 1.568.656a3.43 3.43 0 0 0 1.12-.176 4.534 4.534 0 0 0 1.072-.56l.64.88c-.896.704-1.878 1.056-2.944 1.056-1.174 0-2.091-.384-2.752-1.152-.651-.768-.976-1.824-.976-3.168 0-.875.138-1.648.416-2.32.288-.683.693-1.216 1.216-1.6.533-.384 1.157-.576 1.872-.576 1.12 0 1.978.368 2.576 1.104.597.736.896 1.755.896 3.056Zm-1.456-.432c0-.832-.166-1.467-.496-1.904-.331-.437-.827-.656-1.488-.656-1.206 0-1.862.885-1.968 2.656h3.952v-.096Zm11.209-3.728c1.184 0 2.101.395 2.752 1.184.661.79.992 1.861.992 3.216 0 .875-.15 1.648-.448 2.32-.299.661-.731 1.179-1.296 1.552-.566.363-1.238.544-2.016.544-1.184 0-2.107-.395-2.768-1.184-.662-.79-.992-1.861-.992-3.216 0-.875.149-1.643.448-2.304.298-.672.73-1.19 1.296-1.552.565-.373 1.242-.56 2.032-.56Zm0 1.184c-1.462 0-2.192 1.077-2.192 3.232 0 2.144.725 3.216 2.176 3.216 1.45 0 2.176-1.077 2.176-3.232 0-2.144-.72-3.216-2.16-3.216Zm9.04-3.376c-.448 0-.768.101-.96.304-.192.192-.288.496-.288.912v1.168h2.048l-.16 1.136h-1.888V81h-1.472v-7.296h-1.504v-1.136h1.504v-1.152c0-.725.229-1.307.687-1.744.47-.448 1.121-.672 1.953-.672.384 0 .725.037 1.024.112.309.064.64.17.992.32l-.464 1.072a3.592 3.592 0 0 0-1.472-.32Zm10.985 10.432a3.236 3.236 0 0 1-1.888.576c-.714 0-1.274-.203-1.68-.608-.394-.416-.592-1.013-.592-1.792v-5.088H357.3v-1.136h1.472v-1.904l1.472-.176v2.08h2l-.16 1.136h-1.84v5.024c0 .437.075.757.224.96.16.192.422.288.784.288.331 0 .704-.112 1.12-.336l.56.976Zm5.19-8.24c.298 0 .576.032.832.096l-.272 1.44a3.038 3.038 0 0 0-.736-.096c-.523 0-.944.192-1.264.576-.32.384-.571.981-.752 1.792V81h-1.472v-8.432h1.264l.144 1.712c.224-.63.528-1.104.912-1.424.384-.32.832-.48 1.344-.48Zm5.191 0c1.184 0 2.101.395 2.752 1.184.661.79.992 1.861.992 3.216 0 .875-.149 1.648-.448 2.32-.299.661-.731 1.179-1.296 1.552-.565.363-1.237.544-2.016.544-1.184 0-2.107-.395-2.768-1.184-.661-.79-.992-1.861-.992-3.216 0-.875.149-1.643.448-2.304.299-.672.731-1.19 1.296-1.552.565-.373 1.243-.56 2.032-.56Zm0 1.184c-1.461 0-2.192 1.077-2.192 3.232 0 2.144.725 3.216 2.176 3.216s2.176-1.077 2.176-3.232c0-2.144-.72-3.216-2.16-3.216Zm10.048-1.184c1.077 0 1.866.384 2.368 1.152.501.768.752 1.85.752 3.248 0 1.323-.288 2.39-.864 3.2-.576.81-1.392 1.216-2.448 1.216-.939 0-1.675-.32-2.208-.96v4l-1.472.176v-11.84h1.264l.112 1.136a3.14 3.14 0 0 1 1.12-.976 2.87 2.87 0 0 1 1.376-.352Zm-.544 7.616c1.386 0 2.08-1.072 2.08-3.216 0-2.155-.635-3.232-1.904-3.232-.416 0-.795.123-1.136.368-.342.245-.64.56-.896.944v4.112c.213.33.48.587.8.768.32.17.672.256 1.056.256Zm7.644-7.424V81h-1.472v-8.432h1.472Zm-.752-4.048c.309 0 .56.096.752.288a.977.977 0 0 1 .288.72.977.977 0 0 1-.288.72c-.192.181-.443.272-.752.272-.299 0-.544-.09-.736-.272a.977.977 0 0 1-.288-.72c0-.288.096-.528.288-.72a.996.996 0 0 1 .736-.288Zm6.867 3.856c.502 0 .96.075 1.376.224a3.71 3.71 0 0 1 1.2.688l-.704.928a3.34 3.34 0 0 0-.88-.464 2.562 2.562 0 0 0-.928-.16c-.682 0-1.216.272-1.6.816-.373.544-.56 1.35-.56 2.416 0 1.067.187 1.856.56 2.368.374.501.907.752 1.6.752.331 0 .635-.048.912-.144.278-.107.587-.272.928-.496l.672.96c-.768.619-1.626.928-2.576.928-1.141 0-2.042-.384-2.704-1.152-.65-.768-.976-1.83-.976-3.184 0-.896.15-1.68.448-2.352.299-.672.72-1.195 1.264-1.568.555-.373 1.211-.56 1.968-.56Zm10.093 6.656c0 .341.058.597.176.768.117.16.293.283.528.368l-.336 1.024c-.438-.053-.79-.176-1.056-.368-.267-.192-.464-.49-.592-.896-.566.843-1.403 1.264-2.512 1.264-.832 0-1.488-.235-1.968-.704-.48-.47-.72-1.083-.72-1.84 0-.896.32-1.584.96-2.064.65-.48 1.568-.72 2.752-.72h1.296v-.624c0-.597-.144-1.024-.432-1.28-.288-.256-.731-.384-1.328-.384-.619 0-1.376.15-2.272.448l-.368-1.072c1.045-.384 2.016-.576 2.912-.576.992 0 1.733.245 2.224.736.49.48.736 1.168.736 2.064v3.856Zm-3.456 1.056c.842 0 1.504-.437 1.984-1.312V76.84h-1.104c-1.558 0-2.336.576-2.336 1.728 0 .501.122.88.368 1.136.245.256.608.384 1.088.384Zm8.003 1.104c-.544 0-.976-.16-1.296-.48-.31-.33-.464-.79-.464-1.376v-10.16l1.472-.176v10.304c0 .235.037.405.112.512.085.107.224.16.416.16.202 0 .384-.032.544-.096l.384 1.024a2.4 2.4 0 0 1-1.168.288ZM424.41 81l-.832-2.768h-4.176L418.57 81h-1.536l3.536-11.024h1.92L426.01 81h-1.6Zm-4.64-4h3.44l-1.712-5.76L419.77 77Zm16.323-4.624c.694 0 1.248.235 1.664.704.416.459.624 1.083.624 1.872V81h-1.472v-5.84c0-1.088-.394-1.632-1.184-1.632-.416 0-.768.123-1.056.368-.288.235-.597.608-.928 1.12V81h-1.472v-5.84c0-1.088-.394-1.632-1.184-1.632-.426 0-.784.123-1.072.368-.288.245-.592.619-.912 1.12V81h-1.472v-8.432h1.264l.128 1.232c.63-.95 1.44-1.424 2.432-1.424.523 0 .966.133 1.328.4.374.267.64.64.8 1.12.331-.49.694-.864 1.088-1.12.406-.267.88-.4 1.424-.4Zm11.623 4.16c0 .245-.011.496-.032.752h-5.376c.064.928.299 1.61.704 2.048.405.437.928.656 1.568.656.405 0 .779-.059 1.12-.176a4.515 4.515 0 0 0 1.072-.56l.64.88c-.896.704-1.877 1.056-2.944 1.056-1.173 0-2.091-.384-2.752-1.152-.651-.768-.976-1.824-.976-3.168 0-.875.139-1.648.416-2.32.288-.683.693-1.216 1.216-1.6.533-.384 1.157-.576 1.872-.576 1.12 0 1.979.368 2.576 1.104.597.736.896 1.755.896 3.056Zm-1.456-.432c0-.832-.165-1.467-.496-1.904-.331-.437-.827-.656-1.488-.656-1.205 0-1.861.885-1.968 2.656h3.952v-.096Zm7.471-3.728c.299 0 .576.032.832.096l-.272 1.44a3.032 3.032 0 0 0-.736-.096c-.523 0-.944.192-1.264.576-.32.384-.571.981-.752 1.792V81h-1.472v-8.432h1.264l.144 1.712c.224-.63.528-1.104.912-1.424.384-.32.832-.48 1.344-.48Zm3.98.192V81h-1.472v-8.432h1.472Zm-.752-4.048c.309 0 .56.096.752.288a.977.977 0 0 1 .288.72.977.977 0 0 1-.288.72c-.192.181-.443.272-.752.272-.299 0-.544-.09-.736-.272a.977.977 0 0 1-.288-.72c0-.288.096-.528.288-.72a.996.996 0 0 1 .736-.288Zm6.867 3.856c.502 0 .96.075 1.376.224a3.71 3.71 0 0 1 1.2.688l-.704.928a3.34 3.34 0 0 0-.88-.464 2.562 2.562 0 0 0-.928-.16c-.682 0-1.216.272-1.6.816-.373.544-.56 1.35-.56 2.416 0 1.067.187 1.856.56 2.368.374.501.907.752 1.6.752.331 0 .635-.048.912-.144.278-.107.587-.272.928-.496l.672.96c-.768.619-1.626.928-2.576.928-1.141 0-2.042-.384-2.704-1.152-.65-.768-.976-1.83-.976-3.184 0-.896.15-1.68.448-2.352.299-.672.72-1.195 1.264-1.568.555-.373 1.211-.56 1.968-.56Zm10.093 6.656c0 .341.058.597.176.768.117.16.293.283.528.368l-.336 1.024c-.438-.053-.79-.176-1.056-.368-.267-.192-.464-.49-.592-.896-.566.843-1.403 1.264-2.512 1.264-.832 0-1.488-.235-1.968-.704-.48-.47-.72-1.083-.72-1.84 0-.896.32-1.584.96-2.064.65-.48 1.568-.72 2.752-.72h1.296v-.624c0-.597-.144-1.024-.432-1.28-.288-.256-.731-.384-1.328-.384-.619 0-1.376.15-2.272.448l-.368-1.072c1.045-.384 2.016-.576 2.912-.576.992 0 1.733.245 2.224.736.49.48.736 1.168.736 2.064v3.856Zm-3.456 1.056c.842 0 1.504-.437 1.984-1.312V76.84h-1.104c-1.558 0-2.336.576-2.336 1.728 0 .501.122.88.368 1.136.245.256.608.384 1.088.384Zm16.393-1.056c0 .341.059.597.176.768.118.16.294.283.528.368l-.336 1.024c-.437-.053-.789-.176-1.056-.368-.266-.192-.464-.49-.592-.896-.565.843-1.402 1.264-2.512 1.264-.832 0-1.488-.235-1.968-.704-.48-.47-.72-1.083-.72-1.84 0-.896.32-1.584.96-2.064.651-.48 1.568-.72 2.752-.72h1.296v-.624c0-.597-.144-1.024-.432-1.28-.288-.256-.73-.384-1.328-.384-.618 0-1.376.15-2.272.448l-.368-1.072c1.046-.384 2.016-.576 2.912-.576.992 0 1.734.245 2.224.736.491.48.736 1.168.736 2.064v3.856Zm-3.456 1.056c.843 0 1.504-.437 1.984-1.312V76.84h-1.104c-1.557 0-2.336.576-2.336 1.728 0 .501.123.88.368 1.136.246.256.608.384 1.088.384Zm10.447-7.712c.768 0 1.366.23 1.792.688.438.459.656 1.088.656 1.888V81h-1.472v-5.84c0-.597-.112-1.019-.336-1.264-.224-.245-.554-.368-.992-.368-.448 0-.842.128-1.184.384-.341.256-.661.624-.96 1.104V81h-1.472v-8.432h1.264l.128 1.248c.299-.448.667-.8 1.104-1.056a2.916 2.916 0 0 1 1.472-.384Zm11.935-3.2V81h-1.296l-.144-1.168a3.122 3.122 0 0 1-1.04 1.008c-.416.235-.88.352-1.392.352-1.002 0-1.786-.395-2.352-1.184-.554-.79-.832-1.85-.832-3.184 0-.864.134-1.632.4-2.304.267-.672.651-1.195 1.152-1.568.502-.384 1.088-.576 1.76-.576.864 0 1.622.347 2.272 1.04V69l1.472.176Zm-3.552 10.848c.448 0 .832-.101 1.152-.304.32-.213.63-.528.928-.944v-4.128c-.277-.363-.576-.635-.896-.816a1.96 1.96 0 0 0-1.056-.288c-.65 0-1.157.272-1.52.816-.352.544-.528 1.355-.528 2.432 0 1.088.166 1.899.496 2.432.331.533.806.8 1.424.8Zm13.109-7.648c.576 0 1.094.08 1.552.24.459.16.896.4 1.312.72l-.624.928a5.02 5.02 0 0 0-1.104-.544 3.323 3.323 0 0 0-1.088-.176c-.48 0-.858.101-1.136.304a.92.92 0 0 0-.416.8c0 .341.128.608.384.8.267.192.742.379 1.424.56.939.235 1.638.555 2.096.96.47.405.704.96.704 1.664 0 .832-.325 1.467-.976 1.904-.64.437-1.424.656-2.352.656-1.28 0-2.341-.368-3.184-1.104l.784-.896c.715.544 1.504.816 2.368.816.555 0 .992-.112 1.312-.336a1.1 1.1 0 0 0 .496-.944c0-.288-.058-.517-.176-.688-.117-.181-.32-.336-.608-.464-.288-.139-.709-.283-1.264-.432-.896-.235-1.546-.55-1.952-.944-.394-.395-.592-.896-.592-1.504 0-.437.128-.832.384-1.184a2.53 2.53 0 0 1 1.088-.832c.47-.203.992-.304 1.568-.304Zm8.349 0c1.184 0 2.101.395 2.752 1.184.661.79.992 1.861.992 3.216 0 .875-.149 1.648-.448 2.32-.299.661-.731 1.179-1.296 1.552-.565.363-1.237.544-2.016.544-1.184 0-2.107-.395-2.768-1.184-.661-.79-.992-1.861-.992-3.216 0-.875.149-1.643.448-2.304.299-.672.731-1.19 1.296-1.552.565-.373 1.243-.56 2.032-.56Zm0 1.184c-1.461 0-2.192 1.077-2.192 3.232 0 2.144.725 3.216 2.176 3.216s2.176-1.077 2.176-3.232c0-2.144-.72-3.216-2.16-3.216ZM536.136 81h-1.264l-.112-1.312c-.32.523-.688.907-1.104 1.152-.416.235-.923.352-1.52.352-.736 0-1.312-.224-1.728-.672-.416-.448-.624-1.083-.624-1.904v-6.048h1.472v5.888c0 .576.101.987.304 1.232.202.235.533.352.992.352.821 0 1.525-.485 2.112-1.456v-6.016h1.472V81Zm7.296-.384a3.236 3.236 0 0 1-1.888.576c-.714 0-1.274-.203-1.68-.608-.394-.416-.592-1.013-.592-1.792v-5.088H537.8v-1.136h1.472v-1.904l1.472-.176v2.08h2l-.16 1.136h-1.84v5.024c0 .437.075.757.224.96.16.192.422.288.784.288.331 0 .704-.112 1.12-.336l.56.976Zm5.494-8.24c.768 0 1.365.23 1.792.688.437.459.656 1.088.656 1.888V81h-1.472v-5.84c0-.597-.118-1.019-.352-1.264-.224-.245-.555-.368-.992-.368-.438 0-.827.128-1.168.384-.342.256-.662.619-.96 1.088v6h-1.472V69.192l1.472-.16v4.704c.661-.907 1.493-1.36 2.496-1.36Zm11.775 4.16c0 .245-.011.496-.032.752h-5.376c.064.928.298 1.61.704 2.048.405.437.928.656 1.568.656a3.43 3.43 0 0 0 1.12-.176 4.534 4.534 0 0 0 1.072-.56l.64.88c-.896.704-1.878 1.056-2.944 1.056-1.174 0-2.091-.384-2.752-1.152-.651-.768-.976-1.824-.976-3.168 0-.875.138-1.648.416-2.32.288-.683.693-1.216 1.216-1.6.533-.384 1.157-.576 1.872-.576 1.12 0 1.978.368 2.576 1.104.597.736.896 1.755.896 3.056Zm-1.456-.432c0-.832-.166-1.467-.496-1.904-.331-.437-.827-.656-1.488-.656-1.206 0-1.862.885-1.968 2.656h3.952v-.096Zm9.33 2.928c0 .341.059.597.176.768.117.16.293.283.528.368l-.336 1.024c-.437-.053-.789-.176-1.056-.368s-.464-.49-.592-.896c-.565.843-1.403 1.264-2.512 1.264-.832 0-1.488-.235-1.968-.704-.48-.47-.72-1.083-.72-1.84 0-.896.32-1.584.96-2.064.651-.48 1.568-.72 2.752-.72h1.296v-.624c0-.597-.144-1.024-.432-1.28-.288-.256-.731-.384-1.328-.384-.619 0-1.376.15-2.272.448l-.368-1.072c1.045-.384 2.016-.576 2.912-.576.992 0 1.733.245 2.224.736.491.48.736 1.168.736 2.064v3.856Zm-3.456 1.056c.843 0 1.504-.437 1.984-1.312V76.84h-1.104c-1.557 0-2.336.576-2.336 1.728 0 .501.123.88.368 1.136.245.256.608.384 1.088.384Zm8.611-7.712c.576 0 1.093.08 1.552.24.459.16.896.4 1.312.72l-.624.928a5.02 5.02 0 0 0-1.104-.544 3.323 3.323 0 0 0-1.088-.176c-.48 0-.859.101-1.136.304a.92.92 0 0 0-.416.8c0 .341.128.608.384.8.267.192.741.379 1.424.56.939.235 1.637.555 2.096.96.469.405.704.96.704 1.664 0 .832-.325 1.467-.976 1.904-.64.437-1.424.656-2.352.656-1.28 0-2.341-.368-3.184-1.104l.784-.896c.715.544 1.504.816 2.368.816.555 0 .992-.112 1.312-.336a1.1 1.1 0 0 0 .496-.944c0-.288-.059-.517-.176-.688-.117-.181-.32-.336-.608-.464-.288-.139-.709-.283-1.264-.432-.896-.235-1.547-.55-1.952-.944-.395-.395-.592-.896-.592-1.504 0-.437.128-.832.384-1.184.267-.363.629-.64 1.088-.832a3.914 3.914 0 0 1 1.568-.304Zm9.437 8.24a3.238 3.238 0 0 1-1.888.576c-.715 0-1.275-.203-1.68-.608-.395-.416-.592-1.013-.592-1.792v-5.088h-1.472v-1.136h1.472v-1.904l1.472-.176v2.08h2l-.16 1.136h-1.84v5.024c0 .437.074.757.224.96.16.192.421.288.784.288.33 0 .704-.112 1.12-.336l.56.976ZM23.472 105l-.832-2.768h-4.176L17.632 105h-1.536l3.536-11.024h1.92L25.072 105h-1.6Zm-4.64-4h3.44l-1.712-5.76-1.728 5.76Zm10.148-4.624c.576 0 1.093.08 1.552.24.459.16.896.4 1.312.72l-.624.928a5.02 5.02 0 0 0-1.104-.544 3.325 3.325 0 0 0-1.088-.176c-.48 0-.859.101-1.136.304a.92.92 0 0 0-.416.8c0 .341.128.608.384.8.267.192.741.379 1.424.56.939.235 1.637.555 2.096.96.47.405.704.96.704 1.664 0 .832-.326 1.467-.976 1.904-.64.437-1.424.656-2.352.656-1.28 0-2.341-.368-3.184-1.104l.784-.896c.714.544 1.504.816 2.368.816.555 0 .992-.112 1.312-.336.33-.235.496-.549.496-.944 0-.288-.059-.517-.176-.688-.118-.181-.32-.336-.608-.464-.288-.139-.71-.283-1.264-.432-.896-.235-1.547-.549-1.952-.944-.395-.395-.592-.896-.592-1.504 0-.437.128-.832.384-1.184.266-.363.63-.64 1.088-.832.47-.203.992-.304 1.568-.304Zm6.653.192V105H34.16v-8.432h1.472Zm-.752-4.048c.309 0 .56.096.752.288a.977.977 0 0 1 .288.72.977.977 0 0 1-.288.72c-.192.181-.443.272-.752.272-.299 0-.544-.09-.736-.272a.977.977 0 0 1-.288-.72c0-.288.096-.528.288-.72a.997.997 0 0 1 .736-.288Zm9.475 10.512c0 .341.059.597.176.768.118.16.294.283.528.368l-.336 1.024c-.437-.053-.79-.176-1.056-.368s-.464-.491-.592-.896c-.565.843-1.402 1.264-2.512 1.264-.832 0-1.488-.235-1.968-.704s-.72-1.083-.72-1.84c0-.896.32-1.584.96-2.064.65-.48 1.568-.72 2.752-.72h1.296v-.624c0-.597-.144-1.024-.432-1.28-.288-.256-.73-.384-1.328-.384-.618 0-1.376.15-2.272.448l-.368-1.072c1.046-.384 2.016-.576 2.912-.576.992 0 1.734.245 2.224.736.49.48.736 1.168.736 2.064v3.856Zm-3.456 1.056c.843 0 1.504-.437 1.984-1.312v-1.936H41.78c-1.557 0-2.336.576-2.336 1.728 0 .501.123.88.368 1.136.246.256.608.384 1.088.384Zm14.682-7.712c.768 0 1.365.23 1.792.688.437.459.656 1.088.656 1.888V105h-1.472v-5.84c0-.597-.118-1.019-.352-1.264-.224-.245-.555-.368-.992-.368-.438 0-.827.128-1.168.384-.342.256-.662.619-.96 1.088v6h-1.472V93.192l1.472-.16v4.704c.661-.907 1.493-1.36 2.496-1.36Zm11.087 6.656c0 .341.058.597.176.768.117.16.293.283.528.368l-.336 1.024c-.438-.053-.79-.176-1.056-.368-.267-.192-.464-.491-.592-.896-.566.843-1.403 1.264-2.512 1.264-.832 0-1.488-.235-1.968-.704s-.72-1.083-.72-1.84c0-.896.32-1.584.96-2.064.65-.48 1.568-.72 2.752-.72h1.296v-.624c0-.597-.144-1.024-.432-1.28-.288-.256-.73-.384-1.328-.384-.619 0-1.376.15-2.272.448l-.368-1.072c1.045-.384 2.016-.576 2.912-.576.992 0 1.733.245 2.224.736.49.48.736 1.168.736 2.064v3.856Zm-3.456 1.056c.842 0 1.504-.437 1.984-1.312v-1.936h-1.104c-1.558 0-2.336.576-2.336 1.728 0 .501.122.88.368 1.136.245.256.608.384 1.088.384Zm12.437-7.52L72.785 105H71.01l-2.913-8.432h1.6l2.209 7.12 2.191-7.12h1.553Zm3.154 0V105h-1.472v-8.432h1.473Zm-.752-4.048c.31 0 .56.096.752.288a.977.977 0 0 1 .288.72.977.977 0 0 1-.287.72c-.193.181-.443.272-.753.272-.298 0-.544-.09-.736-.272a.977.977 0 0 1-.288-.72c0-.288.096-.528.288-.72a.997.997 0 0 1 .736-.288Zm7.764 3.856c.768 0 1.365.23 1.792.688.438.459.656 1.088.656 1.888V105h-1.472v-5.84c0-.597-.112-1.019-.336-1.264-.224-.245-.555-.368-.992-.368a1.92 1.92 0 0 0-1.184.384c-.341.256-.661.624-.96 1.104V105h-1.472v-8.432h1.264l.128 1.248a3.36 3.36 0 0 1 1.104-1.056 2.915 2.915 0 0 1 1.472-.384Zm12.207.576c-.32.107-.672.176-1.056.208s-.853.048-1.408.048c.992.448 1.488 1.157 1.488 2.128 0 .843-.288 1.531-.864 2.064-.576.533-1.36.8-2.352.8-.384 0-.741-.053-1.072-.16a.893.893 0 0 0-.304.352.902.902 0 0 0-.112.432c0 .459.368.688 1.104.688h1.344c.566 0 1.067.101 1.504.304.438.203.773.48 1.008.832.246.352.368.752.368 1.2 0 .821-.336 1.451-1.008 1.888-.672.448-1.653.672-2.944.672-.906 0-1.626-.096-2.16-.288-.522-.181-.896-.459-1.12-.832-.224-.373-.336-.853-.336-1.44h1.328c0 .341.064.608.192.8.128.203.358.352.688.448.33.107.8.16 1.408.16.886 0 1.515-.112 1.888-.336.384-.213.576-.539.576-.976 0-.395-.15-.693-.448-.896-.299-.203-.715-.304-1.248-.304H93.16c-.715 0-1.259-.149-1.632-.448-.362-.309-.544-.693-.544-1.152 0-.277.08-.544.24-.8.16-.256.39-.485.688-.688-.49-.256-.853-.571-1.088-.944-.224-.384-.336-.848-.336-1.392 0-.565.139-1.072.416-1.52a2.903 2.903 0 0 1 1.168-1.04 3.605 3.605 0 0 1 1.664-.384c.662.01 1.216-.01 1.664-.064a6.468 6.468 0 0 0 1.104-.24c.299-.107.662-.256 1.088-.448l.432 1.328Zm-4.288.48c-.555 0-.986.176-1.296.528-.298.341-.448.795-.448 1.36 0 .576.155 1.04.464 1.392.31.341.747.512 1.312.512.576 0 1.014-.165 1.312-.496.31-.341.464-.816.464-1.424 0-1.248-.603-1.872-1.808-1.872Zm15.715 5.6c0 .341.059.597.176.768.117.16.293.283.528.368l-.336 1.024c-.437-.053-.789-.176-1.056-.368s-.464-.491-.592-.896c-.565.843-1.403 1.264-2.512 1.264-.832 0-1.488-.235-1.968-.704s-.72-1.083-.72-1.84c0-.896.32-1.584.96-2.064.651-.48 1.568-.72 2.752-.72h1.296v-.624c0-.597-.144-1.024-.432-1.28-.288-.256-.731-.384-1.328-.384-.619 0-1.376.15-2.272.448l-.368-1.072c1.045-.384 2.016-.576 2.912-.576.992 0 1.733.245 2.224.736.491.48.736 1.168.736 2.064v3.856Zm-3.456 1.056c.843 0 1.504-.437 1.984-1.312v-1.936h-1.104c-1.557 0-2.336.576-2.336 1.728 0 .501.123.88.368 1.136.245.256.608.384 1.088.384Zm14.682-7.712c.768 0 1.365.23 1.792.688.437.459.656 1.088.656 1.888V105h-1.472v-5.84c0-.597-.118-1.019-.352-1.264-.224-.245-.555-.368-.992-.368-.438 0-.827.128-1.168.384-.342.256-.662.619-.96 1.088v6h-1.472V93.192l1.472-.16v4.704c.661-.907 1.493-1.36 2.496-1.36Zm11.775 4.16c0 .245-.011.496-.032.752h-5.376c.064.928.298 1.611.704 2.048.405.437.928.656 1.568.656.405 0 .778-.059 1.12-.176a4.523 4.523 0 0 0 1.072-.56l.64.88c-.896.704-1.878 1.056-2.944 1.056-1.174 0-2.091-.384-2.752-1.152-.651-.768-.976-1.824-.976-3.168 0-.875.138-1.648.416-2.32.288-.683.693-1.216 1.216-1.6.533-.384 1.157-.576 1.872-.576 1.12 0 1.978.368 2.576 1.104.597.736.896 1.755.896 3.056Zm-1.456-.432c0-.832-.166-1.467-.496-1.904-.331-.437-.827-.656-1.488-.656-1.206 0-1.862.885-1.968 2.656h3.952v-.096Zm9.33 2.928c0 .341.059.597.176.768.117.16.293.283.528.368l-.336 1.024c-.437-.053-.789-.176-1.056-.368s-.464-.491-.592-.896c-.565.843-1.403 1.264-2.512 1.264-.832 0-1.488-.235-1.968-.704s-.72-1.083-.72-1.84c0-.896.32-1.584.96-2.064.651-.48 1.568-.72 2.752-.72h1.296v-.624c0-.597-.144-1.024-.432-1.28-.288-.256-.731-.384-1.328-.384-.619 0-1.376.15-2.272.448l-.368-1.072c1.045-.384 2.016-.576 2.912-.576.992 0 1.733.245 2.224.736.491.48.736 1.168.736 2.064v3.856Zm-3.456 1.056c.843 0 1.504-.437 1.984-1.312v-1.936h-1.104c-1.557 0-2.336.576-2.336 1.728 0 .501.123.88.368 1.136.245.256.608.384 1.088.384Zm12.437-7.52L146.442 105h-1.776l-2.912-8.432h1.6l2.208 7.12 2.192-7.12h1.552Zm5.059 8.48c-.331.981-.795 1.755-1.392 2.32-.587.576-1.43.923-2.528 1.04l-.16-1.152c.554-.096.997-.235 1.328-.416.33-.181.592-.416.784-.704.202-.277.389-.656.56-1.136h-.496l-2.832-8.432h1.568l2.256 7.36 2.208-7.36h1.52l-2.816 8.48Zm12.589-8.672c.96 0 1.723.39 2.288 1.168.565.768.848 1.845.848 3.232 0 .875-.133 1.648-.4 2.32-.267.661-.651 1.179-1.152 1.552-.501.363-1.088.544-1.76.544-.885 0-1.632-.373-2.24-1.12l-.144.928h-1.296V93.176L164.57 93v4.624c.608-.832 1.403-1.248 2.384-1.248Zm-.528 7.648c.651 0 1.157-.261 1.52-.784.373-.533.56-1.355.56-2.464 0-1.141-.171-1.963-.512-2.464-.341-.512-.827-.768-1.456-.768-.747 0-1.403.437-1.968 1.312v4.032c.224.352.496.629.816.832.331.203.677.304 1.04.304Zm9.34-7.648c1.184 0 2.101.395 2.752 1.184.661.79.992 1.861.992 3.216 0 .875-.149 1.648-.448 2.32-.299.661-.731 1.179-1.296 1.552-.565.363-1.237.544-2.016.544-1.184 0-2.107-.395-2.768-1.184-.661-.789-.992-1.861-.992-3.216 0-.875.149-1.643.448-2.304.299-.672.731-1.19 1.296-1.552.565-.373 1.243-.56 2.032-.56Zm0 1.184c-1.461 0-2.192 1.077-2.192 3.232 0 2.144.725 3.216 2.176 3.216s2.176-1.077 2.176-3.232c0-2.144-.72-3.216-2.16-3.216Zm12.704-4.384V105h-1.296l-.144-1.168a3.117 3.117 0 0 1-1.04 1.008 2.78 2.78 0 0 1-1.392.352c-1.003 0-1.787-.395-2.352-1.184-.555-.789-.832-1.851-.832-3.184 0-.864.133-1.632.4-2.304.267-.672.651-1.195 1.152-1.568.501-.384 1.088-.576 1.76-.576.864 0 1.621.347 2.272 1.04V93l1.472.176Zm-3.552 10.848c.448 0 .832-.101 1.152-.304.32-.213.629-.528.928-.944v-4.128c-.277-.363-.576-.635-.896-.816a1.96 1.96 0 0 0-1.056-.288c-.651 0-1.157.272-1.52.816-.352.544-.528 1.355-.528 2.432 0 1.088.165 1.899.496 2.432.331.533.805.8 1.424.8Zm9.962 1.024c-.33.981-.794 1.755-1.392 2.32-.586.576-1.429.923-2.528 1.04l-.16-1.152c.555-.096.998-.235 1.328-.416.331-.181.592-.416.784-.704.203-.277.39-.656.56-1.136h-.496l-2.832-8.432h1.568l2.256 7.36 2.208-7.36h1.52l-2.816 8.48Zm14.414-2.016c0 .341.058.597.176.768.117.16.293.283.528.368l-.336 1.024c-.438-.053-.79-.176-1.056-.368-.267-.192-.464-.491-.592-.896-.566.843-1.403 1.264-2.512 1.264-.832 0-1.488-.235-1.968-.704s-.72-1.083-.72-1.84c0-.896.32-1.584.96-2.064.65-.48 1.568-.72 2.752-.72h1.296v-.624c0-.597-.144-1.024-.432-1.28-.288-.256-.731-.384-1.328-.384-.619 0-1.376.15-2.272.448l-.368-1.072c1.045-.384 2.016-.576 2.912-.576.992 0 1.733.245 2.224.736.49.48.736 1.168.736 2.064v3.856Zm-3.456 1.056c.842 0 1.504-.437 1.984-1.312v-1.936h-1.104c-1.558 0-2.336.576-2.336 1.728 0 .501.122.88.368 1.136.245.256.608.384 1.088.384Zm10.447-7.712c.768 0 1.365.23 1.792.688.437.459.656 1.088.656 1.888V105h-1.472v-5.84c0-.597-.112-1.019-.336-1.264-.224-.245-.555-.368-.992-.368a1.92 1.92 0 0 0-1.184.384c-.341.256-.661.624-.96 1.104V105h-1.472v-8.432h1.264l.128 1.248c.299-.448.667-.8 1.104-1.056a2.916 2.916 0 0 1 1.472-.384Zm11.935-3.2V105h-1.296l-.144-1.168a3.117 3.117 0 0 1-1.04 1.008 2.78 2.78 0 0 1-1.392.352c-1.003 0-1.787-.395-2.352-1.184-.555-.789-.832-1.851-.832-3.184 0-.864.133-1.632.4-2.304.267-.672.651-1.195 1.152-1.568.501-.384 1.088-.576 1.76-.576.864 0 1.621.347 2.272 1.04V93l1.472.176Zm-3.552 10.848c.448 0 .832-.101 1.152-.304.32-.213.629-.528.928-.944v-4.128c-.277-.363-.576-.635-.896-.816a1.96 1.96 0 0 0-1.056-.288c-.651 0-1.157.272-1.52.816-.352.544-.528 1.355-.528 2.432 0 1.088.165 1.899.496 2.432.331.533.805.8 1.424.8Zm18.453.88a2.82 2.82 0 0 1-1.248.288c-.544 0-.96-.155-1.248-.464-.288-.32-.432-.784-.432-1.392v-8.88a7.287 7.287 0 0 0-.912-.208 6.14 6.14 0 0 0-.928-.064c-.523 0-.891.096-1.104.288-.203.192-.304.501-.304.928v1.168h2.048l-.16 1.136h-1.888V105h-1.472v-7.296h-1.344v-1.136h1.344v-1.152c0-.736.234-1.323.704-1.76.48-.437 1.173-.656 2.08-.656.362 0 .688.027.976.08.298.053.624.133.976.24l1.456-.192v10.176c0 .224.037.395.112.512.085.107.224.16.416.16.202 0 .384-.032.544-.096l.384 1.024Zm8.126-4.368c0 .245-.01.496-.032.752h-5.376c.064.928.299 1.611.704 2.048.406.437.928.656 1.568.656a3.43 3.43 0 0 0 1.12-.176 4.486 4.486 0 0 0 1.072-.56l.64.88c-.896.704-1.877 1.056-2.944 1.056-1.173 0-2.09-.384-2.752-1.152-.65-.768-.976-1.824-.976-3.168 0-.875.139-1.648.416-2.32.288-.683.694-1.216 1.216-1.6.534-.384 1.158-.576 1.872-.576 1.12 0 1.979.368 2.576 1.104.598.736.896 1.755.896 3.056Zm-1.456-.432c0-.832-.165-1.467-.496-1.904-.33-.437-.826-.656-1.488-.656-1.205 0-1.861.885-1.968 2.656h3.952v-.096Zm6.095-3.728c.576 0 1.093.08 1.552.24.459.16.896.4 1.312.72l-.624.928a5.02 5.02 0 0 0-1.104-.544 3.323 3.323 0 0 0-1.088-.176c-.48 0-.859.101-1.136.304a.92.92 0 0 0-.416.8c0 .341.128.608.384.8.267.192.741.379 1.424.56.939.235 1.637.555 2.096.96.469.405.704.96.704 1.664 0 .832-.325 1.467-.976 1.904-.64.437-1.424.656-2.352.656-1.28 0-2.341-.368-3.184-1.104l.784-.896c.715.544 1.504.816 2.368.816.555 0 .992-.112 1.312-.336a1.1 1.1 0 0 0 .496-.944c0-.288-.059-.517-.176-.688-.117-.181-.32-.336-.608-.464-.288-.139-.709-.283-1.264-.432-.896-.235-1.547-.549-1.952-.944-.395-.395-.592-.896-.592-1.504 0-.437.128-.832.384-1.184.267-.363.629-.64 1.088-.832a3.914 3.914 0 0 1 1.568-.304Zm9.149 0c.768 0 1.365.23 1.792.688.437.459.656 1.088.656 1.888V105h-1.472v-5.84c0-.597-.117-1.019-.352-1.264-.224-.245-.555-.368-.992-.368-.437 0-.827.128-1.168.384-.341.256-.661.619-.96 1.088v6h-1.472V93.192l1.472-.16v4.704c.661-.907 1.493-1.36 2.496-1.36Zm8.674 8.672c-.331.981-.795 1.755-1.392 2.32-.587.576-1.43.923-2.528 1.04l-.16-1.152c.554-.096.997-.235 1.328-.416.33-.181.592-.416.784-.704.202-.277.389-.656.56-1.136h-.496l-2.832-8.432h1.568l2.256 7.36 2.208-7.36h1.52l-2.816 8.48Zm11.021-8.672c.576 0 1.093.08 1.552.24.459.16.896.4 1.312.72l-.624.928a5.02 5.02 0 0 0-1.104-.544 3.323 3.323 0 0 0-1.088-.176c-.48 0-.859.101-1.136.304a.92.92 0 0 0-.416.8c0 .341.128.608.384.8.267.192.741.379 1.424.56.939.235 1.637.555 2.096.96.469.405.704.96.704 1.664 0 .832-.325 1.467-.976 1.904-.64.437-1.424.656-2.352.656-1.28 0-2.341-.368-3.184-1.104l.784-.896c.715.544 1.504.816 2.368.816.555 0 .992-.112 1.312-.336a1.1 1.1 0 0 0 .496-.944c0-.288-.059-.517-.176-.688-.117-.181-.32-.336-.608-.464-.288-.139-.709-.283-1.264-.432-.896-.235-1.547-.549-1.952-.944-.395-.395-.592-.896-.592-1.504 0-.437.128-.832.384-1.184.267-.363.629-.64 1.088-.832a3.914 3.914 0 0 1 1.568-.304Zm9.149 0c.768 0 1.365.23 1.792.688.437.459.656 1.088.656 1.888V105h-1.472v-5.84c0-.597-.112-1.019-.336-1.264-.224-.245-.555-.368-.992-.368a1.92 1.92 0 0 0-1.184.384c-.342.256-.662.624-.96 1.104V105h-1.472v-8.432h1.264l.128 1.248c.298-.448.666-.8 1.104-1.056a2.914 2.914 0 0 1 1.472-.384Zm8.575 0c1.184 0 2.101.395 2.752 1.184.661.79.992 1.861.992 3.216 0 .875-.15 1.648-.448 2.32-.299.661-.731 1.179-1.296 1.552-.566.363-1.238.544-2.016.544-1.184 0-2.107-.395-2.768-1.184-.662-.789-.992-1.861-.992-3.216 0-.875.149-1.643.448-2.304.298-.672.73-1.19 1.296-1.552.565-.373 1.242-.56 2.032-.56Zm0 1.184c-1.462 0-2.192 1.077-2.192 3.232 0 2.144.725 3.216 2.176 3.216 1.45 0 2.176-1.077 2.176-3.232 0-2.144-.72-3.216-2.16-3.216Zm12.447 7.44h-1.264l-.112-1.312c-.32.523-.688.907-1.104 1.152-.416.235-.922.352-1.52.352-.736 0-1.312-.224-1.728-.672-.416-.448-.624-1.083-.624-1.904v-6.048h1.472v5.888c0 .576.102.987.304 1.232.203.235.534.352.992.352.822 0 1.526-.485 2.112-1.456v-6.016h1.472V105Zm7.297-.384a3.238 3.238 0 0 1-1.888.576c-.715 0-1.275-.203-1.68-.608-.395-.416-.592-1.013-.592-1.792v-5.088h-1.472v-1.136h1.472v-1.904l1.472-.176v2.08h2l-.16 1.136h-1.84v5.024c0 .437.075.757.224.96.16.192.421.288.784.288.331 0 .704-.112 1.12-.336l.56.976Z" fill="#1C1C1C"/><path fill="#fff" d="M8 128h616v40H8z"/><path fill="#fff" d="M8 128h616v40H8z"/><path d="m22 145 6 6 6-6" stroke="#1C1C1C" stroke-width="2" stroke-linecap="round" stroke-linejoin="round"/><path d="M62.418 140.598 59.898 153h-2.196l-2.286-10.386L53.112 153H50.97l-2.52-12.402h1.674l1.998 10.908 2.394-10.908h1.818l2.448 10.908 2.07-10.908h1.566Zm6.051 2.7c1.332 0 2.364.444 3.096 1.332.744.888 1.116 2.094 1.116 3.618 0 .984-.168 1.854-.504 2.61-.336.744-.822 1.326-1.458 1.746-.636.408-1.392.612-2.268.612-1.332 0-2.37-.444-3.114-1.332-.744-.888-1.116-2.094-1.116-3.618 0-.984.168-1.848.504-2.592.336-.756.822-1.338 1.458-1.746.636-.42 1.398-.63 2.286-.63Zm0 1.332c-1.644 0-2.466 1.212-2.466 3.636 0 2.412.816 3.618 2.448 3.618 1.632 0 2.448-1.212 2.448-3.636 0-2.412-.81-3.618-2.43-3.618Zm16.97-1.332c.78 0 1.404.264 1.872.792.468.516.702 1.218.702 2.106V153h-1.656v-6.57c0-1.224-.444-1.836-1.332-1.836-.468 0-.864.138-1.188.414-.324.264-.672.684-1.044 1.26V153h-1.656v-6.57c0-1.224-.444-1.836-1.332-1.836-.48 0-.882.138-1.206.414-.324.276-.666.696-1.026 1.26V153h-1.656v-9.486h1.422l.144 1.386c.708-1.068 1.62-1.602 2.736-1.602.588 0 1.086.15 1.494.45.42.3.72.72.9 1.26.372-.552.78-.972 1.224-1.26.456-.3.99-.45 1.602-.45Zm10.75 0c1.08 0 1.938.438 2.574 1.314.636.864.954 2.076.954 3.636 0 .984-.15 1.854-.45 2.61-.3.744-.732 1.326-1.296 1.746-.564.408-1.224.612-1.98.612-.996 0-1.836-.42-2.52-1.26L93.309 153H91.85v-13.302l1.656-.198v5.202c.684-.936 1.578-1.404 2.682-1.404Zm-.594 8.604c.732 0 1.302-.294 1.71-.882.42-.6.63-1.524.63-2.772 0-1.284-.192-2.208-.576-2.772-.384-.576-.93-.864-1.638-.864-.84 0-1.578.492-2.214 1.476v4.536c.252.396.558.708.918.936.372.228.762.342 1.17.342Zm13.657-1.116c0 .384.066.672.198.864.132.18.33.318.594.414l-.378 1.152c-.492-.06-.888-.198-1.188-.414-.3-.216-.522-.552-.666-1.008-.636.948-1.578 1.422-2.826 1.422-.936 0-1.674-.264-2.214-.792s-.81-1.218-.81-2.07c0-1.008.36-1.782 1.08-2.322.732-.54 1.764-.81 3.096-.81h1.458v-.702c0-.672-.162-1.152-.486-1.44-.324-.288-.822-.432-1.494-.432-.696 0-1.548.168-2.556.504l-.414-1.206c1.176-.432 2.268-.648 3.276-.648 1.116 0 1.95.276 2.502.828.552.54.828 1.314.828 2.322v4.338Zm-3.888 1.188c.948 0 1.692-.492 2.232-1.476v-2.178h-1.242c-1.752 0-2.628.648-2.628 1.944 0 .564.138.99.414 1.278.276.288.684.432 1.224.432Zm12.577.594a3.642 3.642 0 0 1-2.124.648c-.804 0-1.434-.228-1.89-.684-.444-.468-.666-1.14-.666-2.016v-5.724h-1.656v-1.278h1.656v-2.142l1.656-.198v2.34h2.25l-.18 1.278h-2.07v5.652c0 .492.084.852.252 1.08.18.216.474.324.882.324.372 0 .792-.126 1.26-.378l.63 1.098Z" fill="#1B1B1B"/><path fill="#fff" d="M8 176h616v40H8z"/><path fill="#fff" d="M8 176h616v40H8z"/><path d="m22 193 6 6 6-6" stroke="#1C1C1C" stroke-width="2" stroke-linecap="round" stroke-linejoin="round"/><path d="M51.51 188.598V201H49.8v-12.402h1.71Zm6.75 0-4.698 5.67 5.04 6.732h-2.106l-4.896-6.624 4.716-5.778h1.944Zm5.867 2.7c1.333 0 2.365.444 3.097 1.332.743.888 1.115 2.094 1.115 3.618 0 .984-.168 1.854-.504 2.61-.335.744-.822 1.326-1.457 1.746-.636.408-1.392.612-2.269.612-1.331 0-2.37-.444-3.113-1.332-.745-.888-1.117-2.094-1.117-3.618 0-.984.169-1.848.505-2.592.335-.756.822-1.338 1.458-1.746.636-.42 1.398-.63 2.285-.63Zm0 1.332c-1.643 0-2.465 1.212-2.465 3.636 0 2.412.816 3.618 2.447 3.618 1.633 0 2.449-1.212 2.449-3.636 0-2.412-.81-3.618-2.43-3.618Zm13.663 6.156c0 .384.066.672.197.864.133.18.33.318.595.414l-.378 1.152c-.492-.06-.888-.198-1.188-.414-.3-.216-.523-.552-.666-1.008-.636.948-1.578 1.422-2.826 1.422-.936 0-1.674-.264-2.215-.792-.54-.528-.81-1.218-.81-2.07 0-1.008.36-1.782 1.08-2.322.733-.54 1.765-.81 3.097-.81h1.457v-.702c0-.672-.161-1.152-.486-1.44-.324-.288-.822-.432-1.494-.432-.696 0-1.547.168-2.556.504l-.413-1.206c1.175-.432 2.267-.648 3.276-.648 1.116 0 1.95.276 2.502.828.551.54.828 1.314.828 2.322v4.338Zm-3.889 1.188c.949 0 1.693-.492 2.233-1.476v-2.178H74.89c-1.752 0-2.628.648-2.628 1.944 0 .564.138.99.414 1.278.276.288.684.432 1.224.432Zm9.504 1.242c-.612 0-1.098-.18-1.458-.54-.348-.372-.522-.888-.522-1.548v-11.43l1.656-.198v11.592c0 .264.042.456.126.576.096.12.252.18.468.18.228 0 .432-.036.612-.108l.432 1.152a2.699 2.699 0 0 1-1.314.324Zm10.185-2.43c0 .384.066.672.198.864.132.18.33.318.594.414l-.378 1.152c-.492-.06-.888-.198-1.188-.414-.3-.216-.522-.552-.666-1.008-.636.948-1.578 1.422-2.826 1.422-.936 0-1.674-.264-2.214-.792s-.81-1.218-.81-2.07c0-1.008.36-1.782 1.08-2.322.732-.54 1.764-.81 3.096-.81h1.458v-.702c0-.672-.162-1.152-.486-1.44-.324-.288-.822-.432-1.494-.432-.696 0-1.548.168-2.556.504l-.414-1.206c1.176-.432 2.268-.648 3.276-.648 1.116 0 1.95.276 2.502.828.552.54.828 1.314.828 2.322v4.338Zm-3.888 1.188c.948 0 1.692-.492 2.232-1.476v-2.178h-1.242c-1.752 0-2.628.648-2.628 1.944 0 .564.138.99.414 1.278.276.288.684.432 1.224.432Z" fill="#1B1B1B"/></svg>