<svg width="960" height="540" viewBox="0 0 960 540" fill="none" xmlns="http://www.w3.org/2000/svg">
<g clip-path="url(#clip0_634_1659)">
<rect width="960" height="540" fill="var(--component-illustration-background-color, white)"/>
<g clip-path="url(#clip1_634_1659)">
<rect width="960" height="540" fill="var(--component-illustration-background-color, white)"/>
<rect width="2" height="540" transform="translate(69)" fill="var(--component-illustration-grid-color, #eee)"/>
<rect width="2" height="540" transform="translate(151)" fill="var(--component-illustration-grid-color, #eee)"/>
<rect width="2" height="540" transform="translate(233)" fill="var(--component-illustration-grid-color, #eee)"/>
<rect width="2" height="540" transform="translate(315)" fill="var(--component-illustration-grid-color, #eee)"/>
<rect width="2" height="540" transform="translate(397)" fill="var(--component-illustration-grid-color, #eee)"/>
<rect width="2" height="540" transform="translate(479)" fill="var(--component-illustration-grid-color, #eee)"/>
<rect width="2" height="540" transform="translate(561)" fill="var(--component-illustration-grid-color, #eee)"/>
<rect width="2" height="540" transform="translate(643)" fill="var(--component-illustration-grid-color, #eee)"/>
<rect width="2" height="540" transform="translate(725)" fill="var(--component-illustration-grid-color, #eee)"/>
<rect width="2" height="540" transform="translate(807)" fill="var(--component-illustration-grid-color, #eee)"/>
<rect width="2" height="540" transform="translate(889)" fill="var(--component-illustration-grid-color, #eee)"/>
<rect width="960" height="2" transform="translate(0 64)" fill="var(--component-illustration-grid-color, #eee)"/>
<rect width="960" height="2" transform="translate(0 146)" fill="var(--component-illustration-grid-color, #eee)"/>
<rect width="960" height="2" transform="translate(0 228)" fill="var(--component-illustration-grid-color, #eee)"/>
<rect width="960" height="2" transform="translate(0 310)" fill="var(--component-illustration-grid-color, #eee)"/>
<rect width="960" height="2" transform="translate(0 392)" fill="var(--component-illustration-grid-color, #eee)"/>
<rect width="960" height="2" transform="translate(0 474)" fill="var(--component-illustration-grid-color, #eee)"/>
</g>
<g clip-path="url(#clip2_634_1659)">
<rect x="397" y="187" width="166" height="166" fill="var(--component-illustration-color, #666)"/>
</g>
<path fill-rule="evenodd" clip-rule="evenodd" d="M523.536 241.464C525.488 243.417 525.488 246.583 523.536 248.536L473.536 298.536C471.583 300.488 468.417 300.488 466.464 298.536L441.464 273.536C439.512 271.583 439.512 268.417 441.464 266.464C443.417 264.512 446.583 264.512 448.536 266.464L470 287.929L516.464 241.464C518.417 239.512 521.583 239.512 523.536 241.464Z" fill="var(--component-illustration-background-color, white)"/>
</g>
<defs>
<clipPath id="clip0_634_1659">
<rect width="960" height="540" fill="white"/>
</clipPath>
<clipPath id="clip1_634_1659">
<rect width="960" height="540" fill="white"/>
</clipPath>
<clipPath id="clip2_634_1659">
<rect width="166" height="166" fill="white" transform="translate(397 187)"/>
</clipPath>
</defs>
</svg>
