<svg width="960" height="540" viewBox="0 0 960 540" fill="none" xmlns="http://www.w3.org/2000/svg">
<g clip-path="url(#clip0_641_2858)">
<rect width="960" height="540" fill="#F9F6F3"/>
<g clip-path="url(#clip1_641_2858)">
<rect width="960" height="540" fill="#F9F6F3"/>
<rect width="2" height="540" transform="translate(69)" fill="#E4EBED"/>
<rect width="2" height="540" transform="translate(151)" fill="#E4EBED"/>
<rect width="2" height="540" transform="translate(233)" fill="#E4EBED"/>
<rect width="2" height="540" transform="translate(315)" fill="#E4EBED"/>
<rect width="2" height="540" transform="translate(397)" fill="#E4EBED"/>
<rect width="2" height="540" transform="translate(479)" fill="#E4EBED"/>
<rect width="2" height="540" transform="translate(561)" fill="#E4EBED"/>
<rect width="2" height="540" transform="translate(643)" fill="#E4EBED"/>
<rect width="2" height="540" transform="translate(725)" fill="#E4EBED"/>
<rect width="2" height="540" transform="translate(807)" fill="#E4EBED"/>
<rect width="2" height="540" transform="translate(889)" fill="#E4EBED"/>
<rect width="960" height="2" transform="translate(0 64)" fill="#E4EBED"/>
<rect width="960" height="2" transform="translate(0 146)" fill="#E4EBED"/>
<rect width="960" height="2" transform="translate(0 228)" fill="#E4EBED"/>
<rect width="960" height="2" transform="translate(0 310)" fill="#E4EBED"/>
<rect width="960" height="2" transform="translate(0 392)" fill="#E4EBED"/>
<rect width="960" height="2" transform="translate(0 474)" fill="#E4EBED"/>
</g>
<g clip-path="url(#clip2_641_2858)">
<circle cx="275" cy="188" r="21" fill="#004152"/>
</g>
<g clip-path="url(#clip3_641_2858)">
<circle cx="275" cy="106" r="21" fill="#004152"/>
</g>
<g clip-path="url(#clip4_641_2858)">
<circle cx="275" cy="270" r="19" stroke="#004152" stroke-width="4"/>
</g>
<g clip-path="url(#clip5_641_2858)">
<circle cx="275" cy="352" r="19" stroke="#004152" stroke-width="4"/>
</g>
<g clip-path="url(#clip6_641_2858)">
<circle cx="275" cy="434" r="19" stroke="#004152" stroke-width="4"/>
</g>
<rect x="315" y="180" width="330" height="16" rx="8" fill="#004152"/>
<rect x="315" y="98" width="412" height="16" rx="8" fill="#004152"/>
<rect x="315" y="262" width="248" height="16" rx="8" fill="#004152"/>
<rect x="315" y="344" width="412" height="16" rx="8" fill="#004152"/>
<rect x="315" y="426" width="248" height="16" rx="8" fill="#004152"/>
<g clip-path="url(#clip7_641_2858)">
<path d="M275 125L275 169" stroke="#004152" stroke-width="4" stroke-linecap="round"/>
</g>
<g clip-path="url(#clip8_641_2858)">
<path d="M275 190L275 268" stroke="#004152" stroke-width="4" stroke-linecap="round" stroke-dasharray="6 8"/>
</g>
<g clip-path="url(#clip9_641_2858)">
<path d="M275 272L275 350" stroke="#004152" stroke-width="4" stroke-linecap="round" stroke-dasharray="6 8"/>
</g>
<g clip-path="url(#clip10_641_2858)">
<path d="M275 354L275 432" stroke="#004152" stroke-width="4" stroke-linecap="round" stroke-dasharray="6 8"/>
</g>
<path fill-rule="evenodd" clip-rule="evenodd" d="M286.608 98.3905C287.129 98.9112 287.129 99.7554 286.608 100.276L273.275 113.609C272.754 114.13 271.91 114.13 271.389 113.609L264.723 106.943C264.202 106.422 264.202 105.578 264.723 105.057C265.243 104.536 266.087 104.536 266.608 105.057L272.332 110.781L284.723 98.3905C285.243 97.8698 286.087 97.8698 286.608 98.3905Z" fill="#F9F6F3"/>
</g>
<defs>
<clipPath id="clip0_641_2858">
<rect width="960" height="540" fill="white"/>
</clipPath>
<clipPath id="clip1_641_2858">
<rect width="960" height="540" fill="white"/>
</clipPath>
<clipPath id="clip2_641_2858">
<rect x="254" y="167" width="42" height="42" rx="21" fill="white"/>
</clipPath>
<clipPath id="clip3_641_2858">
<rect x="254" y="85" width="42" height="42" rx="21" fill="white"/>
</clipPath>
<clipPath id="clip4_641_2858">
<rect x="254" y="249" width="42" height="42" rx="21" fill="white"/>
</clipPath>
<clipPath id="clip5_641_2858">
<rect x="254" y="331" width="42" height="42" rx="21" fill="white"/>
</clipPath>
<clipPath id="clip6_641_2858">
<rect x="254" y="413" width="42" height="42" rx="21" fill="white"/>
</clipPath>
<clipPath id="clip7_641_2858">
<rect x="273" y="125" width="4" height="44" rx="2" fill="white"/>
</clipPath>
<clipPath id="clip8_641_2858">
<rect x="273" y="208" width="4" height="44" rx="2" fill="white"/>
</clipPath>
<clipPath id="clip9_641_2858">
<rect x="273" y="290" width="4" height="44" rx="2" fill="white"/>
</clipPath>
<clipPath id="clip10_641_2858">
<rect x="273" y="372" width="4" height="44" rx="2" fill="white"/>
</clipPath>
</defs>
</svg>
