<?xml version="1.0" encoding="utf-8"?>
<!-- Generator: Adobe Illustrator 24.3.0, SVG Export Plug-In . SVG Version: 6.00 Build 0)  -->
<svg version="1.1" xmlns="http://www.w3.org/2000/svg" xmlns:xlink="http://www.w3.org/1999/xlink" x="0px" y="0px"
	 viewBox="50 0 380 500">
<style type="text/css">
	.skin{fill:#e6d0bc;}
	.face.skin{fill:#f3e2d0;}
	.hemd{fill:#003;}
	.mouth{fill:#b37669}
	.iris{fill:rgb(93, 80,	3);}
	.pupil{fill:#000;}
	.eye-reflection{fill:#FFFFFF;}
	.hair--dark{fill:#dfc47b;}
	.hair--medium{fill:#e3c37c;}
	.hair--light{fill:#ecd699;}
	.hair--lightest{fill:#c19e58;}
	.left-cheeck.blush{fill:url(#SVGID_1_);}
	.right-cheeck.blush{fill:url(#SVGID_2_);}
	.tshirt{fill:#003;}
	.blush{fill:#e5c4b4}
</style>
<g id="Layer_1">
	<path class="st0 hair hair--dark" d="M327.2,56.3c0,0-27.2-52.6-113.6-34.7S101.8,123.9,104.7,172.8c2.8,48.8,13.8,77.8,36.3,111.8
		c22.3,33.6,12.5,55.3-4.4,61c0,0,96.7,68.6,197.2,0.9c0,0-24.4-7.5-21.6-27.2c2.8-19.7,38.5-44.1,60.1-85.5S403.3,76,327.2,56.3z"
		/>
	<path class="st1 body skin" d="M339,371.6c0,0,1.5-2.7-21.4-10.3c-22.9-7.6-47.4-17.4-47.4-33.7c0-16.2,0-46.8,0-46.8h-26.2h-26.2
		c0,0,0,30.5,0,46.8c0,16.3-24.5,26-47.4,33.7c-22.9,7.6-21.4,10.3-21.4,10.3L77.8,499.3H124l41.2-63.8c0,0,10.3,22.1,17,63.8h61.9
		h61.9c6.8-41.7,17-63.8,17-63.8l41.2,63.8h46.2L339,371.6z"/>
	<polygon class="st3 hemd" points="207,402.9 281.2,402.9 250.2,462.1 	"/>
	<g>
		<path class="st2 face skin" d="M353.5,157.5c0,79.3-37.3,144.2-109.6,144.2c-72.3,0-112.4-65.6-112.4-144.9c0-79.3,41.4-87.3,113.6-87.3
			C317.4,69.5,353.5,78.2,353.5,157.5z"/>
		<path class="st4 left-eye iris" d="M218.2,203.8c0,10.9-8.9,19.7-19.9,19.7c-11,0-19.9-8.8-19.9-19.7c0-10.9,8.9-19.7,19.9-19.7
			C209.2,184.1,218.2,192.9,218.2,203.8z"/>
		<path class="st5 left-eye pupil" d="M213,203.8c0,7.6-6.2,13.8-13.8,13.8c-7.6,0-13.8-6.2-13.8-13.8c0-7.6,6.2-13.8,13.8-13.8
			C206.9,190.1,213,196.2,213,203.8z"/>
		<path class="st6 left-eye eye-reflection" d="M193.5,196.7c0,2.2-1.8,4-4,4c-2.2,0-4-1.8-4-4s1.8-4,4-4C191.7,192.7,193.5,194.5,193.5,196.7z"/>
		<path class="st3 mouth" d="M200.7,252.1c13.6,8.3,28.2,13.4,43,13.2c14.9,0,29.1-5.8,43.3-13.2c-5.2,6.1-11.7,11.2-19.1,14.9
			c-7.4,3.7-15.7,5.8-24.1,5.9c-8.4,0-16.8-1.9-24.2-5.5C212.2,263.8,205.5,258.7,200.7,252.1z"/>
		<path class="st7 hair hair--medium" d="M311.2,94c0,0-3.3,24.8,10.2,61.5c14.8,40.3,30.8,55.2,45.8,44.5c0,0-16.2,5.5-11.7-11.7
			c6.1-23.5,18.7-63.1-0.2-90.3c-16.2-23.4-33.7-19.6-33.7-19.6s-14.1-47.9-77.8-48.5C152.4,29,89.7,144.1,137.1,223.5
			c0,0-15.5-61,16.9-64.8c32.4-3.8,148.3-44.3,157.2-66.6"/>
		<path class="st8 hair hair--light" d="M315.5,100.4c0,0-12.1,23.5-52.5,43.3c-32.1,15.7-69.2,18.3-104.9,17.3c0,0-12.2,20.7-11.3,54.5
			c0.9,33.8,18,69.5,18,69.5s-66.7-100.5-14.6-181.7c60.9-95,155.9-48.4,170.4-20.2C320.7,83.1,320.9,92.2,315.5,100.4z"/>
		<path class="st9 hair hair--lightest" d="M227.7,141.3c0,0,48-10.5,69-47.2c0,0-13.8,15.7-34.5,23.6c0,0,14.7-12.3,17.5-18.9c0,0-40.1-0.4-71,21.1
			c0,0,32.5-38.1,98.9-36.7C307.5,83.1,299.6,128.4,227.7,141.3z"/>
		<path class="st9 hair hair--lightest" d="M310.6,80.3c-11-3.9-22.2-6.5-33.4-8.6c-11.2-1.9-22.5-3.1-33.8-2.7c-22.6,0.4-44.5,6.8-64.8,18.5
			c8.3-8.2,18.4-14.9,29.6-19.2c11.1-4.4,23.1-6.6,35-6.9C267.1,61,291,67.4,310.6,80.3z"/>
		<path class="st9 hair hair--lightest" d="M345.7,152.5c-3.9-4.8-7-10.1-9.8-15.5c-2.8-5.5-5.1-11.3-6.9-17.2c-3.4-11.9-7.2-36.7-7.2-36.7
			s18.8,5,26.3,19.2c7.5,14.2,7,30.1,7,30.1s-4.1-14.3-10.3-23.9s-12.4-11.3-15-14.1c0,0,2.4,14.8,4.7,26.3
			C336.8,132.2,341.2,141.2,345.7,152.5z"/>
		<radialGradient id="SVGID_1_" cx="181.1986" cy="239.192" r="18.5322" gradientUnits="userSpaceOnUse">
			<stop  offset="0" style="stop-color:#e5c4b4"/>
			<stop  offset="1" style="stop-color:#f3e2d0"/>
		</radialGradient>
		<path class="st10 blush left-cheeck" d="M199.7,239.2c0,10.2-8.3,18.5-18.5,18.5c-10.2,0-18.5-8.3-18.5-18.5c0-10.2,8.3-18.5,18.5-18.5
			C191.4,220.7,199.7,229,199.7,239.2z"/>
		<radialGradient id="SVGID_2_" cx="299.634" cy="239.192" r="18.5322" gradientUnits="userSpaceOnUse">
			<stop  offset="0" style="stop-color:#e5c4b4"/>
			<stop  offset="1" style="stop-color:#f3e2d0"/>
		</radialGradient>
		<path class="st11 blush right-cheeck" d="M318.2,239.2c0,10.2-8.3,18.5-18.5,18.5c-10.2,0-18.5-8.3-18.5-18.5c0-10.2,8.3-18.5,18.5-18.5
			C309.9,220.7,318.2,229,318.2,239.2z"/>
		<path class="st4 right-eye iris" d="M271.6,203.8c0,10.9,8.9,19.7,19.9,19.7c11,0,19.9-8.8,19.9-19.7c0-10.9-8.9-19.7-19.9-19.7
			C280.5,184.1,271.6,192.9,271.6,203.8z"/>
		<path class="st5 right-eye pupil" d="M276.7,203.8c0,7.6,6.2,13.8,13.8,13.8c7.6,0,13.8-6.2,13.8-13.8c0-7.6-6.2-13.8-13.8-13.8
			C282.9,190.1,276.7,196.2,276.7,203.8z"/>
		<path class="st6 right-eye eye-reflection" d="M277.5,196.7c0,2.2,1.8,4,4,4c2.2,0,4-1.8,4-4s-1.8-4-4-4C279.3,192.7,277.5,194.5,277.5,196.7z"/>
		<!-- Necklace -->
		<!-- <circle class="st4" cx="277.3" cy="336.8" r="4.9"/> -->
		<!-- <circle class="st4" cx="244.7" cy="350.2" r="7.4"/> -->
		<!-- <circle class="st12" cx="247.3" cy="348.4" r="1.9"/> -->
		<!-- <circle class="st4" cx="231.1" cy="349.1" r="6.3"/> -->
		<!-- <circle class="st12" cx="233.3" cy="347.6" r="1.6"/> -->
		<!-- <circle class="st4" cx="219.8" cy="345.3" r="5.7"/> -->
		<!-- <circle class="st12" cx="221.8" cy="344" r="1.5"/> -->
		<!-- <circle class="st4" cx="211.8" cy="338.3" r="4.9"/> -->
		<!-- <circle class="st12" cx="213.6" cy="337.1" r="1.3"/> -->
		<!-- <circle class="st4" cx="258.1" cy="347.6" r="6.3"/> -->
		<!-- <circle class="st12" cx="258.9" cy="344.8" r="1.6"/> -->
		<!-- <circle class="st4" cx="269.3" cy="343.9" r="5.7"/> -->
		<!-- <circle class="st12" cx="269.2" cy="341" r="1.5"/> -->
		<!-- <circle class="st12" cx="276.8" cy="334.4" r="1.3"/> -->
	</g>
	<path class="st13 tshirt" d="M337.9,369.5c-10.7-7.2-43.9-18.5-50.8-22.4c-3.3,27-42.7,92.2-42.7,92.2h-0.2h0H244c0,0-39.5-65.2-42.7-92.2
		c-6.9,3.9-40.1,15.2-50.8,22.4c-8,5.4-49.4,87.7-49.4,87.7l34.4,25.4l27.6-42c0,0,8.4,26.7,13.3,58.7h67.5h0.9h67.5
		c4.8-32,13.3-58.7,13.3-58.7l27.6,42l34.4-25.4C387.3,457.1,345.9,374.9,337.9,369.5z"/>
</g>
</svg>
