<?xml version="1.0" encoding="utf-8"?>
<!-- Generator: Adobe Illustrator 24.3.0, SVG Export Plug-In . SVG Version: 6.00 Build 0)  -->
<svg version="1.1" xmlns="http://www.w3.org/2000/svg" xmlns:xlink="http://www.w3.org/1999/xlink"
	 viewBox="80 0 320 500">
<style type="text/css">
	.st0{fill:#727678;}
	.st1{fill:#868E95;}
	.st2{fill:url(#nek);}
	.st3{fill:#FFFFFF;}
	.st4{fill:#FEDEC8;}
	.st5{fill:#A59088;}
	.st6{fill:#AAB8BA;}
	.st7{fill:#2A1D01;}
	.st8{fill:#E4C8B6;}
	.st9{fill:#a1b7ce;}
	.st10{fill:#051420;}
	.st11{fill:#2a485c;}
	.st12{fill:#103048;}
	.st13{fill:#366075;}
	.st14{fill:#EFEFED;}
	.st15{fill:#071125;}
	.st16{fill:#071022;}
	.st17{fill:#020b1c;}
	.st18{fill:#030a27;}
	.st19{fill:#0f1a46;}
	.st20{fill:#010917;}
	.st21{fill:#06152b;}
	.st22{fill:#DBDBD7;}
	.st23{fill:#A59F9B;}
	.st24{fill:#C9C9C3;}
	.st25{fill:#443E3B;}
	.st26{fill:#142019;}
	.st27{display:none;}
	.st28{display:inline;fill:none;stroke:#231F20;stroke-width:0.5;stroke-miterlimit:10;}
    .brill{display:none;}
</style>
<g id="Layer_1">x
	<path class="st0" d="M206.9,358.4c0,0-16.9-25.7-11.3-31.7c5.6-6,17.6-17.7,53-18.7c35.4-1.1,52.7,13.9,53.9,28.1
		C303.6,350.4,206.9,358.4,206.9,358.4z"/>
	<path class="st1" d="M213.1,332.2c0,0-0.6-10,2.5-12.4s10.5-5.2,10.5-5.2l47.5,2.2c0,0,5.5-0.6,6.2,3.8c0.6,4.4-2.6,10.2-2.6,10.2
		L213.1,332.2z"/>
	<linearGradient id="nek" gradientUnits="userSpaceOnUse" x1="247.576" y1="499.3488" x2="247.576" y2="270.1923">
		<stop  offset="0" style="stop-color:#FEDEC8"/>
		<stop  offset="1" style="stop-color:#EACDBA"/>
	</linearGradient>
	<path class="st2 nek" d="M337,362c0,0-2.8-13.5-24.6-20.8c-21.8-7.3-38.5-14.7-38.5-30.2c0-15.5,0-40.9,0-40.9h-26.4h-26.4
		c0,0,0,25.3,0,40.9c0,15.5-16.6,22.9-38.5,30.2c-21.8,7.3-24.6,20.8-24.6,20.8L97.9,499.3h37.8l35.7-78.2l14.7,78.2h61.4h61.4
		l14.7-78.2l35.7,78.2h37.8L337,362z"/>
	<path class="st3 tshirt" d="M216.8,322.7c0,0,27.1,38.1,61.9-1l-33.1,89.8L216.8,322.7z"/>
	<path class="st4 gezicht" d="M342.8,152.5c0,75.7-26.9,137.5-95.9,137.5c-69,0-94.6-62.6-94.6-138.3c0-75.7,64.2-91,95.7-91
		S342.8,76.8,342.8,152.5z"/>
	<path class="st5 mond" d="M213.8,244.7c10.5,6.3,21.6,7.3,33,7.1c11.4,0,22.3-1.4,33.2-7.1c-4,4.7-15.2,12.9-33.2,12.9
		S217.5,249.7,213.8,244.7z"/>
	<path class="st6 linker-iris" d="M225.3,201c0,10.4-8.5,18.8-19,18.8c-10.5,0-19-8.4-19-18.8c0-10.4,8.5-18.8,19-18.8
		C216.8,182.2,225.3,190.6,225.3,201z"/>
	<path class="st7 linker-pupil" d="M220.4,201c0,7.3-5.9,13.2-13.1,13.2c-7.3,0-13.1-5.9-13.1-13.2c0-7.2,5.9-13.1,13.1-13.1
		C214.5,187.9,220.4,193.8,220.4,201z"/>
	<path class="st3 linker-oog-reflectie" d="M201.7,194.2c0,2.1-1.7,3.8-3.8,3.8c-2.1,0-3.8-1.7-3.8-3.8s1.7-3.8,3.8-3.8
		C200,190.4,201.7,192.1,201.7,194.2z"/>
	<path class="st6 rechter-iris" d="M271.9,201c0,10.4,8.5,18.8,19,18.8c10.5,0,19-8.4,19-18.8c0-10.4-8.5-18.8-19-18.8
		C280.4,182.2,271.9,190.6,271.9,201z"/>
	<path class="st7 rechter-pupil" d="M276.8,201c0,7.3,5.9,13.2,13.1,13.2c7.3,0,13.1-5.9,13.1-13.2c0-7.2-5.9-13.1-13.1-13.1
		C282.7,187.9,276.8,193.8,276.8,201z"/>
	<path class="st3 rechter-oog-reflectie" d="M277.5,194.2c0,2.1,1.7,3.8,3.8,3.8c2.1,0,3.8-1.7,3.8-3.8s-1.7-3.8-3.8-3.8
		C279.2,190.4,277.5,192.1,277.5,194.2z"/>
	<path class="st8 linker-mondrimpel" d="M209.1,255.1c0.3-1.6,0.9-3.1,1.5-4.6c0.6-1.5,1.3-2.9,2-4.4c0.7-1.4,1.6-2.8,2.5-4.1c0.9-1.3,1.9-2.6,3-3.8
		c-0.4,1.6-1,3.1-1.7,4.6c-0.6,1.5-1.3,2.9-2.1,4.3c-0.7,1.4-1.6,2.8-2.4,4.1C211,252.6,210.1,253.9,209.1,255.1z"/>
	<path class="st8 rechter-mondrimpel" d="M284.8,255.1c-1-1.1-1.8-2.2-2.6-3.4c-0.8-1.2-1.5-2.4-2.2-3.6c-0.7-1.2-1.3-2.5-1.8-3.8
		c-0.6-1.3-1.1-2.6-1.4-4.1c1.1,1,1.9,2.1,2.8,3.3c0.8,1.2,1.6,2.4,2.2,3.6c0.7,1.2,1.3,2.5,1.8,3.9
		C284.1,252.3,284.6,253.7,284.8,255.1z"/>
	<path class="st8" d="M264.7,267.5c-2.8,0.9-5.7,1.5-8.7,1.8c-2.9,0.4-5.9,0.5-8.9,0.5c-3-0.1-5.9-0.2-8.8-0.6
		c-1.5-0.2-2.9-0.4-4.4-0.7c-0.7-0.1-1.4-0.3-2.2-0.5l-1.1-0.3l-0.5-0.1l-0.3-0.1l-0.1,0c0,0-0.1,0-0.1,0l1,0.2l1.1,0.2
		c0.7,0.1,1.5,0.2,2.2,0.3c1.5,0.2,2.9,0.4,4.4,0.5c2.9,0.3,5.9,0.5,8.8,0.5c2.9,0.1,5.9-0.1,8.8-0.3c1.5-0.1,2.9-0.3,4.4-0.5
		C261.8,268,263.3,267.8,264.7,267.5z"/>
	<g class="linker-blouse-helft">
		<path class="st9 grijze-vierkanten" d="M230.1,340.9l-3-2.5l-18-8.5c0,0-41.2,16.6-46,19.6l11.3,44.7l-3.3,34l12.8,71.1h64.6V379.2L230.1,340.9z"/>
		<path class="st10" d="M248.6,427.7c-15.6,0.9-46.9,2.7-53.8,4l-0.2,7.7c10-1.4,37.9-3,54-3.8V427.7z"/>
		<path class="st10" d="M248.6,411.5c-12.3,1.1-47.5,4.6-54.9,6.7l0.5,7.6c10.7-2.5,40.6-6.1,54.4-7.6V411.5z"/>
		<path class="st9" d="M220.1,317.4c0,0-3.4,1.5-3.6,4.2s13.8,18.6,13.5,19.2c0,0-1.2-2-3,3.5c-2.3,6.6-6.2,15.4-6.2,15.4
			s-16.7-22.8-16.7-27.9c0-1.2,8.3-13.1,16.4-16.2c0,0-0.1,0.6-0.3,1S220.1,317.4,220.1,317.4z"/>
		<g class="linker-blouse-border">
			<path class="st13" d="M204.8,334.2c1,2.3,2.3,4.5,3.6,6.6c1.3,2.1,2.7,4.2,4.1,6.3c2.8,4.2,5.8,8.3,8.7,12.4l-0.8,0.1
				c1.9-4.8,3.7-9.6,5.7-14.3c0.5-1.2,1-2.4,1.6-3.5c0.1-0.3,0.3-0.6,0.5-0.9c0.3-0.4,0.5-0.7,1-0.8c0.2-0.1,0.6,0,0.8,0.1
				c0.1,0.1,0.2,0.2,0.3,0.3c0.1,0.1,0.1,0.2,0.2,0.3l0.4,0.9l3.3,7c2.2,4.6,4.4,9.3,6.5,13.9c2.2,4.7,4.3,9.3,6.4,14
				c-2.3-4.6-4.7-9.2-6.9-13.8c-2.3-4.6-4.6-9.2-6.8-13.8l-3.4-6.9l-0.4-0.9c0-0.1,0-0.1-0.1-0.1c0,0,0,0-0.1-0.1c0,0,0,0-0.1,0
				c-0.1,0-0.1,0.1-0.2,0.1c-0.1,0.1-0.1,0.2-0.2,0.2c-0.1,0.3-0.3,0.5-0.4,0.8c-0.5,1.1-1,2.3-1.5,3.5c-2,4.7-3.9,9.5-5.8,14.2
				l-0.3,0.7l-0.5-0.6c-3-4.1-5.8-8.3-8.5-12.6c-1.4-2.1-2.7-4.3-3.9-6.5C206.9,338.8,205.6,336.6,204.8,334.2z"/>
		</g>
	</g>
	<g>
		<path class="st9" d="M265.1,340.9l3-2.5l18-8.5c0,0,41.2,16.6,46,19.6l-11.3,44.7l3.3,34l-12.8,71.1h-64.6V379.2L265.1,340.9z"/>
		<path class="st10" d="M246.6,427.7c15.6,0.9,46.9,2.7,53.8,4l0.2,7.7c-10-1.4-37.9-3-54-3.8V427.7z"/>
		
		<path class="st10" d="M246.6,411.5c12.3,1.1,47.5,4.6,54.9,6.7l-0.5,7.6c-10.7-2.5-40.6-6.1-54.4-7.6V411.5z"/>
		
		<path class="st9" d="M275,317.4c0,0,3.4,1.5,3.6,4.2c0.2,2.8-13.8,18.6-13.5,19.2c0,0,1.2-2,3,3.5c2.3,6.6,6.2,15.4,6.2,15.4
			s16.7-22.8,16.7-27.9c0-1.2-8.3-13.1-16.4-16.2c0,0,0.1,0.6,0.3,1S275,317.4,275,317.4z"/>
		<!--  -->
		<!--  -->
		<!--  -->
		<!--  -->
		<g>
			<path class="st13" d="M290.4,334.2c-0.8,2.4-2.1,4.6-3.3,6.8c-1.3,2.2-2.6,4.3-3.9,6.5c-2.7,4.2-5.5,8.5-8.5,12.6l-0.5,0.6
				l-0.3-0.7c-1.9-4.7-3.7-9.3-5.7-13.9c-0.5-1.2-1-2.3-1.5-3.4c-0.1-0.3-0.3-0.6-0.4-0.8l-0.2-0.4c-0.1-0.1-0.1-0.2-0.2-0.2
				c-0.2-0.2-0.3-0.2-0.3-0.2c0,0-0.1,0.1-0.1,0.1l-0.2,0.4l-3.3,6.8c-2.2,4.5-4.4,9-6.7,13.5c-2.2,4.5-4.5,9-6.8,13.4
				c2.1-4.6,4.1-9.1,6.3-13.7c2.1-4.5,4.2-9.1,6.4-13.6l3.2-6.8l0.2-0.4c0.1-0.2,0.3-0.4,0.5-0.6c0.3-0.1,0.6-0.2,0.8-0.1
				c0.2,0.1,0.4,0.2,0.6,0.3c0.1,0.1,0.3,0.3,0.4,0.5l0.2,0.4c0.2,0.3,0.3,0.6,0.4,0.9c0.5,1.1,1,2.3,1.5,3.5
				c1.9,4.6,3.8,9.3,5.6,14l-0.8-0.1c2.9-4.1,5.9-8.2,8.7-12.4c1.4-2.1,2.8-4.2,4.1-6.3C288.1,338.7,289.4,336.5,290.4,334.2z"/>
		</g>
	</g>
	<path class="st14" d="M339.7,190.4c0,0-8.9-6.1-12-19c-5.6-23.6,1-48.6-18.7-53.5c-28.2-7-91.4-14.1-125.7,0.2
		c-17.5,7.3-11.2,28.8-16.7,50c-4,15.4-12,19.8-12,19.8s-1.5-5.8-3.4-14.1c-0.1-0.5-0.7-0.3-0.8-0.8c-0.1-0.3,0.3-1.4,0.2-1.7
		c-0.2-1-0.7-3.2-0.7-3.2l-1.4-3.7l-0.4,0.9l-0.3-1.5l-0.9-1.5l0-4l-0.1-1l-1.1-0.1l0.4-5.4l-0.2-1.5l-1.1-3.5l0.5-4.2l-1-1.8
		l0.9-2.4l-1.3-0.8l1.4-4.7l-0.7-1.3l2-6.3l-1.2-2.6l1.6-1.9l-1-1.8l1.6-7l-0.3-2.5l1.4-1.1l-0.2-2.4l1.4-2l-0.4-2.5l1.7-2l-1.3-1.8
		l2.3-1.7l-0.1-2.2l4.4-3.7l22.7-18.7l42.6-17.4l7,2.1l27.9-4.3l2.7,4.3l29.7,2.7l8.1,5l23.5,4.6l-2,2.4l18.1,15.1l2.8,1.3l8.7,29.1
		l3.1,4.1l-2.9,3l-2.1,23.7l-1.4,1.6l0.2,23.3l2.2,0.9l-4.7-11.2C344.9,172.3,339.7,190.4,339.7,190.4z"/>
	<g>
		<g>
			<path class="st15" d="M246.6,413.5l0,1.7l1,84.1H176l-2.6-56.3l-24,56.3h-55c0,0,58.7-135.4,60.1-141c1.4-5.5,6.1-13.7,19.6-16.3
				C187.6,339.5,244.6,407,246.6,413.5z"/>
		</g>
		<g>
			<path class="st16" d="M246.6,413.5c0,0-3.3-8.6-8.8-19.7c-3.2-6.4-7.1-13.8-11.5-20.8c-4.8-7.8-10.2-15.2-15.8-20.4
				c-22.8-21.6-10.1-30.5-3.6-35l-1.5-1.8c0,0-11.7-4.1-20.4,8.1c-1.8,2.6-7.1,3.9-8.6,10.4c-1.4,6.6-5.6-1.8-6.1,11.3
				c-0.5,13.1,19.4,18.8,35.1,27.8c12.4,7.1,30.8,28,38,36.5C245.4,412.1,246.6,413.5,246.6,413.5z"/>
		</g>
		<g>
			<path class="st17" d="M237.8,393.9c-3.2-6.4-7.1-13.8-11.5-20.8c-4.8-7.8-10.2-15.2-15.8-20.4c-22.8-21.6-10.1-30.5-3.6-35l1.6-6
				c0,0-10.4,2.2-14.5,4.1c-2.5,3.1-4.2,11.7-3.2,18.1c2.3,14.6,24.6,33.5,30.4,44.7c1.6,3.2,5.4,10.1,8.2,15.6
				c6.5,6.7,10.6,11.6,14,15.6c1.9,2.3,3.1,3.7,3.1,3.7S243.3,404.9,237.8,393.9z"/>
		</g>
		<g>
			<path class="st18" d="M221.2,304.4c0,0-25,8.6-25,23.3c0,12.1,13.2,24.7,17.9,29.3s9.7,12.1,9.7,12.1c-3.5-9.3-18-29.9-18-37.9
				c0-6.6-1.6-11.9,15.3-19.1C221.2,312.1,221.2,308.1,221.2,304.4z"/>
		</g>
		<g>
			<path class="st19" d="M199.6,324.3c3.7-7.4,13.1-13.7,21.6-16.4c0-1.8,0-1.9,0-3.5c0,0-8,1.7-15,7.6c-0.3,1.6-0.8,3-1.5,3.6
				c-1.8,1.8-2.9,1.1-5.8,7.6c-2.9,6.5,1.8,16.1,4.3,19.5l0.1-0.8C203.4,342.1,195.9,331.7,199.6,324.3z"/>
		</g>
		<g>
			
				<ellipse transform="matrix(9.357350e-02 -0.9956 0.9956 9.357350e-02 -185.9365 595.3776)" class="st20" cx="234" cy="399.8" rx="1.8" ry="2.6"/>
		</g>
		<g>
			<path class="st20" d="M233.6,398.7c-5.7-5.9-11.6-11.8-17.7-17.3c-1.5-1.4-3.1-2.7-4.8-3.9c-1.7-1.1-3.5-2.1-5.4-3l-11.1-5.6
				c-3.7-1.9-7.4-3.8-10.9-5.9c-1.8-1.1-3.5-2.2-5.2-3.5c-0.4-0.3-0.8-0.7-1.2-1c-0.4-0.3-0.8-0.7-1.2-1c-0.4-0.4-0.8-0.8-1.1-1.1
				l-1-1.2c-0.7-0.8-1.3-1.6-2-2.4c-0.6-0.8-1.3-1.7-1.8-2.7c-0.2-0.5-0.4-1.1-0.4-1.7c0-0.6,0.1-1.1,0.1-1.6l0.4-3.1
				c0.1-1,0.3-2.1,0.5-3.1c0.2-1,0.5-2.1,1.3-2.9c0.2-0.2,0.5-0.3,0.8-0.4l0.8-0.1c0.5-0.1,1-0.2,1.4-0.4c0.9-0.5,1.3-1.5,1.5-2.5
				l0.1,0c-0.1,1-0.4,2.2-1.4,2.7c-0.5,0.3-1,0.4-1.5,0.5l-0.7,0.2c-0.2,0.1-0.4,0.2-0.6,0.3c-0.7,0.7-0.9,1.7-1.1,2.7
				c-0.2,1-0.3,2-0.3,3.1c-0.1,1-0.1,2.1-0.3,3.1c-0.1,0.5-0.1,1-0.1,1.5c0,0.5,0.1,0.9,0.3,1.3c0.4,0.9,1.1,1.7,1.7,2.4
				c0.6,0.8,1.3,1.6,2,2.3c2.5,3.2,6,5.5,9.5,7.6c3.5,2.2,7.1,4.1,10.8,6l11,5.7c1.8,1,3.7,1.9,5.4,3.1c1.7,1.2,3.3,2.6,4.8,4
				C222.3,386.6,228,392.6,233.6,398.7L233.6,398.7z"/>
		</g>
		<g>
			<rect x="233" y="401.1" class="st20" width="2" height="67.2"/>
		</g>
		<g>
			<path class="st16" d="M245.5,499.3h2c0,0,1.7-81.7-2-88l-1.1-0.4C244.4,411,247.6,429.5,245.5,499.3z"/>
		</g>
		<g>
			<path class="st20" d="M173.9,443.1l-1-0.2c0.1-0.5,8.6-55,1.3-69.8c-7.2-14.7-19.3-15.6-19.4-15.6l0.1-1c0.1,0,3.3,0.2,7.3,2.3
				c3.7,1.9,9,5.9,12.9,13.8C182.5,387.7,174.2,440.8,173.9,443.1z"/>
		</g>
		<g>
			<path class="st21" d="M194.4,317.8c-0.9,2.2-1.4,4.6-1.7,6.9c-0.4,2.3-0.6,4.7-0.4,7c0.2,2.3,0.9,4.6,1.8,6.7
				c1,2.1,2.1,4.2,3.4,6.2c2.5,4,5.5,7.8,8.5,11.5c1.5,1.9,3.1,3.7,4.6,5.5c1.4,1.9,2.9,3.8,4.2,5.8l-5-5.2
				c-1.5-1.8-3.1-3.7-4.6-5.5c-3-3.7-6-7.5-8.6-11.6c-1.3-2-2.5-4.2-3.5-6.4c-1-2.2-1.7-4.6-1.9-7.1c-0.1-2.4,0-4.9,0.4-7.3
				c0.3-1.2,0.7-2.3,1.1-3.5C193.3,319.9,193.8,318.8,194.4,317.8z"/>
		</g>
	</g>
	<g>
		<g>
			<path class="st15" d="M248.6,413.5l0,1.7l-1,84.1h71.6l2.6-56.3l24,56.3h55c0,0-58.7-135.4-60.1-141c-1.4-5.5-6.1-13.7-19.6-16.3
				C307.6,339.5,250.6,407,248.6,413.5z"/>
		</g>
		<g>
			<path class="st16" d="M248.6,413.5c0,0,3.3-8.6,8.8-19.7c3.2-6.4,7.1-13.8,11.5-20.8c4.8-7.8,10.2-15.2,15.8-20.4
				c22.8-21.6,10.1-30.5,3.6-35l1.5-1.8c0,0,11.7-4.1,20.4,8.1c1.8,2.6,7.1,3.9,8.6,10.4c1.4,6.6,5.6-1.8,6.1,11.3
				c0.5,13.1-19.4,18.8-35.1,27.8c-12.4,7.1-30.8,28-38,36.5C249.8,412.1,248.6,413.5,248.6,413.5z"/>
		</g>
		<g>
			<path class="st17" d="M257.4,393.9c3.2-6.4,7.1-13.8,11.5-20.8c4.8-7.8,10.2-15.2,15.8-20.4c22.8-21.6,10.1-30.5,3.6-35l-1.6-6
				c0,0,10.4,2.2,14.5,4.1c2.5,3.1,4.2,11.7,3.2,18.1c-2.3,14.6-24.6,33.5-30.4,44.7c-1.6,3.2-5.4,10.1-8.2,15.6
				c-6.5,6.7-10.6,11.6-14,15.6c-1.9,2.3-3.1,3.7-3.1,3.7S251.9,404.9,257.4,393.9z"/>
		</g>
		<g>
			<path class="st18" d="M274,303.4c0,0,25,9.6,25,24.3c0,12.1-13.2,24.7-17.9,29.3c-4.7,4.6-9.7,12.1-9.7,12.1
				c3.5-9.3,18-29.9,18-37.9c0-6.6,1.6-11.9-15.3-19.1C274,312.1,274,307.1,274,303.4z"/>
		</g>
		<g>
			<path class="st19" d="M295.6,324.3c-3.7-7.4-13.1-13.7-21.6-16.4c0-1.8,0-2.9,0-4.5c0,0,8,2.2,15,8.2c0.3,1.6,0.8,3.5,1.5,4.1
				c1.8,1.8,2.9,1.1,5.8,7.6c2.9,6.5-1.8,16.1-4.3,19.5l-0.1-0.8C291.8,342.1,299.3,331.7,295.6,324.3z"/>
		</g>
		<g>
			
				<ellipse transform="matrix(0.9956 -9.357350e-02 9.357350e-02 0.9956 -36.2652 26.1933)" class="st20" cx="261.2" cy="399.8" rx="2.6" ry="1.8"/>
		</g>
		<g>
			<path class="st20" d="M261.6,398.7c5.7-6,11.4-12,17.5-17.7c1.5-1.4,3.1-2.8,4.8-4c1.7-1.2,3.6-2.1,5.4-3.1l11-5.7
				c3.7-1.9,7.3-3.9,10.8-6c3.5-2.2,7-4.4,9.5-7.6c0.7-0.8,1.4-1.6,2-2.3c0.6-0.8,1.3-1.6,1.7-2.4c0.2-0.4,0.3-0.9,0.3-1.3
				c0-0.5,0-1-0.1-1.5c-0.1-1-0.2-2.1-0.3-3.1c-0.1-1-0.2-2.1-0.3-3.1c-0.2-1-0.4-2-1.1-2.7c-0.2-0.2-0.4-0.3-0.6-0.3l-0.7-0.2
				c-0.5-0.1-1-0.3-1.5-0.5c-1-0.6-1.3-1.7-1.4-2.7l0.1,0c0.2,1,0.6,2.1,1.5,2.5c0.4,0.2,0.9,0.3,1.4,0.4l0.8,0.1
				c0.3,0.1,0.6,0.2,0.8,0.4c0.9,0.8,1.1,1.9,1.3,2.9c0.2,1,0.3,2.1,0.5,3.1l0.4,3.1c0.1,0.5,0.1,1,0.1,1.6c0,0.6-0.2,1.2-0.4,1.7
				c-0.5,1-1.1,1.8-1.8,2.7c-0.6,0.8-1.3,1.6-2,2.4l-1,1.2c-0.4,0.4-0.7,0.8-1.1,1.1c-0.4,0.4-0.8,0.7-1.2,1c-0.4,0.3-0.8,0.7-1.2,1
				c-1.7,1.2-3.4,2.4-5.2,3.5c-3.6,2.1-7.2,4-10.9,5.9l-11.1,5.6c-1.8,1-3.7,1.9-5.4,3c-1.7,1.2-3.2,2.5-4.8,3.9
				C273.2,386.9,267.4,392.8,261.6,398.7L261.6,398.7z"/>
		</g>
		<g>
			<rect x="260.2" y="401.1" class="st20" width="2" height="67.2"/>
		</g>
		<g>
			<path class="st16" d="M249.6,499.3h-2c0,0-1.7-81.7,2-88l1.1-0.4C250.8,411,247.6,429.5,249.6,499.3z"/>
		</g>
		<g>
			<path class="st20" d="M321.3,443.1c-0.4-2.3-8.6-55.3-1.2-70.4c3.9-7.9,9.2-11.9,12.9-13.8c4.1-2.1,7.2-2.3,7.3-2.3l0.1,1
				c-0.1,0-12.3,1-19.4,15.6c-7.2,14.8,1.3,69.3,1.3,69.8L321.3,443.1z"/>
		</g>
		<g>
			<path class="st21" d="M300.8,317.8c0.6,1,1.1,2.1,1.6,3.3c0.4,1.1,0.8,2.3,1.1,3.5c0.4,2.4,0.6,4.8,0.4,7.3
				c-0.2,2.5-0.9,4.9-1.9,7.1c-1,2.2-2.2,4.3-3.5,6.4c-2.6,4.1-5.5,7.9-8.6,11.6c-1.5,1.9-3.1,3.7-4.6,5.5l-5,5.2
				c1.4-2,2.8-3.9,4.2-5.8c1.5-1.8,3.1-3.6,4.6-5.5c3-3.7,6-7.5,8.5-11.5c1.3-2,2.4-4.1,3.4-6.2c0.9-2.2,1.6-4.4,1.8-6.7
				c0.1-2.3,0-4.7-0.4-7C302.2,322.3,301.6,320,300.8,317.8z"/>
		</g>
	</g>
	<path class="st22" d="M170,142.8l-4.5-15.4h2.2l-2.2-2.5h2.2l2.2-4.8l-4.5-4.3l7.3,2.2v-3.2h5.3l-10.6-12.6l16.1,10.9l-2.2-5.8
		l3.7,3.7v-1.8l2.1,1.4l5.9,0.6L185,85.9l9.1,11.1c0,0-0.1-16.3,1.1-20c0,0,0,10.4,1.7,13.5l3.4-7.2l1.5,11.1c0,0-0.5-7.7,7.7-15.4
		l-2.1,7.2l18-15.4l-1.8,6.3l5.1-1.4v5.1l20.3-13.3l0.5,8l16.4-4.6l-6,4.4l19.4-6.4l-3.3,8.8h4.3l-2.5,2.4l18.8-0.7l-3.1,3.1l3.1,1
		l-2.2,1.7c0,0,13.6,1.4,15.9,1.4c2.2,0,5.1,2.4,5.1,2.4l-10.6,1.9l6.5,1.7l2.9,0.8l2.7,4.3h-6.6l11.9,5.3l3.7,5.3l-5.7-2.9l7,8
		l-5.3-2.4l7.5,10.4v4.8l5.1,2.7l3.9,6.5l-3.1-1.9l0.5,2.3l0.7,3.5l-3.1-1.4l3.9,11.1l-5.1-5.5l-1.7,5.5l0.5,5.7l0.2,3l-5.2-4.6v4.7
		c0,0-1.7-28.9-7.8-35c-6.9-6.9-21.6-14.5-54.4-15c-32.8-0.5-47.8,0.3-63.7,5.7C185.4,117.9,171.4,117.6,170,142.8z"/>
	<path class="st23" d="M317.9,115.7c-1.6-1.1-6.9-3.3-6.9-3.3l0.7-1.3l-17.9-1.9l7.3-2.7l-20.2,0.6l8.8-5.9c0,0-17.5,1.6-20.5,1
		l4.5-5.7l-33.1,4.2l4.7-10.4l-21.5,11l-1.5-12.8l-10.8,15.9l-13.5-16.3l0.7,19c-1,0.2,0.4,0.4,0.4,0.4l-9.2-12.6l6.4,18.5l-8.1-5.9
		l4.4,6.9l-7.4-3.4l4.1,4.2l-6.6-1l0.9,3.6l-7.5,0.9l1,2.9l-2.5,2.6l-4.3,0.3l2.1,2.7l-2.5,1.1l1.9,1.8l-2.2,1.2l2.3,0
		c0,0,2.2-7.3,7.5-10.7c7.2-4.6,19.1-7,19.4-7.2c49.8-8.7,101.8,2,113.7,6c10.7,3.6,12.5,29,12.5,29S327.5,122.3,317.9,115.7z"/>
	<path class="st14" d="M201.7,110.8c0,0,3.2-22.5,3.9-25.5v21.4l5.7-14.8l-1,12.3l3-6.1v7.8l8.1-19.3l-1.2,17.7c0,0,4.7-6.9,4.8-7.3
		c0.2-0.5-1.4,7.2-1.4,7.2l17.4-22.5L234,99.1l2.2-1.1l-1.9,6.9l8.9-1.6c0,0-11.3,5.3-17.2,5.7C220.1,109.5,207.1,109,201.7,110.8z"
		/>
	<path class="st24" d="M239.6,105.8c0,0,13.3,8.6,21.8,9.2l-14.1-7.7l26,6.7l-15.1-7.1l22.3,1.7
		C280.5,108.6,263.8,103.2,239.6,105.8z"/>
	<path class="st14" d="M251.7,91.2c0,0,10.4-9.1,14.2-11.5c3.8-2.4,9.1-7.7,9.1-7.7l-9.1,13.3l19.2-7.9l-8.3,7.9
		c0,0,22.1-1.7,26.3-2.2s0,4.4,0,4.4l13.6,3.7l-23.6,5.3L277.5,98v-6.5L251.7,91.2z"/>
	<polygon class="st6 brill" points="170.1,182.9 165.6,180 153.7,193.4 154.5,198.2 167.3,185.9 	"/>
	<polygon class="st6 brill" points="324.4,182.9 328.9,180 340.8,193.4 340,198.2 327.2,185.9 	"/>
	<polygon class="st22" points="330.8,112.3 340.9,120.2 339.6,116.3 341.7,116.3 338.6,114.6 344.6,114.6 337.7,110.8 342.1,110.8 
		338.6,108.1 339.9,108.1 335.5,104.3 342.5,104.3 336.3,101 342.2,98.6 338.3,97.4 342.9,94.1 336.7,94.2 338.1,93 336.4,91 
		338.3,88.3 330.3,88.2 331.5,83.7 319.2,85 326.2,89 323.8,90.3 325.2,91.1 323.8,92.3 329.3,93.2 322.5,94.6 329.5,96.2 328,98 
		331,98 324.2,99.4 329.5,102.6 326.2,101.8 335.3,108.1 331.9,108.1 333.7,110.8 329.5,110.8 	"/>
	<polygon class="st22" points="181.5,93.2 180,91.5 180.3,93.6 177,91 177.8,93.2 171,87.9 175.8,94.2 171.7,92.4 173.9,96.3 
		169.6,94.1 171.6,98.2 166.5,94.1 169.8,101.3 165.2,97 165.7,101 160.8,98.2 163.5,103.9 161.9,103 160.7,105.4 157.5,104.9 
		160.8,112.2 156.2,112.9 162.5,123.5 163.3,115.5 165.4,117.2 165.5,115.5 167.2,116.3 165.7,111 169.8,116.5 168.3,109.5 
		170.6,110.1 168.5,104.8 175.3,107.3 174.4,101.2 180.1,102 176.9,97.6 180,99 179.8,95.3 182.3,96.5 	"/>
	<path class="st25 brill" d="M239.6,195.7l1.3-1.6c0,0,1.2-6.2,2.2-6.8c1-0.6,4.1-1.2,4.1-1.2s3.4,1,4,1.2c0.6,0.1,1.3,2,2.3,6.8
		c1,4.8,3.1-1.3,3.1-1.3l-1-8.9l-14.2-0.7l-2.8,4.7L239.6,195.7z"/>
	<path class="st26 brill" d="M314,176c-9.7-3.8-23.7-4.8-34.1-3.2c-12.7,1.9-22.7,9.9-22.7,9.9s-1.6-1.8-3.3-2c-1-0.1-6-0.4-6.7-0.4
		c-0.6,0-5.7,0.3-6.7,0.4c-1.6,0.2-3.3,2-3.3,2s-10-8-22.7-9.9c-10.4-1.6-24.4-0.6-34.1,3.2c-3.1,1.2-14.9,3.9-14.9,3.9v7.2
		c0,0,4.8-1.4,6.9,3c1,2.1,0.9,16.9,8.8,28c6.4,9,16.4,11.3,27.7,10.8c18.5-0.8,27.2-15.5,32-34.9c0,0-5.9-7.2,6.3-7.2
		c12.2,0,6.3,7.2,6.3,7.2c4.7,19.3,13.5,34,32,34.9c11.3,0.5,21.3-1.8,27.7-10.8c7.9-11.1,7.8-25.9,8.8-28c2.1-4.3,6.9-3,6.9-3V180
		C328.9,180,317.1,177.3,314,176z M224,220c-5.6,5.3-25.6,9.5-37.4-0.9c-11.5-10.1-8.7-30.1-6.8-33.3c1.5-2.5,8.8-9.9,23.4-10.5
		c14.6-0.7,23.8,5.3,23.8,5.3c7,3.1,8.7,9.9,8.9,16.9C236,204.6,229.6,214.8,224,220z M307.9,219.2c-11.8,10.3-31.8,6.1-37.4,0.9
		c-5.6-5.3-12-15.4-11.8-22.5c0.2-7.1,1.9-13.9,8.9-16.9c0,0,9.2-5.9,23.8-5.3c14.6,0.7,21.9,8,23.4,10.5
		C316.5,189.1,319.4,209.1,307.9,219.2z"/>
</g>

</svg>
