<?xml version="1.0" encoding="utf-8"?>
<!-- Generator: Adobe Illustrator 27.1.0, SVG Export Plug-In . SVG Version: 6.00 Build 0)  -->
<svg version="1.1" id="Laag_1" xmlns="http://www.w3.org/2000/svg" xmlns:xlink="http://www.w3.org/1999/xlink" x="0px" y="0px"
	 viewBox="0 0 351 467" style="enable-background:new 0 0 351 467;" xml:space="preserve">
<style type="text/css">
	.st0{fill:#EAD1BD;}
	.st1{fill:url(#SVGID_1_);}
	.st2{fill:#026156;}
	.st3{fill:none;stroke:#02443A;stroke-miterlimit:10;}
	.st4{fill:#F2DDCB;}
	.st5{fill:#D6C3B9;}
	.st6{fill:#51433A;}
	.st7{fill-rule:evenodd;clip-rule:evenodd;fill:#5E4F44;}
	.st8{fill-rule:evenodd;clip-rule:evenodd;fill:#6D5D52;}
	.st9{fill:#6D5D52;}
	.st10{fill:#473A32;}
	.st11{fill:#5E4F44;}
	.st12{fill:url(#SVGID_00000013165631436929423630000016592095067248664239_);}
	.st13{fill:url(#SVGID_00000114778357873344224820000015085939082999484821_);}
	.st14{fill:#DFE8EA;}
	.st15{fill:#D1A49F;}
	.st16{fill:#8C998E;}
	.st17{fill:#2A1D01;}
	.st18{fill:#FFFFFF;}
	.st19{fill:#E4CEC0;}
	.st20{fill:#D7C4B9;}
	.st21{opacity:0.5;fill:#FFFFFF;}
	.st22{fill:none;stroke:#FFFFFF;stroke-width:0.25;stroke-miterlimit:10;}
	.st23{fill:none;stroke:#FFFFFF;stroke-width:0.125;stroke-miterlimit:10;}
</style>
<g>
	<g>
		<path class="st0" d="M268.1,329.1c0,0-3.1-13.6-25-20.9c-21.8-7.3-42.2-15.5-42.2-31c0-15.5,0-40.9,0-40.9h-26.4h-26.4
			c0,0,0,25.3,0,40.9c0,15.5-20.4,23.7-42.2,31c-21.8,7.3-25,20.9-25,20.9L18,467h56l31-70l15.9,68.4h53.7l53.2-1.2L245,400l36,67
			h52L268.1,329.1z"/>
		<linearGradient id="SVGID_1_" gradientUnits="userSpaceOnUse" x1="176.0306" y1="285.86" x2="178.8541" y2="262.5659">
			<stop  offset="0" style="stop-color:#EAD1BD"/>
			<stop  offset="0.6467" style="stop-color:#C9B5A8"/>
			<stop  offset="1" style="stop-color:#BCAAA0"/>
		</linearGradient>
		<path class="st1" d="M200.9,277.1c0-8.7,0-20.4,0-29.1c-6.5-6.2-15.3-10.1-24.9-10.1c-11.2,0-21.2,5.1-27.8,13.1
			c0,8.2,0,18.3,0,26c0,4.6-1.8,8.5-4.9,12c5.7,12.3,18.2,20.9,32.7,20.9c13.7,0,25.6-7.7,31.7-18.9
			C203.5,287.1,200.9,282.6,200.9,277.1z"/>
		<path class="st2" d="M263.7,315.6c-1.8-1.3-45.9-17.3-45.9-17.3S196,354,174.4,354.2C152.8,354.3,132,298,132,298
			s-43.9,16.2-45.6,17.6c-1.7,1.3-39.1,86-40.5,89.4c0.2-0.4,1.5-2,7.4-1.8c6.9,0.3,41.1,12.5,38.7,22.9L102,404l4,63h137l3.5-63
			l11.8,22.1c-2.4-10.4,31.8-22.6,38.7-22.9c5.9-0.2,7.2,1.3,7.4,1.8C302.8,401.6,265.5,316.9,263.7,315.6z"/>
		<path class="st3" d="M128.5,300.5c0,0,22,59.5,45.6,59.4c23.6-0.2,46.9-59.4,46.9-59.4"/>
		<path class="st4" d="M267.8,123.2c0,77-26,139.8-93,139.8c-66.9,0-91.7-63.6-91.7-140.6c0-77,62.3-92.5,92.8-92.5
			S267.8,46.2,267.8,123.2z"/>
		<path class="st5" d="M231.6,223.7c-0.8-1.6-4.4-5.5-7.9-9.1c-6.8-4.4-17.7-24.9-49.5-24.9c-27.3,0-39.3,15.1-46.4,22.2
			c0,0,0,0,0,0c-2.6,4.2-6.1,14.3-6.1,14.3l-3.9,9.5l-6.8-2.9c13.3,14.4,25.8,24.7,33.3,27c7.4,5.7,18,9,30.7,9
			c12.7,0,24.4-4.3,31.8-10c7.2-2.2,18.6-11,31.3-24.4C235.5,236.6,233.4,227.2,231.6,223.7z M198,244.5c-7.2,1.6-14.9,2.5-23.3,2.5
			c-9.7,0-13.2-0.6-21.3-2.8c-5.4-5.4-11.4-22.2-11.3-29c0-2.1-1.1-6.3,4.3-8.1c2.3-0.8,5.1-0.1,8.3,1v0l0,0
			c2.2,0.8,4.6,1.7,7.2,2.6c1.1,0.2,2.2,0.3,3.2,0.1c4.6-0.6,4.6-2.8,10.2-2.2c4.9,0.5,7.6,2.5,10.8,2.4c7.7-2.2,14.7-5.3,18.7-4
			C210.3,208.9,206.6,237.9,198,244.5z"/>
		<path class="st6" d="M88.9,182c0,0-0.6-18.8,1.4-26.3c2-7.5,1.3-44.7,7.1-56.7c5.8-12,10.6-33.4,76.5-33.2s63.7,6.5,75,27.9
			s6.6,54.5,8.6,62c2,7.5,1.4,26.3,1.4,26.3c3.2-7.8,5.5-8.4,5.5-8.4s11.8-75.1-8.5-103.8c-20.3-28.6-50.1-46-82-46l-0.4,0.2
			l0.2-0.2c-31.9,0-61.7,17.4-82,46C71.5,98.5,85.7,174.2,88.9,182z"/>
		<path class="st6" d="M200.3,15.7c-2.1,3.3-4.8,5.8-7.1,7.6c2.7-8.5-0.4-16.3-0.4-16.3c-1.6,4.4-4.1,8.5-6.6,11.8
			c1.1-8.9-1.9-19-1.9-19c-2.2,6.6-10.5,14.2-15.5,18.3c1.4-8.5,0-17.8,0-17.8c-1.7,8.4-7.3,16-10.9,20.2c1.2-7.1,0.6-13.4,0.6-13.4
			c-2,7.5-8.7,14.3-13.6,18.3c1.7-5.5,2.6-10.6,2.6-10.6c-5.8,13.1-22,22.3-22,22.3s5.3,2.8,10.1,1.6l-1,2.3c0,0,6.5,2.9,16.2-5.3
			c0.2-0.2,0.5-0.4,0.7-0.6c3.1-0.1,8-1.1,12.6-5.9l-0.4,3.1c0,0,3.9,4.4,7.8,4.4c3.4,0,5.8-0.7,10.3-7.1c2.2,1.6,5.3,2.9,8.1,0
			c1.6,2.1,4.2,3.9,7.6-0.1C203.1,22.5,200.3,15.7,200.3,15.7z M210.6,30.7c-4-2.9-4.6-10.2-4.6-10.2c-2.3,3.4-8.6,8.7-8.6,8.7
			L210,37C210,37,214.6,33.6,210.6,30.7z"/>
		<path class="st7" d="M133.1,45.5c-10,8.2-15.2,10.4-9.1,18.7c-0.5-3.3-1.4-5.2,1.3-8.4c0.5,1.1,1.5,3.2,2.9,4.7
			c2.2,2.4,7.7,3.5,7.5-1.1c-0.1-2.2-0.3-5.7-0.3-6.5c2.1,8.2,6.4,10.1,11.8,11.5c-14.4-7.9-6.4-21.8-1.3-27.8
			c-5.8,6.1-7.9,10.1-9.9,16c-1.8-5.7,5-12.5,8.2-17.3c-3.4,3.8-8.9,9.3-11.7,13.3c-2.5,3.7-3.6,6.8-3.8,8.4
			C127.1,52.6,129.9,49.5,133.1,45.5z"/>
		<path class="st7" d="M148.9,33.5c-2.8,7.9-6.3,10.7-8.2,15.2c-3.2,7.4-2.3,13.7,9.7,18.7c-14.5-8.5-4.6-13.6,0.7-21.8
			c-3.6,8.9-6.2,11.5-2,18.9c-3.4-7.9,3.5-10.2,6.5-18.5c1.7-4.6,2.2-11.8,0.7-18c-2.9,15.5-12.3,21.4-13.7,25.4
			C142.8,46.8,149.2,40.1,148.9,33.5z"/>
		<path class="st8" d="M170.5,33.7c-1.7,6.1-0.4,10.8-1.3,14.8c-1.1,5-5.6,7.9-6,11.3c-0.5,4.2,2.1,6.3,4.6,6.2
			c1.7-0.1,3.1-1.9,3.9-4.1c1.1-3.1-0.1-3.3,2.5-9.8c-1.5,9.3,3.6,15,6.3,12.4c1.2-1.1,1.7-3,1-8.7c0,0,1.9,3.8,2.8,5.4
			c1.9,3.6,9.4,2,8.8-1.5c-0.8-5.7-7.1-13-9-15.8c2.7,7.4,2.9,9,4,15.3c-4.1-10.5-8.4-14.7-15.2-23.3c3.7,6.3,7.1,11.9,9.7,18.5
			c-2.9-4.2-4.9-7.1-6.4-10.3c1.5,6.3,2.7,9.8,2.2,16.2c-1.9-6.5-2.5-12.3-4.9-18.6c-0.1,6.6-3.1,12-5.9,18.2
			c-0.1-4.4,2.5-6.8,3.7-11.1C172.3,45.3,170.4,41.1,170.5,33.7z"/>
		<path class="st7" d="M186.8,33.7c0.5,5.6,8,10.9,13.9,16.7c-2.5-1.5-4.3-2.6-6.5-4.3c2,2.5,7.5,9.7,9.6,13.9c1,1.9,2.9,5,5,6.1
			c3.2,1.6,5.3-0.7,3.7-4.1c4.8,3.1,8.4,5.1,11.7,6c3.2,0.9,5.7,2.7,5.9-1.3c0.4-6.9-11.1-15.7-17.7-19.8c5.6,5.5,9.8,8.6,11.4,15.3
			c-2.8-2.9-5.5-6.1-8.3-8.4c-5.7-4.8-9-5.2-16.8-13.7c3.1,7.2,15.3,15.1,19.1,21.4c-5.6-4.8-10.8-10.1-16.7-14.7
			C195.3,42.4,189.9,39.9,186.8,33.7z"/>
		<path class="st7" d="M169.1,21c7.5,10.1,4.4,15.6,16.5,25.9c-2.6-7.1-1.9-10.4-0.8-17.6c6.2,4,6.2,7.4,11.4,12.4
			c-4.7-8.1-1.5-10.8-4-13.4c-1.8-1.8-5.7-3.5-11.4-5.9c1,0.9,2,2.5,2.6,3.5c-1.5-1.2-3.6-2-6.9-3C174,22.1,170.9,21.8,169.1,21z"/>
		<path class="st7" d="M194.2,26.8c3.5,6,3.6,7.5,8.8,12.8l-0.2-2.4c4.2,3.3,11.1,3.7,18.3,10.5c0,0-3.8-8.3-4.4-9.9
			c0.1,2.8-0.3,2.7,1,5.4c-5.6-6.1-11.4-12.2-19.3-18c3.9,4.6,5.7,7.4,8.8,12.1C200.9,34.6,199.2,32.6,194.2,26.8z"/>
		<g>
			<path class="st9" d="M172.1,41.1c-8.2-0.2-12.4,12.2-14.2,18.8c0,0-0.9,3.5-0.9,3.5c-0.2,1.1-1.3,1.8-2.4,1.5
				c-1.1-0.3-1.8-1.5-1.4-2.6c0.8-2.1,1.9-5,2.9-7C159,49.6,164.6,39.9,172.1,41.1L172.1,41.1z"/>
		</g>
		<g>
			<path class="st9" d="M123.6,48.5c-6.1,4.2-7.7,12.2-7.2,19.2c0.1,1.3-1.9,1.5-2,0.1C114.5,60.6,116.9,52.3,123.6,48.5L123.6,48.5
				z"/>
		</g>
		<g>
			<path class="st9" d="M223.5,44.6c1.8,1.3,2.6,3.6,3.4,5.5c1.6,4.1,2.5,8.5,3.3,12.8c0.4,2.2,0.7,4.3,1,6.5c0.1,0.5-0.3,1-0.8,1.1
				c-0.5,0.1-1-0.3-1.1-0.8c-0.5-6.5-1-13.1-2.8-19.4C225.7,48.2,225.1,46,223.5,44.6L223.5,44.6z"/>
		</g>
		<g>
			<path class="st10" d="M125.7,45.5c0,0-2.7-7.6-9.3-3.5c0,0,7.4-10.7,13.6,2.2c0,0,0.5-9.5-6.1-12.9c0,0,10.1,0.4,11.3,13.5
				c0,0,2.5-4.6,1.2-11.1"/>
			<path class="st11" d="M125.7,45.5c-1.7-4-5.2-5.8-9.1-3.3c-0.2,0.2-0.6-0.2-0.4-0.4c5.1-6.9,10.9-5.2,14.2,2.2
				c0,0-0.9,0.2-0.9,0.2c0-3.6-0.8-7.4-3.1-10.2c-0.8-0.9-1.7-1.7-2.8-2.3c-0.4-0.2-0.2-0.9,0.3-0.9c7.3,0.8,11.1,7.1,11.5,13.9
				c0,0-0.5-0.1-0.5-0.1c1.7-3.4,2.1-7.3,1.5-11c0.8,3.7,0.6,7.7-1,11.2c-0.1,0.3-0.5,0.2-0.5-0.1c-0.5-6.3-4.3-12.4-11-13
				c0,0,0.2-0.9,0.2-0.9c1.1,0.6,2.2,1.4,3.1,2.4c2.5,3,3.3,7,3.3,10.9c0,0.3-0.2,0.5-0.5,0.4c-0.2,0-0.3-0.1-0.4-0.3
				c-0.6-1.3-1.4-2.6-2.3-3.7c-3.3-4.3-7.9-2.2-10.6,1.5c0,0-0.4-0.4-0.4-0.4c0.4-0.2,0.9-0.5,1.3-0.7
				C121.2,39.5,124.5,42.1,125.7,45.5L125.7,45.5z"/>
		</g>
		<path class="st10" d="M253.2,52.4c0,0-5.2,8.7-12.1,12.7l4.3,7.3c0,0,5.1-2.5,8.6-6.5l-6.6,1.3C247.4,67.1,252.1,60.2,253.2,52.4z
			"/>
		<path class="st10" d="M238.9,62.4c-0.9-0.8,4.4-4.8,7-9.5C245.9,52.9,242.6,65.4,238.9,62.4z"/>
		<g>
			<path class="st10" d="M241.1,55.9c0,0,0.8-3.7,4.8-1.5c0,0-5-5.4-7.2,0.8c0,0-1.1-4.6,2.2-6.2c0,0-5.5,0-5,6.4
				c0,0-1.8-2.3-1.7-5.5"/>
			<path class="st11" d="M241.1,55.9c0.5-2.6,2.9-2.9,4.9-1.8c0,0-0.3,0.4-0.3,0.4c-2.5-2.3-5.3-3.1-6.6,0.7
				c-0.1,0.3-0.4,0.4-0.6,0.3c-0.1-0.1-0.2-0.2-0.3-0.3c-0.3-1.3-0.3-2.5,0-3.8c0.3-1.3,1.2-2.4,2.4-3c0,0,0.2,0.9,0.2,0.9
				c-1.3,0-2.8,0.6-3.7,1.7c-0.9,1.1-1.1,2.7-1,4.1c0,0.3-0.3,0.4-0.5,0.2c-1.1-1.7-1.6-3.7-1.5-5.6c0.1,1.9,0.8,3.8,1.9,5.3
				c0,0-0.5,0.2-0.5,0.2c-0.5-3.6,1.4-6.7,5.3-6.9c0.5,0,0.7,0.7,0.2,0.9c-0.5,0.3-0.9,0.5-1.2,1c-1,1.3-1,3.1-0.7,4.7
				c0,0-0.9,0-0.9,0c1-2.9,3.3-4.2,6-2.4c0.7,0.4,1.3,1,1.9,1.6c0.1,0.1,0.1,0.3,0,0.4c-0.2,0.2-0.7-0.2-1-0.3
				C243.3,53.5,241.7,54,241.1,55.9L241.1,55.9z"/>
		</g>
		
		<radialGradient id="SVGID_00000080900202866954744060000017387924718746114226_" cx="123.543" cy="198.7968" r="15.9853" gradientUnits="userSpaceOnUse">
		<stop  offset="0" style="stop-color:#EDCDB5"/>
		<stop  offset="1" style="stop-color:#F2DDCB"/>
	</radialGradient>
	<path style="fill:url(#SVGID_00000080900202866954744060000017387924718746114226_);" d="M139.5,198.8c0,8.8-7.2,16-16,16
		c-8.8,0-16-7.2-16-16c0-8.8,7.2-16,16-16C132.4,182.8,139.5,190,139.5,198.8z"/>
	
		<radialGradient id="SVGID_00000120536208345057210900000015305236796868129969_" cx="225.7017" cy="198.7968" r="15.9853" gradientUnits="userSpaceOnUse">
		<stop  offset="0" style="stop-color:#EDCDB5"/>
		<stop  offset="1" style="stop-color:#F2DDCB"/>
	</radialGradient>
	<path style="fill:url(#SVGID_00000120536208345057210900000015305236796868129969_);" d="M241.7,198.8c0,8.8-7.2,16-16,16
		s-16-7.2-16-16c0-8.8,7.2-16,16-16S241.7,190,241.7,198.8z"/>
	<g>
			<path class="st14" d="M76.8,334.3l0.1,0.5C76.9,334.6,76.8,334.5,76.8,334.3C76.8,334.3,76.8,334.3,76.8,334.3z"/>
		</g>
		<path class="st15" d="M139.4,211.2c11.1,6.7,23,10.9,35.1,10.8c12.1,0,23.8-4.7,35.4-10.8c-4.3,5-9.6,9.2-15.6,12.2
			c-6,3-12.8,4.7-19.7,4.8c-6.9,0-13.7-1.5-19.8-4.5C148.7,220.7,143.3,216.6,139.4,211.2z"/>
		<path class="st16" d="M147.6,162.2c0,10.9-8.9,19.7-19.9,19.7c-11,0-19.9-8.8-19.9-19.7c0-10.9,8.9-19.7,19.9-19.7
			C138.6,142.4,147.6,151.3,147.6,162.2z"/>
		<path class="st17" d="M142.4,162.2c0,7.6-6.2,13.8-13.8,13.8c-7.6,0-13.8-6.2-13.8-13.8c0-7.6,6.2-13.8,13.8-13.8
			C136.3,148.4,142.4,154.6,142.4,162.2z"/>
		<path class="st18" d="M122.9,155c0,2.2-1.8,4-4,4c-2.2,0-4-1.8-4-4s1.8-4,4-4C121.1,151.1,122.9,152.8,122.9,155z"/>
		<path class="st16" d="M201,162.2c0,10.9,8.9,19.7,19.9,19.7c11,0,19.9-8.8,19.9-19.7c0-10.9-8.9-19.7-19.9-19.7
			C209.9,142.4,201,151.3,201,162.2z"/>
		<path class="st17" d="M206.1,162.2c0,7.6,6.2,13.8,13.8,13.8c7.6,0,13.8-6.2,13.8-13.8c0-7.6-6.2-13.8-13.8-13.8
			C212.3,148.4,206.1,154.6,206.1,162.2z"/>
		<path class="st18" d="M206.9,155c0,2.2,1.8,4,4,4c2.2,0,4-1.8,4-4s-1.8-4-4-4C208.7,151.1,206.9,152.8,206.9,155z"/>
		<path d="M45.9,404.9c0,0.1-0.1,0.1-0.1,0.1S45.8,405,45.9,404.9z"/>
		<path d="M304.3,404.9c0,0.1,0.1,0.1,0.1,0.1S304.3,405,304.3,404.9z"/>
		<path class="st19" d="M157.2,236.8c0,0,0.3-0.4,0.1-0.9c-0.2-0.5,4-2.8,17.7-2.7c12.1,0,16.2,1.7,16.2,1.7l-0.7,1.4l-3.4,2
			l-13.5,2.5l-7.7-1.1l-2.5-1.6l-2,0.6l-3.1-1.2L157.2,236.8z"/>
		<g>
			<path class="st20" d="M157.4,235.7c-0.4,2.3,2.6,2.7,4.3,2.9c0,0-0.2,0.1-0.2,0.1s0.8-1.1,0.8-1.1l0.2-0.3l0.3,0.3
				c2.9,2.8,7.4,2.9,11.2,2.7c3-0.3,6.1-0.6,8.8-1.9c1.2-0.5,2-1.3,2.5-2.4c0,0,0.4,0.6,0.4,0.6c0.6,0.9,0.3,2.2-0.7,2.7
				c0,0-0.2-0.6-0.2-0.6c1.8-0.4,3.7-0.9,5.2-2.1c0.5-0.4,0.9-1,0.9-1.6c0.4-0.1,0.7,0.2,0.7,0.5c0-0.3-0.3-0.6-0.6-0.4c0,0,0,0,0,0
				c0,0.7-0.4,1.3-0.9,1.8c-1.9,1.8-4.7,2.4-7.2,3.1c0,0,1.7-1.1,1.7-1.1c0.7-0.4,0.8-1.1,0.4-1.7c0,0,0.7-0.1,0.7-0.1
				c-2,3.4-8,3.9-11.6,4.3c-4.1,0.2-8.9-0.1-11.8-3.4c0,0,0.5,0,0.5,0c0,0-0.9,1.2-0.9,1.2C160,238.9,156.7,238.1,157.4,235.7
				L157.4,235.7z"/>
		</g>
		<rect x="131.1" y="378" class="st21" width="9" height="40"/>
		<rect x="158" y="378" class="st21" width="9" height="40"/>
		<rect x="196" y="378" class="st21" width="9" height="40"/>
		<rect x="142.4" y="378" class="st21" width="11.6" height="4.5"/>
		
			<rect x="142.4" y="396" transform="matrix(0.8394 -0.5436 0.5436 0.8394 -192.6626 144.5306)" class="st21" width="11.6" height="4.5"/>
		<rect x="114.4" y="414" class="st21" width="11.6" height="4"/>
		
			<rect x="208.4" y="378" transform="matrix(0.8181 0.575 -0.575 0.8181 257.6147 -54.0217)" class="st21" width="11.6" height="4.5"/>
		<rect x="208.4" y="396" class="st21" width="11.6" height="4.5"/>
		
			<rect x="209.4" y="412" transform="matrix(0.7071 -0.7071 0.7071 0.7071 -229.8802 273.5037)" class="st21" width="11.6" height="4.5"/>
		<line class="st22" x1="111" y1="382.5" x2="231" y2="382.5"/>
		<line class="st22" x1="111" y1="378" x2="231" y2="378"/>
		<line class="st23" x1="131" y1="380" x2="167" y2="380"/>
		<line class="st23" x1="114" y1="416" x2="126" y2="416"/>
		<line class="st22" x1="111" y1="400.5" x2="231" y2="400.5"/>
		<line class="st22" x1="111" y1="396" x2="231" y2="396"/>
		<line class="st22" x1="111" y1="418" x2="231" y2="418"/>
		<line class="st22" x1="111" y1="414" x2="231" y2="414"/>
		<line class="st22" x1="117.9" y1="420.8" x2="183.9" y2="378"/>
		<line class="st22" x1="114" y1="418" x2="181.5" y2="374.2"/>
		<line class="st23" x1="124" y1="414" x2="167" y2="386"/>
		<line class="st22" x1="213" y1="420" x2="231" y2="401"/>
		<line class="st22" x1="205.3" y1="421.5" x2="230" y2="396"/>
		<line class="st23" x1="211" y1="419" x2="228" y2="401"/>
		<line class="st22" x1="142.3" y1="378" x2="142.3" y2="417.9"/>
		<g>
			<line class="st22" x1="140.1" y1="378" x2="140.1" y2="417.9"/>
			<line class="st22" x1="131.1" y1="378" x2="131.1" y2="417.9"/>
		</g>
		<line class="st22" x1="154" y1="378.1" x2="154" y2="418"/>
		<rect x="174.4" y="396" class="st21" width="11.6" height="4.5"/>
		<line class="st23" x1="167" y1="398" x2="231" y2="398"/>
		<line class="st22" x1="174.3" y1="378" x2="174.3" y2="417.9"/>
		<line class="st22" x1="186" y1="378.1" x2="186" y2="418"/>
		<line class="st22" x1="158" y1="378.1" x2="158" y2="418"/>
		<line class="st22" x1="167" y1="378.1" x2="167" y2="418"/>
		<line class="st22" x1="196" y1="378.1" x2="196" y2="418"/>
		<line class="st22" x1="205" y1="378.1" x2="205" y2="418"/>
		<line class="st23" x1="199" y1="375" x2="199" y2="420"/>
		<line class="st23" x1="202" y1="375" x2="202" y2="420"/>
		<line class="st23" x1="161" y1="375" x2="161" y2="420"/>
		<line class="st23" x1="164" y1="375" x2="164" y2="420"/>
		<line class="st23" x1="134" y1="375" x2="134" y2="420"/>
		<line class="st23" x1="137" y1="375" x2="137" y2="420"/>
		<rect x="222.1" y="378" class="st21" width="9" height="40"/>
		<g>
			<line class="st22" x1="231.1" y1="378" x2="231.1" y2="417.9"/>
			<line class="st22" x1="222.1" y1="378" x2="222.1" y2="417.9"/>
		</g>
		<line class="st23" x1="225" y1="375" x2="225" y2="420"/>
		<line class="st23" x1="228" y1="375" x2="228" y2="420"/>
		<line class="st22" x1="213.9" y1="420.6" x2="189" y2="400"/>
		<line class="st22" x1="227" y1="418" x2="205" y2="396"/>
		<line class="st22" x1="231" y1="396" x2="206.3" y2="377.1"/>
		<line class="st22" x1="231" y1="389" x2="208.8" y2="373.8"/>
		<line class="st23" x1="231" y1="393" x2="207.3" y2="375.3"/>
	</g>
	<path d="M304.3,404.9C304.3,405,304.4,405,304.3,404.9C304.4,405,304.3,405,304.3,404.9z"/>
</g>
</svg>
