<?xml version="1.0" encoding="utf-8"?>
<!-- Generator: Adobe Illustrator 26.0.0, SVG Export Plug-In . SVG Version: 6.00 Build 0)  -->
<svg version="1.1" xmlns="http://www.w3.org/2000/svg" xmlns:xlink="http://www.w3.org/1999/xlink" x="0px" y="0px"
	 viewBox="75 28 351 467">
<style type="text/css">
	.st0{fill:#271E19;}
	.body{fill:#f9c7b5;}
	.face{fill:#fed4c5;}
	.st3{fill:#96A6AA;}
	.st4{fill:#2A1D01;}
	.st5{fill:#FFFFFF;}
	.st6{fill:#A38276;}
	.st7{fill:#3F342F;}
	.st8{fill:#EBEBEC;}
	.st9{fill:#D5D5D7;}
	.st10{fill:none;stroke:#FFFFFF;stroke-width:1.0189;stroke-miterlimit:10;}
	.st11{fill:#5A5047;}
	.st12{fill:#493E38;}
	.st13{fill:#473C38;}
	.st14{fill:#8C8279;}
</style>
<g id="Layer_5">
	<path class="st0" d="M327.7,370.4c0,0,35.1,7.2,41.8-20.1c15.2-61.9,6.1-195.7-23.8-241.1c-43.1-65.4-74.2-65.4-109.9-65.4
		s-56.8,27.3-78.9,65.4s-23.8,106.4-20.5,131.8s-24.6,48.1-16.5,71.9c8.1,23.8,44.2,32.3,47.6,44.8c3.4,12.5-3.4,23.8-3.4,23.8
		L327.7,370.4z"/>
</g>
<g id="Layer_2">
	<ellipse transform="matrix(0.3959 -0.9183 0.9183 0.3959 -331.2757 407.7267)" cx="144.3" cy="455.7" rx="7.1" ry="25.2"/>
	<ellipse transform="matrix(0.9183 -0.3959 0.3959 0.9183 -151.2852 178.2977)" cx="356.3" cy="455.7" rx="25.2" ry="7.1"/>
	<path class="body" d="M338.7,367.6c0,0-1.6-3.3-24.5-10.9c-22.9-7.6-36.3-16-36.3-32.3c0-16.2,0-42.8,0-42.8h-27.5h-0.2H250h-0.2
		h-27.5c0,0,0,26.5,0,42.8c0,16.3-13.4,24.7-36.3,32.3c-22.9,7.6-24.5,10.9-24.5,10.9L111.1,500h39.1l20.3-58.8
		c0,0,10.4,17.1,17.9,58.8h61.5h0.2h0.2h0.2h61.5c7.5-41.7,17.9-58.8,17.9-58.8l20.3,58.8h39.1L338.7,367.6z"/>
	<path class="face" d="M355.1,170.2c0,79.3-35.2,134.2-103.6,134.2c-68.3,0-106.3-55.6-106.3-134.9c0-79.3,39.1-117.3,107.4-117.3
		C321,52.2,355.1,90.9,355.1,170.2z"/>
</g>
<g id="Layer_4">
	<g>
		<path class="st3" d="M223.5,205.1c0,10.9-8.9,19.7-19.9,19.7c-11,0-19.9-8.8-19.9-19.7c0-10.9,8.9-19.7,19.9-19.7
			C214.5,185.4,223.5,194.2,223.5,205.1z"/>
		<path class="st4" d="M218.3,205.1c0,7.6-6.2,13.8-13.8,13.8c-7.6,0-13.8-6.2-13.8-13.8c0-7.6,6.2-13.8,13.8-13.8
			C212.2,191.4,218.3,197.5,218.3,205.1z"/>
		<path class="st5" d="M198.8,198c0,2.2-1.8,4-4,4c-2.2,0-4-1.8-4-4s1.8-4,4-4C197,194,198.8,195.8,198.8,198z"/>
		<path class="st6" d="M210.8,254.6c12.1,7.3,25.1,11.9,38.2,11.7c13.2,0,25.9-5.1,38.5-11.7c-4.6,5.5-10.4,10-17,13.2
			c-6.6,3.3-14,5.1-21.5,5.2c-7.5,0-15-1.7-21.5-4.9C221,264.9,215,260.4,210.8,254.6z"/>
		<path class="st3" d="M276.9,205.1c0,10.9,8.9,19.7,19.9,19.7c11,0,19.9-8.8,19.9-19.7c0-10.9-8.9-19.7-19.9-19.7
			C285.8,185.4,276.9,194.2,276.9,205.1z"/>
		<path class="st4" d="M282,205.1c0,7.6,6.2,13.8,13.8,13.8c7.6,0,13.8-6.2,13.8-13.8c0-7.6-6.2-13.8-13.8-13.8
			C288.2,191.4,282,197.5,282,205.1z"/>
		<path class="st5" d="M282.8,198c0,2.2,1.8,4,4,4c2.2,0,4-1.8,4-4s-1.8-4-4-4C284.6,194,282.8,195.8,282.8,198z"/>
	</g>
	<path d="M338.8,362.4c-1.8-1.3-39.1-16.3-39.1-16.3c-3.1,10.1-15,42.5-47.3,42.5c-32.3,0-49.7-23.2-52.1-42.5
		c0,0-37.1,15-38.9,16.3c-1.7,1.3-39.1,80-40.5,83.4c0.2-0.4,1.5-2,7.4-1.8c6.9,0.3,41.1,12.5,38.7,22.9l4.2-8.5l10.2,41.6h137.5
		l10.2-41.6l4.2,8.5c-2.4-10.4,31.8-22.6,38.7-22.9c5.9-0.2,7.2,1.3,7.4,1.8C377.9,442.4,340.6,363.7,338.8,362.4z"/>
	<path class="st7" d="M174.2,168c0,0,25.9-15.2,32.4-33.9c6.5-18.7,5.3-46.8,4.6-57.5C210.4,65.9,182.9,99,182.9,99L174.2,168z"/>
	<g>
		<path class="st8" d="M121.2,445.7c0,0.1-0.1,0.1-0.1,0.1S121.1,445.8,121.2,445.7z"/>
		<path class="st8" d="M379.6,445.7c0,0.1,0.1,0.1,0.1,0.1S379.6,445.8,379.6,445.7z"/>
	</g>
	<g>
		<path class="st9" d="M250.3,386.8c-30.4-1.9-46.6-30.6-49.4-42.4l-10.1,3.1c8.3,21.3,23.1,48.4,59.5,49.1V386.8z"/>
		<path class="st10" d="M190.8,347.5c7.3,19.4,22.5,49.1,59.5,49.1"/>
		<path class="st9" d="M250.1,386.8c30.4-1.9,46.2-29.3,49.1-41.1l10,4c-8.3,21.3-22.7,46.2-59.1,46.9V386.8z"/>
		<path class="st10" d="M309.1,349.6c-7.3,19.4-22,46.9-59.1,46.9"/>
	</g>
</g>
<g id="Layer_1">
	<path class="st7" d="M250.2,28.3c-12.4,0-24.1,9.1-35.5,11.4c-11.4,2.3-29.7,8.8-42.5,21.5c-17.2,17-16,30.5-17,66.8
		c-0.4,14.4-5.2,22.8-19,42.5l0,0c0,0-3,14.7-17.7,36.7c-4.6,6.8-15.7,26-18,33.6c-7.6,29,3,40.8,3,40.8s-9.3,31.7-1.9,47.4
		c9.1,19.3,28,25.8,34.5,35.3c6.5,9.6-5.9,26.1-5.9,26.1s15.9-11.5,11.9-28.2c3.6,3.4,8.5,8.6,8.9,12.2c0.6,5.8-2.3,13-7.8,16.9
		c0,0,14.7-2.3,14.7-20.3c0-17.9-7.2-16.4,0-26.3c7.2-10,16.6-15.2,12.9-31.9c0,0,13.8,5.7,4.3,25.3c-7.2,14.8-6.6,20.5-1.4,28.5
		c5.2,8,1.2,15-6,14.9c0,0,10.6,2.3,9.6-9.7c-0.4-5.4-6.1-11.3-4.6-18.5c1.9-8.7,9.5-18.9,10.9-26.3c2.4-12.9-1.6-17.6-14.4-27.5
		c-9.4-7.3-11.2-11.1-11.5-12.6c0.1,2.5,0.8,10.7,5.8,16.4c0,0-14.6-13.1-8.6-32.5c0.1-0.4,19.6-47,24.2-64.5
		c9.4-35.9-2.3-57.9,4.7-78.7s12-33.6,39.9-46.6c27.9-13.1,53.4,0,53.4,0s18.1-18.2,18.9-32.5C296.5,34.3,262.5,28.3,250.2,28.3z"/>
	<path class="st7" d="M166.9,76.6c0,0-15.5,13.3-25.3,33.5c-9.8,20.2-5.8,75-9.3,87.4c-3.5,12.4,35.1,3.8,34.5-14.1
		C166.3,165.5,166.9,76.6,166.9,76.6z"/>
	<path class="st7" d="M265.7,43.9L276.9,81c0,0,5.6-2.5,10.8,5.8c2.5,4,10.8,28.3,21.9,42.5c8.6,10.9,22.9,19.8,22.9,19.8
		s14.3,60,18.7,76c10.9,39.9-6.6,55.3,0,76.5c6.6,21.2,20.7,26.8,18.8,45.6c-1.9,18.8-5.6,21.6-5.6,21.6s9.8-7.7,10.9-21.4
		c1.1-13.8-1.7-17.8-1.7-17.8s11.3,24.1,22.5,15.4c0,0-5.6-0.3-1.2-5.5c5.3-6.3,12-15.6,16.4-26.1c8-19.2,6-83.8-9.7-105.5
		c-12.3-17-16.5-7-20.6-47.8c-2.6-26.7,1.2-19.6-4.1-36.9c-6.4-21.2-24.6-27.9-24.6-27.9s-12.2-34.5-25.4-40
		c-13-5.4-30.5-2-40.2-1.4C270.5,54.9,265.7,43.9,265.7,43.9z"/>
	<path class="st0" d="M293.8,53.9c3-8.7-0.4-12-0.4-12s5.3,4.9,5.3,11.8S284.1,79,284.1,79s2.2-0.9,3.9,2.1
		c4.7,8.1,14,39.9,25.5,52.2c0,0-12-8.2-27.9-47.7c-0.9-2.3-3-4.6-8.7-4.5C276.9,81,290.9,62.6,293.8,53.9z"/>
	<g>
		<path class="st11" d="M282.7,78.4c6.8-1.2,15.1,0,19.1,6.3c2.1,3.7,3.1,7.5,5,11.3c4.3,9.5,9.8,18.8,17.5,25.8
			c5.7,5.3,12.7,8.6,20,11.2c5.3,1.9,10.7,3.6,15.4,7.1c7.4,5.3,9.9,14.5,11.6,23c2.4,10.5,3.1,21.7,4.4,32.2c1,7.8,4.2,15,8.9,21.2
			c4.9,6.4,10.7,12,15.9,18.2c11.5,13.2,18.5,28,10.4,45.1c0,0-0.6-0.2-0.6-0.2c7-16.9-0.2-30.7-11.9-43
			c-11.5-12.3-24.4-22.7-27.1-40.5c-1.7-10.8-2.6-21.2-5.5-31.6c-1.4-4.8-2.5-10-5.1-14.2c-5.6-8.8-17.1-9.9-26.2-14.7
			c-5.1-2.5-9.9-5.8-13.9-9.8c-9.9-9.9-15.6-22.9-19.7-36.1c-1.7-8.4-10.4-11.1-18-10.6C282.8,79,282.7,78.4,282.7,78.4L282.7,78.4z
			"/>
	</g>
	<g>
		<path class="st11" d="M344.1,168.9c5.3,17.6,9.4,35.4,14.4,53.1c1.7,5.7,3.5,11.4,7.3,16.1c3.6,4.7,8.3,8.5,13.2,12.1
			c6.1,4.6,13.5,8.6,16.9,15.8c1.9,4.3,2.7,9,3.3,13.6c0.7,6,1.4,12.4,5.8,16.8c0,0-0.3,0.3-0.3,0.3c-1.1-1.1-2.1-2.3-2.9-3.6
			c-4.5-8.1-3.1-18.1-7.4-26.3c-3.6-6.7-10.8-10.3-16.8-14.6c-5.1-3.4-10.1-7.3-14.2-12.2c-4.2-4.8-6.4-10.9-8.5-16.8
			c-2.1-5.8-3.8-11.8-5.2-17.8c-2.8-12-4.9-24.1-6-36.4L344.1,168.9L344.1,168.9z"/>
	</g>
	<path class="st7" d="M314.9,299c0,0-10.5,13.4-4,27c6.5,13.6,8.8,17.4,4,25.9c0,0,10.5-5.1,7.1-18.7c0,0,14.8,8.3,11.7,23.4
		c-3.5,16.9,3.9,14.3,3.9,14.3s-2.8-0.2-2-4.5c0.8-4.3,6.5-10.3,6.5-10.3s-3,21.4,7.5,25c0,0-4.5-3.5,3.5-16.7
		c3.7-6.1,10.2-11.6,11.3-16.3c0,0,0.8,6.8-2.8,14.2c-3.6,7.4,2.8,12.1,2.8,12.1s-3.9-4.2-2.9-6.9c0.9-2.8,11-16.6,11.2-22.2
		s-7.3-29.9-7.3-29.9l3.6-42.4c0,0-12.6,19.4-10.8,29c1.8,9.7-1.7,11.8-1.7,11.8s-6.9-2.9-9-8.9c-2.2-6.1-2.5-14.3-2.5-14.3
		s-3.7,10.9-2.1,16.2c-2.8-1.7-4.7-5.3-5-14.4c0,0-3.2,7.6,1.9,19.1c0,0-8.3-5.8-8.9-14.3s1.1-13.2,1.1-13.2s-7.9,9.3-8.9,14.9
		c-1.7,9,1.9,11.4,1.9,11.4S315.4,308.3,314.9,299z"/>
	<g>
		<path class="st7" d="M351.2,256.4c-0.3,3.9-0.4,7.8-1.2,11.6c-0.7,3.8-1.9,7.6-2.7,11.3c-1.6,7.5-2,15.2-1,22.8c0,0-3,0.3-3,0.3
			c-0.2-4-0.2-7.9,0.3-11.9c0.7-7.8,3.6-15.2,5.7-22.7C350.3,264.1,350.6,260.2,351.2,256.4L351.2,256.4z"/>
	</g>
	<path class="st11" d="M358.2,268.5c-3.2,12-9.4,25.7,2,43.8c11.4,18.1,9.2,32,8.3,36.9c0,0,1.3-13.2-5.4-21.2
		c0,0,3.9,11.6-0.4,20.4s-19.6,11.4-18.3,22.1c0,0-2.6-6.7-0.1-14.1s6.3-12,6.3-12s-10.1,5.7-13,12.2c0,0,3.5-7.6,3.1-15.5
		c-0.4-8-8.2-16.5-8.2-16.5s10.8,7.1,11.9,13.4c0,0,2.4-10.2-12.8-32.4c0,0,2.8,3.5,7.7,7.3c7,5.3,13,12.2,12.9,17.9
		c0,0,2.1-4.3-1.1-13.4c0,0,7.8,9.8,8,17.7c0,0,2.5-10.1-0.7-18.8C355.2,307.5,346.1,293.1,358.2,268.5z"/>
	<path class="st12" d="M114.4,235c0.6-10.4,12.8-34.5,12.8-34.5c-2.7,1.3-6.5,8-12.8,13.3c-5.2,8.7-12.1,21.2-13.9,27
		c-6.3,23.8-0.2,36,2.2,39.7l19-16.6C121.7,263.8,113.7,245.4,114.4,235z"/>
	<g>
		<path class="st11" d="M377.8,174.2c-1.5-10.3-2.6-20.9-7.1-30.3c-2.2-4.6-6.4-7.8-11.1-9.8c-4.7-2-10.4-2.7-14.4-6.2
			c2.2,1.4,4.7,2.2,7.3,2.7c7.9,1.5,16.3,4.5,20,12.3C377,152.7,377.9,163.7,377.8,174.2L377.8,174.2z"/>
	</g>
	<path class="st13" d="M394.7,339.4c5.3-6.3,12-15.6,16.4-26.1c3.5-8.5,5.1-25.7,4.4-44.2c-2.6,12.2-6.5,15.7-7.7,21.3
		c-1.1,5.7,2.2,9.4,2.2,9.4c-7.5-1-10.9-6.9-10.9-6.9c1.5,6.2,8.5,11.3,8.5,11.3c-8.4-4-11.1-9.3-10.9-20.4
		c0.2-11.1-7.4-17-14.6-21.4c-7.2-4.4-21.8-16.7-21.8-16.7s6.3,9.1,11.1,16.5c4.9,7.4,1.4,19.5-0.5,25.3c-1.9,5.8-5.2,22.3,0,36
		c2.1,5.6,6.2,12.1,10.4,17.8c4.1,4.4,9.4,7.5,14.6,3.4C396,345,390.3,344.7,394.7,339.4z"/>
	<g>
		<path class="st11" d="M326.2,97.7c-4.4-1.8-8.7-4.9-10.9-9.4c-1.9-4.3-3.1-9.1-6.5-12.5c-2.1-2.1-5-3.6-7.8-3.4l-3.7,0.3l3.2-2.1
			c4.4-2.8,10.5-2,14,1.9c0,0-1.7,0.8-1.7,0.8c-0.6-4.7-5.2-8.6-9.9-8.5c0,0-3.5,0.1-3.5,0.1l3.1-1.5c3.4-1.6,7.5-1.7,10.9-0.1
			c3.3,1.6,5.9,4.6,6.8,8.1c-2.4-6.8-10.7-10.1-17-6.6c0,0-0.4-1.4-0.4-1.4c2.8-0.2,5.6,0.9,7.7,2.6c2.1,1.8,3.8,4.3,4.2,7.1
			c0,0,0.4,3.1,0.4,3.1l-2.1-2.3c-2.8-3.1-8-3.8-11.5-1.5l-0.6-1.8c3.6-0.2,6.9,1.6,9.3,4.1c3.5,3.7,4.6,8.7,6.3,13.2
			C318.2,92.2,322,95.4,326.2,97.7L326.2,97.7z"/>
	</g>
	<path class="st12" d="M291.2,48.7c1.5-5.6-8.9-7.1-21.4-12.7c-12.5-5.6-22.5-1.5-33.9,3.5c-8.9,3.9-18.2,1.5-22,0.2
		c-11.4,2.4-29.2,8.9-41.7,21.3c-7.5,7.5-11.5,14.2-13.7,22.5c2-0.7,4.3-1.5,6.9-2.4c12.1-4.3,14.8-11.9,25.4-16.3
		s34.9,1.4,45.1-0.7c10.2-2.1,15.4-6.2,22.1-5.9c6.7,0.4,7.8,11.7,7.8,11.7c3,5.6,11.2,5.6,11.2,5.6
		C286.9,65.2,289.7,54.4,291.2,48.7z"/>
	<path class="st12" d="M126.1,344c0,0,20.3,32.1-8.6,48.9c0,0,9.7-4.7,10.7-17.7c1-13.1-35.1-24.8-36.1-59.6
		C90.7,269.2,126.1,344,126.1,344z"/>
	<path class="st0" d="M367.7,287.5c0,0,3.9-12.9,2.3-20.5c-1.6-7.6-13.2-18.8-17.2-34.7s-1.6,20.4-1.6,20.4l-0.3,26.7l7.5-22.9
		c0,0,8.1,7.5,8.4,14c0.3,6.4-4.8,23.3-1.2,28.8C365.6,299.1,364.5,296.4,367.7,287.5z"/>
	<path class="st0" d="M340.7,87.6c3.2,3.9,7.6,6.4,11.4,7.5c-0.4-1.2-2.7-7.4-6.2-14.6c-0.7,0.2-1.5,0.2-2.4-0.2
		c-3.2-1.3-5.5-5.7-7.9-8.6c-2.3-2.7-4.8-4.1-4.8-4.1S336.6,82.6,340.7,87.6z"/>
	<g>
		<path class="st11" d="M276.9,73.3c4.4-6,10.3-15.6,4-22.1c-2.5-2.6-5.9-4.4-9.4-5c-5.8-1-11.8,0.7-16.7,3.8
			c-8.7,6-14.5,10.1-26,10.1c-19.7,1.7-47.6-5.6-58,16.5c6.9-20.1,31.2-19,48.6-19c5.8-0.3,12.4-0.2,18.1-1.5
			c4.3-1.1,8.2-3.5,11.9-6c6.4-4.7,14.5-8,22.6-6.2c4,0.8,7.7,3,10.4,6.1C288.8,57.3,282.4,67.4,276.9,73.3L276.9,73.3z"/>
	</g>
	<g>
		<path class="st11" d="M172.6,65.1c6.5-10.5,19.8-14.6,31.6-14.1c5.2,0.1,12.5,1.3,17.8,2.1c5.8,0.9,11.8,1.1,17.4-0.9
			c-5.4,2.7-11.7,3.1-17.6,2.5c-6-0.6-11.8-1.5-17.6-1.6C192.6,52.5,180.2,55.8,172.6,65.1L172.6,65.1z"/>
	</g>
	<g>
		<path class="st11" d="M269.5,65.1c0.2-2.5-1-5.2-3.8-5.1c0,0-2.4-0.2-2.4-0.2l2.2-0.9c4.6-1.9,7.7,1.1,7.7,5.7c0,0,0,1.6,0,1.6
			l-1.8-0.6c0.4-0.6,0.7-1.4,0.9-2.1c0.7-2.1,0.9-4.5-0.2-6.6c0,0-2-4.3-2-4.3l3.4,3.1c3.7,3.3,3.9,8.9,1.6,13c0,0-0.8-0.7-0.8-0.7
			c0.4-0.2,0.9-0.6,1.3-1c1.3-1.2,2.3-2.6,3.1-4.3c-0.6,2.4-1.8,4.7-3.9,6.2c0,0-1.2,0.8-1.2,0.8l0.5-1.5c1.5-3.7,1.2-8.4-1.9-11.1
			c0,0,1.5-1.2,1.5-1.2c1.8,3.4,1,7.4-0.8,10.6c0,0-2,3.3-2,3.3s0.2-3.9,0.2-3.9c0.2-2.3,0.2-5.8-2.7-6.3c-0.8-0.1-1.8,0-2.6,0.2
			c0,0-0.2-1.1-0.2-1.1C268.9,59.1,270.3,62.2,269.5,65.1L269.5,65.1z"/>
	</g>
	<path class="st12" d="M143.4,391.4c0,0,15.7-6.9,10.3-21.5c-5.3-14.1-6.3-20.1-0.4-28.3c6-8.2,12.5-12.6,12.7-22.5
		c0.1-4-1-7-2.7-10.2c-2.5-4.8-6.5-10-10.3-19.1c-6.2-15.2-6.2-36.6,6.2-59.3c17.9-32.6,3.7-51.2,1.4-67c-1.4-9.2,12-19.5,12-19.5
		c11.4-10.3,18.2-11.7,22.8-49.9c0,0-4.3,9.3-10.5,12.6c-12.1,6.4-35.4,16.7-36.7,37.7c-0.6,10.4,1.4,19.9,2.7,30.8
		c0,0-2.2-6.5-3.6-11.6c0,0-1.4,2.8,2.2,18.8c2,8.7-12,11.4-16.5,20.8c-6.4,13.5-1.3,39.9-5.8,48.8c-3.6,7.2-33.1,31.7-35.5,46.4
		c-1.8,11.4-0.9,16.5,1.5,26.7c1.3,5.8,14.6,11.1,16.7,15.7c9.5,10.6,21.6,16.2,26.6,23.4c6.5,9.6-5.9,26.1-5.9,26.1
		s15.9-11.5,11.9-28.2c3.6,3.4,8.5,8.6,8.9,12.2C151.9,380.4,149,387.5,143.4,391.4z"/>
	<path class="st11" d="M160.6,319.5l-13-24.7c0,0,1.8,7.1-3.2,17.3v-7.7c0,0-9.6,6.7-10.4,11.2c0,0-2.5-2.1-0.6-6.7
		s7.9-8.7,7.6-16.7s-7.1-15.3-7.1-15.3s-0.3,12-2.9,15.3c-2.6,3.3-5.3,7-5.3,7s1.6-2.2,2-10.8s-1-11.5-1-11.5s0.6,10-6.6,24.1
		c0,0,3.1-14.1,1.2-18.6c0,0-14,15.5-13.4,31c0.6,15.5,16.5,27.1,16.5,27.1s12.3,14,10.4,22.8c0.3,0.4,0.6,0.8,0.9,1.2
		c6.5,9.6-5.9,26.1-5.9,26.1s15.9-11.5,11.9-28.2c3.6,3.4,8.5,8.6,8.9,12.2c0.6,5.8-2.3,13-7.8,16.9c0,0,15.7-6.9,10.3-21.5
		c-5.3-14.1-6.3-20.1-0.4-28.3C155.7,337.7,163.2,331.6,160.6,319.5z"/>
	<g>
		<path class="st11" d="M145.2,390.4c5.4-4.4,9.5-11.4,8-18.4c-1.6-6.9-5.9-13.2-6.3-20.6c-0.6-5.5,0.3-11.6,3.9-16
			c1.1-1.5,2.2-2.8,3.1-4.2c2.3-3.5,3.1-7.9,3.2-12.1c-0.2-2.3-1.6-4.5-2.7-6.7c0,0-5.3-9.3-5.3-9.3c-11-20-12-31.7-2.6-52.6
			c2.8-6.6,6.2-13,9.6-19.4c4.7-9.2,10.1-18.7,10.4-29.1c-0.3-16.8-15.6-37.5-2.1-52.5c5-5.4,11.2-9.1,16.2-14.2
			c5.2-4.9,7.8-11.5,9.9-18.2c2.2-6.8,3.3-13.8,4.1-20.9c0.7-7.2,3.3-14.2,8.2-19.6c-4.5,5.7-6.7,12.6-7.1,19.7
			c-0.5,7.1-1.3,14.4-3.3,21.3c-1.9,7-4.6,14.1-9.8,19.4c-6.8,7.9-18.2,12.5-19.9,23.2c-1.7,14.3,7.4,27.3,7.8,41.7
			c-0.4,17.3-13.9,34.3-20.3,50.1c-11.8,25.3-5.3,36,7.1,58.9c1.2,2.6,2.8,5.1,2.9,8.3c-0.2,4.7-1.2,9.4-4,13.4c-2,3-4.7,5.3-6,8.6
			c-2.4,6.4-1.4,13.9,0.9,20.3c1.1,3.3,2.7,6.7,3.2,10.3C155.5,379.2,151.1,386.3,145.2,390.4L145.2,390.4z"/>
	</g>
	<g>
		<path class="st11" d="M104.6,306.8c-1.3-9.8,3.2-20.1,10.4-26.6c1-0.9,2.2-1.8,3.3-2.6c-0.8,1.1-1.8,2.1-2.6,3.2
			C109.8,288.3,106,297.3,104.6,306.8L104.6,306.8z"/>
	</g>
	<g>
		<path class="st14" d="M139.9,364.3c-0.4-3.6-2.2-6.9-3.9-10.1c-1.7-3.2-3.5-6.4-5.2-9.6c-3.2-6.7-6.4-13.6-7.2-21
			c-0.9-7.9,3.2-15,7.6-21.1c2.1-3,4.3-5.9,5.1-8.8c1-3.1,0-6.2-1.4-9c0,0,3.7-1.5,3.7-1.5c0.6,2.5,0.4,5.1-0.3,7.6
			c-1.2,4.7-5.2,7.9-8.6,11c-4.5,4.2-8.9,9.2-9.9,15.4c-0.6,3-0.3,6.1,0.4,9.1c0.6,1.9,2.2,6.8,2.8,8.8c0,0-3.9-4.4-3.9-4.4
			c-5.9-7.1-5.9-17.3-2.7-25.5c0.5-1.1,1-2.3,1.5-3.4c-0.4,1.2-0.8,2.4-1.1,3.5c-1.6,6.1-1.8,12.8,0.8,18.6c0.8,1.8,1.9,3.7,3.3,5
			c0,0-2,1.4-2,1.4l-1.2-3.2c-3.6-11,1.5-20.5,9.5-28c4.1-3.8,8.4-7.3,7.8-13.5c0-0.4-0.1-0.9-0.2-1.2c0,0-4.5-18.2-4.5-18.2
			s8.2,16.8,8.2,16.8c3.3,5.9,2.9,11.9-0.9,17.4c-6.6,9.7-13,15.7-10.1,28.4c1.2,5.2,3.1,10.3,5.2,15.3
			C135.2,350.5,139.6,357,139.9,364.3L139.9,364.3z"/>
	</g>
	<g>
		<path class="st14" d="M152.5,309.9c6.7,6.4,7.4,18.5,0,24.7C157.2,326.4,156.6,318.2,152.5,309.9L152.5,309.9z"/>
	</g>
	<g>
		<path class="st14" d="M152.5,327.5c0.2-3.4,0.1-6.4-0.1-9.8C154,320.7,154.1,324.5,152.5,327.5L152.5,327.5z"/>
	</g>
	<g>
		<path class="st14" d="M345.8,360.6c0.1-4.7,1.7-9.7,4.4-13.5c1.9-3.5,1.6-8.3,0.9-12.3c-0.8-4.4-2.7-8.1-5.7-11.4
			c-3-3.6-5.9-7.3-8.5-11.3c3.8,2.8,7.3,5.9,10.7,9.1c7.2,5.9,10,17.3,6.2,25.9c-0.8,1.7-2.2,2.9-3.3,4.4
			C348.6,354.2,347.1,357.3,345.8,360.6L345.8,360.6z"/>
	</g>
	<path class="st11" d="M394.7,339.5c3.3-4,7.2-9.1,10.8-15l0-0.1c-14.5-7.2-16.2-27.6-16.2-27.6c-1.6,12,1.8,15.3,1.8,15.3
		c-5.1-5.7-7.4-26-7.4-26c-4.1,17.5-1.6,24.4-1.6,24.4c-2.2-3.1-3.6-11.4-3.6-11.4c-1.8,10.2,2.5,17.8,2.5,17.8
		c-3.5-2.4-4.3-11.7-4.3-11.7c-4.1,10.4,5.9,25.4,5.9,25.4l-5.9-4.8C384,344,392.3,345,396,345C396,345,390.3,344.7,394.7,339.5z"/>
	<g>
		<path class="st14" d="M378,317.5c2,5,5.4,9.6,9.4,13.3c5.3,5,16.9,6,15.5,15.6c-0.3,2.1-1.6,4.1-3.5,4.8l-0.2-0.3
			c2.2-2.6,1.9-6.4-0.1-9c-3.2-3.5-9.3-6.1-12.9-9.8c-3.8-4.1-6.9-9.1-8.5-14.6C377.7,317.6,378,317.5,378,317.5L378,317.5z"/>
	</g>
	<g>
		<path class="st14" d="M276.2,48.9c6,0.7,8.8,8.1,5.4,12.9c-0.1-1,0-1.9-0.1-2.9C281.5,54.9,279.3,51.5,276.2,48.9L276.2,48.9z"/>
	</g>
	<path class="st11" d="M246.2,75.3c0,0-15.8-8.7-20.2,3.8c-2.8,7.9,3.2,33.9-6.3,51.4c-7.9,14.6-17.9,16-17.9,16
		s15.9-10.1,16.8-22.3c1-12.1-2.1-33.7,0-44.8c2.7-14.5,19.1-19,32.8-4.2L246.2,75.3z"/>
	<g>
		<path class="st14" d="M412.5,315.6c2.9-4.9,6.1-11.9,3-17.1c-1.2-1.8-3.3-3-5.1-4c-2.3-1.3-4.1-3.3-5.5-5.4
			c-0.9-1.5-1.6-2.9-2.2-4.6l2.9-0.6c0.3,2.9,1.1,5.7,2.3,8.3c0.6,1.6,2.7,3.2,1,4.5c-0.5,0.3-1.1,0.3-1.6,0
			c-3.2-2.1-4.4-5.6-5.4-8.9c-2.6-9.2-0.7-19.7-6.9-27.7c6.2,5.6,6.8,14.7,8.3,22.4c1,4.1,2,9.2,5.5,11.7c0,0-1.9,2.1-1.9,2.1
			c-1.9-2.7-3.1-5.7-3.8-8.9c-0.1-1.5-1.4-4.4,0.8-4.8c0.7-0.1,1.4,0.4,1.6,1c0.9,2.7,2.4,5.5,4.5,7.4c2.5,2.1,5.6,3.3,7.4,6.4
			C420.5,303.6,416.6,310.8,412.5,315.6L412.5,315.6z"/>
	</g>
	<g>
		<path class="st14" d="M382.7,302.3c0.4,10.3,4.6,20.8,12.7,27.4c0.9,0.6,1.8,1.3,2.6,1.9c0,0,0,0.1,0,0.1c-0.9-0.5-2-1-2.9-1.5
			c-4-2.6-7.1-6.5-8.9-10.9C383.8,314,382.3,307.8,382.7,302.3L382.7,302.3z"/>
	</g>
	<path class="st7" d="M149.3,114.5c0,0,2.7,4.9-8.7,18.6c-14.9,17.9-30.2,36-30.2,51c0,19.3,6.8,26.2,6.8,26.2l23-32L149.3,114.5z"
		/>
	<path class="st12" d="M126.8,178.4l-2.4,3.3l0-7.2l-3.4,11.6c0,0-3.4-2.4-2.9-6.6c0.5-4.1,7.3-18,10.6-24.1c3.2-6.1,7.2-13.4,8-14
		c0.8-0.6-2.6,7.1,0.8-0.6c0.6-1.5,0.8-3,0.7-4.5c-14,16.8-27.4,33.7-27.5,47.8c-0.1,13.1,3.5,21.7,6.2,26.2
		c0.7-0.9,1.9-2.6,3.5-4.3c2.4-2.7,8.8-8.2,11.2-12.5l0,0C131.4,193.4,125.6,189,126.8,178.4z"/>
	<path class="st11" d="M125.8,169c0,0-4,7.7-5.4,14.9c0.1-0.3,0-0.6,0.1-1c0.3-2.8,0.8-5.5,1.5-8.2c0.7-2.7,1.6-5.4,2.6-7.9l0-0.1
		c0.3-0.8,4.4-11.9,4.4-11.9s-7,9.3-7.6,10.1c-1.6,2.2-3,4.7-4,7.2c-1.1,2.5-1.8,5.2-2.3,7.8c-0.5,2.7-0.8,5.3-0.8,8
		c-0.1,8.3,2.6,12.2,2.5,11.6l0-3.9c-0.1-1.2-0.1-2.4-0.1-3.7c0.2,1.4,2.5,6.4,5.3,7c0,0-0.4-1.1-0.5-6.4
		C121.1,181.2,125.8,169,125.8,169z"/>
	<path class="st0" d="M127,201.6c2-2.3,4-4.5,6.1-6.8c2-2.3,3.9-5.1,4.9-8c1.1-2.9,1.7-6,2.1-9c0.4-3,0.6-6.1,0.8-9.1
		c0.4-6,0.6-12.1,0.7-18.1c-0.5,6-1,12-1.8,18c-0.8,6-1.5,12-3.9,17.4c-1.2,2.7-2.8,5-5,7c-8.5,8.3-17.5,21.3-19.1,25.1
		C112.6,217.1,123,206.1,127,201.6z"/>
	<g>
		<path class="st11" d="M177.6,129.8c-4.1,5.5-9.2,10.1-14.3,14.6c-1.6,1.5-3.5,2.7-4.8,4.5c-4.4,6.3-3.7,14.6-3.4,21.9
			c0.1,1.1,0.2,2.3,0.2,3.4c0,0-0.3,0.1-0.3,0.1c-0.5-1.1-0.9-2.1-1.3-3.2c-3.6-10.9-2.1-21.8,8.4-28.2c5.3-4.2,10.7-8.3,15.3-13.3
			C177.3,129.6,177.6,129.8,177.6,129.8L177.6,129.8z"/>
	</g>
	<g>
		<path class="st14" d="M157,175.3c-2.7-9.2-5.1-23.5,5.2-28.8c0,0,0.1,0.2,0.1,0.2c-5.1,5.8-6.8,13.5-6.1,21c0.1,2.6,0.6,5.1,1,7.6
			C157.1,175.2,157,175.3,157,175.3L157,175.3z"/>
	</g>
	<path class="st7" d="M162.7,334.1c0,0-13.8,15.7-10.1,23.2c3.7,7.5,8.5,13,5.4,25.8c-2,8.2-0.5,14.8,4.8,17.9c0,0-5.5,9.3,2.1,15
		c7.6,5.7,2.2,10.7,0.8,11.4c0,0,3.7-0.8,4-5.8s-4.9-5.6-6.3-10.1c-1.4-4.5,1.5-8.3,5-13.8s8.9-15.1,4.3-26S169.2,357,171,352
		c1.8-5,7.4-11.2,8.1-20c0.8-8.8-3.9-21.6-3.9-21.6l-7.8-1.4L162.7,334.1z"/>
	<path class="st7" d="M190.2,335.9c0,0,9.9,11.2,7.2,16.5c-2.7,5.4-6.1,9.2-3.9,18.4c1.4,5.8,0.4,10.6-3.4,12.8c0,0,4,6.6-1.5,10.7
		s-1.6,7.7-0.5,8.1c0,0-2.7-0.6-2.9-4.2c-0.2-3.6,3.5-4,4.5-7.2s-1-5.9-3.6-9.9s-6.3-10.8-3.1-18.5c3.2-7.7,2.5-10.5,1.2-14.1
		s-5.3-8-5.8-14.3c-0.6-6.3,2.8-15.4,2.8-15.4s-17.2-21.8-3.6-12.1C191.1,316.5,190.2,335.9,190.2,335.9z"/>
	<g>
		<path class="st14" d="M349.4,97.7c16.1,6.2,26.1,21.4,26.4,38.5c-2-9.9-6-19.3-12.5-27.1C359.4,104.6,354.4,101.1,349.4,97.7
			L349.4,97.7z"/>
	</g>
	<g>
		<path class="st14" d="M314.2,118.9c7.7,9.9,19.2,15.9,30.5,20.8c1.7,0.7,3.3,1.3,5,2.1C336.1,139.2,320.5,131.8,314.2,118.9
			L314.2,118.9z"/>
	</g>
	<g>
		<path class="st14" d="M219.7,88.5c-1.3-10.8,2.8-22,15.5-20.7c1.4,0.2,2.8,0.4,4.2,0.6c-2.8-0.1-5.7-0.4-8.4,0.2
			C221.7,70.5,219.9,80.4,219.7,88.5L219.7,88.5z"/>
	</g>
	<g>
		<path class="st11" d="M358.8,209.9c4,12.3,8.9,25,18.5,34.1c1.4,1.3,2.9,2.4,4.4,3.5c-1.8-0.7-3.4-1.6-5-2.7
			C365.9,236.7,360.3,222.9,358.8,209.9L358.8,209.9z"/>
	</g>
	<g>
		<path class="st14" d="M139.9,312.1c-5.3,5-6.2,12.6-5.5,19.4c0.1,1,0.2,2,0.3,3l-0.1,0c-2.2-5.8-1.6-12.5,1.4-17.9
			C137,315,138.3,313.3,139.9,312.1L139.9,312.1L139.9,312.1z"/>
	</g>
	<g>
		<path class="st11" d="M175.3,194c-3.5-7.5-5.9-16.1-3.5-24.4c1.1-4.2,4.5-7.4,7.7-10c18.5-13.9,25.6-29.4,27.5-52.3
			c0.2,23.3-7.4,40-26.3,53.8c-3.2,2.5-6.2,5.1-7.5,9C170.7,177.9,172.6,186.5,175.3,194L175.3,194z"/>
	</g>
	<g>
		<path class="st11" d="M165.6,396.8c3.6-6.4,6.8-13.5,5.7-20.9c0,0-0.3-1.8-0.3-1.8c-0.3-1-0.7-2.6-1.2-3.5c0,0-0.8-1.7-0.8-1.7
			l0.1,0l0.9,1.7c2,3.9,2.6,8.5,1.9,12.9C171.2,388.2,169.1,393.5,165.6,396.8L165.6,396.8z"/>
	</g>
	<path class="st11" d="M160.6,378.8c0,0-2.3,8.6-1.5,13.2c0.8,4.6,4.7,7.5,4.7,7.5l3.1-4.7c0,0-4.1-0.9-4.8-5.7c0,0-0.8,1.3-1,3.4
		C161.2,392.6,159.5,391.6,160.6,378.8z"/>
	<g>
		<path class="st11" d="M188.5,380.4c-2.8-2.1-4.5-5.5-4.8-8.9c-0.6-5.3,1.8-10.2,3.5-15.1c0.9-3.3-0.5-6.7-1.7-9.8
			c-3.1-8-10.4-14.5-10.7-23.5c-0.2-3.5,0.6-7,0.1-10.3c-0.5-3.4-2.7-6.2-5.4-8.4l0.1-0.1c1.4,1,2.8,2.1,3.8,3.5
			c4.7,5.8,0.7,13.7,3.3,20.1c1.5,5,4.7,9,7.2,13.6c1.6,3.1,3,6.3,3.8,9.7c0.4,1.7,0.5,3.6,0,5.3c-1.7,4.9-4.2,9.6-3.7,14.9
			C184.2,374.8,185.8,378.2,188.5,380.4C188.5,380.3,188.5,380.4,188.5,380.4L188.5,380.4z"/>
	</g>
	<path class="st11" d="M96.8,294.4c0,0-7.6,13.4,1.7,36.5c0,0-3.8-8.9-2.3-18.8c0,0,1.5,4.1,3.4,5.6
		C99.6,317.7,94.7,306.3,96.8,294.4z"/>
	<path class="st11" d="M149.5,200.7c0,0-6.2,5-7.5,9.5c-1.4,4.5-0.5,17.6-1.4,21.8c-0.9,4.2-6,11.4-6,11.4s3.4-6.3,3.5-10
		c0.1-3.7-3.3-16.2-3.3-16.2l-1,10.9c0,0-0.1-9.9-0.2-12.4c-0.1-2.5,0.1-5.6,0.1-5.6l-1.6,7.9c0,0-0.9-10.8,3.2-16.3
		c4.1-5.5,7-6.6,7-6.6s-4.6,4-5.1,6.8c0,0,5.1-4.9,8.5-6.8c3.4-1.8,5.7-2.8,5.7-5.1c0,0,1.9,2.5,0,5.9c-1.9,3.4-7,6.3-8.3,8.8
		C143.1,204.7,145.6,202.1,149.5,200.7z"/>
	<g>
		<path class="st11" d="M112.8,273.1c5-5.5,10-11,14.8-16.6c3.3-3.7,6-7.7,8.4-12c3.5-6.5,3.1-13.9,1.8-21c-0.3-1.9,2.6-2.5,3-0.5
			c1.1,7.5,1,15.8-3,22.5c-2.6,4.3-5.7,8.3-9.2,11.9C123.5,262.7,118.2,267.9,112.8,273.1L112.8,273.1z"/>
	</g>
	<g>
		<path class="st14" d="M142,199.6c-3.7,2.6-6,6.8-7.1,11.2c-0.2,0.6-0.3,1.3-0.5,1.9c0-0.7,0-1.3,0-2
			C134.7,206.1,137.4,201.2,142,199.6L142,199.6z"/>
	</g>
	<g>
		<path class="st14" d="M116.7,192c-8.9-15.4,4.8-31.6,14.5-42.9c4.3-4.9,8.2-9.6,10.3-15.5c1.4-3.7,2-7.4,3.5-11.3
			c4.7-12.5,12.3-16.4,24.2-20.7c4.8-1.9,10-3.4,13.8-7.1c-3,4.4-8.3,6.7-12.8,9.2c-6.9,3.6-13.9,6.6-17.6,13.4
			c-3.5,5.5-4.1,11.9-6.3,18.1c-2.2,6.6-6.8,12.1-11.4,17C125.1,163,111.2,176.2,116.7,192L116.7,192z"/>
	</g>
	<g>
		<path class="st14" d="M100,325.9c-6.6-9.3-9.2-22.6-3.6-33.1c9.1-17.3,26.5-27.5,38.2-42.7c-4.1,6.5-9.3,12.2-14.7,17.7
			C102.4,285.4,86,299.7,100,325.9L100,325.9z"/>
	</g>
</g>
<g id="Layer_3">
</g>
<g id="BEELD">
</g>
<g id="Layer_7">
</g>
</svg>
