<svg xmlns="http://www.w3.org/2000/svg" xmlns:xlink="http://www.w3.org/1999/xlink" version="1.1" viewBox="44 -20 285 467">
<style type="text/css">
        .body{fill:#f9c7b5;}
        .tshirt{fill:#026156;}
        .tshirt__collar{fill:none;stroke:#02443A;stroke-miterlimit:10;}
        .face{fill:#f1c9b9;}
        .st5{fill:#c59d8c;}
        .hair--dark{fill:#51433A;}
        .hair--medium{fill-rule:evenodd;clip-rule:evenodd;fill:#5E4F44;}
        .st8{fill-rule:evenodd;clip-rule:evenodd;fill:#6D5D52;}
        .hair--light{fill:#6D5D52;}
        .st10{fill:#473A32;}
        .st11{fill:#5E4F44;}
        .st14{fill:#DFE8EA;}
        .st15{fill:#A38276;}
        .st16{fill:#637C76;}
        .st17{fill:#2A1D01;}
        .st18{fill:#FFFFFF;}
        .st19{fill:#c59d8c;}
        .st20{fill:#b99282;}
        .st21{opacity:0.5;fill:#FFFFFF;}
        .st22{fill:none;stroke:#FFFFFF;stroke-width:0.25;stroke-miterlimit:10;}
        .st23{fill:none;stroke:#FFFFFF;stroke-width:0.125;stroke-miterlimit:10;}
</style>
<path class="body" d="M278.1,329.1c0,0-3.1-13.6-25-20.9c-21.8-7.3-42.2-15.5-42.2-31c0-15.5,0-40.9,0-40.9h-26.4h-26.4 c0,0,0,25.3,0,40.9c0,15.5-20.4,23.7-42.2,31c-21.8,7.3-25,20.9-25,20.9L28,467h56l31-70l15.9,68.4h53.7l53.2-1.2L255,400l36,67h52 L278.1,329.1z"></path><linearGradient id="SVGID_1_" gradientUnits="userSpaceOnUse" x1="186.0306" y1="285.86" x2="188.8541" y2="262.5659"><stop offset="0" style="stop-color:#EAD1BD"></stop><stop offset="0.6467" style="stop-color:#C9B5A8"></stop><stop offset="1" style="stop-color:#BCAAA0"></stop></linearGradient><path class="st2 tshirt" d="M273.7,315.6c-1.8-1.3-45.9-17.3-45.9-17.3S206,354,184.4,354.2C162.8,354.3,142,298,142,298 s-43.9,16.2-45.6,17.6c-1.7,1.3-39.1,86-40.5,89.4c0.2-0.4,1.5-2,7.4-1.8c6.9,0.3,41.1,12.5,38.7,22.9L112,404l4,63h137l3.5-63 l11.8,22.1c-2.4-10.4,31.8-22.6,38.7-22.9c5.9-0.2,7.2,1.3,7.4,1.8C312.8,401.6,275.5,316.9,273.7,315.6z"></path><path class="st3 tshirt__collar" d="M138.5,300.5c0,0,22,59.5,45.6,59.4c23.6-0.2,46.9-59.4,46.9-59.4"></path><path class="st4 face" d="M277.799988,123.199997 c0,77 -26,139.8 -93,139.8 c-66.9,0 -91.7,-63.6 -91.7,-140.6 c0,-77 62.3,-92.5 92.8,-92.5 S277.799988,46.200001 277.799988,123.199997 "></path><path class="st5 beard" d="M241.600006,223.699997 c-0.8,-1.6 -4.4,-5.5 -7.9,-9.1 c-6.8,-4.4 -17.7,-24.9 -49.5,-24.9 c-27.3,0 -39.3,15.1 -46.4,22.2 c0,0 0,0 0,0 c-2.6,4.2 -6.1,14.3 -6.1,14.3 l-3.9,9.5 l-6.8,-2.9 c13.3,14.4 25.8,24.7 33.3,27 c7.4,5.7 18,9 30.7,9 c12.7,0 24.4,-4.3 31.8,-10 c7.2,-2.2 18.6,-11 31.3,-24.4 C245.5,236.600006 243.399994,227.199997 241.600006,223.699997 M208,244.5 c-7.2,1.6 -14.9,2.5 -23.3,2.5 c-9.7,0 -13.2,-0.6 -21.3,-2.8 c-5.4,-5.4 -11.4,-22.2 -11.3,-29 c0,-2.1 -1.1,-6.3 4.3,-8.1 c2.3,-0.8 5.1,-0.1 8.3,1 v0 l0,0 c2.2,0.8 4.6,1.7 7.2,2.6 c1.1,0.2 2.2,0.3 3.2,0.1 c4.6,-0.6 4.6,-2.8 10.2,-2.2 c4.9,0.5 7.6,2.5 10.8,2.4 c7.7,-2.2 14.7,-5.3 18.7,-4 C220.300003,208.899994 216.600006,237.899994 208,244.5 "></path><path class="st6 hair hair--dark" d="M98.9,182c0,0-0.6-18.8,1.4-26.3c2-7.5,1.3-44.7,7.1-56.7c5.8-12,10.6-33.4,76.5-33.2s63.7,6.5,75,27.9 s6.6,54.5,8.6,62c2,7.5,1.4,26.3,1.4,26.3c3.2-7.8,5.5-8.4,5.5-8.4s11.8-75.1-8.5-103.8c-20.3-28.6-50.1-46-82-46l-0.4,0.2l0.2-0.2 c-31.9,0-61.7,17.4-82,46C81.5,98.5,95.7,174.2,98.9,182z"></path><path class="st6 hair hair--dark" d="M210.3,15.7c-2.1,3.3-4.8,5.8-7.1,7.6c2.7-8.5-0.4-16.3-0.4-16.3c-1.6,4.4-4.1,8.5-6.6,11.8 c1.1-8.9-1.9-19-1.9-19c-2.2,6.6-10.5,14.2-15.5,18.3c1.4-8.5,0-17.8,0-17.8c-1.7,8.4-7.3,16-10.9,20.2c1.2-7.1,0.6-13.4,0.6-13.4 c-2,7.5-8.7,14.3-13.6,18.3c1.7-5.5,2.6-10.6,2.6-10.6c-5.8,13.1-22,22.3-22,22.3s5.3,2.8,10.1,1.6l-1,2.3c0,0,6.5,2.9,16.2-5.3 c0.2-0.2,0.5-0.4,0.7-0.6c3.1-0.1,8-1.1,12.6-5.9l-0.4,3.1c0,0,3.9,4.4,7.8,4.4c3.4,0,5.8-0.7,10.3-7.1c2.2,1.6,5.3,2.9,8.1,0 c1.6,2.1,4.2,3.9,7.6-0.1C213.1,22.5,210.3,15.7,210.3,15.7z M220.6,30.7c-4-2.9-4.6-10.2-4.6-10.2c-2.3,3.4-8.6,8.7-8.6,8.7L220,37 C220,37,224.6,33.6,220.6,30.7z"></path><path class="st7 hair hair--medium" d="M143.1,45.5c-10,8.2-15.2,10.4-9.1,18.7c-0.5-3.3-1.4-5.2,1.3-8.4c0.5,1.1,1.5,3.2,2.9,4.7 c2.2,2.4,7.7,3.5,7.5-1.1c-0.1-2.2-0.3-5.7-0.3-6.5c2.1,8.2,6.4,10.1,11.8,11.5c-14.4-7.9-6.4-21.8-1.3-27.8 c-5.8,6.1-7.9,10.1-9.9,16c-1.8-5.7,5-12.5,8.2-17.3c-3.4,3.8-8.9,9.3-11.7,13.3c-2.5,3.7-3.6,6.8-3.8,8.4 C137.1,52.6,139.9,49.5,143.1,45.5z"></path><path class="st7 hair hair--medium" d="M158.9,33.5c-2.8,7.9-6.3,10.7-8.2,15.2c-3.2,7.4-2.3,13.7,9.7,18.7c-14.5-8.5-4.6-13.6,0.7-21.8 c-3.6,8.9-6.2,11.5-2,18.9c-3.4-7.9,3.5-10.2,6.5-18.5c1.7-4.6,2.2-11.8,0.7-18c-2.9,15.5-12.3,21.4-13.7,25.4 C152.8,46.8,159.2,40.1,158.9,33.5z"></path><path class="st8" d="M180.5,33.7c-1.7,6.1-0.4,10.8-1.3,14.8c-1.1,5-5.6,7.9-6,11.3c-0.5,4.2,2.1,6.3,4.6,6.2 c1.7-0.1,3.1-1.9,3.9-4.1c1.1-3.1-0.1-3.3,2.5-9.8c-1.5,9.3,3.6,15,6.3,12.4c1.2-1.1,1.7-3,1-8.7c0,0,1.9,3.8,2.8,5.4 c1.9,3.6,9.4,2,8.8-1.5c-0.8-5.7-7.1-13-9-15.8c2.7,7.4,2.9,9,4,15.3c-4.1-10.5-8.4-14.7-15.2-23.3c3.7,6.3,7.1,11.9,9.7,18.5 c-2.9-4.2-4.9-7.1-6.4-10.3c1.5,6.3,2.7,9.8,2.2,16.2c-1.9-6.5-2.5-12.3-4.9-18.6c-0.1,6.6-3.1,12-5.9,18.2 c-0.1-4.4,2.5-6.8,3.7-11.1C182.3,45.3,180.4,41.1,180.5,33.7z"></path><path class="st7 hair hair--medium" d="M196.8,33.7c0.5,5.6,8,10.9,13.9,16.7c-2.5-1.5-4.3-2.6-6.5-4.3c2,2.5,7.5,9.7,9.6,13.9c1,1.9,2.9,5,5,6.1 c3.2,1.6,5.3-0.7,3.7-4.1c4.8,3.1,8.4,5.1,11.7,6c3.2,0.9,5.7,2.7,5.9-1.3c0.4-6.9-11.1-15.7-17.7-19.8c5.6,5.5,9.8,8.6,11.4,15.3 c-2.8-2.9-5.5-6.1-8.3-8.4c-5.7-4.8-9-5.2-16.8-13.7c3.1,7.2,15.3,15.1,19.1,21.4c-5.6-4.8-10.8-10.1-16.7-14.7 C205.3,42.4,199.9,39.9,196.8,33.7z"></path><path class="st7 hair hair--medium" d="M179.1,21c7.5,10.1,4.4,15.6,16.5,25.9c-2.6-7.1-1.9-10.4-0.8-17.6c6.2,4,6.2,7.4,11.4,12.4 c-4.7-8.1-1.5-10.8-4-13.4c-1.8-1.8-5.7-3.5-11.4-5.9c1,0.9,2,2.5,2.6,3.5c-1.5-1.2-3.6-2-6.9-3C184,22.1,180.9,21.8,179.1,21z"></path><path class="st7 hair hair--medium" d="M204.2,26.8c3.5,6,3.6,7.5,8.8,12.8l-0.2-2.4c4.2,3.3,11.1,3.7,18.3,10.5c0,0-3.8-8.3-4.4-9.9 c0.1,2.8-0.3,2.7,1,5.4c-5.6-6.1-11.4-12.2-19.3-18c3.9,4.6,5.7,7.4,8.8,12.1C210.9,34.6,209.2,32.6,204.2,26.8z"></path><g><path class="st9 hair hair--light" d="M182.1,41.1c-8.2-0.2-12.4,12.2-14.2,18.8c0,0-0.9,3.5-0.9,3.5c-0.2,1.1-1.3,1.8-2.4,1.5 c-1.1-0.3-1.8-1.5-1.4-2.6c0.8-2.1,1.9-5,2.9-7C169,49.6,174.6,39.9,182.1,41.1L182.1,41.1z"></path></g><g><path class="st9 hair hair--light" d="M133.6,48.5c-6.1,4.2-7.7,12.2-7.2,19.2c0.1,1.3-1.9,1.5-2,0.1C124.5,60.6,126.9,52.3,133.6,48.5L133.6,48.5z"></path></g><g><path class="st9 hair hair--light" d="M233.5,44.6c1.8,1.3,2.6,3.6,3.4,5.5c1.6,4.1,2.5,8.5,3.3,12.8c0.4,2.2,0.7,4.3,1,6.5c0.1,0.5-0.3,1-0.8,1.1 c-0.5,0.1-1-0.3-1.1-0.8c-0.5-6.5-1-13.1-2.8-19.4C235.7,48.2,235.1,46,233.5,44.6L233.5,44.6z"></path></g><g><path class="st10" d="M135.7,45.5c0,0-2.7-7.6-9.3-3.5c0,0,7.4-10.7,13.6,2.2c0,0,0.5-9.5-6.1-12.9c0,0,10.1,0.4,11.3,13.5 c0,0,2.5-4.6,1.2-11.1"></path><path class="st11" d="M135.7,45.5c-1.7-4-5.2-5.8-9.1-3.3c-0.2,0.2-0.6-0.2-0.4-0.4c5.1-6.9,10.9-5.2,14.2,2.2c0,0-0.9,0.2-0.9,0.2 c0-3.6-0.8-7.4-3.1-10.2c-0.8-0.9-1.7-1.7-2.8-2.3c-0.4-0.2-0.2-0.9,0.3-0.9c7.3,0.8,11.1,7.1,11.5,13.9c0,0-0.5-0.1-0.5-0.1 c1.7-3.4,2.1-7.3,1.5-11c0.8,3.7,0.6,7.7-1,11.2c-0.1,0.3-0.5,0.2-0.5-0.1c-0.5-6.3-4.3-12.4-11-13c0,0,0.2-0.9,0.2-0.9 c1.1,0.6,2.2,1.4,3.1,2.4c2.5,3,3.3,7,3.3,10.9c0,0.3-0.2,0.5-0.5,0.4c-0.2,0-0.3-0.1-0.4-0.3c-0.6-1.3-1.4-2.6-2.3-3.7 c-3.3-4.3-7.9-2.2-10.6,1.5c0,0-0.4-0.4-0.4-0.4c0.4-0.2,0.9-0.5,1.3-0.7C131.2,39.5,134.5,42.1,135.7,45.5L135.7,45.5z"></path></g><path class="st10" d="M263.2,52.4c0,0-5.2,8.7-12.1,12.7l4.3,7.3c0,0,5.1-2.5,8.6-6.5l-6.6,1.3C257.4,67.1,262.1,60.2,263.2,52.4z"></path><path class="st10" d="M248.9,62.4c-0.9-0.8,4.4-4.8,7-9.5C255.9,52.9,252.6,65.4,248.9,62.4z"></path><g><path class="st10" d="M251.1,55.9c0,0,0.8-3.7,4.8-1.5c0,0-5-5.4-7.2,0.8c0,0-1.1-4.6,2.2-6.2c0,0-5.5,0-5,6.4c0,0-1.8-2.3-1.7-5.5"></path><path class="st11" d="M251.1,55.9c0.5-2.6,2.9-2.9,4.9-1.8c0,0-0.3,0.4-0.3,0.4c-2.5-2.3-5.3-3.1-6.6,0.7c-0.1,0.3-0.4,0.4-0.6,0.3 c-0.1-0.1-0.2-0.2-0.3-0.3c-0.3-1.3-0.3-2.5,0-3.8c0.3-1.3,1.2-2.4,2.4-3c0,0,0.2,0.9,0.2,0.9c-1.3,0-2.8,0.6-3.7,1.7 c-0.9,1.1-1.1,2.7-1,4.1c0,0.3-0.3,0.4-0.5,0.2c-1.1-1.7-1.6-3.7-1.5-5.6c0.1,1.9,0.8,3.8,1.9,5.3l-0.5,0.2 c-0.5-3.6,1.4-6.7,5.3-6.9c0.5,0,0.7,0.7,0.2,0.9c-0.5,0.3-0.9,0.5-1.2,1c-1,1.3-1,3.1-0.7,4.7l-0.9-0.1c1-2.9,3.3-4.2,6-2.4 c0.7,0.4,1.3,1,1.9,1.6c0.1,0.1,0.1,0.3,0,0.4c-0.2,0.2-0.7-0.2-1-0.3C253.3,53.5,251.7,54,251.1,55.9L251.1,55.9z"></path></g>
<!-- <radialGradient id="SVGID_00000054247170067537911450000002544158770554804393_" cx="235.7017" cy="198.7968" r="15.9853" gradientUnits="userSpaceOnUse"><stop offset="0" style="stop-color:#efbfa6"></stop><stop offset="1" style="stop-color:#F2DDCB"></stop></radialGradient> -->

<g><path class="st14" d="M86.8,334.3l0.1,0.5C86.9,334.6,86.8,334.5,86.8,334.3C86.8,334.3,86.8,334.3,86.8,334.3z"></path></g><path class="st15" d="M149.4,211.2c11.1,6.7,23,10.9,35.1,10.8c12.1,0,23.8-4.7,35.4-10.8c-4.3,5-9.6,9.2-15.6,12.2 c-6,3-12.8,4.7-19.7,4.8c-6.9,0-13.7-1.5-19.8-4.5C158.7,220.7,153.3,216.6,149.4,211.2z"></path><g><path class="st16 left-eye iris" d="M157.600006,162.199997 C157.600006,172.009995 149.590012,179.929993 139.690018,179.929993 C129.790009,179.929993 121.780014,172.009995 121.780014,162.199997 C121.780014,152.389999 129.790009,144.470001 139.690018,144.470001 C149.5,144.37999 157.600006,152.389999 157.600006,162.199997 "></path><path class="st17" d="M152.399994,162.199997 c0,6.84 -5.579999,12.42 -12.42,12.42 c-6.84,0 -12.42,-5.579999 -12.42,-12.42 c0,-6.84 5.579999,-12.42 12.42,-12.42 C146.910004,149.779999 152.399994,155.360001 152.399994,162.199997 "></path><path class="st18" d="M132.899994,155 c0,1.98 -1.62,3.6 -3.6,3.6 c-1.98,0 -3.6,-1.62 -3.6,-3.6 s1.62,-3.6 3.6,-3.6 C131.279999,151.490005 132.899994,153.020004 132.899994,155 "></path><path class="st16" d="M211,162.199997 c0,9.809999 8.009999,17.73 17.91,17.73 c9.9,0 17.91,-7.92 17.91,-17.73 c0,-9.809999 -8.009999,-17.73 -17.91,-17.73 C219.009995,144.37999 211,152.389999 211,162.199997 "></path><path class="st17" d="M216.100006,162.199997 c0,6.84 5.579999,12.42 12.42,12.42 c6.84,0 12.42,-5.579999 12.42,-12.42 c0,-6.84 -5.579999,-12.42 -12.42,-12.42 C221.680008,149.779999 216.100006,155.360001 216.100006,162.199997 "></path><path class="st18" d="M216.899994,155 c0,1.98 1.62,3.6 3.6,3.6 c1.98,0 3.6,-1.62 3.6,-3.6 s-1.62,-3.6 -3.6,-3.6 C218.519989,151.490005 216.899994,153.020004 216.899994,155 "></path></g><path d="M55.9,404.9c0,0.1-0.1,0.1-0.1,0.1S55.8,405,55.9,404.9z"></path><path d="M314.3,404.9c0,0.1,0.1,0.1,0.1,0.1S314.3,405,314.3,404.9z"></path><path class="st19" d="M167.2,236.8c0,0,0.3-0.4,0.1-0.9c-0.2-0.5,4-2.8,17.7-2.7c12.1,0,16.2,1.7,16.2,1.7l-0.7,1.4l-3.4,2 l-13.5,2.5l-7.7-1.1l-2.5-1.6l-2,0.6l-3.1-1.2L167.2,236.8z"></path><g><path class="st20" d="M167.4,235.7c-0.4,2.3,2.6,2.7,4.3,2.9c0,0-0.2,0.1-0.2,0.1l0.8-1.1l0.2-0.3l0.3,0.3 c2.9,2.8,7.4,2.9,11.2,2.7c3-0.3,6.1-0.6,8.8-1.9c1.2-0.5,2-1.3,2.5-2.4c0,0,0.4,0.6,0.4,0.6c0.6,0.9,0.3,2.2-0.7,2.7 c0,0-0.2-0.6-0.2-0.6c1.8-0.4,3.7-0.9,5.2-2.1c0.5-0.4,0.9-1,0.9-1.6c0.4-0.1,0.7,0.2,0.7,0.5c0-0.3-0.3-0.6-0.6-0.4c0,0,0,0,0,0 c0,0.7-0.4,1.3-0.9,1.8c-1.9,1.8-4.7,2.4-7.2,3.1c0,0,1.7-1.1,1.7-1.1c0.7-0.4,0.8-1.1,0.4-1.7c0,0,0.7-0.1,0.7-0.1 c-2,3.4-8,3.9-11.6,4.3c-4.1,0.2-8.9-0.1-11.8-3.4c0,0,0.5,0,0.5,0c0,0-0.9,1.2-0.9,1.2C170,238.9,166.7,238.1,167.4,235.7 L167.4,235.7z"></path></g><rect x="141.1" y="378" class="st21" width="9" height="40"></rect><rect x="168" y="378" class="st21" width="9" height="40"></rect><rect x="206" y="378" class="st21" width="9" height="40"></rect><rect x="152.4" y="378" class="st21" width="11.6" height="4.5"></rect><rect x="152.4" y="396" transform="matrix(0.8394 -0.5436 0.5436 0.8394 -191.0563 149.9662)" class="st21" width="11.6" height="4.5"></rect><rect x="124.4" y="414" class="st21" width="11.6" height="4"></rect><rect x="218.4" y="378" transform="matrix(0.8181 0.575 -0.575 0.8181 259.4335 -59.7721)" class="st21" width="11.6" height="4.5"></rect><rect x="218.4" y="396" class="st21" width="11.6" height="4.5"></rect><rect x="219.4" y="412" transform="matrix(0.7071 -0.7071 0.7071 0.7071 -226.9512 280.5747)" class="st21" width="11.6" height="4.5"></rect><line class="st22" x1="121" y1="382.5" x2="241" y2="382.5"></line><line class="st22" x1="121" y1="378" x2="241" y2="378"></line><line class="st23" x1="141" y1="380" x2="177" y2="380"></line><line class="st23" x1="124" y1="416" x2="136" y2="416"></line><line class="st22" x1="121" y1="400.5" x2="241" y2="400.5"></line><line class="st22" x1="121" y1="396" x2="241" y2="396"></line><line class="st22" x1="121" y1="418" x2="241" y2="418"></line><line class="st22" x1="121" y1="414" x2="241" y2="414"></line><line class="st22" x1="127.9" y1="420.8" x2="193.9" y2="378"></line><line class="st22" x1="124" y1="418" x2="191.5" y2="374.2"></line><line class="st23" x1="134" y1="414" x2="177" y2="386"></line><line class="st22" x1="223" y1="420" x2="241" y2="401"></line><line class="st22" x1="215.3" y1="421.5" x2="240" y2="396"></line><line class="st23" x1="221" y1="419" x2="238" y2="401"></line><line class="st22" x1="152.3" y1="378" x2="152.3" y2="417.9"></line><g><line class="st22" x1="150.1" y1="378" x2="150.1" y2="417.9"></line><line class="st22" x1="141.1" y1="378" x2="141.1" y2="417.9"></line></g><line class="st22" x1="164" y1="378.1" x2="164" y2="418"></line><rect x="184.4" y="396" class="st21" width="11.6" height="4.5"></rect><line class="st23" x1="177" y1="398" x2="241" y2="398"></line><line class="st22" x1="184.3" y1="378" x2="184.3" y2="417.9"></line><line class="st22" x1="196" y1="378.1" x2="196" y2="418"></line><line class="st22" x1="168" y1="378.1" x2="168" y2="418"></line><line class="st22" x1="177" y1="378.1" x2="177" y2="418"></line><line class="st22" x1="206" y1="378.1" x2="206" y2="418"></line><line class="st22" x1="215" y1="378.1" x2="215" y2="418"></line><line class="st23" x1="209" y1="375" x2="209" y2="420"></line><line class="st23" x1="212" y1="375" x2="212" y2="420"></line><line class="st23" x1="171" y1="375" x2="171" y2="420"></line><line class="st23" x1="174" y1="375" x2="174" y2="420"></line><line class="st23" x1="144" y1="375" x2="144" y2="420"></line><line class="st23" x1="147" y1="375" x2="147" y2="420"></line><rect x="232.1" y="378" class="st21" width="9" height="40"></rect><g><line class="st22" x1="241.1" y1="378" x2="241.1" y2="417.9"></line><line class="st22" x1="232.1" y1="378" x2="232.1" y2="417.9"></line></g><line class="st23" x1="235" y1="375" x2="235" y2="420"></line><line class="st23" x1="238" y1="375" x2="238" y2="420"></line><line class="st22" x1="223.9" y1="420.6" x2="199" y2="400"></line><line class="st22" x1="237" y1="418" x2="215" y2="396"></line><line class="st22" x1="241" y1="396" x2="216.3" y2="377.1"></line><line class="st22" x1="241" y1="389" x2="218.8" y2="373.8"></line><line class="st23" x1="241" y1="393" x2="217.3" y2="375.3"></line></svg>