<?xml version="1.0" encoding="utf-8"?>
<!-- Generator: Adobe Illustrator 26.0.0, SVG Export Plug-In . SVG Version: 6.00 Build 0)  -->
<svg version="1.1" xmlns="http://www.w3.org/2000/svg" xmlns:xlink="http://www.w3.org/1999/xlink" x="0px" y="0px"
	 viewBox="0 0 500 500" style="enable-background:new 0 0 500 500;" xml:space="preserve">
<style type="text/css">
	.body{fill:#f9c7b5;}
	.face{fill:#f1c9b9;}
	.st2{fill:#A1A7A8;}
	.st3{fill:#2A1D01;}
	.st4{fill:#FFFFFF;}
	.st5{fill:#A38276;}
	.st6{fill:#007BC7;}
	.st7{opacity:0.8;fill:#0071B7;}
	.st8{fill:#0084C6;}
	.st9{fill:#18689E;}
	.st10{fill:#594432;}
	.st11{fill:#493627;}
	.st12{fill:#38291E;}
	.st13{fill:#705A4A;}
	.st14{fill:#30231A;}
</style>
<g id="Layer_5">
</g>
<g id="Layer_2">
	<path class="body" d="M338.7,367.6c0,0-1.6-3.3-24.5-10.9c-22.9-7.6-36.3-16-36.3-32.3c0-16.2,0-42.8,0-42.8h-27.5h-0.2H250h-0.2
		h-27.5c0,0,0,26.5,0,42.8c0,16.3-13.4,24.7-36.3,32.3c-22.9,7.6-24.5,10.9-24.5,10.9L111.1,500h39.1l20.3-58.8
		c0,0,10.4,17.1,17.9,58.8h61.5h0.2h0.2h0.2h61.5c7.5-41.7,17.9-58.8,17.9-58.8l20.3,58.8h39.1L338.7,367.6z"/>
	<path class="face" d="M355.1,170.2c0,79.3-35.2,134.2-103.6,134.2c-68.3,0-106.3-55.6-106.3-134.9c0-79.3,39.1-117.3,107.4-117.3
		C321,52.2,355.1,90.9,355.1,170.2z"/>
</g>
<g id="Layer_4">
	<g>
		<path class="st2" d="M223.5,205.1c0,10.9-8.9,19.7-19.9,19.7c-11,0-19.9-8.8-19.9-19.7c0-10.9,8.9-19.7,19.9-19.7
			C214.5,185.4,223.5,194.2,223.5,205.1z"/>
		<path class="st3" d="M218.3,205.1c0,7.6-6.2,13.8-13.8,13.8c-7.6,0-13.8-6.2-13.8-13.8c0-7.6,6.2-13.8,13.8-13.8
			C212.2,191.4,218.3,197.5,218.3,205.1z"/>
		<path class="st4" d="M198.8,198c0,2.2-1.8,4-4,4c-2.2,0-4-1.8-4-4s1.8-4,4-4C197,194,198.8,195.8,198.8,198z"/>
		<path class="st5" d="M210.8,254.6c12.1,7.3,25.1,11.9,38.2,11.7c13.2,0,25.9-5.1,38.5-11.7c-4.6,5.5-10.4,10-17,13.2
			c-6.6,3.3-14,5.1-21.5,5.2c-7.5,0-15-1.7-21.5-4.9C221,264.9,215,260.4,210.8,254.6z"/>
		<path class="st2" d="M276.9,205.1c0,10.9,8.9,19.7,19.9,19.7c11,0,19.9-8.8,19.9-19.7c0-10.9-8.9-19.7-19.9-19.7
			C285.8,185.4,276.9,194.2,276.9,205.1z"/>
		<path class="st3" d="M282,205.1c0,7.6,6.2,13.8,13.8,13.8c7.6,0,13.8-6.2,13.8-13.8c0-7.6-6.2-13.8-13.8-13.8
			C288.2,191.4,282,197.5,282,205.1z"/>
		<path class="st4" d="M282.8,198c0,2.2,1.8,4,4,4c2.2,0,4-1.8,4-4s-1.8-4-4-4C284.6,194,282.8,195.8,282.8,198z"/>
	</g>
	<polygon class="st6" points="403.6,500 354.5,362.7 292.2,338.1 253.2,391.2 214.2,338.1 151.8,362.7 102.7,500 156,500 
		173.3,453.4 173.6,454.5 179.6,500 252.3,500 254,500 326.7,500 332.7,454.5 333,453.4 350.3,500 	"/>
	<path class="st7" d="M169.5,409.6L138.4,500H156l17.3-46.6l0.3,1.2l6,45.5h27.9c0,0-5.5-34.1-10.6-57.7
		C192,419.7,181.6,410.8,169.5,409.6z"/>
	<path class="st7" d="M336.8,409.6l31.1,90.4h-17.6L333,453.4l-0.3,1.2l-6,45.5h-27.9c0,0,5.5-34.1,10.6-57.7
		C314.3,419.7,324.7,410.8,336.8,409.6z"/>
	<polygon class="st8" points="394.1,500 396.1,500 403.6,500 354.5,362.7 314.3,346.8 308.1,354.5 347.4,369.3 	"/>
	<path class="st9" d="M354.5,362.9l-0.1,0.5c0,0-1.3-0.1-3.3,1.6c-5.6,4.9-15.3,23-17.7,89.6l-0.1,0l-0.4-1.1l-0.2,1l-0.3,0
		c2.4-67.3,12.4-85.6,18.2-90.4c1.2-1,2.2-1.4,2.9-1.6L354.5,362.9L354.5,362.9z"/>
	<path class="st8" d="M193.3,346.4l-41.2,16.3c4.4,1.2,7,6.4,7,6.4l2.8,6.5l41.5-16.1L193.3,346.4z"/>
	<path class="st9" d="M151.8,362.9l0.1,0.5c0,0,1.3-0.1,3.3,1.6c5.6,4.9,15.3,23,17.7,89.6l0.1,0l0.4-1.1l0.2,1l0.3,0
		c-2.4-67.3-12.4-85.6-18.2-90.4c-1.2-1-2.2-1.4-2.9-1.6L151.8,362.9L151.8,362.9z"/>
	<g>
		<polygon class="st9" points="253.2,422.3 192.9,347 193.7,346.4 253.2,420.7 313.9,346.5 314.7,347.2 		"/>
	</g>
</g>
<g id="Layer_1">
	<path class="st10" d="M344.5,126.4l-3.8,1.2c7.1,18,6.6,80.6-18.7,127.2c-3.7,7.6-10.1,14.5-17.1,20.3c-4.1-5.7-5-16.5-11.6-22.1
		c-11.3-9.4-38.7-13.7-38.7-13.7s0.5,11.3,4.6,11.9s19.5,6,23.8,9.8c5.3,4.7,3.3,19.6,3.3,24.3c0,0.6-0.1,1.2-0.2,1.8
		c-9,4.3-16.3,5.7-17.4,3c-0.6-1.5-2.4-7.8-5.5-9.4c-1-0.5-5.3-0.9-7-0.9c-1,0-1.8,0.1-2.6,0.4c-0.8-0.2-1.6-0.4-2.6-0.4
		c-1.6,0-5.9,0.3-7,0.9c-3.1,1.6-5,8-5.5,9.4c-1.2,3.3-11,0.8-22.1-5.4c-0.1-5.3-1.7-19.1,3.3-23.6c4.2-3.8,19.7-9.2,23.8-9.8
		s4.6-11.9,4.6-11.9s-27.4,4.3-38.7,13.7c-5.7,4.8-7.2,13.5-10.1,19.5c-5.8-5.2-10.9-11.2-14.1-17.7
		c-25.3-46.6-24.3-108.5-17.2-126.5l-6-3c0,0-30.8,33.7-26.3,71.5c3.5,29.9,8,72.3,22.5,103.7c1.5,3.2,3.7,5,5.4,8
		c2.7,4.6,5.1,10.3,8.4,14.2c17.2,20.2,30.1,28.4,40.6,31.4c9.3,6.7,11.8,19.7,41.1,19.7c29.3,0,31.8-13,41.1-19.7
		c10.4-3,23.4-11.2,40.6-31.4c25.9-30.3,21.8-88,26.2-125.8C365.9,159,344.5,126.4,344.5,126.4z"/>
	<path class="st11" d="M360.9,198.7L346,182.4c-2.2,11.5-5.2,23.6-9,35.2c0,0,0,0,0,0.1c-2.5,9-6.7,19-9.7,25.5
		c-0.8,1.9-1.7,3.7-2.6,5.5c-0.4,0.8-0.6,1.3-0.6,1.3s0.4,18.9,9.9,30.3c0,0-6.9-13-6.9-20.9c0-7.9,5-12.2,5-12.2s0.4,9.3,5.3,17.3
		c4.8,8,13.2,27.2,8.6,39.5C359.2,273.1,357.5,229.7,360.9,198.7z"/>
	<path class="st10" d="M305.8,103.5"/>
	<path class="st10" d="M304.4,96.9c0,0,18.6,4.8,22.8,23.4c2.8,12.2,2.4,51.3,12.1,83.7c5.1,17.1,18.8,34.4,18.8,34.4
		s-1.2,4.1-3,30.7c0,0,25.8-3.1,19.9-33.9c0,0,9.8-11,8.8-31.7c-1.4-29.2-18-42.9-22.3-59.1c-10.6-40-11.7-68.1-25.4-72.6
		c-18.3-6.1-19.3,0.1-19.3,0.1L304.4,96.9z"/>
	<g>
		<path class="st11" d="M366.1,290.4c-0.1-1.2,0-2.4,0.4-3.6c0.4-1.1,1-2.2,1.7-3.2c1.4-2,3-3.7,4.4-5.5c2.9-3.5,5.1-7.6,5.8-12
			c0.7-4.4-0.3-8.7-2.1-12.8c-1.8-4.1-4.4-8-7.2-11.6c-1.4-1.8-2.9-3.7-4.3-5.6c-0.7-0.9-1.4-2-2-3l-1.8-3
			c-2.3-4.1-4.4-8.3-6.4-12.6c-3.9-8.6-7.1-17.4-9.5-26.5l0.3-0.1c2.7,9,6.2,17.7,10.3,26c2.1,4.2,4.3,8.3,6.7,12.3l1.8,3
			c0.6,1,1.2,1.9,2,2.8c1.4,1.8,3,3.6,4.5,5.4c3,3.6,6,7.4,8.1,11.8c1.1,2.2,1.9,4.6,2.2,7c0.4,2.5,0.2,5-0.3,7.4
			c-0.5,2.4-1.4,4.7-2.6,6.8c-1.2,2.1-2.7,4-4.4,5.7c-1.6,1.7-3.3,3.3-4.9,5c-0.7,0.9-1.4,1.8-1.9,2.8c-0.5,1-0.7,2.1-0.7,3.3
			L366.1,290.4z"/>
	</g>
	<path class="st11" d="M358.5,149.6c5.4,17,13.5,21.5,13.5,21.5s9.1,17.7,9.8,29.6c0.8,11.9-4.2,23.5-4.2,23.5s-0.2-2.1-2.8-7.1
		c-4.8-9.2-13.6-9.1-21.2-23.8c-7.6-14.7-14.5-46.8-14.5-46.8c8.1,55.9,15.1,57.6,25.1,70.1c10.9,13.6,11.4,22.7,11.4,22.7
		s10.5-10.4,10.8-31.1c0.2-14.6-7.1-28.6-13.8-41c-1.6-0.6-3.2-1.7-4.3-2.7C361.8,159.2,358.5,149.6,358.5,149.6z"/>
	<path class="st12" d="M355.6,262.1c0,0,7-2.8,8.1-8.4c1.1-5.6-1.6-9-5.6-15.1L355.6,262.1z"/>
	<path class="st13" d="M351.5,127.7c0,0-1.8-28.1-9.8-37.9c-8-9.9-15.6-8.7-15.6-8.7s8.7-3.2,16.8,4.2c-2.7-4.3-5.8-7.1-9.7-8.4
		c-3.7-1.2-6.8-1.9-9.5-2.2c-3.4,1-6.9,2.1-8.2,3c-3,2-4.5,6.4-4.5,6.4s2.8-3,7.2-3.2c4.3-0.3,4.3-0.3,4.3-0.3s-8.7,3.2-10.8,4.9
		c-2.1,1.8-4.9,10.4-4.9,10.4s2.4-3.6,4.6-4.8c0,0,5.4-3.9,14.3-3.7c8.9,0.2,14.6,4.8,18,11.7C347.2,105.9,351.5,127.7,351.5,127.7z
		"/>
	<g>
		<path class="st13" d="M342.5,117.2c1.9,8.4,3.8,16.7,5.8,25c1,4.2,2,8.3,2.9,12.5c0.9,4.2,1.7,8.4,2.7,12.5c0.5,2.1,1,4.1,1.7,6.1
			c0.7,2,1.4,3.9,2.3,5.8c0.9,1.9,1.9,3.7,3.1,5.4c1.1,1.7,2.5,3.3,3.8,5.1c2.6,3.4,5.1,7,7.4,10.7c2.3,3.7,4.2,7.6,6,11.5l-2.5,0.4
			c0.3-2.2,0.6-4.5,0.8-6.7c0.2-2.2,0.3-4.5,0.4-6.8c0-2.3,0-4.5-0.3-6.8c-0.2-2.2-0.7-4.5-1.5-6.6l0.3-0.1c1.2,2,1.9,4.3,2.4,6.5
			c0.5,2.3,0.8,4.6,0.9,6.9c0.2,2.3,0.2,4.6,0.1,6.9c-0.1,2.3-0.2,4.6-0.4,6.9l-0.4,4.3l-2.1-3.8c-2-3.8-4-7.5-6.3-11.1
			c-2.3-3.6-4.6-7.1-7.1-10.5c-1.2-1.7-2.6-3.5-3.7-5.4c-1.2-1.9-2.2-3.8-3.1-5.8c-0.9-2-1.6-4.1-2.2-6.2c-0.6-2.1-1.1-4.2-1.5-6.3
			c-0.9-4.2-1.6-8.4-2.4-12.6c-0.8-4.2-1.7-8.4-2.5-12.6c-1.7-8.4-3.3-16.8-4.8-25.2L342.5,117.2z"/>
	</g>
	<path class="st10" d="M309.9,98.1c0,0-40.6-5.6-65.8-5.6s-40-0.2-51.5,10.1c-11.9,10.6-22.9,46.3-25,65.7
		c-3.5,32.1-7.5,136.6-7.5,136.6s-35.4,0-41.9-44c-3.2-21.8,11.3-47.4,12.1-83.6c0.8-36.2-15.7-29.7,19.9-102.2
		c8-16.3,59.6-76,95.7-30.6c4,0.4,24.9-7.6,53.5,4.5c22.7,9.6,19.5,21.4,19.5,21.4L309.9,98.1z"/>
	<path class="st10" d="M134.8,147.5c3.4,10.9-4.1,31.3-10.2,49s-25.3,43.5-25.8,62.7s3.9,26.2,3.9,26.2s-6.1-27,3.5-41
		c0,0-6.5,18.8,2.6,37.1c9.2,18.3,23.1,29.2,17.5,39.7s-10.9,10.5-10.9,10.5s9.2,1.7,14-7c4.8-8.7,4.8-18.5,1.7-24.3
		c-3.1-5.8-11.3-18.9-7.9-30.3c3.5-11.3,14.4-6.4,14.4-6.4l2.3,34.9c0,0-3.2,7.3,7.7,18.2c0,0-4.8-6.2-2.4-16.5
		c2.4-10.3,9.1-98.5,9.1-98.5L134.8,147.5z"/>
	<path class="st13" d="M150.9,114.7c0,0-7.6,45-32,83.3c-12,18.8-18.1,31.9-15,41.7c0,0,3.7-6.6,12.4-25
		C126.3,193.4,145.8,178.3,150.9,114.7z"/>
	<g>
		<path class="st13" d="M147.7,87.4c3.2-5.2,6.7-10.3,10.3-15.1c3.7-4.9,7.6-9.6,11.8-14.1c4.2-4.5,8.6-8.7,13.5-12.6
			c4.8-3.9,10-7.3,15.6-9.9l2.1-1c0.7-0.3,1.5-0.6,2.2-0.8c1.5-0.6,2.9-1,4.4-1.5c3-0.9,6.1-1.5,9.3-1.6c3.2-0.1,6.5,0.3,9.5,1.6
			c3,1.3,5.6,3.5,7.7,5.7c4.4,4.5,7.9,9.8,10.7,15.3c2.9,5.6,5.1,11.3,6.8,17.4c0.3,1-0.3,2-1.3,2.3c-1,0.3-1.9-0.3-2.2-1.2l0-0.1
			c-0.6-1.9-1.5-4-2.5-5.9c-1-1.9-2.1-3.8-3.3-5.5c-2.4-3.5-5.4-6.7-8.7-9.3c-3.3-2.6-7.1-4.7-11.2-6c-4-1.3-8.2-1.9-12.1-0.9
			c-3.9,1-7.3,3.5-10.3,6.7c-1.5,1.6-2.8,3.3-4.2,5.1c-1.4,1.8-2.8,3.6-4.3,5.3c-3,3.4-6.2,6.7-9.9,9.4c-3.7,2.7-7.7,5-12.2,6
			l-0.1-0.4c4.2-1.5,8-3.9,11.3-6.9c3.3-2.9,6.3-6.2,8.9-9.7c1.3-1.8,2.6-3.6,3.9-5.4c1.3-1.9,2.6-3.7,4.1-5.5
			c1.5-1.8,3.2-3.5,5.1-4.9c1.9-1.4,4.2-2.6,6.5-3.3c4.8-1.4,9.9-0.8,14.3,0.6c4.5,1.4,8.8,3.6,12.5,6.5c3.7,2.9,6.9,6.5,9.4,10.4
			c1.3,1.9,2.4,4,3.4,6.1c1,2.1,1.9,4.2,2.6,6.6l-3.6,0.9c-1.4-5.7-3.5-11.4-6.2-16.8c-2.6-5.4-5.9-10.4-9.9-14.8
			c-2-2.2-4.2-4.1-6.8-5.2c-2.5-1.2-5.4-1.6-8.3-1.6c-2.9,0.1-5.8,0.6-8.7,1.4c-1.4,0.4-2.9,0.8-4.3,1.3l-2.1,0.8l-2.1,0.9
			c-2.7,1.2-5.4,2.6-8,4.2c-2.6,1.6-5.1,3.3-7.5,5.1c-4.8,3.6-9.3,7.7-13.6,12.1c-4.3,4.3-8.3,8.9-12.1,13.7
			c-3.8,4.8-7.4,9.7-10.7,14.8L147.7,87.4z"/>
	</g>
	<g>
		<path class="st13" d="M237.2,88.2c-1-4.4-2.4-8.9-4.2-13.1c-1.8-4.2-4-8.4-7.1-11.7c-1.5-1.7-3.3-3.1-5.3-4.1
			c-2-1-4.3-1.4-6.6-1.2c-2.3,0.2-4.5,0.9-6.5,2.1c-1.1,0.5-2,1.2-3,1.8c-1,0.7-1.8,1.4-2.8,2.1c0.9-0.8,1.7-1.6,2.7-2.3
			c1-0.7,1.9-1.4,2.9-2c2-1.3,4.3-2.2,6.6-2.5c2.4-0.3,4.9,0,7.1,1c2.2,0.9,4.2,2.4,5.9,4.1c1.7,1.7,3.2,3.6,4.5,5.6
			c1.3,2,2.5,4.1,3.5,6.2c2.1,4.3,3.8,8.7,5,13.4c0.2,0.8-0.2,1.6-1,1.8c-0.8,0.2-1.6-0.2-1.8-1C237.2,88.3,237.2,88.2,237.2,88.2
			L237.2,88.2z"/>
	</g>
	<path class="st11" d="M180.9,246.5c-6.6-16.7-12.4-33.5-15.3-54c0.7-9.8,1.3-18.3,2-24.3c2.1-19.4,13.1-55.1,25-65.7
		c7.5-6.7,16.3-8.9,28.5-9.7c-12.8-17.7-26.9-14.1-33.4,1.5c-6.5,15.6-23.8,79.2-31.2,93s-29.9,38.1-35.2,54.7
		c-4,12.7-1.2,23.2,1,34.5c1.8,6.3,7.8,13.2,9.4,15c-2.4-11.5-4.8-27.3-2.5-37C133.1,238,160,222,160,222l4.8,13.1
		c0,0-9.4,15.5-10.4,32.8c0,0,2.6-20,14.3-28.2l4.2,10.8c0,0-11.3,17.9-11.8,31.1c-0.3,6.9-0.9,15.8-1,23.3c0.1,0.1,0.9,1.3,2.3,1.6
		c0.5-10.5,1.8-24.7,3.7-29.8C171.7,260.5,181.1,246.8,180.9,246.5z"/>
	<g>
		<path class="st11" d="M299.4,48.9c-2.6-1.1-5.2-2.1-7.7-2.9c0.2,0.1,13.6,7.5,17.8,14.4c4.2,6.9,4.1,13.5,2.6,19.4
			c-1.5,5.9-9.4,15.3-9.4,15.3s-34.1-4.4-37.5-8.6c-4-5.1-6.4-14.4-6.4-14.4l4.8,21c22.5,1.5,40.6,6.7,43.7,5.1
			c7.7-4.1,11.6-26.9,11.6-26.9C319.7,66.7,319.4,57.4,299.4,48.9z"/>
		<path class="st11" d="M251.7,48c-0.5-1.5-1.1-2.9-1.6-4.1c-1.9,0.3-3.3,0.6-4.1,0.5c0,0,9.2,16.9,12.2,24.8
			C258.2,69.2,254.1,54.8,251.7,48z"/>
	</g>
	<g>
		<path class="st11" d="M282.5,45.5c4.5,1.9,8.8,4.6,12.3,8.1c1.7,1.8,3.3,3.8,4.3,6.1c1,2.3,1.6,4.8,2,7.3
			c0.8,4.9,0.8,9.9,0.5,14.9c-0.2,2.5-0.5,5-1,7.4c-0.2,1.2-0.5,2.5-0.9,3.7c-0.4,1.2-0.9,2.5-1.7,3.7l-2.4-1.7
			c0.6-0.8,1.1-1.8,1.5-2.9c0.4-1.1,0.7-2.2,1-3.4c0.6-2.3,1-4.7,1.2-7.1c0.5-4.8,0.7-9.7,0.2-14.4c-0.3-2.4-0.7-4.8-1.6-7
			c-0.8-2.2-2.2-4.2-3.7-6.1C291,50.5,286.9,47.6,282.5,45.5z"/>
	</g>
	<path class="st11" d="M286.4,280.6L286.4,280.6c-0.1,2-0.2,3.7-0.2,4.8c0,0.6-0.1,1.2-0.2,1.8c-9,4.3-16.3,5.7-17.4,3
		c-0.6-1.5-2.4-7.8-5.5-9.4c-1-0.5-5.3-0.9-7-0.9c-1,0-1.8,0.1-2.6,0.4c-0.8-0.2-1.6-0.4-2.6-0.4c-1.6,0-5.9,0.3-7,0.9
		c-3.1,1.6-5,8-5.5,9.4c-1.2,3.3-11,0.8-22.1-5.4c0-1.1-0.1-2.5-0.2-4.2c-0.4,1.2-0.7,2.5-0.7,3.8c0,4,3.7,5.7,2.3,8.5
		s-2.3,4.6-1.1,9.2c1.2,4.6,0.2,5,0.4,12.5c0.2,7.5,8.4,10.7,8.4,10.7s-0.7,4.3,1.5,7.8c2.2,3.5,2.4,11.3,2.4,11.3s1.7-2.8,1.7-10.8
		s0-9.4,0.4-14.6c0.4-5.2,3.9-7.5,3.9-7.5s-3,5.4-1.5,12c1.5,6.6,16.4,13.3,16.4,13.3l21.4-2.4c0,0,5.4-8.7,5.2-18c0,0,0.2,8,0,13.9
		c0,0,6.5-4.3,6.3-24.4c0-0.1,0-0.2,0-0.3c1.6,1.2,4.7,4.4,4.6,10c0,0,0.7-8.6,0-16.5C286.9,291.2,286.4,280.6,286.4,280.6z"/>
	<g>
		<path class="st11" d="M334.6,106.4c-0.3-11.3-6-15.8-14.1-14.5c-5.6,0.9-11,4.8-13.5,6.7c5.8,3.9,17.4,9.1,20.3,21.9
			c2,8.9,2.4,32.2,6.2,56.7C330.9,155.9,334.8,116.7,334.6,106.4z"/>
		<path class="st11" d="M334.3,182.6c0,0.2,0.1,0.5,0.1,0.7C334.4,183,334.4,182.8,334.3,182.6z"/>
	</g>
	<g>
		<path class="st11" d="M196.4,338c0,0-0.1-0.1-0.1-0.3C196.3,338.2,196.4,338,196.4,338z"/>
		<path class="st11" d="M197.2,273.8c0,0-1.8,9.2,0,13.4c1.8,4.2,3.1,5.5,1.6,8.7s-2.3,9-0.7,14.8c1.6,5.8,4.8,5.7,0.7,15
			c-3.3,7.6-2.8,10.9-2.5,12c0.1-0.5,0.4-1.8,1.5-4.9c2.2-5.9,5.3-15.8,4.4-19c-0.8-3.2-3.6-5.5-1.8-10.1c1.8-4.7,3.7-5.7,3.1-10.2
			c-0.6-4.5-2.8-2.6-3.7-10.9c-0.3-2.5-0.4-6.1-0.5-10c0,0.1-0.1,0.2-0.1,0.3c-5.8-5.2-10.9-11.2-14.1-17.7
			c-0.6-1.1-1.2-2.3-1.8-3.5c-0.3,2.2-0.6,5.8,0.3,7.6C184.9,261.9,197.2,273.8,197.2,273.8z"/>
		<path class="st11" d="M309.8,273.8c0,0,1.8,9.2,0,13.4c-1.8,4.2-3.1,5.5-1.6,8.7s2.3,9,0.7,14.8c-1.6,5.8-4.8,5.7-0.7,15
			c3.3,7.6,2.8,10.9,2.5,12c-0.1-0.5-0.4-1.8-1.5-4.9c-2.2-5.9-5.3-15.8-4.4-19c0.8-3.2,3.6-5.5,1.8-10.1c-1.8-4.7-3.7-5.7-3.1-10.2
			c0.6-4.5,2.8-2.6,3.7-10.9c0.3-2.5,0.4-6.1,0.5-10c0,0.1,0.1,0.2,0.1,0.3c5.8-5.2,10.9-11.2,14.1-17.7c0.6-1.1,1.2-2.3,1.8-3.5
			c0.3,2.2,0.6,5.8-0.3,7.6C322.1,261.9,309.8,273.8,309.8,273.8z"/>
	</g>
	<g>
		<path class="st13" d="M274.8,45.4c2.5,1,4.8,2.4,7,4c2.2,1.6,4.1,3.5,5.8,5.7c0.9,1,1.6,2.2,2.4,3.4c0.4,0.6,0.6,1.2,0.9,1.8
			c0.1,0.3,0.3,0.6,0.4,0.9l0.3,1c0.9,2.6,1,5.5,0.7,8.1l0,0.1l-0.2,0l0-0.1c-0.8-2.6-1.3-5.1-2.4-7.5c-1-2.3-2-4.7-3.5-6.9
			c-1.5-2.1-3.2-4.1-5.2-5.8c-2-1.8-4.1-3.3-6.4-4.6l-0.1,0L274.8,45.4L274.8,45.4z"/>
	</g>
	<g>
		<path class="st13" d="M268.2,46.9c2.8,2.6,5.4,5.5,7.8,8.5c2.4,3.1,4.5,6.3,6.2,9.8c1.7,3.5,3.2,7.2,3.5,11.3c0.1,2,0,4-0.4,5.9
			c-0.5,1.9-1.2,3.8-2.3,5.4l-0.1,0.1l-0.2-0.1l0-0.1c0.5-1.9,0.9-3.7,1.1-5.6c0.2-1.9,0.1-3.7-0.2-5.5c-0.2-1.8-0.6-3.7-1.1-5.5
			c-0.5-1.8-1.1-3.6-1.8-5.3c-1.5-3.5-3.4-6.8-5.6-9.9c-2.1-3.2-4.5-6.2-7.1-9l-0.1-0.1L268.2,46.9L268.2,46.9z"/>
	</g>
	<g>
		<path class="st13" d="M126.5,298.2c-4.2-5.9-7.3-12.5-9.8-19.3c-1.2-3.4-2.2-6.9-3-10.5c-0.8-3.5-1.4-7.1-1.9-10.7
			c-0.4-3.7-0.4-7.4,0.2-11c0.6-3.6,1.6-7.2,2.9-10.6c2.7-6.8,6.7-13,11.2-18.7c4.4-5.7,9.3-11.1,14.2-16.4c2.4-2.7,4.9-5.3,7.2-8
			c1.1-1.4,2.3-2.8,3.3-4.2c1-1.4,1.9-3,2.8-4.6c3.5-6.3,6.6-12.8,9.2-19.5c2.6-6.7,4.8-13.6,7.3-20.3l0.2,0.1
			c-2.3,6.8-4.4,13.7-6.9,20.5c-2.5,6.8-5.5,13.4-8.9,19.7c-0.9,1.6-1.7,3.2-2.8,4.7c-1,1.5-2.1,2.9-3.3,4.4
			c-2.3,2.8-4.7,5.5-7.1,8.2c-4.8,5.4-9.6,10.7-13.9,16.4c-4.3,5.7-8.1,11.9-10.6,18.5c-2.5,6.6-3.7,13.7-2.9,20.7
			c0.7,7.1,2.1,14.1,4.2,21c1,3.4,2.3,6.8,3.7,10.1c1.4,3.3,3,6.5,4.9,9.6L126.5,298.2z"/>
	</g>
	<g>
		<path class="st13" d="M209.4,273.6c0,0.4,0.1,0.6,0.1,0.6S209.5,274,209.4,273.6z"/>
		<path class="st13" d="M202.2,318.9c-0.4,1.5-0.9,2.6-0.9,2.6S202,320.7,202.2,318.9z"/>
	</g>
	<path class="st13" d="M234.7,244.1c0,0,7-2.4,8.3-2.7c1.3-0.2,1.3-0.2,1.3-0.2l-2.1,4c1.4-1.6,3.4-3.8,4-5.6
		c-7.6,1.5-26.9,5.3-36.9,13.4c-5.8,4.7-7.2,13.5-10.1,19.5c-0.1,0-0.1-0.1-0.2-0.1c-0.2,3.3-0.3,6.8-0.1,8.7
		c0.4,4.5,3,6.8,3.9,12.4c0.3,2-3.7,7.6-3.5,12.4c0.2,4.9,0.4,2.8,2.3,7.9c0.8,2.1,0.8,3.8,0.7,5.1c0.6-2.2,1-5.3-0.3-7.6
		c-2.3-4-0.7-6.1,1.8-13.1s-0.8-7.9-2.4-13.2c-1.6-5.3-0.3-8.2,0-11.9c0.3-3.7,2.6-7.8,2.6-7.8s0,0,0.7,2.3c0.7,2.3,0,5.6,0,5.6
		s1.1-3.2,1.3-3.8c0.2-0.7-1.1-6.6,0.4-9.7s2.8-1.5,2.8-1.5c0.9,1.8,0.8,6.4,0.2,8.8c-0.5,1.9-0.1,5.3,0.1,6.7
		c-0.1-1.1-0.2-3.4,0.7-5.5c1.2-2.9,1.4-7,0.7-9.3c-0.7-2.3,0.9-4.2,2.3-5.8c1.4-1.6,5.4-2.7,5.4-2.7l1.3,4.3c0,0,0-4,1.4-5.1
		c1.4-1.1,5.7-2.4,5.7-2.4v4l3.5-5.4l-0.1,3.5C231.3,249.1,234.7,244.1,234.7,244.1z"/>
	<path class="st13" d="M267.5,244.1c0,0-7-2.4-8.3-2.7c-1.3-0.2-1.3-0.2-1.3-0.2l2.1,4c-1.4-1.6-3.4-3.8-4-5.6
		c7.6,1.5,26.7,5.3,37,13.1c6.1,4.6,11.7,22.4,11.8,22.4c0.2,3.3,0.3,5,0.2,7c-0.4,4.5-4.1,5.9-5.6,11.4c-1.5,5.5,2.4,6.6,3.5,11.4
		c1.1,4.8-0.4,3.8-2.3,8.9c-0.8,2.1-0.8,3.8-0.7,5.1c-0.6-2.2-1-5.3,0.3-7.6c2.3-4,0.7-6.1-1.8-13.1s0.8-7.9,2.4-13.2
		c1.6-5.3,0.3-8.2,0-11.9c-0.3-3.7-2.6-7.8-2.6-7.8s0,0-0.7,2.3c-0.7,2.3,0,5.6,0,5.6s-1.1-3.2-1.3-3.8c-0.2-0.7,1.1-6.6-0.4-9.7
		s-2.8-1.5-2.8-1.5c-0.9,1.8-0.8,6.4-0.2,8.8c0.5,1.9,0.1,5.3-0.1,6.7c0.1-1.1,0.2-3.4-0.7-5.5c-1.2-2.9-1.4-7-0.7-9.3
		c0.7-2.3-0.9-4.2-2.3-5.8c-1.4-1.6-5.4-2.7-5.4-2.7l-1.3,4.3c0,0,0-4-1.4-5.1c-1.4-1.1-5.7-2.4-5.7-2.4v4l-3.5-5.4l0.1,3.5
		C270.9,249.1,267.5,244.1,267.5,244.1z"/>
	<path class="st13" d="M246.5,245.2c-1.2,5.7-4.1,5.8-4.1,5.8l0.5-4l-1.3,4.6c0.7-0.2,1.4-0.3,1.8-0.4c4.1-0.6,4.6-11.9,4.6-11.9
		s-0.4,0.1-1.1,0.2C247,240.8,247,242.7,246.5,245.2z"/>
	<path class="st10" d="M188.5,337.7v3.3c0,0-4.5-0.7-5.9-4.7s-3.2-6.3-3.2-6.3l-6.1-6v1.2c0,0-4.6-1-4.9-4.9c-0.3-3.9,0-4.8,0-4.8
		l-3.5-4.1c0,0,8.7-5.6,9.1-5.5s11,0.5,11,0.5l9.6,4.4L188.5,337.7z"/>
	<path class="st13" d="M216.3,284.6c-0.1-3.9-1-12.4,0.6-18.5l0,0c0,0-2.1,3.7-2.3,10.6c-0.2,6.9-0.2,10.7,1.5,12.8
		c1.6,2.1-0.1,6.4-0.5,9s2.7,4.6,1.6,7.3c0,0,0.7-0.2,0.2-3c-0.5-2.8-1.6-2.6-1-4.8c0.6-2.3,1.9-5.5,1.2-8.1
		C216.8,287.2,216.4,288.5,216.3,284.6z"/>
	<path class="st11" d="M163.9,292.7c0,0-0.1,0.1-0.2,0.3c-0.5,0.8-1.6,3-1.8,5.2c-0.3,2.8,0.1,8.8,2.5,11.5c0,0-0.1,4.1,3.3,7.1
		c0,0-0.5,4.3,0.9,5.5s4.1,3.6,4.3,6.3l0.9-3.3c0,0,1.2,5.2,6.4,8.3c0,0,1.2,5.3,4.6,6.7c3.5,1.4,3.3,3.3,3.2,5.4
		c-0.1,2.2,1.8,2.9,1.8,2.9s-1.8-1.2-1-3.1c0.7-2,2.4-5.1,1-8.7c-1.4-3.5-1.8-5.8-1.1-7.9c0,0-1.7,2-1.3,5.6
		c0.4,3.6,0.2,4.9,0.2,4.9s-4.5-2.5-4.9-5.3c-0.4-2.7-0.5-5.2,1.2-9.1c1.8-3.9,4.9-7,3.5-13.8c0,0,0.1,3.5-0.3,6
		c-0.4,2.5-5.7,7-6.3,12.5c0,0-4-1.6-5.8-5.9c0,0-0.6-5.7,2.9-11.6c0,0-4.4,4-5.1,12.1c0,0-2.6-1.6-3.2-3.8c-0.6-2.2,0.1-4.9,1.8-8
		c0,0-2.2,0.8-2.7,2.3c0,0-2.6-1.2-2.6-4.2s3.7-4.5,5.2-7.1c1.5-2.6-0.3-5.9-0.3-5.9s0.9,3-0.5,4.8c-1.4,1.9-4.1,3.1-5.1,4.8
		c0,0-2-1.9-2.2-6.4C163,296.7,163.9,292.7,163.9,292.7z"/>
	<path class="st10" d="M294,353.4l-1.1,3.9c0,0,5.5,0.8,8.6-3.5c3-4.3,6-6.3,6-6.3l9.3-5l-0.4,1.5c0,0,5.7,0.4,7.5-4.1
		s1.7-5.7,1.7-5.7l5.6-3.7c0,0-8.3-9.6-8.8-9.7c-0.5-0.1-13.1-3.2-13.1-3.2l-12.8,1.9L294,353.4z"/>
	<path class="st11" d="M338.7,309.1c0,0,0,0.2,0.1,0.5c0.3,1.1,0.8,4.1,0.3,6.7c-0.7,3.4-3.1,10.4-7,12.7c0,0-1.3,4.9-6.4,7.2
		c0,0-0.9,5.2-3,6.2c-2.1,1-6.1,2.8-7.2,5.9l0.1-4.1c0,0-3.2,5.7-10.4,7.5c0,0-3.2,5.8-7.8,6.3c-4.6,0.5-5,2.7-5.6,5.3
		c-0.7,2.6-3.2,2.8-3.2,2.8s2.5-0.7,2.3-3.3s-1-6.9,1.8-10.6c2.8-3.7,4.2-6.1,4-8.9c0,0,1.3,2.9-0.4,7c-1.7,4.1-2,5.7-2,5.7
		s6.2-1.4,7.7-4.5c1.4-3.1,2.4-5.9,1.7-11.1s-3.4-10,0.7-17.5c0,0-1.3,4.1-1.7,7.1s4.3,10.2,3,16.9c0,0,5.3-0.5,8.8-4.9
		c0,0,2.7-6.5,0.6-14.7c0,0,3.8,6.2,1.8,16.1c0,0,3.6-1,5.1-3.4c1.5-2.3,1.6-5.8,0.6-10c0,0,2.3,1.7,2.4,3.7c0,0,3.5-0.4,4.6-4
		c1.1-3.6-2.8-6.6-3.7-10.2c-0.9-3.5,2.4-6.8,2.4-6.8s-2.2,3.2-1.1,5.9s3.8,5.1,4.4,7.5c0,0,3-1.5,4.8-6.7
		C338.2,314,338.7,309.1,338.7,309.1z"/>
	<g>
		<path class="st11" d="M174.9,259.2c-2.5,3.5-4.7,7.6-5.7,11.8c-0.5,2.1-0.6,4.4-0.7,6.6c-0.1,1.1-0.1,2.3-0.3,3.4
			c-0.2,1.2-0.5,2.3-0.9,3.4c-0.8,2.2-1.7,4.2-2.7,6.3c-0.5,1-1,2-1.4,3.1l-0.5,1.6c-0.2,0.5-0.2,1.1-0.4,1.6
			c-0.8,4.4,0.2,9.1,2.8,12.8c-2.7-3.6-4-8.4-3.3-12.9c0.1-0.6,0.2-1.1,0.3-1.7l0.5-1.7c0.4-1.1,0.8-2.2,1.3-3.2
			c0.9-2.1,1.8-4.1,2.5-6.3c0.3-1.1,0.6-2.1,0.7-3.2c0.1-1.1,0.2-2.2,0.2-3.3c0-2.2,0-4.6,0.5-6.9c0.5-2.3,1.2-4.5,2.2-6.6
			c1-2.1,2.1-4.1,3.4-6.1c0.3-0.5,0.9-0.6,1.4-0.3S175.2,258.7,174.9,259.2C174.9,259.1,174.9,259.1,174.9,259.2L174.9,259.2z"/>
	</g>
	<path class="st11" d="M160.7,289.6c-0.6,7.8-1.8,7.5-1.8,7.5s-4.7,1.9-5.3-4.2c-0.6-6.1,0-23.8,0-23.8s-5.7,12-5.7,20.2
		c0,0-8.2-24.2,5.7-49.7c0,0-17.3,9.9-9.2,61.1c8.5,4,15.7,4,15.7,4S160.3,299,160.7,289.6z"/>
	<path class="st11" d="M158,298.2c0,0-0.6-19.8,0.9-31.1c1.5-11.2,3.7-21.1,3.7-21.1s-5.8,2.7-8.3,8.6c0,0-0.8-10.9,2.7-17.8
		l-6.2-10.5l7.9-11.6l9.2,12.2l8.1,18.6v4.6c0,0-8.3,17.4-8.5,31.6c-0.2,8.4-8.2,17.4-8.2,17.4L158,298.2z"/>
	<path class="st11" d="M174.7,252c0,0-4.4,12.8-4.1,25.4c0.2,12.7,4.1,16.1,4.1,16.1s-1.4-11.1-0.4-15.4c1-4.3,5-8.8,6.2-10.6
		s2.8-7.9,2.8-7.9l5,5.5c0,0-2,0.1-1.8,6.9c0.2,6.8,1.7,9.1-1.6,12.4c-3.3,3.3-2.5,11.7-2.5,11.7s-0.3-5.4,2.2-8.6
		c2.5-3.2,4.6-4.1,4.6-6.3s-0.8-6.8-0.3-7.4c0.5-0.6,2.8-1.3,3.2,0.5c0.3,1.8-1.2,4.8-0.8,9.7s3.2,5.3,2.2,9.6s-3,8.7-1.5,14.3
		c0,0-0.8-5.8,1.7-10c2.5-4.2,3.8-4.4,3.2-7.6c-0.6-3.2,0.2-8.8,0.2-8.8l1.6-9.5c0,0-9.6-8.2-14.9-20.1c-5.2-11.9-5.8-12.3-5.8-12.3
		L174.7,252"/>
	<path class="st11" d="M175.5,181.3"/>
	<path class="st10" d="M239.7,293.9c0,0-0.1,7.4,2.6,10.5l1.2-5.4c0,0,1.8,12.8,8.8,12.8c5.3,0,8.3-7,9-12.7c0,0,1.2,3.4,1.6,9.1
		c0,0,1.9-4.2,2.8-8.6c0,0,0.5-0.5,0.5,1.8c0,0,2.4-2.5,2-8.9c0,0-4.3-14.5-9.6-3.5c0,0,0.1,2.1-0.9,2.5c-1,0.4-1.5-0.7-1.5-0.7
		l-0.5,4.1l-0.5-1.5c0,0-1.3,2-2.2,0.5c-0.9-1.5-1.4-4-1.4-4l0.4,3.2c0,0-1.7-1-2.1-4.2c0,0-3.5-5-6.6-3.1
		C240.6,287.9,239.7,293.9,239.7,293.9z"/>
	<path class="st11" d="M261.9,315l1.3-4.3c0,0-5.6,7-11,6.8c-5.4-0.2-8.8-8.6-8.8-8.6l-1.3,0.8c-2.8-1.3-3.6-4-3.7-6.8
		c-0.2,2-3.3,28.6,1.4,40.9c5,12.8,6.3,13.6,6.3,13.6s-0.1,6.6,2.4,9.6c2.5,3,4.9,3.5,4.9,3.5s-6.3-8-4.9-33.8
		c0,0,0.7,21.7,4.9,28.7c4.2,7,6.2-16.5,6.2-16.5s1.3,10.2,0,18.5c0,0,3.8-4.5,4-15.4c0,0,2.2,0.7,2.5,5.1c0,0,3-14.2,3.1-23.7
		l-0.8-26.2C266.4,313.5,261.9,315,261.9,315z"/>
	<g>
		<path class="st13" d="M238.5,300.4c-0.1,0.9,0,1.8,0.1,2.6c0.1,0.9,0.3,1.7,0.6,2.5c0.3,0.8,0.7,1.5,1.2,2.2
			c0.5,0.6,1.2,1.1,1.9,1.5l-0.9,0.4l0.7-2.8l0.7-2.7l0.7,2.8c0.3,1.1,0.7,2.3,1.2,3.4c0.5,1.1,1.1,2.1,1.9,3.1
			c1.4,1.9,3.5,3.1,5.7,3.2c2.3,0.1,4.7-0.5,6.4-1.9c1.8-1.4,2.9-3.5,3.4-5.8l0.9-4.9l0.8,4.9c0.1,0.6,0.1,1.1,0.2,1.6
			c0,0.5,0,1.1,0,1.6c-0.1,1.1-0.3,2.2-1,3.2l-0.9-1c0.7-0.3,1.6-0.9,2.2-1.5c0.7-0.6,1.3-1.4,1.8-2.2c0.5-0.8,0.9-1.7,1.2-2.6
			c0.2-0.5,0.2-0.9,0.4-1.4c0.1-0.5,0.1-1,0.2-1.4l0-0.1l0,0c0.1-0.1,0.3-0.1,0.4,0c0.1,0.1,0.1,0.2,0.2,0.2
			c0.1,0.2,0.1,0.3,0.1,0.5c0,0.3,0,0.6,0,0.9c0-0.3-0.1-0.6-0.1-0.9c0-0.1-0.1-0.3-0.1-0.4c-0.1-0.1-0.2-0.1-0.2-0.1l0.1-0.1
			c0,0.5,0,1,0,1.5c-0.1,0.5-0.1,1-0.2,1.5c-0.2,1-0.5,2-1,2.9c-0.5,0.9-1.1,1.8-1.8,2.5c-0.7,0.8-1.5,1.4-2.5,2l-2,1l1.2-2.1
			c0.4-0.7,0.6-1.6,0.6-2.6c0-0.5,0-0.9,0-1.4c0-0.5-0.1-1-0.2-1.4l1.7,0c-0.4,2.7-1.7,5.3-3.9,7.1c-2.2,1.8-5.1,2.5-7.8,2.3
			c-1.4,0-2.8-0.6-4-1.3c-1.2-0.7-2.2-1.8-3-2.8c-0.8-1.1-1.4-2.3-1.9-3.5c-0.5-1.2-0.9-2.5-1.1-3.8l1.4,0.1l-0.9,2.7l-0.2,0.7
			l-0.6-0.4c-0.8-0.5-1.6-1.1-2.1-1.9c-0.5-0.8-0.9-1.7-1.1-2.6c-0.2-0.9-0.3-1.8-0.3-2.7C238.3,302.2,238.4,301.3,238.5,300.4z"/>
	</g>
	<g>
		<path class="st13" d="M245.3,287.7l-0.9,2.6l-0.4,1.3c-0.1,0.2-0.1,0.4-0.1,0.6c0,0.1,0.1,0.2,0.3,0.3c0.8,0.4,1.7,1.1,2.1,2
			c0.2,0.5,0.3,1.1,0.1,1.6c-0.2,0.6-0.5,1-0.8,1.3c-0.3,0.4-0.4,0.6-0.5,1c0,0.3,0,0.7,0.1,1.2c0.1,0.4,0.2,0.9,0.3,1.4
			c0.1,0.5,0,1.2-0.3,1.8c-0.2,0.3-0.4,0.5-0.5,0.6c-0.1,0.2-0.2,0.2-0.2,0.4c-0.1,0.2-0.1,0.6,0,1c0.1,0.8,0.5,1.8,0.1,3.1
			l-1.9-0.6c0.2-0.5,0.1-1.3,0-2.4c0-0.5,0-1.1,0.3-1.8c0.1-0.3,0.4-0.6,0.6-0.8c0.2-0.2,0.3-0.3,0.4-0.4c0.3-0.4,0.2-1.2,0-2.2
			c-0.1-0.5-0.1-1,0-1.6c0.1-0.6,0.5-1.1,0.8-1.4c0.3-0.3,0.6-0.6,0.7-1c0.1-0.3,0.1-0.7,0-1.1c-0.3-0.8-0.9-1.4-1.7-1.9
			c-0.2-0.1-0.5-0.4-0.5-0.7c0-0.3,0.1-0.6,0.2-0.8l0.6-1.3L245.3,287.7z"/>
	</g>
	<g>
		<path class="st13" d="M251.3,291.4c0.4,1.1,0.7,2.2,0.9,3.4c0.2,1.2,0.1,2.4-0.4,3.5c-0.5,1.1-1.3,2-1.5,3c-0.3,1-0.1,2.2,0.1,3.2
			c0.6,2.1,2,4,2.9,6.3c0.2,0.6,0.4,1.3,0.3,2.1c-0.1,0.7-0.4,1.3-0.6,1.9c-0.2,0.5-0.4,1-0.5,1.4c-0.1,0.4,0,0.8,0.2,0.9l-1.6,1.2
			c-0.6-0.8-0.6-1.7-0.4-2.4c0.1-0.7,0.5-1.3,0.7-1.8c0.3-0.5,0.5-1,0.6-1.4c0.1-0.4,0-0.9-0.1-1.4c-0.6-2-1.9-4.1-2.4-6.5
			c-0.2-1.2-0.3-2.5,0.1-3.6c0.4-1.2,1.3-2.1,1.8-3c0.5-1,0.7-2.1,0.6-3.3C251.8,293.7,251.6,292.6,251.3,291.4z"/>
	</g>
	<g>
		<path class="st13" d="M255,320.8c0.9-1.5,1.4-3,1.7-4.5c0.3-1.5,0.2-3.1-0.1-4.5c-0.3-1.6-0.7-3.1-1.3-4.6
			c-0.3-0.8-0.6-1.6-0.8-2.5c-0.1-0.9,0.1-1.8,0.5-2.6c0.1,0.9,0.2,1.7,0.5,2.4c0.3,0.7,0.8,1.3,1.2,2.1c0.9,1.5,1.5,3.2,1.9,4.9
			c0.4,1.8,0.3,3.7-0.4,5.4C257.6,318.4,256.4,319.8,255,320.8z"/>
	</g>
	<g>
		<path class="st13" d="M316.7,318.9c-0.4-1.7-1.1-3.2-1.4-5c-0.3-1.8-0.2-3.5,0-5.3l0.1-1.3l0.1-1.2l0-1.2l-0.1-1.2
			c-0.1-1.5-0.5-3.1-0.9-4.6c-0.4-1.6-1-3.1-1.4-4.9c-0.2-0.9-0.3-1.8-0.3-2.8c0-0.9,0.2-1.8,0.3-2.7c0.7-3.4,1.9-6.6,3.4-9.7
			c-0.4,3.4-0.9,6.7-1.1,10c0,0.8,0,1.6,0,2.3c0.1,0.7,0.2,1.4,0.4,2.2c0.4,1.5,1,3.1,1.5,4.8c0.5,1.7,0.8,3.5,0.9,5.3
			c0,0.5,0,0.9,0,1.4l-0.2,1.4l-0.3,1.3l-0.3,1.2c-0.4,1.6-0.8,3.2-0.8,4.8C316.7,315.4,317,317.2,316.7,318.9z"/>
	</g>
	<g>
		<path class="st13" d="M330.8,298.7c-0.5-1-1.1-1.8-1.6-2.8c-0.5-1-0.7-2-0.9-3.1c-0.2-1.1-0.4-2-0.8-2.9c-0.4-0.9-1-1.8-1.6-2.6
			c-0.6-0.8-1.3-1.6-1.9-2.6c-0.3-0.5-0.6-1-0.8-1.5c-0.2-0.6-0.3-1.1-0.5-1.6c-0.5-2.2-0.6-4.3-0.7-6.4c0-0.5,0.4-0.9,0.9-0.9
			c0.4,0,0.8,0.3,0.9,0.6l0,0c0.4,1.3,0.9,2.6,1.6,3.8c0.7,1.2,1.4,2.4,2.4,3.3c0.5,0.5,1,0.9,1.5,1.2l0.9,0.5
			c0.3,0.2,0.7,0.4,1,0.7c1.3,1,2.2,2.5,2.6,4c0.4,1.6,0.3,3.1,0.2,4.5l0,0.5c0,0.2,0,0.3,0,0.4c0,0.3,0.1,0.6,0.2,0.9
			c0.3,0.6,0.7,1.2,1.1,1.8c0.8,1.2,1.6,2.5,2.1,3.9c0.4,1.4,0.5,2.9,0.3,4.4c0-1.5-0.3-2.9-0.8-4.2c-0.5-1.3-1.4-2.4-2.3-3.5
			c-0.5-0.6-0.9-1.1-1.3-1.8c-0.2-0.4-0.4-0.8-0.4-1.2c0-0.2-0.1-0.4-0.1-0.6l0-0.6c0-1.5,0-2.9-0.4-4.1c-0.4-1.2-1.1-2.3-2.1-3.1
			c-0.3-0.2-0.5-0.4-0.8-0.5l-1-0.5c-0.7-0.4-1.3-0.9-1.9-1.5c-2.2-2.2-3.5-5-4.4-7.9l1.8-0.3c0.1,2.1,0.2,4.2,0.5,6.2
			c0.1,0.5,0.2,1,0.3,1.4c0.1,0.4,0.4,0.9,0.6,1.3c0.5,0.9,1.1,1.7,1.7,2.6c0.6,0.9,1.1,1.9,1.5,3c0.2,0.5,0.3,1.1,0.4,1.6
			c0.1,0.6,0.1,1.1,0.2,1.6c0.1,1,0.2,2.1,0.6,3.1C329.9,296.7,330.5,297.6,330.8,298.7z"/>
	</g>
	<path class="st14" d="M341.9,211.4c0,0-2,8.4-2.1,14.5s2.1,12.7,3.7,16.3s6.9,9,7.5,15.3c0,0,1.3-4.9-0.8-11.6
		c-2.2-6.7-3.7-9-4.6-12.7c-0.8-3.6,0.3-10.6,0.3-10.6l8.5,10.6C354.3,233.2,344.8,218.1,341.9,211.4z"/>
	<path class="st12" d="M257.9,322.5v30.2c0,0,4-9.1,4-14.8c0-5.8,1.3-11.7,1.3-11.7s1.3,7.3,1.3,9.7c0,2.4,0,5.8,0,5.8
		s2.2-3.1,2-10.4s-1.5-11.7-0.9-14.6c0,0-2,0.9-3.4,4.6s-2.1,9.7-2.1,9.7L257.9,322.5z"/>
	<path class="st14" d="M165.7,191.1c-1.3,2.6-3,5.4-5.1,8.2c-7.2,9.7-24.2,27-24.2,27s5.3-2.2,16.4-10.3c5.1-3.7,10.4-8.4,14.6-12.5
		c-0.7-3.6-1.3-7.3-1.9-11.1C165.7,192,165.7,191.5,165.7,191.1z"/>
	<g>
		<path class="st13" d="M230.3,366c-1.3-0.3-2.5-1.2-3.5-2.1c-1-1-1.8-2.1-2.5-3.3c-1.5-2.3-2.6-5.1-2.8-7.9c-0.1-1.4-0.1-2.8,0-4.2
			c0.1-1.3,0.1-2.6,0-3.9c-0.1-1.3-0.2-2.6-0.4-3.9c-0.2-1.3-0.5-2.6-0.8-3.8l1.7-0.3c0,1.2-0.1,2.4-0.2,3.6
			c-0.1,1.2-0.3,2.4-0.7,3.6c-0.1,0.3-0.3,0.6-0.4,0.9l-0.4,0.7c-0.3,0.5-0.6,1-0.8,1.5l-1.7,3.1c0.3-1.1,0.7-2.3,1.1-3.4
			c0.2-0.6,0.4-1.1,0.6-1.7c0.1-0.3,0.2-0.6,0.4-0.8c0.1-0.3,0.2-0.5,0.3-0.7c0.3-1,0.3-2.2,0.3-3.3c0-1.1,0-2.3-0.1-3.4l-0.3-6.5
			l2,6.2c0.9,2.7,1.4,5.4,1.6,8.1c0.1,1.4,0.1,2.8,0,4.2c-0.1,1.3-0.2,2.6-0.1,3.9c0.1,2.6,0.8,5,2,7.4c0.6,1.2,1.2,2.4,2,3.4
			C228.2,364.5,229.1,365.5,230.3,366z"/>
	</g>
	<g>
		<path class="st13" d="M211.6,322.3c-0.5,4.7-1.2,9.3-1.8,13.9c-0.2,2.3-0.6,4.6-0.5,6.8c0.1,1.1,0.3,2.1,0.7,3
			c0.2,0.4,0.5,0.8,0.8,1.2c0.2,0.2,0.3,0.3,0.5,0.5c0.2,0.1,0.4,0.3,0.5,0.3l5.5,2.6l-5.9-0.7c-1.3-0.1-2.4-0.4-3.5-0.8
			c-1.1-0.4-2.3-1-3.2-1.9c-0.5-0.4-0.9-1-1.2-1.6c-0.3-0.6-0.5-1.1-0.7-1.7c-0.3-1.2-0.4-2.4-0.4-3.6c0.1-2.4,0.7-4.7,1.5-6.8
			c0.7-2.1,1.2-4.3,1.6-6.5c0.1,2.3-0.2,4.6-0.7,6.8c-0.5,2.2-0.9,4.4-0.9,6.5c0,1.1,0.2,2.1,0.5,3.1c0.2,0.5,0.4,1,0.6,1.4
			c0.2,0.4,0.5,0.8,0.9,1.1c1.4,1.3,3.6,1.9,5.6,2.2l-0.4,1.9c-2.8-1.4-3.7-4.2-3.8-6.7c0-1.3,0.1-2.5,0.3-3.6
			c0.1-1.2,0.3-2.3,0.6-3.5c0.4-2.3,0.9-4.6,1.5-6.9C210.4,326.8,210.9,324.5,211.6,322.3z"/>
	</g>
	<g>
		<path class="st13" d="M269.3,364.8c0.6-0.6,1.1-1.3,1.6-1.9c0.4-0.7,0.8-1.4,1.1-2.2c0.3-0.8,0.6-1.5,0.7-2.3
			c0.2-0.8,0.3-1.6,0.3-2.4l0.3-3.5l1.2,3.3c0.3,0.9,0.5,1.7,0.6,2.6c0.1,0.9,0.2,1.8,0.2,2.6c0,0.9,0,1.8-0.2,2.6
			c-0.1,0.9-0.3,1.7-0.5,2.6l-1.4-1.1c0.9-0.6,1.8-1.6,2.4-2.6c0.7-1,1.2-2.1,1.5-3.3c0.4-1.2,0.5-2.4,0.6-3.7
			c0.1-1.3,0.1-2.6,0-3.8c-0.1-1.3-0.3-2.6-0.4-3.9c-0.1-1.4,0-2.8,0.4-4.2c0.4-1.3,1-2.5,1.5-3.7c0.3-0.6,0.6-1.2,1-1.8
			c0.4-0.6,0.7-1.2,1.3-1.5c-0.5,0.5-0.7,1.1-0.9,1.7c-0.2,0.6-0.5,1.2-0.7,1.9c-0.4,1.2-0.8,2.5-1,3.8c-0.2,1.2-0.2,2.5,0,3.7
			c0.2,1.3,0.5,2.6,0.7,3.9c0.2,1.4,0.3,2.7,0.2,4.1c0,1.4-0.2,2.8-0.6,4.2c-0.4,1.4-1,2.7-1.8,3.9c-0.8,1.2-1.7,2.2-3,3.1l-2.2,1.5
			l0.7-2.6c0.4-1.5,0.7-3.1,0.8-4.7c0-0.8,0-1.6-0.1-2.4c-0.1-0.8-0.2-1.6-0.4-2.3l1.5-0.2c-0.2,0.9-0.3,1.7-0.6,2.6
			c-0.3,0.8-0.7,1.6-1.1,2.4c-0.5,0.7-1,1.4-1.6,2.1C270.7,363.8,270.1,364.3,269.3,364.8z"/>
	</g>
	<g>
		<path class="st11" d="M134.8,164.8c3.8-9.7,6.8-19.7,9-29.8c1.1-5,2-10.1,2.8-15.3l2.6-15.4c1-5.1,1.9-10.3,3.2-15.4
			c0.7-2.5,1.4-5.1,2.3-7.6c0.5-1.3,0.9-2.5,1.5-3.7c0.6-1.2,1.3-2.4,2.3-3.6c1.9-2.1,4.3-3.6,6.8-4.6c2.5-1,5-1.7,7.4-2.6
			c2.4-0.8,4.7-1.9,6.8-3.4c2.1-1.5,3.8-3.4,5.4-5.5c-1.2,2.3-2.8,4.4-4.8,6.2c-2,1.8-4.4,3.1-6.8,4.2c-2.4,1.1-4.9,1.9-7.2,3
			c-0.6,0.3-1.1,0.6-1.7,0.9c-0.5,0.3-1,0.7-1.5,1c-0.5,0.4-1,0.8-1.4,1.2c-0.4,0.4-0.9,0.9-1.2,1.3c-0.7,0.9-1.3,2-1.8,3.1
			c-0.5,1.1-0.9,2.3-1.3,3.5c-0.8,2.4-1.4,4.9-2,7.4c-1.2,5-2.1,10.1-3,15.2c-1.9,10.2-3.4,20.5-6.1,30.7c-1.4,5.1-3,10.1-4.9,14.9
			C139.4,155.4,137.3,160.2,134.8,164.8z"/>
	</g>
</g>
<g id="Layer_3">
</g>
<g id="BEELD">
</g>
<g id="Layer_7">
</g>
</svg>
