<svg width="567" height="163" viewBox="0 0 567 163" fill="var(--nlds-logo-color, #111111)" xmlns="http://www.w3.org/2000/svg">
<path d="M445.71 0.0400391H460.19V10.0308H445.71V0.0400391Z"/>
<path fill-rule="evenodd" clip-rule="evenodd" d="M307.71 3.76659H281.61V64.9103H307.51C327.09 64.9103 338.72 52.9813 338.72 33.6291C338.72 14.2769 329.24 3.77658 307.71 3.77658V3.76659ZM306.38 52.8814H296.28V15.8954H305.86C318.81 15.8954 324.02 20.681 324.02 33.6291C324.02 46.5772 319.12 52.8914 306.38 52.8914V52.8814Z"/>
<path d="M174.21 17.0542C174.83 26.1358 175.44 39.0739 175.44 46.517H175.43V64.96H161.76V3.81635H182.57L193.28 24.2975C197.15 31.8405 201.23 42.3409 203.68 49.6741L205.31 49.4743C204.6 40.6025 204.09 29.9023 204.09 22.669V3.81635H217.65V64.96H198.17L185.73 40.8023C182.87 34.8977 178.69 24.6971 175.84 16.8543L174.21 17.0542Z"/>
<path d="M242.22 51.8121H268.43V64.9501H227.53V3.81635H242.22V51.8121Z"/>
<path fill-rule="evenodd" clip-rule="evenodd" d="M389.81 51.5526C387.67 59.9139 382.061 66.2275 368.295 66.2291C353.718 66.2274 343.72 58.4844 343.72 41.7716C343.72 25.057 352.79 15.276 368.5 15.276C383.39 15.276 390.43 24.0379 390.43 37.3857C390.43 39.4238 390.32 41.362 390.12 43.9096H357.38C358.19 51.6525 361.76 55.1193 368.39 55.1193C375.02 55.1193 376.96 52.0621 378.18 48.3955L389.81 51.5526ZM377.67 36.8861C377.47 29.3431 374.31 25.6764 368.09 25.6764C361.86 25.6764 358.19 28.9334 357.48 36.8861H377.67Z"/>
<path d="M418.17 56.548C412.15 56.548 408.89 53.8006 407.66 48.4954L395.22 51.0431C396.55 59.805 401.55 66.329 417.86 66.329C432.44 66.329 438.67 60.6243 438.67 51.2529C438.67 43.7098 435 38.7244 419.9 35.5574C411.24 33.8289 409.91 31.8907 409.91 29.2432C409.91 26.3958 412.16 24.8572 416.74 24.8572C421.74 24.8572 423.98 26.7954 425.1 31.7908L437.44 29.2432C435.71 20.7809 430.71 15.286 417.04 15.286C403.37 15.286 396.74 20.7909 396.74 30.0624C396.74 38.3148 401.23 42.6908 414.49 45.5581C423.36 47.2865 425.3 48.925 425.3 51.8723C425.2 55.0294 422.85 56.558 418.16 56.558L418.17 56.548Z"/>
<path d="M460.19 16.5948H446.32V64.9003H460.19V16.5948Z"/>
<path fill-rule="evenodd" clip-rule="evenodd" d="M500.46 55.1192C511.17 55.1192 516.07 59.8049 516.07 67.6676H516.04C516.04 77.7583 509.41 82.8536 489.83 82.8536C471.37 82.8536 466.17 79.0871 466.17 73.0726C466.17 68.6867 470.97 65.7394 477.5 64.4106V63.8012C472.3 63.0918 470.05 60.5442 470.05 57.1773C470.05 54.4198 472.19 51.9721 476.17 50.2437L479.74 48.4054C472.5 46.0575 468.52 40.9722 468.52 33.4291C468.52 22.6291 476.69 16.6146 490.45 16.6146H514.93V27.0051H509.63C507.28 27.0051 504.23 26.9051 500.35 26.4955L500.25 27.6145C506.27 28.7335 511.37 30.9714 511.37 36.5762C511.37 44.6288 503.72 49.824 490.16 49.824C487.2 49.824 484.45 49.5143 482.1 49.0048L481.29 50.3236C480.78 51.2427 480.37 52.1519 480.37 52.9711C480.37 54.6996 481.59 55.4189 484.65 55.4189C487.34 55.4189 490.08 55.349 492.79 55.269C493.129 55.26 493.466 55.2509 493.803 55.2417C496.082 55.1798 498.317 55.1192 500.46 55.1192ZM499.65 33.9187C499.65 30.0522 496.8 27.095 490.17 27.095C483.54 27.095 480.89 30.0423 480.89 33.9187C480.89 37.7951 483.24 40.7524 490.17 40.7524C497.1 40.7524 499.65 37.7851 499.65 33.9187ZM483.44 64.0809C479.163 64.0809 476.613 66.1166 476.61 68.4627C476.613 71.7156 479.177 73.1426 490.79 73.1426C502.41 73.1426 505.37 71.4142 505.37 68.0473C505.37 65.7094 503.74 64.0809 499.86 64.0809H483.44Z"/>
<path d="M535.67 37.9951C535.67 31.9906 539.44 27.8045 545.35 27.8045C550.45 27.8045 552.69 31.1714 552.69 36.0569V64.9003H566.56V32.1904C566.56 21.6901 561.87 15.276 552.59 15.276C545.04 15.276 539.13 20.1715 536.27 29.5429H535.35V16.6048H521.79V64.9103H535.66V38.0051L535.67 37.9951Z"/>
<path d="M175.25 100.218C175.25 103.785 176.99 106.332 189.02 108.47L189 108.49C207.97 111.857 212.05 118.99 212.05 127.852C212.05 139.572 204.4 146.705 186.45 146.705C166.87 146.605 160.24 137.843 158.91 127.243L172.88 124.286C174.31 131.619 179.51 134.986 187.06 134.986C193.89 134.986 197.26 132.738 197.26 128.871C197.26 124.585 194.51 122.347 182.88 120.409C165.95 117.762 160.75 111.138 160.75 101.047C160.75 89.5376 168.81 82.7039 185.54 82.7039C202.27 82.7039 208.9 90.1371 210.63 100.637L196.05 103.485C194.62 97.2605 192.17 94.1034 184.83 94.1034C178.31 94.1034 175.25 96.3514 175.25 100.218Z"/>
<path d="M243.604 125.098L243.603 125.102L243.35 126.074L243.194 126.67C242.715 128.505 242.229 130.362 241.76 132.218H240.03C239.13 128.752 238.17 125.185 237.23 121.738V121.718C236.57 119.29 235.93 116.922 235.34 114.694L230.54 96.9608H215.34L233.5 144.657C231.25 149.752 228.7 150.671 223.81 150.671C221.77 150.671 219.63 150.372 217.59 149.952L215.55 161.671C218.1 162.081 220.14 162.391 223.51 162.391C235.64 162.391 241.77 157.295 246.46 145.476L265.53 96.9708H250.64L246.15 115.014V115.004C245.418 118.121 244.527 121.547 243.608 125.084L243.606 125.09L243.604 125.098Z"/>
<path d="M281.44 109.599C281.44 112.247 282.77 114.185 291.43 115.923L291.42 115.913C306.52 119.08 310.19 124.066 310.19 131.609C310.19 140.98 303.96 146.685 289.38 146.685C273.06 146.685 268.07 140.161 266.74 131.399L279.18 128.851C280.41 134.156 283.67 136.904 289.69 136.904C294.38 136.904 296.73 135.375 296.83 132.218C296.83 129.271 294.89 127.632 286.02 125.904C272.76 123.057 268.28 118.671 268.28 110.418C268.28 101.147 274.9 95.642 288.57 95.642C302.24 95.642 307.24 101.137 308.97 109.599L296.63 112.147C295.51 107.151 293.26 105.213 288.27 105.213C283.69 105.213 281.44 106.752 281.44 109.599Z"/>
<path d="M339.46 133.637C335.28 133.637 333.85 131.709 333.85 127.832V107.96H346.6V96.9506H333.85V84.5221H319.98V96.9506H314.06V107.96H319.98V130.07C319.98 139.242 324.67 146.685 335.89 146.685C341.19 146.685 343.64 145.965 347.32 144.847L345.79 132.418C343.95 133.027 341.61 133.637 339.46 133.637Z"/>
<path fill-rule="evenodd" clip-rule="evenodd" d="M351.91 122.128C351.91 105.413 360.99 95.632 376.7 95.632V95.642C391.59 95.642 398.62 104.404 398.62 117.752C398.62 119.78 398.52 121.718 398.31 124.266H365.57C366.38 132.008 369.94 135.475 376.58 135.475C383.22 135.475 385.16 132.418 386.38 128.751L398.01 131.909C395.87 140.271 390.26 146.585 376.49 146.585C361.91 146.585 351.91 138.842 351.91 122.128ZM376.29 106.022C370.06 106.022 366.39 109.279 365.68 117.232H385.87C385.67 109.689 382.52 106.022 376.29 106.022Z"/>
<path d="M467.67 95.6319C459.72 95.6319 454.22 100.627 451.56 110.109H450.44C449.83 101.037 445.65 95.6319 437.08 95.6319C429.43 95.6319 423.62 100.527 420.86 109.899H419.84V96.9607H406.28V145.256H420.15V118.351C420.15 112.337 423.93 108.16 429.84 108.16C434.84 108.16 437.18 111.527 437.18 116.413V145.256H451.05V118.351C451.05 112.337 454.72 108.16 460.63 108.16C465.74 108.16 467.98 111.527 467.98 116.413V145.256H481.95V112.546C481.95 102.046 477.16 95.6319 467.67 95.6319Z"/>
<path fill-rule="evenodd" clip-rule="evenodd" d="M2.56002 3.66658H142.24C143.23 3.66658 144.03 4.46585 144.03 5.45494V75.2207C144.03 84.8718 142.13 94.2432 138.39 103.075C134.78 111.607 129.62 119.25 123.05 125.814C116.47 132.378 108.82 137.533 100.29 141.14C91.44 144.887 82.06 146.775 72.4 146.775C62.74 146.775 53.35 144.877 44.51 141.14C35.98 137.533 28.32 132.378 21.75 125.814C15.18 119.25 10.02 111.597 6.41003 103.075C2.67003 94.2432 0.77002 84.8618 0.77002 75.2207V5.45494C0.77002 4.46585 1.58002 3.66658 2.56002 3.66658ZM72.41 16.0252C70.52 14.1969 67.91 13.0579 65.01 13.0879V13.0979C55.81 13.1878 51.28 24.0878 57.77 30.4719L71.48 43.9495C71.5 43.9645 71.515 43.9795 71.5301 43.9945C71.545 44.0095 71.56 44.0244 71.58 44.0394C71.83 44.2592 72.13 44.3491 72.42 44.3491C72.72 44.3491 73.01 44.2492 73.26 44.0394L73.36 43.9395L87.07 30.4619C93.56 24.0778 89.02 13.1878 79.83 13.0879C76.92 13.0579 74.31 14.1869 72.41 16.0252ZM24 75.2207C24 101.437 45.66 122.687 72.39 122.687H72.38C99.11 122.687 120.77 101.437 120.77 75.2207V45.7179C120.77 44.7488 119.97 43.9595 118.98 43.9595H100.96C86.83 43.9595 75.1 54.0102 72.79 67.2181C72.76 67.4279 72.57 67.5777 72.35 67.5578C72.16 67.5478 72.01 67.3979 71.97 67.2181C69.65 54.0102 57.92 43.9595 43.8 43.9595H25.78C24.8 43.9595 24 44.7488 24 45.7179V75.2207Z"/>
</svg>
