<svg width="440" height="440" viewBox="0 0 440 440" fill="none" xmlns="http://www.w3.org/2000/svg">
<path d="M5.49153 0C2.46204 0 0 2.46209 0 5.49165V220.005C0 249.669 5.83018 278.491 17.3166 305.656C28.4004 331.86 44.2526 355.383 64.434 375.565C84.6154 395.746 108.137 411.599 134.341 422.683C161.506 434.179 190.327 440 220 440C249.673 440 278.485 434.17 305.659 422.683C331.863 411.599 355.385 395.746 375.566 375.565C395.747 355.383 411.6 331.86 422.683 305.656C434.179 278.491 440 249.669 440 220.005V5.49165C440 2.46209 437.538 0 434.508 0H5.49153ZM197.714 28.282C206.436 28.1905 214.298 31.6685 219.991 37.2974C225.684 31.6594 233.546 28.1813 242.277 28.282C269.909 28.5749 283.565 61.9824 264.051 81.5418L222.819 122.876C222.727 122.976 222.627 123.068 222.526 123.159C221.776 123.809 220.888 124.111 220.009 124.102C219.131 124.102 218.234 123.818 217.492 123.159C217.392 123.068 217.291 122.976 217.19 122.876L175.958 81.5418C156.445 61.9732 170.091 28.5657 197.732 28.282H197.714ZM368.647 220.005C368.647 302.105 302.098 368.654 220 368.654C137.902 368.654 71.3533 302.105 71.3533 220.005V127.617C71.3533 124.587 73.8154 122.125 76.8449 122.125H132.2C175.592 122.125 211.635 153.611 218.737 194.981C218.838 195.567 219.314 196.006 219.908 196.052C220.577 196.107 221.162 195.64 221.272 194.981C228.365 153.611 264.408 122.125 307.81 122.125H363.164C366.194 122.125 368.656 124.587 368.656 127.617V220.005H368.647Z" fill="currentColor"/>
</svg>
