<svg width="362" height="257" viewBox="0 0 362 257" fill="var(--nlds-logo-color, #111111)" xmlns="http://www.w3.org/2000/svg">
<path d="M18.71 48.3C18.71 39.97 18.02 25.49 17.34 15.34L19.17 15.11C22.36 23.89 27.04 35.3 30.23 41.9L44.14 68.93H65.92V0.51001H50.76V21.61C50.76 29.7 51.33 41.68 52.13 51.6L50.3 51.83C47.56 43.62 43 31.88 38.67 23.44L26.7 0.520004H3.43999V68.94H18.72V48.3H18.71Z"/>
<path d="M122.68 54.23H93.38V0.520004H76.95V68.94H122.68V54.23Z"/>
<path fill-rule="evenodd" clip-rule="evenodd" d="M14.33 118.45L14.32 118.42C14.64 118.37 14.8 118.12 14.8 117.86C14.8 117.6 14.64 117.34 14.32 117.29H14.27C8.64999 115.84 5.79999 111.77 4.41999 106.46C3.79999 104.07 3.56999 101.6 3.56999 99.14V83.66H32.85C56.89 83.66 67.49 95.58 67.49 117.08C67.49 138.58 54.7 151.88 33.13 152.09H3.56999V136.6C3.56999 134.14 3.79999 131.67 4.41999 129.29C5.79999 123.97 8.65999 119.9 14.28 118.45H14.33ZM31.48 118.46C23.61 120.49 20.08 127.63 20.08 136.14L20.09 136.15V138.65H31.37C45.61 138.65 51.08 131.58 51.08 117.1C51.08 102.62 45.27 97.26 30.8 97.26H20.09V99.64C20.09 108.15 23.62 115.29 31.48 117.32H31.53C31.85 117.37 32.01 117.64 32.01 117.89C32.01 118.14 31.85 118.4 31.53 118.45C31.52 118.45 31.49 118.46 31.49 118.46H31.48Z"/>
<path fill-rule="evenodd" clip-rule="evenodd" d="M100.47 153.57C115.86 153.57 122.14 146.5 124.53 137.15L111.53 133.61C110.17 137.71 107.99 141.14 100.58 141.14C93.17 141.14 89.18 137.26 88.27 128.6H124.87C125.09 125.75 125.21 123.58 125.21 121.3C125.21 106.36 117.34 96.56 100.69 96.56C83.13 96.56 72.98 107.51 72.98 126.21C72.98 144.91 84.16 153.58 100.46 153.58L100.47 153.57ZM100.25 108.19C107.2 108.19 110.74 112.29 110.97 120.73H88.39C89.19 111.84 93.29 108.19 100.25 108.19Z"/>
<path d="M144.49 133.73C145.86 139.66 149.51 142.74 156.24 142.74L156.25 142.75C161.49 142.75 164.12 141.05 164.23 137.51C164.23 134.2 162.06 132.38 152.14 130.44C137.32 127.24 132.3 122.33 132.3 113.1C132.3 102.72 139.71 96.56 154.99 96.56C170.27 96.56 175.86 102.71 177.79 112.18L163.99 115.03C162.74 109.44 160.23 107.27 154.64 107.27C149.51 107.27 147 108.98 147 112.17C147 115.14 148.48 117.3 158.17 119.24C175.05 122.78 179.15 128.36 179.15 136.8C179.15 147.29 172.19 153.68 155.89 153.68C137.65 153.68 132.06 146.39 130.58 136.58L144.49 133.73Z"/>
<path d="M203.55 79.5H187.36V90.68H203.55V79.5Z"/>
<path d="M187.71 98.03H203.22V152.08H187.71V98.03Z"/>
<path fill-rule="evenodd" clip-rule="evenodd" d="M265.69 155.175C265.688 146.388 260.208 141.14 248.24 141.14C245.811 141.14 243.273 141.21 240.688 141.282C240.346 141.291 240.003 141.301 239.66 141.31C236.63 141.4 233.57 141.48 230.56 141.48C227.14 141.48 225.77 140.68 225.77 138.74C225.77 137.83 226.23 136.8 226.8 135.78L227.71 134.3C230.33 134.87 233.41 135.21 236.72 135.21C251.88 135.21 260.44 129.39 260.44 120.39C260.44 114.12 254.74 111.61 248.01 110.36L248.12 109.11C252.45 109.57 255.87 109.68 258.5 109.68H264.43V98.05H237.06C221.67 98.05 212.55 104.78 212.55 116.86C212.55 125.3 217 131 225.09 133.62L221.1 135.67C216.65 137.61 214.26 140.35 214.26 143.42C214.26 147.18 216.77 150.04 222.59 150.83V151.52C215.29 153.01 209.93 156.31 209.93 161.21C209.93 167.94 215.74 172.16 236.38 172.16C258.267 172.16 265.688 166.462 265.69 155.175ZM236.73 109.78C244.14 109.78 247.33 113.08 247.33 117.42C247.33 121.76 244.48 125.06 236.73 125.06C228.98 125.06 226.35 121.76 226.35 117.42C226.35 113.08 229.32 109.78 236.73 109.78ZM221.57 156.08C221.57 153.46 224.42 151.18 229.21 151.18H247.57C251.91 151.18 253.73 153.01 253.73 155.62C253.73 159.38 250.42 161.32 237.43 161.32C224.44 161.32 221.58 159.72 221.58 156.08H221.57Z"/>
<path d="M298.43 110.58C291.82 110.58 287.6 115.26 287.6 121.98L287.61 121.97V152.08H272.1V98.03H287.26V112.51H288.29C291.48 102.03 298.09 96.55 306.53 96.55C316.9 96.55 322.15 103.73 322.15 115.48V152.08H306.64V119.81C306.64 114.34 304.13 110.58 298.43 110.58Z"/>
<path d="M33.88 196.22C20.43 193.83 18.49 190.98 18.49 186.99C18.49 182.66 21.91 180.15 29.21 180.15C37.42 180.15 40.16 183.69 41.75 190.64L58.05 187.45C56.11 175.7 48.7 167.38 30 167.38C11.3 167.38 2.28999 175.02 2.28999 187.91C2.28999 199.2 8.09999 206.61 27.03 209.58C40.03 211.75 43.11 214.26 43.11 219.05C43.11 223.38 39.35 225.89 31.71 225.89C23.27 225.89 17.46 222.13 15.86 213.92L0.23999 217.22C1.71999 229.08 9.13999 238.89 31.03 239C51.1 239 59.65 231.02 59.65 217.9C59.65 207.98 55.09 200 33.88 196.24V196.22Z"/>
<path d="M94.8893 214.843L94.8897 214.841C95.9206 210.866 96.9145 207.034 97.74 203.53V203.54L102.76 183.35H119.41L98.08 237.63C92.84 250.86 86 256.56 72.43 256.56C68.66 256.56 66.38 256.22 63.53 255.76L65.81 242.65C68.08 243.11 70.48 243.45 72.76 243.45C78.24 243.45 81.09 242.42 83.6 236.72L63.3 183.35H80.29L85.65 203.19C86.0839 204.834 86.5437 206.538 87.0153 208.285C87.261 209.196 87.5099 210.118 87.76 211.05V211.07C88.81 214.93 89.88 218.92 90.89 222.8H92.83C93.42 220.49 94.02 218.18 94.61 215.92L94.8893 214.843Z"/>
<path d="M148.36 204.55C138.67 202.6 137.19 200.44 137.19 197.47C137.19 194.28 139.7 192.57 144.83 192.57C150.41 192.57 152.92 194.74 154.18 200.32L167.98 197.47C166.05 188 160.46 181.85 145.18 181.85C129.9 181.85 122.49 188.01 122.49 198.39C122.49 207.62 127.5 212.53 142.33 215.72C152.25 217.66 154.42 219.48 154.42 222.79C154.31 226.33 151.68 228.03 146.44 228.03C139.71 228.03 136.06 224.95 134.69 219.02L120.78 221.87C122.26 231.68 127.84 238.98 146.09 238.98C162.39 238.98 169.35 232.59 169.35 222.1C169.35 213.66 165.25 208.08 148.37 204.54L148.36 204.55Z"/>
<path d="M195.8 217.88C195.8 222.22 197.39 224.38 202.07 224.38C204.46 224.38 207.09 223.7 209.14 223.01L210.85 236.92C206.75 238.17 204.01 238.97 198.08 238.97C185.54 238.97 180.29 230.65 180.29 220.38V195.64H173.68V183.32H180.29V169.41H195.8V183.32H210.05V195.64H195.8V217.88Z"/>
<path fill-rule="evenodd" clip-rule="evenodd" d="M243.69 181.85C226.13 181.85 215.98 192.8 215.98 211.5C215.98 230.2 227.16 238.87 243.46 238.87C258.85 238.87 265.13 231.8 267.52 222.45L254.52 218.91C253.15 223.01 250.98 226.44 243.57 226.44C236.16 226.44 232.17 222.56 231.26 213.9H267.86C268.09 211.05 268.2 208.88 268.2 206.61C268.2 191.67 260.34 181.87 243.69 181.87V181.85ZM231.38 206.02C232.18 197.13 236.28 193.48 243.24 193.48C250.2 193.48 253.73 197.58 253.95 206.02H231.38Z"/>
<path d="M345.4 181.85V181.8C356 181.8 361.36 188.98 361.36 200.73V237.34H345.74V205.07C345.74 199.6 343.24 195.84 337.53 195.84C330.92 195.84 326.82 200.52 326.82 207.25V237.36H311.31V205.09C311.31 199.62 308.69 195.86 303.1 195.86C296.49 195.86 292.27 200.54 292.27 207.27V237.38H276.76V183.33H291.92V197.81H293.06C296.14 187.33 302.64 181.85 311.19 181.85C320.77 181.85 325.45 187.9 326.13 198.05H327.38C330.36 187.44 336.51 181.85 345.4 181.85Z"/>
</svg>
