<svg width="1045" height="440" viewBox="0 0 1045 440" fill="currentColor" xmlns="http://www.w3.org/2000/svg">
<path fill-rule="evenodd" clip-rule="evenodd" d="M5.13715 0H406.468C409.302 0 411.606 2.30251 411.606 5.13571V205.745C411.606 233.486 406.16 260.44 395.406 285.845C385.038 310.351 370.209 332.349 351.33 351.223C332.451 370.096 310.447 384.921 285.934 395.287C260.513 406.029 233.561 411.481 205.803 411.481C178.045 411.481 151.084 406.038 125.672 395.287C101.159 384.921 79.1549 370.096 60.2759 351.223C41.3969 332.349 26.5676 310.351 16.1991 285.845C5.45394 260.44 0 233.486 0 205.745V5.13571C0 2.30251 2.30316 0 5.13715 0ZM205.794 34.88C200.469 29.6159 193.114 26.3633 184.955 26.4489H184.972C159.115 26.7142 146.349 57.9565 164.603 76.2567L203.174 114.911C203.268 115.006 203.362 115.091 203.457 115.176C204.15 115.793 204.989 116.058 205.811 116.058C206.633 116.067 207.464 115.785 208.166 115.177C208.26 115.091 208.354 115.006 208.44 114.911L247.011 76.2567C265.265 57.965 252.491 26.7228 226.642 26.4489C218.474 26.3547 211.12 29.6074 205.794 34.88ZM205.803 344.76C282.603 344.76 344.857 282.524 344.857 205.745H344.865V119.345C344.865 116.512 342.562 114.21 339.728 114.21H287.946C247.345 114.21 213.628 143.654 206.993 182.343C206.89 182.96 206.342 183.396 205.717 183.345C205.161 183.302 204.715 182.891 204.621 182.343C197.977 143.654 164.26 114.21 123.668 114.21H71.8858C69.0519 114.21 66.7487 116.512 66.7487 119.345V205.745C66.7487 282.524 129.002 344.76 205.803 344.76Z" />
<path d="M487.224 23.7838C492.428 38.0912 500.049 56.6723 505.253 67.4493L527.928 111.486H563.428V0H538.708V34.375C538.708 47.5676 539.637 67.0777 540.938 83.2432L537.965 83.6149C533.504 70.2365 526.069 51.098 519.007 37.348L499.491 0H461.575V111.486H486.481V77.8547C486.481 64.2906 485.365 40.6926 484.25 24.1554L487.224 23.7838Z" />
<path d="M657.1 87.5169H609.333V0H582.569V111.486H657.1V87.5169Z" />
<path fill-rule="evenodd" clip-rule="evenodd" d="M461.771 148.649V260.135H508.971C544.657 260.135 565.845 238.395 565.845 203.091C565.845 167.787 548.56 148.649 509.343 148.649H461.771ZM488.526 238.209H506.927C530.16 238.209 539.081 226.689 539.081 203.091C539.081 179.493 529.602 170.76 505.997 170.76H488.526V238.209Z" />
<path fill-rule="evenodd" clip-rule="evenodd" d="M574.949 217.956C574.949 187.483 591.491 169.645 620.113 169.645C647.249 169.645 660.074 185.625 660.074 209.966C660.074 213.682 659.888 217.213 659.516 221.858H599.854C601.341 235.979 607.846 242.297 619.928 242.297C632.009 242.297 635.54 236.723 637.77 230.034L658.959 235.794C655.056 251.03 644.833 262.55 619.742 262.55C593.163 262.55 574.949 247.871 574.949 217.956ZM600.04 209.037H636.841C636.469 195.287 630.708 188.598 619.37 188.598C608.032 188.598 601.341 194.544 600.04 209.037Z" />
<path d="M691.487 230.219L668.811 234.865C671.228 250.844 680.335 262.736 710.073 262.736C736.651 262.736 747.989 252.331 747.989 235.236C747.989 221.486 741.298 212.381 713.79 206.621C697.992 203.463 695.576 199.932 695.576 195.101C695.576 189.898 699.665 187.111 708.028 187.111C717.136 187.111 721.225 190.642 723.269 199.746L745.759 195.101C742.599 179.679 733.492 169.645 708.586 169.645C683.68 169.645 671.599 179.679 671.599 196.588C671.599 211.638 679.777 219.628 703.94 224.831C720.11 227.99 723.641 230.963 723.641 236.351C723.455 242.111 719.18 244.898 710.631 244.898C699.665 244.898 693.717 239.881 691.487 230.219Z" />
<path d="M761.369 159.612V141.402H787.761V159.612H761.369Z" />
<path d="M761.926 260.135V172.061H787.204V260.135H761.926Z" />
<path fill-rule="evenodd" clip-rule="evenodd" d="M798.162 275C798.162 285.963 807.641 292.838 841.282 292.838C876.968 292.838 889.049 283.547 889.049 265.152C889.049 250.845 880.128 242.297 860.612 242.297C856.126 242.297 851.415 242.433 846.633 242.57C841.708 242.711 836.708 242.855 831.803 242.855C826.227 242.855 823.997 241.554 823.997 238.395C823.997 236.909 824.741 235.236 825.67 233.564L827.157 231.149C831.432 232.078 836.45 232.635 841.84 232.635C866.56 232.635 880.499 223.159 880.499 208.48C880.499 198.26 871.206 194.172 860.24 192.128L860.426 190.084C867.489 190.828 873.065 191.014 877.34 191.014H887.005V172.061H842.398C817.306 172.061 802.437 183.024 802.437 202.72C802.437 216.47 809.686 225.76 822.882 230.034L816.377 233.378C809.128 236.537 805.225 240.997 805.225 246.014C805.225 252.145 809.314 256.791 818.793 258.091V259.206C806.898 261.622 798.162 267.01 798.162 275ZM859.497 258.649C866.56 258.649 869.534 261.622 869.534 265.895C869.534 272.027 864.144 275.186 842.955 275.186C821.767 275.186 817.12 272.584 817.12 266.639C817.12 262.365 821.767 258.649 829.573 258.649H859.497ZM841.84 216.098C829.201 216.098 824.926 210.709 824.926 203.649C824.926 196.588 829.759 191.199 841.84 191.199C853.921 191.199 859.125 196.588 859.125 203.649C859.125 210.709 854.479 216.098 841.84 216.098Z" />
<path d="M924.737 260.135H899.459V172.061H924.179V195.659H925.852C931.056 178.564 941.836 169.645 955.59 169.645C972.503 169.645 981.053 181.351 981.053 200.49V260.135H955.776V207.55C955.776 198.631 951.687 192.5 942.393 192.5C931.613 192.5 924.737 200.118 924.737 211.081V260.135Z" />
<path d="M481.833 370.507L456.369 375.895C458.786 395.22 470.867 411.199 506.552 411.385C539.264 411.385 553.204 398.378 553.204 377.01C553.204 360.845 545.77 347.838 511.199 341.706C489.267 337.804 486.108 333.159 486.108 326.655C486.108 319.595 491.683 315.507 503.579 315.507C516.961 315.507 521.421 321.267 524.024 332.601L550.602 327.399C547.442 308.26 535.361 294.696 504.88 294.696C474.398 294.696 459.715 307.145 459.715 328.142C459.715 346.537 469.194 358.615 500.047 363.446C521.236 366.976 526.254 371.064 526.254 378.868C526.254 385.929 520.12 390.017 507.668 390.017C493.914 390.017 484.435 383.885 481.833 370.507Z" />
<path d="M559.523 438.699L563.241 417.331C566.958 418.074 570.861 418.632 574.578 418.632C583.5 418.632 588.146 416.959 592.235 407.669L559.152 320.709H586.845L595.581 353.041C596.654 357.104 597.823 361.42 599.021 365.846L599.022 365.849L599.026 365.862L599.027 365.866L599.031 365.881C600.734 372.171 602.496 378.681 604.131 385H607.29C608.245 381.245 609.222 377.491 610.183 373.796C612.028 366.702 613.816 359.829 615.282 353.598L623.46 320.709H650.596L615.84 409.155C607.29 430.709 596.138 440 574.021 440C567.887 440 564.17 439.443 559.523 438.699Z" />
<path d="M675.504 378.868L652.829 383.513C655.245 399.493 664.352 411.385 694.09 411.385C720.669 411.385 732.007 400.98 732.007 383.885C732.007 370.135 725.315 361.03 697.808 355.27C682.009 352.111 679.593 348.581 679.593 343.75C679.593 338.547 683.682 335.76 692.046 335.76C701.153 335.76 705.242 339.29 707.287 348.395L729.776 343.75C726.617 328.327 717.509 318.294 692.604 318.294C667.698 318.294 655.617 328.327 655.617 345.236C655.617 360.287 663.795 368.277 687.957 373.479C704.127 376.638 707.659 379.611 707.659 385C707.473 390.76 703.198 393.547 694.648 393.547C683.682 393.547 677.734 388.53 675.504 378.868Z" />
<path d="M749.846 340.777H739.066V320.71H749.846V298.041H775.124V320.71H798.357V340.777H775.124V377.01C775.124 384.071 777.726 387.602 785.346 387.602C789.249 387.602 793.524 386.487 796.87 385.372L799.658 408.041C792.967 410.085 788.506 411.385 778.841 411.385C758.396 411.385 749.846 397.821 749.846 381.098V340.777Z" />
<path fill-rule="evenodd" clip-rule="evenodd" d="M853.186 318.294C824.563 318.294 808.021 336.132 808.021 366.604C808.021 396.52 826.236 411.199 852.815 411.199C877.906 411.199 888.128 399.679 892.031 384.442L870.843 378.682C868.613 385.371 865.081 390.946 853 390.946C840.919 390.946 834.414 384.628 832.927 370.507H892.589C892.961 365.861 893.147 362.331 893.147 358.615C893.147 334.273 880.322 318.294 853.186 318.294ZM869.914 357.686H833.113C834.414 343.192 841.105 337.246 852.443 337.246C863.78 337.246 869.542 343.936 869.914 357.686Z" />
<path d="M932.367 408.784H907.09V320.709H931.809V344.307H933.668C938.686 327.213 949.281 318.294 963.22 318.294C978.833 318.294 986.453 328.142 987.568 344.679H989.613C994.445 327.398 1004.48 318.294 1018.98 318.294C1036.26 318.294 1045 330 1045 349.138V408.784H1019.54V356.199C1019.54 347.28 1015.45 341.148 1006.15 341.148C995.375 341.148 988.684 348.767 988.684 359.73V408.784H963.406V356.199C963.406 347.28 959.131 341.148 950.024 341.148C939.244 341.148 932.367 348.767 932.367 359.73V408.784Z" />
</svg>
