<svg width="152" height="87" viewBox="0 0 152 87" fill="none" xmlns="http://www.w3.org/2000/svg">
<g clip-path="url(#clip0_1610_6974)">
<path d="M138.571 86.1043H13.4081C6.00766 86.1043 0 80.0966 0 72.6962V13.4096C0 6.00912 6.00766 0.00146484 13.4081 0.00146484H138.571C145.972 0.00146484 151.979 6.00912 151.979 14.1787V73.4654C152 80.0966 145.992 86.1043 138.571 86.1043Z" fill="#20B24B"/>
<path d="M152.001 73.4446V47.2313L0.3125 38.251V75.5442C1.62213 81.5934 6.98537 86.1044 13.4296 86.1044H138.593C145.993 86.1044 152.001 80.0967 152.001 73.4446Z" fill="#1CA345"/>
<path d="M128.282 60.4521C128.282 61.8241 125.475 69.4324 122.025 69.4324C118.574 69.4324 115.768 61.8241 115.768 60.4521C115.768 60.0987 118.865 59.4751 121.983 59.4751C125.122 59.4751 128.282 60.0572 128.282 60.4521Z" fill="#AFB1B4"/>
<path d="M138.779 69.474C138.779 69.474 138.259 66.9379 134.164 65.5659C130.068 64.194 126.93 62.8012 126.93 59.8909C126.93 56.9806 126.93 52.2202 126.93 52.2202H121.982H117.035C117.035 52.2202 117.035 56.9806 117.035 59.8909C117.035 62.8012 113.916 64.194 109.8 65.5659C105.705 66.9379 105.186 69.474 105.186 69.474L107.701 80.5747H136.305L138.779 69.474Z" fill="#BFA573"/>
<path d="M139.859 30.1022C139.859 44.321 134.808 55.9414 121.836 55.9414C108.864 55.9414 104.062 44.1963 104.062 29.9567C104.062 15.7379 116.14 12.8691 122.044 12.8691C127.948 12.8691 139.859 15.8834 139.859 30.1022Z" fill="#D0B37D"/>
<path d="M115.434 47.3975C117.388 48.5824 119.508 48.7695 121.628 48.7279C123.769 48.7279 125.827 48.4576 127.865 47.3975C127.116 48.2913 124.996 49.8296 121.628 49.8296C118.261 49.8296 116.12 48.3329 115.434 47.3975Z" fill="#494032"/>
<path d="M117.596 39.1863C117.596 41.1403 115.996 42.7202 114.021 42.7202C112.046 42.7202 110.445 41.1403 110.445 39.1863C110.445 37.2322 112.046 35.6523 114.021 35.6523C115.996 35.6523 117.596 37.2322 117.596 39.1863Z" fill="#896B4E"/>
<path d="M116.682 39.1861C116.682 40.5581 115.58 41.6599 114.208 41.6599C112.836 41.6599 111.734 40.5581 111.734 39.1861C111.734 37.8349 112.836 36.7124 114.208 36.7124C115.559 36.7332 116.682 37.8349 116.682 39.1861Z" fill="#2A1D01"/>
<path d="M113.167 37.9182C113.167 38.3131 112.856 38.6249 112.461 38.6249C112.066 38.6249 111.754 38.3131 111.754 37.9182C111.754 37.5232 112.066 37.2114 112.461 37.2114C112.835 37.1906 113.167 37.5232 113.167 37.9182Z" fill="white"/>
<path d="M126.348 39.1863C126.348 41.1403 127.948 42.7202 129.923 42.7202C131.898 42.7202 133.499 41.1403 133.499 39.1863C133.499 37.2322 131.898 35.6523 129.923 35.6523C127.948 35.6523 126.348 37.2322 126.348 39.1863Z" fill="#896B4E"/>
<path d="M127.262 39.1861C127.262 40.5581 128.363 41.6599 129.735 41.6599C131.107 41.6599 132.209 40.5581 132.209 39.1861C132.209 37.8349 131.107 36.7124 129.735 36.7124C128.363 36.7332 127.262 37.8349 127.262 39.1861Z" fill="#2A1D01"/>
<path d="M127.408 37.9182C127.408 38.3131 127.72 38.6249 128.115 38.6249C128.51 38.6249 128.822 38.3131 128.822 37.9182C128.822 37.5232 128.51 37.2114 128.115 37.2114C127.72 37.1906 127.408 37.5232 127.408 37.9182Z" fill="white"/>
<path d="M139.922 67.1666C139.922 67.1666 139.694 66.6677 138.342 66.0441C136.471 65.1918 136.451 65.2334 129.695 62.8428L121.941 68.6426L114.187 62.8428C107.431 65.2334 107.41 65.1918 105.539 66.0441C104.188 66.6677 103.959 67.1666 103.959 67.1666L96.7461 86.125H105.581L107.41 82.217L107.701 86.125H136.16L136.451 82.217L138.28 86.125H138.592C141.44 86.125 144.059 85.2312 146.242 83.776L139.922 67.1666Z" fill="#00B4AC"/>
<path d="M115.767 60.4316C115.954 62.6559 122.024 68.6012 122.024 68.6012L118.719 73.4656C118.719 73.4656 112.898 66.5848 112.898 63.2588L115.767 60.4316Z" fill="#F4F4F4"/>
<path d="M128.281 60.4316C128.093 62.6559 122.023 68.6012 122.023 68.6012L125.329 73.4656C125.329 73.4656 131.149 66.5848 131.149 63.2588L128.281 60.4316Z" fill="#F4F4F4"/>
<path d="M140.401 24.5933C140.276 24.0113 140.131 23.45 139.964 22.9095C139.819 22.3898 139.632 21.2257 139.632 21.2257C139.632 21.2257 139.341 21.1633 139.278 21.0386C139.133 20.7268 139.008 19.7498 139.008 19.7498C139.008 19.7498 138.094 18.9598 137.636 18.4194C137.324 18.0452 136.347 16.8603 136.347 16.8603L135.911 16.9019L134.726 16.0703C134.726 16.0703 134.165 15.1349 133.79 14.8231C133.645 14.6984 133.312 14.9686 133.167 14.8439C132.938 14.6568 132.46 14.3034 132.46 14.3034L131.92 13.6174L130.34 13.2016C130.34 13.2016 129.986 12.9106 129.778 12.8898C129.404 12.8275 128.594 12.9938 128.594 12.9938L128.157 12.5988L126.723 12.7859L125.704 12.2662L125.288 12.578L124.332 12.4533C124.332 12.4533 123.937 12.2246 123.771 12.2038C123.48 12.183 122.939 12.3078 122.939 12.3078C122.939 12.3078 122.233 12.0791 121.962 12.0791C121.484 12.0791 120.154 12.4117 120.154 12.4117L119.509 12.3078L118.428 12.6612C118.428 12.6612 117.867 12.5572 117.597 12.5988C117.285 12.6612 116.703 12.9522 116.703 12.9522L115.705 12.973L115.269 13.1601L114.375 13.0353L113.668 13.3679C113.668 13.3679 113.252 13.3264 113.065 13.4095C112.982 13.4511 112.836 13.3264 112.836 13.3264L111.839 14.0955L111.007 14.6984H110.571C110.571 14.6984 110.3 15.2388 110.092 15.4259C109.822 15.6546 109.178 15.8625 108.908 16.0496C108.72 16.1743 108.887 16.3406 108.658 16.4861C108.554 16.5485 108.097 16.6316 107.993 16.694C107.847 16.7979 108.055 16.9226 107.91 17.0266C107.307 17.4839 106.746 17.9412 106.371 18.3986C106.122 18.6896 105.893 18.9806 105.685 19.2924C105.27 19.9161 104.916 20.5605 104.625 21.2257C104.521 21.4752 104.417 21.7246 104.313 21.9949C104.022 22.8264 103.773 23.6787 103.586 24.5725C103.295 25.8822 103.524 27.2542 103.482 28.6677C103.191 37.1491 105.602 41.9719 105.602 41.9719C107.348 40.683 105.124 30.0813 110.446 26.5889C112.13 25.4664 121.027 25.3625 122.045 25.3625C123.064 25.3625 131.899 25.4872 133.583 26.5889C138.883 30.1021 136.68 40.683 138.426 41.9719C138.426 41.9719 140.838 37.1491 140.547 28.6677C140.463 27.2749 140.692 25.903 140.401 24.5933Z" fill="#272524"/>
<path d="M138.404 36.1719C138.404 36.1719 138.072 35.6314 137.968 34.5089C137.698 31.6194 137.074 26.2562 135.951 25.3415C134.392 24.0527 131.337 24.7802 130.567 24.7595C129.798 24.7387 127.096 24.0319 126.493 23.2212C126.493 23.2212 124.019 24.0735 121.961 24.0735C119.882 24.0735 118.698 23.2627 118.698 23.2627C118.698 23.2627 116.681 24.3021 116.037 24.3021C115.392 24.3021 114.415 23.8032 114.415 23.8032C114.415 23.8032 114.311 24.3645 113.646 24.6763C112.44 25.2168 109.426 24.51 108.844 25.2791C108.262 26.0483 106.454 28.1479 106.35 31.8897C106.246 35.6314 105.477 31.4947 105.477 31.1205C105.477 30.7463 105.955 25.2584 106.183 25.0713C106.412 24.8842 107.264 24.4269 107.264 24.4269C107.264 24.4269 106.163 22.3065 107.971 20.6851C108.491 20.2277 110.965 20.6851 110.965 20.6851C110.965 20.6851 110.715 17.7124 111.713 17.2343C112.711 16.7562 114 17.7956 115.413 17.1096C117.658 16.0078 118.552 19.0428 119.321 18.5023C120.09 17.9619 120.361 15.301 122.231 16.2781C125.911 18.2321 124.435 16.2365 126.992 16.5899C129.549 16.9225 128.655 18.1282 130.526 19.1883C132.459 20.2901 133.935 19.4586 134.517 20.0614C135.099 20.6643 135.224 23.0549 137.594 24.0111C139.963 24.9465 138.571 33.5319 138.675 34.1347C138.799 34.7168 138.903 36.1719 138.404 36.1719Z" fill="#393735"/>
<path d="M118.221 22.7014C118.221 22.7014 116.433 23.824 115.747 23.8032C115.061 23.7824 114.105 22.5143 114.021 21.08C114.021 21.08 114.936 22.9509 115.456 23.0756C115.976 23.2003 115.913 21.9531 116.37 22.1817C116.828 22.4104 117.202 22.5767 117.431 22.452C118.054 22.0986 117.16 17.6084 115.747 15.3218C115.768 15.3218 119.26 20.8929 118.221 22.7014Z" fill="#4F4C49"/>
<path d="M126.68 19.5629C126.68 19.5629 126.597 22.5355 125.557 22.6603C124.497 22.785 125.557 13.9502 125.557 13.9502C125.557 13.9502 124.684 19.6876 124.643 20.4152C124.601 21.1428 124.186 21.5169 123.915 21.5377C123.666 21.5585 123.957 22.6603 123.666 22.8266C123.354 22.9721 122.481 23.18 122.252 21.9327C122.252 21.9327 122.211 23.18 123.125 23.367C124.04 23.5541 126.181 23.076 126.535 22.681C126.888 22.2445 126.909 20.3736 126.68 19.5629Z" fill="#4F4C49"/>
<path d="M109.988 23.9488C110.425 23.928 110.861 23.928 111.298 23.928C111.734 23.928 112.15 23.928 112.587 23.928C112.795 23.928 113.003 23.9072 113.19 23.8657C113.356 23.8449 113.46 23.7201 113.522 23.5538C113.564 23.3875 113.585 23.1797 113.543 22.9718C113.522 22.7639 113.481 22.556 113.418 22.3481C113.564 22.5144 113.647 22.7223 113.73 22.9302C113.792 23.1381 113.855 23.3667 113.813 23.637C113.792 23.7617 113.751 23.8864 113.647 23.9904C113.605 24.032 113.543 24.0943 113.481 24.1359C113.418 24.1775 113.356 24.1983 113.294 24.219C113.044 24.2814 112.836 24.3022 112.608 24.323C112.171 24.3438 111.734 24.3022 111.298 24.2398C110.841 24.1567 110.404 24.0735 109.988 23.9488Z" fill="#4F4C49"/>
<path d="M127.886 17.5669C127.803 18.5647 127.74 19.5625 127.74 20.5395C127.74 21.0384 127.74 21.5166 127.803 22.0155C127.823 22.2649 127.865 22.4936 127.927 22.7223C127.99 22.9509 128.073 23.1796 128.198 23.3251C128.26 23.3875 128.343 23.4706 128.447 23.533C128.53 23.5953 128.634 23.6577 128.738 23.6993C128.946 23.7824 129.154 23.8032 129.362 23.7616C129.466 23.7409 129.59 23.7201 129.694 23.6785C129.819 23.6369 129.944 23.5953 130.089 23.5953C130.131 23.5953 130.172 23.5953 130.214 23.5953C130.256 23.5953 130.297 23.6161 130.339 23.6369C130.38 23.6577 130.422 23.6785 130.443 23.6993C130.463 23.7201 130.505 23.7616 130.526 23.7824C130.588 23.8448 130.63 23.9279 130.65 23.9903C130.671 24.0527 130.65 24.0319 130.692 24.0527C130.754 24.0942 130.9 24.0942 131.004 24.115C131.129 24.115 131.253 24.1358 131.357 24.1358C131.586 24.1358 131.835 24.115 132.064 24.0527C132.521 23.9279 132.979 23.6993 133.374 23.3875C133.02 23.7409 132.605 24.0319 132.126 24.219C131.877 24.3021 131.627 24.3645 131.357 24.3853C131.233 24.3853 131.108 24.3853 130.983 24.3853C130.858 24.3853 130.734 24.3853 130.567 24.3229C130.526 24.3021 130.484 24.2813 130.443 24.2398C130.422 24.219 130.401 24.1982 130.401 24.1774L130.38 24.115C130.359 24.0527 130.339 24.0319 130.318 24.0111C130.297 23.9903 130.297 23.9903 130.276 23.9695C130.256 23.9487 130.235 23.9487 130.214 23.9487C130.193 23.9487 130.193 23.9279 130.172 23.9279C130.152 23.9279 130.131 23.9279 130.11 23.9279C129.923 23.9487 129.673 24.0735 129.403 24.1358C129.133 24.1982 128.821 24.1566 128.572 24.0527C128.447 24.0111 128.322 23.9279 128.218 23.8448C128.114 23.7616 128.01 23.6785 127.906 23.5746C127.719 23.3459 127.636 23.0756 127.574 22.8262C127.512 22.5767 127.47 22.3065 127.449 22.057C127.408 21.5581 127.408 21.0384 127.449 20.5395C127.512 19.5417 127.657 18.5439 127.886 17.5669Z" fill="#4F4C49"/>
<path d="M125.309 73.6733L122.025 68.8298L118.74 73.6941L118.636 73.5694C118.408 73.2991 112.878 66.7094 112.795 63.3626C112.899 63.3002 113.003 63.1963 113.003 63.1963C113.024 63.2171 113.044 63.2587 113.044 63.2794C113.044 66.2521 117.929 72.3013 118.719 73.2576L121.942 68.4972L122.025 68.5803L122.129 68.4972L125.351 73.2576C126.141 72.3013 131.026 66.2521 131.026 63.2794C131.026 63.2379 131.067 63.1963 131.067 63.1963C131.067 63.1963 131.151 63.3002 131.275 63.4042C131.151 66.751 125.663 73.2991 125.434 73.5694L125.309 73.6733Z" fill="#DBDCDD"/>
<path d="M47.5417 69.4532C47.5417 69.4532 47.022 66.9171 42.9268 65.5659C38.8316 64.1939 35.7134 62.8219 35.7134 59.9116C35.7134 57.0013 35.7134 52.2617 35.7134 52.2617H30.7659H25.8185C25.8185 52.2617 25.8185 57.0221 25.8185 59.9116C25.8185 62.8219 22.7003 64.2147 18.6051 65.5659C14.5099 66.9379 13.9902 69.4532 13.9902 69.4532L16.4848 80.5331H45.0055L47.5417 69.4532Z" fill="url(#paint0_linear_1610_6974)"/>
<path d="M24.9049 63.591C25.41 63.591 25.8196 63.1815 25.8196 62.6764C25.8196 62.1712 25.41 61.7617 24.9049 61.7617C24.3997 61.7617 23.9902 62.1712 23.9902 62.6764C23.9902 63.1815 24.3997 63.591 24.9049 63.591Z" fill="#F4E6ED"/>
<path d="M24.7384 62.4686C24.8647 62.4686 24.9671 62.3662 24.9671 62.2399C24.9671 62.1136 24.8647 62.0112 24.7384 62.0112C24.6121 62.0112 24.5098 62.1136 24.5098 62.2399C24.5098 62.3662 24.6121 62.4686 24.7384 62.4686Z" fill="white"/>
<path d="M26.401 64.6511C26.9061 64.6511 27.3156 64.2416 27.3156 63.7364C27.3156 63.2313 26.9061 62.8218 26.401 62.8218C25.8958 62.8218 25.4863 63.2313 25.4863 63.7364C25.4863 64.2416 25.8958 64.6511 26.401 64.6511Z" fill="#F4E6ED"/>
<path d="M26.256 63.5076C26.3823 63.5076 26.4847 63.4052 26.4847 63.279C26.4847 63.1527 26.3823 63.0503 26.256 63.0503C26.1297 63.0503 26.0273 63.1527 26.0273 63.279C26.0273 63.4052 26.1297 63.5076 26.256 63.5076Z" fill="white"/>
<path d="M28.1256 65.3371C28.6308 65.3371 29.0403 64.9276 29.0403 64.4225C29.0403 63.9173 28.6308 63.5078 28.1256 63.5078C27.6204 63.5078 27.2109 63.9173 27.2109 64.4225C27.2109 64.9276 27.6204 65.3371 28.1256 65.3371Z" fill="#F4E6ED"/>
<path d="M27.9591 64.2562C28.0854 64.2562 28.1878 64.1538 28.1878 64.0275C28.1878 63.9012 28.0854 63.7988 27.9591 63.7988C27.8328 63.7988 27.7305 63.9012 27.7305 64.0275C27.7305 64.1538 27.8328 64.2562 27.9591 64.2562Z" fill="white"/>
<path d="M31.8053 65.5866C32.3104 65.5866 32.7199 65.1771 32.7199 64.672C32.7199 64.1668 32.3104 63.7573 31.8053 63.7573C31.3001 63.7573 30.8906 64.1668 30.8906 64.672C30.8906 65.1771 31.3001 65.5866 31.8053 65.5866Z" fill="#F4E6ED"/>
<path d="M31.6603 64.5057C31.7866 64.5057 31.889 64.4033 31.889 64.277C31.889 64.1507 31.7866 64.0483 31.6603 64.0483C31.534 64.0483 31.4316 64.1507 31.4316 64.277C31.4316 64.4033 31.534 64.5057 31.6603 64.5057Z" fill="white"/>
<path d="M29.9557 65.6072C30.4608 65.6072 30.8703 65.1977 30.8703 64.6925C30.8703 64.1873 30.4608 63.7778 29.9557 63.7778C29.4505 63.7778 29.041 64.1873 29.041 64.6925C29.041 65.1977 29.4505 65.6072 29.9557 65.6072Z" fill="#F4E6ED"/>
<path d="M29.8732 64.4432C29.9995 64.4432 30.1019 64.3408 30.1019 64.2145C30.1019 64.0882 29.9995 63.9858 29.8732 63.9858C29.7469 63.9858 29.6445 64.0882 29.6445 64.2145C29.6445 64.3408 29.7469 64.4432 29.8732 64.4432Z" fill="white"/>
<path d="M48.1655 69.8066C48.1655 69.8066 47.9161 67.2705 45.2345 65.9609C42.5736 64.6512 39.3723 64.1523 39.3723 64.1523C39.3723 64.1523 38.7071 70.9707 30.6207 70.9707C22.555 70.9499 21.8691 64.1523 21.8691 64.1523C21.8691 64.1523 18.6885 64.6512 16.0069 65.9609C13.3461 67.2497 13.0966 69.8066 13.0966 69.8066C10.2903 73.6731 7.37999 78.5998 4.90625 83.0692C7.17211 84.9401 10.0616 86.0626 13.2006 86.1042L16.2564 81.9674L17.0671 86.125H44.1535L44.9642 81.9674L48.02 86.125H57.9981C55.2542 80.9488 51.6163 74.567 48.1655 69.8066Z" fill="#CC92B0"/>
<path d="M33.6354 65.3371C34.1405 65.3371 34.55 64.9276 34.55 64.4225C34.55 63.9173 34.1405 63.5078 33.6354 63.5078C33.1302 63.5078 32.7207 63.9173 32.7207 64.4225C32.7207 64.9276 33.1302 65.3371 33.6354 65.3371Z" fill="#F4E6ED"/>
<path d="M33.4904 64.2562C33.6167 64.2562 33.719 64.1538 33.719 64.0275C33.719 63.9012 33.6167 63.7988 33.4904 63.7988C33.3641 63.7988 33.2617 63.9012 33.2617 64.0275C33.2617 64.1538 33.3641 64.2562 33.4904 64.2562Z" fill="white"/>
<path d="M35.36 64.6511C35.8651 64.6511 36.2746 64.2416 36.2746 63.7364C36.2746 63.2313 35.8651 62.8218 35.36 62.8218C34.8548 62.8218 34.4453 63.2313 34.4453 63.7364C34.4453 64.2416 34.8548 64.6511 35.36 64.6511Z" fill="#F4E6ED"/>
<path d="M35.1935 63.5701C35.3198 63.5701 35.4222 63.4677 35.4222 63.3415C35.4222 63.2152 35.3198 63.1128 35.1935 63.1128C35.0672 63.1128 34.9648 63.2152 34.9648 63.3415C34.9648 63.4677 35.0672 63.5701 35.1935 63.5701Z" fill="white"/>
<path d="M36.8561 63.591C37.3612 63.591 37.7707 63.1815 37.7707 62.6764C37.7707 62.1712 37.3612 61.7617 36.8561 61.7617C36.3509 61.7617 35.9414 62.1712 35.9414 62.6764C35.9414 63.1815 36.3509 63.591 36.8561 63.591Z" fill="#F4E6ED"/>
<path d="M36.6896 62.5101C36.8159 62.5101 36.9183 62.4077 36.9183 62.2814C36.9183 62.1551 36.8159 62.0527 36.6896 62.0527C36.5633 62.0527 36.4609 62.1551 36.4609 62.2814C36.4609 62.4077 36.5633 62.5101 36.6896 62.5101Z" fill="white"/>
<path d="M20.3517 71.802C20.1023 71.802 19.832 71.8436 19.5826 71.906C19.7281 71.7813 19.8944 71.615 20.0191 71.4902C20.4141 71.0329 20.331 70.8042 20.1439 70.6379C19.9568 70.4716 19.7281 70.4301 19.3331 70.9082C19.2292 71.0329 19.1045 71.1992 19.0005 71.3655C18.9798 71.1576 18.959 70.9497 18.9174 70.7627C18.7719 70.1598 18.564 70.0974 18.3145 70.1598C18.0651 70.2222 17.8988 70.3885 18.0443 70.9705C18.0859 71.1784 18.169 71.3863 18.2522 71.5942C18.0651 71.4694 17.878 71.3655 17.7117 71.2823C17.1504 71.0329 16.9633 71.1576 16.8594 71.3863C16.7555 71.615 16.7762 71.8436 17.3375 72.0931C17.5246 72.1762 17.7325 72.2386 17.9404 72.3009C17.7325 72.3633 17.5246 72.4465 17.3583 72.5296C16.8178 72.7999 16.797 73.0285 16.901 73.2572C17.0049 73.4859 17.2128 73.6106 17.7533 73.3403C17.9196 73.2572 18.1067 73.1532 18.273 73.0285C18.2106 73.2156 18.1482 73.4235 18.1067 73.6106C18.0027 74.2134 18.169 74.3589 18.4185 74.4213C18.6679 74.4629 18.8758 74.3797 18.9798 73.7769C19.0213 73.569 19.0421 73.3196 19.0421 73.0909C19.1668 73.278 19.3124 73.4858 19.4579 73.6522C19.8736 74.1095 20.1023 74.0679 20.2894 73.9016C20.4765 73.7353 20.5388 73.5066 20.1231 73.0493C20.0191 72.9246 19.8736 72.7999 19.7281 72.6751C19.9568 72.7167 20.1854 72.7375 20.3933 72.7167C20.9962 72.6959 21.1209 72.5088 21.1209 72.2594C21.1001 71.9891 20.9754 71.802 20.3517 71.802ZM18.9382 72.5504C18.7303 72.592 18.5224 72.4673 18.4808 72.2594C18.4393 72.0515 18.564 71.8436 18.7719 71.802C18.9798 71.7605 19.1876 71.8852 19.2292 72.0931C19.2916 72.3009 19.1668 72.5088 18.9382 72.5504Z" fill="#DDB6CC"/>
<path d="M21.951 77.8306C21.6808 77.8306 21.3689 77.8722 21.0987 77.9345C21.265 77.789 21.4313 77.6227 21.5768 77.4564C22.0134 76.9367 21.9302 76.6873 21.7223 76.5002C21.5145 76.3131 21.2442 76.2715 20.8077 76.7912C20.683 76.9367 20.5582 77.1238 20.4335 77.3109C20.4127 77.0822 20.3919 76.8328 20.3296 76.6249C20.184 75.9597 19.9346 75.8766 19.6644 75.9389C19.3941 76.0013 19.207 76.1884 19.3733 76.8536C19.4149 77.0823 19.4981 77.3109 19.602 77.5396C19.3941 77.4149 19.1862 77.2901 18.9784 77.1862C18.3547 76.8952 18.1468 77.0615 18.0221 77.3109C17.9182 77.5604 17.939 77.8306 18.5626 78.1008C18.7705 78.184 18.9991 78.2671 19.2278 78.3295C18.9991 78.3919 18.7705 78.4958 18.5626 78.579C17.9598 78.8908 17.9182 79.1402 18.0429 79.3897C18.1676 79.6391 18.3755 79.7847 18.9991 79.4728C19.1862 79.3897 19.3941 79.265 19.5812 79.1194C19.498 79.3273 19.4357 79.5768 19.3941 79.7639C19.2694 80.4291 19.4773 80.6162 19.7475 80.6577C20.0177 80.6993 20.2672 80.6162 20.3919 79.9302C20.4335 79.7015 20.4543 79.4313 20.4543 79.161C20.5998 79.3897 20.7453 79.5976 20.9116 79.7847C21.3689 80.2836 21.6184 80.242 21.8263 80.0549C22.0342 79.8678 22.0965 79.6184 21.6392 79.1194C21.5145 78.9739 21.3689 78.8492 21.2026 78.7037C21.4521 78.7453 21.7223 78.7661 21.951 78.7661C22.637 78.7453 22.7617 78.5374 22.7617 78.2464C22.7617 78.0385 22.637 77.8306 21.951 77.8306ZM20.3711 78.6621C20.1425 78.7245 19.9138 78.579 19.8514 78.3295C19.7891 78.1008 19.9346 77.8722 20.184 77.8098C20.4335 77.7475 20.6414 77.893 20.7037 78.1424C20.7453 78.3711 20.5998 78.6205 20.3711 78.6621Z" fill="#DDB6CC"/>
<path d="M22.3264 83.464C22.2017 83.5887 22.077 83.755 21.9522 83.9005C21.973 83.755 21.973 83.5887 21.973 83.464C21.9522 83.0067 21.8067 82.9235 21.6196 82.9443C21.4326 82.9443 21.287 83.0482 21.3078 83.5056C21.3078 83.6303 21.3286 83.7758 21.3702 83.9213C21.2663 83.8174 21.1415 83.7134 21.0168 83.6303C20.6426 83.3808 20.4763 83.4432 20.3932 83.6095C20.2892 83.755 20.2892 83.9421 20.6634 84.1916C20.7881 84.2747 20.9336 84.3579 21.0792 84.4202C20.9129 84.441 20.7673 84.4826 20.6218 84.5242C20.1853 84.6697 20.1645 84.836 20.2061 85.0023C20.2684 85.1686 20.3932 85.2933 20.8297 85.1478C20.9752 85.1062 21.1207 85.0439 21.2455 84.9607C21.1623 85.1062 21.0999 85.2517 21.0376 85.3765C20.8713 85.7922 20.9752 85.9377 21.1623 86.0001C21.3286 86.0625 21.4949 86.0417 21.6612 85.6051C21.7028 85.4804 21.7444 85.3349 21.7859 85.1894C21.8483 85.3349 21.9107 85.4596 21.9938 85.5843C22.2433 85.9585 22.4096 85.9585 22.5551 85.8546C22.7006 85.7506 22.7838 85.6051 22.5343 85.2309C22.4512 85.1062 22.3472 84.9607 22.2225 84.836C22.3888 84.8776 22.5551 84.9191 22.7214 84.9191C23.1787 84.9607 23.2827 84.8152 23.2827 84.6281C23.3035 84.441 23.2203 84.2955 22.763 84.2539C22.6382 84.2539 22.5135 84.2331 22.368 84.2539C22.5135 84.1708 22.6382 84.046 22.7422 83.9421C23.0748 83.6303 23.0332 83.464 22.9085 83.3393C22.8253 83.1937 22.659 83.1522 22.3264 83.464ZM21.9315 84.5865C21.8483 84.7113 21.6612 84.7528 21.5365 84.6697C21.4118 84.5865 21.3702 84.3994 21.4533 84.2747C21.5365 84.15 21.7236 84.1084 21.8483 84.1916C21.9938 84.2747 22.0354 84.4618 21.9315 84.5865Z" fill="#DDB6CC"/>
<path d="M26.9193 74.463C26.7322 74.463 26.5243 74.4838 26.3164 74.5461C26.4411 74.4422 26.5659 74.3175 26.649 74.2135C26.9608 73.8394 26.8985 73.6731 26.753 73.5483C26.6074 73.4236 26.4204 73.4028 26.1085 73.7562C26.0254 73.8601 25.9214 73.9849 25.8591 74.1096C25.8383 73.9433 25.8175 73.777 25.7967 73.6315C25.6928 73.1742 25.5057 73.1118 25.3186 73.1534C25.1315 73.1949 25.0068 73.3197 25.1107 73.7978C25.1523 73.9433 25.2147 74.1304 25.277 74.2759C25.1315 74.172 24.986 74.0888 24.8405 74.0265C24.4039 73.8186 24.2584 73.9225 24.1753 74.1096C24.0921 74.2759 24.1129 74.463 24.5495 74.6709C24.695 74.7332 24.8613 74.7956 25.0068 74.8372C24.8405 74.8787 24.6742 74.9411 24.5495 75.0243C24.1129 75.2321 24.1129 75.4192 24.1961 75.5855C24.2792 75.7518 24.4455 75.8558 24.8613 75.6479C24.986 75.5855 25.1315 75.5024 25.2562 75.3984C25.1939 75.544 25.1523 75.7103 25.1315 75.8558C25.0484 76.3339 25.1939 76.4378 25.381 76.4794C25.5681 76.521 25.7344 76.4586 25.8175 75.9805C25.8383 75.8142 25.8591 75.6271 25.8591 75.44C25.963 75.5855 26.067 75.7518 26.1709 75.8766C26.4827 76.23 26.6698 76.1884 26.8153 76.0636C26.9608 75.9389 27.0024 75.7518 26.6906 75.3984C26.6074 75.2945 26.5035 75.2113 26.3788 75.1074C26.5451 75.1282 26.7322 75.149 26.8985 75.149C27.3766 75.149 27.4597 74.9827 27.4597 74.7956C27.5013 74.6085 27.3974 74.463 26.9193 74.463ZM25.8175 75.045C25.6512 75.0866 25.4849 74.9827 25.4433 74.8164C25.4018 74.6501 25.5057 74.4838 25.672 74.4422C25.8383 74.4006 26.0046 74.5046 26.0462 74.6709C26.0877 74.858 25.9838 75.0035 25.8175 75.045Z" fill="#DDB6CC"/>
<path d="M28.9149 80.3665C28.6239 80.3665 28.2913 80.408 28.0003 80.4912C28.1874 80.3249 28.3745 80.1586 28.4992 79.9923C28.9773 79.431 28.8734 79.1608 28.6655 78.9737C28.4368 78.7866 28.1666 78.745 27.6885 79.2855C27.5637 79.4518 27.4182 79.6389 27.2935 79.826C27.2727 79.5765 27.2311 79.3271 27.1896 79.0984C27.0233 78.3916 26.753 78.3085 26.462 78.3708C26.171 78.4332 25.9839 78.6411 26.1502 79.3479C26.2125 79.5765 26.2957 79.8468 26.3996 80.0962C26.1917 79.9507 25.9631 79.826 25.7344 79.7221C25.0692 79.4102 24.8405 79.5765 24.7158 79.8468C24.5911 80.117 24.6327 80.3873 25.2979 80.6991C25.5058 80.803 25.7552 80.8862 26.0047 80.9485C25.7552 81.0317 25.5058 81.1148 25.2979 81.2188C24.6327 81.5514 24.6119 81.8216 24.7574 82.0919C24.8821 82.3621 25.1316 82.5076 25.776 82.175C25.9839 82.0711 26.1917 81.9463 26.3788 81.8008C26.2957 82.0295 26.2333 82.2789 26.1917 82.5076C26.067 83.2352 26.2749 83.4015 26.5659 83.4638C26.857 83.5262 27.1272 83.4223 27.2519 82.6947C27.2935 82.4452 27.3143 82.1542 27.3143 81.884C27.4598 82.1126 27.6261 82.3621 27.8132 82.5492C28.3121 83.0897 28.5823 83.0273 28.7902 82.8402C29.0189 82.6323 29.0812 82.3829 28.6031 81.8424C28.4784 81.6969 28.3121 81.5514 28.1458 81.4059C28.416 81.4474 28.6863 81.4682 28.9357 81.4682C29.6633 81.4474 29.8088 81.2188 29.8088 80.9277C29.788 80.5743 29.6425 80.3457 28.9149 80.3665ZM27.2311 81.2396C26.9817 81.3019 26.7322 81.1356 26.6699 80.8862C26.6075 80.6367 26.7738 80.3873 27.0233 80.3249C27.2727 80.2625 27.5222 80.4288 27.5845 80.6783C27.6469 80.9277 27.4806 81.198 27.2311 81.2396Z" fill="#DDB6CC"/>
<path d="M28.8521 85.896C28.7066 85.7712 28.5195 85.7505 28.2285 86.1038H28.9769C28.9561 86.0207 28.9145 85.9583 28.8521 85.896Z" fill="#DDB6CC"/>
<path d="M27.876 86.0001C27.7721 85.5428 27.585 85.4804 27.3979 85.522C27.2108 85.5636 27.0861 85.6883 27.19 86.1041H27.8968C27.8968 86.0625 27.8968 86.0209 27.876 86.0001Z" fill="#DDB6CC"/>
<path d="M18.6874 85.8132C18.4587 85.6261 18.1885 85.5845 17.752 86.1042H18.8745C18.8537 86.0002 18.7706 85.8963 18.6874 85.8132Z" fill="#DDB6CC"/>
<path d="M17.2532 86.1041C17.2532 86.0625 17.2324 86.0002 17.2324 85.9586C17.1493 85.626 17.0661 85.4389 16.9414 85.335L17.0869 86.1041H17.2532Z" fill="#DDB6CC"/>
<path d="M8.39786 78.2673C8.58495 78.4752 8.85519 78.5584 9.39567 78.0803C9.58276 77.914 9.76985 77.7061 9.93615 77.4774C9.91536 77.7477 9.89457 78.0387 9.91536 78.2881C9.97773 79.0157 10.2064 79.1404 10.4974 79.1196C10.7884 79.0989 11.0171 78.9325 10.9547 78.2258C10.934 78.0387 10.9132 77.81 10.8508 77.6021C11.0379 77.7892 11.225 77.9763 11.4329 78.1218C12.0149 78.5584 12.2644 78.4544 12.4307 78.2258C12.597 77.9971 12.6386 77.7269 12.0565 77.2903C11.8278 77.124 11.5576 76.9577 11.2666 76.8122C11.516 76.8122 11.7447 76.7706 11.9733 76.7291C12.6801 76.5835 12.7633 76.3341 12.7217 76.0431C12.6593 75.752 12.4723 75.5649 11.7655 75.6897C11.5576 75.7312 11.3497 75.7936 11.1211 75.8768C11.2666 75.6689 11.3913 75.461 11.4744 75.2531C11.7863 74.6087 11.62 74.38 11.3705 74.2553C11.1003 74.1306 10.83 74.1722 10.5182 74.8166C10.4143 75.0245 10.3311 75.2947 10.248 75.5441C10.1648 75.2947 10.0609 75.066 9.95694 74.8582C9.89457 74.7542 9.853 74.6711 9.79064 74.5879C9.58276 74.9205 9.37488 75.2531 9.167 75.6065C9.25015 75.7312 9.33331 75.856 9.41646 75.9807C9.29173 75.9391 9.14622 75.8768 9.02149 75.856C8.8344 76.1678 8.64731 76.4796 8.43943 76.7914C8.46022 76.7914 8.46022 76.7914 8.48101 76.7914C8.68889 76.833 8.93834 76.8746 9.18779 76.8746C8.97991 76.9993 8.77204 77.1448 8.60573 77.3111C8.16919 77.7684 8.21077 78.0387 8.39786 78.2673ZM10.0193 76.3341C10.1232 76.1054 10.3935 76.0015 10.6221 76.1054C10.8508 76.2094 10.9547 76.4796 10.8508 76.7083C10.7469 76.9369 10.4766 77.0409 10.248 76.9369C10.0193 76.833 9.91536 76.5628 10.0193 76.3341Z" fill="#DDB6CC"/>
<path d="M6.98446 82.7991C6.96368 82.612 6.94289 82.4041 6.90131 82.217C7.06762 82.4041 7.25471 82.5704 7.4418 82.7159C7.98228 83.1317 8.23173 83.0277 8.39803 82.8199C8.56433 82.5912 8.58512 82.3417 8.04464 81.926C7.83676 81.7597 7.56652 81.6142 7.29628 81.4894C7.52495 81.4894 7.75361 81.4479 7.96149 81.4063C8.6267 81.2608 8.70985 81.0321 8.66827 80.7619C8.60591 80.4916 8.43961 80.3045 7.7744 80.4293C7.58731 80.4708 7.37943 80.5332 7.17155 80.5956C7.29628 80.4085 7.42101 80.2006 7.50416 79.9927C7.79519 79.3691 7.64967 79.1612 7.40022 79.0365C7.33786 79.0157 7.27549 78.9949 7.21313 78.9741C6.4232 80.3253 5.67484 81.6765 4.94727 82.9862C5.09278 82.9654 5.25908 82.8614 5.48775 82.6536C5.67484 82.4873 5.84114 82.3002 6.00744 82.0923C5.98665 82.3417 5.96587 82.6328 5.98665 82.8614C6.02823 83.5474 6.27768 83.6722 6.54792 83.6514C6.81816 83.6514 7.02604 83.4851 6.98446 82.7991ZM6.29847 81.5934C6.09059 81.4894 5.98665 81.24 6.09059 81.0113C6.19453 80.8034 6.44398 80.6995 6.67265 80.8034C6.88053 80.9074 6.98446 81.1568 6.88053 81.3855C6.7558 81.6142 6.50635 81.6973 6.29847 81.5934Z" fill="#DDB6CC"/>
<path d="M14.0319 82.3416C13.8864 82.2377 13.6993 82.1129 13.5122 82.0298C13.6785 82.0298 13.8448 82.009 13.9695 81.9674C14.4476 81.8635 14.51 81.6972 14.4684 81.5101C14.4269 81.323 14.3021 81.1775 13.8448 81.2814C13.7201 81.3022 13.5538 81.3438 13.429 81.4061C13.5122 81.2814 13.6161 81.1151 13.6785 80.9904C13.8864 80.5538 13.7824 80.4083 13.5953 80.3252C13.429 80.242 13.242 80.2628 13.0341 80.6994C12.9717 80.8449 12.9093 81.0112 12.8678 81.1775C12.8262 81.0112 12.743 80.8657 12.6807 80.7201C12.452 80.3044 12.2857 80.2836 12.0986 80.3668C11.9323 80.4499 11.8284 80.6162 12.0571 81.032C12.1194 81.1567 12.2234 81.323 12.3273 81.4477C12.161 81.3854 11.9947 81.3438 11.8492 81.3022C11.3711 81.1983 11.2463 81.3438 11.2255 81.5309C11.184 81.718 11.2463 81.8843 11.7244 81.9882C11.87 82.009 12.0363 82.0298 12.1818 82.0506C12.0363 82.1337 11.9115 82.2377 11.8076 82.3416C11.4542 82.6534 11.475 82.8405 11.6205 82.986C11.7452 83.1315 11.9323 83.1939 12.2857 82.8613C12.4104 82.7573 12.5352 82.6118 12.6599 82.4663C12.6391 82.6534 12.6391 82.8405 12.6391 83.0068C12.6807 83.4849 12.847 83.5681 13.0341 83.5473C13.2212 83.5265 13.3667 83.4226 13.3459 82.9444C13.3459 82.8197 13.3043 82.6742 13.2835 82.5287C13.4083 82.6534 13.533 82.7781 13.6577 82.8821C14.0319 83.1731 14.219 83.1107 14.3229 82.9444C14.4061 82.8197 14.4269 82.6326 14.0319 82.3416ZM12.8054 82.1129C12.6599 82.0506 12.5975 81.8635 12.6599 81.718C12.7223 81.5724 12.9093 81.5101 13.0549 81.5724C13.2004 81.6348 13.2627 81.8219 13.2004 81.9674C13.138 82.1129 12.9509 82.1961 12.8054 82.1129Z" fill="#DDB6CC"/>
<path d="M11.2891 85.148C11.0189 85.0233 10.7486 85.0441 10.4368 85.7093C10.4368 85.7301 10.416 85.7509 10.416 85.7716C10.7694 85.8548 11.1228 85.9172 11.497 85.9795C11.6841 85.4598 11.5386 85.252 11.2891 85.148Z" fill="#DDB6CC"/>
<path d="M9.00168 85.2311C8.9601 85.2519 8.89774 85.2935 8.87695 85.3351C9.18877 85.439 9.50059 85.543 9.8124 85.6261C9.50059 85.1064 9.25113 85.1064 9.00168 85.2311Z" fill="#DDB6CC"/>
<path d="M43.717 71.802C43.4675 71.802 43.1973 71.8436 42.9478 71.906C43.0933 71.7813 43.2596 71.615 43.3844 71.4902C43.7793 71.0329 43.6962 70.8042 43.5091 70.6379C43.322 70.4716 43.0933 70.4301 42.6984 70.9082C42.5944 71.0329 42.4697 71.1992 42.3658 71.3655C42.345 71.1576 42.3242 70.9497 42.2826 70.7627C42.1371 70.1598 41.9292 70.0974 41.6798 70.1598C41.4303 70.2222 41.264 70.3885 41.4095 70.9705C41.4511 71.1784 41.5343 71.3863 41.6174 71.5942C41.4303 71.4694 41.2432 71.3655 41.0769 71.2823C40.5157 71.0329 40.3286 71.1576 40.2246 71.3863C40.1207 71.615 40.1415 71.8436 40.7028 72.0931C40.8898 72.1762 41.0977 72.2386 41.3056 72.3009C41.0977 72.3633 40.8898 72.4465 40.7235 72.5296C40.1831 72.7999 40.1623 73.0285 40.2662 73.2572C40.3701 73.4859 40.578 73.6106 41.1185 73.3403C41.2848 73.2572 41.4719 73.1532 41.6382 73.0285C41.5758 73.2156 41.5135 73.4235 41.4719 73.6106C41.368 74.2134 41.5343 74.3589 41.7837 74.4213C42.0332 74.4629 42.241 74.3797 42.345 73.7769C42.3866 73.569 42.4073 73.3196 42.4073 73.0909C42.5321 73.278 42.6776 73.4858 42.8231 73.6522C43.2389 74.1095 43.4675 74.0679 43.6546 73.9016C43.8417 73.7353 43.9041 73.5066 43.4883 73.0493C43.3844 72.9246 43.2389 72.7999 43.0933 72.6751C43.322 72.7167 43.5507 72.7375 43.7586 72.7167C44.3614 72.6959 44.4861 72.5088 44.4861 72.2594C44.4445 71.9891 44.3198 71.802 43.717 71.802ZM42.3034 72.5504C42.0955 72.592 41.8877 72.4673 41.8461 72.2594C41.8045 72.0515 41.9292 71.8436 42.1371 71.802C42.345 71.7605 42.5529 71.8852 42.5944 72.0931C42.636 72.3009 42.5113 72.5088 42.3034 72.5504Z" fill="#DDB6CC"/>
<path d="M46.2935 83.339C46.2104 83.2558 46.1065 83.2142 45.9609 83.2766L46.3143 83.7547C46.4391 83.5676 46.3975 83.4429 46.2935 83.339Z" fill="#DDB6CC"/>
<path d="M44.382 83.6301C44.0079 83.3806 43.8415 83.443 43.7584 83.6093C43.6545 83.7548 43.6545 83.9419 44.0286 84.1913C44.1534 84.2745 44.2989 84.3576 44.4444 84.42C44.2781 84.4408 44.1326 84.4824 43.9871 84.5239C43.5505 84.6695 43.5297 84.8358 43.5713 85.0021C43.6337 85.1684 43.7584 85.2931 44.1949 85.1476C44.2573 85.1268 44.3197 85.106 44.382 85.0644L44.6315 83.8172C44.5483 83.7548 44.4652 83.6924 44.382 83.6301Z" fill="#DDB6CC"/>
<path d="M44.674 83.5055C44.674 83.5263 44.674 83.547 44.674 83.5678L44.7779 83.0273C44.7156 83.0897 44.6532 83.2352 44.674 83.5055Z" fill="#DDB6CC"/>
<path d="M43.6545 65.2748C43.2803 65.1293 42.9061 65.0046 42.5319 64.9006C42.3656 65.0669 42.1993 65.2748 42.0746 65.4827C42.0954 65.2332 42.1162 64.9838 42.0954 64.7759C41.7212 64.672 41.347 64.568 41.0352 64.4849C41.0352 64.5888 41.0144 64.6927 41.0352 64.8175C41.0352 65.0253 41.0768 65.254 41.1184 65.4827C40.9313 65.3164 40.7442 65.1501 40.5363 65.0253C39.9335 64.6096 39.6632 64.7343 39.5177 64.9838C39.3514 65.2332 39.3306 65.5035 39.9542 65.9192C40.1621 66.0647 40.4116 66.1895 40.6402 66.2934C40.3908 66.335 40.1205 66.3973 39.9127 66.4597C39.2267 66.6884 39.1643 66.9586 39.2475 67.2496C39.3514 67.5407 39.5593 67.707 40.2453 67.4783C40.4739 67.3951 40.7026 67.2912 40.9313 67.1665C40.8065 67.3951 40.6818 67.6238 40.5987 67.8525C40.3492 68.5385 40.5155 68.7671 40.7858 68.8711C41.056 68.975 41.347 68.9334 41.5965 68.2474C41.6796 68.0396 41.742 67.7901 41.7836 67.5614C41.8875 67.7901 41.9914 68.0188 42.1162 68.2059C42.5111 68.8295 42.8022 68.8087 43.0516 68.6632C43.3011 68.4969 43.4258 68.2474 43.0308 67.6446C42.8853 67.4367 42.719 67.2081 42.5111 67.0002C42.7814 67.0625 43.0724 67.1249 43.3219 67.1457C44.0494 67.2081 44.2157 66.9794 44.2365 66.6884C44.2573 66.3973 44.1326 66.1479 43.405 66.0855C43.1971 66.0647 42.9893 66.0647 42.7606 66.0855C42.9893 65.94 43.1971 65.7529 43.3842 65.5866C43.5297 65.4411 43.6129 65.3579 43.6545 65.2748ZM42.0538 66.5844C41.9083 66.7923 41.6173 66.8547 41.4094 66.7091C41.2015 66.5636 41.1391 66.2726 41.2847 66.0647C41.4302 65.8568 41.7212 65.7945 41.9291 65.94C42.137 66.0855 42.1993 66.3765 42.0538 66.5844Z" fill="#DDB6CC"/>
<path d="M50.2845 74.463C50.0974 74.463 49.8895 74.4838 49.6816 74.5461C49.8064 74.4422 49.9311 74.3175 50.0143 74.2135C50.3261 73.8394 50.2637 73.6731 50.1182 73.5483C49.9727 73.4236 49.7856 73.4028 49.4738 73.7562C49.3906 73.8601 49.2867 73.9849 49.2243 74.1096C49.2035 73.9433 49.1827 73.777 49.162 73.6315C49.058 73.1742 48.8709 73.1118 48.6838 73.1534C48.4967 73.1949 48.372 73.3197 48.476 73.7978C48.5175 73.9433 48.5799 74.1304 48.6423 74.2759C48.4967 74.172 48.3512 74.0888 48.2057 74.0265C47.7692 73.8186 47.6237 73.9225 47.5405 74.1096C47.4574 74.2759 47.4781 74.463 47.9147 74.6709C48.0602 74.7332 48.2265 74.7956 48.372 74.8372C48.2057 74.8787 48.0394 74.9411 47.9147 75.0243C47.4781 75.2321 47.4781 75.4192 47.5613 75.5855C47.6444 75.7518 47.8108 75.8558 48.2265 75.6479C48.3512 75.5855 48.4967 75.5024 48.6215 75.3984C48.5591 75.544 48.5175 75.7103 48.4967 75.8558C48.4136 76.3339 48.5591 76.4378 48.7462 76.4794C48.9333 76.521 49.0996 76.4586 49.1827 75.9805C49.2035 75.8142 49.2243 75.6271 49.2243 75.44C49.3283 75.5855 49.4322 75.7518 49.5361 75.8766C49.848 76.23 50.035 76.1884 50.1806 76.0636C50.3261 75.9389 50.3676 75.7518 50.0558 75.3984C49.9727 75.2945 49.8687 75.2113 49.744 75.1074C49.9103 75.1282 50.0974 75.149 50.2637 75.149C50.7418 75.149 50.825 74.9827 50.825 74.7956C50.8458 74.6085 50.7626 74.463 50.2845 74.463ZM49.162 75.045C48.9957 75.0866 48.8293 74.9827 48.7878 74.8164C48.7462 74.6501 48.8501 74.4838 49.0164 74.4422C49.1827 74.4006 49.349 74.5046 49.3906 74.6709C49.4322 74.858 49.3283 75.0035 49.162 75.045Z" fill="#DDB6CC"/>
<path d="M52.2802 80.3665C51.9891 80.3665 51.6565 80.408 51.3655 80.4912C51.5526 80.3249 51.7397 80.1586 51.8644 79.9923C52.3425 79.431 52.2386 79.1608 52.0307 78.9737C51.8021 78.7866 51.5318 78.745 51.0537 79.2855C50.929 79.4518 50.7835 79.6389 50.6587 79.826C50.6379 79.5765 50.5964 79.3271 50.5548 79.0984C50.3885 78.3916 50.1183 78.3085 49.8272 78.3708C49.5362 78.4332 49.3491 78.6411 49.5154 79.3479C49.5778 79.5765 49.6609 79.8468 49.7649 80.0962C49.557 79.9507 49.3283 79.826 49.0997 79.7221C48.4344 79.4102 48.2058 79.5765 48.0811 79.8468C47.9563 80.117 47.9979 80.3873 48.6631 80.6991C48.871 80.803 49.1204 80.8862 49.3699 80.9485C49.1204 81.0317 48.871 81.1148 48.6631 81.2188C47.9979 81.5514 47.9771 81.8216 48.1226 82.0919C48.2474 82.3621 48.4968 82.5076 49.1412 82.175C49.3491 82.0711 49.557 81.9463 49.7441 81.8008C49.6609 82.0295 49.5986 82.2789 49.557 82.5076C49.4323 83.2352 49.6401 83.4015 49.9312 83.4638C50.2222 83.5262 50.4924 83.4223 50.6172 82.6947C50.6587 82.4452 50.6795 82.1542 50.6795 81.884C50.825 82.1126 50.9913 82.3621 51.1784 82.5492C51.6773 83.0897 51.9476 83.0273 52.1554 82.8402C52.3841 82.6323 52.4465 82.3829 51.9684 81.8424C51.8436 81.6969 51.6773 81.5514 51.511 81.4059C51.7813 81.4474 52.0515 81.4682 52.301 81.4682C53.0285 81.4474 53.1741 81.2188 53.1741 80.9277C53.1533 80.5743 53.0077 80.3457 52.2802 80.3665ZM50.5756 81.2396C50.3261 81.3019 50.0767 81.1356 50.0143 80.8862C49.952 80.6367 50.1183 80.3873 50.3677 80.3249C50.6172 80.2625 50.8666 80.4288 50.929 80.6783C50.9913 80.9277 50.825 81.198 50.5756 81.2396Z" fill="#DDB6CC"/>
<path d="M52.9462 85.709C52.8007 85.5842 52.6136 85.5634 52.3018 85.9168C52.2602 85.9792 52.1978 86.0416 52.1562 86.1039H53.0085C53.1125 85.9168 53.0501 85.8129 52.9462 85.709Z" fill="#DDB6CC"/>
<path d="M51.9913 85.8131C51.8873 85.3558 51.7002 85.2934 51.5131 85.335C51.326 85.3766 51.2013 85.5013 51.3053 85.9794C51.326 86.021 51.326 86.0834 51.3468 86.1249H52.0328C52.0328 86.0002 52.012 85.8963 51.9913 85.8131Z" fill="#DDB6CC"/>
<path d="M55.6279 84.3165C55.5655 84.5036 55.5031 84.7115 55.4616 84.8986C55.3576 85.5014 55.5239 85.6469 55.7734 85.7093C56.0228 85.7509 56.2307 85.6677 56.3347 85.0649C56.3762 84.857 56.397 84.6076 56.397 84.3789C56.5217 84.566 56.6673 84.7739 56.8128 84.9402C57.1454 85.3143 57.3533 85.3559 57.5196 85.252C57.2285 84.6907 56.9167 84.1294 56.6049 83.5682C56.5841 83.7137 56.4594 83.8384 56.3139 83.8592C56.106 83.9008 55.8981 83.776 55.8565 83.5682C55.815 83.3603 55.9397 83.1524 56.1476 83.1108C56.2307 83.0901 56.2931 83.0901 56.3762 83.1316C56.0852 82.6119 55.7942 82.0922 55.5031 81.5518C55.3784 81.6557 55.3369 81.8636 55.4408 82.2585C55.4824 82.4664 55.5655 82.6743 55.6487 82.8822C55.4616 82.7575 55.2745 82.6535 55.1082 82.5704C54.5469 82.3209 54.3598 82.4456 54.2559 82.6743C54.1519 82.903 54.1727 83.1316 54.734 83.3811C54.9211 83.4642 55.129 83.5266 55.3369 83.589C55.129 83.6513 54.9211 83.7345 54.7548 83.8176C54.2143 84.0879 54.1935 84.3165 54.2975 84.5452C54.4014 84.7739 54.6093 84.8986 55.1498 84.6283C55.2745 84.5244 55.4616 84.4205 55.6279 84.3165Z" fill="#DDB6CC"/>
<path d="M41.7208 84.4826C41.4921 84.4826 41.2427 84.5241 41.014 84.5657C41.1595 84.441 41.305 84.3163 41.409 84.1707C41.7831 83.7342 41.7 83.5263 41.5337 83.3808C41.3674 83.2353 41.1387 83.1937 40.7853 83.6303C40.6814 83.755 40.5775 83.9005 40.4735 84.046C40.4527 83.8589 40.4319 83.651 40.3904 83.4847C40.2656 82.9443 40.0578 82.8611 39.8291 82.9235C39.6004 82.9651 39.4549 83.1314 39.5796 83.6718C39.6212 83.8589 39.6836 84.0668 39.7667 84.2539C39.6004 84.15 39.4341 84.046 39.2678 83.9629C38.7481 83.7342 38.5818 83.8589 38.4779 84.0668C38.374 84.2747 38.4155 84.4826 38.9144 84.732C39.0807 84.8152 39.2678 84.8775 39.4549 84.9191C39.2678 84.9815 39.0807 85.0438 38.9144 85.127C38.4155 85.3764 38.3947 85.5843 38.4987 85.7922C38.6026 86.0001 38.7897 86.104 39.2886 85.8545C39.4341 85.7714 39.6004 85.6675 39.7667 85.5635C39.7044 85.7298 39.6628 85.9169 39.6212 86.0832H40.4527C40.4735 85.9377 40.4943 85.7714 40.4735 85.6051C40.5775 85.7714 40.7022 85.9377 40.8269 86.0832H41.7416C41.7416 85.9585 41.6584 85.7922 41.4713 85.5635C41.3674 85.4596 41.2427 85.3349 41.1179 85.2309C41.3258 85.2725 41.5337 85.2725 41.7208 85.2725C42.282 85.2725 42.386 85.0854 42.386 84.8567C42.4068 84.6489 42.282 84.4618 41.7208 84.4826ZM40.4112 85.1686C40.2241 85.2101 40.0162 85.0854 39.9746 84.8983C39.933 84.7112 40.0578 84.5033 40.2449 84.4618C40.4319 84.4202 40.6398 84.5449 40.6814 84.732C40.723 84.9191 40.619 85.127 40.4112 85.1686Z" fill="#DDB6CC"/>
<path d="M39.1439 77.394C39.0192 77.3108 38.8737 77.2069 38.7074 77.1445C38.8321 77.1445 38.9776 77.1237 39.0816 77.103C39.4766 77.0198 39.5181 76.8743 39.4766 76.7288C39.435 76.5833 39.3518 76.4585 38.9569 76.5417C38.8529 76.5625 38.7282 76.6041 38.6035 76.6456C38.6866 76.5417 38.749 76.417 38.7906 76.313C38.9569 75.9596 38.8737 75.8349 38.7282 75.7725C38.5827 75.7102 38.4372 75.731 38.2709 76.0844C38.2085 76.2091 38.1669 76.3546 38.1253 76.4793C38.0838 76.3546 38.0214 76.2091 37.9798 76.1051C37.7927 75.7518 37.6472 75.7518 37.5017 75.8141C37.3562 75.8973 37.2731 76.022 37.4601 76.3754C37.5225 76.4793 37.5849 76.604 37.668 76.708C37.5433 76.6664 37.3978 76.6248 37.2731 76.5833C36.8781 76.5001 36.7949 76.604 36.7534 76.7703C36.7118 76.9159 36.7741 77.0614 37.1483 77.1445C37.2731 77.1653 37.3978 77.1861 37.5225 77.1861C37.4186 77.2485 37.2938 77.3316 37.2107 77.4148C36.9197 77.685 36.9404 77.8305 37.0444 77.9345C37.1483 78.0592 37.2938 78.1008 37.5849 77.8305C37.6888 77.7474 37.7927 77.6226 37.8759 77.4979C37.8551 77.6434 37.8551 77.8097 37.8551 77.9345C37.8759 78.3294 38.0214 78.3918 38.1669 78.3918C38.3332 78.371 38.458 78.2879 38.4164 77.8929C38.4164 77.789 38.3956 77.6642 38.3748 77.5603C38.4787 77.6642 38.5827 77.7682 38.6866 77.8513C38.9984 78.08 39.1439 78.0384 39.2271 77.9137C39.4558 77.7682 39.4558 77.6226 39.1439 77.394ZM38.1461 77.2069C38.0214 77.1445 37.959 76.999 38.0214 76.8743C38.0838 76.7496 38.2293 76.6872 38.354 76.7496C38.4787 76.8119 38.5411 76.9574 38.4787 77.0822C38.4164 77.2069 38.2709 77.2693 38.1461 77.2069Z" fill="#DDB6CC"/>
<path d="M37.3971 82.3416C37.2516 82.2377 37.0645 82.1129 36.8774 82.0298C37.0437 82.0298 37.21 82.009 37.3348 81.9674C37.8129 81.8635 37.8752 81.6972 37.8337 81.5101C37.7921 81.323 37.6674 81.1775 37.21 81.2814C37.0853 81.3022 36.919 81.3438 36.7943 81.4061C36.8774 81.2814 36.9814 81.1151 37.0437 80.9904C37.2516 80.5538 37.1477 80.4083 36.9606 80.3252C36.7943 80.242 36.6072 80.2628 36.3993 80.6994C36.3369 80.8449 36.2746 81.0112 36.233 81.1775C36.1914 81.0112 36.1083 80.8657 36.0459 80.7201C35.8173 80.3044 35.651 80.2836 35.4639 80.3668C35.2976 80.4499 35.1936 80.6162 35.4223 81.032C35.4846 81.1567 35.5886 81.323 35.6925 81.4477C35.5262 81.3854 35.3599 81.3438 35.2144 81.3022C34.7363 81.1983 34.6116 81.3438 34.5908 81.5309C34.5492 81.718 34.6116 81.8843 35.0897 81.9882C35.2352 82.009 35.4015 82.0298 35.547 82.0506C35.4015 82.1337 35.2768 82.2377 35.1728 82.3416C34.8194 82.6534 34.8402 82.8405 34.9857 82.986C35.1105 83.1315 35.2976 83.1939 35.651 82.8613C35.7757 82.7573 35.9004 82.6118 36.0251 82.4663C36.0043 82.6534 36.0043 82.8405 36.0043 83.0068C36.0459 83.4849 36.2122 83.5681 36.3993 83.5473C36.5864 83.5265 36.7319 83.4226 36.7111 82.9444C36.7111 82.8197 36.6696 82.6742 36.6488 82.5287C36.7735 82.6534 36.8982 82.7781 37.0229 82.8821C37.3971 83.1731 37.5842 83.1107 37.6882 82.9444C37.7505 82.8197 37.7713 82.6326 37.3971 82.3416ZM36.1706 82.1129C36.0251 82.0506 35.9628 81.8635 36.0251 81.718C36.0875 81.5724 36.2746 81.5101 36.4201 81.5724C36.5656 81.6348 36.628 81.8219 36.5656 81.9674C36.5032 82.1129 36.3162 82.1961 36.1706 82.1129Z" fill="#DDB6CC"/>
<path d="M33.9249 75.461C33.8626 75.17 33.6755 74.9829 32.9687 75.1076C32.7608 75.1492 32.5529 75.2116 32.3243 75.2947C32.4698 75.0868 32.5945 74.879 32.6777 74.6711C32.9895 74.0267 32.8232 73.798 32.5737 73.6733C32.3035 73.5486 32.0333 73.5901 31.7214 74.2345C31.6175 74.4424 31.5343 74.7127 31.4512 74.9621C31.368 74.7127 31.2641 74.484 31.1602 74.2761C31.0562 74.089 30.9731 73.9435 30.8691 73.8604V77.1656C30.9315 77.0825 31.0147 76.9993 31.077 76.9162C31.0562 77.1864 31.0354 77.4774 31.0562 77.7269C31.1186 78.4545 31.3473 78.5792 31.6383 78.5584C31.9293 78.5376 32.158 78.3713 32.0956 77.6645C32.0748 77.4774 32.054 77.2488 31.9917 77.0409C32.1788 77.228 32.3659 77.4151 32.5737 77.5606C33.1558 77.9971 33.4052 77.8932 33.5715 77.6645C33.7378 77.4359 33.7794 77.1656 33.1974 76.7291C32.9687 76.5628 32.6985 76.3965 32.4074 76.251C32.6569 76.251 32.8856 76.2094 33.1142 76.1678C33.9042 76.0015 33.9873 75.7521 33.9249 75.461ZM32.0333 76.147C31.9293 76.3757 31.6591 76.4796 31.4304 76.3757C31.2017 76.2717 31.0978 76.0015 31.2017 75.7728C31.3057 75.5442 31.5759 75.4402 31.8046 75.5442C32.0333 75.6481 32.1372 75.9184 32.0333 76.147Z" fill="#DDB6CC"/>
<path d="M13.8652 71.4901C13.7197 71.3446 13.5534 71.2199 13.3663 71.0951C13.6365 71.1159 13.9068 71.1159 14.1562 71.0951C14.281 71.0743 14.4057 71.0536 14.4888 71.0328C14.2186 70.5547 13.9276 70.2221 13.7613 70.0557C13.5534 70.0973 13.3247 70.1389 13.1376 70.2013C13.2624 70.0765 13.3663 69.9518 13.4702 69.8271C13.3455 69.7647 13.2 69.7231 13.0961 69.7231C13.0961 69.7647 13.0961 69.7855 13.0961 69.7855C12.9505 69.9726 12.8258 70.1597 12.6803 70.3676C12.7011 70.4091 12.7219 70.4299 12.7219 70.4715C12.805 70.721 12.6595 70.9704 12.4308 71.0536C12.3477 71.0743 12.2645 71.0743 12.1814 71.0743C11.9735 71.3654 11.7864 71.6564 11.5785 71.9682C11.5578 72.1137 11.5162 72.2592 11.5162 72.4048C11.4538 73.1323 11.6825 73.2986 11.9735 73.3194C12.2645 73.3402 12.514 73.2155 12.5971 72.4879C12.6179 72.2385 12.6179 71.9474 12.5971 71.6564C12.7634 71.8851 12.9505 72.093 13.1376 72.28C13.6781 72.7789 13.9483 72.6958 14.1562 72.4879C14.3433 72.28 14.4057 71.989 13.8652 71.4901Z" fill="#DDB6CC"/>
<path d="M15.7989 77.394C15.6742 77.3108 15.5287 77.2069 15.3624 77.1445C15.4871 77.1445 15.6326 77.1237 15.7366 77.103C15.7989 77.0822 15.8613 77.0614 15.9237 77.0614L15.8405 76.5209C15.7782 76.5209 15.7158 76.5209 15.6326 76.5417C15.5287 76.5625 15.404 76.6041 15.2792 76.6456C15.3624 76.5417 15.4248 76.417 15.4663 76.313C15.6326 75.9596 15.5495 75.8349 15.404 75.7725C15.2585 75.7102 15.1129 75.731 14.9466 76.0844C14.8843 76.2091 14.8427 76.3546 14.8011 76.4793C14.7596 76.3546 14.6972 76.2091 14.6556 76.1051C14.4685 75.7518 14.323 75.7518 14.1775 75.8141C14.032 75.8973 13.9488 76.022 14.1359 76.3754C14.1983 76.4793 14.2606 76.604 14.3438 76.708C14.2191 76.6664 14.0736 76.6248 13.9488 76.5833C13.5539 76.5001 13.4707 76.604 13.4291 76.7703C13.3876 76.9159 13.4499 77.0614 13.8241 77.1445C13.9488 77.1653 14.0736 77.1861 14.1983 77.1861C14.0943 77.2485 13.9696 77.3316 13.8865 77.4148C13.5954 77.685 13.6162 77.8305 13.7202 77.9345C13.8241 78.0592 13.9696 78.1008 14.2606 77.8305C14.3646 77.7474 14.4685 77.6226 14.5517 77.4979C14.5309 77.6434 14.5309 77.8097 14.5309 77.9345C14.5517 78.3294 14.6972 78.3918 14.8427 78.3918C15.009 78.371 15.1337 78.2879 15.0922 77.8929C15.0922 77.789 15.0714 77.6642 15.0506 77.5603C15.1545 77.6642 15.2585 77.7682 15.3624 77.8513C15.6742 78.08 15.8197 78.0384 15.9029 77.9137C15.986 77.7889 16.1108 77.6226 15.7989 77.394ZM15.1129 77.0822C15.0506 77.2069 14.9051 77.2693 14.7803 77.2069C14.6556 77.1445 14.5933 76.999 14.6556 76.8743C14.718 76.7496 14.8635 76.6872 14.9882 76.7496C15.1129 76.8119 15.1753 76.9574 15.1129 77.0822Z" fill="#DDB6CC"/>
<path d="M46.7928 70.9914C46.9591 70.7004 47.1878 70.347 47.4788 70.0767C47.3333 70.0144 47.2086 69.8896 47.1878 69.7233C47.1254 69.4531 47.2917 69.1828 47.562 69.1205C47.7906 69.0581 47.9985 69.1829 48.1024 69.3699C47.9777 68.8502 47.6451 67.9148 46.8136 67.0625C46.6057 67.1664 46.481 67.4367 46.6265 68.0395C46.6889 68.289 46.772 68.58 46.8968 68.8295C46.6681 68.6839 46.4186 68.5384 46.19 68.4345C45.4832 68.1019 45.2337 68.289 45.109 68.5592C44.9843 68.8502 45.0051 69.1413 45.7326 69.4739C45.9613 69.5778 46.2315 69.661 46.481 69.7441C46.2108 69.8273 45.9613 69.9312 45.7326 70.0351C45.0259 70.3885 45.0051 70.6796 45.1506 70.9706C45.2961 71.2616 45.5455 71.4071 46.2523 71.0745C46.4602 70.9706 46.6889 70.8251 46.9175 70.6796C46.8344 70.7835 46.8136 70.8874 46.7928 70.9914Z" fill="#DDB6CC"/>
<path d="M45.1309 77.914C45.0894 77.914 45.027 77.9348 44.9854 77.9348C45.0478 77.8932 45.0894 77.8516 45.1309 77.7892C45.1725 77.3319 45.2349 76.8538 45.2972 76.3965C45.1309 76.4172 44.9438 76.5212 44.6944 76.8122C44.5697 76.9577 44.4449 77.1448 44.3202 77.3319C44.2994 77.1032 44.2786 76.8538 44.2163 76.6459C44.0708 75.9807 43.8213 75.8976 43.5511 75.9599C43.2808 76.0223 43.0937 76.2094 43.26 76.8746C43.3016 77.1032 43.3848 77.3527 43.4887 77.5606C43.2808 77.4358 43.073 77.3111 42.8651 77.2072C42.2414 76.9162 42.0336 77.0825 41.9088 77.3319C41.8049 77.5814 41.8257 77.8516 42.4493 78.1218C42.6572 78.205 42.8859 78.2881 43.1145 78.3505C42.8859 78.4129 42.6572 78.5168 42.4493 78.6C41.8465 78.9118 41.8049 79.1612 41.9296 79.4107C42.0544 79.6601 42.2622 79.8056 42.8859 79.4938C43.073 79.4107 43.2808 79.286 43.4679 79.1404C43.3848 79.3483 43.3224 79.5978 43.2808 79.7849C43.1561 80.4501 43.364 80.6372 43.6342 80.6787C43.9045 80.7203 44.1539 80.6372 44.2786 79.9512C44.3202 79.7225 44.341 79.4523 44.341 79.182C44.4865 79.4107 44.632 79.6186 44.7983 79.8056C44.8607 79.868 44.9023 79.9304 44.9646 79.972C45.027 79.4107 45.0686 78.6831 45.1309 77.914ZM44.2786 78.6623C44.05 78.7247 43.8213 78.5792 43.7589 78.3297C43.6966 78.1011 43.8421 77.8724 44.0916 77.81C44.3202 77.7477 44.5489 77.8932 44.6112 78.1426C44.6528 78.3921 44.5073 78.6207 44.2786 78.6623Z" fill="#DDB6CC"/>
<path d="M37.5008 71.0955C38.2283 71.0124 38.3531 70.7629 38.3115 70.4719C38.2907 70.1809 38.1036 69.9522 37.376 70.0354C37.085 70.0561 36.7524 70.1393 36.4614 70.2224C36.6277 70.0561 36.794 69.8483 36.9187 69.682C37.3345 69.0791 37.2305 68.8297 36.9811 68.6634C36.9603 68.6634 36.9603 68.6426 36.9395 68.6426C36.6692 68.8712 36.3159 69.0791 35.9001 69.2662C35.8169 69.3909 35.7546 69.5157 35.6714 69.6612C35.6506 69.578 35.6299 69.4741 35.6299 69.3909C35.318 69.5157 35.0062 69.6196 34.6736 69.7235C34.7152 69.8275 34.7568 69.9106 34.8191 70.0146C34.6736 69.9314 34.5281 69.8691 34.4034 69.8067C33.9668 69.9314 33.5303 70.0146 33.0938 70.0977C33.0938 70.3056 33.2393 70.5135 33.7797 70.7006C34.0084 70.7837 34.2579 70.8461 34.5073 70.8877C34.2579 70.9916 34.0292 71.0955 33.8213 71.2203C33.1977 71.5944 33.1977 71.8855 33.3432 72.1349C33.4887 72.3844 33.7382 72.5091 34.3826 72.1349C34.5697 72.0102 34.7776 71.8647 34.9646 71.7192C34.9023 71.9686 34.8607 72.2181 34.8399 72.4259C34.7776 73.1535 35.0062 73.3198 35.2973 73.3406C35.5883 73.3614 35.8377 73.2367 35.9209 72.5091C35.9417 72.2596 35.9417 71.9686 35.9209 71.6776C36.0872 71.9062 36.2743 72.1141 36.4614 72.3012C37.0018 72.8001 37.2721 72.717 37.48 72.5091C37.6878 72.3012 37.7294 72.0102 37.2097 71.5113C37.0642 71.3658 36.8979 71.241 36.7108 71.1163C36.9811 71.1163 37.2513 71.1163 37.5008 71.0955ZM35.7754 71.054C35.5259 71.1371 35.2765 70.9916 35.1933 70.7629C35.1102 70.5135 35.2557 70.264 35.4843 70.1809C35.7338 70.0977 35.9832 70.2432 36.0664 70.4719C36.1495 70.7006 36.0248 70.9708 35.7754 71.054Z" fill="#DDB6CC"/>
<path d="M25.4031 70.2223C25.6941 70.2639 25.9852 70.2847 26.2554 70.2847C26.5464 70.2847 26.7543 70.2431 26.8998 70.1807C26.4009 69.9313 25.9228 69.5987 25.5071 69.2245C25.4239 69.2453 25.3407 69.2453 25.2576 69.2661C25.2992 69.2245 25.3615 69.1829 25.4031 69.1413C25.1329 68.8919 24.8626 68.6424 24.634 68.3722C24.5924 68.4346 24.5508 68.5177 24.5092 68.5801C24.5092 68.4346 24.4885 68.3098 24.4677 68.1643C24.1143 67.7486 23.8025 67.3536 23.5946 67.021C23.3036 67.1041 23.1165 67.3328 23.2828 68.0604C23.3451 68.3098 23.4283 68.6009 23.553 68.8503C23.3243 68.7048 23.0749 68.5593 22.8462 68.4553C22.1394 68.1227 21.89 68.3098 21.7653 68.5801C21.6405 68.8711 21.6613 69.1621 22.3889 69.4947C22.6176 69.5987 22.8878 69.6818 23.1372 69.765C22.867 69.8481 22.6176 69.9521 22.3889 70.056C21.6821 70.4094 21.6613 70.7004 21.8068 70.9915C21.9523 71.2825 22.2018 71.428 22.9086 71.0954C23.1165 70.9915 23.3451 70.8459 23.5738 70.7004C23.4906 70.9499 23.4075 71.2201 23.3659 71.4488C23.2204 72.2179 23.4491 72.4258 23.7609 72.4674C24.0727 72.5298 24.3429 72.4258 24.4885 71.6567C24.53 71.3864 24.5716 71.0746 24.5508 70.7836C24.7171 71.033 24.8834 71.2825 25.0705 71.4904C25.5902 72.0724 25.8812 72.0101 26.1307 71.8022C26.3593 71.5943 26.4425 71.3033 25.9228 70.7212C25.7565 70.5549 25.5694 70.3886 25.4031 70.2223ZM24.4053 70.0976C24.1351 70.1599 23.8648 69.9936 23.8025 69.7234C23.7401 69.4532 23.9064 69.1829 24.1766 69.1206C24.4469 69.0582 24.7171 69.2245 24.7795 69.4947C24.8418 69.765 24.6755 70.0352 24.4053 70.0976Z" fill="#DDB6CC"/>
<path d="M20.0807 66.0437C19.8728 66.0229 19.6649 66.0229 19.4362 66.0437C19.6649 65.8982 19.8728 65.7111 20.0599 65.5448C20.5796 65.0251 20.5172 64.7549 20.3093 64.547C20.2885 64.5262 20.247 64.4847 20.2262 64.4639C19.9559 64.5262 19.6857 64.5886 19.4154 64.6717C19.3739 64.6925 19.3531 64.7341 19.3115 64.7757C19.1036 64.9836 18.8958 65.233 18.7087 65.4825C18.7294 65.2746 18.7502 65.0667 18.7294 64.8796C18.3553 65.0043 18.0227 65.1083 17.6901 65.233C17.7108 65.3162 17.7108 65.3993 17.7316 65.5033C17.6693 65.4409 17.5861 65.3785 17.503 65.3162C17.0249 65.5033 16.6299 65.6696 16.3596 65.7943C16.422 65.8359 16.4844 65.8982 16.5675 65.9398C16.7754 66.0853 17.0249 66.21 17.2535 66.314C17.0041 66.3556 16.7338 66.4179 16.5259 66.4803C15.84 66.7089 15.7776 66.9792 15.8607 67.2702C15.9647 67.5612 16.1726 67.7275 16.8586 67.4989C17.0872 67.4157 17.3159 67.3118 17.5445 67.1871C17.4198 67.4157 17.2951 67.6444 17.2119 67.8731C16.9625 68.5591 17.1288 68.7877 17.399 68.8917C17.6693 68.9956 17.9603 68.954 18.2098 68.268C18.2929 68.0601 18.3553 67.8107 18.3968 67.582C18.5008 67.8107 18.6047 68.0394 18.7294 68.2265C19.1244 68.8501 19.4154 68.8293 19.6649 68.6838C19.9143 68.5175 20.0391 68.268 19.6441 67.6652C19.4986 67.4573 19.3323 67.2286 19.1244 67.0208C19.3947 67.0831 19.6857 67.1455 19.9351 67.1663C20.6627 67.2286 20.829 67 20.8498 66.7089C20.9537 66.3555 20.829 66.1061 20.0807 66.0437ZM18.6879 66.5842C18.5424 66.7921 18.2513 66.8545 18.0435 66.7089C17.8356 66.5634 17.7732 66.2724 17.9187 66.0645C18.0642 65.8566 18.3553 65.7943 18.5631 65.9398C18.771 66.0853 18.8334 66.3763 18.6879 66.5842Z" fill="#DDB6CC"/>
<path d="M31.0152 70.9707H30.8281V86.125H31.0152V70.9707Z" fill="#E0B3C8"/>
<path d="M33.364 75.8765C33.9955 75.8765 34.5074 75.3646 34.5074 74.7332C34.5074 74.1017 33.9955 73.5898 33.364 73.5898C32.7326 73.5898 32.2207 74.1017 32.2207 74.7332C32.2207 75.3646 32.7326 75.8765 33.364 75.8765Z" fill="#D1AABF"/>
<path d="M33.364 81.6138C33.9955 81.6138 34.5074 81.1019 34.5074 80.4705C34.5074 79.839 33.9955 79.3271 33.364 79.3271C32.7326 79.3271 32.2207 79.839 32.2207 80.4705C32.2207 81.1019 32.7326 81.6138 33.364 81.6138Z" fill="#D1AABF"/>
<path d="M34.5074 86.1043C34.445 85.5223 33.9669 85.0649 33.364 85.0649C32.7612 85.0649 32.2831 85.5223 32.2207 86.1043H34.5074Z" fill="#D1AABF"/>
<path d="M13.1165 69.6401L13.0957 69.7441C13.0957 69.7649 13.0957 69.7857 13.0957 69.7857V69.8064C16.0476 70.3677 16.1723 81.9673 16.1723 82.0712L16.2347 81.9881L16.2762 81.9257L16.297 81.9881L16.3178 82.092C16.401 82.1751 16.2347 70.2222 13.1165 69.6401Z" fill="#E0B3C8"/>
<path d="M48.1439 69.6401L48.1646 69.7441C48.1646 69.7649 48.1646 69.7857 48.1646 69.7857V69.8064C45.2128 70.3677 45.0881 81.9673 45.0881 82.0712L45.0257 81.9881L44.9841 81.9257L44.9633 81.9881L44.9425 82.092C44.8594 82.1751 45.0257 70.2222 48.1439 69.6401Z" fill="#E0B3C8"/>
<path d="M33.0098 74.6084C33.1705 74.6084 33.3008 74.4781 33.3008 74.3174C33.3008 74.1567 33.1705 74.0264 33.0098 74.0264C32.849 74.0264 32.7188 74.1567 32.7188 74.3174C32.7188 74.4781 32.849 74.6084 33.0098 74.6084Z" fill="#FFF3F9"/>
<path d="M33.0098 80.3252C33.1705 80.3252 33.3008 80.1949 33.3008 80.0342C33.3008 79.8735 33.1705 79.7432 33.0098 79.7432C32.849 79.7432 32.7188 79.8735 32.7188 80.0342C32.7188 80.1949 32.849 80.3252 33.0098 80.3252Z" fill="#FFF3F9"/>
<path d="M33.0098 86.104C33.1705 86.104 33.3008 85.9737 33.3008 85.813C33.3008 85.6523 33.1705 85.522 33.0098 85.522C32.849 85.522 32.7188 85.6523 32.7188 85.813C32.7188 85.9737 32.849 86.104 33.0098 86.104Z" fill="#FFF3F9"/>
<path d="M30.7659 69.4737C26.9826 69.4737 23.8228 66.9792 22.9913 63.6323C22.5963 63.8194 21.5154 64.2975 21.5154 64.2975C21.0788 65.3785 22.2222 65.6695 22.2222 65.6695C21.8688 66.4179 22.3677 67.291 23.1992 67.3741L23.1576 67.6028C22.9913 68.3096 23.5734 68.954 24.3009 68.8708L24.5296 68.85V69.1411C24.5088 69.8271 25.1948 70.3052 25.8392 70.0973L26.1303 69.9934L26.1926 70.326C26.3173 70.9704 27.0449 71.303 27.627 70.9704L27.918 70.8041L28.0427 71.0743C28.313 71.698 29.1237 71.8643 29.6226 71.4069L29.8513 71.1991L29.9968 71.4069C30.3917 71.989 31.244 71.989 31.6598 71.4069L31.8053 71.1991L32.0963 71.4693C32.5537 71.9058 33.3228 71.7395 33.5723 71.1575L33.7178 70.8041L34.0088 70.9704C34.5701 71.303 35.3184 70.9912 35.4432 70.326L35.5055 69.9934L35.8173 70.0973C36.4618 70.3052 37.1062 69.8271 37.1062 69.1619V68.85L37.2933 68.8708C38.0208 68.954 38.6237 68.2888 38.4574 67.582L38.4158 67.3949L38.6237 67.3741C39.3513 67.3118 39.7878 66.5426 39.476 65.8982L39.3928 65.7111C39.3928 65.7111 40.557 65.3161 40.2036 64.2352C40.2036 64.2352 39.0187 63.861 38.6237 63.6739C37.709 66.9999 34.5493 69.4737 30.7659 69.4737Z" fill="white"/>
<path d="M38.561 63.6323C38.3739 64.4846 37.9997 65.2953 37.5216 66.0229C37.0434 66.7505 36.4198 67.3949 35.713 67.9354C34.2995 68.9956 32.5325 69.5568 30.7863 69.5776C29.0194 69.5776 27.2524 69.0163 25.8596 67.9354C25.1529 67.4157 24.55 66.7505 24.0511 66.0229C23.573 65.2953 23.1988 64.4846 23.0117 63.6323C23.469 65.3161 24.5292 66.8129 25.9428 67.8107C27.3356 68.8293 29.061 69.3697 30.7863 69.3697C32.5117 69.3697 34.2371 68.8293 35.6299 67.8107C37.0227 66.8129 38.0828 65.3369 38.561 63.6323Z" fill="#BE9BA9"/>
<path d="M48.6222 30.1848C48.6222 44.3829 43.5916 55.9616 30.6616 55.9616C17.7317 55.9616 12.9297 44.2374 12.9297 30.0601C12.9297 15.8621 24.9658 13.0142 30.8695 13.0142C36.7732 13.0142 48.6222 16.0076 48.6222 30.1848Z" fill="#FEDEC8"/>
<path d="M24.4473 47.4595C26.4013 48.6444 28.5009 49.3719 30.6212 49.3512C32.7624 49.3512 34.7996 48.5196 36.8368 47.4595C36.0884 48.3326 35.153 49.0809 34.0928 49.6006C33.0326 50.1411 31.8269 50.4321 30.6212 50.4529C29.4155 50.4529 28.2098 50.1827 27.1289 49.663C26.0895 49.1225 25.1333 48.3949 24.4473 47.4595Z" fill="#CD9881"/>
<path d="M19.957 38.2923L17.8574 37.1074L20.1856 37.7103L19.957 38.2923Z" fill="#E4C8B6"/>
<path d="M20.2064 41.2024L17.8574 41.9923L19.9362 40.6411L20.2064 41.2024Z" fill="#E4C8B6"/>
<path d="M20.0815 39.7477L16.2773 39.6437L20.0607 39.124L20.0815 39.7477Z" fill="#E4C8B6"/>
<path d="M41.7012 37.7103L44.0294 37.1074L41.9506 38.2923L41.7012 37.7103Z" fill="#E4C8B6"/>
<path d="M41.9707 40.6411L44.0287 41.9923L41.6797 41.2024L41.9707 40.6411Z" fill="#E4C8B6"/>
<path d="M41.8463 39.124L45.6088 39.6437L41.8047 39.7477L41.8463 39.124Z" fill="#E4C8B6"/>
<path d="M26.5885 39.2693C26.5885 41.2233 24.9878 42.8032 23.013 42.8032C21.0382 42.8032 19.4375 41.2233 19.4375 39.2693C19.4375 37.3152 21.0382 35.7354 23.013 35.7354C24.9878 35.7561 26.5885 37.336 26.5885 39.2693Z" fill="#A5693C"/>
<path d="M25.6735 39.2694C25.6735 40.6206 24.5717 41.7431 23.2205 41.7431C21.8693 41.7431 20.7676 40.6413 20.7676 39.2694C20.7676 37.9182 21.8693 36.8164 23.2205 36.8164C24.5717 36.8164 25.6735 37.9182 25.6735 39.2694Z" fill="#2A1D01"/>
<path d="M22.1811 38.0012C22.1811 38.3962 21.8693 38.708 21.4744 38.708C21.0794 38.708 20.7676 38.3962 20.7676 38.0012C20.7676 37.6063 21.0794 37.2944 21.4744 37.2944C21.8485 37.2944 22.1811 37.6063 22.1811 38.0012Z" fill="white"/>
<path d="M35.3184 39.2693C35.3184 41.2233 36.919 42.8032 38.8939 42.8032C40.8687 42.8032 42.4693 41.2233 42.4693 39.2693C42.4693 37.3152 40.8687 35.7354 38.8939 35.7354C36.919 35.7561 35.3184 37.336 35.3184 39.2693Z" fill="#A5693C"/>
<path d="M36.2324 39.2694C36.2324 40.6206 37.3342 41.7431 38.6854 41.7431C40.0366 41.7431 41.1383 40.6413 41.1383 39.2694C41.1383 37.9182 40.0366 36.8164 38.6854 36.8164C37.3342 36.8164 36.2324 37.9182 36.2324 39.2694Z" fill="#2A1D01"/>
<path d="M36.3789 38.0012C36.3789 38.3962 36.6907 38.708 37.0857 38.708C37.4807 38.708 37.7925 38.3962 37.7925 38.0012C37.7925 37.6063 37.4807 37.2944 37.0857 37.2944C36.6907 37.2944 36.3789 37.6063 36.3789 38.0012Z" fill="white"/>
<path d="M23.7598 48.3327C23.8845 48.1248 24.0092 47.9169 24.1339 47.7298C24.2587 47.5428 24.3834 47.3557 24.5289 47.1686C24.6744 46.9815 24.7992 46.7944 24.9447 46.6281C25.0902 46.441 25.2565 46.2747 25.4436 46.1084C25.402 46.3579 25.3188 46.5865 25.2149 46.7944C25.111 47.0023 24.9862 47.2101 24.8407 47.418C24.6952 47.6051 24.5497 47.7922 24.3626 47.9585C24.1963 48.104 24.0092 48.2495 23.7598 48.3327Z" fill="#E4C8B6"/>
<path d="M37.689 48.333C37.4603 48.2498 37.2524 48.1043 37.0653 47.938C36.8782 47.7717 36.7327 47.6054 36.5872 47.3975C36.4417 47.2104 36.317 47.0026 36.213 46.7739C36.1091 46.566 36.026 46.3373 35.9844 46.0879C36.1715 46.2542 36.3378 46.4205 36.4833 46.6076C36.6288 46.7947 36.7743 46.961 36.899 47.1481C37.0238 47.3352 37.1693 47.5222 37.294 47.7093C37.4395 47.938 37.5642 48.1251 37.689 48.333Z" fill="#E4C8B6"/>
<path d="M49.9125 24.4892C49.476 20.8722 40.0175 10.7485 30.5799 10.7485C21.1423 10.7485 11.7046 20.8514 11.2681 24.4892C10.2703 32.8043 13.7418 40.579 13.7418 40.579C13.721 26.963 22.4935 23.928 30.6007 23.928C38.7079 23.928 47.4595 26.9422 47.4595 40.579C47.4388 40.5997 50.9103 32.8251 49.9125 24.4892Z" fill="#D3D5D6"/>
<path d="M31.3283 22.9511C30.9126 22.2027 30.7463 21.3712 30.7047 20.5397C30.6839 19.7082 30.871 18.8975 31.0789 18.0868C31.2868 17.2968 31.5362 16.5069 31.7857 15.717C32.0351 14.927 32.2846 14.1579 32.4717 13.3472C32.3054 14.1579 32.0559 14.9478 31.8272 15.7378C31.5986 16.5277 31.3699 17.3176 31.1828 18.1076C30.9957 18.8975 30.8086 19.7082 30.871 20.5189C30.9126 21.3297 31.0997 22.1404 31.5154 22.8264L31.3283 22.9511Z" fill="#E8E8E8"/>
<path d="M13.4705 20.6227C13.4913 20.9968 13.0339 28.8338 16.2768 29.1248C16.2768 29.1248 18.2309 25.7988 20.7462 25.0297C20.7462 25.0297 18.6051 25.2999 17.8567 23.1588C17.0875 21.0176 17.0044 16.8809 17.0044 16.8809C17.0044 16.8809 15.279 18.3152 13.4705 20.6227Z" fill="#E8E8E8"/>
<path d="M37.2723 20.3316C36.5031 22.4728 35.2559 23.1587 35.2559 23.1587C37.7712 23.9279 39.7252 24.9465 39.7252 24.9465C42.3861 24.7178 41.6793 17.255 41.3259 14.5526C40.0994 13.7211 38.769 12.9728 37.397 12.3491C37.5633 14.324 37.8543 18.6894 37.2723 20.3316Z" fill="#E8E8E8"/>
<path d="M13.8872 30.8504C14.3654 31.4325 14.9474 31.3286 14.9474 31.3286C15.9244 31.1415 15.28 30.2268 15.28 30.2268C14.6772 30.4971 13.7833 29.2706 13.0349 27.4413C12.5152 26.194 12.1411 24.1568 11.9748 22.9927C11.8916 23.159 11.8085 23.3253 11.7461 23.4916C12.0787 27.2542 13.4507 30.31 13.8872 30.8504Z" fill="#E8E8E8"/>
<path d="M45.1299 17.5879C44.9636 18.6481 44.5687 20.9555 44.0074 22.3275C43.259 24.1568 41.7415 25.903 41.1387 25.6327C41.1387 25.6327 41.9494 26.0901 42.2404 26.4227C42.2404 26.4227 42.677 26.3187 43.1551 25.7575C43.6332 25.1962 45.1091 21.8494 45.3586 17.8166C45.2754 17.7334 45.1923 17.671 45.1299 17.5879Z" fill="#E8E8E8"/>
<path d="M23.0545 23.6164C23.4494 23.949 24.0939 23.8866 24.3225 23.7827C24.5512 23.6788 25.2996 23.554 25.2996 23.554C24.2394 23.1798 24.0315 22.1197 24.0315 22.1197C24.4473 23.1383 25.7985 23.4917 26.0063 23.4501C26.2142 23.3877 27.5031 23.1591 27.898 23.1591C28.293 23.1383 28.875 22.9512 28.875 22.9512C28.9998 22.6394 28.2098 22.1197 27.2328 20.6853C26.0479 18.9599 25.8816 13.7838 25.8608 11.6011C24.468 12.0584 23.0961 12.7028 21.8072 13.4304C21.6201 15.0934 21.3915 17.7542 21.4746 19.5836C21.5993 22.4107 22.6595 23.2838 23.0545 23.6164Z" fill="#E8E8E8"/>
<path d="M31.8678 17.2552C31.4312 20.0407 31.7638 22.8679 31.7638 22.8679C32.0549 22.8679 33.1358 22.951 33.1358 22.951C33.5931 21.1633 33.801 19.625 33.5931 18.4401C33.4061 17.2552 33.7802 15.1348 34.0713 13.6381C34.2584 12.6403 34.196 11.684 34.1336 11.1851C33.8218 11.102 33.4892 11.0396 33.1774 10.998C33.3021 13.0768 32.2835 14.6151 31.8678 17.2552Z" fill="#E8E8E8"/>
<path d="M28.3968 23.2213C27.794 22.5769 27.2119 21.9117 26.6714 21.2049C26.422 20.8515 26.1517 20.4774 26.0062 20.0408C25.8399 19.6251 25.7568 19.1885 25.6736 18.752C25.5073 17.8789 25.4242 17.0058 25.3618 16.1327C25.3202 15.2596 25.2994 14.3658 25.341 13.4927C25.3202 14.3658 25.3618 15.2596 25.4242 16.1327C25.4865 17.0058 25.5905 17.8789 25.7776 18.752C25.8607 19.1885 25.9854 19.6043 26.131 20.02C26.2765 20.4358 26.5467 20.7892 26.7962 21.1426C27.3366 21.8286 27.9187 22.4938 28.5423 23.1174L28.3968 23.2213Z" fill="#D3D5D6"/>
<path d="M49.0384 22.3064C48.6019 21.558 48.0198 20.7473 47.313 19.895C47.313 22.2232 47.1259 27.6488 45.1719 29.0416C45.1719 29.0416 46.0242 29.9563 46.6894 31.7232C46.6894 31.7232 49.1631 32.139 49.0384 22.3064Z" fill="#E8E8E8"/>
<path d="M35.9629 23.6372C36.2747 23.4501 36.5449 23.1798 36.7736 22.8888C37.0023 22.577 37.2102 22.2652 37.3557 21.9118C37.522 21.5792 37.6467 21.205 37.7714 20.8516L37.9169 20.2903L38.0209 19.7291C38.0417 19.6251 38.0625 19.542 38.0832 19.438L38.1248 19.147L38.1872 18.5857C38.208 18.2116 38.2288 17.8166 38.2495 17.4424C38.2495 17.0682 38.2495 16.6733 38.2288 16.2991L38.1664 15.1558L38.2703 16.2991C38.2911 16.6733 38.2911 17.0682 38.3119 17.4632C38.3119 17.8582 38.2911 18.2323 38.2703 18.6273L38.208 19.2094L38.1872 19.5004C38.1664 19.6043 38.1456 19.6875 38.1456 19.7914L38.0417 20.3527L37.8962 20.914C37.7922 21.2881 37.6675 21.6623 37.5012 22.0157C37.3349 22.3691 37.1478 22.7017 36.9191 23.0343L36.732 23.263L36.5242 23.4709C36.3786 23.6164 36.2331 23.7411 36.046 23.845L35.9629 23.6372Z" fill="#D3D5D6"/>
<path d="M46.2109 31.3906C46.3149 31.3906 46.4396 31.3282 46.5435 31.2659C46.6475 31.2035 46.7514 31.0996 46.8346 31.0164C46.8761 30.9748 46.9177 30.9125 46.9593 30.8709C47.0009 30.8085 47.0424 30.767 47.084 30.7046C47.1464 30.5799 47.2295 30.4759 47.2919 30.3512C47.5414 29.8731 47.7284 29.3534 47.874 28.8337C47.9363 28.5635 48.0195 28.314 48.061 28.0438C48.1234 27.7735 48.165 27.5033 48.2066 27.2331C48.3105 26.6926 48.3521 26.1521 48.4144 25.5908C48.3729 26.1313 48.3313 26.6926 48.2481 27.2331C48.2273 27.5033 48.165 27.7735 48.1234 28.0438C48.0818 28.314 48.0195 28.5843 47.9571 28.8545C47.8324 29.395 47.6661 29.9147 47.4166 30.4136C47.3543 30.5383 47.2711 30.663 47.2087 30.7878C47.1672 30.8501 47.1256 30.9125 47.084 30.9541C47.0424 31.0164 47.0009 31.0788 46.9593 31.1204C46.8761 31.2243 46.7514 31.3282 46.6475 31.4114C46.5851 31.453 46.5228 31.4945 46.4604 31.5153C46.398 31.5569 46.3149 31.5777 46.2317 31.5777L46.2109 31.3906Z" fill="#D3D5D6"/>
<path d="M47.2926 33.6777C46.8353 33.2203 46.7937 33.1372 46.5858 31.9107C46.3779 30.6842 44.611 28.5847 43.9874 28.0026C43.3637 27.4205 44.0705 27.2542 43.6132 26.8385C43.1558 26.4435 43.1558 27.0672 42.262 26.6098C41.3889 26.1525 38.3954 24.5934 38.146 24.5934C37.8965 24.5934 38.146 23.8035 37.855 23.8866C37.5639 23.9906 37.4808 24.3232 37.065 24.1153C36.6493 23.9074 34.1963 23.5748 34.03 23.5748C33.8637 23.5748 33.1777 22.9512 33.4895 21.8702C32.9698 22.4938 32.6165 23.2838 30.8079 23.1591C28.9994 23.0343 26.297 23.8243 25.3823 23.8866C24.4469 23.949 22.7631 24.531 21.7445 21.2466C22.0979 23.5748 23.5322 24.5726 22.9502 24.6973C22.3681 24.8221 22.2226 24.3855 21.8484 24.1984C21.9316 24.926 21.5989 25.1755 20.9753 25.4249C20.3517 25.6744 17.2751 27.9402 17.0672 28.3352C16.8593 28.7094 16.3604 29.6033 15.7784 29.6033C15.1963 29.6033 15.7576 30.4971 15.7576 30.9337C15.7576 31.3494 14.9261 31.5573 14.9261 31.5573C14.9261 31.5573 13.5333 35.2159 13.9906 39.6645C14.3856 26.8593 22.9086 23.9698 30.8287 23.9698C38.5202 23.9698 46.7729 26.693 47.6044 38.5628C47.7707 36.484 47.3758 34.9873 47.3342 34.8626C47.251 34.6755 47.7499 34.135 47.2926 33.6777Z" fill="#C2C4C6"/>
<path d="M29.7278 22.5354C29.7278 22.5354 26.4641 21.5999 28.044 25.0923C29.6238 28.5846 27.7113 28.3975 27.7113 28.3975C27.7113 28.3975 28.626 28.1273 28.2726 27.1918C27.9192 26.2564 26.7759 24.1568 26.9422 23.1382C27.0877 22.1196 28.8755 20.8724 29.7278 22.5354Z" fill="#E8E8E8"/>
<path d="M34.7358 22.8886C34.715 22.7223 34.7566 22.556 34.8397 22.4312C34.9229 22.2857 35.0684 22.1818 35.2139 22.0986C35.3594 22.0155 35.5049 21.9739 35.7128 21.9531C35.9207 21.9739 36.1078 22.0363 36.2533 22.161C36.5443 22.3897 36.6898 22.7223 36.7522 23.0341C36.8145 23.3459 36.8145 23.6577 36.773 23.9695C36.7314 24.2814 36.6274 24.5724 36.4819 24.8426L36.378 25.0297L36.2741 25.196C36.2117 25.3207 36.1493 25.4247 36.087 25.5494C35.983 25.7989 35.8791 26.0691 35.8999 26.3186C35.8999 26.4433 35.9415 26.568 36.0246 26.6719C36.1078 26.7551 36.2325 26.8175 36.378 26.7759L36.3988 26.8382C36.2533 26.8798 36.087 26.859 35.9622 26.7551C35.8375 26.6512 35.7752 26.4849 35.7544 26.3393C35.692 26.0275 35.7544 25.7365 35.8375 25.4455C35.8791 25.3 35.9415 25.1752 36.0038 25.0297L36.1078 24.8218L36.1909 24.6347C36.2948 24.3853 36.3572 24.1358 36.378 23.8864C36.3988 23.6369 36.3572 23.3667 36.2741 23.138C36.1909 22.9094 36.087 22.7015 35.9415 22.556C35.8791 22.4728 35.7959 22.452 35.7128 22.4105C35.6504 22.3897 35.5049 22.4105 35.3802 22.4312C35.1515 22.4728 34.9229 22.5975 34.8189 22.847L34.7358 22.8886Z" fill="#E8E8E8"/>
<path d="M47.022 32.9913C47.0428 32.825 47.1467 32.7002 47.2923 32.5963C47.4378 32.4924 47.6041 32.4508 47.7704 32.43C47.9367 32.4092 48.0822 32.4092 48.2901 32.4924C48.4772 32.5755 48.6227 32.721 48.7266 32.8873C48.9137 33.2199 48.9345 33.5525 48.8721 33.8851C48.8098 34.197 48.7058 34.5088 48.5395 34.7582C48.3732 35.0285 48.1861 35.2571 47.9367 35.465L47.7704 35.6105L47.6041 35.7353C47.5001 35.8184 47.3962 35.9016 47.2923 36.0055C47.1052 36.1926 46.9181 36.4005 46.8349 36.6499C46.7934 36.7746 46.7726 36.8994 46.8141 37.0241C46.8557 37.1488 46.9597 37.232 47.1052 37.2528V37.3151C46.9597 37.3151 46.7934 37.232 46.731 37.0865C46.6478 36.9409 46.6478 36.7746 46.6894 36.6291C46.7518 36.3173 46.9181 36.0679 47.1052 35.8392C47.1883 35.7145 47.2923 35.6105 47.417 35.5066L47.5833 35.3611L47.7288 35.2156C47.9159 35.0285 48.0614 34.8206 48.1653 34.5711C48.2693 34.3425 48.3316 34.093 48.3316 33.8436C48.3316 33.5941 48.3109 33.3655 48.2277 33.1784C48.1861 33.0744 48.1446 33.0329 48.0822 32.9705C48.0198 32.9289 47.8951 32.8873 47.7704 32.8665C47.5417 32.825 47.2923 32.8458 47.0844 33.0536L47.022 32.9913Z" fill="#C2C4C6"/>
<path d="M25.8818 22.9719C25.6531 22.9927 25.4037 22.9304 25.1958 22.8264C25.0919 22.7849 24.9879 22.7225 24.884 22.6601C24.7801 22.5978 24.6969 22.5146 24.593 22.4522C24.2188 22.1404 23.9901 21.7039 23.8238 21.2673C23.7199 21.0595 23.6575 20.8308 23.5952 20.6021C23.5328 20.3735 23.4912 20.1448 23.4496 19.9369C23.4289 19.7083 23.3873 19.4796 23.3665 19.2509L23.3457 18.5649H23.3873L23.4912 19.2301C23.5328 19.4588 23.5952 19.6667 23.6367 19.8954C23.6991 20.1032 23.7615 20.3319 23.8446 20.5398C23.9278 20.7477 24.0109 20.9555 24.1148 21.1426C24.3227 21.5376 24.593 21.8702 24.884 22.182C25.175 22.4938 25.5076 22.7641 25.9234 22.9304L25.8818 22.9719Z" fill="white"/>
<path d="M24.3432 23.5537C23.969 23.5329 23.6156 23.3666 23.3246 23.1587C23.0127 22.9509 22.8049 22.6391 22.6178 22.3272C22.4307 22.0154 22.2852 21.6828 22.1812 21.3294C22.1189 21.1631 22.0981 20.976 22.0565 20.8097C22.0357 20.6434 22.0149 20.4563 21.9941 20.29H22.0357C22.0773 20.4563 22.1189 20.6226 22.1812 20.7889C22.2436 20.9552 22.2852 21.1215 22.3683 21.2671C22.493 21.5789 22.6801 21.8699 22.888 22.1609C23.0959 22.4312 23.3453 22.6391 23.5948 22.8677C23.8442 23.0964 24.0937 23.3043 24.3847 23.5329L24.3432 23.5537Z" fill="white"/>
<path d="M45.6094 29.1043C46.0667 28.6886 46.3785 28.1481 46.6072 27.5868C46.6696 27.4413 46.7319 27.3166 46.7735 27.1711C46.8151 27.0255 46.8982 26.9008 46.9398 26.7345L47.0853 26.298L47.21 25.8406C47.2516 25.6951 47.2724 25.5288 47.314 25.3833L47.3971 24.926C47.4387 24.6142 47.4803 24.3023 47.5011 23.9905C47.5218 23.6787 47.5426 23.3669 47.5634 23.0551L47.5842 22.1196H47.6258L47.6881 23.0551C47.7089 23.3669 47.7089 23.6787 47.7089 24.0113C47.7089 24.3231 47.6674 24.6349 47.6674 24.9675L47.605 25.4457C47.5842 25.612 47.5634 25.7575 47.5426 25.9238C47.4387 26.5474 47.2932 27.1918 46.9814 27.7739C46.8359 28.0649 46.6488 28.3352 46.4409 28.5846C46.233 28.8341 45.9628 29.0419 45.6717 29.1667L45.6094 29.1043Z" fill="white"/>
<path d="M16.401 28.5015C16.2139 28.5223 16.0476 28.4807 15.8813 28.3975C15.715 28.3144 15.5695 28.2104 15.4656 28.0857C15.2161 27.8363 15.0914 27.5037 14.9667 27.1918C14.9043 27.0255 14.8627 26.88 14.8212 26.7137C14.7796 26.5474 14.738 26.3811 14.7172 26.2356C14.6964 26.0693 14.6549 25.903 14.6549 25.7367L14.6133 25.2378H14.6549L14.7796 25.7159C14.8212 25.8822 14.8627 26.0277 14.9251 26.1732C14.9667 26.3188 15.029 26.4851 15.0914 26.6306C15.1538 26.7761 15.2161 26.9216 15.2785 27.0671C15.424 27.3581 15.6111 27.6076 15.7774 27.8363C15.9645 28.0857 16.1516 28.3144 16.4426 28.4599L16.401 28.5015Z" fill="white"/>
<path d="M39.6836 23.8656C39.8291 23.7617 39.933 23.5954 40.0162 23.4291C40.0993 23.2628 40.1825 23.0965 40.2241 22.9302C40.2864 22.7639 40.328 22.5768 40.3696 22.4105C40.4112 22.2234 40.4527 22.0571 40.4735 21.87C40.5983 21.1424 40.7022 20.3941 40.723 19.6457C40.723 19.2715 40.7646 18.8973 40.7438 18.5232C40.7438 18.149 40.7438 17.7748 40.7022 17.4006C40.6814 16.6523 40.619 15.9039 40.5567 15.1348H40.5983C40.7022 15.8831 40.8269 16.6315 40.9101 17.3798C40.9516 17.754 40.9724 18.1282 40.9932 18.5232C41.0348 18.8973 41.014 19.2923 41.0348 19.6665C41.0348 20.4356 41.0348 21.2048 40.8477 21.9531C40.8061 22.1402 40.7438 22.3273 40.6814 22.5144C40.6398 22.5976 40.619 22.7015 40.5775 22.7847C40.5359 22.8678 40.5151 22.9717 40.4527 23.0549C40.4112 23.138 40.3696 23.2212 40.3072 23.3043C40.2449 23.3875 40.2033 23.4706 40.1409 23.533C40.0162 23.6785 39.8707 23.824 39.6836 23.9072V23.8656Z" fill="white"/>
<path d="M89.3459 27.6696C89.3459 27.6696 85.0636 19.4169 71.51 22.2232C57.9564 25.0295 53.9859 38.2921 54.4225 45.942C54.859 53.5919 56.5844 58.1444 60.1183 63.4869C63.6106 68.7462 62.0723 72.1761 59.4323 73.0492C59.4323 73.0492 74.6074 83.7965 90.3645 73.1948C90.3645 73.1948 86.5395 72.0098 86.9761 68.9125C87.4126 65.8151 93.0253 61.9902 96.4137 55.5044C99.8021 49.0186 101.278 30.767 89.3459 27.6696Z" fill="#4C360D"/>
<path d="M63.2782 83.7341L87.392 81.7593C87.392 81.7593 91.3001 78.8698 90.9675 78.3293C90.5102 77.5809 89.9073 75.8348 88.8264 75.8763C86.5397 75.9595 79.9084 71.8435 79.9708 69.6192C80.0332 67.0623 79.9708 62.9048 79.9708 62.9048H71.427C71.427 62.9048 71.427 67.0623 71.427 69.6192C71.427 72.1761 68.0178 74.338 64.4216 75.5229C60.8253 76.7078 58.9336 78.0798 58.9336 78.0798L63.2782 83.7341Z" fill="url(#paint1_linear_1610_6974)"/>
<path d="M92.9425 43.5514C92.9425 55.9825 87.1012 66.1685 75.7511 66.1685C64.4217 66.1685 58.123 55.8785 58.123 43.4267C58.123 30.9956 64.6088 29.7275 75.9589 29.7275C87.2883 29.7483 92.9425 31.1203 92.9425 43.5514Z" fill="#F4D89A"/>
<path d="M68.9746 58.394C71.1157 59.6829 73.4024 60.4936 75.7306 60.4728C78.0589 60.4728 80.3039 59.5789 82.5282 58.394C81.7175 59.3503 80.6989 60.161 79.5348 60.7223C78.3707 61.3043 77.061 61.6161 75.7514 61.6369C74.421 61.6369 73.1114 61.3459 71.9473 60.7638C70.7831 60.2234 69.723 59.4334 68.9746 58.394Z" fill="#C42C76"/>
<path d="M86.3117 33.5942C86.3117 33.5942 85.792 37.4815 87.9124 43.2397C90.2406 49.5592 92.7351 51.8874 95.1049 50.2244C95.1049 50.2244 92.5481 51.0974 93.2548 48.3742C94.2111 44.6948 96.1859 38.4585 93.234 34.197C90.6979 30.5384 87.954 31.1204 87.954 31.1204C87.954 31.1204 85.7505 23.616 75.7516 23.5121C61.408 23.3666 51.5546 41.4311 58.9966 53.883C58.9966 53.883 56.5645 44.3206 61.6575 43.7178C66.7297 43.115 84.9397 36.7539 86.3325 33.2823" fill="#5F3F12"/>
<path d="M86.976 34.5919C86.976 34.5919 85.0843 38.2713 78.7441 41.3895C73.6926 43.8632 67.8929 44.2582 62.2802 44.1127C62.2802 44.1127 60.3677 47.3556 60.5132 52.6565C60.6587 57.9573 63.3403 63.57 63.3403 63.57C63.3403 63.57 52.8841 47.8129 61.0537 35.07C70.616 20.1652 85.5209 27.4825 87.7867 31.9103C87.8075 31.8687 87.8491 33.3031 86.976 34.5919Z" fill="#754B1D"/>
<path d="M86.2065 31.4324C84.4812 30.8295 82.7142 30.4138 80.968 30.0812C79.2011 29.7694 77.4341 29.6031 75.6672 29.6446C72.1332 29.707 68.6825 30.7048 65.502 32.5549C66.8116 31.2661 68.3914 30.2267 70.1376 29.5407C71.8838 28.8339 73.7547 28.5013 75.6256 28.4597C79.3882 28.4182 83.13 29.416 86.2065 31.4324Z" fill="#A26527"/>
<path d="M91.7164 42.7824C91.1136 42.0341 90.6146 41.2026 90.1781 40.3503C89.7416 39.498 89.3882 38.5833 89.0971 37.6479C88.5567 35.777 87.9746 31.8896 87.9746 31.8896C87.9746 31.8896 90.9265 32.6796 92.1114 34.9039C93.2963 37.1282 93.2131 39.6435 93.2131 39.6435C93.2131 39.6435 92.5687 37.3984 91.5917 35.8809C90.6147 34.3634 89.6376 34.1139 89.2427 33.6774C89.2427 33.6774 89.6168 36.0056 89.9702 37.7934C90.3236 39.5811 91.0096 40.9947 91.7164 42.7824Z" fill="#A26527"/>
<path d="M68.8284 56.3776C68.8284 57.9782 67.5188 59.2879 65.9181 59.2879C64.3174 59.2879 63.0078 57.9782 63.0078 56.3776C63.0078 54.7769 64.3174 53.4673 65.9181 53.4673C67.5188 53.4673 68.8284 54.7769 68.8284 56.3776Z" fill="url(#paint2_radial_1610_6974)"/>
<path d="M87.4124 56.3776C87.4124 57.9782 86.1027 59.2879 84.5021 59.2879C82.9014 59.2879 81.5918 57.9782 81.5918 56.3776C81.5918 54.7769 82.9014 53.4673 84.5021 53.4673C86.1027 53.4673 87.4124 54.7769 87.4124 56.3776Z" fill="url(#paint3_radial_1610_6974)"/>
<path d="M71.7187 50.8274C71.7187 52.5319 70.326 53.9247 68.6006 53.9247C66.8752 53.9247 65.4824 52.5319 65.4824 50.8274C65.4824 49.1228 66.8752 47.73 68.6006 47.73C70.3052 47.73 71.7187 49.1228 71.7187 50.8274Z" fill="#00ADE9"/>
<path d="M70.9078 50.8275C70.9078 52.0124 69.9308 52.9894 68.7459 52.9894C67.561 52.9894 66.584 52.0124 66.584 50.8275C66.584 49.6426 67.5402 48.6655 68.7459 48.6655C69.9516 48.6655 70.9078 49.6426 70.9078 50.8275Z" fill="#234471"/>
<path d="M67.8527 49.7047C67.8527 50.0581 67.5825 50.3283 67.2291 50.3283C66.8757 50.3283 66.6055 50.0373 66.6055 49.7047C66.6055 49.3721 66.8757 49.0811 67.2291 49.0811C67.5617 49.0811 67.8527 49.3513 67.8527 49.7047Z" fill="white"/>
<path d="M80.0957 50.8274C80.0957 52.5319 81.4885 53.9247 83.2139 53.9247C84.9392 53.9247 86.332 52.5319 86.332 50.8274C86.332 49.1228 84.9392 47.73 83.2139 47.73C81.4885 47.73 80.0957 49.1228 80.0957 50.8274Z" fill="#00ADE9"/>
<path d="M80.9062 50.8275C80.9062 52.0124 81.8833 52.9894 83.0682 52.9894C84.2531 52.9894 85.2301 52.0124 85.2301 50.8275C85.2301 49.6426 84.2739 48.6655 83.0682 48.6655C81.8625 48.6655 80.9062 49.6426 80.9062 50.8275Z" fill="#234471"/>
<path d="M81.0312 49.7047C81.0312 50.0581 81.3015 50.3283 81.6549 50.3283C82.0083 50.3283 82.2785 50.0373 82.2785 49.7047C82.2785 49.3721 82.0083 49.0811 81.6549 49.0811C81.3015 49.0811 81.0312 49.3513 81.0312 49.7047Z" fill="white"/>
<path d="M75.8751 74.941C76.518 74.941 77.0392 74.4198 77.0392 73.7769C77.0392 73.134 76.518 72.6128 75.8751 72.6128C75.2321 72.6128 74.7109 73.134 74.7109 73.7769C74.7109 74.4198 75.2321 74.941 75.8751 74.941Z" fill="#00ADE9"/>
<path opacity="0.2" d="M76.291 73.7974C76.4518 73.7974 76.5821 73.6671 76.5821 73.5064C76.5821 73.3456 76.4518 73.2153 76.291 73.2153C76.1303 73.2153 76 73.3456 76 73.5064C76 73.6671 76.1303 73.7974 76.291 73.7974Z" fill="#FFFEEF"/>
<path d="M73.7348 74.5873C74.2744 74.5873 74.7119 74.1499 74.7119 73.6103C74.7119 73.0707 74.2744 72.6333 73.7348 72.6333C73.1952 72.6333 72.7578 73.0707 72.7578 73.6103C72.7578 74.1499 73.1952 74.5873 73.7348 74.5873Z" fill="#00ADE9"/>
<path opacity="0.2" d="M74.0873 73.6312C74.2251 73.6312 74.3368 73.5195 74.3368 73.3818C74.3368 73.244 74.2251 73.1323 74.0873 73.1323C73.9496 73.1323 73.8379 73.244 73.8379 73.3818C73.8379 73.5195 73.9496 73.6312 74.0873 73.6312Z" fill="#FFFEEF"/>
<path d="M71.9681 73.9225C72.4618 73.9225 72.862 73.5223 72.862 73.0286C72.862 72.535 72.4618 72.1348 71.9681 72.1348C71.4744 72.1348 71.0742 72.535 71.0742 73.0286C71.0742 73.5223 71.4744 73.9225 71.9681 73.9225Z" fill="#00ADE9"/>
<path opacity="0.2" d="M72.299 73.0491C72.4253 73.0491 72.5276 72.9467 72.5276 72.8205C72.5276 72.6942 72.4253 72.5918 72.299 72.5918C72.1727 72.5918 72.0703 72.6942 72.0703 72.8205C72.0703 72.9467 72.1727 73.0491 72.299 73.0491Z" fill="#FFFEEF"/>
<path d="M70.7203 72.675C71.1451 72.675 71.4895 72.3306 71.4895 71.9059C71.4895 71.4811 71.1451 71.1367 70.7203 71.1367C70.2955 71.1367 69.9512 71.4811 69.9512 71.9059C69.9512 72.3306 70.2955 72.675 70.7203 72.675Z" fill="#00ADE9"/>
<path opacity="0.2" d="M70.9911 71.9475C71.1059 71.9475 71.199 71.8544 71.199 71.7396C71.199 71.6248 71.1059 71.5317 70.9911 71.5317C70.8763 71.5317 70.7832 71.6248 70.7832 71.7396C70.7832 71.8544 70.8763 71.9475 70.9911 71.9475Z" fill="#FFFEEF"/>
<path d="M77.9751 74.3588C78.5147 74.3588 78.9521 73.9214 78.9521 73.3818C78.9521 72.8422 78.5147 72.4048 77.9751 72.4048C77.4355 72.4048 76.998 72.8422 76.998 73.3818C76.998 73.9214 77.4355 74.3588 77.9751 74.3588Z" fill="#00ADE9"/>
<path opacity="0.2" d="M78.1205 73.1947C78.2583 73.1947 78.37 73.083 78.37 72.9452C78.37 72.8075 78.2583 72.6958 78.1205 72.6958C77.9828 72.6958 77.8711 72.8075 77.8711 72.9452C77.8711 73.083 77.9828 73.1947 78.1205 73.1947Z" fill="#FFFEEF"/>
<path d="M79.7415 73.6935C80.2352 73.6935 80.6354 73.2933 80.6354 72.7996C80.6354 72.306 80.2352 71.9058 79.7415 71.9058C79.2479 71.9058 78.8477 72.306 78.8477 72.7996C78.8477 73.2933 79.2479 73.6935 79.7415 73.6935Z" fill="#00ADE9"/>
<path opacity="0.2" d="M79.7209 72.5711C79.8471 72.5711 79.9495 72.4687 79.9495 72.3424C79.9495 72.2161 79.8471 72.1138 79.7209 72.1138C79.5946 72.1138 79.4922 72.2161 79.4922 72.3424C79.4922 72.4687 79.5946 72.5711 79.7209 72.5711Z" fill="#FFFEEF"/>
<path d="M80.9899 72.467C81.4146 72.467 81.759 72.1226 81.759 71.6979C81.759 71.2731 81.4146 70.9287 80.9899 70.9287C80.5651 70.9287 80.2207 71.2731 80.2207 71.6979C80.2207 72.1226 80.5651 72.467 80.9899 72.467Z" fill="#00ADE9"/>
<path opacity="0.2" d="M80.9051 71.532C81.02 71.532 81.113 71.4389 81.113 71.3241C81.113 71.2093 81.02 71.1162 80.9051 71.1162C80.7903 71.1162 80.6973 71.2093 80.6973 71.3241C80.6973 71.4389 80.7903 71.532 80.9051 71.532Z" fill="#FFFEEF"/>
<path d="M79.2845 86.1041L81.4048 82.0713H69.7637L72.7155 86.1041H79.2845Z" fill="#C42C76"/>
<path d="M75.2308 86.1038C73.6302 82.9232 70.2418 75.8554 69.8468 72.6333C68.5164 73.839 67.4978 74.2755 65.4606 74.9407C64.442 75.2733 62.0306 75.8346 60.1597 76.6038C58.9332 77.1235 56.1269 82.4659 54.3184 86.1038H75.2308Z" fill="#F99D1C"/>
<path d="M97.9725 86.104C95.1661 82.0296 91.8193 77.3108 91.5075 76.7495C90.8631 75.5646 88.0567 75.2112 87.0381 74.837C85.0009 74.0679 84.211 73.9431 82.3401 72.6543C81.3007 76.4792 78.2449 83.069 76.8105 86.0832H97.9725V86.104Z" fill="#F99D1C"/>
</g>
<defs>
<linearGradient id="paint0_linear_1610_6974" x1="30.7694" y1="80.5379" x2="30.7694" y2="52.2453" gradientUnits="userSpaceOnUse">
<stop stop-color="#FEDEC8"/>
<stop offset="1" stop-color="#EACDBA"/>
</linearGradient>
<linearGradient id="paint1_linear_1610_6974" x1="74.9817" y1="83.7428" x2="74.9817" y2="62.9185" gradientUnits="userSpaceOnUse">
<stop offset="0.293" stop-color="#F4D89A"/>
<stop offset="0.3714" stop-color="#F3D799"/>
<stop offset="1" stop-color="#DFC48E"/>
</linearGradient>
<radialGradient id="paint2_radial_1610_6974" cx="0" cy="0" r="1" gradientUnits="userSpaceOnUse" gradientTransform="translate(65.9162 56.3735) scale(2.90762)">
<stop stop-color="#EFB698"/>
<stop offset="1" stop-color="#F3D9A6"/>
</radialGradient>
<radialGradient id="paint3_radial_1610_6974" cx="0" cy="0" r="1" gradientUnits="userSpaceOnUse" gradientTransform="translate(84.4978 56.3735) scale(2.90762)">
<stop stop-color="#EFB698"/>
<stop offset="1" stop-color="#F3D9A6"/>
</radialGradient>
<clipPath id="clip0_1610_6974">
<rect width="152" height="86.1028" fill="white" transform="translate(0 0.00146484)"/>
</clipPath>
</defs>
</svg>
