<svg width="788" height="640" viewBox="0 0 788 640" fill="currentColor" xmlns="http://www.w3.org/2000/svg">
<path d="M148.83 167.449C143.631 156.672 136.019 138.091 130.82 123.784L127.85 124.155C128.964 140.693 130.078 164.291 130.078 177.855V211.486H105.199V100H143.074L162.569 137.348C169.624 151.098 177.051 170.236 181.507 183.615L184.477 183.243C183.178 167.078 182.249 147.568 182.249 134.375V100H206.943V211.486H171.481L148.83 167.449Z" />
<path d="M252.802 187.517H300.518V211.486H226.066V100H252.802V187.517Z" />
<path fill-rule="evenodd" clip-rule="evenodd" d="M105.384 248.649H152.905C192.08 248.649 209.347 268.066 209.347 303.091C209.347 338.117 188.516 359.791 153.369 360.126C153.091 360.135 152.812 360.135 152.534 360.135H105.384V330.842C106.74 318.458 111.056 308.368 122.837 305.33L122.859 305.324C122.885 305.317 122.908 305.312 122.93 305.312C123.459 305.228 123.719 304.81 123.719 304.392C123.719 303.974 123.459 303.546 122.93 303.463H122.92C122.907 303.463 122.894 303.459 122.881 303.455C122.865 303.45 122.847 303.444 122.827 303.444C111.047 300.406 106.74 290.317 105.384 277.932V248.649ZM150.492 338.209H132.12V334.14C132.12 320.279 137.876 308.638 150.686 305.33L150.709 305.324C150.735 305.317 150.757 305.312 150.779 305.312C151.308 305.228 151.568 304.81 151.568 304.392C151.568 303.974 151.308 303.546 150.779 303.463H150.77C150.77 303.463 150.754 303.46 150.734 303.456C150.716 303.453 150.694 303.449 150.677 303.444C137.866 300.137 132.12 288.496 132.12 274.634V270.76H149.563C173.143 270.76 182.611 279.493 182.611 303.091C182.611 326.689 173.7 338.209 150.492 338.209Z" />
<path fill-rule="evenodd" clip-rule="evenodd" d="M263.571 269.645C234.978 269.645 218.454 287.483 218.454 317.956C218.454 347.872 236.649 362.551 263.199 362.551C288.264 362.551 298.476 351.03 302.374 335.794L281.209 330.034C278.981 336.723 275.453 342.297 263.385 342.297C251.317 342.297 244.818 335.98 243.333 321.858H302.931C303.303 317.213 303.488 313.682 303.488 309.966C303.488 285.625 290.678 269.645 263.571 269.645ZM280.28 309.037H243.519C244.818 294.544 251.502 288.598 262.828 288.598C274.153 288.598 279.909 295.287 280.28 309.037Z" />
<path d="M312.215 334.865L334.866 330.22C337.094 339.882 343.035 344.899 353.989 344.899C362.53 344.899 366.8 342.111 366.986 336.351C366.986 330.963 363.458 327.99 347.305 324.831C323.169 319.628 315 311.639 315 296.588C315 279.679 327.068 269.645 351.947 269.645C376.826 269.645 385.924 279.679 389.08 295.101L366.614 299.747C364.572 290.642 360.487 287.111 351.39 287.111C343.035 287.111 338.95 289.899 338.95 295.101C338.95 299.932 341.364 303.463 357.146 306.622C384.624 312.382 391.308 321.486 391.308 335.236C391.308 352.331 379.982 362.736 353.432 362.736C323.726 362.736 314.628 350.845 312.215 334.865Z" />
<path d="M404.676 241.402V259.611H431.04V241.402H404.676Z" />
<path d="M405.223 272.061V360.135H430.474V272.061H405.223Z" />
<path fill-rule="evenodd" clip-rule="evenodd" d="M484.502 392.838C450.897 392.838 441.428 385.963 441.428 375C441.428 367.01 450.154 361.622 462.037 359.206V358.091C452.568 356.791 448.483 352.145 448.483 346.013C448.483 340.997 452.382 336.537 459.623 333.378L466.121 330.034C452.939 325.76 445.698 316.47 445.698 302.72C445.698 283.024 460.551 272.061 485.616 272.061H530.176V291.014H520.521C516.251 291.014 510.681 290.828 503.626 290.084L503.44 292.128C514.394 294.172 523.677 298.26 523.677 308.48C523.677 323.159 509.753 332.635 485.059 332.635C479.675 332.635 474.662 332.078 470.392 331.149L468.906 333.564C467.978 335.236 467.235 336.909 467.235 338.395C467.235 341.554 469.463 342.855 475.033 342.855C479.931 342.855 484.925 342.711 489.845 342.57L489.847 342.57C494.624 342.433 499.33 342.297 503.811 342.297C523.306 342.297 532.218 350.845 532.218 365.152C532.218 383.547 520.15 392.838 484.502 392.838ZM512.723 365.895C512.723 361.622 509.753 358.649 502.697 358.649H472.805C465.007 358.649 460.366 362.365 460.366 366.639C460.366 372.584 465.007 375.186 486.173 375.186C507.339 375.186 512.723 372.027 512.723 365.895ZM468.164 303.649C468.164 310.709 472.434 316.098 485.059 316.098C497.684 316.098 502.326 310.709 502.326 303.649C502.326 296.588 497.127 291.199 485.059 291.199C472.991 291.199 468.164 296.588 468.164 303.649Z" />
<path d="M542.615 360.135H567.866V311.081C567.866 300.118 574.735 292.5 585.504 292.5C594.787 292.5 598.872 298.632 598.872 307.551V360.135H624.122V300.49C624.122 281.351 615.581 269.645 598.686 269.645C584.947 269.645 574.178 278.564 568.98 295.659H567.309V272.061H542.615V360.135Z" />
<path d="M100 475.895L125.436 470.507C128.035 483.885 137.504 490.017 151.243 490.017C163.683 490.017 169.81 485.929 169.81 478.868C169.81 471.064 164.797 466.976 143.631 463.446C112.811 458.615 103.342 446.537 103.342 428.142C103.342 407.145 118.009 394.696 148.458 394.696C178.907 394.696 190.976 408.26 194.132 427.399L167.582 432.601C164.983 421.267 160.527 415.507 147.159 415.507C135.276 415.507 129.706 419.595 129.706 426.655C129.706 433.159 132.863 437.804 154.771 441.706C189.305 447.838 196.731 460.845 196.731 477.01C196.731 498.378 182.806 511.385 150.129 511.385C114.482 511.199 102.414 495.22 100 475.895Z" />
<path d="M206.757 517.331L203.044 538.699C207.686 539.443 211.399 540 217.526 540C239.62 540 250.76 530.709 259.3 509.155L294.02 420.709H266.913L258.743 453.598C257.278 459.829 255.492 466.702 253.649 473.795L253.649 473.797L253.646 473.809L253.643 473.82C252.685 477.507 251.711 481.254 250.76 485H247.603C245.968 478.67 244.204 472.149 242.5 465.848L242.499 465.842C241.302 461.418 240.135 457.103 239.063 453.041L230.337 420.709H202.673L235.721 507.669C231.636 516.959 226.995 518.632 218.083 518.632C214.369 518.632 210.47 518.074 206.757 517.331Z" />
<path d="M296.248 483.513L318.899 478.868C321.127 488.53 327.068 493.547 338.022 493.547C346.563 493.547 350.833 490.76 351.019 485C351.019 479.611 347.491 476.638 331.338 473.48C307.202 468.277 299.033 460.287 299.033 445.236C299.033 428.328 311.101 418.294 335.98 418.294C360.859 418.294 369.956 428.328 373.113 443.75L350.647 448.395C348.605 439.291 344.52 435.76 335.423 435.76C327.068 435.76 322.983 438.547 322.983 443.75C322.983 448.581 325.397 452.111 341.178 455.27C368.657 461.03 375.341 470.135 375.341 483.885C375.341 500.98 364.015 511.385 337.465 511.385C307.759 511.385 298.661 499.493 296.248 483.513Z" />
<path d="M382.396 440.777H393.164V481.098C393.164 497.821 401.705 511.385 422.128 511.385C431.783 511.385 436.239 510.084 442.923 508.041L440.138 485.372C436.796 486.486 432.525 487.601 428.626 487.601C421.014 487.601 418.415 484.071 418.415 477.01V440.777H441.623V420.709H418.415V398.041H393.164V420.709H382.396V440.777Z" />
<path fill-rule="evenodd" clip-rule="evenodd" d="M451.278 466.605C451.278 436.132 467.802 418.294 496.394 418.294C523.501 418.294 536.312 434.274 536.312 458.615C536.312 462.331 536.126 465.861 535.755 470.507H476.157C477.642 484.628 484.14 490.946 496.208 490.946C508.277 490.946 511.804 485.372 514.032 478.682L535.198 484.443C531.299 499.679 521.087 511.199 496.023 511.199C469.473 511.199 451.278 496.52 451.278 466.605ZM476.342 457.686H513.104C512.733 443.936 506.977 437.247 495.651 437.247C484.326 437.247 477.642 443.193 476.342 457.686Z" />
<path d="M550.237 508.784H575.487V459.73C575.487 448.767 582.357 441.149 593.125 441.149C602.223 441.149 606.493 447.28 606.493 456.199V508.784H631.744V459.73C631.744 448.767 638.427 441.149 649.196 441.149C658.479 441.149 662.564 447.28 662.564 456.199V508.784H688V449.138C688 430 679.274 418.294 662.007 418.294C647.525 418.294 637.499 427.399 632.672 444.679H630.63C629.516 428.142 621.903 418.294 606.308 418.294C592.383 418.294 581.8 427.213 576.787 444.307H574.93V420.709H550.237V508.784Z" />
</svg>
