<svg width="1245" height="640" viewBox="0 0 1245 640" fill="currentColor" xmlns="http://www.w3.org/2000/svg">
<path fill-rule="evenodd" clip-rule="evenodd" d="M105.137 100H506.468C509.302 100 511.606 102.303 511.606 105.136V305.745C511.606 333.486 506.16 360.44 495.406 385.845C485.038 410.351 470.209 432.349 451.33 451.223C432.451 470.096 410.447 484.921 385.934 495.287C360.513 506.029 333.561 511.481 305.803 511.481C278.045 511.481 251.084 506.038 225.672 495.287C201.159 484.921 179.155 470.096 160.276 451.223C141.397 432.349 126.568 410.351 116.199 385.845C105.454 360.44 100 333.486 100 305.745V105.136C100 102.303 102.303 100 105.137 100ZM305.794 134.88C300.469 129.616 293.114 126.363 284.955 126.449H284.972C259.115 126.714 246.349 157.956 264.603 176.257L303.174 214.911C303.268 215.006 303.362 215.091 303.457 215.176C304.15 215.793 304.989 216.058 305.811 216.058C306.633 216.067 307.464 215.785 308.166 215.177C308.26 215.091 308.354 215.006 308.44 214.911L347.011 176.257C365.265 157.965 352.491 126.723 326.642 126.449C318.474 126.355 311.12 129.607 305.794 134.88ZM305.803 444.76C382.603 444.76 444.857 382.524 444.857 305.745H444.865V219.345C444.865 216.512 442.562 214.21 439.728 214.21H387.946C347.345 214.21 313.628 243.654 306.993 282.343C306.89 282.96 306.342 283.396 305.717 283.345C305.161 283.302 304.715 282.891 304.621 282.343C297.977 243.654 264.26 214.21 223.668 214.21H171.886C169.052 214.21 166.749 216.512 166.749 219.345V305.745C166.749 382.524 229.002 444.76 305.803 444.76Z"/>
<path d="M587.224 123.784C592.428 138.091 600.049 156.672 605.253 167.449L627.928 211.486H663.428V100H638.708V134.375C638.708 147.568 639.637 167.078 640.938 183.243L637.965 183.615C633.504 170.236 626.069 151.098 619.007 137.348L599.491 100H561.575V211.486H586.481V177.855C586.481 164.291 585.365 140.693 584.25 124.155L587.224 123.784Z"/>
<path d="M757.1 187.517H709.333V100H682.569V211.486H757.1V187.517Z"/>
<path fill-rule="evenodd" clip-rule="evenodd" d="M561.771 248.649V360.135H608.971C644.657 360.135 665.845 338.395 665.845 303.091C665.845 267.787 648.56 248.649 609.343 248.649H561.771ZM588.526 338.209H606.927C630.16 338.209 639.081 326.689 639.081 303.091C639.081 279.493 629.602 270.76 605.997 270.76H588.526V338.209Z"/>
<path fill-rule="evenodd" clip-rule="evenodd" d="M674.949 317.956C674.949 287.483 691.491 269.645 720.113 269.645C747.249 269.645 760.074 285.625 760.074 309.966C760.074 313.682 759.888 317.213 759.516 321.858H699.854C701.341 335.979 707.846 342.297 719.928 342.297C732.009 342.297 735.54 336.723 737.77 330.034L758.959 335.794C755.056 351.03 744.833 362.55 719.742 362.55C693.163 362.55 674.949 347.871 674.949 317.956ZM700.04 309.037H736.841C736.469 295.287 730.708 288.598 719.37 288.598C708.032 288.598 701.341 294.544 700.04 309.037Z"/>
<path d="M791.487 330.219L768.811 334.865C771.228 350.844 780.335 362.736 810.073 362.736C836.651 362.736 847.989 352.331 847.989 335.236C847.989 321.486 841.298 312.381 813.79 306.621C797.992 303.463 795.576 299.932 795.576 295.101C795.576 289.898 799.665 287.111 808.028 287.111C817.136 287.111 821.225 290.642 823.269 299.746L845.759 295.101C842.599 279.679 833.492 269.645 808.586 269.645C783.68 269.645 771.599 279.679 771.599 296.588C771.599 311.638 779.777 319.628 803.94 324.831C820.11 327.99 823.641 330.963 823.641 336.351C823.455 342.111 819.18 344.898 810.631 344.898C799.665 344.898 793.717 339.881 791.487 330.219Z"/>
<path d="M861.369 259.612V241.402H887.761V259.612H861.369Z"/>
<path d="M861.926 360.135V272.061H887.204V360.135H861.926Z"/>
<path fill-rule="evenodd" clip-rule="evenodd" d="M898.162 375C898.162 385.963 907.641 392.838 941.282 392.838C976.968 392.838 989.049 383.547 989.049 365.152C989.049 350.845 980.128 342.297 960.612 342.297C956.126 342.297 951.415 342.433 946.633 342.57C941.708 342.711 936.708 342.855 931.803 342.855C926.227 342.855 923.997 341.554 923.997 338.395C923.997 336.909 924.741 335.236 925.67 333.564L927.157 331.149C931.432 332.078 936.45 332.635 941.84 332.635C966.56 332.635 980.499 323.159 980.499 308.48C980.499 298.26 971.206 294.172 960.24 292.128L960.426 290.084C967.489 290.828 973.065 291.014 977.34 291.014H987.005V272.061H942.398C917.306 272.061 902.437 283.024 902.437 302.72C902.437 316.47 909.686 325.76 922.882 330.034L916.377 333.378C909.128 336.537 905.225 340.997 905.225 346.014C905.225 352.145 909.314 356.791 918.793 358.091V359.206C906.898 361.622 898.162 367.01 898.162 375ZM959.497 358.649C966.56 358.649 969.534 361.622 969.534 365.895C969.534 372.027 964.144 375.186 942.955 375.186C921.767 375.186 917.12 372.584 917.12 366.639C917.12 362.365 921.767 358.649 929.573 358.649H959.497ZM941.84 316.098C929.201 316.098 924.926 310.709 924.926 303.649C924.926 296.588 929.759 291.199 941.84 291.199C953.921 291.199 959.125 296.588 959.125 303.649C959.125 310.709 954.479 316.098 941.84 316.098Z"/>
<path d="M1024.74 360.135H999.459V272.061H1024.18V295.659H1025.85C1031.06 278.564 1041.84 269.645 1055.59 269.645C1072.5 269.645 1081.05 281.351 1081.05 300.49V360.135H1055.78V307.55C1055.78 298.631 1051.69 292.5 1042.39 292.5C1031.61 292.5 1024.74 300.118 1024.74 311.081V360.135Z"/>
<path d="M581.833 470.507L556.369 475.895C558.786 495.22 570.867 511.199 606.552 511.385C639.264 511.385 653.204 498.378 653.204 477.01C653.204 460.845 645.77 447.838 611.199 441.706C589.267 437.804 586.108 433.159 586.108 426.655C586.108 419.595 591.683 415.507 603.579 415.507C616.961 415.507 621.421 421.267 624.024 432.601L650.602 427.399C647.442 408.26 635.361 394.696 604.88 394.696C574.398 394.696 559.715 407.145 559.715 428.142C559.715 446.537 569.194 458.615 600.047 463.446C621.236 466.976 626.254 471.064 626.254 478.868C626.254 485.929 620.12 490.017 607.668 490.017C593.914 490.017 584.435 483.885 581.833 470.507Z"/>
<path d="M659.523 538.699L663.241 517.331C666.958 518.074 670.861 518.632 674.578 518.632C683.5 518.632 688.146 516.959 692.235 507.669L659.152 420.709H686.845L695.581 453.041C696.654 457.104 697.823 461.42 699.021 465.846L699.022 465.849L699.026 465.862L699.027 465.866L699.031 465.881C700.734 472.171 702.496 478.681 704.131 485H707.29C708.245 481.245 709.222 477.491 710.183 473.796C712.028 466.702 713.816 459.829 715.282 453.598L723.46 420.709H750.596L715.84 509.155C707.29 530.709 696.138 540 674.021 540C667.887 540 664.17 539.443 659.523 538.699Z"/>
<path d="M775.504 478.868L752.829 483.513C755.245 499.493 764.352 511.385 794.09 511.385C820.669 511.385 832.007 500.98 832.007 483.885C832.007 470.135 825.315 461.03 797.808 455.27C782.009 452.111 779.593 448.581 779.593 443.75C779.593 438.547 783.682 435.76 792.046 435.76C801.153 435.76 805.242 439.29 807.287 448.395L829.776 443.75C826.617 428.327 817.509 418.294 792.604 418.294C767.698 418.294 755.617 428.327 755.617 445.236C755.617 460.287 763.795 468.277 787.957 473.479C804.127 476.638 807.659 479.611 807.659 485C807.473 490.76 803.198 493.547 794.648 493.547C783.682 493.547 777.734 488.53 775.504 478.868Z"/>
<path d="M849.846 440.777H839.066V420.71H849.846V398.041H875.124V420.71H898.357V440.777H875.124V477.01C875.124 484.071 877.726 487.602 885.346 487.602C889.249 487.602 893.524 486.487 896.87 485.372L899.658 508.041C892.967 510.085 888.506 511.385 878.841 511.385C858.396 511.385 849.846 497.821 849.846 481.098V440.777Z"/>
<path fill-rule="evenodd" clip-rule="evenodd" d="M953.186 418.294C924.563 418.294 908.021 436.132 908.021 466.604C908.021 496.52 926.236 511.199 952.815 511.199C977.906 511.199 988.128 499.679 992.031 484.442L970.843 478.682C968.613 485.371 965.081 490.946 953 490.946C940.919 490.946 934.414 484.628 932.927 470.507H992.589C992.961 465.861 993.147 462.331 993.147 458.615C993.147 434.273 980.322 418.294 953.186 418.294ZM969.914 457.686H933.113C934.414 443.192 941.105 437.246 952.443 437.246C963.78 437.246 969.542 443.936 969.914 457.686Z"/>
<path d="M1032.37 508.784H1007.09V420.709H1031.81V444.307H1033.67C1038.69 427.213 1049.28 418.294 1063.22 418.294C1078.83 418.294 1086.45 428.142 1087.57 444.679H1089.61C1094.45 427.398 1104.48 418.294 1118.98 418.294C1136.26 418.294 1145 430 1145 449.138V508.784H1119.54V456.199C1119.54 447.28 1115.45 441.148 1106.15 441.148C1095.37 441.148 1088.68 448.767 1088.68 459.73V508.784H1063.41V456.199C1063.41 447.28 1059.13 441.148 1050.02 441.148C1039.24 441.148 1032.37 448.767 1032.37 459.73V508.784Z"/>
</svg>
