<svg width="210" height="88" viewBox="0 0 210 88" fill="currentColor" xmlns="http://www.w3.org/2000/svg">
<path fill-rule="evenodd" clip-rule="evenodd" d="M1.94127 0H81.8852C82.4497 0 82.9085 0.460502 82.9085 1.02714V41.149C82.9085 46.6973 81.8238 52.0881 79.6817 57.169C77.6163 62.0702 74.6624 66.4698 70.9017 70.2445C67.1411 74.0192 62.7579 76.9843 57.8751 79.0574C52.8114 81.2058 47.4425 82.2963 41.9132 82.2963C36.384 82.2963 31.0133 81.2075 25.9514 79.0574C21.0685 76.9843 16.6854 74.0192 12.9247 70.2445C9.16409 66.4698 6.21015 62.0702 4.14479 57.169C2.00438 52.0881 0.917969 46.6973 0.917969 41.149V1.02714C0.917969 0.460502 1.37675 0 1.94127 0ZM41.9115 6.976C40.8507 5.92318 39.3857 5.27266 37.7603 5.28978H37.7637C32.6131 5.34285 30.0702 11.5913 33.7063 15.2513L41.3896 22.9823C41.4084 23.0011 41.4271 23.0182 41.4459 23.0353C41.584 23.1586 41.7512 23.2117 41.9149 23.2117C42.0787 23.2134 42.2441 23.1569 42.3839 23.0354C42.4027 23.0182 42.4215 23.0011 42.4385 22.9823L50.1218 15.2513C53.758 11.593 51.2133 5.34456 46.0644 5.28978C44.4374 5.27095 42.9723 5.92147 41.9115 6.976ZM41.9132 68.952C57.2116 68.952 69.6123 56.5048 69.6123 41.149H69.6141V23.8691C69.6141 23.3024 69.1553 22.8419 68.5907 22.8419H58.2758C50.1883 22.8419 43.4721 28.7309 42.1503 36.4687C42.1298 36.5919 42.0207 36.6792 41.8962 36.669C41.7853 36.6604 41.6966 36.5782 41.6779 36.4687C40.3544 28.7309 33.6381 22.8419 25.5523 22.8419H15.2374C14.6729 22.8419 14.2141 23.3024 14.2141 23.8691V41.149C14.2141 56.5048 26.6148 68.952 41.9132 68.952Z"/>
<path d="M97.9714 4.75676C99.0081 7.61824 100.526 11.3345 101.563 13.4899L106.08 22.2973H113.151V0H108.227V6.875C108.227 9.51352 108.412 13.4155 108.671 16.6486L108.079 16.723C107.19 14.0473 105.709 10.2196 104.302 7.4696L100.415 0H92.8622V22.2973H97.8233V15.5709C97.8233 12.8581 97.6012 8.13851 97.3791 4.83108L97.9714 4.75676Z"/>
<path d="M131.81 17.5034H122.295V0H116.964V22.2973H131.81V17.5034Z"/>
<path fill-rule="evenodd" clip-rule="evenodd" d="M92.9013 29.7297V52.027H102.303C109.412 52.027 113.633 47.6791 113.633 40.6183C113.633 33.5574 110.189 29.7297 102.377 29.7297H92.9013ZM98.2308 47.6419H101.896C106.524 47.6419 108.301 45.3378 108.301 40.6183C108.301 35.8987 106.413 34.152 101.711 34.152H98.2308V47.6419Z"/>
<path fill-rule="evenodd" clip-rule="evenodd" d="M115.446 43.5912C115.446 37.4966 118.741 33.929 124.443 33.929C129.848 33.929 132.403 37.1249 132.403 41.9932C132.403 42.7364 132.366 43.4425 132.292 44.3716H120.407C120.703 47.1959 121.999 48.4594 124.406 48.4594C126.812 48.4594 127.516 47.3445 127.96 46.0067L132.18 47.1587C131.403 50.206 129.367 52.5101 124.369 52.5101C119.074 52.5101 115.446 49.5743 115.446 43.5912ZM120.444 41.8074H127.775C127.701 39.0574 126.553 37.7195 124.294 37.7195C122.036 37.7195 120.703 38.9087 120.444 41.8074Z"/>
<path d="M138.66 46.0439L134.143 46.9729C134.624 50.1689 136.438 52.5472 142.362 52.5472C147.657 52.5472 149.915 50.4662 149.915 47.0472C149.915 44.2972 148.582 42.4763 143.103 41.3243C139.956 40.6925 139.474 39.9864 139.474 39.0202C139.474 37.9797 140.289 37.4222 141.955 37.4222C143.769 37.4222 144.584 38.1283 144.991 39.9493L149.471 39.0202C148.841 35.9358 147.027 33.929 142.066 33.929C137.105 33.929 134.698 35.9358 134.698 39.3175C134.698 42.3277 136.327 43.9256 141.14 44.9662C144.361 45.5979 145.065 46.1925 145.065 47.2702C145.028 48.4222 144.176 48.9797 142.473 48.9797C140.289 48.9797 139.104 47.9763 138.66 46.0439Z"/>
<path d="M152.58 31.9224V28.2805H157.837V31.9224H152.58Z"/>
<path d="M152.691 52.0271V34.4122H157.726V52.0271H152.691Z"/>
<path fill-rule="evenodd" clip-rule="evenodd" d="M159.909 55C159.909 57.1926 161.798 58.5676 168.499 58.5676C175.607 58.5676 178.014 56.7095 178.014 53.0304C178.014 50.1689 176.237 48.4595 172.349 48.4595C171.456 48.4595 170.517 48.4865 169.565 48.514C168.583 48.5422 167.587 48.5709 166.611 48.5709C165.5 48.5709 165.056 48.3108 165.056 47.6791C165.056 47.3818 165.204 47.0473 165.389 46.7128L165.685 46.2297C166.536 46.4155 167.536 46.527 168.61 46.527C173.534 46.527 176.311 44.6318 176.311 41.6959C176.311 39.652 174.459 38.8345 172.275 38.4257L172.312 38.0169C173.719 38.1655 174.83 38.2027 175.681 38.2027H177.606V34.4122H168.721C163.723 34.4122 160.761 36.6047 160.761 40.5439C160.761 43.2939 162.205 45.152 164.833 46.0068L163.538 46.6757C162.094 47.3074 161.316 48.1993 161.316 49.2027C161.316 50.4291 162.131 51.3581 164.019 51.6182V51.8412C161.649 52.3243 159.909 53.402 159.909 55ZM172.127 51.7297C173.534 51.7297 174.126 52.3243 174.126 53.1791C174.126 54.4054 173.053 55.0372 168.832 55.0372C164.611 55.0372 163.686 54.5169 163.686 53.3277C163.686 52.473 164.611 51.7297 166.166 51.7297H172.127ZM168.61 43.2196C166.092 43.2196 165.241 42.1419 165.241 40.7297C165.241 39.3176 166.203 38.2399 168.61 38.2399C171.016 38.2399 172.053 39.3176 172.053 40.7297C172.053 42.1419 171.127 43.2196 168.61 43.2196Z"/>
<path d="M185.123 52.027H180.087V34.4121H185.011V39.1317H185.345C186.381 35.7128 188.529 33.929 191.268 33.929C194.638 33.929 196.341 36.2702 196.341 40.0979V52.027H191.305V41.5101C191.305 39.7263 190.491 38.4999 188.64 38.4999C186.492 38.4999 185.123 40.0236 185.123 42.2162V52.027Z"/>
<path d="M96.8975 74.1013L91.8253 75.1791C92.3066 79.0439 94.7131 82.2399 101.822 82.277C108.338 82.277 111.114 79.6757 111.114 75.402C111.114 72.1689 109.634 69.5676 102.747 68.3412C98.3784 67.5608 97.749 66.6318 97.749 65.3311C97.749 63.9189 98.8597 63.1014 101.229 63.1014C103.895 63.1014 104.783 64.2534 105.302 66.5203L110.596 65.4797C109.967 61.652 107.56 58.9392 101.488 58.9392C95.4166 58.9392 92.4917 61.4291 92.4917 65.6284C92.4917 69.3074 94.3799 71.723 100.526 72.6892C104.746 73.3953 105.746 74.2128 105.746 75.7737C105.746 77.1858 104.524 78.0034 102.044 78.0034C99.304 78.0034 97.4158 76.777 96.8975 74.1013Z"/>
<path d="M112.373 87.7399L113.114 83.4662C113.854 83.6149 114.632 83.7264 115.372 83.7264C117.149 83.7264 118.075 83.3919 118.889 81.5338L112.299 64.1419H117.816L119.556 70.6081C119.77 71.4208 120.002 72.2841 120.241 73.1692L120.241 73.1698L120.242 73.1725L120.242 73.1732L120.243 73.1762C120.582 74.4342 120.933 75.7363 121.259 77H121.888C122.078 76.2491 122.273 75.4981 122.464 74.7591C122.832 73.3404 123.188 71.9658 123.48 70.7196L125.109 64.1419H130.515L123.591 81.8311C121.888 86.1419 119.667 88 115.261 88C114.039 88 113.299 87.8885 112.373 87.7399Z"/>
<path d="M135.476 75.7736L130.959 76.7027C131.441 79.8986 133.255 82.277 139.179 82.277C144.473 82.277 146.731 80.1959 146.731 76.777C146.731 74.027 145.398 72.206 139.919 71.054C136.772 70.4222 136.291 69.7162 136.291 68.75C136.291 67.7094 137.105 67.152 138.771 67.152C140.585 67.152 141.4 67.8581 141.807 69.679L146.287 68.75C145.658 65.6655 143.844 63.6587 138.882 63.6587C133.921 63.6587 131.515 65.6655 131.515 69.0472C131.515 72.0574 133.144 73.6554 137.957 74.6959C141.178 75.3277 141.881 75.9222 141.881 77C141.844 78.152 140.993 78.7094 139.29 78.7094C137.105 78.7094 135.921 77.706 135.476 75.7736Z"/>
<path d="M150.285 68.1554H148.138V64.1419H150.285V59.6081H155.32V64.1419H159.948V68.1554H155.32V75.4021C155.32 76.8142 155.838 77.5203 157.356 77.5203C158.134 77.5203 158.985 77.2973 159.652 77.0744L160.207 81.6081C158.874 82.0169 157.986 82.2771 156.061 82.2771C151.988 82.2771 150.285 79.5642 150.285 76.2196V68.1554Z"/>
<path fill-rule="evenodd" clip-rule="evenodd" d="M170.87 63.6587C165.168 63.6587 161.873 67.2263 161.873 73.3209C161.873 79.304 165.502 82.2398 170.796 82.2398C175.794 82.2398 177.83 79.9358 178.608 76.8885L174.387 75.7364C173.943 77.0743 173.239 78.1891 170.833 78.1891C168.426 78.1891 167.131 76.9256 166.834 74.1013H178.719C178.793 73.1722 178.83 72.4662 178.83 71.7229C178.83 66.8547 176.275 63.6587 170.87 63.6587ZM174.202 71.5371H166.871C167.131 68.6385 168.463 67.4493 170.722 67.4493C172.98 67.4493 174.128 68.7871 174.202 71.5371Z"/>
<path d="M186.642 81.7567H181.607V64.1418H186.531V68.8614H186.902C187.901 65.4425 190.012 63.6587 192.788 63.6587C195.898 63.6587 197.416 65.6283 197.638 68.9358H198.046C199.008 65.4797 201.008 63.6587 203.895 63.6587C207.339 63.6587 209.079 65.9999 209.079 69.8276V81.7567H204.006V71.2398C204.006 69.456 203.192 68.2297 201.341 68.2297C199.193 68.2297 197.861 69.7533 197.861 71.9459V81.7567H192.825V71.2398C192.825 69.456 191.974 68.2297 190.16 68.2297C188.012 68.2297 186.642 69.7533 186.642 71.9459V81.7567Z"/>
</svg>
