<svg width="85" height="85" viewBox="0 0 85 85" fill="var(--nlds-logo-color, #111111)" xmlns="http://www.w3.org/2000/svg">
<path fill-rule="evenodd" clip-rule="evenodd" d="M12.7622 12H72.2378C72.6593 12 73 12.3402 73 12.7612V42.5424C73 46.6505 72.191 50.6395 70.5985 54.3989C69.0613 58.0306 66.8642 61.2839 64.0667 64.0779C61.265 66.8719 58.0076 69.0663 54.3755 70.6015C50.6072 72.1963 46.6132 73 42.5 73C38.3868 73 34.3885 72.192 30.6244 70.6015C26.9924 69.0663 23.7308 66.8719 20.9333 64.0779C18.1358 61.2839 15.9386 58.0264 14.4015 54.3989C12.809 50.6395 12 46.6462 12 42.5424V12.7612C12 12.3402 12.3449 12 12.7622 12ZM42.5043 17.3454C41.6995 16.5671 40.5882 16.0823 39.3533 16.0951V16.0993C35.436 16.1376 33.5071 20.7773 36.2705 23.4947L42.1083 29.2316C42.1168 29.2379 42.1232 29.2443 42.1296 29.2507C42.1359 29.2571 42.1423 29.2635 42.1508 29.2698C42.2573 29.3634 42.385 29.4017 42.5085 29.4017C42.6362 29.4017 42.7597 29.3591 42.8662 29.2698L42.9088 29.2273L48.7465 23.4905C51.5099 20.773 49.5768 16.1376 45.6637 16.0951C44.4246 16.0823 43.3133 16.5629 42.5043 17.3454ZM21.8913 42.5424C21.8913 53.7014 31.1141 62.7468 42.4957 62.7468H42.4915C53.8731 62.7468 63.0959 53.7014 63.0959 42.5424V29.9843C63.0959 29.5718 62.7553 29.2358 62.3337 29.2358H54.6608C48.6443 29.2358 43.6496 33.514 42.666 39.136C42.6533 39.2253 42.5724 39.2891 42.4787 39.2806C42.3978 39.2764 42.3339 39.2126 42.3169 39.136C41.329 33.514 36.3344 29.2358 30.3221 29.2358H22.6492C22.232 29.2358 21.8913 29.5718 21.8913 29.9843V42.5424Z"/>
</svg>
