<svg width="588" height="440" viewBox="0 0 588 440" fill="currentColor" xmlns="http://www.w3.org/2000/svg">
<path d="M48.8298 67.4493C43.6312 56.6723 36.0189 38.0912 30.8203 23.7838L27.8497 24.1554C28.9637 40.6926 30.0777 64.2905 30.0777 77.8547V111.486H5.19861V0H43.0742L62.569 37.348C69.6242 51.098 77.0508 70.2365 81.5068 83.6149L84.4774 83.2432C83.1778 67.0777 82.2494 47.5676 82.2494 34.375V0H106.943V111.486H71.4809L48.8298 67.4493Z"/>
<path d="M152.802 87.5169H200.518V111.486H126.066V0H152.802V87.5169Z"/>
<path fill-rule="evenodd" clip-rule="evenodd" d="M5.38427 148.649H52.9051C92.0804 148.649 109.347 168.066 109.347 203.091C109.347 238.117 88.5156 259.791 53.3693 260.126C53.0908 260.135 52.8123 260.135 52.5338 260.135H5.38427V230.842C6.73963 218.458 11.0563 208.368 22.8368 205.33L22.8589 205.324C22.8855 205.317 22.9076 205.312 22.9296 205.312C23.4587 205.228 23.7187 204.81 23.7187 204.392C23.7187 203.974 23.4587 203.546 22.9296 203.463H22.9203C22.9074 203.463 22.8945 203.459 22.8806 203.455C22.8646 203.45 22.8474 203.444 22.8275 203.444C11.047 200.406 6.73963 190.317 5.38427 177.932V148.649ZM50.4915 238.209H32.12V234.14C32.12 220.279 37.8756 208.638 50.6865 205.33L50.7086 205.324C50.7352 205.317 50.7572 205.312 50.7793 205.312C51.3084 205.228 51.5684 204.81 51.5684 204.392C51.5684 203.974 51.3084 203.546 50.7793 203.463H50.77C50.77 203.463 50.7541 203.46 50.7337 203.456C50.7158 203.453 50.6945 203.449 50.6772 203.444C37.8663 200.137 32.12 188.496 32.12 174.634V170.76H49.5632C73.1426 170.76 82.6115 179.493 82.6115 203.091C82.6115 226.689 73.6996 238.209 50.4915 238.209Z"/>
<path fill-rule="evenodd" clip-rule="evenodd" d="M163.571 169.645C134.978 169.645 118.454 187.483 118.454 217.956C118.454 247.872 136.649 262.551 163.199 262.551C188.264 262.551 198.476 251.03 202.374 235.794L181.209 230.034C178.981 236.723 175.453 242.297 163.385 242.297C151.317 242.297 144.818 235.98 143.333 221.858H202.931C203.303 217.213 203.488 213.682 203.488 209.966C203.488 185.625 190.678 169.645 163.571 169.645ZM180.28 209.037H143.519C144.818 194.544 151.502 188.598 162.828 188.598C174.153 188.598 179.909 195.287 180.28 209.037Z"/>
<path d="M212.215 234.865L234.866 230.22C237.094 239.882 243.035 244.899 253.989 244.899C262.53 244.899 266.8 242.111 266.986 236.351C266.986 230.963 263.458 227.99 247.305 224.831C223.169 219.628 215 211.639 215 196.588C215 179.679 227.068 169.645 251.947 169.645C276.826 169.645 285.924 179.679 289.08 195.101L266.614 199.747C264.572 190.642 260.487 187.111 251.39 187.111C243.035 187.111 238.95 189.899 238.95 195.101C238.95 199.932 241.364 203.463 257.146 206.622C284.624 212.382 291.308 221.486 291.308 235.236C291.308 252.331 279.982 262.736 253.432 262.736C223.726 262.736 214.628 250.845 212.215 234.865Z"/>
<path d="M304.676 141.402V159.611H331.04V141.402H304.676Z"/>
<path d="M305.223 172.061V260.135H330.474V172.061H305.223Z"/>
<path fill-rule="evenodd" clip-rule="evenodd" d="M384.502 292.838C350.897 292.838 341.428 285.963 341.428 275C341.428 267.01 350.154 261.622 362.037 259.206V258.091C352.568 256.791 348.483 252.145 348.483 246.013C348.483 240.997 352.382 236.537 359.623 233.378L366.121 230.034C352.939 225.76 345.698 216.47 345.698 202.72C345.698 183.024 360.551 172.061 385.616 172.061H430.176V191.014H420.521C416.251 191.014 410.681 190.828 403.626 190.084L403.44 192.128C414.394 194.172 423.677 198.26 423.677 208.48C423.677 223.159 409.753 232.635 385.059 232.635C379.675 232.635 374.662 232.078 370.392 231.149L368.906 233.564C367.978 235.236 367.235 236.909 367.235 238.395C367.235 241.554 369.463 242.855 375.033 242.855C379.931 242.855 384.925 242.711 389.845 242.57L389.847 242.57C394.624 242.433 399.33 242.297 403.811 242.297C423.306 242.297 432.218 250.845 432.218 265.152C432.218 283.547 420.15 292.838 384.502 292.838ZM412.723 265.895C412.723 261.622 409.753 258.649 402.697 258.649H372.805C365.007 258.649 360.366 262.365 360.366 266.639C360.366 272.584 365.007 275.186 386.173 275.186C407.339 275.186 412.723 272.027 412.723 265.895ZM368.164 203.649C368.164 210.709 372.434 216.098 385.059 216.098C397.684 216.098 402.326 210.709 402.326 203.649C402.326 196.588 397.127 191.199 385.059 191.199C372.991 191.199 368.164 196.588 368.164 203.649Z"/>
<path d="M442.615 260.135H467.866V211.081C467.866 200.118 474.735 192.5 485.504 192.5C494.787 192.5 498.872 198.632 498.872 207.551V260.135H524.122V200.49C524.122 181.351 515.581 169.645 498.686 169.645C484.947 169.645 474.178 178.564 468.98 195.659H467.309V172.061H442.615V260.135Z"/>
<path d="M0 375.895L25.4361 370.507C28.0354 383.885 37.5043 390.017 51.2434 390.017C63.683 390.017 69.8099 385.929 69.8099 378.868C69.8099 371.064 64.797 366.976 43.6312 363.446C12.8109 358.615 3.34196 346.537 3.34196 328.142C3.34196 307.145 18.0095 294.696 48.4585 294.696C78.9075 294.696 90.9757 308.26 94.132 327.399L67.5819 332.601C64.9826 321.267 60.5267 315.507 47.1588 315.507C35.2763 315.507 29.7063 319.595 29.7063 326.655C29.7063 333.159 32.8626 337.804 54.7711 341.706C89.3047 347.838 96.7313 360.845 96.7313 377.01C96.7313 398.378 82.8064 411.385 50.1295 411.385C14.4818 411.199 2.41364 395.22 0 375.895Z"/>
<path d="M106.757 417.331L103.044 438.699C107.686 439.443 111.399 440 117.526 440C139.62 440 150.76 430.709 159.3 409.155L194.02 320.709H166.913L158.743 353.598C157.278 359.829 155.492 366.702 153.649 373.795L153.649 373.797L153.646 373.809L153.643 373.82C152.685 377.507 151.711 381.254 150.76 385H147.603C145.968 378.67 144.204 372.149 142.5 365.848L142.499 365.842C141.302 361.418 140.135 357.103 139.063 353.041L130.337 320.709H102.673L135.721 407.669C131.636 416.959 126.995 418.632 118.083 418.632C114.369 418.632 110.47 418.074 106.757 417.331Z"/>
<path d="M196.248 383.513L218.899 378.868C221.127 388.53 227.068 393.547 238.022 393.547C246.563 393.547 250.833 390.76 251.019 385C251.019 379.611 247.491 376.638 231.338 373.48C207.202 368.277 199.033 360.287 199.033 345.236C199.033 328.328 211.101 318.294 235.98 318.294C260.859 318.294 269.956 328.328 273.113 343.75L250.647 348.395C248.605 339.291 244.52 335.76 235.423 335.76C227.068 335.76 222.983 338.547 222.983 343.75C222.983 348.581 225.397 352.111 241.178 355.27C268.657 361.03 275.341 370.135 275.341 383.885C275.341 400.98 264.015 411.385 237.465 411.385C207.759 411.385 198.661 399.493 196.248 383.513Z"/>
<path d="M282.396 340.777H293.164V381.098C293.164 397.821 301.705 411.385 322.128 411.385C331.783 411.385 336.239 410.084 342.923 408.041L340.138 385.372C336.796 386.486 332.525 387.601 328.626 387.601C321.014 387.601 318.415 384.071 318.415 377.01V340.777H341.623V320.709H318.415V298.041H293.164V320.709H282.396V340.777Z"/>
<path fill-rule="evenodd" clip-rule="evenodd" d="M351.278 366.605C351.278 336.132 367.802 318.294 396.394 318.294C423.501 318.294 436.312 334.274 436.312 358.615C436.312 362.331 436.126 365.861 435.755 370.507H376.157C377.642 384.628 384.14 390.946 396.208 390.946C408.277 390.946 411.804 385.372 414.032 378.682L435.198 384.443C431.299 399.679 421.087 411.199 396.023 411.199C369.473 411.199 351.278 396.52 351.278 366.605ZM376.342 357.686H413.104C412.733 343.936 406.977 337.247 395.651 337.247C384.326 337.247 377.642 343.193 376.342 357.686Z"/>
<path d="M450.237 408.784H475.487V359.73C475.487 348.767 482.357 341.149 493.125 341.149C502.223 341.149 506.493 347.28 506.493 356.199V408.784H531.744V359.73C531.744 348.767 538.427 341.149 549.196 341.149C558.479 341.149 562.564 347.28 562.564 356.199V408.784H588V349.138C588 330 579.274 318.294 562.007 318.294C547.525 318.294 537.499 327.399 532.672 344.679H530.63C529.516 328.142 521.903 318.294 506.308 318.294C492.383 318.294 481.8 327.213 476.787 344.307H474.93V320.709H450.237V408.784Z"/>
</svg>
