<svg width="380" height="214" viewBox="0 0 380 214" fill="none" xmlns="http://www.w3.org/2000/svg">
<g clip-path="url(#clip0_1607_4332)">
<rect width="380" height="213.75" fill="#004152"/>
<g clip-path="url(#clip1_1607_4332)">
<path d="M171.575 153.216C171.575 153.216 164.35 142.229 166.744 139.664C169.138 137.099 174.268 132.097 189.402 131.67C204.535 131.2 211.931 137.612 212.444 143.683C212.914 149.796 171.575 153.216 171.575 153.216Z" fill="#727678"/>
<path d="M174.225 142.015C174.225 142.015 173.969 137.74 175.294 136.714C176.619 135.688 179.783 134.491 179.783 134.491L200.089 135.432C200.089 135.432 202.44 135.175 202.739 137.056C202.996 138.937 201.628 141.417 201.628 141.417L174.225 142.015Z" fill="#868E95"/>
<path d="M227.192 154.755C227.192 154.755 225.995 148.984 216.675 145.863C207.356 142.742 200.217 139.579 200.217 132.952C200.217 126.326 200.217 115.468 200.217 115.468H188.931H177.645C177.645 115.468 177.645 126.283 177.645 132.952C177.645 139.579 170.548 142.742 161.186 145.863C151.866 148.984 150.669 154.755 150.669 154.755L124.977 213.451H141.136L156.398 180.02L162.682 213.451H188.931H215.179L221.463 180.02L236.725 213.451H252.885L227.192 154.755Z" fill="url(#paint0_linear_1607_4332)"/>
<path d="M175.807 137.954C175.807 137.954 187.392 154.242 202.269 137.526L188.119 175.916L175.807 137.954Z" fill="white"/>
<path d="M229.671 65.1936C229.671 97.5553 218.171 123.975 188.674 123.975C159.176 123.975 148.232 97.2133 148.232 64.8516C148.232 32.4898 175.678 25.9491 189.144 25.9491C202.61 25.9491 229.671 32.8318 229.671 65.1936Z" fill="#FEDEC8"/>
<path d="M174.523 104.609C179.012 107.302 183.757 107.73 188.631 107.644C193.504 107.644 198.164 107.046 202.824 104.609C201.114 106.618 196.326 110.124 188.631 110.124C180.936 110.124 176.105 106.747 174.523 104.609Z" fill="#A59088"/>
<path d="M179.44 85.9273C179.44 90.3733 175.807 93.9643 171.318 93.9643C166.829 93.9643 163.195 90.3733 163.195 85.9273C163.195 81.4813 166.829 77.8903 171.318 77.8903C175.807 77.8903 179.44 81.4813 179.44 85.9273Z" fill="#AAB8BA"/>
<path d="M177.345 85.9273C177.345 89.048 174.823 91.5703 171.745 91.5703C168.624 91.5703 166.145 89.048 166.145 85.9273C166.145 82.8493 168.667 80.327 171.745 80.327C174.823 80.327 177.345 82.8493 177.345 85.9273Z" fill="#2A1D01"/>
<path d="M169.351 83.0203C169.351 83.918 168.624 84.6448 167.726 84.6448C166.828 84.6448 166.102 83.918 166.102 83.0203C166.102 82.1225 166.828 81.3958 167.726 81.3958C168.624 81.3958 169.351 82.1225 169.351 83.0203Z" fill="white"/>
<path d="M199.361 85.9273C199.361 90.3733 202.995 93.9643 207.484 93.9643C211.973 93.9643 215.606 90.3733 215.606 85.9273C215.606 81.4813 211.973 77.8903 207.484 77.8903C202.995 77.8903 199.361 81.4813 199.361 85.9273Z" fill="#AAB8BA"/>
<path d="M201.457 85.9273C201.457 89.048 203.979 91.5703 207.057 91.5703C210.178 91.5703 212.658 89.048 212.658 85.9273C212.658 82.8493 210.135 80.327 207.057 80.327C203.979 80.327 201.457 82.8493 201.457 85.9273Z" fill="#2A1D01"/>
<path d="M201.756 83.0203C201.756 83.918 202.483 84.6448 203.38 84.6448C204.278 84.6448 205.005 83.918 205.005 83.0203C205.005 82.1225 204.278 81.3958 203.38 81.3958C202.483 81.3958 201.756 82.1225 201.756 83.0203Z" fill="white"/>
<path d="M172.516 109.055C172.644 108.371 172.9 107.73 173.157 107.089C173.413 106.447 173.713 105.849 174.012 105.208C174.311 104.609 174.696 104.011 175.081 103.455C175.465 102.899 175.893 102.343 176.363 101.83C176.192 102.514 175.936 103.156 175.636 103.797C175.38 104.438 175.081 105.037 174.739 105.635C174.439 106.234 174.055 106.832 173.713 107.388C173.328 107.986 172.943 108.542 172.516 109.055Z" fill="#E4C8B6"/>
<path d="M204.877 109.055C204.45 108.585 204.108 108.115 203.766 107.602C203.424 107.089 203.124 106.576 202.825 106.063C202.526 105.55 202.269 104.994 202.056 104.438C201.799 103.882 201.585 103.327 201.457 102.685C201.927 103.113 202.269 103.583 202.654 104.096C202.996 104.609 203.338 105.122 203.595 105.635C203.894 106.148 204.15 106.704 204.364 107.302C204.578 107.858 204.792 108.457 204.877 109.055Z" fill="#E4C8B6"/>
<path d="M196.285 114.356C195.088 114.741 193.848 114.997 192.565 115.126C191.326 115.297 190.043 115.339 188.761 115.339C187.478 115.297 186.238 115.254 184.999 115.083C184.357 114.997 183.759 114.912 183.118 114.784C182.818 114.741 182.519 114.655 182.177 114.57L181.707 114.442L181.493 114.399L181.365 114.356H181.322H181.279L181.707 114.442L182.177 114.527C182.476 114.57 182.818 114.613 183.118 114.655C183.759 114.741 184.357 114.826 184.999 114.869C186.238 114.997 187.521 115.083 188.761 115.083C190 115.126 191.283 115.04 192.523 114.955C193.164 114.912 193.762 114.826 194.404 114.741C195.045 114.57 195.686 114.484 196.285 114.356Z" fill="#E4C8B6"/>
<path d="M181.492 145.735L180.21 144.666L172.515 141.032C172.515 141.032 154.902 148.129 152.85 149.411L157.68 168.52L156.27 183.055L161.742 213.451H189.358V162.108L181.492 145.735Z" fill="#B3CCDB"/>
<path d="M189.401 182.842C182.732 183.226 169.352 183.996 166.402 184.552L166.316 187.843C170.591 187.245 182.519 186.561 189.401 186.219V182.842Z" fill="#E9EEF2"/>
<path d="M182.261 147.359C176.532 149.24 163.793 153.43 161.1 154.926L161.997 158.089C166.144 156.08 177.729 151.976 183.501 150.01L182.261 147.359Z" fill="#E9EEF2"/>
<path d="M189.401 175.916C184.143 176.386 169.095 177.883 165.932 178.78L166.145 182.029C170.72 180.961 183.502 179.422 189.401 178.78V175.916Z" fill="#E9EEF2"/>
<path d="M181.962 213.066H185.81C185.81 213.066 184.271 165.058 179.996 144.58L176.062 142.742C178.072 149.71 180.765 167.537 181.962 213.066Z" fill="#CCD8E0"/>
<path d="M172.985 213.451C172.472 199.942 170.42 156.679 165.931 143.683C164.905 144.11 163.793 144.538 162.725 145.008C164.606 149.967 167.726 165.4 169.18 213.451H172.985Z" fill="#CCD8E0"/>
<path d="M172.001 141.246C171.402 141.502 170.205 141.973 168.752 142.571C170.633 147.06 174.01 162.193 175.464 213.493H179.311C178.926 202.934 176.917 154.37 172.001 141.246Z" fill="#CCD8E0"/>
<path d="M189.401 164.972C189.273 163.775 189.145 162.578 189.016 161.381L184.57 152.19C186.024 162.92 187.52 180.961 188.332 211.356H189.358L189.401 164.972Z" fill="#CCD8E0"/>
<path d="M178.371 141.844C178.371 141.844 162.725 147.487 159.305 149.539L160.331 152.66C165.845 149.753 180.295 144.153 180.295 144.153L178.371 141.844Z" fill="#E9EEF2"/>
<path d="M185.296 153.643C180.337 154.969 165.545 159.073 162.553 160.483L163.322 163.647C167.939 161.68 181.448 157.705 186.578 156.208L185.296 153.643Z" fill="#E9EEF2"/>
<path d="M188.375 160.013C183.16 161.21 167.086 164.929 163.965 166.126L164.435 169.375C169.138 167.879 189.401 163.262 189.401 163.262V162.151L188.375 160.013Z" fill="#E9EEF2"/>
<path d="M189.358 168.52C183.886 169.29 167.855 171.513 164.691 172.411L164.862 175.66C169.437 174.634 183.031 172.753 189.401 171.898L189.358 168.52Z" fill="#E9EEF2"/>
<path d="M178.457 155.524C178.585 156.465 178.714 157.448 178.799 158.517C179.911 158.175 181.022 157.833 182.048 157.534C181.92 156.55 181.792 155.567 181.663 154.627C180.68 154.883 179.569 155.225 178.457 155.524Z" fill="#F2F6F9"/>
<path d="M179.184 162.151C179.312 163.219 179.397 164.331 179.526 165.485C180.637 165.229 181.791 164.972 182.86 164.716C182.732 163.604 182.646 162.45 182.518 161.381C181.449 161.638 180.338 161.894 179.184 162.151Z" fill="#F2F6F9"/>
<path d="M172.301 160.526C173.37 160.184 174.438 159.842 175.55 159.5C175.422 158.474 175.293 157.448 175.165 156.422C174.096 156.721 172.985 157.063 171.916 157.363C172.044 158.389 172.173 159.415 172.301 160.526Z" fill="#F2F6F9"/>
<path d="M165.29 156.636C166.274 156.251 167.342 155.824 168.454 155.396C168.283 154.285 168.112 153.216 167.941 152.233C166.787 152.66 165.718 153.045 164.777 153.387C164.948 154.327 165.119 155.439 165.29 156.636Z" fill="#F2F6F9"/>
<path d="M170.975 151.121C171.146 152.062 171.317 153.088 171.488 154.242C172.556 153.857 173.625 153.472 174.694 153.088C174.523 152.019 174.352 151.036 174.181 150.052C173.112 150.394 172.001 150.736 170.975 151.121Z" fill="#F2F6F9"/>
<path d="M179.867 169.888C179.953 170.957 180.038 172.069 180.124 173.223C181.278 173.052 182.432 172.881 183.544 172.753C183.458 171.641 183.373 170.53 183.244 169.418C182.176 169.546 181.064 169.717 179.867 169.888Z" fill="#F2F6F9"/>
<path d="M177.516 180.234C177.431 179.208 177.345 178.182 177.26 177.156C176.106 177.284 174.951 177.412 173.84 177.541C173.925 178.567 173.968 179.593 174.054 180.704C175.165 180.533 176.319 180.405 177.516 180.234Z" fill="#F2F6F9"/>
<path d="M187.007 179.08C187.862 178.994 188.674 178.909 189.358 178.823V175.959C188.674 176.044 187.776 176.087 186.793 176.215C186.878 177.113 186.921 178.096 187.007 179.08Z" fill="#F2F6F9"/>
<path d="M185.895 164.032C187.177 163.732 188.289 163.476 189.229 163.262C189.187 162.621 189.101 161.98 189.058 161.338L188.374 160.013C187.648 160.184 186.707 160.398 185.596 160.654C185.681 161.723 185.767 162.835 185.895 164.032Z" fill="#F2F6F9"/>
<path d="M180.595 179.849C181.792 179.678 182.946 179.55 184.057 179.422C183.972 178.438 183.929 177.455 183.844 176.472C182.732 176.6 181.578 176.686 180.381 176.814C180.466 177.797 180.509 178.823 180.595 179.849Z" fill="#F2F6F9"/>
<path d="M172.643 163.732C172.771 164.801 172.856 165.913 172.985 167.067C174.053 166.81 175.165 166.554 176.276 166.255C176.148 165.143 176.063 164.032 175.934 162.92C174.823 163.219 173.711 163.476 172.643 163.732Z" fill="#F2F6F9"/>
<path d="M176.96 173.65C176.874 172.539 176.789 171.427 176.66 170.359C175.506 170.53 174.395 170.701 173.283 170.872C173.369 171.94 173.454 173.052 173.54 174.163C174.694 173.992 175.848 173.821 176.96 173.65Z" fill="#F2F6F9"/>
<path d="M169.308 161.509C169.179 160.398 169.051 159.329 168.88 158.303C167.726 158.645 166.614 158.987 165.674 159.329C165.802 160.355 165.93 161.467 166.101 162.621C167.042 162.279 168.111 161.894 169.308 161.509Z" fill="#F2F6F9"/>
<path d="M177.73 183.526C176.533 183.611 175.336 183.697 174.225 183.782C174.267 184.851 174.353 185.962 174.396 187.074C175.55 186.988 176.747 186.903 177.944 186.817C177.901 185.749 177.816 184.637 177.73 183.526Z" fill="#F2F6F9"/>
<path d="M177.473 148.941C177.644 149.839 177.772 150.822 177.943 151.891C179.054 151.506 180.123 151.121 181.149 150.779C180.978 149.796 180.85 148.813 180.679 147.872C179.696 148.171 178.584 148.556 177.473 148.941Z" fill="#F2F6F9"/>
<path d="M176.789 145.478C178.029 145.008 179.012 144.58 179.611 144.367L176.105 142.742C176.319 143.512 176.576 144.409 176.789 145.478Z" fill="#F2F6F9"/>
<path d="M186.322 168.948C186.408 170.017 186.493 171.128 186.579 172.282C187.605 172.154 188.588 172.026 189.4 171.898V168.52C188.588 168.649 187.519 168.777 186.322 168.948Z" fill="#F2F6F9"/>
<path d="M184.783 153.772C184.911 154.669 184.997 155.61 185.125 156.636C185.638 156.465 186.108 156.337 186.536 156.208L185.296 153.601C185.125 153.686 184.954 153.729 184.783 153.772Z" fill="#F2F6F9"/>
<path d="M170.377 148.086C171.446 147.616 172.515 147.188 173.541 146.803C173.327 145.735 173.07 144.794 172.857 143.896C171.831 144.281 170.762 144.709 169.65 145.136C169.864 145.948 170.121 146.932 170.377 148.086Z" fill="#F2F6F9"/>
<path d="M164.264 150.736C165.247 150.309 166.316 149.839 167.384 149.368C167.171 148.257 166.914 147.231 166.658 146.29C165.546 146.718 164.477 147.188 163.494 147.573C163.751 148.428 164.007 149.497 164.264 150.736Z" fill="#F2F6F9"/>
<path d="M170.634 174.634C170.548 173.522 170.42 172.453 170.335 171.342C169.052 171.556 167.941 171.727 167 171.94C167.086 173.009 167.171 174.078 167.257 175.232C168.283 175.018 169.394 174.847 170.634 174.634Z" fill="#F2F6F9"/>
<path d="M171.188 181.132C171.103 180.063 171.017 178.994 170.932 177.925C169.606 178.096 168.452 178.267 167.512 178.438C167.597 179.507 167.683 180.576 167.725 181.687C168.709 181.516 169.906 181.345 171.188 181.132Z" fill="#F2F6F9"/>
<path d="M169.991 167.794C169.863 166.682 169.777 165.571 169.649 164.502C168.409 164.801 167.298 165.1 166.357 165.357C166.486 166.426 166.571 167.494 166.699 168.649C167.683 168.392 168.794 168.093 169.991 167.794Z" fill="#F2F6F9"/>
<path d="M171.402 183.996C170.034 184.124 168.837 184.21 167.896 184.338C167.982 185.407 168.025 186.475 168.11 187.587C169.136 187.501 170.333 187.373 171.616 187.288C171.53 186.219 171.445 185.107 171.402 183.996Z" fill="#F2F6F9"/>
<path d="M184.314 183.141C183.16 183.226 182.005 183.269 180.766 183.355C180.808 184.423 180.894 185.535 180.937 186.689C182.134 186.604 183.331 186.561 184.485 186.475C184.485 185.364 184.399 184.252 184.314 183.141Z" fill="#F2F6F9"/>
<path d="M189.358 182.842C188.717 182.884 187.99 182.927 187.221 182.97C187.263 184.039 187.349 185.193 187.392 186.304C188.076 186.262 188.76 186.219 189.358 186.219V182.842Z" fill="#F2F6F9"/>
<path d="M177.217 135.688C177.217 135.688 175.763 136.33 175.678 137.484C175.592 138.638 181.577 145.435 181.449 145.692C181.449 145.692 180.936 144.837 180.167 147.188C179.183 150.01 177.516 153.772 177.516 153.772C177.516 153.772 170.377 144.025 170.377 141.844C170.377 141.331 173.925 136.244 177.388 134.919C177.388 134.919 177.345 135.175 177.26 135.346C177.174 135.517 177.217 135.688 177.217 135.688Z" fill="#B3CCDB"/>
<path d="M180.382 146.675C179.185 145.093 174.781 139.237 174.354 138.082C174.268 137.826 174.268 137.441 174.311 137.014C173.67 137.612 173.071 138.211 172.516 138.852C172.601 139.151 172.772 139.493 172.986 139.921C173.713 141.289 177.902 147.103 179.398 149.24C179.655 148.556 179.911 147.829 180.168 147.188C180.253 147.017 180.339 146.846 180.382 146.675Z" fill="#E9EEF2"/>
<path d="M178.542 151.506C176.961 149.24 172.002 142.058 171.574 140.947C171.489 140.733 171.489 140.476 171.489 140.177C170.805 141.075 170.42 141.759 170.42 141.93C170.42 144.11 177.559 153.857 177.559 153.857C177.559 153.857 177.987 152.831 178.542 151.506Z" fill="#E9EEF2"/>
<path d="M178.757 142.144C178.244 141.502 177.774 140.861 177.303 140.263C177.132 140.305 176.876 140.348 176.577 140.562C176.192 140.818 174.14 144.238 172.857 146.846C173.413 147.744 174.012 148.642 174.567 149.497C175.294 147.872 177.474 143.084 178.757 142.144Z" fill="#CCD8E0"/>
<path d="M180.167 147.231C180.979 144.88 181.449 145.735 181.449 145.735C181.492 145.649 180.979 145.008 180.295 144.11H180.252C180.252 144.11 179.782 144.025 179.269 144.751C178.884 145.307 177.046 149.326 176.105 151.848C176.918 153.045 177.516 153.814 177.516 153.814C177.516 153.814 179.226 150.01 180.167 147.231Z" fill="#CCD8E0"/>
<path d="M170.42 141.887C170.42 142.315 170.676 143.041 171.147 143.896C172.429 142.101 174.738 139.023 176.191 138.638C175.892 138.125 175.678 137.74 175.721 137.527C175.764 137.185 175.892 136.885 176.063 136.672C175.935 136.543 175.635 136.287 175.208 136.33C172.6 138.296 170.42 141.502 170.42 141.887Z" fill="#CCD8E0"/>
<path d="M172.986 139.963C173.071 140.177 173.285 140.476 173.499 140.818C174.012 140.22 174.525 139.707 174.995 139.279C174.653 138.724 174.396 138.296 174.311 138.082C174.225 137.826 174.225 137.441 174.268 137.014C173.627 137.612 173.028 138.211 172.473 138.852C172.601 139.151 172.772 139.493 172.986 139.963Z" fill="#F2F6F9"/>
<path d="M179.141 145.008C178.884 145.435 178.5 146.29 178.029 147.274C178.585 148.043 179.098 148.727 179.44 149.24C179.483 149.112 179.526 148.984 179.568 148.855V148.813C179.697 148.471 179.825 148.171 179.91 147.872C179.953 147.787 179.953 147.701 179.996 147.616C180.039 147.487 180.081 147.359 180.124 147.231C180.21 147.017 180.252 146.846 180.338 146.718C180.124 146.333 179.654 145.735 179.141 145.008Z" fill="#F2F6F9"/>
<path d="M172.344 142.272C171.959 141.631 171.66 141.16 171.574 140.904C171.489 140.69 171.489 140.434 171.489 140.134C170.89 140.904 170.505 141.545 170.42 141.802C170.42 141.844 170.42 141.844 170.42 141.887C170.42 141.887 170.42 141.887 170.42 141.93C170.42 141.973 170.42 142.058 170.42 142.101C170.42 142.144 170.42 142.186 170.463 142.229C170.463 142.272 170.463 142.272 170.463 142.315C170.463 142.357 170.505 142.443 170.505 142.486C170.634 142.87 170.847 143.341 171.104 143.896C171.489 143.426 171.873 142.87 172.344 142.272Z" fill="#F2F6F9"/>
<path d="M177.089 149.411C176.747 150.266 176.405 151.121 176.148 151.848C176.961 153.045 177.559 153.814 177.559 153.814C177.559 153.814 177.987 152.831 178.542 151.506C178.2 150.993 177.687 150.266 177.089 149.411Z" fill="#F2F6F9"/>
<path d="M174.952 146.248L174.61 145.777C174.396 145.435 174.183 145.093 173.969 144.794C173.584 145.521 173.199 146.248 172.857 146.889C173.413 147.787 174.012 148.684 174.567 149.539C174.781 149.026 175.166 148.171 175.636 147.231C175.38 146.932 175.166 146.59 174.952 146.248Z" fill="#F2F6F9"/>
<path d="M176.234 141.032C175.935 141.46 175.464 142.186 174.994 142.999L176.619 145.307C177.003 144.538 177.431 143.811 177.816 143.255C177.26 142.528 176.704 141.759 176.234 141.032Z" fill="#F2F6F9"/>
<path d="M170.676 142.87C171.103 143.854 171.659 144.794 172.215 145.692C172.771 146.59 173.369 147.487 173.968 148.385C175.165 150.181 176.447 151.933 177.687 153.686L177.345 153.729C178.157 151.677 178.927 149.625 179.782 147.616C179.995 147.103 180.209 146.59 180.466 146.119C180.508 145.991 180.594 145.863 180.679 145.735C180.808 145.564 180.893 145.435 181.107 145.393C181.192 145.35 181.363 145.393 181.449 145.435C181.492 145.478 181.534 145.521 181.577 145.564C181.62 145.606 181.62 145.649 181.663 145.692L181.834 146.077L183.244 149.069C184.185 151.036 185.125 153.045 186.023 155.011C186.964 157.021 187.861 158.987 188.759 160.996C187.776 159.03 186.75 157.063 185.809 155.097C184.826 153.13 183.843 151.164 182.902 149.197L181.449 146.248L181.278 145.863C181.278 145.82 181.278 145.82 181.235 145.82C181.235 145.82 181.235 145.82 181.192 145.777C181.192 145.777 181.192 145.777 181.15 145.777C181.107 145.777 181.107 145.82 181.064 145.82C181.021 145.863 181.021 145.906 180.979 145.906C180.936 146.034 180.85 146.119 180.808 146.248C180.594 146.718 180.38 147.231 180.166 147.744C179.311 149.753 178.499 151.805 177.687 153.814L177.559 154.114L177.345 153.857C176.062 152.104 174.865 150.309 173.711 148.471C173.113 147.573 172.557 146.632 172.044 145.692C171.574 144.837 171.018 143.896 170.676 142.87Z" fill="#759AAC"/>
<path d="M196.456 145.735L197.738 144.666L205.433 141.032C205.433 141.032 223.046 148.129 225.098 149.411L220.268 168.52L221.678 183.055L216.206 213.451H188.59V162.108L196.456 145.735Z" fill="#B3CCDB"/>
<path d="M188.547 182.842C195.216 183.226 208.597 183.996 211.546 184.552L211.632 187.843C207.357 187.245 195.43 186.561 188.547 186.219V182.842Z" fill="#E9EEF2"/>
<path d="M195.687 147.359C201.416 149.24 214.155 153.43 216.848 154.926L215.951 158.089C211.804 156.08 200.219 151.976 194.447 150.01L195.687 147.359Z" fill="#E9EEF2"/>
<path d="M188.547 175.916C193.805 176.386 208.853 177.883 212.017 178.78L211.803 182.029C207.229 180.961 194.446 179.422 188.547 178.78V175.916Z" fill="#E9EEF2"/>
<path d="M195.943 213.066H192.096C192.096 213.066 193.635 165.058 197.91 144.58L201.843 142.742C199.876 149.71 197.183 167.537 195.943 213.066Z" fill="#CCD8E0"/>
<path d="M204.92 213.451C205.433 199.942 207.485 156.679 211.974 143.683C213 144.11 214.111 144.538 215.18 145.008C213.299 149.967 210.178 165.4 208.725 213.451H204.92Z" fill="#CCD8E0"/>
<path d="M205.904 141.246C206.503 141.502 207.699 141.973 209.153 142.571C207.272 147.06 203.895 162.193 202.441 213.493H198.594C199.021 202.934 201.031 154.37 205.904 141.246Z" fill="#CCD8E0"/>
<path d="M188.547 164.972C188.675 163.775 188.803 162.578 188.932 161.381L193.378 152.19C191.924 162.92 190.428 180.961 189.616 211.356H188.59L188.547 164.972Z" fill="#CCD8E0"/>
<path d="M199.533 141.844C199.533 141.844 215.18 147.487 218.6 149.539L217.574 152.66C212.059 149.753 197.609 144.153 197.609 144.153L199.533 141.844Z" fill="#E9EEF2"/>
<path d="M192.652 153.643C197.611 154.969 212.402 159.073 215.395 160.483L214.625 163.647C210.008 161.68 196.499 157.705 191.369 156.208L192.652 153.643Z" fill="#E9EEF2"/>
<path d="M189.573 160.013C194.788 161.21 210.862 164.929 213.983 166.126L213.513 169.375C208.81 167.879 188.547 163.262 188.547 163.262V162.151L189.573 160.013Z" fill="#E9EEF2"/>
<path d="M188.59 168.52C194.062 169.29 210.093 171.513 213.256 172.411L213.085 175.702C208.511 174.676 194.917 172.795 188.547 171.94L188.59 168.52Z" fill="#E9EEF2"/>
<path d="M199.491 155.524C199.363 156.465 199.235 157.448 199.149 158.517C198.038 158.175 196.926 157.833 195.9 157.534C196.029 156.55 196.157 155.567 196.285 154.627C197.268 154.883 198.337 155.225 199.491 155.524Z" fill="#F2F6F9"/>
<path d="M198.764 162.151C198.636 163.219 198.551 164.331 198.422 165.485C197.311 165.229 196.157 164.972 195.088 164.716C195.216 163.604 195.302 162.45 195.43 161.381C196.499 161.638 197.61 161.894 198.764 162.151Z" fill="#F2F6F9"/>
<path d="M205.647 160.526C204.579 160.184 203.51 159.842 202.398 159.5C202.527 158.474 202.655 157.448 202.783 156.422C203.852 156.721 204.963 157.063 206.032 157.363C205.904 158.389 205.776 159.415 205.647 160.526Z" fill="#F2F6F9"/>
<path d="M212.658 156.636C211.674 156.251 210.606 155.824 209.494 155.396C209.665 154.285 209.836 153.216 210.007 152.233C211.161 152.66 212.23 153.045 213.171 153.387C213 154.327 212.829 155.439 212.658 156.636Z" fill="#F2F6F9"/>
<path d="M206.971 151.121C206.8 152.062 206.629 153.088 206.458 154.242C205.389 153.857 204.321 153.472 203.252 153.088C203.423 152.019 203.594 151.036 203.765 150.052C204.834 150.394 205.902 150.736 206.971 151.121Z" fill="#F2F6F9"/>
<path d="M198.038 169.888C197.952 170.957 197.867 172.069 197.781 173.223C196.627 173.052 195.473 172.881 194.361 172.753C194.447 171.641 194.532 170.53 194.661 169.418C195.772 169.546 196.884 169.717 198.038 169.888Z" fill="#F2F6F9"/>
<path d="M200.432 180.234C200.517 179.208 200.603 178.182 200.688 177.156C201.842 177.284 202.997 177.412 204.108 177.541C204.023 178.567 203.98 179.593 203.894 180.704C202.783 180.533 201.629 180.405 200.432 180.234Z" fill="#F2F6F9"/>
<path d="M190.941 179.08C190.086 178.994 189.274 178.909 188.59 178.823V175.959C189.274 176.044 190.172 176.087 191.155 176.215C191.069 177.113 190.984 178.096 190.941 179.08Z" fill="#F2F6F9"/>
<path d="M192.053 164.032C190.771 163.732 189.659 163.476 188.719 163.262C188.761 162.621 188.847 161.98 188.89 161.338L189.574 160.013C190.3 160.184 191.241 160.398 192.352 160.654C192.267 161.723 192.139 162.835 192.053 164.032Z" fill="#F2F6F9"/>
<path d="M197.353 179.849C196.156 179.678 195.002 179.55 193.891 179.422C193.976 178.438 194.019 177.455 194.104 176.472C195.216 176.6 196.37 176.686 197.567 176.814C197.482 177.797 197.396 178.823 197.353 179.849Z" fill="#F2F6F9"/>
<path d="M205.263 163.732C205.134 164.801 205.049 165.913 204.921 167.067C203.852 166.81 202.74 166.554 201.629 166.255C201.757 165.143 201.843 164.032 201.971 162.92C203.125 163.219 204.194 163.476 205.263 163.732Z" fill="#F2F6F9"/>
<path d="M200.945 173.65C201.031 172.539 201.116 171.427 201.245 170.359C202.399 170.53 203.51 170.701 204.622 170.872C204.536 171.94 204.451 173.052 204.365 174.163C203.254 173.992 202.1 173.821 200.945 173.65Z" fill="#F2F6F9"/>
<path d="M208.639 161.509C208.767 160.398 208.895 159.329 209.066 158.303C210.22 158.645 211.332 158.987 212.272 159.329C212.144 160.355 212.016 161.467 211.845 162.621C210.904 162.279 209.793 161.894 208.639 161.509Z" fill="#F2F6F9"/>
<path d="M200.218 183.526C201.415 183.611 202.612 183.697 203.723 183.782C203.68 184.851 203.595 185.962 203.552 187.074C202.398 186.988 201.201 186.903 200.004 186.817C200.047 185.749 200.132 184.637 200.218 183.526Z" fill="#F2F6F9"/>
<path d="M200.473 148.941C200.302 149.839 200.174 150.822 200.003 151.891C198.892 151.506 197.823 151.121 196.797 150.779C196.968 149.796 197.096 148.813 197.267 147.872C198.25 148.171 199.319 148.556 200.473 148.941Z" fill="#F2F6F9"/>
<path d="M201.157 145.478C199.918 145.008 198.934 144.58 198.336 144.367L201.841 142.742C201.628 143.512 201.371 144.409 201.157 145.478Z" fill="#F2F6F9"/>
<path d="M191.625 168.948C191.539 170.017 191.454 171.128 191.368 172.282C190.342 172.154 189.359 172.026 188.547 171.898V168.52C189.359 168.649 190.428 168.777 191.625 168.948Z" fill="#F2F6F9"/>
<path d="M193.163 153.772C193.035 154.669 192.949 155.61 192.821 156.636C192.308 156.465 191.838 156.337 191.41 156.208L192.65 153.601C192.821 153.686 192.992 153.729 193.163 153.772Z" fill="#F2F6F9"/>
<path d="M207.57 148.086C206.501 147.616 205.432 147.188 204.406 146.803C204.62 145.735 204.876 144.794 205.09 143.896C206.116 144.281 207.185 144.709 208.296 145.136C208.04 145.948 207.826 146.932 207.57 148.086Z" fill="#F2F6F9"/>
<path d="M213.683 150.736C212.7 150.309 211.631 149.839 210.562 149.368C210.776 148.257 211.033 147.231 211.289 146.29C212.401 146.718 213.47 147.188 214.453 147.573C214.196 148.428 213.94 149.497 213.683 150.736Z" fill="#F2F6F9"/>
<path d="M207.271 174.634C207.357 173.522 207.485 172.453 207.571 171.342C208.853 171.556 209.965 171.727 210.905 171.94C210.82 173.009 210.734 174.078 210.649 175.232C209.665 175.018 208.511 174.847 207.271 174.634Z" fill="#F2F6F9"/>
<path d="M206.758 181.132C206.843 180.063 206.929 178.994 207.014 177.925C208.34 178.096 209.494 178.267 210.434 178.438C210.349 179.507 210.263 180.576 210.221 181.687C209.195 181.516 208.04 181.345 206.758 181.132Z" fill="#F2F6F9"/>
<path d="M207.955 167.794C208.083 166.682 208.169 165.571 208.297 164.502C209.537 164.801 210.648 165.1 211.589 165.357C211.461 166.426 211.375 167.494 211.247 168.649C210.264 168.392 209.152 168.093 207.955 167.794Z" fill="#F2F6F9"/>
<path d="M206.544 183.996C207.912 184.124 209.109 184.21 210.049 184.338C209.964 185.407 209.921 186.475 209.836 187.587C208.81 187.501 207.613 187.373 206.33 187.288C206.373 186.219 206.458 185.107 206.544 183.996Z" fill="#F2F6F9"/>
<path d="M193.634 183.141C194.788 183.226 195.942 183.269 197.182 183.355C197.139 184.423 197.054 185.535 197.011 186.689C195.814 186.604 194.617 186.561 193.463 186.475C193.463 185.364 193.548 184.252 193.634 183.141Z" fill="#F2F6F9"/>
<path d="M188.59 182.842C189.231 182.884 189.958 182.927 190.727 182.97C190.685 184.039 190.599 185.193 190.556 186.304C189.872 186.262 189.188 186.219 188.59 186.219V182.842Z" fill="#F2F6F9"/>
<path d="M200.687 135.688C200.687 135.688 202.141 136.33 202.226 137.484C202.312 138.681 196.327 145.435 196.455 145.692C196.455 145.692 196.968 144.837 197.738 147.188C198.721 150.01 200.388 153.772 200.388 153.772C200.388 153.772 207.527 144.025 207.527 141.844C207.527 141.331 203.979 136.244 200.516 134.919C200.516 134.919 200.559 135.175 200.645 135.346C200.73 135.517 200.687 135.688 200.687 135.688Z" fill="#B3CCDB"/>
<path d="M197.566 146.675C198.763 145.093 203.167 139.237 203.594 138.082C203.68 137.826 203.68 137.441 203.637 137.014C204.278 137.612 204.877 138.211 205.432 138.852C205.347 139.151 205.176 139.493 204.962 139.921C204.235 141.289 200.046 147.103 198.55 149.24C198.293 148.556 198.037 147.829 197.78 147.188C197.695 147.017 197.609 146.846 197.566 146.675Z" fill="#E9EEF2"/>
<path d="M199.404 151.506C200.986 149.24 205.945 142.058 206.373 140.947C206.458 140.733 206.458 140.476 206.458 140.177C207.142 141.075 207.527 141.759 207.527 141.93C207.527 144.11 200.388 153.857 200.388 153.857C200.388 153.857 199.96 152.831 199.404 151.506Z" fill="#E9EEF2"/>
<path d="M199.191 142.144C199.704 141.502 200.175 140.861 200.645 140.263C200.816 140.305 201.072 140.348 201.372 140.562C201.756 140.818 203.808 144.238 205.091 146.846C204.535 147.744 203.937 148.642 203.381 149.497C202.611 147.872 200.474 143.084 199.191 142.144Z" fill="#CCD8E0"/>
<path d="M197.738 147.231C196.926 144.88 196.456 145.735 196.456 145.735C196.413 145.649 196.926 145.008 197.61 144.11H197.653C197.653 144.11 198.123 144.025 198.636 144.751C199.021 145.307 200.859 149.326 201.799 151.848C200.987 153.045 200.389 153.814 200.389 153.814C200.389 153.814 198.721 150.01 197.738 147.231Z" fill="#CCD8E0"/>
<path d="M207.484 141.887C207.484 142.315 207.228 143.041 206.757 143.896C205.475 142.101 203.166 139.023 201.713 138.638C202.012 138.125 202.226 137.74 202.183 137.527C202.14 137.185 202.012 136.885 201.841 136.672C201.969 136.543 202.269 136.287 202.696 136.33C205.347 138.296 207.484 141.502 207.484 141.887Z" fill="#CCD8E0"/>
<path d="M204.919 139.963C204.834 140.177 204.62 140.476 204.406 140.818C203.893 140.22 203.38 139.707 202.91 139.279C203.252 138.724 203.509 138.296 203.594 138.082C203.68 137.826 203.68 137.441 203.637 137.014C204.278 137.612 204.877 138.211 205.432 138.852C205.304 139.151 205.176 139.493 204.919 139.963Z" fill="#F2F6F9"/>
<path d="M198.806 145.008C199.063 145.435 199.448 146.29 199.918 147.274C199.362 148.043 198.849 148.727 198.507 149.24C198.464 149.112 198.422 148.984 198.379 148.855V148.813C198.251 148.471 198.122 148.171 198.037 147.872C197.994 147.787 197.994 147.701 197.951 147.616C197.909 147.487 197.866 147.359 197.823 147.231C197.738 147.017 197.695 146.846 197.609 146.718C197.823 146.333 198.293 145.735 198.806 145.008Z" fill="#F2F6F9"/>
<path d="M205.604 142.272C205.988 141.631 206.288 141.16 206.373 140.904C206.459 140.69 206.459 140.434 206.459 140.134C207.057 140.904 207.442 141.545 207.527 141.802C207.527 141.844 207.527 141.844 207.527 141.887C207.527 141.887 207.527 141.887 207.527 141.93C207.527 141.973 207.527 142.058 207.527 142.101C207.527 142.144 207.527 142.186 207.485 142.229C207.485 142.272 207.485 142.272 207.485 142.315C207.485 142.357 207.442 142.443 207.442 142.486C207.314 142.87 207.1 143.341 206.843 143.896C206.459 143.426 206.031 142.87 205.604 142.272Z" fill="#F2F6F9"/>
<path d="M200.815 149.411C201.157 150.266 201.499 151.121 201.755 151.848C200.943 153.045 200.345 153.814 200.345 153.814C200.345 153.814 199.917 152.831 199.361 151.506C199.746 150.993 200.259 150.266 200.815 149.411Z" fill="#F2F6F9"/>
<path d="M202.997 146.248L203.339 145.777C203.552 145.435 203.766 145.093 203.98 144.794C204.365 145.521 204.749 146.248 205.091 146.889C204.536 147.787 203.937 148.684 203.381 149.539C203.168 149.026 202.783 148.171 202.312 147.231C202.526 146.932 202.783 146.59 202.997 146.248Z" fill="#F2F6F9"/>
<path d="M201.715 141.032C202.014 141.46 202.484 142.186 202.954 142.999L201.33 145.307C200.945 144.538 200.518 143.811 200.133 143.255C200.646 142.528 201.202 141.759 201.715 141.032Z" fill="#F2F6F9"/>
<path d="M207.272 142.87C206.93 143.896 206.374 144.837 205.861 145.777C205.305 146.718 204.749 147.616 204.194 148.556C203.039 150.352 201.842 152.19 200.56 153.943L200.346 154.199L200.218 153.9C199.406 151.891 198.636 149.924 197.781 147.958C197.567 147.445 197.354 146.974 197.14 146.504C197.097 146.376 197.012 146.248 196.969 146.162L196.883 145.991C196.841 145.948 196.841 145.906 196.798 145.906C196.712 145.82 196.67 145.82 196.67 145.82L196.627 145.863L196.541 146.034L195.131 148.941C194.19 150.865 193.25 152.788 192.266 154.712C191.326 156.636 190.343 158.56 189.359 160.441C190.257 158.474 191.112 156.55 192.053 154.584C192.95 152.66 193.848 150.694 194.789 148.77L196.157 145.863L196.242 145.692C196.285 145.606 196.37 145.521 196.456 145.435C196.584 145.393 196.712 145.35 196.798 145.393C196.883 145.435 196.969 145.478 197.054 145.521C197.097 145.564 197.183 145.649 197.225 145.735L197.311 145.906C197.396 146.034 197.439 146.162 197.482 146.29C197.696 146.761 197.909 147.274 198.123 147.787C198.935 149.753 199.748 151.762 200.517 153.772L200.175 153.729C201.415 151.976 202.697 150.223 203.894 148.428C204.493 147.53 205.091 146.632 205.647 145.735C206.288 144.794 206.844 143.854 207.272 142.87Z" fill="#759AAC"/>
<path d="M228.347 81.3958C228.347 81.3958 224.542 78.788 223.217 73.2733C220.823 63.1843 223.645 52.4968 215.223 50.402C203.167 47.4095 176.149 44.3743 161.486 50.4875C154.005 53.6083 156.698 62.7995 154.347 71.8625C152.637 78.446 149.217 80.327 149.217 80.327C149.217 80.327 148.576 77.8475 147.763 74.2993C147.721 74.0855 147.464 74.171 147.421 73.9573C147.379 73.829 147.55 73.3588 147.507 73.2305C147.421 72.803 147.208 71.8625 147.208 71.8625L146.609 70.2808L146.438 70.6655L146.31 70.0243L145.925 69.383V67.673L145.882 67.2455L145.412 67.2028L145.583 64.8943L145.498 64.253L145.027 62.7568L145.241 60.9613L144.814 60.1918L145.198 59.1658L144.643 58.8238L145.241 56.8145L144.942 56.2588L145.797 53.5655L145.284 52.454L145.968 51.6418L145.54 50.8723L146.224 47.8798L146.096 46.811L146.695 46.3408L146.609 45.3148L147.208 44.4598L147.037 43.391L147.763 42.536L147.208 41.7665L148.191 41.0398L148.148 40.0993L150.029 38.5175L159.733 30.5233L177.945 23.0848L180.937 23.9825L192.865 22.1443L194.019 23.9825L206.716 25.1368L210.178 27.2743L220.225 29.2408L219.37 30.2668L227.107 36.722L228.304 37.2778L232.024 49.718L233.349 51.4708L232.109 52.7533L231.211 62.885L230.613 63.569L230.698 73.5298L231.639 73.9145L229.63 69.1265C230.57 73.658 228.347 81.3958 228.347 81.3958Z" fill="#EFEFED"/>
<path d="M188.546 176.771V177.498L188.973 213.45H158.364L157.253 189.382L146.993 213.45H123.48C123.48 213.45 148.575 155.567 149.173 153.173C149.772 150.822 151.781 147.316 157.552 146.205C163.323 145.136 187.691 173.992 188.546 176.771Z" fill="#5B6882"/>
<path d="M188.546 176.771C188.546 176.771 187.135 173.095 184.784 168.349C183.416 165.613 181.749 162.45 179.868 159.457C177.816 156.123 175.507 152.959 173.113 150.736C163.366 141.502 168.796 137.698 171.574 135.774L170.933 135.004C170.933 135.004 165.931 133.252 162.212 138.467C161.443 139.579 159.177 140.134 158.536 142.913C157.937 145.735 156.142 142.144 155.928 147.744C155.714 153.344 164.221 155.781 170.933 159.628C176.234 162.664 184.1 171.598 187.178 175.232C188.033 176.173 188.546 176.771 188.546 176.771Z" fill="#697895"/>
<path d="M184.783 168.392C183.415 165.656 181.748 162.492 179.867 159.5C177.815 156.165 175.507 153.002 173.113 150.779C163.366 141.545 168.795 137.74 171.574 135.816L172.258 133.251C172.258 133.251 167.812 134.192 166.059 135.004C164.99 136.329 164.263 140.006 164.691 142.742C165.674 148.983 175.207 157.063 177.687 161.851C178.371 163.219 179.995 166.169 181.192 168.52C183.971 171.384 185.724 173.479 187.177 175.189C187.99 176.172 188.503 176.771 188.503 176.771C188.503 176.771 187.135 173.094 184.783 168.392Z" fill="#7D8DA8"/>
<path d="M177.688 130.131C177.688 130.131 167 133.807 167 140.091C167 145.264 172.643 150.651 174.652 152.617C176.662 154.584 178.799 157.79 178.799 157.79C177.303 153.814 171.104 145.008 171.104 141.588C171.104 138.766 170.42 136.5 177.645 133.422C177.688 133.422 177.688 131.712 177.688 130.131Z" fill="#AAAEB0"/>
<path d="M168.454 138.638C170.036 135.474 174.054 132.781 177.688 131.627C177.688 130.857 177.688 130.815 177.688 130.131C177.688 130.131 174.268 130.857 171.276 133.38C171.147 134.064 170.934 134.662 170.634 134.919C169.865 135.688 169.395 135.389 168.155 138.168C166.915 140.946 168.924 145.05 169.993 146.504L170.036 146.162C170.079 146.247 166.872 141.801 168.454 138.638Z" fill="#C3C7C9"/>
<path d="M184.266 171.026C184.305 170.603 183.842 170.213 183.231 170.156C182.62 170.098 182.092 170.395 182.052 170.818C182.013 171.241 182.476 171.631 183.087 171.688C183.698 171.745 184.226 171.449 184.266 171.026Z" fill="#465266"/>
<path d="M182.989 170.444C180.553 167.922 178.03 165.399 175.423 163.048C174.781 162.45 174.097 161.894 173.371 161.381C172.644 160.911 171.874 160.483 171.062 160.098L166.317 157.704C164.735 156.892 163.153 156.08 161.657 155.182C160.888 154.712 160.161 154.242 159.434 153.686C159.263 153.558 159.092 153.387 158.921 153.258C158.75 153.13 158.579 152.959 158.408 152.831C158.237 152.66 158.066 152.489 157.938 152.361L157.51 151.848C157.211 151.506 156.955 151.164 156.655 150.822C156.399 150.48 156.1 150.095 155.886 149.667C155.8 149.454 155.715 149.197 155.715 148.941C155.715 148.684 155.758 148.47 155.758 148.257L155.929 146.931C155.971 146.504 156.057 146.034 156.142 145.606C156.228 145.179 156.356 144.708 156.698 144.366C156.784 144.281 156.912 144.238 157.04 144.195L157.382 144.153C157.596 144.11 157.81 144.067 157.981 143.982C158.365 143.768 158.536 143.34 158.622 142.913H158.665C158.622 143.34 158.494 143.853 158.066 144.067C157.852 144.195 157.639 144.238 157.425 144.281L157.126 144.366C157.04 144.409 156.955 144.452 156.869 144.495C156.57 144.794 156.484 145.221 156.399 145.649C156.313 146.076 156.271 146.504 156.271 146.974C156.228 147.402 156.228 147.872 156.142 148.299C156.1 148.513 156.1 148.727 156.1 148.941C156.1 149.154 156.142 149.325 156.228 149.496C156.399 149.881 156.698 150.223 156.955 150.522C157.211 150.864 157.51 151.206 157.81 151.506C158.878 152.874 160.375 153.857 161.871 154.755C163.367 155.695 164.906 156.507 166.488 157.32L171.19 159.756C171.96 160.184 172.772 160.569 173.499 161.082C174.226 161.595 174.91 162.193 175.551 162.792C178.159 165.271 180.595 167.836 182.989 170.444Z" fill="#465266"/>
<path d="M183.587 171.47H182.732V200.198H183.587V171.47Z" fill="#465266"/>
<path d="M188.076 213.45H188.931C188.931 213.45 189.657 178.524 188.076 175.83L187.605 175.659C187.605 175.702 188.973 183.611 188.076 213.45Z" fill="#697895"/>
<path d="M157.466 189.425L157.039 189.339C157.081 189.126 160.715 165.827 157.594 159.5C154.516 153.216 149.344 152.831 149.301 152.831L149.344 152.403C149.386 152.403 150.754 152.489 152.464 153.387C154.046 154.199 156.312 155.909 157.979 159.286C161.143 165.741 157.594 188.442 157.466 189.425Z" fill="#465266"/>
<path d="M166.231 135.859C165.846 136.8 165.633 137.826 165.504 138.809C165.333 139.792 165.248 140.818 165.333 141.802C165.419 142.785 165.718 143.768 166.103 144.666C166.53 145.564 167.001 146.461 167.556 147.316C168.625 149.026 169.908 150.651 171.19 152.233C171.831 153.045 172.515 153.814 173.157 154.584C173.755 155.396 174.396 156.208 174.952 157.063L172.815 154.84C172.173 154.071 171.489 153.259 170.848 152.489C169.566 150.907 168.283 149.283 167.172 147.53C166.616 146.675 166.103 145.735 165.675 144.794C165.248 143.854 164.949 142.828 164.863 141.759C164.82 140.733 164.863 139.664 165.034 138.638C165.162 138.125 165.333 137.655 165.504 137.142C165.761 136.757 165.975 136.287 166.231 135.859Z" fill="#92A1B7"/>
<path d="M189.4 176.771V177.498L188.973 213.45H219.582L220.693 189.382L230.953 213.45H254.466C254.466 213.45 229.371 155.567 228.773 153.173C228.174 150.822 226.165 147.316 220.394 146.205C214.623 145.136 190.255 173.992 189.4 176.771Z" fill="#5B6882"/>
<path d="M189.4 176.771C189.4 176.771 190.811 173.095 193.162 168.349C194.53 165.613 196.198 162.45 198.079 159.457C200.131 156.123 202.439 152.959 204.833 150.736C214.58 141.502 209.151 137.698 206.372 135.774L207.013 135.004C207.013 135.004 212.015 133.252 215.734 138.467C216.504 139.579 218.77 140.134 219.411 142.913C220.009 145.735 221.805 142.144 222.019 147.744C222.232 153.344 213.725 155.781 207.013 159.628C201.712 162.664 193.846 171.598 190.768 175.232C189.913 176.173 189.4 176.771 189.4 176.771Z" fill="#697895"/>
<path d="M193.163 168.392C194.531 165.656 196.198 162.492 198.079 159.5C200.131 156.165 202.439 153.002 204.833 150.779C214.58 141.545 209.151 137.74 206.372 135.816L205.688 133.251C205.688 133.251 210.134 134.192 211.887 135.004C212.956 136.329 213.683 140.006 213.255 142.742C212.272 148.983 202.739 157.063 200.259 161.851C199.575 163.219 197.951 166.169 196.754 168.52C193.975 171.384 192.222 173.479 190.769 175.189C189.956 176.172 189.443 176.771 189.443 176.771C189.443 176.771 190.811 173.094 193.163 168.392Z" fill="#7D8DA8"/>
<path d="M200.26 129.703C200.26 129.703 210.947 133.807 210.947 140.092C210.947 145.264 205.304 150.651 203.295 152.617C201.286 154.584 199.148 157.79 199.148 157.79C200.645 153.814 206.843 145.008 206.843 141.588C206.843 138.766 207.527 136.501 200.303 133.423C200.26 133.423 200.26 131.285 200.26 129.703Z" fill="#AAAEB0"/>
<path d="M209.494 138.638C207.912 135.474 203.894 132.781 200.26 131.627C200.26 130.857 200.26 130.387 200.26 129.703C200.26 129.703 203.68 130.644 206.672 133.209C206.801 133.893 207.014 134.705 207.314 134.962C208.083 135.731 208.553 135.432 209.793 138.21C211.033 140.989 209.024 145.093 207.955 146.547L207.912 146.205C207.869 146.247 211.076 141.801 209.494 138.638Z" fill="#C3C7C9"/>
<path d="M194.858 171.677C195.469 171.62 195.932 171.23 195.893 170.807C195.853 170.384 195.325 170.088 194.714 170.145C194.103 170.202 193.64 170.592 193.679 171.015C193.719 171.438 194.247 171.735 194.858 171.677Z" fill="#465266"/>
<path d="M194.959 170.444C197.396 167.879 199.832 165.314 202.44 162.877C203.081 162.279 203.765 161.68 204.492 161.167C205.219 160.654 206.031 160.27 206.801 159.842L211.503 157.405C213.085 156.593 214.624 155.738 216.12 154.84C217.616 153.9 219.113 152.959 220.181 151.591C220.481 151.249 220.78 150.907 221.036 150.608C221.293 150.266 221.592 149.924 221.763 149.582C221.849 149.411 221.891 149.197 221.891 149.026C221.891 148.813 221.891 148.599 221.849 148.385C221.806 147.958 221.763 147.487 221.72 147.06C221.678 146.632 221.635 146.162 221.592 145.735C221.507 145.307 221.421 144.88 221.122 144.58C221.036 144.495 220.951 144.452 220.865 144.452L220.566 144.367C220.352 144.324 220.139 144.238 219.925 144.153C219.497 143.896 219.369 143.426 219.326 142.999H219.369C219.455 143.426 219.626 143.896 220.01 144.067C220.181 144.153 220.395 144.196 220.609 144.238L220.951 144.281C221.079 144.324 221.207 144.367 221.293 144.452C221.678 144.794 221.763 145.264 221.849 145.692C221.934 146.119 221.977 146.59 222.062 147.017L222.233 148.342C222.276 148.556 222.276 148.77 222.276 149.026C222.276 149.283 222.191 149.539 222.105 149.753C221.891 150.181 221.635 150.523 221.336 150.907C221.079 151.249 220.78 151.591 220.481 151.933L220.053 152.446C219.882 152.617 219.754 152.788 219.583 152.917C219.412 153.088 219.241 153.216 219.07 153.344C218.899 153.472 218.728 153.643 218.557 153.772C217.83 154.285 217.103 154.798 216.334 155.268C214.795 156.166 213.256 156.978 211.674 157.79L206.929 160.184C206.159 160.612 205.347 160.996 204.62 161.467C203.894 161.98 203.252 162.535 202.568 163.134C199.918 165.4 197.438 167.922 194.959 170.444Z" fill="#465266"/>
<path d="M195.214 171.47H194.359V200.198H195.214V171.47Z" fill="#465266"/>
<path d="M189.828 213.451H188.973C188.973 213.451 188.247 178.524 189.828 175.831L190.299 175.66C190.341 175.702 188.973 183.611 189.828 213.451Z" fill="#697895"/>
<path d="M220.481 189.425C220.31 188.442 216.804 165.784 219.968 159.329C221.635 155.952 223.901 154.242 225.483 153.43C227.235 152.532 228.561 152.446 228.603 152.446L228.646 152.874C228.603 152.874 223.388 153.301 220.353 159.543C217.275 165.87 220.908 189.169 220.908 189.382L220.481 189.425Z" fill="#465266"/>
<path d="M211.717 135.859C211.973 136.287 212.187 136.757 212.401 137.27C212.572 137.74 212.743 138.253 212.871 138.766C213.042 139.792 213.128 140.818 213.042 141.887C212.957 142.956 212.657 143.982 212.23 144.922C211.802 145.863 211.289 146.761 210.734 147.658C209.622 149.411 208.382 151.036 207.057 152.617C206.416 153.43 205.732 154.199 205.091 154.969L202.953 157.192C203.552 156.337 204.15 155.524 204.749 154.712C205.39 153.943 206.074 153.173 206.715 152.361C207.998 150.779 209.28 149.155 210.349 147.445C210.905 146.59 211.375 145.692 211.802 144.794C212.187 143.854 212.486 142.913 212.572 141.93C212.615 140.947 212.572 139.921 212.401 138.937C212.315 137.783 212.059 136.8 211.717 135.859Z" fill="#92A1B7"/>
<path d="M155.799 61.0468L153.875 54.4633H154.815L153.875 53.3946H154.815L155.756 51.3426L153.832 49.5043L156.953 50.4448V49.0768H159.219L154.687 43.6903L161.57 48.3501L160.629 45.8706L162.211 47.4523V46.6828L163.109 47.2813L165.631 47.5378L162.211 36.7221L166.101 41.4673C166.101 41.4673 166.059 34.4991 166.572 32.9173C166.572 32.9173 166.572 37.3633 167.298 38.6886L168.752 35.6106L169.393 40.3558C169.393 40.3558 169.179 37.0641 172.685 33.7723L171.787 36.8503L179.482 30.2668L178.713 32.9601L180.893 32.3616V34.5418L189.571 28.8561L189.785 32.2761L196.796 30.3096L194.231 32.1906L202.524 29.4546L201.114 33.2166H202.952L201.883 34.2426L209.92 33.9433L208.595 35.2686L209.92 35.6961L208.98 36.4228C208.98 36.4228 214.794 37.0213 215.777 37.0213C216.717 37.0213 217.957 38.0473 217.957 38.0473L213.426 38.8596L216.204 39.5863L217.444 39.9283L218.598 41.7666H215.777L220.864 44.0323L222.446 46.2981L220.009 45.0583L223.002 48.4783L220.736 47.4523L223.942 51.8983V53.9503L226.122 55.1046L227.79 57.8833L226.464 57.0711L226.678 58.0543L226.977 59.5506L225.652 58.9521L227.319 63.6973L225.139 61.3461L224.412 63.6973L224.626 66.1341L224.712 67.4166L222.489 65.4501V67.4593C222.489 67.4593 221.762 55.1046 219.154 52.4968C216.204 49.5471 209.92 46.2981 195.898 46.0843C181.876 45.8706 175.464 46.2126 168.666 48.5211C162.382 50.4021 156.397 50.2738 155.799 61.0468Z" fill="#DBDBD7"/>
<path d="M219.027 49.4616C218.343 48.9913 216.077 48.0508 216.077 48.0508L216.377 47.4951L208.724 46.6828L211.845 45.5286L203.21 45.7851L206.972 43.2628C206.972 43.2628 199.49 43.9468 198.208 43.6903L200.132 41.2536L185.981 43.0491L187.991 38.6031L178.799 43.3056L178.158 37.8336L173.541 44.6308L167.77 37.6626L168.069 45.7851C167.642 45.8706 168.24 45.9561 168.24 45.9561L164.307 40.5696L167.043 48.4783L163.58 45.9561L165.461 48.9058L162.298 47.4523L164.051 49.2478L161.229 48.8203L161.614 50.3594L158.408 50.7441L158.835 51.9838L157.766 53.0953L155.928 53.2236L156.826 54.3778L155.757 54.8481L156.569 55.6176L155.629 56.1306H156.612C156.612 56.1306 157.553 53.0098 159.818 51.5563C162.896 49.5898 167.984 48.5638 168.112 48.4783C189.401 44.7591 211.631 49.3333 216.719 51.0433C221.293 52.5823 222.062 63.4408 222.062 63.4408C222.062 63.4408 223.131 52.2831 219.027 49.4616Z" fill="#A59F9B"/>
<path d="M169.352 47.3668C169.352 47.3668 170.72 37.748 171.019 36.4655V45.614L173.456 39.287L173.028 44.5453L174.311 41.9375V45.272L177.773 37.0213L177.26 44.588C177.26 44.588 179.27 41.6383 179.312 41.4673C179.398 41.2535 178.714 44.5453 178.714 44.5453L186.152 34.9265L183.16 42.365L184.1 41.8948L183.288 44.8445L187.093 44.1605C187.093 44.1605 182.262 46.4263 179.74 46.5973C177.218 46.811 171.66 46.5973 169.352 47.3668Z" fill="#EFEFED"/>
<path d="M185.553 45.2293C185.553 45.2293 191.238 48.9058 194.872 49.1623L188.844 45.8706L199.959 48.7348L193.504 45.6996L203.037 46.4263C203.037 46.4263 195.898 44.1178 185.553 45.2293Z" fill="#C9C9C3"/>
<path d="M190.727 38.9878C190.727 38.9878 195.173 35.0975 196.797 34.0715C198.422 33.0455 200.687 30.7798 200.687 30.7798L196.797 36.4655L205.005 33.0883L201.457 36.4655C201.457 36.4655 210.905 35.7388 212.7 35.525C214.496 35.3113 212.7 37.406 212.7 37.406L218.514 38.9878L208.425 41.2535L201.756 41.8948V39.116L190.727 38.9878Z" fill="#EFEFED"/>
<path d="M155.843 78.1896L153.919 76.9498L148.832 82.6783L149.174 84.7303L154.646 79.4721L155.843 78.1896Z" fill="#AAB8BA"/>
<path d="M221.805 78.1896L223.728 76.9498L228.816 82.6783L228.474 84.7303L223.002 79.4721L221.805 78.1896Z" fill="#AAB8BA"/>
<path d="M224.541 48.008L228.859 51.3852L228.303 49.718H229.201L227.876 48.9912H230.441L227.491 47.3667H229.372L227.876 46.2125H228.431L226.55 44.588H229.543L226.892 43.1772L229.415 42.1512L227.747 41.6382L229.714 40.2275L227.063 40.2702L227.662 39.7572L226.935 38.9022L227.747 37.748L224.327 37.7052L224.84 35.7815L219.582 36.3372L222.575 38.0472L221.549 38.603L222.147 38.945L221.549 39.458L223.9 39.8427L220.993 40.4412L223.985 41.1252L223.344 41.8947H224.627L221.72 42.4932L223.985 43.8612L222.575 43.5192L226.465 46.2125H225.011L225.781 47.3667H223.985L224.541 48.008Z" fill="#DBDBD7"/>
<path d="M160.716 39.8428L160.075 39.116L160.203 40.0138L158.792 38.9023L159.134 39.8428L156.227 37.577L158.279 40.2703L156.527 39.5008L157.467 41.168L155.629 40.2275L156.484 41.9803L154.304 40.2275L155.714 43.3055L153.748 41.4673L153.962 43.1773L151.867 41.9803L153.021 44.417L152.337 44.0323L151.824 45.0583L150.456 44.8445L151.867 47.9653L149.9 48.2645L152.594 52.796L152.936 49.376L153.833 50.1028L153.876 49.376L154.603 49.718L153.962 47.4523L155.714 49.8035L155.073 46.811L156.056 47.0675L155.159 44.8018L158.066 45.8705L157.681 43.2628L160.118 43.6048L158.75 41.7238L160.075 42.3223L159.989 40.7405L161.058 41.2535L160.716 39.8428Z" fill="#DBDBD7"/>
<path d="M185.552 83.6615L186.108 82.9775C186.108 82.9775 186.621 80.327 187.049 80.0705C187.476 79.814 188.801 79.5575 188.801 79.5575C188.801 79.5575 190.255 79.985 190.511 80.0705C190.768 80.1133 191.067 80.9255 191.495 82.9775C191.922 85.0295 192.82 82.4217 192.82 82.4217L192.392 78.617L186.322 78.3177L185.125 80.327L185.552 83.6615Z" fill="#443E3B"/>
<path d="M217.359 75.2398C213.212 73.6153 207.227 73.1878 202.781 73.8718C197.352 74.6841 193.077 78.1041 193.077 78.1041C193.077 78.1041 192.393 77.3346 191.666 77.2491C191.238 77.2063 189.101 77.0781 188.802 77.0781C188.545 77.0781 186.365 77.2063 185.938 77.2491C185.253 77.3346 184.527 78.1041 184.527 78.1041C184.527 78.1041 180.252 74.6841 174.823 73.8718C170.377 73.1878 164.391 73.6153 160.245 75.2398C158.919 75.7528 153.875 76.9071 153.875 76.9071V79.9851C153.875 79.9851 155.927 79.3866 156.825 81.2676C157.252 82.1653 157.209 88.4923 160.587 93.2376C163.323 97.0851 167.598 98.0683 172.428 97.8546C180.337 97.5126 184.056 91.2283 186.108 82.9348C186.108 82.9348 183.586 79.8568 188.802 79.8568C194.017 79.8568 191.495 82.9348 191.495 82.9348C193.504 91.1856 197.266 97.4698 205.175 97.8546C210.006 98.0683 214.281 97.0851 217.017 93.2376C220.394 88.4923 220.351 82.1653 220.779 81.2676C221.676 79.4293 223.729 79.9851 223.729 79.9851V76.9498C223.729 76.9498 218.684 75.7956 217.359 75.2398ZM178.884 94.0498C176.49 96.3156 167.94 98.1111 162.895 93.6651C157.979 89.3473 159.176 80.7973 159.988 79.4293C160.63 78.3606 163.75 75.1971 169.992 74.9406C176.233 74.6413 180.166 77.2063 180.166 77.2063C183.159 78.5316 183.885 81.4386 183.971 84.4311C184.014 87.4663 181.278 91.8268 178.884 94.0498ZM214.751 93.7078C209.706 98.1111 201.157 96.3156 198.763 94.0926C196.368 91.8268 193.633 87.5091 193.718 84.4738C193.804 81.4386 194.53 78.5316 197.523 77.2491C197.523 77.2491 201.456 74.7268 207.697 74.9833C213.939 75.2826 217.059 78.4033 217.701 79.4721C218.427 80.8401 219.667 89.3901 214.751 93.7078Z" fill="#142019"/>
</g>
</g>
<defs>
<linearGradient id="paint0_linear_1607_4332" x1="188.963" y1="213.471" x2="188.963" y2="115.507" gradientUnits="userSpaceOnUse">
<stop stop-color="#FEDEC8"/>
<stop offset="1" stop-color="#EACDBA"/>
</linearGradient>
<clipPath id="clip0_1607_4332">
<rect width="380" height="213.75" fill="white"/>
</clipPath>
<clipPath id="clip1_1607_4332">
<rect width="213.75" height="213.75" fill="white" transform="translate(83.125 -0.000244141)"/>
</clipPath>
</defs>
</svg>
