<svg width="106" height="56" viewBox="0 0 106 56" fill="none" xmlns="http://www.w3.org/2000/svg">
<g clip-path="url(#clip0_389_5464)">
<path d="M71.039 7.77832H51.0871L50.8117 8.3576H71.1909L71.039 7.77832ZM73.7359 11.292V18.1578C73.9449 18.1958 74.1443 18.2813 74.3152 18.4237V11.4059L73.7359 11.292ZM73.9448 23.9031L73.7929 24.7673C73.7739 24.7673 73.7549 24.7578 73.7359 24.7578V25.9543C73.7359 27.5592 73.2611 29.0217 72.34 30.2847C72.1121 30.5886 71.8652 30.883 71.5898 31.1678L48.9979 8.55702C48.8935 8.50954 48.77 8.46206 48.6276 8.43357V9.05083C49.1024 9.21227 49.3303 9.63961 49.3113 10.1144L48.6846 10.1049C48.5516 9.72507 48.2192 9.45918 47.7729 9.35472V9.97198C47.9913 10.0574 48.1528 10.2284 48.1528 10.5133C48.1528 10.7602 47.9533 10.9501 47.7729 10.9881V18.3763C48.0008 18.1863 48.2762 18.1199 48.5611 18.1199C48.8365 18.1199 49.1119 18.2243 49.3683 18.3763L48.7795 18.927C49.1309 19.3449 48.7605 19.9811 48.3807 20.1901C47.9723 20.4085 48.1907 20.7883 48.4851 20.7883C48.5801 20.7883 48.6751 20.7503 48.77 20.6649C49.0169 20.437 49.3398 20.323 49.6532 20.323C50.3179 20.323 50.9732 20.8358 50.8877 21.8994L50.3749 21.6145C50.204 22.1748 49.8051 22.4122 49.4348 22.4122C49.2638 22.4122 49.1024 22.3647 48.9789 22.2698C48.694 22.0608 48.3997 21.8424 48.2002 21.8424C48.1338 21.8424 48.0673 21.8709 48.0293 21.9279C47.8774 22.1368 48.0388 22.3457 48.5801 22.6116C49.4917 23.0675 49.6722 24.378 48.4756 24.7293L48.2762 24.7483L48.1243 23.8841C48.0578 23.9031 47.9913 23.9126 47.9248 23.9126C47.8679 23.9126 47.8109 23.9031 47.7539 23.8936V25.9353C47.7539 27.9581 48.4471 29.6484 49.5772 31.0064C49.5867 31.0159 49.5962 31.0254 49.5962 31.0349C49.6342 31.0824 49.6817 31.1299 49.7197 31.1773L49.7481 31.2058C49.7956 31.2628 49.8431 31.3103 49.8906 31.3673C49.8906 31.3673 49.8906 31.3768 49.9001 31.3768C49.9476 31.4337 50.0045 31.4812 50.052 31.5382L50.0615 31.5477C50.128 31.5857 50.185 31.6332 50.242 31.6806C50.3559 31.7756 50.4699 31.8896 50.5648 32.0225C51.296 32.6683 52.1507 33.2096 53.0719 33.6654C53.1763 33.7224 53.2808 33.7793 53.3947 33.8268C54.9142 34.5865 57.1363 35.4127 61.0203 35.4127C64.9043 35.4127 67.1265 34.5865 68.6459 33.8268C68.7598 33.7698 68.8643 33.7129 68.9688 33.6654C69.8804 33.2191 70.7161 32.6778 71.4473 32.051L71.5043 31.9655C71.5138 31.956 71.5233 31.9465 71.5328 31.9275C71.5423 31.9181 71.5518 31.8991 71.5708 31.8896C71.5803 31.8706 71.5992 31.8611 71.6087 31.8421C71.6182 31.8326 71.6182 31.8231 71.6277 31.8231L71.6847 31.7661L71.6942 31.7566L71.7512 31.6996L71.7607 31.6901C71.7797 31.6711 71.8082 31.6522 71.8272 31.6332C71.8746 31.5952 71.9221 31.5667 71.9696 31.5382C71.9791 31.5287 71.9886 31.5287 71.9981 31.5192C73.4131 30.0758 74.2962 28.205 74.2962 25.9164V23.9031C74.1822 23.9414 74.0589 23.9414 73.9448 23.9031Z" fill="#CC0000"/>
<path d="M0.5 0.4375H6.86256V54.4813H0.5V0.4375Z" fill="#FFB70B"/>
<path d="M61.0497 7.17058C61.9833 7.17058 62.7401 6.79218 62.7401 6.3254C62.7401 5.85862 61.9833 5.48022 61.0497 5.48022C60.1162 5.48022 59.3594 5.85862 59.3594 6.3254C59.3594 6.79218 60.1162 7.17058 61.0497 7.17058Z" fill="#CC0000"/>
<path d="M56.2143 6.32534L54.315 5.36621L52.4062 6.32534L54.315 7.27498L56.2143 6.32534ZM69.6896 6.32534L67.7808 5.36621L65.8816 6.32534L67.7808 7.27498L69.6896 6.32534Z" fill="#CC0000"/>
<path d="M96.689 38.347C96.67 38.3565 95.5589 38.7174 94.1534 38.8788C94.6093 38.4895 94.9131 37.9387 95.0081 37.3119C95.0746 36.8371 95.0556 35.5076 94.9321 33.3804C94.8941 32.6207 94.3149 31.994 93.5647 31.899C92.8619 31.804 92.2827 31.7091 91.8933 31.6236C91.0861 31.4432 90.6493 31.1488 90.5923 30.9399C90.5163 30.712 90.5258 30.6835 90.5543 30.4746C90.5638 30.3796 90.5828 30.2656 90.6018 30.1137C90.6208 29.9428 90.6303 29.7813 90.6588 29.6009C90.6873 29.3825 90.7063 29.1546 90.7253 28.9267V28.8887C90.9057 28.9267 91.0956 28.9456 91.276 28.9456C91.7793 28.9456 92.2826 28.8127 92.7195 28.5373C93.5362 28.034 94.011 27.1698 93.992 26.2107C93.954 24.6913 93.1088 23.6277 92.3586 22.697C92.0168 22.2697 91.6844 21.8614 91.447 21.434C90.6778 20.0476 90.4973 18.5471 90.9152 16.9612C91.0861 16.306 91.5135 15.6507 91.9693 14.967C92.0642 14.8246 92.1592 14.6726 92.2542 14.5302C92.3206 14.5397 92.3871 14.5492 92.4536 14.5492C92.7385 14.5492 92.9759 14.4542 93.1468 14.3497C94.2389 13.6755 94.6187 11.4724 94.5998 10.2378C94.5713 7.65482 93.5552 5.79353 91.5134 4.54951L90.8107 4.12218L91.0766 4.90088C91.6939 6.69569 92.0262 7.80676 91.6369 9.61107C91.5134 10.1903 91.2665 10.7411 91.0291 11.2729C90.6588 12.1086 90.2979 12.9158 90.6113 13.571C90.5353 13.685 90.4594 13.8085 90.3834 13.9224C89.8611 14.7106 89.3198 15.5273 89.0729 16.4959C88.5411 18.5471 88.788 20.5794 89.7851 22.3742C90.0985 22.9439 90.4973 23.4378 90.8772 23.9126C91.5134 24.7103 92.0737 25.394 92.0927 26.2772C92.1022 26.6475 91.8648 26.847 91.7319 26.9324C91.466 27.0939 91.1526 27.1034 90.8772 26.9609C90.6588 26.8469 90.4499 26.619 90.3169 26.3531C90.108 25.7359 89.8421 25.0901 89.4812 24.3779C89.1583 23.7321 88.807 23.0959 88.4651 22.4786C87.8384 21.3391 87.2401 20.266 86.8033 19.0979C86.4709 18.1958 86.4329 17.1607 86.4519 16.4959C86.9267 16.5814 87.3445 16.6004 87.4205 16.6004L88.0378 16.6194L88.0283 16.0021C88.0188 15.5368 88.3891 14.7296 88.807 13.7895C89.956 11.2444 91.6939 7.40791 89.4622 3.0111C89.4432 2.98261 89.4337 2.94463 89.4148 2.91614C89.5097 2.61225 89.5382 2.33686 89.5287 2.10895C89.5192 1.26377 89.1014 0.599028 88.7215 0.257159L88.4556 0.0197503L88.1232 0.133707C87.9048 0.209677 87.6959 0.342626 87.487 0.504064C87.3446 0.371115 87.1641 0.276152 86.9552 0.247663C86.8982 0.238166 86.8412 0.238166 86.7653 0.238166C85.8441 0.238166 82.4919 0.997875 82.0551 1.22579L81.8272 1.33974L81.7512 1.58665L81.5898 2.14693C80.849 2.39384 80.1748 2.7642 79.6715 3.03959C79.605 3.07758 79.5385 3.11556 79.4721 3.14405L79.0922 3.35297L79.1777 3.78031C79.1872 3.84678 79.5196 5.51814 80.4882 6.6482L80.5357 6.69569C80.2982 6.71468 80.0893 6.73367 79.8994 6.73367C79.3201 6.73367 78.8643 6.56274 78.6459 6.22087C78.304 5.68907 78.5509 5.11929 78.9498 4.8249C78.7313 4.72994 78.5224 4.67296 78.266 4.67296C78.1141 4.67296 77.9432 4.69196 77.7532 4.73944C76.9935 4.91037 76.5662 5.54663 76.7086 6.31583C76.8701 7.23698 77.5158 7.80676 78.6364 7.80676C78.8643 7.80676 79.1017 7.78777 79.3676 7.74029C79.7475 7.67381 80.1368 7.55985 80.5262 7.4364C80.5262 7.4554 80.5167 7.46489 80.5167 7.48388C80.4217 8.01568 80.3362 8.47151 80.6306 8.84186C79.8139 8.9938 79.0732 9.33567 78.4465 9.84848C77.9337 9.45913 77.2404 8.93683 77.136 8.85136C76.7276 8.54748 76.3478 8.2151 75.9394 7.87323C75.778 7.73079 75.6071 7.58834 75.4361 7.4459C75.0848 7.15151 74.7049 6.84763 74.2966 6.56274C73.9927 6.35382 73.6413 6.22087 73.2615 6.17339V4.49253C73.871 4.22086 74.389 3.77866 74.753 3.21926C75.1169 2.65985 75.3113 2.00712 75.3127 1.33974C75.3127 1.02636 75.2747 0.731977 75.1892 0.447086H72.6347C72.6537 0.618021 72.6632 0.788955 72.6632 0.969386C72.6632 2.4888 71.9035 3.82779 70.9633 3.82779C70.0232 3.82779 69.2635 2.4888 69.2635 0.969386C69.2635 0.788955 69.273 0.618021 69.292 0.447086H66.0917C66.1107 0.618021 66.1202 0.788955 66.1202 0.969386C66.1202 2.4888 65.3605 3.82779 64.4203 3.82779C63.4802 3.82779 62.7205 2.4888 62.7205 0.969386C62.7205 0.788955 62.73 0.618021 62.749 0.447086H59.4443C59.4633 0.618021 59.4727 0.788955 59.4727 0.969386C59.4727 2.4888 58.713 3.82779 57.7729 3.82779C56.8328 3.82779 56.0731 2.4888 56.0731 0.969386C56.0731 0.788955 56.0826 0.618021 56.1015 0.447086H52.9772C52.9962 0.618021 53.0057 0.788955 53.0057 0.969386C53.0057 2.4888 52.246 3.82779 51.3059 3.82779C50.3657 3.82779 49.606 2.4888 49.606 0.969386C49.606 0.788955 49.6155 0.618021 49.6345 0.447086H47.042C46.9661 0.72248 46.9281 1.00737 46.9281 1.30176C46.9281 2.65024 47.7163 3.85628 48.8463 4.42606V6.17339C48.4665 6.22087 48.0961 6.35382 47.7827 6.57223C47.3744 6.84763 46.9945 7.16101 46.6432 7.4554C46.4722 7.59784 46.3108 7.74029 46.1399 7.88273C45.7315 8.2246 45.3517 8.55697 44.9433 8.86086C44.8389 8.93683 44.1456 9.45913 43.6328 9.85797C43.0061 9.34517 42.2749 9.0033 41.4487 8.85136C41.7431 8.4715 41.6576 8.01568 41.5626 7.49338C41.5626 7.48388 41.5531 7.46489 41.5531 7.4459C41.9425 7.57885 42.3318 7.68331 42.7117 7.74978C42.9776 7.79726 43.215 7.81626 43.4429 7.81626C44.5635 7.81626 45.2092 7.24648 45.3707 6.32533C45.5131 5.55612 45.0858 4.91987 44.3261 4.74893C44.1361 4.71095 43.9652 4.68246 43.8133 4.68246C43.5569 4.68246 43.3479 4.73944 43.1295 4.8344C43.5284 5.12879 43.7753 5.69857 43.4334 6.23037C43.215 6.58173 42.7497 6.74317 42.1799 6.74317C41.9805 6.74317 41.7715 6.72418 41.5626 6.68619L41.6101 6.63871C42.5787 5.50864 42.9111 3.84678 42.9206 3.77081L43.0061 3.34347L42.6262 3.13455C42.5597 3.09657 42.4933 3.06808 42.4268 3.03009C41.914 2.7547 41.2492 2.38434 40.5085 2.13744L40.3471 1.57715L40.2711 1.33025L40.0432 1.21629C39.6064 0.988378 36.2542 0.22867 35.333 0.22867C35.2665 0.22867 35.2001 0.22867 35.1431 0.238166C34.9342 0.266655 34.7537 0.361619 34.6113 0.494568C34.4024 0.323634 34.184 0.200181 33.975 0.12421L33.6427 0.0102539L33.3673 0.22867C32.9874 0.570539 32.5696 1.23528 32.5601 2.08046C32.5601 2.30837 32.5886 2.58377 32.674 2.88765C32.6551 2.92563 32.6361 2.95412 32.6266 2.98261C30.3949 7.37942 32.1327 11.216 33.2818 13.761C33.6996 14.6916 34.07 15.4988 34.0605 15.9736L34.051 16.5909L34.6683 16.5719C34.7347 16.5719 35.1526 16.5529 35.6369 16.4674C35.6559 17.1322 35.6274 18.1768 35.2855 19.0694C34.8487 20.2375 34.2504 21.3106 33.6237 22.4501C33.2818 23.0674 32.9304 23.7037 32.6076 24.3494C32.2562 25.0616 31.9808 25.7074 31.7719 26.3246C31.6389 26.5905 31.4395 26.8185 31.2116 26.9324C30.9362 27.0749 30.6228 27.0654 30.3569 26.9039C30.2427 26.8381 30.1486 26.7422 30.085 26.6267C30.0214 26.5112 29.9906 26.3804 29.9961 26.2487C30.0151 25.375 30.5659 24.6818 31.2116 23.8841C31.5915 23.4093 31.9808 22.925 32.3037 22.3457C33.3008 20.5509 33.5477 18.5186 33.0159 16.4674C32.769 15.4988 32.2277 14.6821 31.7054 13.8939C31.6294 13.78 31.5535 13.6565 31.4775 13.5426C31.7909 12.8873 31.4395 12.0801 31.0597 11.2444C30.8223 10.7126 30.5753 10.1619 30.4519 9.58258C30.0625 7.76877 30.3949 6.6672 31.0122 4.87239L31.2781 4.09369L30.5753 4.52102C28.5336 5.76504 27.5175 7.62633 27.489 10.2093C27.47 11.4439 27.8594 13.6565 28.942 14.3213C29.1129 14.4257 29.3408 14.5207 29.6352 14.5207C29.7017 14.5207 29.7587 14.5112 29.8346 14.5017C29.9296 14.6441 30.0246 14.7961 30.1195 14.9385C30.5753 15.6223 31.0027 16.2775 31.1736 16.9328C31.582 18.5186 31.4015 20.0286 30.6418 21.4055C30.4044 21.8329 30.0815 22.2412 29.7302 22.6686C28.98 23.5992 28.1348 24.6533 28.0968 26.1822C28.0778 27.1318 28.5526 28.0055 29.3693 28.5088C29.8061 28.7842 30.3094 28.9172 30.8128 28.9172C31.0027 28.9172 31.1831 28.8982 31.3635 28.8602V28.8982C31.3825 29.1261 31.4015 29.354 31.43 29.5724C31.449 29.7528 31.468 29.9143 31.487 30.0852C31.4965 30.2371 31.5155 30.3511 31.5345 30.4461C31.563 30.6455 31.5725 30.6835 31.4965 30.9114C31.43 31.1203 31.0027 31.4147 30.1955 31.5951C29.8061 31.6806 29.2269 31.7756 28.5241 31.8705C27.7739 31.975 27.1946 32.6017 27.1567 33.352C27.0427 35.4791 27.0142 36.8086 27.0807 37.2834C27.1757 37.9102 27.4795 38.461 27.9354 38.8503C26.5299 38.6889 25.4093 38.3185 25.3998 38.3185L24.2698 37.9387L24.6496 39.0688C25.096 40.3982 25.9411 41.5188 27.1092 42.307C28.1918 43.0382 29.4928 43.4371 30.7843 43.4371C32.3607 43.4371 33.7946 42.8483 34.8297 41.7752C34.8392 42.0696 34.8962 42.3545 35.0101 42.6489L35.5324 43.9499L36.1117 42.6774C36.1497 42.6014 37.0329 40.7401 39.1411 40.5787C40.0432 40.5122 41.0688 40.3793 41.8665 39.7145H41.876C41.876 39.9329 41.895 40.1418 41.952 40.3508C42.2369 41.5283 43.253 42.1266 43.291 42.1456L44.2311 42.6869L44.1741 41.6043C44.1551 41.139 44.1266 40.6072 44.2596 40.1703C44.497 39.3821 45.3232 39.0878 45.7885 38.9738C45.9025 38.9453 46.0164 38.9168 46.1209 38.8978C46.8901 38.7269 47.5168 38.5844 48.1626 38.2046C47.8872 38.7459 47.7732 39.2967 47.8302 39.857C47.9632 41.2529 49.1027 42.1266 49.1502 42.1646L50.4512 43.1427L50.0904 41.5568C49.9574 40.949 49.8529 39.5626 50.4132 39.2017C51.1065 38.7459 51.6288 38.6889 52.2365 38.6224C52.7398 38.5654 53.2811 38.499 53.9174 38.2236C53.4236 39.3157 53.6325 40.2083 53.6515 40.2558L53.9554 41.4618L54.7056 40.4647C54.7151 40.4457 56.1205 38.6319 58.1148 38.6319C59.5582 38.6319 60.7263 39.3442 60.7358 39.3536L61.0491 39.5436L61.3625 39.3536C61.372 39.3442 62.5401 38.6319 63.9835 38.6319C65.9777 38.6319 67.3832 40.4552 67.3927 40.4647L68.1429 41.4618L68.4468 40.2558C68.4563 40.2083 68.6747 39.3157 68.1809 38.2236C68.8172 38.499 69.3585 38.5654 69.8618 38.6224C70.4695 38.6889 71.0013 38.7554 71.6851 39.2017C72.2453 39.5721 72.1504 40.949 72.0079 41.5568L71.6471 43.1427L72.9481 42.1646C72.9956 42.1266 74.1351 41.2529 74.2681 39.857C74.325 39.2967 74.2111 38.7459 73.9357 38.2046C74.5815 38.5749 75.2082 38.7174 75.9774 38.8978C76.0819 38.9263 76.1958 38.9453 76.3098 38.9738C76.7751 39.0783 77.6013 39.3821 77.8387 40.1703C77.9716 40.6072 77.9432 41.139 77.9242 41.6043L77.8672 42.6869L78.8073 42.1456C78.8548 42.1171 79.8709 41.5283 80.1463 40.3508C80.1938 40.1418 80.2223 39.9234 80.2223 39.7145H80.2318C81.0295 40.3793 82.0551 40.5027 82.9572 40.5787C85.0654 40.7401 85.9486 42.6014 85.9866 42.6774L86.5658 43.9499L87.0882 42.6489C87.2021 42.3545 87.2686 42.0601 87.2686 41.7752C88.3037 42.8483 89.7376 43.4371 91.314 43.4371C92.6055 43.4371 93.9065 43.0382 94.9891 42.307C96.1481 41.5331 97.0141 40.3929 97.4487 39.0688L97.8285 37.9387L96.689 38.347ZM78.6269 7.20849C77.8292 7.20849 77.4114 6.88561 77.2879 6.20188C77.2024 5.74605 77.4304 5.41368 77.8767 5.30922C77.8957 5.30922 77.9147 5.29972 77.9337 5.29972C77.8292 5.68907 77.8767 6.11641 78.1331 6.53425C78.323 6.82864 78.6174 7.05655 78.9878 7.1895C78.8643 7.19899 78.7409 7.20849 78.6269 7.20849ZM43.9462 6.53425C44.2121 6.12591 44.2501 5.68907 44.1456 5.29972C44.1646 5.29972 44.1836 5.30922 44.2026 5.30922C44.6489 5.40418 44.8769 5.74605 44.7914 6.20188C44.6679 6.88561 44.2406 7.20849 43.4524 7.20849C43.3384 7.20849 43.215 7.19899 43.0915 7.1895C43.4619 7.05655 43.7563 6.83813 43.9462 6.53425ZM78.4749 10.6082C78.6174 10.4657 78.7693 10.3328 78.9308 10.2093C79.6335 9.66805 80.5262 9.33567 81.6467 9.33567C81.8082 9.33567 81.9696 9.34517 82.1405 9.35467L83.66 8.66143C83.1187 8.67093 82.6818 8.68992 82.3305 8.68992C80.8111 8.68992 80.9345 8.481 81.1339 7.41741C81.1339 7.41741 82.4159 7.76877 83.3941 7.76877C83.489 7.76877 83.584 7.76877 83.6695 7.75928C84.1443 7.72129 84.3532 7.51237 84.4292 7.25597C84.5241 6.9141 84.5526 6.38231 84.2867 5.71756C84.1158 5.28073 83.698 4.90088 83.0997 4.90088C82.6439 4.90088 82.0931 5.11929 81.4663 5.68907L80.9345 6.22087C80.6679 5.89998 80.4445 5.54561 80.2698 5.16677C80.1558 4.67296 80.6876 4.35958 80.6876 4.35958C80.1463 4.42606 79.8804 3.86577 79.7949 3.60937C80.3742 3.29599 81.2004 2.82117 82.0741 2.58377L82.3305 1.7101C82.6628 1.53917 85.9106 0.788955 86.7653 0.788955C86.8127 0.788955 86.8412 0.788955 86.8792 0.798451C86.9457 0.807948 87.0122 0.836437 87.0597 0.874422C86.8792 1.07385 86.7178 1.30176 86.5753 1.54866L87.1546 1.73859C87.4775 1.21629 87.9238 0.779459 88.3227 0.64651C88.845 1.10233 89.4717 2.46031 88.0948 3.88477V4.71095L88.3322 4.48304C88.6645 4.16966 88.9019 3.86577 89.0824 3.57139C91.7129 9.2692 87.392 13.9414 87.4205 15.9546C87.4205 15.9546 86.5184 15.9261 85.9011 15.6792C85.9011 15.6792 85.6257 17.645 86.2335 19.2594C86.9362 21.1396 88.0473 22.811 88.9399 24.5963C89.2438 25.2041 89.5097 25.8213 89.7281 26.4576C89.7376 26.4766 89.7376 26.4956 89.7471 26.5146C89.9276 26.9039 90.2314 27.2458 90.5733 27.4357C90.5828 27.4452 90.6018 27.4452 90.6113 27.4547C91.0576 27.6826 91.5799 27.6541 92.0168 27.3882C92.4441 27.1318 92.672 26.695 92.6625 26.2107C92.634 25.1281 91.9978 24.3304 91.314 23.4852C90.9532 23.0294 90.5733 22.5641 90.2789 22.0323C89.3578 20.3704 89.1299 18.4902 89.6237 16.5909C89.8516 15.7172 90.3644 14.948 90.8582 14.1978L91.1906 13.6945C91.238 13.628 91.276 13.5616 91.314 13.4951C91.0766 13.2767 91.0291 13.0108 91.1051 12.6594C91.1716 12.3365 91.3425 11.9472 91.5514 11.4629C91.7888 10.9311 92.0642 10.3233 92.1972 9.68704C92.4156 8.66143 92.4156 7.83525 92.2827 7.01856C92.4821 7.34144 92.653 7.68331 92.7955 8.03467C92.9569 8.43352 93.0709 8.85136 93.1278 9.28819C93.1848 9.72502 93.1848 10.1714 93.1183 10.6177C93.2703 10.1998 93.3652 9.74402 93.3937 9.28819C93.4222 8.82287 93.3937 8.35755 93.3083 7.90172C93.2323 7.48388 93.1183 7.06604 92.9664 6.6672C93.6216 7.62633 93.954 8.79438 93.973 10.1998C93.992 11.9662 93.3842 13.4476 92.8049 13.799C92.7402 13.8405 92.6699 13.8725 92.596 13.8939C92.3491 13.9509 91.9693 13.78 91.9693 13.78C91.7983 14.0649 91.6274 14.3213 91.447 14.5967C90.9627 15.3279 90.5068 16.0211 90.3074 16.7713C89.8611 18.5092 90.051 20.1615 90.8962 21.6809C91.1621 22.1558 91.5135 22.6021 91.8648 23.0294C92.5865 23.9316 93.3368 24.8622 93.3652 26.1822C93.3842 26.9229 93.0139 27.5972 92.3776 27.9865C92.0357 28.1954 91.6369 28.3094 91.2381 28.3094C91.0576 28.3094 90.8677 28.2809 90.6873 28.2429C90.5258 28.1954 90.3644 28.1385 90.2124 28.053L90.07 27.9675C90.0985 28.1954 90.108 28.4328 90.0985 28.6608C90.0985 28.7177 90.089 28.7842 90.089 28.8412C90.0605 29.2305 90.0035 29.6294 89.975 30.0187C89.9276 30.522 89.8421 30.579 89.994 31.0728C90.1745 31.6426 90.9437 31.9845 91.7414 32.1649C92.2447 32.2789 92.9284 32.3833 93.4602 32.4498C93.935 32.5163 94.2864 32.9056 94.3149 33.3804C94.3813 34.5485 94.4763 36.6187 94.3908 37.198C94.2959 37.8342 93.9255 38.3755 93.3368 38.6604C93.3747 38.7459 93.4127 38.8314 93.4507 38.9073C93.5362 39.1257 93.6026 39.3157 93.6311 39.4961C93.8211 40.5312 93.0803 40.8541 92.4156 41.0155L92.3301 40.0849C92.3206 40.0469 92.1402 39.9614 92.1022 39.9424C92.0452 39.9044 91.9788 39.8665 91.9313 39.819C91.8319 39.7238 91.7711 39.5953 91.7604 39.4581C91.7509 39.3821 91.7508 39.3062 91.7508 39.2207C91.7413 39.0783 91.7224 38.9358 91.6464 38.8313C91.61 38.7813 91.5608 38.7419 91.5039 38.7174C91.4487 38.6916 91.3881 38.679 91.3271 38.6807C91.2662 38.6823 91.2064 38.6982 91.1526 38.7269C91.0874 38.7604 91.0311 38.8088 90.9882 38.8682C90.9453 38.9277 90.917 38.9964 90.9057 39.0688C90.8962 39.1257 90.9057 39.2017 90.9152 39.2777C90.9627 39.5531 91.0956 39.9329 90.9722 40.2653C90.8962 40.4837 90.6018 40.7781 90.2789 40.7781C90.1745 40.7781 90.0795 40.7496 89.975 40.6831L89.3103 41.2719C88.4271 40.3033 88.7025 39.3726 89.6617 38.9738C89.7376 38.9453 89.8041 38.9073 89.8611 38.8693C90.0415 38.7459 90.146 38.5844 90.0415 38.4135C89.9655 38.2806 89.8801 38.2331 89.7661 38.2331C89.5952 38.2331 89.3768 38.3375 89.0444 38.4705C88.8626 38.5557 88.6657 38.6041 88.4651 38.6129C88.1232 38.6129 87.8479 38.4135 87.7054 37.8627L87.6769 37.7108L87.449 37.8057L87.0502 37.9672L87.0786 37.7583C87.1166 37.5303 87.1926 37.3404 87.2781 37.179C87.5725 36.6377 88.0948 36.4193 88.6266 36.4193C89.3103 36.4193 90.013 36.7611 90.3074 37.198L91.5609 37.3689C91.8173 37.046 91.8268 36.0964 91.7888 35.3557C91.7604 34.8144 91.3615 34.3776 90.8297 34.2921C89.9181 34.1591 88.5506 33.9597 88.0663 33.9217C87.1451 33.8553 86.186 33.6938 85.4928 33.0196C84.5431 32.0794 84.3342 31.1013 84.3342 29.7433C84.3342 29.297 84.3532 28.8507 84.3912 28.3949C84.4197 28.0055 84.4672 27.6162 84.5051 27.2363C84.5336 26.9799 84.5716 26.7235 84.6096 26.4671C84.6573 26.1295 84.6509 25.7865 84.5906 25.451C84.5431 25.1756 84.4671 24.9097 84.3627 24.6343C84.2487 24.3494 84.0873 24.0835 83.8974 23.8271C83.5935 23.4283 83.1946 23.0769 82.6913 22.792C82.5109 22.6875 82.2925 22.5641 82.0646 22.4216C81.8367 22.2792 81.5898 22.1273 81.3334 21.9468C80.7066 21.529 80.0134 21.0067 79.3676 20.4084L79.51 20.323C79.7475 20.1805 80.4027 19.6962 81.02 19.1834C81.1719 19.0599 81.3049 18.946 81.4283 18.832L80.8395 18.5186C80.1558 19.0979 79.3961 19.6677 79.1967 19.7817L78.9118 19.9526C78.7314 20.0571 78.5509 20.1615 78.38 20.2565C77.3829 20.8263 76.6707 21.2156 76.6896 21.8804C77.9242 23.2098 77.2499 23.998 76.5662 24.2355L76.3383 23.5042C75.6166 23.3808 75.626 22.849 75.5976 22.4406C75.5927 22.3483 75.5525 22.2613 75.4854 22.1977C75.4182 22.134 75.3292 22.0986 75.2367 22.0988C75.0942 22.0988 74.9518 22.1937 74.9423 22.4122C74.9233 22.6496 74.9423 22.8965 74.8758 23.2858C74.8284 23.5517 74.5435 23.9126 74.1351 23.9126C74.0686 23.9126 74.0022 23.9031 73.9357 23.8841L73.7838 24.7483C72.3783 24.4824 72.5302 23.0864 73.4799 22.6116C74.0212 22.3362 74.1921 22.1368 74.0307 21.9278C74.0107 21.9014 73.9848 21.8799 73.9552 21.8651C73.9255 21.8503 73.8929 21.8425 73.8597 21.8424C73.6603 21.8424 73.3659 22.0608 73.081 22.2697C72.9576 22.3647 72.7961 22.4122 72.6252 22.4122C72.2548 22.4122 71.856 22.1747 71.6851 21.6145L71.2007 21.9088C71.1153 20.8547 71.7705 20.3325 72.4353 20.3325C72.7487 20.3325 73.0715 20.4464 73.3184 20.6743C73.4134 20.7598 73.5084 20.7978 73.6033 20.7978C73.9072 20.7978 74.1161 20.4179 73.7078 20.1995C73.3184 19.9906 72.9481 19.3448 73.3089 18.9365L72.7202 18.3857C72.9861 18.2243 73.271 18.1483 73.5369 18.1483C74.1256 18.1483 74.6669 18.5281 74.8378 19.3923C74.8758 19.5917 74.9613 19.6677 75.0753 19.6677C75.3981 19.6677 75.9679 18.9745 76.3952 18.2907C76.4997 18.1293 76.5947 17.9584 76.6896 17.7969C76.8131 17.5785 76.946 17.3696 77.0885 17.1607C77.2689 16.8948 77.4588 16.6384 77.6963 16.4105C78.0951 16.0116 78.7883 15.3184 79.586 14.8531C79.7759 14.7486 79.9754 14.6441 80.1748 14.5587C80.4122 14.2453 80.6496 13.9224 80.8585 13.59C81.4188 12.7354 81.8841 11.8237 82.15 10.8646C81.7132 11.7667 81.1054 12.5549 80.4312 13.2577C80.1178 13.59 79.7949 13.8939 79.4531 14.1978C78.5319 14.6726 77.7627 15.4418 77.3069 15.8882L77.2404 15.9546C77.1075 16.0876 76.984 16.2205 76.8796 16.363C76.7276 15.4323 76.7656 14.2833 77.06 13.1912C77.117 12.9823 77.1834 12.7639 77.2594 12.5644C77.5348 11.8427 77.9337 11.159 78.4749 10.6082ZM82.0266 6.83813C82.3875 6.71468 82.7483 6.61972 83.0902 6.61972C83.3751 6.61972 83.641 6.68619 83.8879 6.82864C83.8784 6.94259 83.8594 7.03756 83.8499 7.08504V7.09453C83.8499 7.09453 83.8024 7.14202 83.6125 7.16101C83.546 7.1705 83.47 7.1705 83.3846 7.1705C83.0142 7.1705 82.5964 7.11353 82.226 7.04705C81.8557 6.99007 81.2954 6.86662 81.2954 6.86662C81.2384 6.56274 81.2859 6.23986 81.3998 6.24936C81.5328 6.27785 81.6277 6.60072 82.0266 6.83813ZM81.6372 6.36331L81.8652 6.12591C82.4349 5.6131 82.8433 5.49915 83.0807 5.49915C83.508 5.49915 83.679 5.83152 83.7169 5.93598C83.7549 6.03094 83.7834 6.12591 83.8119 6.21137C83.584 6.10691 83.3371 6.06893 83.0807 6.06893C82.6249 6.06893 82.1405 6.21137 81.6372 6.36331ZM85.5687 35.6406C84.866 36.1154 84.2107 36.3433 83.5175 36.3433C82.8718 36.3433 82.245 36.1534 81.5803 35.9445C81.3998 35.8875 81.2194 35.8305 81.0295 35.783C80.7351 35.6976 80.4217 35.6596 80.1083 35.6596C79.3486 35.6596 78.6934 35.9065 78.266 36.1249C78.3135 35.9635 78.4655 35.3557 78.4655 34.8904C79.0257 34.577 79.4151 34.1307 79.605 33.5514C79.8899 32.6872 80.1178 31.1583 79.8899 29.5059C80.3362 29.4489 80.9725 29.354 81.6087 29.2495C82.302 29.1356 82.8718 29.0216 83.2896 28.9172C83.489 28.8697 83.6505 28.8222 83.7929 28.7747C83.7739 29.1071 83.7644 29.4395 83.7644 29.7718C83.7644 30.598 83.8404 31.2153 84.0113 31.7566C84.2202 32.4023 84.5716 32.9626 85.0939 33.4754C85.9296 34.3016 87.0502 34.482 88.0378 34.5485C88.3892 34.577 89.3578 34.7004 90.7537 34.9094C91.0006 34.9473 91.2001 35.1563 91.2096 35.4127C91.2476 36.0964 91.2191 36.5047 91.1811 36.7327L90.6303 36.6567C90.1745 36.1629 89.3958 35.84 88.636 35.84C87.6769 35.84 86.9552 36.3433 86.6323 37.198C86.4614 37.217 86.2715 37.2455 86.0815 37.2929C86.4424 36.7422 86.4709 36.2294 86.4804 36.1629L86.5279 34.9758L85.5687 35.6406ZM76.0249 35.745C75.9679 35.6976 75.9109 35.6406 75.8635 35.5836C75.854 35.5646 75.8445 35.5551 75.835 35.5361C75.7115 35.3367 75.7495 35.1278 75.778 34.9094C75.8065 34.6909 75.8065 34.4725 75.6071 34.3301C75.5511 34.2871 75.485 34.2592 75.4151 34.2493C75.3452 34.2393 75.274 34.2475 75.2082 34.2731C75.0753 34.3206 74.9518 34.4345 74.9043 34.5865C74.8758 34.6624 74.8758 34.7669 74.8758 34.8904C74.8758 34.9948 74.8853 35.1088 74.8853 35.2227C74.8853 35.4222 74.8663 35.6406 74.7809 35.8305L74.7524 35.8875C74.6384 36.0774 74.3345 36.3148 74.0212 36.3148C73.9451 36.3156 73.8696 36.3008 73.7994 36.2714C73.7292 36.242 73.6657 36.1986 73.6128 36.1439L72.7866 36.6472C72.7866 36.6472 72.7771 36.6472 72.7771 36.6377C72.7202 36.5522 72.6822 36.4668 72.6347 36.3908C72.5397 36.1914 72.4733 36.0109 72.4353 35.8305C72.2833 35.0328 72.7581 34.4535 73.5938 34.2636C73.9357 34.1876 74.2111 34.0072 74.1066 33.7318C74.0402 33.5514 73.9262 33.4849 73.7553 33.4849C73.5748 33.4849 73.3184 33.5514 72.9671 33.6273C72.8531 33.6463 72.7487 33.6653 72.6442 33.6843C72.5587 33.6938 72.4733 33.7033 72.3973 33.7033C72.0269 33.7033 71.7895 33.5229 71.7895 32.7822L71.0773 32.9341C71.4002 31.804 72.0554 31.3672 72.7392 31.3672C73.4419 31.3672 74.1826 31.8325 74.6384 32.4688L74.9233 32.5638L75.4266 32.7347L76.4332 33.0766C77.4114 32.2504 76.965 30.0757 76.965 30.0757C76.965 30.0757 75.0563 29.0026 75.6925 26.619C75.6925 26.619 76.0249 24.3779 80.1083 24.3779C80.5452 24.3779 81.02 24.4064 81.5423 24.4634C81.8556 24.5014 82.1405 24.5393 82.3969 24.5868C82.3969 24.5868 82.3969 24.5963 82.4064 24.5963C82.3115 24.8147 82.283 25.0616 82.3305 25.299C82.3775 25.5732 82.5193 25.8221 82.7309 26.0026C82.9426 26.1831 83.2109 26.2836 83.489 26.2867C83.6979 26.2867 83.8974 26.2297 84.0873 26.1252C84.0873 26.2297 84.0778 26.3246 84.0683 26.4196C83.9923 26.9514 83.9164 27.5212 83.8689 28.1195C83.0427 28.5373 79.2157 29.0121 79.2157 29.0121C79.586 30.8164 79.3486 32.5258 79.0637 33.3804C78.9593 33.6938 78.7788 33.9407 78.5509 34.1402C78.3705 34.3016 78.1616 34.425 77.9242 34.52C77.8767 35.1468 77.8292 35.6121 77.7152 35.9824C77.6867 36.1154 77.6393 36.2294 77.5823 36.3243C77.2974 36.8086 76.7086 36.9226 76.1768 36.9606L76.2623 35.954C76.2338 35.897 76.0629 35.7735 76.0249 35.745ZM77.3829 21.7284C77.5443 21.472 78.0856 21.1776 78.6459 20.8547C78.7124 20.8168 78.7883 20.7788 78.8643 20.7313L79.1777 21.0162C79.4341 21.2441 79.7 21.4625 79.9659 21.6714L79.9754 21.6809L81.2859 23.0484C81.6277 23.4093 81.8652 23.6847 82.0266 23.9126L80.1178 23.7796C79.1777 23.7796 78.418 23.8936 77.8007 24.074C77.8862 23.9411 77.9527 23.7891 77.9906 23.6372C78.1426 22.9155 77.7912 22.2412 77.3829 21.7284ZM82.8053 24.055C82.6913 23.8366 82.5109 23.5612 82.207 23.1909C82.283 23.2383 82.3685 23.2858 82.4349 23.3238C82.8908 23.5802 83.2326 23.8936 83.489 24.2355C83.6884 24.5014 83.8214 24.7862 83.9259 25.0616C83.9638 25.1661 83.9923 25.2801 84.0113 25.3845C83.9558 25.4733 83.8789 25.5468 83.7877 25.5982C83.6964 25.6496 83.5937 25.6774 83.489 25.6789C83.4036 25.6789 83.3181 25.6599 83.2326 25.6124C83.1552 25.5712 83.0874 25.5141 83.0337 25.4448C82.98 25.3755 82.9415 25.2956 82.9209 25.2104C82.9003 25.1252 82.8979 25.0365 82.914 24.9503C82.9301 24.8641 82.9642 24.7823 83.0142 24.7103C83.0333 24.6796 83.0556 24.6509 83.0807 24.6248C82.9857 24.4634 82.9192 24.2829 82.8053 24.055ZM73.9547 7.05655C74.3345 7.31295 74.6954 7.60734 75.0468 7.90172C75.6166 8.37654 76.1673 8.87985 76.7656 9.32618C76.9555 9.46862 77.5348 9.90545 77.9906 10.2568C77.8577 10.3993 77.7342 10.5417 77.6108 10.6937C77.2784 11.1305 77.003 11.6243 76.7941 12.1371L75.721 11.121C75.835 10.8266 75.873 10.4847 75.835 10.1334C75.835 10.1144 75.8255 10.0954 75.8255 10.0669L75.2557 10.3423C75.2747 10.7696 75.1132 11.216 74.7239 11.4249C74.6004 11.4913 74.496 11.5198 74.3535 11.5198H74.344L74.363 10.9975C74.1731 10.9975 73.9167 10.7981 73.9167 10.5227C73.9167 10.2093 74.1161 10.0384 74.363 9.96243V9.35467C73.8882 9.44013 73.5368 9.72502 73.3944 10.1144L72.7676 10.1239C72.7392 9.64905 72.9671 9.22172 73.4514 9.06028V8.44302C73.043 8.52848 72.7771 8.72791 72.6157 8.90834C72.5682 8.95582 72.5302 9.0128 72.4828 9.06978L72.0079 9.07927C71.9889 8.62345 72.2169 8.2151 72.6442 8.07266V7.4554C72.3783 7.51237 72.1504 7.61683 71.951 7.78777H71.5046C71.5141 7.49338 71.6851 7.20849 71.9225 7.02806C72.1314 6.87612 72.3973 6.79065 72.6632 6.76216C72.7486 6.75267 72.8341 6.74317 72.9196 6.74317C73.2883 6.74102 73.6491 6.85024 73.9547 7.05655ZM72.6822 3.25801C73.043 2.64074 73.252 1.85255 73.2615 1.03586H74.6954C74.7049 1.14032 74.7144 1.23528 74.7144 1.33974C74.7144 2.90664 73.4609 4.17915 71.913 4.17915H71.8085C72.1409 3.97973 72.4353 3.67585 72.6822 3.25801ZM66.1392 3.25801C66.5001 2.64074 66.709 1.85255 66.7185 1.03586H68.6652C68.6747 1.85255 68.8836 2.64074 69.2445 3.25801C69.4914 3.67585 69.7858 3.98923 70.1182 4.17915H68.8172C68.4848 3.83728 68.2094 3.37196 68.029 2.82117H67.3737C67.2028 3.37196 66.9274 3.83728 66.5855 4.17915H65.256C65.5979 3.97973 65.9018 3.67585 66.1392 3.25801ZM59.5012 3.25801C59.8621 2.64074 60.071 1.85255 60.0805 1.03586H62.1317C62.1412 1.85255 62.3501 2.64074 62.711 3.25801C62.9579 3.67585 63.2523 3.97973 63.5847 4.17915H62.1697C61.8373 3.83728 61.5619 3.37196 61.3815 2.82117H60.7263C60.5553 3.37196 60.2799 3.83728 59.9381 4.17915H58.6086C58.9505 3.97973 59.2543 3.67585 59.5012 3.25801ZM53.0247 3.25801C53.3856 2.64074 53.5945 1.85255 53.604 1.03586H55.4843C55.4938 1.85255 55.7027 2.64074 56.0636 3.25801C56.3105 3.67585 56.6049 3.98923 56.9372 4.17915H55.6077C55.2754 3.83728 55 3.37196 54.8195 2.82117H54.1643C53.9934 3.37196 53.718 3.83728 53.3761 4.17915H52.1321C52.4834 3.97973 52.7873 3.67585 53.0247 3.25801ZM47.5263 1.29226C47.5263 1.20679 47.5263 1.12133 47.5358 1.02636H49.0078C49.0173 1.84305 49.2262 2.63125 49.587 3.24851C49.834 3.66635 50.1283 3.97973 50.4607 4.16966H50.3183C48.8178 4.17915 47.5263 2.85916 47.5263 1.29226ZM45.3137 9.31668C45.912 8.87035 46.4627 8.37654 47.0325 7.89223C47.3839 7.59784 47.7448 7.30345 48.1246 7.04705C48.343 6.89511 48.5899 6.80015 48.8558 6.76216C48.9508 6.74317 49.0553 6.73367 49.1597 6.73367C49.2547 6.73367 49.3496 6.74317 49.4541 6.75267C49.7105 6.79065 49.9669 6.86662 50.1663 7.01856C50.4037 7.1895 50.5747 7.47439 50.5842 7.77827H50.1378C49.9355 7.61541 49.6983 7.50165 49.4446 7.4459V8.06316C49.8814 8.20561 50.1093 8.61395 50.0809 9.06978L49.606 9.06028C49.5681 9.0033 49.5206 8.95582 49.4731 8.89884C49.3117 8.72791 49.0363 8.52848 48.6374 8.43352V9.05078C49.1122 9.21222 49.3401 9.63956 49.3211 10.1144L48.6944 10.1049C48.5519 9.70603 48.2006 9.43064 47.7258 9.34517V9.95294C47.9727 10.0289 48.1721 10.1998 48.1721 10.5132C48.1721 10.7886 47.9252 10.988 47.7258 10.988L47.7448 11.5103H47.7353C47.6023 11.5103 47.4884 11.4724 47.3649 11.4154C46.9755 11.2065 46.8236 10.7506 46.8331 10.3328L46.2633 10.0574C46.2633 10.0764 46.2538 10.0954 46.2538 10.1239C46.2063 10.4752 46.2538 10.8171 46.3678 11.1115L45.2947 12.1371C45.0858 11.6243 44.8104 11.14 44.478 10.6937C44.3546 10.5417 44.2311 10.3898 44.0982 10.2568C44.5445 9.89596 45.1238 9.45913 45.3137 9.31668ZM27.6695 37.2265C27.584 36.6472 27.679 34.5865 27.7454 33.4089C27.7739 32.9341 28.1348 32.5448 28.6001 32.4783C29.1319 32.4023 29.8156 32.2979 30.3189 32.1934C31.1166 32.0225 31.8858 31.6711 32.0663 31.1013C32.2182 30.6075 32.1327 30.5505 32.0853 30.0472C32.0473 29.6579 31.9998 29.259 31.9713 28.8697C31.9713 28.8127 31.9618 28.7462 31.9618 28.6892C31.9523 28.4613 31.9618 28.2239 31.9903 27.996L31.8479 28.0815C31.6959 28.1669 31.5345 28.2239 31.373 28.2714C31.1926 28.3189 31.0122 28.3379 30.8223 28.3379C30.4234 28.3379 30.0341 28.2334 29.6827 28.015C29.3727 27.829 29.1178 27.5638 28.9443 27.2467C28.7707 26.9296 28.6847 26.572 28.6951 26.2107C28.7236 24.8907 29.4738 23.9601 30.1955 23.0579C30.5374 22.6306 30.8982 22.1842 31.1641 21.7094C32.0093 20.19 32.2087 18.5376 31.7529 16.7998C31.5535 16.0401 31.0976 15.3564 30.6133 14.6251C30.4329 14.3497 30.262 14.0933 30.091 13.8085C30.091 13.8085 29.7112 13.9794 29.4643 13.9224C29.3904 13.901 29.3201 13.869 29.2554 13.8274C28.6761 13.4666 28.0588 11.9947 28.0873 10.2283C28.1063 8.82287 28.4387 7.65482 29.0939 6.69569C28.9515 7.09453 28.828 7.51237 28.752 7.93021C28.6666 8.38604 28.6381 8.86086 28.6666 9.31668C28.6951 9.782 28.79 10.2283 28.942 10.6462C28.8755 10.1998 28.8755 9.75351 28.9325 9.31668C28.9895 8.87985 29.1034 8.46201 29.2649 8.06316C29.4073 7.7118 29.5782 7.36993 29.7777 7.04705C29.6447 7.86374 29.6447 8.68992 29.8631 9.71553C29.9961 10.3518 30.2715 10.9595 30.5089 11.4913C30.7273 11.9757 30.8887 12.365 30.9552 12.6879C31.0312 13.0393 30.9837 13.3051 30.7463 13.5236C30.7843 13.59 30.8317 13.6565 30.8697 13.723C30.9742 13.8844 31.0882 14.0554 31.2021 14.2263C31.6959 14.9765 32.2087 15.7457 32.4366 16.6194C32.9304 18.5186 32.7025 20.3989 31.7814 22.0608C31.487 22.5926 31.1071 23.0579 30.7463 23.5137C30.072 24.3589 29.4263 25.1566 29.3978 26.2392C29.3883 26.733 29.6257 27.1603 30.0436 27.4167C30.4804 27.6826 31.0027 27.7016 31.449 27.4832C31.4585 27.4737 31.4775 27.4737 31.487 27.4642C31.8289 27.2838 32.1327 26.9419 32.3132 26.5431C32.3227 26.5241 32.3227 26.5051 32.3322 26.4861C32.5506 25.8498 32.8165 25.2231 33.1204 24.6248C34.013 22.8395 35.1241 21.1681 35.8268 19.2879C36.4346 17.6735 36.1592 15.7077 36.1592 15.7077C35.5419 15.9546 34.6398 15.9831 34.6398 15.9831C34.6683 13.9699 30.3474 9.29769 32.9779 3.59988C33.1584 3.89426 33.3958 4.19815 33.7281 4.51153L33.9655 4.73944V3.91325C32.5886 2.4888 33.2248 1.13082 33.7376 0.674999C34.127 0.817444 34.5733 1.24478 34.9057 1.76708L35.485 1.57715C35.3425 1.33974 35.1811 1.11183 35.0007 0.902911C35.0576 0.864926 35.1146 0.836437 35.1811 0.82694C35.2096 0.82694 35.2476 0.817444 35.295 0.817444C36.1592 0.817444 39.407 1.56766 39.7298 1.73859L40.0147 2.60276C40.8979 2.84017 41.7146 3.31499 42.2938 3.62836C42.1989 3.87527 41.933 4.43555 41.4012 4.37858C41.4012 4.37858 41.9235 4.69196 41.819 5.18577C41.6481 5.54663 41.4297 5.91699 41.1543 6.23986L40.6225 5.70807C39.9957 5.12879 39.4449 4.91987 38.9891 4.91987C38.3908 4.91987 37.973 5.29972 37.8021 5.73656C37.5362 6.4013 37.5647 6.9331 37.6596 7.27496C37.7356 7.53137 37.9445 7.74029 38.4193 7.77827C38.5048 7.78777 38.5998 7.78777 38.6947 7.78777C39.6729 7.78777 40.9549 7.4364 40.9549 7.4364C41.1543 8.49999 41.2777 8.70891 39.7583 8.70891C39.407 8.70891 38.9701 8.69942 38.4288 8.68042L39.9482 9.37366C40.1192 9.36416 40.2806 9.35467 40.4421 9.35467C41.5626 9.35467 42.4553 9.68704 43.158 10.2283C43.3195 10.3518 43.4714 10.4847 43.6138 10.6272C44.1551 11.178 44.5445 11.8617 44.8199 12.5834C44.8958 12.7923 44.9623 13.0013 45.0193 13.2102C45.3137 14.3118 45.3517 15.4608 45.1997 16.382C45.0858 16.2395 44.9718 16.1066 44.8389 15.9736L44.7724 15.9072C44.3166 15.4608 43.5474 14.6916 42.6262 14.2168C42.2844 13.9129 41.9615 13.609 41.6481 13.2767C40.9739 12.5644 40.3756 11.7762 39.9293 10.8836C40.2046 11.8427 40.67 12.7639 41.2208 13.609C41.4392 13.9414 41.6671 14.2643 41.9045 14.5777C42.1134 14.6631 42.3033 14.7581 42.4933 14.872C43.3005 15.3279 43.9842 16.0306 44.383 16.4294C44.6205 16.6574 44.8104 16.9138 44.9908 17.1797C45.1333 17.3886 45.2567 17.5975 45.3897 17.8159C45.4846 17.9774 45.5891 18.1483 45.684 18.3097C46.1114 19.003 46.6812 19.6867 47.004 19.6867C47.118 19.6867 47.2035 19.6012 47.2414 19.4113C47.4124 18.5471 47.9537 18.1673 48.5424 18.1673C48.8178 18.1673 49.1027 18.2527 49.3591 18.4047L48.7704 18.9555C49.1217 19.3733 48.7514 20.0096 48.3715 20.2185C47.9632 20.4369 48.1816 20.8168 48.476 20.8168C48.5709 20.8168 48.6659 20.7788 48.7609 20.6933C49.0078 20.4654 49.3306 20.3514 49.644 20.3514C50.3088 20.3514 50.964 20.8642 50.8786 21.9278L50.3657 21.6429C50.1948 22.2032 49.796 22.4406 49.4256 22.4406C49.2547 22.4406 49.0932 22.3932 48.9698 22.2982C48.6849 22.0893 48.3905 21.8709 48.1911 21.8709C48.1246 21.8709 48.0581 21.8993 48.0201 21.9563C47.8682 22.1652 48.0296 22.3742 48.5709 22.6401C49.5301 23.1149 49.682 24.5108 48.2671 24.7767L48.1151 23.9126C48.0486 23.9316 47.9822 23.9411 47.9157 23.9411C47.5073 23.9411 47.2225 23.5802 47.175 23.3143C47.1085 22.925 47.1275 22.6875 47.1085 22.4406C47.099 22.2222 46.9566 22.1273 46.8141 22.1273C46.7216 22.1271 46.6326 22.1625 46.5654 22.2262C46.4983 22.2898 46.4581 22.3768 46.4532 22.4691C46.4248 22.8775 46.4343 23.4093 45.7125 23.5327L45.4846 24.2639C44.8009 24.0265 44.1171 23.2383 45.3612 21.9088C45.3802 21.2346 44.6679 20.8453 43.6708 20.285C43.4999 20.19 43.3195 20.0855 43.139 19.9811L42.8541 19.8102C42.6547 19.6867 41.8855 19.1264 41.2113 18.5471L40.6225 18.8605C40.7459 18.965 40.8789 19.0789 41.0308 19.2119C41.6386 19.7152 42.2938 20.209 42.5408 20.3514L42.6832 20.4369C42.0374 21.0352 41.3442 21.5575 40.7175 21.9753C40.4611 22.1463 40.2141 22.3077 39.9862 22.4501C39.7583 22.5926 39.5399 22.716 39.3595 22.8205C38.8562 23.1054 38.4573 23.4568 38.1534 23.8556C37.954 24.112 37.8021 24.3874 37.6881 24.6628C37.5742 24.9287 37.4982 25.2041 37.4602 25.4795C37.4412 25.5744 37.4317 25.6599 37.4222 25.7549C37.4032 26.0113 37.4127 26.2582 37.4412 26.4956C37.4792 26.752 37.5077 27.0084 37.5457 27.2648C37.5932 27.6541 37.6311 28.034 37.6596 28.4233C37.6976 28.8792 37.7166 29.3255 37.7166 29.7718C37.7166 31.1393 37.5077 32.1174 36.5581 33.0481C35.8743 33.7223 34.9152 33.8838 33.9845 33.9502C33.5002 33.9787 32.1422 34.1781 31.2211 34.3206C30.6893 34.3966 30.2905 34.8429 30.262 35.3842C30.224 36.1154 30.2335 37.0745 30.4899 37.3974L31.7434 37.2265C32.0378 36.7896 32.7405 36.4478 33.4243 36.4478C33.956 36.4478 34.4783 36.6567 34.7727 37.2075C34.8582 37.3689 34.9342 37.5588 34.9722 37.7868L35.0007 37.9957L34.6018 37.8342L34.3739 37.7393C34.3644 37.7962 34.3549 37.8437 34.3454 37.8912C34.2125 38.442 33.9276 38.6414 33.5857 38.6414C33.3851 38.6326 33.1882 38.5842 33.0064 38.499C32.6835 38.366 32.4556 38.2616 32.2847 38.2616C32.1707 38.2616 32.0853 38.3091 32.0093 38.442C31.9048 38.6224 32.0093 38.7744 32.1897 38.8978C32.2467 38.9358 32.3227 38.9738 32.3892 39.0023C33.3483 39.4011 33.6237 40.3318 32.7405 41.3004L32.0758 40.7116C31.9713 40.7781 31.8669 40.8066 31.7719 40.8066C31.449 40.8066 31.1546 40.5122 31.0787 40.2938C30.9552 39.9614 31.0881 39.5816 31.1356 39.3062C31.1451 39.2302 31.1546 39.1542 31.1451 39.0972C31.1338 39.0248 31.1055 38.9561 31.0626 38.8967C31.0197 38.8373 30.9634 38.7889 30.8982 38.7554C30.8444 38.7266 30.7846 38.7108 30.7237 38.7092C30.6627 38.7075 30.6021 38.7201 30.5469 38.7459C30.4899 38.7744 30.4424 38.8124 30.4044 38.8598C30.3189 38.9643 30.3 39.1067 30.3 39.2492C30.3 39.3252 30.3 39.4106 30.2905 39.4866C30.2797 39.6238 30.2189 39.7522 30.1195 39.8475C30.0625 39.8949 30.0056 39.9329 29.9486 39.9709C29.9106 39.9899 29.7302 40.0754 29.7207 40.1134L29.6352 41.044C28.9705 40.8826 28.2392 40.5597 28.4197 39.5246C28.4482 39.3536 28.5051 39.1542 28.6001 38.9358C28.6286 38.8598 28.6666 38.7744 28.7141 38.6889C28.1443 38.404 27.7644 37.8627 27.6695 37.2265ZM38.9986 6.61972C39.3405 6.61972 39.6918 6.70518 40.0622 6.83813C40.4611 6.59123 40.5465 6.27785 40.6985 6.25885C40.8124 6.24936 40.8599 6.57223 40.8029 6.87612C40.8029 6.87612 40.2426 6.99957 39.8723 7.05655C39.5019 7.12302 39.0841 7.18 38.7137 7.18C38.6283 7.18 38.5523 7.18 38.4858 7.1705C38.3054 7.15151 38.2484 7.11353 38.2484 7.10403V7.09453C38.2221 7.01166 38.2092 6.92508 38.2104 6.83813C38.4478 6.68619 38.7137 6.61972 38.9986 6.61972ZM38.2674 6.21137C38.2864 6.12591 38.3244 6.03094 38.3624 5.93598C38.4003 5.83152 38.5713 5.49915 38.9986 5.49915C39.2455 5.49915 39.6539 5.60361 40.2141 6.12591L40.4421 6.36331C39.9388 6.20188 39.4449 6.06893 38.9891 6.06893C38.7422 6.06893 38.5048 6.11641 38.2674 6.21137ZM45.6461 33.0766L46.6622 32.7347L47.1655 32.5638L47.4504 32.4688C47.9062 31.823 48.6469 31.3672 49.3496 31.3672C50.0334 31.3672 50.6886 31.804 51.0115 32.9341L50.2993 32.7822C50.2993 33.5134 50.0619 33.7033 49.6915 33.7033C49.6155 33.7033 49.5301 33.6938 49.4446 33.6843C49.3401 33.6653 49.2357 33.6463 49.1217 33.6273C48.7704 33.5609 48.514 33.4849 48.3335 33.4849C48.1626 33.4849 48.0486 33.5514 47.9822 33.7318C47.8872 34.0072 48.1531 34.1781 48.495 34.2636C49.3306 34.4535 49.8055 35.0423 49.6535 35.8305C49.6155 36.0109 49.5586 36.1914 49.4541 36.3908C49.4161 36.4763 49.3686 36.5522 49.3117 36.6377C49.3117 36.6377 49.3022 36.6377 49.3022 36.6472L48.476 36.1439C48.4231 36.1986 48.3596 36.242 48.2894 36.2714C48.2192 36.3008 48.1437 36.3156 48.0676 36.3148C47.7542 36.3148 47.4504 36.0869 47.3364 35.8875L47.3079 35.8305C47.213 35.6406 47.2035 35.4222 47.2035 35.2227C47.2035 35.1088 47.213 34.9948 47.213 34.8904C47.213 34.7669 47.213 34.6624 47.1845 34.5865C47.1594 34.5154 47.1193 34.4506 47.0668 34.3965C47.0144 34.3424 46.9508 34.3003 46.8806 34.2731C46.8148 34.2475 46.7436 34.2393 46.6737 34.2493C46.6038 34.2592 46.5377 34.2871 46.4817 34.3301C46.2823 34.4725 46.2823 34.6909 46.3108 34.9094C46.3393 35.1373 46.3773 35.3462 46.2538 35.5361C46.2443 35.5551 46.2348 35.5646 46.2253 35.5836C46.1779 35.6406 46.1209 35.6976 46.0639 35.745C46.0259 35.7735 45.855 35.897 45.855 35.9445L45.9404 36.9511C45.4086 36.9131 44.8199 36.7991 44.535 36.3148C44.478 36.2199 44.4305 36.0964 44.402 35.9729C44.2976 35.6026 44.2501 35.1468 44.1931 34.5105C43.9634 34.4218 43.7513 34.2932 43.5664 34.1307C43.3384 33.9312 43.158 33.6843 43.0536 33.3709C42.7687 32.5163 42.5218 30.8069 42.9016 29.0026C42.9016 29.0026 39.0746 28.5278 38.2484 28.11C38.1914 27.5117 38.1249 26.9324 38.049 26.4101C38.0395 26.3152 38.03 26.2202 38.03 26.1157C38.2003 26.2164 38.3935 26.2719 38.5913 26.2769C38.7891 26.2819 38.9849 26.2362 39.16 26.1442C39.4924 25.9733 39.7203 25.6599 39.7868 25.2895C39.8343 25.0521 39.8058 24.8052 39.7108 24.5868C39.7108 24.5868 39.7108 24.5773 39.7203 24.5773C39.9767 24.5298 40.2616 24.4919 40.575 24.4539C41.0973 24.3969 41.5721 24.3684 42.009 24.3684C46.0924 24.3684 46.4248 26.6095 46.4248 26.6095C47.061 28.9931 45.1523 30.0662 45.1523 30.0662C45.1523 30.0662 44.6774 32.2504 45.6461 33.0766ZM35.5894 36.1629C35.5894 36.2294 35.6274 36.7422 35.9883 37.2929C35.7888 37.2455 35.6084 37.217 35.4375 37.198C35.1146 36.3433 34.3929 35.84 33.4338 35.84C32.674 35.84 31.8953 36.1629 31.4395 36.6567L30.8887 36.7327C30.8507 36.4952 30.8223 36.0869 30.8602 35.4127C30.8697 35.1563 31.0692 34.9473 31.3161 34.9094C32.712 34.7004 33.6807 34.5675 34.032 34.5485C35.0196 34.482 36.1402 34.3016 36.9759 33.4754C37.4982 32.9626 37.859 32.3928 38.0585 31.7566C38.2294 31.2153 38.3054 30.6075 38.3054 29.7718C38.3054 29.4395 38.2959 29.1071 38.2769 28.7747C38.4193 28.8222 38.5903 28.8697 38.7802 28.9172C39.198 29.0216 39.7678 29.1356 40.4611 29.2495C41.0973 29.354 41.7336 29.4489 42.1799 29.5059C41.952 31.1678 42.1704 32.6872 42.4648 33.5514C42.6547 34.1212 43.0441 34.577 43.6043 34.8904C43.6043 35.4981 43.7943 36.1059 43.7943 36.1249C43.3669 35.9065 42.7117 35.6596 41.952 35.6596C41.6386 35.6596 41.3252 35.7071 41.0308 35.783C40.8409 35.84 40.6605 35.897 40.48 35.9445C39.8153 36.1439 39.198 36.3433 38.5428 36.3433C37.8496 36.3433 37.1943 36.1249 36.4916 35.6406L35.5135 34.9758L35.5894 36.1629ZM39.0841 24.7198C39.293 25.0426 39.179 25.4605 38.8657 25.6219C38.7802 25.6694 38.6947 25.6884 38.6093 25.6884C38.5045 25.6869 38.4019 25.6591 38.3106 25.6077C38.2194 25.5563 38.1425 25.4828 38.087 25.394C38.106 25.2895 38.1439 25.1756 38.1724 25.0711C38.2674 24.7862 38.4098 24.5108 38.6093 24.2449C38.8657 23.9031 39.2075 23.5897 39.6634 23.3333C39.7298 23.2953 39.8058 23.2478 39.8913 23.2003C39.5874 23.5707 39.407 23.8366 39.293 24.0645C39.1695 24.2924 39.1126 24.4729 39.0271 24.6438C39.0366 24.6628 39.0651 24.6913 39.0841 24.7198ZM42.9111 21.0257L43.2245 20.7408C43.3005 20.7788 43.3669 20.8263 43.4429 20.8642C44.0032 21.1776 44.535 21.4815 44.7059 21.7379C44.2976 22.2412 43.9367 22.925 44.1171 23.6372C44.1551 23.7891 44.2216 23.9411 44.3071 24.074C43.6898 23.8936 42.9301 23.7796 41.99 23.7796L40.0812 23.9126C40.2426 23.6847 40.4705 23.4093 40.8219 23.0484L42.1324 21.6809L42.1419 21.6714C42.3888 21.472 42.6547 21.2536 42.9111 21.0257ZM34.4404 41.3384C33.4622 42.383 32.1422 42.8673 30.7843 42.8673C28.4577 42.8673 26.0551 41.4334 25.2099 38.9073C25.2099 38.9073 26.359 39.2967 27.8404 39.4676C27.7739 39.8759 27.8119 40.2368 27.9639 40.5597C28.2867 41.2434 28.999 41.4903 29.5023 41.6233L30.1765 41.7942L30.243 41.101L30.3094 40.4552C30.3664 40.4172 30.4329 40.3698 30.4899 40.3223C30.4994 40.3793 30.5184 40.4362 30.5374 40.4932C30.6988 40.9395 31.2116 41.3954 31.7909 41.3954C31.8479 41.3954 31.9048 41.3954 31.9618 41.3859L32.3702 41.7467L32.807 42.1361L33.2058 41.6992C33.7661 41.0915 33.994 40.4077 33.8516 39.781C33.8041 39.5816 33.7281 39.3916 33.6142 39.2207C33.9655 39.2207 34.2789 39.0878 34.5163 38.8408C34.6018 38.7459 34.6873 38.6414 34.7442 38.518L34.7822 38.5275L35.7034 38.9073L35.5989 37.9197C35.5989 37.8817 35.5894 37.8532 35.5894 37.8152C35.9978 37.8817 36.4916 38.0337 37.1183 38.2711C37.2038 38.3185 37.2988 38.3565 37.3842 38.385C37.4317 38.404 37.4697 38.423 37.5172 38.4325C37.3178 38.5465 37.1183 38.6604 36.9379 38.7744C36.0357 39.3537 35.4185 39.9804 35.0956 40.6357C34.8962 40.8636 34.6778 41.0915 34.4404 41.3384ZM41.4772 39.2777C40.8219 39.8285 39.9103 39.9424 39.0841 39.9994C36.577 40.1893 35.5514 42.4495 35.5514 42.4495C35.3425 41.9272 35.3805 41.4333 35.5799 40.987C35.8838 40.3033 36.5675 39.7145 37.2893 39.2587C38.4953 38.499 39.8248 38.0716 39.8248 38.0716C39.5874 38.0906 39.369 38.1001 39.16 38.1001C38.6378 38.1001 38.2104 38.0337 37.8591 37.9292C37.6596 37.8722 37.4792 37.7962 37.3273 37.7203C36.2162 37.1505 36.1782 36.1344 36.1782 36.1344C37.0614 36.7327 37.8401 36.9416 38.5618 36.9416C39.4924 36.9416 40.3376 36.6092 41.2018 36.3623C41.4582 36.2863 41.7146 36.2578 41.9615 36.2578C42.6737 36.2578 43.291 36.5237 43.6423 36.7137C43.196 36.9891 42.8161 37.3404 42.5218 37.7868C42.4078 37.9672 42.3033 38.1476 42.2179 38.3185C41.9425 38.7079 41.7621 39.0498 41.4772 39.2777ZM45.6461 38.4135C44.7724 38.6129 43.9557 39.1162 43.6803 40.0184C43.5189 40.5407 43.5474 41.1105 43.5759 41.6518C43.5759 41.6518 41.7905 40.6357 42.7402 38.6319C42.8161 38.4705 42.9206 38.2901 43.0346 38.1096C43.2625 37.7583 43.5379 37.5114 43.7943 37.3214C43.8892 37.2645 43.9842 37.217 44.0887 37.16L44.3546 37.027C44.8104 37.4164 45.4276 37.5114 45.8835 37.5398L46.5767 37.5873L46.5197 36.8941L46.4627 36.1724C46.5387 36.1059 46.6147 36.0299 46.6907 35.935C46.6907 35.9255 46.7002 35.9255 46.7002 35.916C46.7286 36.0014 46.7666 36.0869 46.8141 36.1629C47.023 36.5237 47.5168 36.8846 48.0581 36.8846C48.2006 36.8846 48.3335 36.8561 48.4665 36.8086L48.7799 36.9986C48.7609 37.0175 48.7324 37.0365 48.7134 37.0555C47.6973 38.0147 46.9471 38.1191 45.6461 38.4135ZM72.5872 41.7182C72.5872 41.7182 73.1 39.4486 72.0079 38.7269C70.2606 37.5873 69.33 38.5655 67.3737 37.0745C67.3547 37.046 67.3262 37.027 67.3072 36.9986C66.3861 36.0679 65.37 35.4791 64.4488 35.1658C63.8126 35.2702 63.1099 35.3462 62.3312 35.3842C62.7816 35.4081 63.2294 35.4684 63.6701 35.5646C64.1355 35.6691 64.6293 35.8305 65.1231 36.0679C65.7214 36.3623 66.3196 36.8371 66.8799 37.4069C66.9179 37.4449 66.9464 37.4734 66.9749 37.5114C68.1904 38.8313 67.8675 40.1229 67.8675 40.1229C67.8675 40.1229 66.3101 38.0527 63.9835 38.0527C62.8724 38.0527 61.9133 38.423 61.4195 38.6699L61.0586 38.8598L60.6978 38.6699C60.204 38.4325 59.2448 38.0527 58.1338 38.0527C55.8072 38.0527 54.2498 40.1229 54.2498 40.1229C54.2498 40.1229 53.9174 38.8313 55.1424 37.5114C55.1709 37.4734 55.2089 37.4449 55.2374 37.4069C55.7977 36.8371 56.3959 36.3528 56.9942 36.0679C57.4579 35.8457 57.9453 35.6768 58.4471 35.5646C58.751 35.4981 59.0454 35.4506 59.3208 35.4222C59.4822 35.4032 59.6437 35.3937 59.7956 35.3842C59.0169 35.3462 58.3142 35.2702 57.6684 35.1658C56.7473 35.4791 55.7312 36.0584 54.81 36.9986C54.7816 37.027 54.7626 37.046 54.7436 37.0745C52.7873 38.5655 51.8567 37.5873 50.1093 38.7269C49.0173 39.4391 49.5301 41.7182 49.5301 41.7182C49.5301 41.7182 47.2225 39.9709 49.3117 37.6633C49.7485 37.179 50.2803 36.7801 50.6696 36.5142C50.9925 36.2958 51.2204 36.1724 51.2204 36.1724C51.2204 36.1724 51.0305 36.1534 50.7836 36.1059C50.6506 36.0869 50.4892 36.0489 50.3183 36.0109C50.2898 36.0014 50.2518 35.9919 50.2138 35.9824C50.2993 35.5741 50.2708 35.1753 50.1283 34.8239C50.0714 34.6814 49.9859 34.539 49.8909 34.4155C50.7931 34.6625 51.9042 34.8524 53.1672 34.8524C53.6515 34.8524 54.1548 34.7479 54.6866 34.6909C54.867 34.6719 55.0664 34.6624 55.2659 34.6624C55.3323 34.6624 55.3988 34.6624 55.4653 34.6719C54.9715 34.52 54.5346 34.3491 54.1358 34.1781C53.8129 34.2256 53.49 34.2731 53.1672 34.2731C52.1701 34.2731 51.2774 34.1496 50.5082 33.9692C50.6506 33.8268 50.7361 33.6653 50.7931 33.4849L50.8786 33.5039L51.8472 33.7128L51.5718 32.7537C51.059 30.9494 49.8434 30.7594 49.3401 30.7594C48.533 30.7594 47.6593 31.2248 47.08 31.956L45.8455 32.3738C45.5701 31.8705 45.5891 30.9779 45.6651 30.4176C45.8835 30.2561 46.1968 29.9807 46.4817 29.5724C46.9186 28.9551 47.3554 27.92 46.9755 26.4766C46.9376 26.2867 46.7381 25.5554 45.9594 24.9097L46.1019 24.4444L46.2253 24.036C46.4153 23.9601 46.5672 23.8461 46.6812 23.7226C46.8521 24.074 47.1845 24.3969 47.6023 24.5014L47.6688 24.8622L47.7732 25.489L48.3905 25.375C49.2452 25.2136 49.815 24.6818 49.9194 23.9601C49.9669 23.6372 49.9099 23.3048 49.7675 23.0009C50.0904 22.925 50.3847 22.7445 50.6032 22.4691L51.4103 22.925L51.4863 21.9563C51.5528 21.1112 51.2489 20.5794 50.983 20.2945C50.6411 19.9241 50.1473 19.7152 49.6345 19.7152C49.5776 19.7152 49.5301 19.7152 49.4731 19.7247C49.4826 19.6772 49.5016 19.6297 49.5111 19.5822C49.5396 19.4208 49.5396 19.2594 49.5111 19.0979L49.7865 18.8415L50.3942 18.2717L49.682 17.8444C49.3211 17.626 48.9318 17.512 48.5424 17.512C47.8967 17.512 47.156 17.8444 46.7856 18.7371C46.6337 18.5566 46.4343 18.3002 46.2158 17.9489L45.9594 17.5215C45.8645 17.3601 45.76 17.1892 45.6556 17.0277V17.0182C45.9689 15.8407 45.9594 14.2263 45.4941 12.7259L46.6622 11.6148C46.7761 11.7477 46.9186 11.8522 47.0705 11.9282C47.2889 12.0421 47.4884 12.0991 47.7163 12.0991H47.7258L48.343 12.0896V11.3299C48.362 11.3109 48.3905 11.2919 48.4095 11.2729C48.5804 11.1115 48.6849 10.9121 48.7229 10.6842L49.2927 10.6937L49.8624 10.7031L49.8909 10.1334C49.9004 9.96243 49.8814 9.80099 49.8529 9.63956H50.0619L50.6316 9.64905L50.6601 9.07927C50.6696 8.82287 50.6316 8.57596 50.5462 8.35755H51.1729L51.1539 7.74978C51.1444 7.27496 50.8975 6.81914 50.4987 6.53425C50.1473 6.27785 49.7485 6.18288 49.4351 6.15439V4.76793H72.6442V6.1449C72.3308 6.17339 71.913 6.26835 71.5521 6.53425C71.1533 6.82864 70.9064 7.28446 70.8969 7.74978L70.8779 8.35755H71.5046C71.4192 8.57596 71.3717 8.82287 71.3907 9.07927L71.4192 9.64905L71.9889 9.63956H72.1979C72.1599 9.7915 72.1504 9.96243 72.1599 10.1334L72.1884 10.7031L72.7581 10.6937L73.3279 10.6842C73.3659 10.9026 73.4704 11.1115 73.6413 11.2729C73.6603 11.2919 73.6888 11.3109 73.7078 11.3299V12.0896L74.325 12.0991H74.3345C74.5625 12.0991 74.7619 12.0421 74.9803 11.9282C75.1322 11.8427 75.2747 11.7383 75.3886 11.6148L76.5567 12.7259C76.0914 14.2263 76.0724 15.8407 76.3952 17.0182V17.0277C76.2908 17.1892 76.1863 17.3601 76.0914 17.5215L75.835 17.9489C75.626 18.2907 75.4171 18.5661 75.2652 18.7466C74.8948 17.8539 74.1541 17.5215 73.5084 17.5215C73.119 17.5215 72.7297 17.6355 72.3688 17.8539L71.6566 18.2812L72.2643 18.851L72.5397 19.1074C72.5112 19.2594 72.5112 19.4208 72.5397 19.5917C72.5492 19.6392 72.5587 19.6867 72.5777 19.7342C72.5207 19.7342 72.4733 19.7247 72.4163 19.7247C71.894 19.7247 71.4002 19.9336 71.0678 20.304C70.8019 20.5983 70.498 21.1206 70.5645 21.9658L70.6405 22.9345L71.4477 22.4786C71.6661 22.7445 71.9605 22.925 72.2833 23.0104C72.1409 23.3143 72.0839 23.6372 72.1314 23.9696C72.2358 24.7008 72.8056 25.2326 73.6603 25.3845L74.2776 25.4985L74.382 24.8717L74.4485 24.5108C74.8758 24.3969 75.2082 24.0835 75.3696 23.7321C75.4836 23.8556 75.6355 23.9601 75.8255 24.0455L75.9299 24.3874L75.9489 24.4539L76.0914 24.9192C75.3127 25.5744 75.1132 26.2962 75.0753 26.4861C74.6954 27.9295 75.1322 28.9646 75.5691 29.5819C75.854 29.9902 76.1673 30.2656 76.3858 30.4271C76.4617 30.9874 76.4807 31.88 76.2053 32.3833L74.9708 31.9655C74.382 31.2343 73.5179 30.7689 72.7107 30.7689C72.2074 30.7689 70.9918 30.9589 70.479 32.7632L70.2036 33.7223L71.1723 33.5134L71.2577 33.4944C71.3147 33.6653 71.4002 33.8363 71.5426 33.9787C70.7734 34.1496 69.8808 34.2826 68.8836 34.2826C68.5608 34.2826 68.2379 34.2351 67.915 34.1876C67.5162 34.3586 67.0793 34.5295 66.5855 34.6814H66.7754C66.9749 34.6814 67.1743 34.6909 67.3547 34.7099C67.8865 34.7764 68.3898 34.8714 68.8741 34.8714C70.1372 34.8714 71.2482 34.6814 72.1504 34.4345C72.0554 34.558 71.9699 34.6909 71.913 34.8429C71.7705 35.1942 71.742 35.5931 71.8275 36.0014L71.723 36.0299C71.5521 36.0679 71.3907 36.1059 71.2577 36.1249C71.0013 36.1724 70.8494 36.1819 70.8494 36.1819C70.8494 36.1819 71.0773 36.3053 71.4002 36.5237C71.7895 36.7896 72.3118 37.1885 72.7581 37.6728C74.8948 39.9709 72.5872 41.7182 72.5872 41.7182ZM78.5129 41.6518C78.5414 41.1105 78.5604 40.5407 78.4085 40.0184C78.1331 39.1162 77.3164 38.6224 76.4427 38.4135C75.1417 38.1096 74.3915 38.0147 73.3754 37.0745C73.3564 37.0555 73.3279 37.0365 73.3089 37.0175L73.6223 36.8276C73.7458 36.8751 73.8882 36.9036 74.0307 36.9036C74.5814 36.9036 75.0753 36.5427 75.2747 36.1819C75.3222 36.0964 75.3601 36.0204 75.3886 35.935C75.3886 35.9445 75.3981 35.9445 75.3981 35.954C75.4741 36.0489 75.5501 36.1249 75.626 36.1914L75.5691 36.9131L75.5121 37.6063L76.2053 37.5588C76.6612 37.5303 77.2689 37.4354 77.7342 37.046L78.0001 37.179C78.1046 37.236 78.1996 37.2834 78.2945 37.3404C78.5604 37.5303 78.8263 37.7773 79.0542 38.1286C79.1777 38.3091 79.2726 38.48 79.3486 38.6509C80.2982 40.6357 78.5129 41.6518 78.5129 41.6518ZM86.5184 42.459C86.5184 42.459 85.5023 40.1988 82.9857 40.0089C82.1595 39.9424 81.2574 39.8285 80.5926 39.2872C80.3077 39.0498 80.1273 38.7079 79.8424 38.328C79.757 38.1476 79.6525 37.9767 79.5386 37.7962C79.2442 37.3499 78.8738 36.9891 78.418 36.7232C78.7693 36.5332 79.3771 36.2673 80.0988 36.2673C80.3457 36.2673 80.5926 36.2958 80.8585 36.3718C81.7322 36.6187 82.5679 36.9511 83.4985 36.9511C84.2203 36.9511 84.9989 36.7517 85.8821 36.1439C85.8821 36.1439 85.8346 37.16 84.733 37.7298C84.5811 37.8057 84.4007 37.8817 84.2012 37.9387C83.8499 38.0432 83.4131 38.1096 82.9003 38.1096C82.6913 38.1096 82.4729 38.1001 82.2355 38.0811C82.2355 38.0811 83.565 38.5085 84.771 39.2682C85.5023 39.7335 86.1765 40.3128 86.4804 40.9965C86.6893 41.4428 86.7368 41.9272 86.5184 42.459ZM91.3045 42.8673C89.9466 42.8673 88.6171 42.383 87.6484 41.3384C87.411 41.0915 87.2021 40.8541 86.9932 40.6452C86.6703 39.9804 86.053 39.3631 85.1509 38.7839C84.9705 38.6699 84.7805 38.556 84.5716 38.442C84.6191 38.423 84.6571 38.404 84.7046 38.3945C84.7995 38.3565 84.885 38.3186 84.9705 38.2806C85.5972 38.0337 86.091 37.8912 86.4994 37.8247C86.4994 37.8627 86.4899 37.8912 86.4899 37.9292L86.3854 38.9168L87.3066 38.537L87.3445 38.5275C87.411 38.6509 87.487 38.7554 87.5725 38.8503C87.8099 39.0972 88.1232 39.2302 88.4746 39.2302C88.3606 39.4011 88.2847 39.5911 88.2372 39.7905C88.0948 40.4172 88.3322 41.101 88.883 41.7087L89.2818 42.1456L89.7186 41.7562L90.127 41.3954C90.184 41.4049 90.2409 41.4049 90.2979 41.4049C90.8772 41.4049 91.39 40.949 91.5514 40.5027C91.5704 40.4457 91.5894 40.3888 91.5989 40.3318C91.6654 40.3793 91.7224 40.4267 91.7794 40.4647L91.8458 41.1105L91.9123 41.8037L92.5865 41.6328C93.0898 41.5093 93.8021 41.2529 94.1249 40.5692C94.2769 40.2463 94.3149 39.8854 94.2484 39.4771C95.7203 39.3062 96.8789 38.9168 96.8789 38.9168C96.0242 41.4428 93.6216 42.8673 91.3045 42.8673ZM39.6064 2.7452C38.7422 2.98261 37.6501 2.7547 37.6501 2.7547C38.3149 3.40995 38.5333 3.8088 38.5333 3.8088C39.407 3.85628 39.6064 3.2865 39.6064 2.7452ZM82.4824 2.7452C82.4824 3.2865 82.6818 3.85628 83.5555 3.81829C83.5555 3.81829 83.7834 3.41945 84.4387 2.7642C84.4387 2.7642 83.3466 2.98261 82.4824 2.7452ZM83.0047 14.4447L83.4605 13.6755C83.7074 13.2577 83.9354 12.8113 84.1348 12.3555C84.3247 11.8997 84.4861 11.4439 84.6286 10.9785C84.7805 10.5227 84.9135 10.0574 85.0464 9.59208C84.8375 10.0289 84.6286 10.4562 84.4007 10.8836C84.1823 11.3109 83.9544 11.7288 83.7075 12.1276C83.451 12.5264 83.1757 12.8968 82.8718 13.2577C82.6059 13.5805 82.321 13.9129 82.0456 14.2358C82.359 14.2738 82.6818 14.3308 83.0047 14.4447ZM37.954 12.3555C38.1439 12.8113 38.3814 13.2577 38.6283 13.6755L39.0841 14.4447C39.407 14.3308 39.7298 14.2643 40.0432 14.2453C39.7678 13.9224 39.4829 13.59 39.217 13.2672C38.9131 12.8968 38.6378 12.5264 38.3813 12.1371C38.1344 11.7383 37.9065 11.3204 37.6881 10.8931C37.4697 10.4657 37.2608 10.0289 37.0424 9.60157C37.1753 10.0669 37.3178 10.5227 37.4602 10.988C37.6026 11.4439 37.7641 11.8997 37.954 12.3555ZM37.8116 15.1095C37.0804 14.0554 36.3776 12.9823 35.7888 11.8522C35.466 11.2349 35.1811 10.5987 34.9532 9.94344C34.7158 9.28819 34.5258 8.61395 34.3739 7.93021C34.4499 8.63294 34.5543 9.32618 34.7158 10.0194C34.8772 10.7126 35.0956 11.3869 35.352 12.0516C35.6084 12.7164 35.9028 13.3621 36.2067 13.9984C36.4536 14.5017 36.71 14.9955 36.9664 15.4893C37.2133 15.4133 37.4982 15.2899 37.8116 15.1095ZM85.1034 15.4893C85.3693 14.9955 85.6257 14.5017 85.8631 13.9984C86.1765 13.3621 86.4709 12.7164 86.7178 12.0516C86.9742 11.3869 87.1831 10.7031 87.354 10.0194C87.5155 9.32618 87.6294 8.63294 87.6959 7.93021C87.544 8.61395 87.354 9.28819 87.1166 9.94344C86.8792 10.5987 86.5943 11.2349 86.281 11.8522C85.6922 12.9823 84.9894 14.0554 84.2582 15.1095C84.5906 15.2899 84.866 15.4133 85.1034 15.4893ZM37.0519 48.9545C36.3111 48.9545 35.7604 49.2394 35.3995 49.8091C35.0671 49.2394 34.5543 48.9545 33.8706 48.9545C33.1868 48.9545 32.674 49.2204 32.3322 49.7427V49.0969H31.1641V54.4813H32.3322V51.4615C32.3322 50.9962 32.4461 50.6448 32.6645 50.3979C32.883 50.1605 33.1773 50.037 33.5287 50.037C33.8516 50.037 34.0985 50.1415 34.2789 50.3409C34.4594 50.5499 34.5448 50.8347 34.5448 51.2051V54.4718H35.7129V51.452C35.7129 50.9772 35.8173 50.6258 36.0263 50.3884C36.2352 50.151 36.5201 50.037 36.8809 50.037C37.2038 50.037 37.4602 50.1415 37.6501 50.3409C37.8401 50.5499 37.935 50.8347 37.935 51.2051V54.4718H39.1031V51.1291C39.1031 50.4644 38.9131 49.9326 38.5428 49.5337C38.1534 49.1539 37.6596 48.9545 37.0519 48.9545ZM99.3669 48.9545C98.6072 48.9545 98.0469 49.2299 97.6956 49.7806V46.9317H96.5275V54.4718H97.6956V51.585C97.6956 51.0627 97.819 50.6733 98.0754 50.4169C98.3223 50.1605 98.6547 50.037 99.063 50.037C99.4334 50.037 99.7278 50.1415 99.9462 50.3599C100.165 50.5783 100.269 50.8822 100.269 51.2906V54.4813H101.437V51.1766C101.437 50.4834 101.247 49.9421 100.867 49.5527C100.478 49.1539 99.9842 48.9545 99.3669 48.9545ZM20.3763 51.6894H22.9023C22.7883 52.2117 22.5224 52.6296 22.0951 52.9429C21.6773 53.2563 21.1265 53.4083 20.4617 53.4083C19.6261 53.4083 18.9518 53.1519 18.439 52.639C17.9262 52.1262 17.6698 51.49 17.6698 50.7113C17.6698 49.9326 17.9262 49.2868 18.439 48.774C18.9518 48.2612 19.5976 47.9953 20.3858 47.9953C20.8701 47.9953 21.3164 48.1093 21.7152 48.3277C22.1141 48.5461 22.4085 48.8405 22.6079 49.1919L23.4626 48.2707C23.1587 47.8719 22.7788 47.53 22.3135 47.2736C21.7342 46.9507 21.0885 46.7893 20.3858 46.7893C19.2652 46.7893 18.3251 47.1692 17.5653 47.9289C16.8056 48.6886 16.4258 49.6097 16.4258 50.7018C16.4258 51.8034 16.8056 52.7245 17.5653 53.4842C18.3251 54.2344 19.2842 54.6143 20.4522 54.6143C21.5538 54.6143 22.4465 54.2819 23.1207 53.6267C23.8044 52.9714 24.1463 52.1262 24.1463 51.0911V50.5878H20.3763V51.6894ZM105.502 50.2175V49.0969H104.163V47.587H102.995V49.0969H102.007V50.2175H102.995V52.8005C102.995 53.5032 103.184 53.9875 103.574 54.2534C103.963 54.5193 104.599 54.5953 105.492 54.4813V53.4367C105.198 53.4557 104.951 53.4557 104.751 53.4462C104.552 53.4367 104.4 53.3798 104.305 53.2848C104.201 53.1898 104.153 53.0284 104.153 52.8005V50.2175H105.502ZM27.66 48.9545C26.8243 48.9545 26.1406 49.2299 25.6088 49.7711C25.0865 50.3124 24.8206 50.9867 24.8206 51.7939C24.8206 52.6106 25.0865 53.2943 25.6277 53.8261C26.169 54.3579 26.8718 54.6333 27.7549 54.6333C28.6856 54.6333 29.4168 54.3104 29.9391 53.6836L29.1509 52.8955C28.8375 53.3418 28.3817 53.5602 27.7644 53.5602C27.3181 53.5602 26.9382 53.4462 26.6344 53.2278C26.321 53.0094 26.1311 52.696 26.0456 52.2877H30.3379C30.3664 52.0883 30.3854 51.9268 30.3854 51.8034C30.3854 51.0152 30.129 50.3409 29.6257 49.7901C29.1034 49.2299 28.4482 48.9545 27.66 48.9545ZM26.0266 51.3381C26.1026 50.9297 26.2925 50.6068 26.5774 50.3694C26.8623 50.132 27.2231 50.0181 27.6505 50.0181C28.0303 50.0181 28.3627 50.132 28.6476 50.3504C28.9325 50.5688 29.1129 50.9012 29.1889 51.3381H26.0266ZM42.7307 48.9545C41.895 48.9545 41.2113 49.2299 40.6795 49.7711C40.1477 50.3124 39.8818 50.9867 39.8818 51.7939C39.8818 52.6106 40.1477 53.2943 40.689 53.8261C41.2303 54.3579 41.933 54.6333 42.8161 54.6333C43.7468 54.6333 44.478 54.3104 45.0003 53.6836L44.2121 52.8955C43.8987 53.3418 43.4429 53.5602 42.8256 53.5602C42.3793 53.5602 41.9995 53.4462 41.6956 53.2278C41.3822 53.0094 41.1923 52.696 41.1068 52.2877H45.3992C45.4276 52.0883 45.4466 51.9268 45.4466 51.8034C45.4466 51.0152 45.1902 50.3409 44.6869 49.7901C44.1646 49.2299 43.5189 48.9545 42.7307 48.9545ZM41.0878 51.3381C41.1638 50.9297 41.3537 50.6068 41.6386 50.3694C41.9235 50.132 42.2844 50.0181 42.7117 50.0181C43.0915 50.0181 43.4239 50.132 43.7088 50.3504C43.9937 50.5688 44.1741 50.9012 44.2501 51.3381H41.0878ZM48.8083 48.9545C47.9727 48.9545 47.2889 49.2299 46.7571 49.7711C46.2253 50.3124 45.9594 50.9867 45.9594 51.7939C45.9594 52.6106 46.2253 53.2943 46.7666 53.8261C47.3079 54.3579 48.0107 54.6333 48.8938 54.6333C49.8245 54.6333 50.5557 54.3104 51.078 53.6836L50.2898 52.8955C49.9764 53.3418 49.5206 53.5602 48.9033 53.5602C48.457 53.5602 48.0771 53.4462 47.7732 53.2278C47.4599 53.0094 47.2699 52.696 47.1845 52.2877H51.4768C51.5053 52.0883 51.5243 51.9268 51.5243 51.8034C51.5243 51.0152 51.2679 50.3409 50.7646 49.7901C50.2518 49.2299 49.606 48.9545 48.8083 48.9545ZM47.175 51.3381C47.2509 50.9297 47.4409 50.6068 47.7258 50.3694C48.0107 50.132 48.3715 50.0181 48.7989 50.0181C49.1787 50.0181 49.5111 50.132 49.796 50.3504C50.0809 50.5688 50.2613 50.9012 50.3373 51.3381H47.175ZM64.6198 48.9545C63.7841 48.9545 63.1004 49.2299 62.5686 49.7711C62.0368 50.3124 61.7709 50.9867 61.7709 51.7939C61.7709 52.6106 62.0368 53.2943 62.5781 53.8261C63.1194 54.3579 63.8221 54.6333 64.7052 54.6333C65.6359 54.6333 66.3671 54.3104 66.8894 53.6836L66.1012 52.8955C65.7878 53.3418 65.332 53.5602 64.7147 53.5602C64.2684 53.5602 63.8886 53.4462 63.5847 53.2278C63.2713 53.0094 63.0814 52.696 62.9959 52.2877H67.2882C67.3167 52.0883 67.3357 51.9268 67.3357 51.8034C67.3357 51.0152 67.0793 50.3409 66.576 49.7901C66.0632 49.2299 65.408 48.9545 64.6198 48.9545ZM62.9864 51.3381C63.0624 50.9297 63.2523 50.6068 63.5372 50.3694C63.8221 50.132 64.1829 50.0181 64.6103 50.0181C64.9901 50.0181 65.3225 50.132 65.6074 50.3504C65.8923 50.5688 66.0727 50.9012 66.1487 51.3381H62.9864ZM87.3635 48.9545C86.5279 48.9545 85.8441 49.2299 85.3123 49.7711C84.7805 50.3124 84.5146 50.9867 84.5146 51.7939C84.5146 52.6106 84.7805 53.2943 85.3218 53.8261C85.8631 54.3579 86.5658 54.6333 87.449 54.6333C88.3796 54.6333 89.1109 54.3104 89.6332 53.6836L88.845 52.8955C88.5316 53.3418 88.0758 53.5602 87.4585 53.5602C87.0122 53.5602 86.6323 53.4462 86.3284 53.2278C86.0151 53.0094 85.8251 52.696 85.7397 52.2877H90.032C90.0605 52.0883 90.0795 51.9268 90.0795 51.8034C90.0795 51.0152 89.8231 50.3409 89.3198 49.7901C88.807 49.2299 88.1612 48.9545 87.3635 48.9545ZM85.7302 51.3381C85.8061 50.9297 85.9961 50.6068 86.281 50.3694C86.5658 50.132 86.9267 50.0181 87.354 50.0181C87.7339 50.0181 88.0663 50.132 88.3512 50.3504C88.6361 50.5688 88.8165 50.9012 88.8924 51.3381H85.7302ZM59.9856 47.587H58.8175V49.0969H57.8299V50.2175H58.8175V52.8005C58.8175 53.5032 59.0074 53.9875 59.3968 54.2534C59.7861 54.5193 60.4224 54.5953 61.315 54.4813V53.4367C61.0207 53.4557 60.7738 53.4557 60.5743 53.4462C60.3749 53.4367 60.223 53.3798 60.128 53.2848C60.0235 53.1898 59.9761 53.0284 59.9761 52.8005V50.2175H61.315V49.0969H59.9761L59.9856 47.587ZM75.0753 51.9078C75.0753 52.3637 74.9423 52.734 74.6669 53.0094C74.401 53.2848 73.9927 53.4178 73.4514 53.4178C72.9101 53.4178 72.5112 53.2848 72.2359 53.0094C71.97 52.734 71.8275 52.3731 71.8275 51.9078V46.9412H70.5835V51.9838C70.5835 52.791 70.8494 53.4272 71.3812 53.9116C71.913 54.3864 72.5967 54.6238 73.4419 54.6238C74.2871 54.6238 74.9708 54.3864 75.5026 53.9116C76.0344 53.4367 76.3003 52.791 76.3003 51.9838V46.9412H75.0563V51.9078H75.0753ZM79.2157 47.587H78.0476V49.0969H77.06V50.2175H78.0476V52.8005C78.0476 53.5032 78.2375 53.9875 78.6269 54.2534C79.0162 54.5193 79.6525 54.5953 80.5452 54.4813V53.4367C80.2508 53.4557 80.0039 53.4557 79.8044 53.4462C79.605 53.4367 79.4531 53.3798 79.3581 53.2848C79.2537 53.1898 79.2062 53.0284 79.2062 52.8005V50.2175H80.5452V49.0969H79.2062V47.587H79.2157ZM55.1899 48.9545C54.4302 48.9545 53.8699 49.2299 53.5185 49.7806V49.0874H52.3505V54.4718H53.5185V51.585C53.5185 51.0627 53.642 50.6733 53.8984 50.4169C54.1453 50.1605 54.4777 50.037 54.886 50.037C55.2564 50.037 55.5508 50.1415 55.7692 50.3599C55.9876 50.5783 56.092 50.8822 56.092 51.2906V54.4813H57.2601V51.1766C57.2601 50.4834 57.0702 49.9421 56.6903 49.5527C56.301 49.1539 55.8072 48.9545 55.1899 48.9545ZM82.6723 49.9991V49.0969H81.5043V54.4813H82.6723V51.7654C82.6723 51.2146 82.8338 50.8157 83.1662 50.5783C83.4985 50.3409 83.8879 50.2365 84.3342 50.265V49.0019C83.5175 49.0019 82.9667 49.3343 82.6723 49.9991ZM95.0081 52.6106C94.7612 53.1234 94.2864 53.4652 93.7071 53.5507H93.6786C93.6027 53.5602 93.5172 53.5697 93.4317 53.5697C92.4821 53.5697 91.7508 52.8385 91.7508 51.7939C91.7508 50.7493 92.4821 50.0181 93.4317 50.0181C93.5172 50.0181 93.5931 50.0275 93.6691 50.037H93.6976C94.2769 50.113 94.7422 50.4549 94.9986 50.9487L95.7773 50.17C95.514 49.7932 95.1628 49.4864 94.754 49.2762C94.3452 49.0661 93.8913 48.9589 93.4317 48.964C91.8553 48.964 90.6018 50.1985 90.6018 51.8034C90.598 52.1761 90.6686 52.5458 90.8094 52.8908C90.9503 53.2359 91.1586 53.5494 91.4222 53.8129C91.6857 54.0765 91.9992 54.2848 92.3443 54.4256C92.6893 54.5665 93.059 54.6371 93.4317 54.6333C94.4193 54.6333 95.274 54.149 95.7868 53.4083L95.0081 52.6106Z" fill="#CC0000"/>
</g>
<defs>
<clipPath id="clip0_389_5464">
<rect width="105.001" height="56" fill="white" transform="translate(0.5 0.000732422)"/>
</clipPath>
</defs>
</svg>
