<svg width="380" height="215" viewBox="0 0 380 215" fill="none" xmlns="http://www.w3.org/2000/svg">
<g clip-path="url(#clip0_1607_4663)">
<rect width="380" height="213.75" transform="translate(0 0.750244)" fill="#004152"/>
<path d="M88.9452 181.103C88.9452 181.103 82.0165 180.025 78.5737 177.37C75.1309 174.715 73.4826 172.952 76.4771 170.846C79.506 168.769 90.0546 165.081 94.1241 164.725C98.1936 164.369 109.87 163.029 113.147 166.335C116.392 169.643 117.27 177.131 113.011 178.585C108.817 180.064 88.9452 181.103 88.9452 181.103Z" fill="#B34218"/>
<path d="M129.088 179.213C129.088 179.213 125.031 176.802 117.597 175.037C110.163 173.271 104.83 169.351 104.38 164.209C103.933 159.099 103.199 150.707 103.199 150.707L94.5235 151.466L94.3027 151.486L85.6275 152.245C85.6275 152.245 86.3589 160.604 86.8087 165.747C87.2586 170.889 82.6524 175.646 75.6724 178.705C68.6581 181.734 65.0811 184.813 65.0811 184.813L47.0832 225.073L61.6575 223.798L73.915 204.034C73.915 204.034 77.4154 209.164 80.9322 222.112L100.333 220.414L100.554 220.395L119.955 218.697C121.17 205.336 123.726 199.676 123.726 199.676L139.23 217.011L153.804 215.736L129.088 179.213Z" fill="url(#paint0_linear_1607_4663)"/>
<path d="M124.117 109.683C126.305 134.699 116.992 156.144 95.4148 158.032C73.8688 159.917 60.0707 140.271 57.8821 115.255C55.6935 90.2393 67.8072 86.6364 89.3532 84.7514C110.931 82.8636 121.928 84.667 124.117 109.683Z" fill="#F4D9A3"/>
<path d="M84.226 127.891C84.5269 131.329 81.9621 134.351 78.4921 134.654C75.022 134.958 71.9715 132.428 71.6707 128.989C71.3698 125.55 73.9346 122.529 77.4046 122.225C80.8432 121.924 83.9252 124.452 84.226 127.891Z" fill="#8F6240"/>
<path d="M82.5857 128.034C82.7954 130.432 81.0107 132.559 78.6132 132.768C76.2156 132.978 74.0887 131.193 73.8789 128.796C73.6692 126.398 75.4539 124.271 77.8514 124.062C80.2832 123.881 82.3759 125.637 82.5857 128.034Z" fill="#2A1D01"/>
<path d="M76.2396 126.333C76.3003 127.027 75.7821 127.644 75.0881 127.705C74.3941 127.766 73.7766 127.247 73.7159 126.553C73.6551 125.859 74.1733 125.242 74.8673 125.181C75.5613 125.12 76.1788 125.639 76.2396 126.333Z" fill="white"/>
<path d="M81.5859 143.856C85.6045 145.825 89.8325 146.918 93.9595 146.493C98.1236 146.129 101.989 144.169 105.782 141.74C104.483 143.602 102.777 145.181 100.783 146.373C98.7923 147.596 96.5076 148.368 94.1444 148.607C91.7784 148.814 89.3656 148.484 87.2267 147.654C85.0879 146.824 83.071 145.57 81.5859 143.856Z" fill="#A8856F"/>
<path d="M101.073 126.417C101.374 129.855 104.424 132.386 107.894 132.082C111.364 131.779 113.929 128.757 113.628 125.318C113.328 121.88 110.277 119.349 106.807 119.653C103.337 119.957 100.772 122.978 101.073 126.417Z" fill="#8F6240"/>
<path d="M102.682 126.276C102.891 128.673 105.018 130.458 107.416 130.248C109.813 130.039 111.598 127.912 111.388 125.514C111.179 123.117 109.052 121.332 106.654 121.542C104.259 121.783 102.472 123.878 102.682 126.276Z" fill="#2A1D01"/>
<path d="M102.737 124.014C102.798 124.708 103.416 125.226 104.11 125.166C104.804 125.105 105.322 124.488 105.261 123.793C105.2 123.099 104.583 122.581 103.889 122.642C103.195 122.703 102.677 123.32 102.737 124.014Z" fill="white"/>
<path d="M76.9417 92.2265C76.9831 92.6997 77.0533 93.1386 77.155 93.5747C77.2568 94.0108 77.3612 94.4785 77.4945 94.9119C77.6278 95.3452 77.7926 95.7758 78.0178 96.1694C78.2429 96.5629 78.4681 96.9565 78.7796 97.2471L78.5931 97.2952L79.0462 95.5708L79.502 93.878L79.5718 93.5858L79.7544 93.8559L81.657 96.7092L81.3731 96.7341L82.4358 93.6213L82.54 93.3579L82.6882 93.5992C83.1646 94.3204 83.6697 95.0074 84.1145 95.7313L83.9224 95.7164L85.1437 94.0519L85.23 93.949L85.3014 94.0381L86.2951 95.2227L86.2005 95.231L87.3275 94.3059L87.3562 94.2716L87.3906 94.3004C87.499 94.4498 87.6705 94.5938 87.8105 94.7404C87.982 94.8844 88.1508 94.9968 88.3196 95.1091C88.1193 94.9995 87.9532 94.9187 87.7817 94.7747C87.6129 94.6624 87.4414 94.5184 87.2987 94.3402L87.3618 94.3347L86.3034 95.3173L86.243 95.3544L86.206 95.2941L85.1259 94.2124L85.2837 94.1986L84.0967 95.8918L83.9816 96.0291L83.8731 95.8796C83.368 95.1927 82.8917 94.4715 82.4153 93.7502L82.6677 93.7282L81.6365 96.8382L81.5379 97.1647L81.3553 96.8946L79.4843 94.0384L79.7339 93.9848L79.2465 95.6804L78.7591 97.376L78.7126 97.5708L78.5726 97.4241C77.9385 96.7167 77.543 95.8295 77.308 94.96C77.1747 94.5266 77.1018 94.0562 77.0316 93.6173C76.9902 93.1441 76.9516 92.7024 76.9417 92.2265Z" fill="#A8713F"/>
<path d="M128.839 178.567C127.549 177.631 109.34 170.419 109.34 170.419C108.739 172.633 103.228 176.135 97.3029 176.717C90.9676 177.334 84.1438 174.912 83.0933 172.715C83.0933 172.715 66.41 182.948 65.3051 184.125C64.1975 185.271 54.2562 206.803 54.2562 206.803C54.2562 206.803 54.5646 206.331 56.0544 206.646C59.6786 207.377 68.0978 212.776 68.3683 215.867L74.7695 207.647C74.7695 207.647 76.338 216.855 77.504 222.189L99.2078 220.29L101.668 220.074L123.372 218.176C123.563 212.723 123.54 203.38 123.54 203.38L131.271 210.364C131.001 207.273 138.355 200.494 141.797 199.144C143.209 198.575 143.595 198.987 143.595 198.987C143.595 198.987 130.132 179.534 128.839 178.567Z" fill="#DFE5E8"/>
<path d="M96.9521 179.608C106.416 178.78 110.827 173.976 112.441 171.705C112.34 171.65 112.243 171.627 112.143 171.572C110.558 173.809 106.199 178.481 96.9245 179.293C87.2714 180.137 82.0064 176.275 80.1743 174.591C80.0852 174.663 79.9933 174.703 79.9042 174.774C81.7074 176.492 87.0781 180.472 96.9521 179.608Z" fill="#CBD0D4"/>
<path d="M90.7263 221.064C90.7263 221.064 88.4545 191.827 87.9387 189.202C87.423 186.577 83.8548 180.309 77.9194 174.598C77.9194 174.598 66.8467 180.653 64.6846 182.463C62.5197 184.242 45.4918 225.053 45.4918 225.053L64.7665 223.367L74.3977 209.555L76.5332 222.337L90.729 221.095L90.7263 221.064Z" fill="#D14E20"/>
<path d="M90.6624 221.069C88.3906 191.833 88.4249 191.861 87.8749 189.208C87.3591 186.582 85.4952 181.628 77.7617 176.074" stroke="white" stroke-width="4" stroke-miterlimit="10"/>
<path d="M64.4527 182.738C69.7374 185.009 74.1253 205.732 74.0791 209.201C74.0752 209.519 74.0684 209.806 74.059 210.061L74.4249 209.521L74.6355 210.837C74.6599 210.39 74.6789 209.88 74.7128 209.178C74.7511 206.345 70.78 185.299 64.9188 182.252C64.8297 182.323 64.7693 182.36 64.6802 182.432C64.6227 182.5 64.5363 182.603 64.4527 182.738Z" fill="#B3431F"/>
<path d="M155.333 215.411L136.058 217.098L124.175 205.168L124.291 218.127L110.127 219.366C110.127 219.366 107.287 190.179 107.339 187.505C107.391 184.83 109.817 178.038 114.671 171.383C114.671 171.383 126.626 175.423 129.07 176.83C131.477 178.177 155.333 215.411 155.333 215.411Z" fill="#D14E20"/>
<path d="M110.189 219.361C107.349 190.174 107.32 190.208 107.401 187.499C107.453 184.825 108.428 179.622 115.08 172.809" stroke="white" stroke-width="4" stroke-miterlimit="10"/>
<path d="M129.345 177.061C124.535 180.215 123.812 201.385 124.46 204.793C124.519 205.106 124.575 205.387 124.629 205.637L124.175 205.168L124.196 206.501C124.094 206.065 123.987 205.566 123.832 204.88C123.302 202.097 123.558 180.682 128.801 176.663C128.902 176.718 128.967 176.744 129.068 176.799C129.136 176.856 129.239 176.943 129.345 177.061Z" fill="#B3431F"/>
<path d="M115.868 86.9772C103.206 79.2163 78.4654 82.0166 66.1288 89.6123C52.3442 98.0977 57.7561 120.352 60.8132 130.225C60.8132 130.225 61.6301 110.859 67.6649 107.533C73.6997 104.208 78.2814 102.44 90.1112 101.405C101.941 100.37 106.789 101.281 113.281 103.542C119.77 105.772 123.969 124.7 123.969 124.7C125.296 114.443 125.645 92.988 115.868 86.9772Z" fill="#754B1D"/>
<path d="M115.988 102.511C114.78 101.059 112.275 100.038 109.072 99.3967C108.359 99.2366 107.585 99.1136 106.782 99.0249C106.427 98.9606 106.043 98.9306 105.656 98.8691C105.335 98.8336 104.983 98.8009 104.63 98.7681C104.18 98.7121 103.702 98.6904 103.254 98.666C98.7429 98.3296 93.6679 98.4557 89.0306 98.8614C88.4312 98.9139 87.1706 98.6745 87.1706 98.6745L85.4742 99.2679L83.7115 99.1043L82.5309 99.7797L81.0301 99.3389L79.9086 100.327L78.0123 98.9989C78.0123 98.9989 78.0407 100.777 77.6677 100.873C71.3632 102.569 66.3236 104.917 65.1671 106.957C64.3969 108.328 62.4986 113.516 62.4986 113.516L61.5293 114.428L61.9319 115.759L61.4181 116.79C61.4181 116.79 61.4062 120.287 61.4271 120.889C61.4153 121.844 61.4239 122.67 61.4271 123.432C62.2469 117.544 64.0136 109.76 67.6213 107.76C73.6246 104.437 78.2378 102.667 90.0677 101.632C101.897 100.597 106.745 101.508 113.237 103.769C117.398 105.185 120.635 113.484 122.411 119.241C121.922 113.658 118.969 106.065 115.988 102.511Z" fill="#54340A"/>
<path d="M73.1291 104.957L73.0029 104.968C72.9713 104.971 72.9082 104.977 72.9082 104.977L72.7793 104.956L72.6504 104.936L72.553 104.912C72.424 104.892 72.2608 104.842 72.1606 104.788C72.0289 104.736 71.9315 104.712 71.8313 104.657L71.5309 104.493C71.1618 104.271 70.8215 104.015 70.5731 103.719L70.3645 103.514L70.1874 103.307L69.8649 102.89C69.6795 102.589 69.4942 102.287 69.3432 102.014C68.6992 100.831 68.3365 99.5912 68.008 98.3802C67.8582 97.7575 67.7111 97.1664 67.6244 96.5383C67.5088 95.9444 67.3905 95.319 67.3381 94.7196C67.1674 93.4948 67.094 92.2933 66.9864 91.063C67.3121 92.2425 67.6378 93.4219 68.0238 94.5643C68.2025 95.1526 68.4414 95.7039 68.6488 96.2579C68.8562 96.8119 69.1267 97.3605 69.3657 97.9117C69.8724 98.98 70.4394 100.011 71.1476 100.839C71.3247 101.046 71.499 101.222 71.676 101.429L71.9505 101.659L72.0877 101.774L72.2222 101.858C72.3937 102.002 72.5912 102.08 72.7545 102.129C72.786 102.126 72.8203 102.155 72.8519 102.152L72.9465 102.144C72.9781 102.141 72.9781 102.141 73.0096 102.139C73.0096 102.139 73.0096 102.139 72.9781 102.141L72.9465 102.144C72.915 102.147 72.915 102.147 72.8834 102.15C73.6693 102.049 74.3554 102.625 74.456 103.411C74.4907 104.171 73.915 104.857 73.1291 104.957Z" fill="#54340A"/>
<path d="M75.2443 103.691C75.2128 103.694 75.1154 103.671 75.1154 103.671L75.0495 103.645C74.9837 103.619 74.9521 103.622 74.8863 103.596C74.7889 103.572 74.7203 103.515 74.6544 103.489C74.5199 103.405 74.3539 103.324 74.2483 103.206C74.1138 103.123 74.0081 103.005 73.9052 102.919C73.8023 102.832 73.6966 102.714 73.6225 102.594L73.3713 102.266L73.0886 101.941C72.943 101.731 72.8263 101.487 72.7124 101.275C72.251 100.361 71.9817 99.4631 71.7727 98.5277C71.5953 97.5896 71.4522 96.6803 71.3721 95.7655C71.3307 95.2923 71.2921 94.8506 71.285 94.4062L71.2294 93.0442L71.5374 94.3841C71.6391 94.8203 71.7724 95.2536 71.9056 95.687C72.1722 96.5537 72.4675 97.3862 72.826 98.2131C73.2132 99.0057 73.5977 99.7667 74.1316 100.419C74.2715 100.566 74.3827 100.747 74.52 100.862L74.7286 101.066L74.9344 101.239C75.003 101.297 75.0689 101.323 75.1375 101.38C75.2061 101.438 75.2719 101.464 75.3378 101.49C75.4036 101.516 75.4695 101.542 75.5354 101.568C75.5669 101.565 75.5669 101.565 75.5984 101.563C75.5984 101.563 75.5669 101.565 75.5326 101.536L75.2443 103.691Z" fill="#54340A"/>
<path d="M77.445 103.054C77.3133 103.002 77.279 102.973 77.2132 102.947C77.1473 102.921 77.113 102.892 77.0444 102.835C76.9443 102.78 76.8413 102.693 76.77 102.604C76.5984 102.46 76.4269 102.317 76.2842 102.138C76.1442 101.992 76.0014 101.813 75.8902 101.632C75.779 101.451 75.6678 101.27 75.5594 101.121C75.1805 100.423 74.9537 99.6481 74.8272 98.928C74.7625 98.5522 74.7321 98.2052 74.699 97.8267C74.6687 97.4797 74.6986 97.0956 74.6998 96.7458C74.7325 96.3933 74.7337 96.0435 74.798 95.6883L74.9621 94.6567L75.0847 95.695C75.1466 96.0392 75.2085 96.3835 75.2676 96.6962C75.3611 97.0376 75.4518 97.3476 75.5452 97.6891C75.6675 97.9963 75.7582 98.3062 75.912 98.6106C76.1852 99.1907 76.5188 99.7337 76.9388 100.174C77.0444 100.292 77.1474 100.378 77.2503 100.464C77.3532 100.551 77.4561 100.637 77.5878 100.689C77.6907 100.775 77.8224 100.828 77.9226 100.882C77.9885 100.908 78.0228 100.937 78.0859 100.932C78.1174 100.929 78.1517 100.958 78.1517 100.958L77.445 103.054Z" fill="#54340A"/>
<path d="M112.626 100.421C112.629 100.452 112.655 100.387 112.655 100.387C112.686 100.384 112.684 100.352 112.712 100.318C112.773 100.281 112.799 100.215 112.856 100.146C112.943 100.043 113.026 99.909 113.11 99.7745C113.28 99.5372 113.413 99.2394 113.58 98.9705C113.848 98.4066 114.08 97.7824 114.248 97.1637C114.414 96.5135 114.516 95.8687 114.553 95.198C114.586 94.8455 114.59 94.5272 114.591 94.1775C114.592 93.8277 114.562 93.4807 114.563 93.1309C114.657 93.4724 114.779 93.7796 114.872 94.1211C114.934 94.4653 115.059 94.8041 115.121 95.1483C115.245 95.8368 115.34 96.5596 115.34 97.2907C115.341 98.0218 115.309 98.7556 115.184 99.4977C115.119 99.853 115.026 100.243 114.899 100.603C114.852 100.798 114.772 100.964 114.693 101.162C114.639 101.262 114.615 101.359 114.561 101.46C114.532 101.494 114.506 101.56 114.477 101.594C114.451 101.66 114.422 101.694 114.365 101.763L112.626 100.421Z" fill="#54340A"/>
<path d="M110.432 100.422C110.49 100.354 110.576 100.251 110.631 100.151C110.718 100.048 110.772 99.9475 110.856 99.813C110.994 99.5784 111.133 99.3437 111.24 99.1119C111.485 98.6454 111.727 98.1474 111.904 97.6233C112.081 97.0992 112.257 96.5752 112.4 96.0223C112.542 95.4695 112.621 94.9222 112.698 94.3433C112.811 94.9056 112.923 95.4679 112.944 96.0701C112.994 96.6379 113.015 97.24 113.004 97.8449C112.994 98.4498 112.917 99.0287 112.812 99.6419C112.774 99.9313 112.707 100.255 112.637 100.547C112.587 100.71 112.567 100.839 112.518 101.003C112.468 101.166 112.448 101.295 112.37 101.492L110.432 100.422Z" fill="#54340A"/>
<path d="M119.644 109.438C119.584 109.476 119.615 109.473 119.644 109.438C119.647 109.47 119.679 109.467 119.679 109.467C119.71 109.464 119.773 109.459 119.805 109.456C119.899 109.448 119.991 109.408 120.115 109.366C120.207 109.326 120.33 109.283 120.422 109.243C120.511 109.172 120.634 109.129 120.723 109.058C121.143 108.767 121.491 108.387 121.834 107.944C122.007 107.738 122.142 107.472 122.281 107.237C122.419 107.002 122.555 106.736 122.659 106.473C122.763 106.209 122.867 105.946 122.968 105.651L123.244 104.8L123.226 105.692C123.22 105.979 123.184 106.3 123.177 106.586C123.139 106.876 123.104 107.197 123.034 107.489C122.964 107.781 122.897 108.105 122.796 108.4C122.596 109.021 122.298 109.619 121.872 110.197C121.757 110.334 121.642 110.472 121.527 110.609C121.38 110.749 121.265 110.886 121.115 110.994C120.966 111.103 120.819 111.243 120.636 111.323C120.544 111.362 120.455 111.434 120.363 111.474C120.302 111.511 120.271 111.513 120.21 111.55C120.15 111.588 120.119 111.59 119.995 111.633L119.644 109.438Z" fill="#54340A"/>
<path d="M66.6657 89.5653L67.4024 84.542L68.941 86.5053L72.4533 83.0511L72.6741 85.5748L76.9408 82.0227L77.5602 83.6533L80.451 82.5421L80.4696 83.8438L86.1203 80.4885L86.614 82.8612L88.4523 80.9838L89.1925 82.5402L97.7352 80.267L97.8318 81.3711L102.198 81.4978L102.272 82.3495L104.449 82.1591L104.535 83.137L110.704 82.4383L112.102 85.3359L113.07 85.5054L113.136 86.2625L120.024 93.4161L121.649 92.0025L121.881 94.6523L122.796 94.5723L122.916 98.122L123.641 98.0585L124.051 103.84L118.39 94.3538L111.707 89.1849L95.9007 84.3692L78.8208 88.9787L66.6657 89.5653Z" fill="#754B1D"/>
<path d="M65.8072 93.2008C65.8072 93.2008 65.323 90.573 63.6365 89.0994L63.4732 91.5931L62.0315 91.4649L61.8418 93.2934L60.9175 93.6286L60.7905 94.7205L60.9253 105.707L65.8143 93.6452L65.7756 93.2036L65.8072 93.2008Z" fill="#754B1D"/>
<path d="M64.6133 109.358L62.1895 106.359L65.7194 107.831L64.6133 109.358Z" fill="#54340A"/>
<path d="M64.0035 111.096L61.834 109.188L64.709 109.349L64.0035 111.096Z" fill="#54340A"/>
<path d="M88.3329 94.5357C88.2616 94.4466 88.2245 94.3862 88.1531 94.2971C88.1133 94.2052 88.0419 94.1161 88.0364 94.053L87.9883 93.8665L87.7757 93.9805C87.4398 94.137 87.1381 94.3223 86.8365 94.5077C86.6456 94.1429 86.4232 93.7809 86.2036 93.4505L85.907 92.9678L85.4382 93.4221C85.1448 93.7021 84.8802 93.9477 84.6184 94.2249C84.3506 93.708 84.1144 93.1882 83.8467 92.6713L83.1917 91.3617L82.5162 92.7241C82.2737 93.2221 82.0312 93.7202 81.7887 94.2182C81.4866 93.6724 81.2189 93.1555 80.9196 92.6413L80.0904 91.1562L79.5548 92.6653C79.3494 93.2237 79.1755 93.7793 78.97 94.3376C78.892 94.5352 78.8454 94.73 78.7989 94.9248C78.7961 94.8932 78.7646 94.896 78.7618 94.8645C78.571 94.4997 78.4377 94.0663 78.3044 93.633C78.1711 93.1996 78.0694 92.7635 77.9677 92.3273C77.8659 91.8912 77.793 91.4208 77.7516 90.9476C77.6641 91.4003 77.6108 91.8818 77.5864 92.3289C77.5647 92.8076 77.5745 93.2836 77.6159 93.7568C77.6573 94.23 77.7303 94.7004 77.8691 95.1969C78.0051 95.6618 78.207 96.1527 78.5323 96.6011L79.0773 97.3799L79.502 96.4209C79.7417 95.8913 79.9787 95.3302 80.2185 94.8006C80.2473 94.7663 80.2445 94.7347 80.2705 94.6689C80.541 95.2174 80.8088 95.7344 81.1108 96.2801L81.8742 97.7391L82.5387 96.2506C82.7757 95.6894 83.0442 95.1255 83.2812 94.5644C83.4665 94.8661 83.6546 95.1993 83.84 95.501L84.3218 96.2853L84.866 95.6019C85.1826 95.2245 85.465 94.8184 85.7789 94.4095C85.9587 94.6481 86.17 94.8839 86.3786 95.0881L86.6271 95.3843L86.8629 95.1729C87.1878 94.8902 87.5127 94.6075 87.8377 94.3247C87.872 94.3535 87.9063 94.3823 87.9406 94.4111C88.0119 94.5002 88.1121 94.555 88.2123 94.6098C88.381 94.7222 88.5813 94.8318 88.7789 94.9099C88.5841 94.8634 88.4414 94.6851 88.3329 94.5357Z" fill="#A8713F"/>
<path d="M67.0699 102.181C66.864 102.009 66.6101 101.65 66.4165 101.253C66.2256 100.888 66.0293 100.461 65.8357 100.064L65.3124 98.8068C65.1476 98.3762 64.9512 97.9484 64.7521 97.489C64.6988 97.9704 64.7087 98.4464 64.7501 98.9196C64.7915 99.3928 64.8644 99.8632 64.9374 100.334C64.9965 100.646 65.0872 100.956 65.1779 101.266C65.0778 101.211 64.9776 101.157 64.8774 101.102L64.8116 101.076C64.6456 100.995 64.4535 100.98 64.3013 101.057C63.9941 101.179 63.8668 101.54 63.9862 101.816C64.0687 102.031 64.1799 102.212 64.2938 102.424C64.405 102.605 64.519 102.818 64.6302 102.999C64.7784 103.24 64.9582 103.479 65.1353 103.686C65.0722 103.691 64.9776 103.7 64.9145 103.705C64.7883 103.716 64.6278 103.698 64.4673 103.681C64.3068 103.663 64.1779 103.642 64.0146 103.593C64.2232 103.797 64.5265 103.993 64.8214 104.095C64.9847 104.144 65.1479 104.193 65.3084 104.211C65.403 104.203 65.5004 104.226 65.5635 104.221C65.6582 104.212 65.7213 104.207 65.8762 104.161C65.9078 104.159 65.9078 104.159 65.9366 104.124C66.0888 104.047 66.1353 103.853 66.0584 103.7L66.0186 103.609C65.9046 103.396 65.7879 103.152 65.674 102.939C65.7398 102.965 65.7741 102.994 65.84 103.02C66.0375 103.098 66.2035 103.179 66.4011 103.257C66.633 103.364 66.9429 103.273 67.1156 103.068C67.3774 102.79 67.3128 102.415 67.0699 102.181Z" fill="#A8713F"/>
<path d="M121.242 98.2684C121.179 98.2739 121.116 98.2794 121.05 98.2534C121.038 97.7459 121.022 97.2068 121.01 96.6993L120.939 95.5294L120.426 96.21C120.402 95.9261 120.348 95.6764 120.291 95.3953C120.23 95.051 120.17 94.7383 120.045 94.3996C119.952 94.0581 119.83 93.7509 119.607 93.3889L119.316 92.9694L119 93.3467L118.798 93.5869C118.795 93.5553 118.761 93.5266 118.756 93.4635C118.642 93.2509 118.53 93.0699 118.419 92.8889C118.308 92.7079 118.163 92.4981 118.02 92.3199C117.877 92.1417 117.734 91.9634 117.531 91.8223C117.642 92.0033 117.725 92.2186 117.807 92.4339C117.89 92.6492 117.969 92.8329 118.02 93.051L118.202 93.6709L118.383 94.2908L118.522 94.7872L118.933 94.4016L119.08 94.2616C119.122 94.385 119.133 94.5112 119.173 94.6031C119.232 94.9158 119.291 95.2285 119.351 95.5412C119.437 96.1693 119.524 96.7975 119.579 97.4284L119.721 98.6875L120.254 97.878C120.274 98.0988 120.325 98.3169 120.347 98.5692L120.409 98.9135L120.721 98.8543C120.816 98.8461 120.908 98.8062 121.002 98.7979C121.115 99.3603 121.231 99.9541 121.407 100.511C121.472 99.8059 121.509 99.1351 121.511 98.4356L121.521 98.1804L121.242 98.2684Z" fill="#A8713F"/>
<path d="M88.1737 198.432C88.1737 198.432 86.5038 189.518 83.3228 186.586C80.1418 183.654 71.8144 180.759 70.3776 176.688C69.7471 174.932 69.9983 172.716 71.3776 171.769C72.5157 170.97 72.0634 169.071 72.8063 168.116C75.0982 165.245 82.5324 162.656 86.4631 161.803C86.4631 161.803 86.8081 165.746 86.84 166.475C86.8432 167.237 86.6626 168.08 86.6626 168.08C86.6626 168.08 83.6318 169.044 80.5276 171.35C76.7077 174.195 82.2689 177.809 84.9416 181.835C87.6143 185.861 87.7163 192.114 88.1737 198.432Z" fill="#F05A24"/>
<path d="M83.3249 186.618C82.6703 186.039 81.9609 185.561 81.2543 185.114C80.5161 184.67 79.778 184.226 79.0425 183.814C77.5689 182.957 76.035 182.138 74.619 181.213C73.9096 180.734 73.2002 180.256 72.5457 179.677C71.8938 179.131 71.2681 178.518 70.789 177.765C70.2811 177.047 70.0461 176.177 69.9372 175.296C69.86 174.413 69.972 173.513 70.3789 172.715C70.5982 172.314 70.8833 171.94 71.2425 171.686C71.5729 171.466 71.7662 171.131 71.8908 170.739C72.0154 170.347 72.0742 169.928 72.1329 169.51C72.1917 169.091 72.2792 168.639 72.5273 168.204C73.6389 166.74 75.1527 165.876 76.6721 165.076C78.1914 164.275 79.7876 163.627 81.421 163.039C83.0543 162.451 84.6959 161.958 86.3773 161.556L86.4956 162.182C84.8402 162.517 83.1986 163.011 81.5941 163.564C79.9895 164.118 78.3905 164.735 76.8684 165.503C76.1074 165.888 75.3806 166.301 74.6594 166.778C74.3317 167.029 73.9697 167.251 73.6791 167.563L73.4433 167.774C73.3542 167.845 73.2966 167.914 73.239 167.983C73.0923 168.123 72.9484 168.294 72.8332 168.431C72.64 168.766 72.547 169.156 72.4567 169.577C72.3663 169.998 72.3076 170.416 72.1885 170.872C72.0666 171.296 71.7871 171.733 71.3963 171.99C71.0658 172.21 70.8095 172.55 70.6163 172.885C70.2354 173.617 70.0863 174.457 70.1608 175.309C70.2326 176.129 70.4648 176.967 70.9069 177.659C71.3517 178.383 71.9431 178.967 72.5977 179.546C73.2495 180.093 73.9301 180.605 74.6395 181.084C76.0583 182.04 77.5634 182.894 79.037 183.751C79.7752 184.195 80.5134 184.639 81.22 185.085C81.9897 185.527 82.7019 186.037 83.3249 186.618Z" fill="#F97C55"/>
<path d="M86.1399 211.516C86.0137 211.527 85.9108 211.44 85.8997 211.314L85.6158 208.796C85.6048 208.67 85.6884 208.535 85.8146 208.524C85.9408 208.513 86.0752 208.597 86.0863 208.723L86.3702 211.241C86.3524 211.402 86.266 211.504 86.1399 211.516Z" fill="#C7C8CA"/>
<path d="M84.173 185.399C84.173 185.399 84.3319 185.036 83.8859 184.661C83.4399 184.287 82.4975 184.052 82.3618 184.318C82.2577 184.581 82.5886 185.093 83.1552 185.393C83.7506 185.659 84.0606 185.568 84.173 185.399Z" fill="#D14E20"/>
<path d="M85.9043 209.565C85.7466 209.579 85.5778 209.467 85.5612 209.277L82.8655 185.005C82.8489 184.816 82.9641 184.678 83.1534 184.662C83.3111 184.648 83.4799 184.76 83.4964 184.95L86.1922 209.222C86.206 209.38 86.0936 209.549 85.9043 209.565Z" fill="white"/>
<path d="M108.678 196.638C108.678 196.638 108.775 187.57 111.398 184.13C114.022 180.69 121.72 176.392 122.428 172.134C122.744 170.295 122.112 168.157 120.589 167.464C119.329 166.874 119.445 164.925 118.547 164.114C115.792 161.685 108.021 160.426 104.002 160.269C104.002 160.269 104.347 164.212 104.442 164.935C104.571 165.686 104.895 166.484 104.895 166.484C104.895 166.484 108.048 166.908 111.505 168.64C115.761 170.779 110.912 175.304 108.979 179.732C107.046 184.161 108.063 190.334 108.678 196.638Z" fill="#F05A24"/>
<path d="M112.985 209.167C112.859 209.178 112.722 209.063 112.711 208.936L112.553 206.407C112.542 206.281 112.628 206.178 112.755 206.167C112.881 206.156 112.986 206.274 112.998 206.4L113.155 208.929C113.198 209.053 113.111 209.156 112.985 209.167Z" fill="#C7C8CA"/>
<path d="M111.402 184.161C111.915 183.481 112.53 182.886 113.146 182.292C113.761 181.698 114.411 181.133 115.064 180.599C116.366 179.499 117.7 178.397 118.931 177.209C119.547 176.614 120.128 175.991 120.675 175.34C121.19 174.69 121.7 173.978 122.013 173.188C122.359 172.427 122.443 171.561 122.339 170.744C122.267 169.923 121.972 169.091 121.47 168.436C121.219 168.108 120.91 167.849 120.546 167.69C120.117 167.505 119.765 167.123 119.572 166.726C119.378 166.33 119.213 165.899 119.083 165.498C118.921 165.098 118.793 164.728 118.513 164.435C118.405 164.285 118.204 164.176 118.036 164.063C117.967 164.006 117.867 163.951 117.798 163.893L117.529 163.726C117.192 163.501 116.794 163.314 116.428 163.123C115.635 162.779 114.847 162.499 114.031 162.252C112.398 161.759 110.748 161.427 109.04 161.163C107.364 160.896 105.664 160.727 103.973 160.653L103.981 160.016C105.704 160.088 107.409 160.32 109.12 160.616C110.83 160.911 112.515 161.272 114.15 161.797C115.788 162.353 117.429 162.94 118.775 164.158C119.092 164.511 119.257 164.942 119.39 165.375C119.521 165.777 119.651 166.179 119.842 166.544C120.033 166.908 120.281 167.205 120.645 167.363C121.043 167.551 121.42 167.868 121.674 168.227C122.213 168.943 122.48 169.81 122.557 170.693C122.635 171.576 122.523 172.476 122.147 173.272C121.803 174.065 121.293 174.777 120.749 175.46C120.202 176.112 119.59 176.738 118.974 177.332C117.709 178.492 116.372 179.562 115.069 180.662C114.417 181.196 113.767 181.761 113.117 182.327C112.562 182.884 111.946 183.478 111.402 184.161Z" fill="#F97C55"/>
<path d="M110.482 183.097C110.482 183.097 110.262 182.767 110.636 182.321C111.008 181.843 111.898 181.479 112.078 181.718C112.226 181.959 111.989 182.52 111.483 182.914C110.974 183.277 110.653 183.241 110.482 183.097Z" fill="#D14E20"/>
<path d="M112.877 207.205C112.688 207.222 112.548 207.075 112.534 206.918L110.974 182.546C110.958 182.357 111.104 182.217 111.262 182.203C111.451 182.186 111.591 182.333 111.605 182.491L113.165 206.862C113.182 207.052 113.035 207.192 112.877 207.205Z" fill="white"/>
<path d="M297.548 169.687C297.556 169.183 296.535 165.2 296.535 165.2C296.535 165.2 294.68 162.91 282.835 161.873C270.99 160.837 268.766 162.77 268.766 162.77C268.766 162.77 267.068 166.516 266.988 167.014L278.818 181.823C278.818 181.823 279.945 180.479 281.379 178.513C282.45 180.699 283.327 182.218 283.327 182.218L297.548 169.687Z" fill="#2A2B2D"/>
<path d="M239.842 194.135C239.842 194.135 235.856 194.363 235.034 195.517C234.247 196.674 235.924 200.174 239.141 202.151C242.358 204.127 246.223 206.52 247.547 205.807C248.872 205.093 247.415 200.314 247.415 200.314L239.842 194.135Z" fill="#2A2B2D"/>
<path d="M319.544 201C319.544 201 323.431 201.917 324.04 203.196C324.613 204.472 322.354 207.628 318.843 209.016C315.371 210.37 311.11 212.089 309.93 211.156C308.749 210.224 311.014 205.77 311.014 205.77L319.544 201Z" fill="#2A2B2D"/>
<path d="M338.013 235.537L313.734 184.157C313.734 184.157 313.187 179.277 305.614 175.982C298.074 172.726 291.328 169.468 291.81 163.957C292.292 158.446 293.081 149.428 293.081 149.428L283.92 148.627L274.759 147.825C274.759 147.825 273.97 156.843 273.488 162.354C273.006 167.865 265.796 169.902 257.806 171.799C249.815 173.697 248.39 178.44 248.39 178.44L215.629 224.83L229.084 226.007L251.344 199.901L251.677 227.84L276.869 230.044L302.026 232.245L307.169 204.785L324.558 234.36L338.013 235.537Z" fill="url(#paint1_linear_1607_4663)"/>
<path d="M252.34 178.641C252.699 179.069 252.978 179.599 253.071 180.184C253.2 180.772 253.111 181.377 252.858 181.788C252.813 181.892 252.693 182.026 252.612 182.127C252.496 182.225 252.415 182.326 252.262 182.421C252.032 182.581 251.769 182.702 251.479 182.713C251.187 182.759 250.868 182.695 250.594 182.527C250.32 182.359 250.053 182.119 250.009 181.791L249.983 181.68L249.804 181.665L249.759 181.769C249.669 181.977 249.682 182.231 249.735 182.452C249.788 182.673 249.912 182.9 250.079 183.059C250.408 183.412 250.819 183.665 251.314 183.78C251.808 183.895 252.319 183.832 252.803 183.658C253.027 183.569 253.254 183.445 253.481 183.321C253.673 183.193 253.864 183.066 254.065 182.831C254.461 182.433 254.683 181.947 254.87 181.459C255.021 180.967 255.101 180.469 255.073 179.962C255.051 178.987 254.706 177.983 254.127 177.175C254.065 177.061 253.964 176.98 253.899 176.903C252.865 177.173 251.972 177.491 251.15 177.816C251.6 178.036 252.011 178.288 252.34 178.641Z" fill="#494D4E"/>
<path d="M254.597 184.572C254.25 184.83 253.906 185.053 253.5 185.161C253.094 185.27 252.694 185.307 252.265 185.27C251.871 185.235 251.448 185.126 251.063 184.984C250.679 184.842 250.298 184.665 249.992 184.458L249.48 184.124L249.274 184.828C249.123 185.319 248.942 185.736 248.631 185.997C248.398 186.193 248.099 186.311 247.8 186.43C247.498 185.754 247.268 185.085 247.113 184.386C246.826 183.135 246.724 181.828 246.863 180.65C246.037 181.443 245.538 182.193 245.273 182.747C245.357 183.439 245.548 184.141 245.745 184.771C245.943 185.402 246.179 185.999 246.487 186.603C246.308 186.587 246.129 186.572 245.95 186.556C245.449 186.512 244.912 186.465 244.14 186.218C243.896 186.124 243.584 185.989 243.238 185.814L241.882 187.715C242.263 187.892 242.683 188.037 242.966 188.098C243.777 188.313 245.274 188.516 245.927 188.465C246.434 188.437 246.948 188.338 247.468 188.167C247.66 188.437 247.853 188.706 248.046 188.975C248.108 189.089 248.17 189.202 248.268 189.319C247.414 189.605 246.211 189.752 244.725 189.839C241.721 189.972 239.439 191.323 238.467 193.366C237.937 194.473 237.675 195.82 237.566 197.073C236.707 196.998 235.916 196.965 235.299 197.019L233.816 199.125L235.172 198.883C235.172 198.883 236.118 198.785 237.454 198.758C237.435 199.802 237.515 200.53 237.515 200.53C236.607 200.198 234.779 200.074 234.171 202.077C233.367 204.675 236.847 204.871 236.847 204.871C235.835 204.494 235.134 203.026 235.848 202.692C237.124 202.119 237.787 202.79 237.535 204.426C237.278 206.135 235.267 206.86 234.234 207.13C234.217 206.913 234.2 206.695 234.144 206.51C234.117 206.399 234.091 206.289 234.068 206.142C234.298 205.982 234.528 205.822 234.726 205.623C234.496 205.783 234.268 205.907 234.009 205.993C233.873 205.476 233.667 204.953 233.382 204.496C233.196 204.155 233.071 203.928 232.918 203.626C232.764 203.324 232.642 203.061 232.489 202.759C232.305 202.382 232.161 201.973 232.052 201.567L231.062 202.995C231.157 203.147 231.219 203.261 231.314 203.413C231.503 203.718 231.696 203.988 231.925 204.26C232.117 204.529 232.379 204.841 232.539 205.071C232.833 205.421 233.052 205.801 233.268 206.217C233.232 206.213 233.232 206.213 233.196 206.21C232.65 206.271 232.149 206.227 231.622 206.073L231.163 205.96L231.298 206.477C231.483 207.25 231.59 208.089 231.42 208.795C231.352 209.15 231.217 209.463 231.016 209.698C230.812 209.968 230.543 210.161 230.241 210.315C229.637 210.623 228.945 210.706 228.307 210.578C227.669 210.45 227.082 210.147 226.544 209.703L226.378 209.544L225.022 211.445L225.263 211.574C226.12 212.082 227.136 212.423 228.144 212.439C229.188 212.458 230.192 212.113 231.003 211.499C231.392 211.173 231.748 210.807 232.004 210.361C232.262 209.879 232.378 209.384 232.383 208.916C232.38 208.122 232.228 207.388 231.962 206.715C232.395 206.717 232.83 206.683 233.204 206.535C233.24 206.539 233.279 206.506 233.314 206.509C233.344 206.584 233.373 206.658 233.403 206.733C233.459 206.918 233.515 207.104 233.571 207.289C233.535 207.286 233.496 207.318 233.496 207.318C233.532 207.321 233.568 207.325 233.568 207.325C233.838 208.358 233.881 209.515 233.569 210.606C234.018 209.6 234.228 208.428 234.146 207.303C238.692 206.871 239.345 203.936 239.404 201.2L243.123 200.732L239.403 199.974C239.402 199.577 239.365 199.178 239.36 198.817C240.043 198.84 240.726 198.864 241.406 198.923L241.585 198.939C241.621 198.942 241.692 198.948 241.728 198.952C241.979 198.974 242.193 198.992 242.408 199.011C242.802 199.046 243.195 199.08 243.55 199.147C244.12 199.233 244.689 199.319 245.255 199.44C246.388 199.684 247.514 199.999 248.637 200.349C247.563 199.859 246.485 199.404 245.364 199.017C245.156 198.927 244.944 198.872 244.697 198.815C246.913 198.215 247.818 196.528 247.648 194.349C247.648 194.349 247.142 196.829 245.466 197.44C244.459 197.82 241.886 197.559 239.417 197.343C239.851 194.857 241.224 194.003 242.095 193.935C243.002 193.871 243.901 194.31 243.566 195.254C243.231 196.198 241.549 196.051 241.549 196.051C242.791 196.701 244.896 196.128 245.121 194.381C245.346 192.633 243.793 192.245 243.793 192.245C244.377 191.755 247.472 191.413 248.663 190.58C249.056 191.443 249.303 192.33 249.365 193.273C249.451 194.759 249.024 196.345 247.987 197.48L247.906 197.581L248.072 197.74L248.15 197.674C249.363 196.591 250.011 194.953 250.012 193.294C250.044 192.107 249.747 190.963 249.301 189.878C249.731 189.087 249.591 188.209 249.591 188.209C249.492 188.525 249.288 188.795 248.908 189.015C248.849 188.865 248.754 188.713 248.659 188.56C248.535 188.333 248.378 188.067 248.218 187.836C248.597 187.617 248.983 187.326 249.268 186.955C249.592 186.55 249.74 186.094 249.856 185.6C250.103 185.657 250.315 185.712 250.562 185.77C251.024 185.846 251.489 185.887 251.925 185.853C252.396 185.822 252.842 185.681 253.254 185.5C253.965 185.202 254.315 184.908 254.597 184.572Z" fill="#494D4E"/>
<path d="M295.069 168.749C294.987 169.68 290.463 174.404 281.767 173.644C273.072 172.883 269.449 167.301 269.518 166.514L257.29 171.502L258.833 228.466L294.261 231.565L305.65 175.985L295.069 168.749Z" fill="#EFEFF0"/>
<path d="M298.565 171.255C298.565 171.255 292.62 179.028 281.384 178.045C270.147 177.062 265.643 168.374 265.643 168.374" stroke="#D1D2D3" stroke-miterlimit="10"/>
<path d="M322.058 109.63C319.701 136.576 308.22 157.748 283.636 155.597C259.052 153.446 251.91 130.393 254.267 103.447C256.625 76.5006 279.798 74.9942 290.999 75.9742C302.2 76.9541 324.419 82.6481 322.058 109.63Z" fill="#ECD2C2"/>
<path d="M270.438 137.459C274.842 140.693 279.63 142.842 284.682 143.212C289.728 143.654 294.767 142.111 299.817 140.029C297.882 141.951 295.51 143.511 292.86 144.541C290.245 145.574 287.355 146.042 284.489 145.828C281.627 145.577 278.82 144.683 276.425 143.211C273.994 141.736 271.854 139.818 270.438 137.459Z" fill="#7B6F68"/>
<path d="M283.671 155.6C308.256 157.751 319.736 136.579 322.093 109.633C322.178 108.667 322.223 107.733 322.266 106.836L318.151 106.476C318.459 125.614 310.824 137.458 307.57 138.796C304.313 140.17 304.02 138.161 301.321 136.447C298.691 134.774 288.257 133.681 285.323 133.424C282.389 133.167 271.924 132.432 269.043 133.623C266.088 134.842 265.415 136.767 262.481 134.851C259.512 132.933 254.085 119.946 257.674 101.184L254.632 100.918C254.524 101.738 254.417 102.558 254.338 103.453C251.948 130.36 259.087 153.449 283.671 155.6ZM270.174 136.354C272.072 135.69 275.855 139.844 284.658 140.614C293.461 141.384 297.908 137.951 299.661 138.934C301.414 139.916 301.578 142.996 296.954 147.207C293.038 150.758 286.411 150.251 283.87 150.028C281.33 149.806 274.683 149.116 271.475 144.978C267.585 139.986 268.316 136.985 270.174 136.354Z" fill="#E2C9BB"/>
<path d="M312.505 177.595L296.495 167.287C297.251 170.599 282.234 196.762 279.406 201.058C277.367 196.336 267.117 167.999 268.44 164.833L250.884 172.204L235.036 195.481C235.036 195.481 235.413 195.298 235.944 195.416C238.814 195.992 246.898 202.505 247.548 204.148C247.991 205.269 247.745 205.608 247.745 205.608L251.066 201.031L251.209 227.835L276.402 230.039L277.368 230.123L302.56 232.327L307.356 205.955L309.832 211.04C309.832 211.04 309.648 210.663 310.279 209.637C311.201 208.167 320.296 203.121 323.223 203.052C323.766 203.028 324.105 203.274 324.105 203.274L312.505 177.595Z" fill="#0095DA"/>
<path d="M262.015 166.975C261.944 168.195 261.877 169.379 261.806 170.599C261.735 171.819 261.668 173.003 261.597 174.222L261.401 173.989L265.974 174.065L266.55 174.079L266.187 174.516L263.072 178.39L263.07 177.993L267.175 183.833C268.518 185.79 269.897 187.75 271.24 189.706C272.584 191.663 273.924 193.655 275.228 195.644L277.203 198.629C277.873 199.626 278.507 200.619 279.141 201.612C278.432 200.648 277.72 199.72 277.011 198.757L274.884 195.866C273.466 193.939 272.084 192.016 270.705 190.056C269.323 188.132 267.944 186.172 266.6 184.216L262.535 178.343L262.375 178.113L262.537 177.911L265.753 174.117L265.966 174.569L261.406 174.35L261.191 174.331L261.21 174.116C261.352 172.903 261.491 171.725 261.633 170.512C261.734 169.366 261.876 168.153 262.015 166.975Z" fill="#126A98"/>
<path d="M302.451 170.513C302.38 171.733 302.313 172.917 302.242 174.137C302.172 175.356 302.104 176.54 302.033 177.76L302.015 177.975L301.8 177.956L297.271 177.38L297.559 176.972L300.068 181.266L300.192 181.494L299.994 181.693L294.932 186.803C293.233 188.493 291.535 190.184 289.837 191.874C288.138 193.564 286.407 195.216 284.673 196.903L282.076 199.38C281.211 200.206 280.345 201.032 279.444 201.855C280.241 200.987 281.077 200.086 281.91 199.222L284.373 196.625C286.039 194.895 287.704 193.166 289.367 191.472C291.033 189.743 292.731 188.053 294.394 186.359L299.489 181.288L299.419 181.678L297.023 177.322L296.742 176.829L297.311 176.914L301.828 177.634L301.594 177.83C301.737 176.616 301.876 175.439 302.018 174.225C302.134 172.901 302.276 171.688 302.451 170.513Z" fill="#126A98"/>
<path d="M323.628 106.919C323.806 103.653 324.029 100.283 323.504 97.2082C323.169 95.2678 322.272 93.5667 321.564 91.7739C320.471 89.0099 319.18 86.0483 317 83.7661C315.844 82.5472 314.315 81.4759 312.822 80.4078C310.886 79.0484 308.928 77.1102 306.313 76.0881C304.222 75.2562 301.688 74.9623 299.107 74.3759C297.316 73.8226 295.938 73.089 293.147 72.8448C292.717 72.8073 290.249 72.988 289.82 72.9504C287.029 72.7062 284.756 72.7237 282.896 72.9577C280.109 73.0745 277.391 72.404 275.113 72.8898C271.623 73.6301 268.805 76.1601 266.264 77.5965C264.404 78.6598 261.71 80.1909 260.326 81.5843C257.166 84.7335 255.383 88.6161 254.035 92.8974C253.279 95.3554 253.48 98.0052 253.138 100.68C251.189 116.772 254.965 126.369 254.965 126.369C258.509 124.191 256.08 115.685 256.088 110.241C256.095 104.797 262.859 95.0757 267.596 93.6872C271.521 92.5161 281.173 97.1828 288.87 97.8201C296.564 98.4932 306.877 95.6093 310.538 97.4441C314.962 99.6341 319.936 110.382 318.998 115.745C318.06 121.108 314.188 129.099 317.303 131.823C317.404 131.904 322.789 123.108 323.628 106.919Z" fill="#5F4C30"/>
<path d="M278.471 123.125C278.145 126.847 274.84 129.587 271.083 129.258C267.325 128.929 264.547 125.657 264.872 121.935C265.198 118.214 268.503 115.474 272.26 115.803C275.982 116.128 278.796 119.403 278.471 123.125Z" fill="#6493B2"/>
<path d="M276.717 122.971C276.489 125.584 274.193 127.51 271.616 127.285C269.004 127.056 267.113 124.764 267.342 122.151C267.567 119.575 269.863 117.648 272.44 117.874C275.016 118.099 276.943 120.395 276.717 122.971Z" fill="#2A1D01"/>
<path d="M270.239 119.953C270.174 120.704 269.512 121.259 268.761 121.194C268.009 121.128 267.454 120.466 267.52 119.715C267.585 118.963 268.247 118.408 268.999 118.474C269.75 118.54 270.305 119.201 270.239 119.953Z" fill="white"/>
<path d="M295.111 124.581C294.785 128.302 297.564 131.575 301.321 131.903C305.079 132.232 308.383 129.492 308.709 125.771C309.035 122.049 306.256 118.777 302.498 118.448C298.777 118.123 295.436 120.859 295.111 124.581Z" fill="#6493B2"/>
<path d="M296.865 124.734C296.637 127.347 298.563 129.643 301.14 129.868C303.752 130.097 306.012 128.167 306.241 125.554C306.466 122.978 304.54 120.682 301.963 120.457C299.387 120.231 297.091 122.158 296.865 124.734Z" fill="#2A1D01"/>
<path d="M297.363 122.326C297.298 123.077 297.853 123.739 298.604 123.805C299.356 123.87 300.017 123.315 300.083 122.564C300.149 121.812 299.594 121.151 298.842 121.085C298.091 121.019 297.429 121.574 297.363 122.326Z" fill="white"/>
<path d="M268.59 167.659C268.59 167.659 268.015 163.93 269.032 162.613L262.018 166.939L261.786 170.417L268.59 167.659Z" fill="#0095DA"/>
<path d="M295.857 170.044C295.857 170.044 297.071 166.472 296.299 164.999L302.454 170.477L302.079 173.942L295.857 170.044Z" fill="#0095DA"/>
<path d="M261.75 96.6372C262.175 96.3138 261.395 94.5147 262.035 94.2101C262.671 93.9412 263.539 94.7383 264.13 94.5737C264.686 94.406 264.285 92.3877 264.737 92.1748C265.188 91.9618 265.199 92.2513 265.729 92.3698C266.26 92.4883 265.992 91.0225 266.391 90.9853C266.791 90.9482 266.883 91.9658 267.465 91.9086C268.046 91.8513 267.635 89.5436 268.188 89.4117C268.74 89.2797 268.8 90.6552 269.334 90.7379C269.832 90.8176 269.917 89.0221 270.206 89.0113C270.495 89.0006 270.303 91.616 270.98 91.7113C271.692 91.8097 272.356 89.9927 272.854 90.0723C273.352 90.1519 273.743 92.2775 274.318 92.2919C274.894 92.3062 275.386 90.7987 275.81 90.9079C276.197 91.0139 275.753 92.3813 276.205 92.5651C276.622 92.7459 276.657 92.3522 276.845 92.2605C276.99 92.6698 277.014 93.2128 277.509 93.3282C278.007 93.4079 279.104 92.8187 279.67 92.9404C280.272 93.0652 280.376 94.769 281.049 94.9001C281.723 95.0311 281.843 94.068 282.055 94.1226C282.302 94.1803 282.075 95.134 282.436 95.1295C282.797 95.125 282.976 94.3114 283.298 94.3395C283.62 94.3677 284.38 95.9848 284.959 95.9633C285.538 95.9418 286.158 93.7965 286.695 93.8434C287.232 93.8904 287.831 96.1064 288.475 96.1627C289.119 96.2191 289.108 94.7036 289.43 94.7318C289.752 94.7599 289.496 96.0357 289.818 96.0639C290.104 96.0889 290.235 95.4153 290.593 95.4466C290.951 95.4779 290.943 96.8113 291.548 96.9003C292.153 96.9893 293.141 94.768 293.752 94.7854C294.396 94.8418 294.567 96.1908 295.315 96.2924C296.063 96.3939 296.518 95.3159 296.948 95.3534C297.377 95.391 297.24 96.1362 297.777 96.1832C298.313 96.2302 298.689 94.8207 299.483 94.818C300.276 94.8153 300.411 96.1613 301.201 96.1943C301.992 96.2274 302.283 94.9548 302.713 94.9924C303.145 94.9942 303.018 93.9734 303.376 94.0047C303.734 94.036 304.203 95.267 304.815 95.2845C305.39 95.2988 306.054 94.3111 306.34 94.3362C306.623 94.397 306.674 95.0505 307.032 95.0818C307.426 95.1163 308.238 94.0695 308.596 94.1008C308.954 94.1322 308.868 95.5309 309.151 95.5917C309.434 95.6526 309.473 94.7906 309.828 94.8577C310.183 94.9248 310.956 94.74 311.425 94.7449C311.893 94.7499 311.594 95.6973 312.274 95.7568C312.918 95.8131 313.184 94.8268 313.607 94.9359C314.066 95.0482 312.905 96.7856 313.127 97.1295C313.385 97.4767 314.446 97.7137 315.062 98.0921C315.336 98.2603 314.897 98.3301 315.084 98.671C315.27 99.0118 316.222 99.672 316.415 99.9413C316.611 100.175 318.303 105.155 318.693 105.225C319.084 105.295 319.562 104.363 319.626 104.044C319.729 103.693 320.179 102.254 320.133 101.961C320.086 101.669 319.154 102.02 318.958 101.786C318.798 101.556 320.427 100.653 320.244 100.276C320.096 99.9028 319.173 100.147 318.637 100.1C318.494 100.087 318.315 100.071 318.214 99.9905C317.741 99.6246 318.978 99.0838 318.935 98.7555C318.891 98.4271 318.076 98.6803 317.919 98.4142C317.797 98.1512 318.524 97.6739 318.263 97.3625C317.999 97.087 316.312 98.2375 316.008 97.9946C315.705 97.7517 316.689 95.5661 316.578 95.1958C316.466 94.8254 315.577 95.5049 315.33 95.4472C315.082 95.3895 314.993 93.9393 314.859 93.8194C314.69 93.6964 314.605 94.6626 314.24 94.3061C313.874 93.9496 314.606 92.1747 314.479 91.9832C314.387 91.7949 314.301 92.3643 314.171 92.2087C314.043 92.0172 314.432 91.6907 314.263 91.5677C314.057 91.4415 313.912 92.6909 313.704 92.6005C313.495 92.5101 313.81 91.3838 313.566 91.2903C313.325 91.1611 313.246 92.885 312.778 92.8801C312.309 92.8752 313.259 91.0832 312.813 90.8278C312.367 90.5724 311.427 92.6538 311.189 92.4887C310.951 92.3237 312.035 87.7669 312.035 87.7669C312.035 87.7669 309.894 93.2769 309.572 93.2487C309.286 93.2237 309.724 91.0985 309.116 91.0453C308.508 90.992 308.306 92.8855 308.017 92.8962C307.727 92.907 308.065 91.9269 307.743 91.8987C307.424 91.8348 307.053 92.7759 306.806 92.7182C306.562 92.6247 307.336 90.7814 306.916 90.6364C306.496 90.4915 305.877 92.2043 305.415 92.1278C304.956 92.0155 305.604 86.2667 305.604 86.2667C305.604 86.2667 304.101 91.0753 303.62 91.2135C303.139 91.3517 303.588 90.3453 303.016 90.2952C302.443 90.2451 302.604 91.7015 302.207 91.7029C301.81 91.7042 301.526 89.1912 301.203 89.1631C300.846 89.1317 300.449 91.1885 300.085 91.2288C299.757 91.2721 300.033 90.1785 299.639 90.144C299.281 90.1127 299.167 91.0042 298.878 91.0149C298.589 91.0257 298.011 91.4439 297.761 91.422C297.51 91.4001 297.644 90.6907 297.257 90.5847C296.869 90.4786 297.34 92.1064 296.326 92.1619C295.314 92.1816 296.688 83.9 296.688 83.9C296.688 83.9 294.147 90.2765 293.428 90.2497C292.709 90.2228 292.679 88.922 292.302 88.2761C292.308 89.0339 292.723 90.4765 291.998 90.5212C291.237 90.5628 290.737 88.031 290.238 86.7253C289.964 87.3865 290.012 88.9051 289.449 88.7476C288.846 88.6228 289.179 86.0557 288.747 86.0539C288.314 86.0521 288.102 87.6562 287.77 87.7354C287.442 87.7788 287.663 86.8967 287.347 86.7969C287.032 86.6972 286.782 88.7307 286.382 88.7678C285.982 88.8049 286.358 85.7368 285.983 84.2616C285.062 86.1282 284.517 90.2994 283.915 90.1746C283.313 90.0498 283.039 86.9969 282.798 86.8677C282.521 86.7353 282.284 88.6256 281.848 88.6596C281.376 88.6905 282.26 85.5946 281.73 85.4761C281.199 85.3575 280.632 87.7238 280.017 87.7422C279.402 87.7605 278.762 83.125 278.13 80.8701C277.748 83.1805 278.156 87.5794 277.763 87.5449C277.405 87.5136 277.5 86.8368 277.385 86.5023C277.061 86.9066 276.843 87.753 276.55 87.7995C276.258 87.846 276.613 86.2545 276.679 85.503C276.115 86.1748 276.001 87.8957 275.568 87.8939C275.136 87.8921 274.022 84.5493 273.76 83.0119C273.625 84.5507 273.96 87.3204 273.348 87.303C272.737 87.2856 272.635 85.9785 272.298 85.2999C272.221 85.762 272.719 86.671 272.029 86.7188C271.343 86.7309 270.451 85.3908 269.801 84.5767C270.001 85.1711 270.268 86.2402 269.966 86.3941C269.664 86.548 269.241 86.4388 269.087 86.1369C269.011 86.599 269.277 87.2713 268.861 87.4873C268.413 87.6645 267.872 86.4272 267.415 85.8824C267.242 86.6245 267.698 87.9986 267.322 88.182C266.942 88.4012 266.715 88.5256 266.444 88.3216C266.209 88.9501 266.222 90.033 266.025 90.2321C265.824 90.4669 264.519 88.4777 263.846 87.5174C263.644 88.1848 264.253 89.4641 263.805 89.6412C263.356 89.8183 263.367 90.1078 263.019 89.9691C262.984 90.3627 263.594 90.8127 263.13 91.1688C262.666 91.5248 262.461 91.3987 261.867 90.7698C261.91 91.0981 262.338 91.5682 261.964 91.7159C261.591 91.8635 260.781 90.819 260.207 90.3722C260.361 90.6741 260.515 90.976 260.522 91.3012C260.53 91.6264 260.248 91.9623 259.926 91.9342C259.978 92.9845 260.824 94.8614 260.629 95.0246C260.435 95.1879 260.228 94.665 259.942 94.64C259.655 94.6149 260.042 95.5502 259.907 95.8629C259.771 96.1756 259.339 96.1738 259.454 96.5084C259.94 97.9572 258.602 99.6432 258.741 100.124C258.843 100.602 260.659 97.9841 260.733 96.7284C260.986 96.7146 261.322 96.9964 261.75 96.6372Z" fill="#6D5637"/>
<path d="M256.018 123C256.307 121.763 255.802 120.529 255.732 119.26C255.681 118.607 255.777 117.93 255.8 117.247C255.881 115.091 255.204 112.94 255.323 110.751C255.394 109.531 255.715 108.333 255.532 107.127C255.488 106.799 255.373 106.464 255.509 106.152C255.56 105.976 255.68 105.842 255.764 105.705C256.14 105.125 256.241 104.377 256.044 103.746C256.19 103.723 256.337 103.7 256.444 103.709C256.692 102.938 257.705 102.485 257.705 101.656C257.718 101.513 257.659 101.364 257.707 101.224C257.755 101.084 257.875 100.95 258.015 100.998C257.804 100.943 257.793 100.654 257.916 100.485C258.039 100.315 258.26 100.262 258.448 100.171C258.637 100.079 258.795 99.9124 258.811 99.7335" stroke="#6A5537" stroke-width="2" stroke-miterlimit="10"/>
<path d="M317.46 128.375C317.391 127.107 318.103 125.979 318.391 124.742C318.555 124.108 318.578 123.425 318.674 122.748C318.969 120.61 320.009 118.61 320.272 116.433C320.414 115.22 320.306 113.984 320.695 112.828C320.795 112.512 320.967 112.203 320.887 111.871C320.867 111.689 320.772 111.537 320.713 111.387C320.444 110.751 320.474 109.996 320.778 109.41C320.638 109.362 320.498 109.313 320.391 109.304C320.281 108.501 319.361 107.88 319.505 107.063C319.518 106.92 319.602 106.783 319.578 106.637C319.555 106.49 319.46 106.338 319.314 106.361C319.532 106.344 319.593 106.061 319.501 105.873C319.409 105.684 319.201 105.594 319.031 105.471C318.862 105.348 318.734 105.156 318.75 104.978" stroke="#6A5537" stroke-width="2" stroke-miterlimit="10"/>
<path d="M280.055 91.4236C279.998 90.0123 280.013 88.6073 280.031 87.1665C280.046 85.7615 280.132 84.3628 280.147 82.9578C280.105 80.1415 279.955 77.3158 279.257 74.5863L279.331 74.5568C279.755 75.892 280.066 77.2894 280.302 78.7163C280.502 80.1401 280.63 81.5577 280.723 82.9721C280.779 84.3833 280.869 85.8335 280.747 87.2291C280.657 88.6637 280.464 90.053 280.124 91.4656L280.055 91.4236Z" fill="#846744"/>
<path d="M292.196 93.2068C292.05 92.4007 292.047 91.6072 292.083 90.781C292.116 89.9906 292.296 89.1769 292.472 88.3991C292.612 87.6181 292.789 86.8402 292.965 86.0623C293.141 85.2844 293.353 84.5097 293.565 83.7349L293.637 83.7412C293.532 84.5253 293.392 85.3063 293.287 86.0905C293.182 86.8746 293.078 87.6588 293.009 88.446C292.94 89.2333 292.907 90.0237 292.766 90.8047C292.626 91.5857 292.485 92.3667 292.238 93.1383L292.196 93.2068Z" fill="#846744"/>
<path d="M298.727 86.9633C298.799 86.1402 299.011 85.3655 299.259 84.5939C299.507 83.8222 299.892 83.1347 300.244 82.4083C300.596 81.6818 300.948 80.9554 301.333 80.2679C301.717 79.5804 302.105 78.857 302.525 78.1727L302.594 78.2147C302.278 78.9443 301.961 79.6738 301.645 80.4034C301.329 81.133 301.048 81.8657 300.765 82.6342C300.484 83.3669 300.272 84.1416 299.92 84.8681C299.604 85.5976 299.252 86.3241 298.796 87.0053L298.727 86.9633Z" fill="#846744"/>
<path d="M291.954 162.743C293.689 164.338 294.427 166.205 294.18 169.032C293.883 172.432 292.325 176.226 290.019 179.089C287.386 182.392 284.139 184.056 280.955 183.777C277.734 183.495 274.861 181.297 272.842 177.586C271.072 174.33 270.193 170.359 270.49 166.96C270.735 164.168 271.78 162.529 273.658 161.251L273.527 162.754C272.347 163.877 271.739 165.049 271.561 167.089C271.047 172.958 274.565 182.208 281.042 182.775C287.519 183.342 292.59 174.843 293.103 168.974C293.285 166.898 292.825 165.56 291.786 164.243L291.954 162.743Z" fill="#EEBC0A"/>
<path d="M281.332 183.161C281.26 183.155 281.227 183.116 281.234 183.044C281.24 182.973 281.279 182.94 281.35 182.946C281.601 182.968 281.819 182.951 282.072 182.937C282.144 182.943 282.177 182.982 282.17 183.054C282.164 183.126 282.125 183.158 282.054 183.152C281.836 183.169 281.582 183.183 281.332 183.161ZM280.261 183.031C280.014 182.973 279.767 182.916 279.555 182.861C279.483 182.855 279.454 182.78 279.496 182.712C279.502 182.64 279.577 182.611 279.645 182.653C279.857 182.707 280.104 182.765 280.316 182.82C280.387 182.826 280.417 182.901 280.414 182.936C280.372 183.005 280.333 183.037 280.261 183.031ZM283.11 183.028C283.074 183.025 283.042 182.986 283.009 182.947C283.015 182.875 283.018 182.84 283.093 182.81C283.314 182.757 283.571 182.708 283.792 182.655C283.867 182.625 283.899 182.664 283.929 182.739C283.958 182.814 283.919 182.846 283.845 182.876C283.627 182.893 283.403 182.981 283.11 183.028C283.146 183.031 283.146 183.031 283.11 183.028ZM278.575 182.523C278.539 182.52 278.539 182.52 278.575 182.523C278.331 182.43 278.09 182.3 277.881 182.21C277.813 182.168 277.816 182.132 277.822 182.061C277.864 181.992 277.9 181.995 277.971 182.001C278.177 182.128 278.385 182.218 278.594 182.308C278.662 182.35 278.659 182.386 278.653 182.458C278.65 182.494 278.611 182.526 278.575 182.523ZM284.819 182.456C284.783 182.453 284.75 182.414 284.718 182.375C284.685 182.336 284.727 182.268 284.766 182.235C284.99 182.147 285.179 182.055 285.406 181.931C285.445 181.898 285.513 181.94 285.546 181.979C285.578 182.018 285.536 182.086 285.497 182.119C285.27 182.243 285.046 182.332 284.858 182.424C284.855 182.459 284.855 182.459 284.819 182.456ZM276.995 181.628C276.959 181.624 276.959 181.624 276.923 181.621C276.718 181.495 276.551 181.336 276.349 181.174C276.316 181.136 276.287 181.061 276.326 181.028C276.365 180.996 276.439 180.966 276.472 181.005C276.638 181.164 276.844 181.29 277.046 181.452C277.079 181.491 277.108 181.565 277.069 181.598C277.069 181.598 277.03 181.631 276.995 181.628ZM286.406 181.622C286.371 181.619 286.335 181.615 286.338 181.58C286.305 181.541 286.312 181.469 286.35 181.436C286.542 181.309 286.733 181.181 286.928 181.018C286.967 180.986 287.038 180.992 287.071 181.031C287.104 181.07 287.097 181.141 287.059 181.174C286.864 181.337 286.673 181.465 286.481 181.592C286.445 181.589 286.442 181.625 286.406 181.622ZM275.654 180.465C275.618 180.461 275.618 180.461 275.585 180.423C275.419 180.264 275.256 180.069 275.089 179.91C275.057 179.871 275.063 179.8 275.102 179.767C275.141 179.735 275.212 179.741 275.245 179.78C275.408 179.974 275.575 180.133 275.741 180.292C275.774 180.331 275.768 180.402 275.729 180.435C275.725 180.471 275.69 180.468 275.654 180.465ZM287.837 180.521C287.801 180.518 287.801 180.518 287.768 180.479C287.736 180.44 287.742 180.368 287.781 180.336C287.94 180.169 288.134 180.006 288.293 179.84C288.332 179.807 288.404 179.813 288.436 179.852C288.469 179.891 288.463 179.963 288.424 179.995C288.265 180.162 288.07 180.325 287.912 180.491C287.876 180.488 287.837 180.521 287.837 180.521ZM274.475 179.099C274.439 179.096 274.404 179.093 274.407 179.057C274.279 178.866 274.116 178.671 273.989 178.48C273.956 178.441 273.962 178.369 274.001 178.337C274.04 178.304 274.112 178.31 274.144 178.349C274.272 178.541 274.399 178.732 274.562 178.927C274.595 178.966 274.589 179.037 274.55 179.07C274.547 179.106 274.511 179.103 274.475 179.099ZM289.068 179.222C289.033 179.219 289.033 179.219 289 179.18C288.967 179.141 288.938 179.067 288.977 179.034C289.135 178.868 289.297 178.665 289.42 178.496C289.459 178.463 289.534 178.434 289.567 178.473C289.599 178.511 289.629 178.586 289.59 178.619C289.428 178.821 289.269 178.987 289.11 179.154C289.14 179.228 289.104 179.225 289.068 179.222ZM273.488 177.607C273.452 177.604 273.416 177.6 273.42 177.565C273.292 177.373 273.168 177.146 273.079 176.922C273.046 176.883 273.089 176.815 273.127 176.782C273.166 176.749 273.235 176.791 273.267 176.83C273.392 177.057 273.484 177.246 273.611 177.437C273.644 177.476 273.637 177.548 273.563 177.577C273.524 177.61 273.524 177.61 273.488 177.607ZM290.202 177.807C290.166 177.804 290.166 177.804 290.13 177.801C290.098 177.762 290.068 177.687 290.107 177.654C290.233 177.449 290.395 177.247 290.518 177.077C290.557 177.045 290.632 177.015 290.664 177.054C290.697 177.093 290.726 177.168 290.688 177.2C290.561 177.406 290.435 177.611 290.273 177.813C290.273 177.813 290.238 177.81 290.202 177.807ZM272.656 175.983C272.621 175.98 272.588 175.941 272.555 175.902C272.467 175.678 272.378 175.454 272.254 175.227C272.221 175.188 272.263 175.12 272.302 175.087C272.341 175.054 272.409 175.096 272.442 175.135C272.531 175.359 272.619 175.584 272.708 175.808C272.741 175.847 272.698 175.915 272.66 175.948C272.692 175.987 272.692 175.987 272.656 175.983ZM291.163 176.304L291.127 176.301C291.058 176.259 291.062 176.223 291.104 176.155C291.23 175.95 291.32 175.741 291.446 175.536C291.488 175.467 291.524 175.471 291.596 175.477C291.664 175.519 291.661 175.555 291.655 175.626C291.529 175.832 291.438 176.04 291.312 176.245C291.237 176.275 291.198 176.308 291.163 176.304ZM272.007 174.34C271.971 174.337 271.938 174.298 271.906 174.259C271.817 174.035 271.764 173.814 271.679 173.554C271.649 173.479 271.688 173.447 271.763 173.417C271.838 173.388 271.87 173.427 271.9 173.501C271.953 173.722 272.041 173.946 272.13 174.17C272.159 174.245 272.121 174.278 272.046 174.307C272.043 174.343 272.007 174.34 272.007 174.34ZM291.987 174.718L291.951 174.715C291.882 174.673 291.885 174.637 291.892 174.565C291.982 174.357 292.076 174.113 292.166 173.904C292.208 173.836 292.244 173.839 292.315 173.845C292.384 173.887 292.381 173.923 292.374 173.994C292.284 174.203 292.191 174.447 292.1 174.656C292.061 174.688 292.022 174.721 291.987 174.718ZM271.51 172.602C271.474 172.599 271.441 172.56 271.409 172.521C271.356 172.3 271.306 172.043 271.254 171.822C271.26 171.751 271.263 171.715 271.338 171.685C271.409 171.691 271.445 171.695 271.475 171.769C271.527 171.99 271.577 172.247 271.63 172.468C271.624 172.54 271.581 172.608 271.51 172.602ZM292.674 173.047C292.605 173.005 292.573 172.966 292.579 172.895C292.669 172.686 292.727 172.439 292.817 172.23C292.823 172.159 292.898 172.129 292.967 172.171C293.038 172.177 293.068 172.252 293.026 172.321C292.968 172.568 292.878 172.776 292.784 173.021C292.748 173.018 292.709 173.05 292.674 173.047ZM271.159 170.84C271.123 170.837 271.055 170.795 271.058 170.759C271.008 170.503 270.991 170.285 270.978 170.031C270.984 169.959 271.023 169.927 271.062 169.894C271.133 169.9 271.166 169.939 271.199 169.978C271.216 170.196 271.265 170.453 271.282 170.671C271.273 170.778 271.231 170.847 271.159 170.84ZM293.185 171.325C293.113 171.319 293.084 171.244 293.087 171.208C293.145 170.961 293.199 170.749 293.257 170.502C293.263 170.43 293.338 170.401 293.374 170.404C293.445 170.41 293.475 170.485 293.472 170.521C293.414 170.768 293.359 170.98 293.302 171.227C293.295 171.298 293.256 171.331 293.185 171.325ZM270.955 169.055C270.919 169.052 270.851 169.01 270.857 168.939C270.843 168.685 270.826 168.467 270.848 168.217C270.854 168.145 270.893 168.113 270.965 168.119C271.036 168.125 271.069 168.164 271.063 168.236C271.076 168.489 271.058 168.704 271.072 168.958C271.068 168.993 271.026 169.062 270.955 169.055ZM293.556 169.554C293.485 169.548 293.452 169.509 293.458 169.438C293.48 169.187 293.535 168.976 293.557 168.725L293.563 168.654C293.569 168.582 293.608 168.549 293.68 168.556C293.751 168.562 293.784 168.601 293.778 168.672L293.771 168.744C293.749 168.994 293.731 169.209 293.673 169.456C293.667 169.528 293.592 169.558 293.556 169.554ZM270.968 167.254C270.897 167.247 270.864 167.209 270.87 167.137C270.883 166.994 270.892 166.886 270.905 166.743C270.914 166.636 270.923 166.529 270.933 166.421C270.939 166.35 270.978 166.317 271.05 166.323C271.121 166.33 271.154 166.368 271.148 166.44C271.138 166.547 271.129 166.655 271.119 166.762C271.107 166.905 271.097 167.013 271.085 167.156C271.079 167.227 271.004 167.257 270.968 167.254ZM293.683 167.69C293.612 167.684 293.579 167.645 293.585 167.574C293.571 167.32 293.554 167.102 293.54 166.849C293.547 166.777 293.586 166.744 293.621 166.748C293.693 166.754 293.726 166.793 293.722 166.829C293.739 167.046 293.753 167.3 293.767 167.554C293.794 167.664 293.755 167.697 293.683 167.69ZM271.196 165.471C271.125 165.464 271.095 165.39 271.098 165.354C271.156 165.107 271.211 164.895 271.268 164.648C271.275 164.576 271.349 164.547 271.418 164.589C271.489 164.595 271.519 164.67 271.477 164.738C271.422 164.95 271.364 165.197 271.31 165.409C271.307 165.444 271.232 165.474 271.196 165.471ZM293.479 165.906C293.443 165.903 293.41 165.864 293.378 165.825C293.325 165.604 293.272 165.383 293.183 165.159C293.154 165.084 293.193 165.051 293.268 165.022C293.342 164.992 293.375 165.031 293.404 165.106C293.493 165.33 293.546 165.551 293.595 165.808C293.592 165.844 293.55 165.912 293.479 165.906ZM271.74 163.787L271.704 163.784C271.636 163.742 271.639 163.707 271.645 163.635C271.736 163.426 271.865 163.185 271.991 162.98C272.03 162.947 272.105 162.918 272.137 162.957C272.17 162.996 272.2 163.07 272.161 163.103C272.035 163.308 271.944 163.517 271.818 163.722C271.851 163.761 271.812 163.794 271.74 163.787ZM292.868 164.23C292.832 164.227 292.797 164.223 292.764 164.184C292.636 163.993 292.473 163.798 292.307 163.64C292.274 163.601 292.28 163.529 292.319 163.496C292.358 163.464 292.43 163.47 292.462 163.509C292.626 163.704 292.789 163.898 292.916 164.09C292.949 164.129 292.943 164.2 292.904 164.233C292.907 164.197 292.904 164.233 292.868 164.23ZM272.604 162.565C272.569 162.562 272.569 162.562 272.536 162.523C272.503 162.484 272.51 162.412 272.548 162.38C272.707 162.213 272.902 162.05 273.096 161.887C273.135 161.854 273.207 161.86 273.24 161.899C273.272 161.938 273.266 162.01 273.227 162.042C273.032 162.206 272.877 162.336 272.715 162.539C272.679 162.535 272.64 162.568 272.604 162.565Z" fill="#FFE799"/>
<path d="M277.719 85.5579C277.665 84.1109 277.573 82.6965 277.447 81.2432C277.283 79.8225 277.119 78.4018 276.919 76.9781L276.809 77.0044C276.862 78.4515 276.883 79.8596 276.901 81.3036C276.919 82.7475 276.904 84.1525 276.851 85.5902C276.824 86.309 276.761 87.0247 276.702 87.7046L276.52 89.7801C276.495 90.0664 276.47 90.3527 276.409 90.6358C276.38 90.5611 276.35 90.4864 276.288 90.3728C276.291 90.337 276.259 90.2981 276.226 90.2592C276.226 90.2592 276.226 90.2592 276.193 90.2203C276.193 90.2203 276.161 90.1814 276.125 90.1782C276.092 90.1393 276.056 90.1362 275.985 90.1299C275.949 90.1268 275.913 90.1237 275.874 90.1563L275.835 90.189C275.797 90.2216 275.761 90.2185 275.758 90.2543C275.719 90.2869 275.716 90.3227 275.677 90.3554C275.632 90.4596 275.586 90.5638 275.58 90.6354C275.529 90.8112 275.513 90.9901 275.494 91.2048L275.598 91.25C275.683 91.1131 275.728 91.0089 275.812 90.872C275.806 90.9436 275.835 91.0183 275.829 91.0899C275.849 91.2719 275.869 91.454 275.954 91.7139C275.951 91.7497 275.984 91.7886 276.017 91.8275C276.049 91.8664 276.046 91.9022 276.115 91.9442C276.147 91.9831 276.183 91.9863 276.216 92.0252C276.248 92.0641 276.32 92.0704 276.356 92.0735C276.427 92.0798 276.463 92.0829 276.57 92.0923C276.606 92.0954 276.645 92.0628 276.684 92.0301L276.723 91.9975C276.801 91.9321 276.84 91.8995 276.843 91.8637C276.882 91.8311 276.885 91.7953 276.924 91.7626C276.966 91.6942 277.005 91.6615 277.011 91.5899C277.101 91.3815 277.189 91.2088 277.24 91.033C277.346 90.6457 277.449 90.2941 277.516 89.9394C277.862 88.4552 277.737 87.0019 277.719 85.5579ZM276.055 90.5687C276.058 90.533 276.058 90.533 276.055 90.5687C276.058 90.533 276.094 90.5361 276.055 90.5687ZM276.672 91.3439C276.675 91.3081 276.675 91.3081 276.672 91.3439V91.3439Z" fill="#997141"/>
<path d="M290.552 90.9716L290.157 92.5958C290.103 92.8074 290.048 93.019 289.997 93.1948C289.964 93.1559 289.899 93.078 289.83 93.036C289.762 92.9939 289.658 92.9488 289.586 92.9425C289.515 92.9362 289.479 92.9331 289.407 92.9268L289.336 92.9206C289.3 92.9174 289.264 92.9143 289.189 92.9438C289.007 92.964 288.891 93.0619 288.774 93.1599C288.735 93.1925 288.732 93.2283 288.693 93.261C288.712 93.0463 288.734 92.7958 288.752 92.5811C288.882 91.5107 288.624 88.2788 288.624 88.2788C288.448 89.0567 287.874 90.6652 287.659 91.4758C287.553 91.8632 287.447 92.2505 287.341 92.6379C287.335 92.7095 287.296 92.7421 287.29 92.8137C287.228 92.7001 287.165 92.5865 286.996 92.4635C286.931 92.3856 286.758 92.2984 286.507 92.2765C286.4 92.2671 286.286 92.3293 286.212 92.3588C286.137 92.3883 286.059 92.4536 286.056 92.4894C285.939 92.5874 285.894 92.6916 285.852 92.76C285.871 92.5453 285.854 92.3275 285.876 92.077L286.089 89.6436C286.161 88.8206 286.197 87.9944 286.269 87.1713C286.341 85.5189 286.378 83.8634 286.086 82.2513C286.122 83.0838 286.053 83.871 285.981 84.6941C285.909 85.5172 285.804 86.3013 285.696 87.1212C285.484 88.7253 285.233 90.362 284.984 91.9629C284.911 92.3892 284.873 92.8186 284.94 93.2932C284.966 93.4037 284.99 93.55 285.049 93.6994C285.078 93.7741 285.144 93.8519 285.206 93.9655C285.271 94.0434 285.405 94.1633 285.619 94.182C285.795 94.2335 285.98 94.1776 286.094 94.1154C286.208 94.0532 286.286 93.9879 286.366 93.8868C286.447 93.7857 286.451 93.7499 286.493 93.6815L286.538 93.5773C286.567 93.652 286.564 93.6878 286.594 93.7625C286.62 93.8729 286.647 93.9834 286.777 94.1391C286.81 94.178 286.839 94.2527 286.94 94.3337C286.973 94.3726 287.042 94.4146 287.146 94.4598C287.25 94.505 287.357 94.5144 287.468 94.488C287.653 94.4321 287.734 94.331 287.809 94.3014C287.848 94.2688 287.851 94.233 287.886 94.2361C287.886 94.2361 287.886 94.2361 287.89 94.2004C287.886 94.2361 287.919 94.2751 287.952 94.314C287.984 94.3529 287.984 94.3529 288.017 94.3918C288.05 94.4307 288.082 94.4696 288.118 94.4728C288.151 94.5117 288.187 94.5148 288.222 94.5179C288.291 94.56 288.398 94.5694 288.506 94.5788C288.613 94.5882 288.727 94.526 288.837 94.4996C288.99 94.4048 289.071 94.3037 289.148 94.2384C289.271 94.0688 289.317 93.9646 289.362 93.8604C289.401 93.8277 289.404 93.7919 289.407 93.7562C289.44 93.7951 289.505 93.8729 289.573 93.915C289.678 93.9601 289.746 94.0022 289.814 94.0442L289.85 94.0474C289.85 94.0474 289.919 94.0894 289.954 94.0925C290.062 94.1019 290.169 94.1113 290.247 94.046C290.396 93.987 290.442 93.8827 290.48 93.8501C290.561 93.749 290.571 93.6416 290.613 93.5732C290.713 93.2574 290.773 92.9742 290.798 92.688C290.884 92.1185 290.931 91.5818 291.017 91.0123C291.15 89.9061 291.319 88.803 291.595 87.7094C291.104 88.7843 290.828 89.8779 290.552 90.9716Z" fill="#997141"/>
<path d="M303.624 82.9204C303.242 83.5721 302.893 84.2627 302.544 84.9534C301.846 86.3347 301.256 87.7254 300.662 89.1519C300.385 89.8488 300.105 90.5815 299.86 91.3173C299.718 91.7016 299.615 92.0532 299.509 92.4405C299.455 92.6521 299.442 92.7953 299.394 92.9353C299.364 92.8606 299.371 92.789 299.305 92.7112C299.276 92.6365 299.214 92.5228 299.044 92.3998C298.875 92.2768 298.624 92.2549 298.475 92.314C298.215 92.3994 298.095 92.5332 298.017 92.5985C297.939 92.6638 297.897 92.7322 297.855 92.8006C297.855 92.8006 297.855 92.8006 297.858 92.7649L297.855 90.7452L296.872 92.4983C296.743 92.7394 296.539 93.01 296.409 93.2511C296.328 93.3522 296.247 93.4533 296.166 93.5544C296.137 93.4797 296.111 93.3692 296.081 93.2945C295.996 93.0346 295.988 92.7094 295.941 92.4169C295.887 91.7991 295.905 91.1877 295.961 90.5435C296.014 89.9352 296.071 89.2911 296.163 88.6501C295.895 89.2396 295.663 89.8323 295.535 90.4702C295.371 91.1049 295.279 91.7459 295.22 92.4258C295.227 92.751 295.196 93.1089 295.275 93.4403C295.295 93.6224 295.315 93.8044 295.407 93.9928C295.433 94.1032 295.463 94.1779 295.561 94.2947C295.593 94.3336 295.659 94.4114 295.724 94.4893C295.789 94.5671 295.929 94.6154 296.073 94.6279C296.144 94.6342 296.216 94.6405 296.29 94.6109C296.365 94.5814 296.365 94.5814 296.401 94.5845C296.476 94.555 296.515 94.5224 296.589 94.4928C296.703 94.4307 296.781 94.3654 296.858 94.3C296.936 94.2347 297.014 94.1694 297.095 94.0683C297.128 94.1073 297.128 94.1073 297.16 94.1462C297.226 94.224 297.33 94.2692 297.434 94.3144C297.538 94.3595 297.685 94.3363 297.756 94.3425C297.941 94.2866 298.019 94.2213 298.094 94.1918C298.172 94.1265 298.211 94.0938 298.25 94.0612C298.331 93.9601 298.408 93.8948 298.489 93.7937C298.528 93.761 298.531 93.7252 298.57 93.6926C298.6 93.7673 298.626 93.8778 298.653 93.9882C298.712 94.1376 298.836 94.3649 299.152 94.4646C299.328 94.5161 299.51 94.4959 299.623 94.4338C299.737 94.3716 299.815 94.3063 299.893 94.241C300.012 94.1072 300.058 94.003 300.142 93.8661C300.235 93.6219 300.29 93.4103 300.341 93.2345C300.396 93.0229 300.415 92.8082 300.427 92.6651C300.494 92.3104 300.597 91.9588 300.7 91.6072C300.909 90.8682 301.15 90.1682 301.395 89.4323C301.881 87.9965 302.439 86.5669 302.997 85.1372C303.587 83.7465 304.145 82.3169 304.911 80.9777C304.422 81.62 304.005 82.2686 303.624 82.9204Z" fill="#997141"/>
<path d="M283.615 92.7807C283.641 92.8912 283.593 93.0312 283.476 93.1292C283.398 93.1945 283.255 93.182 283.19 93.1041C283.089 93.0232 283.062 92.9127 283.069 92.8411C283.019 92.5843 283.041 92.3339 282.982 92.1845C282.985 92.1487 282.952 92.1097 282.952 92.1097L282.92 92.0708C282.92 92.0708 282.955 92.074 282.991 92.0771C283.069 92.0118 282.991 92.0771 282.982 92.1845C282.979 92.2202 282.937 92.2887 282.891 92.3929L282.804 92.5656C282.759 92.6698 282.678 92.7709 282.594 92.9078C282.555 92.9404 282.513 93.0089 282.435 93.0742C282.396 93.1068 282.318 93.1721 282.208 93.1985C282.097 93.2249 281.954 93.2124 281.85 93.1672C281.713 93.0831 281.651 92.9695 281.621 92.8948C281.592 92.8201 281.562 92.7454 281.533 92.6707C281.477 92.4855 281.49 92.3424 281.499 92.235C281.502 92.1992 281.505 92.1634 281.508 92.1277C281.511 92.0919 281.508 92.1277 281.544 92.1308C281.577 92.1697 281.613 92.1728 281.648 92.176C281.72 92.1822 281.651 92.1402 281.613 92.1728C281.577 92.1697 281.538 92.2024 281.463 92.2319C281.424 92.2645 281.35 92.2941 281.314 92.2909C281.239 92.3205 281.2 92.3531 281.021 92.3375C280.985 92.3343 280.953 92.2954 280.92 92.2565C280.92 92.2565 280.923 92.2207 280.887 92.2176C280.891 92.1818 280.858 92.1429 280.861 92.1071C280.867 92.0355 280.874 91.9639 280.877 91.9282L280.909 91.9671L280.841 91.925L280.916 91.8955L280.912 91.9313C280.945 91.9702 280.939 92.0418 280.972 92.0807C280.968 92.1165 281.004 92.1196 281.04 92.1227C281.04 92.1227 281.076 92.1259 281.073 92.1617C281.073 92.1617 281.076 92.1259 281.04 92.1227C281.004 92.1196 281.043 92.087 281.082 92.0543C281.121 92.0216 281.16 91.989 281.202 91.9206C281.241 91.8879 281.283 91.8195 281.358 91.7899C281.432 91.7604 281.474 91.692 281.656 91.6718C281.764 91.6812 281.832 91.7233 281.897 91.8011C281.93 91.84 281.96 91.9147 281.992 91.9536C282.022 92.0283 282.051 92.103 282.045 92.1746C282.068 92.3209 282.062 92.3925 282.095 92.4314C282.127 92.4703 282.124 92.5061 282.16 92.5092C282.157 92.545 282.193 92.5481 282.16 92.5092C282.124 92.5061 282.056 92.464 281.981 92.4936C281.906 92.5231 281.906 92.5231 281.906 92.5231L281.987 92.422C282.029 92.3535 282.071 92.2851 282.152 92.184L282.237 92.0471C282.237 92.0471 282.279 91.9787 282.282 91.9429C282.324 91.8745 282.327 91.8387 282.372 91.7345C282.414 91.666 282.495 91.5649 282.648 91.4701C282.797 91.4111 282.94 91.4236 283.047 91.433C283.152 91.4781 283.256 91.5233 283.318 91.6369C283.351 91.6759 283.383 91.7148 283.416 91.7537C283.449 91.7926 283.446 91.8284 283.478 91.8673C283.508 91.942 283.502 92.0136 283.531 92.0883C283.539 92.4135 283.448 92.6219 283.397 92.7977C283.394 92.8335 283.394 92.8335 283.355 92.8661C283.355 92.8661 283.352 92.9019 283.387 92.9051C283.453 92.9829 283.57 92.8849 283.615 92.7807Z" fill="#997141"/>
<path d="M311.101 84.0072C310.664 84.4738 310.259 84.9792 309.922 85.5267C309.586 86.0743 309.285 86.6249 308.982 87.2113C308.413 88.3515 307.949 89.5369 307.52 90.7254L306.86 92.5066C306.769 92.7151 306.715 92.9267 306.66 93.1382C306.628 93.0993 306.598 93.0246 306.533 92.9468C306.5 92.9079 306.467 92.869 306.399 92.8269C306.331 92.7849 306.191 92.7366 306.119 92.7303C305.94 92.7146 305.862 92.78 305.788 92.8095C305.557 92.9696 305.473 93.1065 305.353 93.2402C305.269 93.3771 305.149 93.5109 305.101 93.6509C305.017 93.7878 304.933 93.9246 304.933 93.9246C304.93 93.9604 304.786 93.9479 304.685 93.8669C304.549 93.7828 304.447 93.7019 304.314 93.582L304.236 93.6473C304.295 93.7967 304.354 93.9461 304.449 94.0986C304.514 94.1765 304.579 94.2543 304.648 94.2964C304.749 94.3773 304.853 94.4225 305.035 94.4024C305.181 94.3791 305.334 94.2843 305.373 94.2516C305.451 94.1863 305.525 94.1568 305.568 94.0883L305.921 93.7587C305.921 93.7587 305.921 93.7587 305.96 93.726L306.078 94.0248C306.107 94.0995 306.137 94.1742 306.166 94.2489C306.196 94.3236 306.222 94.4341 306.356 94.554C306.356 94.554 306.389 94.5929 306.421 94.6318C306.454 94.6707 306.49 94.6739 306.523 94.7128C306.555 94.7517 306.659 94.7969 306.731 94.8031C306.838 94.8125 306.949 94.7861 307.059 94.7597C307.173 94.6976 307.212 94.6649 307.251 94.6323C307.29 94.5996 307.293 94.5638 307.332 94.5312C307.371 94.4985 307.374 94.4627 307.377 94.4269C307.419 94.3585 307.425 94.2869 307.428 94.2511L307.473 94.1469C307.525 93.9711 307.573 93.8311 307.622 93.6911C307.721 93.3753 307.782 93.0922 307.882 92.7764C308.007 92.1743 308.17 91.5395 308.331 90.9406C308.652 89.7427 309.045 88.551 309.473 87.3625C309.902 86.174 310.399 85.0275 311.137 84.0103L311.101 84.0072ZM306.112 93.6312C306.148 93.6343 306.151 93.5985 306.151 93.5985C306.148 93.6343 306.148 93.6343 306.112 93.6312ZM307.096 93.9336C307.131 93.9367 307.128 93.9725 307.096 93.9336V93.9336Z" fill="#997141"/>
<path d="M314.461 95.4793C314.429 95.8372 314.401 96.1592 314.373 96.4813C314.361 96.6244 314.381 96.8065 314.413 96.8454C314.413 96.8454 314.413 96.8454 314.417 96.8096C314.384 96.7707 314.384 96.7707 314.348 96.7676C314.312 96.7645 314.384 96.7707 314.384 96.7707L314.455 96.777L314.599 96.7895C314.989 96.8597 315.341 96.9626 315.677 97.2444C315.742 97.3222 315.843 97.4032 315.905 97.5168C315.967 97.6304 316.062 97.783 316.047 97.9619C316.034 98.105 316.025 98.2124 315.983 98.2808C315.937 98.385 315.931 98.4566 315.889 98.5251C315.847 98.5935 315.841 98.6651 315.799 98.7335C315.757 98.8019 315.786 98.8766 315.754 98.8377C315.754 98.8377 315.724 98.763 315.685 98.7957L315.757 98.8019L316.001 98.8954C316.177 98.9469 316.314 99.031 316.489 99.0824C316.662 99.1696 316.802 99.2179 316.968 99.3767C317.001 99.4156 317.001 99.4156 317.034 99.4546C317.031 99.4903 317.066 99.4935 317.063 99.5293C317.06 99.565 317.093 99.604 317.09 99.6397C317.083 99.7113 317.041 99.7798 317.038 99.8155C316.993 99.9198 316.915 99.9851 316.912 100.021C316.909 100.057 316.912 100.021 316.876 100.018C316.876 100.018 316.876 100.018 316.909 100.057C316.977 100.099 317.046 100.141 317.15 100.186C317.219 100.228 317.32 100.309 317.343 100.455C317.366 100.601 317.288 100.667 317.282 100.738C317.24 100.807 317.198 100.875 317.192 100.947C317.185 101.018 317.218 101.057 317.287 101.099L317.244 101.168C317.176 101.126 317.075 101.045 317.084 100.937C317.094 100.83 317.1 100.758 317.145 100.654C317.232 100.482 317.203 100.407 317.063 100.359C316.994 100.317 316.923 100.31 316.854 100.268C316.819 100.265 316.75 100.223 316.685 100.145C316.62 100.067 316.629 99.96 316.671 99.8916C316.716 99.7874 316.758 99.7189 316.8 99.6505C316.803 99.6147 316.807 99.5789 316.807 99.5789L316.803 99.6147C316.803 99.6147 316.803 99.6147 316.768 99.6116C316.667 99.5306 316.491 99.4792 316.351 99.4309C316.211 99.3826 316.035 99.3311 315.895 99.2828L315.648 99.2251L315.576 99.2188C315.576 99.2188 315.504 99.2126 315.472 99.1737C315.368 99.1285 315.27 99.0117 315.24 98.937C315.184 98.7519 315.229 98.6476 315.239 98.5403C315.248 98.4329 315.29 98.3645 315.296 98.2929C315.303 98.2213 315.345 98.1529 315.351 98.0813C315.357 98.0098 315.363 97.9382 315.367 97.9024C315.363 97.9382 315.301 97.8246 315.197 97.7794C314.992 97.6533 314.676 97.5535 314.396 97.4569L314.292 97.4117L314.152 97.3634C314.044 97.354 313.943 97.2731 313.878 97.1952C313.845 97.1563 313.813 97.1174 313.78 97.0785C313.747 97.0396 313.75 97.0038 313.754 96.968C313.707 96.6754 313.759 96.4997 313.846 96.327C313.984 95.9785 314.156 95.669 314.36 95.3984L314.461 95.4793Z" fill="#997141"/>
<path d="M272.674 88.8305C272.643 89.1884 272.54 89.54 272.404 89.8527C272.317 90.0253 272.23 90.198 272 90.3581C271.961 90.3908 271.925 90.3876 271.886 90.4203C271.847 90.453 271.811 90.4498 271.74 90.4436C271.629 90.47 271.525 90.4248 271.421 90.3796L271.32 90.2986L271.215 90.2535C270.974 90.1242 270.662 89.9887 270.414 89.931C270.31 89.8858 270.2 89.9122 270.2 89.9122C270.2 89.9122 270.122 89.9775 270.08 90.0459C270.038 90.1144 269.996 90.1828 269.954 90.2512C269.911 90.3197 269.869 90.3881 269.824 90.4923C269.782 90.5608 269.737 90.665 269.546 90.7925C269.468 90.8578 269.325 90.8453 269.22 90.8001C269.185 90.797 269.116 90.7549 269.116 90.7549L269.084 90.716L268.878 90.5899C268.741 90.5058 268.604 90.4217 268.429 90.3702C268.292 90.2861 268.116 90.2347 268.009 90.2253L267.973 90.2222C267.931 90.2906 267.925 90.3622 267.879 90.4664C267.876 90.5022 267.795 90.6033 267.685 90.6297C267.574 90.6561 267.506 90.614 267.473 90.5751C267.405 90.5331 267.336 90.491 267.265 90.4848C267.125 90.4365 267.05 90.466 266.999 90.6418C266.957 90.7102 266.911 90.8144 266.834 90.8797C266.756 90.9451 266.613 90.9325 266.541 90.9263L266.547 90.8547C266.619 90.861 266.69 90.8672 266.732 90.7988C266.771 90.7661 266.781 90.6588 266.823 90.5903C266.865 90.5219 266.874 90.4145 266.991 90.3166C267.105 90.2544 267.212 90.2638 267.319 90.2732C267.427 90.2826 267.495 90.3246 267.567 90.3309C267.602 90.334 267.638 90.3371 267.602 90.334C267.567 90.3309 267.564 90.3667 267.567 90.3309C267.57 90.2951 267.579 90.1877 267.624 90.0835C267.627 90.0477 267.67 89.9793 267.712 89.9109C267.751 89.8782 267.751 89.8782 267.789 89.8455C267.828 89.8129 267.825 89.8487 267.864 89.816C267.9 89.8192 267.936 89.8223 267.971 89.8254C268.186 89.8442 268.362 89.8956 268.538 89.9471C268.714 89.9985 268.85 90.0826 269.026 90.1341L269.267 90.2633L269.336 90.3054L269.264 90.2991C269.225 90.3318 269.303 90.2665 269.309 90.1949C269.351 90.1264 269.358 90.0549 269.4 89.9864C269.442 89.918 269.451 89.8106 269.493 89.7422C269.538 89.638 269.58 89.5695 269.661 89.4684C269.781 89.3347 269.931 89.2757 270.077 89.2524C270.223 89.2291 270.331 89.2385 270.438 89.2479C270.867 89.2855 271.213 89.4599 271.519 89.667L271.62 89.748L271.689 89.79C271.689 89.79 271.757 89.8321 271.721 89.829C271.686 89.8258 271.65 89.8227 271.614 89.8196C271.578 89.8164 271.578 89.8164 271.578 89.8164C271.65 89.8227 271.77 89.6889 271.851 89.5879C272.051 89.353 272.255 89.0824 272.495 88.8149L272.674 88.8305Z" fill="#997141"/>
<path d="M255.494 124.035C255.76 123.878 255.899 123.53 255.963 123.211C256.027 122.892 256.058 122.534 256.05 122.209C255.999 121.556 255.951 120.866 255.868 120.174L255.464 116.136C255.365 114.793 255.23 113.447 255.17 112.072C255.158 111.386 255.11 110.696 255.134 110.013C255.158 109.33 255.146 108.644 255.244 107.931C255.275 107.574 255.375 107.258 255.439 106.939C255.503 106.62 255.57 106.265 255.634 105.946C255.698 105.627 255.726 105.305 255.754 104.983C255.767 104.84 255.783 104.661 255.759 104.515C255.766 104.443 255.736 104.369 255.742 104.297L255.716 104.186L255.722 104.115L255.732 104.008C255.721 103.718 255.85 103.477 255.973 103.307C256.096 103.138 256.252 103.007 256.372 102.874C256.45 102.808 256.488 102.776 256.566 102.71C256.605 102.678 256.605 102.678 256.605 102.678C256.605 102.678 256.644 102.645 256.647 102.609C256.692 102.505 256.78 102.332 256.828 102.192C256.963 101.88 257.063 101.564 257.199 101.251C257.334 100.939 257.473 100.59 257.644 100.281C257.767 100.111 257.851 99.9741 258.046 99.8108C258.121 99.7813 258.163 99.7129 258.273 99.6865L258.309 99.6896C258.273 99.6865 258.273 99.6865 258.234 99.7191C258.195 99.7518 258.195 99.7518 258.16 99.7487C258.156 99.7844 258.198 99.716 258.205 99.6444L258.262 99.3971C258.266 99.3613 258.308 99.2928 258.311 99.2571C258.314 99.2213 258.353 99.1886 258.356 99.1528C258.395 99.1202 258.398 99.0844 258.476 99.0191C258.515 98.9864 258.628 98.9243 258.703 98.8947C258.739 98.8979 258.775 98.901 258.846 98.9073C258.882 98.9104 258.882 98.9104 258.882 98.9104L258.918 98.9135C258.954 98.9166 259.022 98.9587 259.058 98.9618L259.266 99.0522C259.266 99.0522 259.305 99.0195 259.191 99.0817C259.153 99.1144 259.117 99.1112 259.114 99.147C259.075 99.1797 259.068 99.2512 259.065 99.287C259.072 99.2154 259.042 99.1407 259.013 99.066C258.992 98.884 258.933 98.7346 258.916 98.5167C258.926 98.4094 258.899 98.2989 258.987 98.1262C259.029 98.0578 259.149 97.9241 259.259 97.8977C259.334 97.8681 259.369 97.8713 259.405 97.8744C259.441 97.8775 259.477 97.8807 259.513 97.8838C259.724 97.9384 259.861 98.0225 260.031 98.1455C260.099 98.1875 260.168 98.2296 260.203 98.2327C260.203 98.2327 260.203 98.2327 260.168 98.2296C260.168 98.2296 260.132 98.2264 260.129 98.2622C260.093 98.2591 260.09 98.2949 260.09 98.2949C260.048 98.3633 260.087 98.3307 260.087 98.3307C260.09 98.2949 260.099 98.1875 260.105 98.1159C260.112 98.0444 260.082 97.9697 260.088 97.8981C260.042 97.6056 259.885 97.3394 259.692 97.0701C259.303 96.5674 258.768 96.0878 258.266 95.6472L258.308 95.5788C258.888 95.9541 259.429 96.362 259.929 96.8384C260.16 97.075 260.386 97.3832 260.494 97.7894C260.521 97.8999 260.515 97.9715 260.541 98.0819C260.535 98.1535 260.564 98.2282 260.552 98.3714C260.545 98.4429 260.575 98.5176 260.458 98.6156C260.416 98.684 260.306 98.7104 260.27 98.7073C260.198 98.701 260.163 98.6979 260.127 98.6948C259.987 98.6465 259.918 98.6044 259.85 98.5624C259.713 98.4783 259.573 98.43 259.43 98.4174C259.43 98.4174 259.43 98.4174 259.466 98.4206C259.466 98.4206 259.501 98.4237 259.505 98.3879C259.505 98.3879 259.505 98.3879 259.544 98.3553C259.547 98.3195 259.54 98.391 259.534 98.4626C259.557 98.6089 259.581 98.7552 259.64 98.9046C259.669 98.9793 259.699 99.054 259.689 99.1613C259.686 99.1971 259.683 99.2329 259.716 99.2718C259.709 99.3434 259.7 99.4507 259.661 99.4834C259.619 99.5518 259.58 99.5845 259.506 99.614C259.392 99.6762 259.32 99.6699 259.285 99.6668C259.249 99.6637 259.213 99.6605 259.177 99.6574C259.073 99.6122 259.001 99.606 258.933 99.5639C258.897 99.5608 258.861 99.5576 258.826 99.5545C258.861 99.5576 258.861 99.5576 258.897 99.5608C258.933 99.5639 259.008 99.5344 259.011 99.4986C259.053 99.4302 259.011 99.4986 259.005 99.5702L258.947 99.8175C258.902 99.9218 258.895 99.9933 258.772 100.163C258.733 100.196 258.691 100.264 258.617 100.293C258.578 100.326 258.542 100.323 258.503 100.356C258.539 100.359 258.539 100.359 258.503 100.356C258.464 100.388 258.344 100.522 258.296 100.662C257.999 101.177 257.832 101.847 257.561 102.473C257.509 102.649 257.425 102.785 257.335 102.994C257.296 103.027 257.29 103.098 257.251 103.131C257.209 103.199 257.17 103.232 257.131 103.265C257.053 103.33 256.975 103.395 256.936 103.428C256.667 103.621 256.502 103.859 256.528 103.969C256.528 103.969 256.528 103.969 256.525 104.005C256.525 104.005 256.522 104.041 256.519 104.076L256.542 104.223C256.533 104.33 256.562 104.405 256.553 104.512C256.573 104.694 256.557 104.873 256.542 105.052C256.51 105.41 256.443 105.765 256.379 106.084C256.312 106.438 256.212 106.754 256.149 107.073C256.085 107.392 255.946 107.74 255.918 108.062C255.79 108.7 255.766 109.383 255.746 110.031C255.722 110.714 255.737 111.364 255.749 112.05C255.776 113.387 255.836 114.762 255.935 116.105L256.193 120.166C256.241 120.856 256.292 121.509 256.304 122.195C256.312 122.52 256.28 122.878 256.177 123.23C256.078 123.546 255.972 123.933 255.634 124.084L255.494 124.035Z" fill="#997141"/>
<path d="M317.432 129.527C317.161 129.323 317.118 128.994 317.068 128.738C317.022 128.445 317.047 128.159 317.075 127.837C317.161 127.267 317.318 126.704 317.44 126.138L318.242 122.746C318.764 120.484 319.322 118.225 319.666 115.947C319.727 115.664 319.752 115.378 319.777 115.092C319.802 114.805 319.827 114.519 319.852 114.233C319.877 113.947 319.863 113.693 319.852 113.404L319.784 112.532C319.763 111.953 319.705 111.371 319.759 110.763C319.784 110.477 319.815 110.119 319.912 109.839L319.957 109.735L319.96 109.699L319.963 109.663C319.966 109.627 319.969 109.592 319.969 109.592C319.976 109.52 319.91 109.442 319.848 109.329C319.786 109.215 319.721 109.137 319.623 109.02C319.59 108.981 319.525 108.904 319.459 108.826C319.394 108.748 319.332 108.634 319.306 108.524C319.191 108.189 319.18 107.9 319.133 107.607C319.04 107.022 318.983 106.44 318.809 105.956C318.783 105.846 318.724 105.696 318.658 105.619L318.626 105.58C318.59 105.577 318.521 105.535 318.489 105.496C318.358 105.34 318.364 105.268 318.374 105.161C318.354 104.979 318.366 104.836 318.34 104.725C318.346 104.654 318.31 104.651 318.379 104.693C318.414 104.696 318.379 104.693 318.343 104.69L318.236 104.68C318.164 104.674 318.089 104.703 318.018 104.697C317.982 104.694 317.946 104.691 317.839 104.682C317.803 104.678 317.735 104.636 317.702 104.597C317.669 104.558 317.679 104.451 317.679 104.451C317.73 104.275 317.811 104.174 317.859 104.034C317.908 103.894 317.989 103.793 318.001 103.65C318.007 103.578 318.014 103.507 318.017 103.471C318.02 103.435 317.951 103.393 317.88 103.387L317.886 103.315C317.958 103.322 318.068 103.295 318.13 103.409C318.16 103.484 318.186 103.594 318.18 103.666C318.168 103.809 318.119 103.949 318.068 104.125C318.019 104.265 317.971 104.405 317.926 104.509C317.923 104.545 317.929 104.473 317.929 104.473C317.932 104.437 317.896 104.434 317.896 104.434L317.932 104.437L318.153 104.384C318.189 104.388 318.228 104.355 318.264 104.358C318.299 104.361 318.338 104.329 318.443 104.374C318.547 104.419 318.612 104.497 318.609 104.533C318.642 104.571 318.635 104.643 318.668 104.682C318.688 104.864 318.711 105.01 318.738 105.121C318.732 105.192 318.8 105.234 318.767 105.195L318.735 105.157C318.771 105.16 318.803 105.199 318.839 105.202C318.907 105.244 318.94 105.283 318.973 105.322C319.103 105.477 319.162 105.627 319.26 105.743C319.535 106.308 319.625 106.929 319.722 107.479C319.771 107.735 319.85 108.067 319.939 108.291C319.968 108.366 319.968 108.366 320.001 108.404L320.132 108.56C320.23 108.677 320.328 108.794 320.422 108.946C320.517 109.099 320.609 109.287 320.626 109.505C320.652 109.615 320.643 109.723 320.595 109.863L320.588 109.934L320.585 109.97L320.54 110.074C320.482 110.322 320.425 110.569 320.4 110.855C320.353 111.392 320.374 111.971 320.396 112.55L320.428 113.418C320.439 113.707 320.446 114.033 320.382 114.351C320.357 114.638 320.329 114.96 320.268 115.243C320.207 115.526 320.182 115.812 320.122 116.096C319.668 118.4 319.074 120.655 318.48 122.911L317.538 126.254C317.381 126.818 317.223 127.381 317.101 127.947C317.041 128.23 317.016 128.517 317.062 128.809C317.073 129.098 317.155 129.394 317.357 129.556L317.432 129.527Z" fill="#997141"/>
<path d="M277.227 230.075L276.512 230.012L279.013 201.42L279.337 201.845L279.735 201.411L277.227 230.075Z" fill="#126A98"/>
<g clip-path="url(#clip1_1607_4663)">
<path d="M190.128 121.133C170.548 120.492 157.296 127.545 157.296 127.545L150.584 107.624L148.703 95.4829L233.562 103.691L223.644 127.545C223.601 127.545 215.179 121.945 190.128 121.133Z" fill="#18181C"/>
<path d="M227.149 158.753C227.149 158.753 226.508 157.342 217.231 154.093C207.954 150.844 201.071 146.398 201.071 139.43C201.071 132.504 201.071 121.133 201.071 121.133H179.696C179.696 121.133 179.696 132.462 179.696 139.43C179.696 146.398 172.814 150.844 163.537 154.093C154.26 157.342 153.619 158.753 153.619 158.753L132.586 214.499H146.736L160.972 185.087C160.972 185.087 163.708 196.672 166.914 214.499H189.358H189.657H190.341H191.025H191.324H213.768C216.974 196.672 219.71 185.087 219.71 185.087L233.946 214.499H248.096L227.149 158.753Z" fill="#EFD6C2"/>
<path d="M234.972 69.2345C234.972 103.135 219.924 130.88 190.683 130.88C161.485 130.88 145.24 102.836 145.24 68.9353C145.24 35.0345 161.955 31.6145 191.154 31.6145C220.395 31.6145 234.972 35.3338 234.972 69.2345Z" fill="#F7E2D0"/>
<path d="M227.706 157.983C224.029 155.931 212.102 150.502 212.102 150.502C209.793 155.333 194.745 159.651 194.745 159.651L190.556 170.637L186.366 159.651C186.366 159.651 171.318 155.333 169.01 150.502C169.01 150.502 157.083 155.931 153.406 157.983C151.055 159.266 137.332 198.553 137.332 198.553L150.328 206.291L160.588 185.087L166.53 214.499H188.931H189.957H190.086H190.599H191.112H191.24H192.266H214.667L220.609 185.087L230.869 206.291L243.865 198.553C243.78 198.553 230.014 159.266 227.706 157.983Z" fill="#F05A24"/>
<path d="M187.863 163.712L187.607 163.071C178.287 162.387 170.037 158.454 164.436 152.554C164.223 152.64 164.052 152.725 163.838 152.853C169.652 158.967 178.202 163.071 187.863 163.712Z" fill="#CD4D1F"/>
<path d="M217.19 152.853C216.976 152.768 216.762 152.682 216.591 152.554C210.948 158.454 202.697 162.387 193.421 163.071L193.164 163.712C202.826 163.071 211.376 158.967 217.19 152.853Z" fill="#CD4D1F"/>
<path d="M223.859 103.734C223.859 108.094 220.31 111.642 215.95 111.642C211.589 111.642 208.041 108.094 208.041 103.734C208.041 99.3732 211.589 95.825 215.95 95.825C220.31 95.825 223.859 99.3732 223.859 103.734Z" fill="url(#paint2_radial_1607_4663)"/>
<path d="M173.327 103.734C173.327 108.094 169.779 111.642 165.419 111.642C161.058 111.642 157.51 108.094 157.51 103.734C157.51 99.3732 161.058 95.825 165.419 95.825C169.779 95.825 173.327 99.3732 173.327 103.734Z" fill="url(#paint3_radial_1607_4663)"/>
<path d="M244.934 84.5391C244.934 54.4004 232.836 20.2859 190.214 20.2859C147.592 20.2859 135.494 54.4004 135.494 84.5391C135.494 101.682 144.514 130.923 157.254 127.546C153.492 115.618 152.081 98.6894 152.081 88.0019C152.081 57.8631 169.138 54.9561 190.214 54.9561C211.247 54.9561 228.347 57.8631 228.347 88.0019C228.347 98.6894 226.936 115.618 223.174 127.546" fill="#302D2E"/>
<path d="M144.43 67.14C144.43 67.14 161.444 76.1602 189.531 76.1602C217.618 76.1602 241.258 67.14 241.258 67.14L205.819 50.1682H170.764L147.978 54.657" fill="#2D2D31"/>
<path d="M135.964 74.4502C135.964 74.4502 131.903 104.717 146.908 133.018C146.908 133.018 152.765 129.213 156.783 127.546C156.783 127.546 151.397 107.838 151.397 85.3942L135.964 74.4502Z" fill="#2D2D31"/>
<path d="M244.421 74.4502C244.421 74.4502 248.482 104.717 233.477 133.018C233.477 133.018 227.62 129.213 223.602 127.546C223.602 127.546 228.988 107.838 228.988 85.3942L244.421 74.4502Z" fill="#2D2D31"/>
<path d="M179.355 214.499C176.192 167.816 173.627 146.612 169.48 149.263C162.683 153.623 150.499 156.701 150.499 156.701L131.262 214.499H147.934L157.339 192.611L161.956 214.499H179.355Z" fill="#220000"/>
<path d="M157.297 192.568C157.34 189.405 157.297 186.241 157.169 183.12C157.041 179.957 156.827 176.836 156.485 173.715C156.314 172.176 156.057 170.595 155.758 169.098C155.459 167.559 155.16 166.063 154.775 164.567C154.604 163.797 154.39 163.071 154.176 162.344C153.963 161.617 153.663 160.89 153.364 160.206C152.723 158.838 151.911 157.556 150.5 156.786L150.543 156.615C151.355 156.744 152.124 157.171 152.766 157.727C153.407 158.283 153.963 158.924 154.39 159.608C155.288 161.019 155.886 162.515 156.399 164.097C157.383 167.217 157.596 170.424 157.81 173.587C158.024 176.751 158.067 179.957 157.981 183.12C157.896 186.284 157.725 189.447 157.426 192.611L157.297 192.568Z" fill="#3D2929"/>
<path d="M201.414 214.499C204.578 167.816 207.143 146.612 211.289 149.263C218.087 153.623 230.27 156.701 230.27 156.701L249.508 214.499H232.835L223.43 192.611L218.771 214.499H201.414Z" fill="#220000"/>
<path d="M223.473 192.568C223.431 189.405 223.473 186.241 223.602 183.12C223.73 179.957 223.944 176.836 224.286 173.715C224.457 172.176 224.713 170.595 225.012 169.098C225.312 167.559 225.611 166.063 225.996 164.567C226.167 163.797 226.38 163.071 226.594 162.344C226.808 161.617 227.107 160.89 227.406 160.206C228.048 158.838 228.86 157.556 230.271 156.786L230.228 156.615C229.416 156.744 228.646 157.171 228.005 157.727C227.364 158.283 226.808 158.924 226.38 159.608C225.483 161.019 224.884 162.515 224.371 164.097C223.388 167.217 223.174 170.424 222.96 173.587C222.747 176.751 222.704 179.957 222.789 183.12C222.875 186.284 223.046 189.447 223.345 192.611L223.473 192.568Z" fill="#3D2929"/>
<path d="M190.471 155.504C187.564 155.504 185.17 153.11 185.17 150.203C185.17 147.296 187.564 144.902 190.471 144.902C193.378 144.902 195.772 147.296 195.772 150.203C195.772 153.11 193.378 155.504 190.471 155.504ZM190.471 147.04C188.718 147.04 187.307 148.45 187.307 150.203C187.307 151.956 188.718 153.367 190.471 153.367C192.224 153.367 193.634 151.956 193.634 150.203C193.634 148.45 192.224 147.04 190.471 147.04Z" fill="#C1BDB7"/>
<path d="M186.025 150.118C186.025 147.638 188.035 145.672 190.471 145.672C192.951 145.672 194.917 147.681 194.917 150.118" stroke="#D5D7D8" stroke-miterlimit="10"/>
<path d="M194.361 151.913C193.677 153.153 192.395 153.965 190.898 153.965C189.402 153.965 188.12 153.153 187.436 151.913" stroke="#D5D7D8" stroke-miterlimit="10" stroke-linecap="round"/>
<path d="M188.419 148.194C186.325 147.98 178.886 145.543 177.946 144.047C177.946 144.047 176.236 146.612 175.723 146.911C175.723 146.911 182.306 151.186 187.821 151.186C187.778 151.144 187.436 149.476 188.419 148.194Z" fill="#484745"/>
<path d="M192.266 148.194C194.36 147.98 201.799 145.543 202.739 144.047C202.739 144.047 204.449 146.612 204.962 146.911C204.962 146.911 198.379 151.186 192.864 151.186C192.907 151.144 193.249 149.476 192.266 148.194Z" fill="#484745"/>
<path d="M232.578 69.9613L231.552 66.7123C231.168 65.6435 230.783 64.5748 230.398 63.506L229.8 61.9243C229.586 61.4113 229.415 60.8555 229.158 60.3425C228.902 59.8295 228.645 59.3165 228.389 58.8035C228.132 58.2905 227.833 57.7775 227.577 57.3073C226.465 55.298 225.225 53.3743 223.815 51.5788C223.131 50.681 222.361 49.7833 221.592 48.971C220.779 48.1588 219.967 47.3893 218.984 46.7908C220.608 48.3725 221.763 50.2963 222.831 52.22C223.9 54.1865 224.841 56.1958 225.61 58.2478C226.038 59.2738 226.38 60.3425 226.764 61.3685C227.149 62.3945 227.619 63.4205 228.004 64.4465L229.116 67.5673L229.714 69.4055C223.515 70.7308 217.188 71.7568 210.861 72.5263C204.064 73.3385 197.224 73.8088 190.384 73.937C186.964 73.9798 183.544 73.937 180.124 73.766C176.704 73.595 173.327 73.2958 169.95 72.8255C166.572 72.3553 163.238 71.7568 159.946 70.9445C156.996 70.2178 154.132 69.32 151.311 68.2513C151.439 67.7383 151.61 67.2253 151.738 66.7123C151.866 66.2848 151.995 65.8573 152.166 65.4298C152.337 65.0023 152.465 64.5748 152.636 64.1473C153.149 62.3945 153.747 60.6418 154.431 58.889C154.773 58.034 155.158 57.179 155.5 56.324C155.885 55.469 156.27 54.614 156.697 53.8018C157.552 52.1345 158.493 50.51 159.519 48.9283C158.236 50.2963 156.954 51.707 155.885 53.2888C155.286 54.0583 154.816 54.8278 154.26 55.64C153.747 56.4523 153.234 57.2645 152.764 58.0768C151.824 59.744 150.926 61.454 150.156 63.2068C149.814 64.1045 149.558 65.045 149.259 65.9428C148.959 66.8833 148.746 67.781 148.489 68.7643L148.275 69.833L149.301 70.2178C152.593 71.5003 155.928 72.5263 159.305 73.3813C162.682 74.1935 166.145 74.8348 169.608 75.305C173.07 75.7753 176.533 76.0745 179.996 76.2455C183.459 76.4165 186.921 76.4593 190.427 76.4165C197.352 76.2883 204.278 75.818 211.161 75.0058C218.043 74.1508 224.883 73.082 231.681 71.543L233.049 71.2438L232.578 69.9613Z" fill="#423D3F"/>
<path d="M175.766 110.916C180.297 113.652 185.171 115.362 190.087 115.276C195.046 115.276 199.791 113.353 204.494 110.916C202.784 112.968 200.603 114.635 198.124 115.875C195.687 117.115 192.908 117.799 190.087 117.841C187.308 117.841 184.487 117.243 182.05 116.003C179.57 114.806 177.347 113.096 175.766 110.916Z" fill="#8C5E50"/>
<path d="M177.86 89.2417C177.86 93.0892 174.696 96.1672 170.849 96.1672C166.959 96.1672 163.838 93.0464 163.838 89.2417C163.838 85.3942 166.959 82.3162 170.849 82.3162C174.739 82.3162 177.86 85.3942 177.86 89.2417Z" fill="#A17C4C"/>
<path d="M176.064 89.2416C176.064 91.9349 173.884 94.0724 171.233 94.0724C168.54 94.0724 166.402 91.8921 166.402 89.2416C166.402 86.5911 168.583 84.4109 171.233 84.4109C173.884 84.4109 176.064 86.5484 176.064 89.2416Z" fill="#2A1D01"/>
<path d="M169.181 88.0018C169.181 88.7713 168.54 89.4126 167.77 89.4126C167.001 89.4126 166.359 88.7713 166.359 88.0018C166.359 87.2323 167.001 86.5911 167.77 86.5911C168.54 86.6338 169.181 87.2323 169.181 88.0018Z" fill="white"/>
<path d="M182.263 92.0203C182.263 92.0203 176.193 83.7696 167.472 84.9238C158.751 86.0781 157.725 90.2248 157.725 90.2248L158.067 77.9128L163.881 78.3403L186.111 83.1711L182.263 92.0203Z" fill="#F7E2D0"/>
<path d="M181.409 91.0799C179.87 89.7119 178.288 88.5577 176.621 87.5744C174.954 86.5912 173.158 85.8644 171.32 85.4797C170.38 85.3087 169.482 85.2232 168.541 85.2232C167.601 85.2232 166.66 85.3514 165.72 85.5652C163.839 85.9927 162.001 86.7194 160.205 87.6599C161.616 86.1637 163.369 85.0094 165.378 84.2827C166.361 83.9407 167.43 83.7269 168.499 83.6414C169.567 83.5559 170.636 83.6414 171.705 83.8552C173.8 84.2827 175.766 85.2232 177.433 86.5057C179.015 87.7454 180.469 89.2844 181.409 91.0799Z" fill="#2D2825"/>
<path d="M202.355 89.2417C202.355 93.0892 205.519 96.1672 209.366 96.1672C213.257 96.1672 216.377 93.0464 216.377 89.2417C216.377 85.3942 213.257 82.3162 209.366 82.3162C205.519 82.3162 202.355 85.3942 202.355 89.2417Z" fill="#A17C4C"/>
<path d="M204.152 89.2416C204.152 91.9349 206.333 94.0724 208.983 94.0724C211.676 94.0724 213.814 91.8921 213.814 89.2416C213.814 86.5911 211.634 84.4109 208.983 84.4109C206.333 84.4109 204.152 86.5484 204.152 89.2416Z" fill="#2A1D01"/>
<path d="M204.238 88.0018C204.238 88.7713 204.88 89.4126 205.649 89.4126C206.419 89.4126 207.06 88.7713 207.06 88.0018C207.06 87.2323 206.419 86.5911 205.649 86.5911C204.837 86.6338 204.238 87.2323 204.238 88.0018Z" fill="white"/>
<path d="M197.996 92.0203C197.996 92.0203 204.066 83.7696 212.787 84.9238C221.508 86.0781 222.534 90.2248 222.534 90.2248L222.192 77.9128L216.378 78.3403L194.148 83.1711L197.996 92.0203Z" fill="#F7E2D0"/>
<path d="M198.809 91.0799C199.792 89.2844 201.203 87.7454 202.87 86.4629C204.537 85.2231 206.461 84.2399 208.598 83.8124C209.667 83.5986 210.736 83.5559 211.805 83.5986C212.873 83.6841 213.942 83.8979 214.925 84.2399C216.892 84.9666 218.687 86.1209 220.098 87.6171C218.26 86.7194 216.422 85.9499 214.583 85.5224C213.643 85.3514 212.702 85.2231 211.762 85.1804C210.821 85.1804 209.881 85.2659 208.983 85.4369C207.145 85.7789 205.349 86.5484 203.682 87.5316C201.929 88.5149 200.348 89.7119 198.809 91.0799Z" fill="#2D2825"/>
</g>
</g>
<defs>
<linearGradient id="paint0_linear_1607_4663" x1="100.459" y1="220.407" x2="94.4312" y2="151.51" gradientUnits="userSpaceOnUse">
<stop stop-color="#F4D9A3"/>
<stop offset="0.2132" stop-color="#F4D9A3"/>
<stop offset="0.4495" stop-color="#F3D8A2"/>
<stop offset="1" stop-color="#DBC494"/>
</linearGradient>
<linearGradient id="paint1_linear_1607_4663" x1="276.818" y1="230.184" x2="283.955" y2="148.613" gradientUnits="userSpaceOnUse">
<stop offset="0.6251" stop-color="#ECD2C2"/>
<stop offset="1" stop-color="#CEB6AB"/>
</linearGradient>
<radialGradient id="paint2_radial_1607_4663" cx="0" cy="0" r="1" gradientUnits="userSpaceOnUse" gradientTransform="translate(215.941 103.738) scale(7.92251 7.92252)">
<stop stop-color="#F1C3A9"/>
<stop offset="1" stop-color="#F7E2D0"/>
</radialGradient>
<radialGradient id="paint3_radial_1607_4663" cx="0" cy="0" r="1" gradientUnits="userSpaceOnUse" gradientTransform="translate(165.407 103.738) scale(7.92251 7.92252)">
<stop stop-color="#F1C3A9"/>
<stop offset="1" stop-color="#F7E2D0"/>
</radialGradient>
<clipPath id="clip0_1607_4663">
<rect width="380" height="213.75" fill="white" transform="translate(0 0.750244)"/>
</clipPath>
<clipPath id="clip1_1607_4663">
<rect width="213.75" height="213.75" fill="white" transform="translate(83.125 0.749023)"/>
</clipPath>
</defs>
</svg>
