<svg width="380" height="215" viewBox="0 0 380 215" fill="none" xmlns="http://www.w3.org/2000/svg">
<g clip-path="url(#clip0_1607_4893)">
<rect width="380" height="213.75" transform="translate(0 0.500488)" fill="#004152"/>
<g clip-path="url(#clip1_1607_4893)">
<path d="M250.888 214.25L225.751 155.939C225.751 155.939 224.425 150.125 215.063 147.004C205.744 143.884 200.443 140.378 200.443 133.752C200.443 127.126 200.443 116.267 200.443 116.267H189.712H178.982C178.982 116.267 178.982 127.083 178.982 133.752C178.982 140.378 173.681 143.884 164.362 147.004C155.042 150.125 153.674 155.939 153.674 155.939L128.537 214.25H143.671L162.865 177.485L164.704 214.25H189.712H214.721L216.559 177.485L235.754 214.25H250.888Z" fill="url(#paint0_linear_1607_4893)"/>
<path d="M216.689 214.25C218.014 202.793 219.681 187.617 219.681 187.617L225.367 197.107C225.367 197.107 237.08 185.907 241.526 187.959L224.426 149.056C224.213 148.586 223.828 148.244 223.358 148.03L213.953 145.123C213.953 145.123 207.455 162.822 189.713 162.822C171.972 162.822 165.688 145.123 165.688 145.123L156.069 148.03C155.599 148.201 155.214 148.586 155 149.056L137.9 187.959C142.346 185.864 154.06 197.107 154.06 197.107L159.746 187.617C159.746 187.617 161.37 202.793 162.695 214.25" fill="#542F82"/>
<path d="M230.24 65.993C230.24 98.3548 218.74 124.774 189.242 124.774C159.745 124.774 148.801 98.0128 148.801 65.651C148.801 33.2893 176.246 26.7485 189.713 26.7485C203.179 26.7485 230.24 33.6313 230.24 65.993Z" fill="#FEDEC8"/>
<path d="M171.629 104.511C177.186 107.888 183.171 109.983 189.199 109.897C195.27 109.897 201.084 107.546 206.898 104.511C204.76 107.033 202.11 109.085 199.074 110.581C196.082 112.12 192.662 112.932 189.199 112.975C185.779 112.975 182.316 112.206 179.281 110.709C176.289 109.299 173.553 107.204 171.629 104.511Z" fill="#C42C76"/>
<path d="M150.724 86.2565C150.724 86.2565 155.982 54.7497 171.843 49.919C190.653 44.2332 206.684 48.8502 211.771 50.9877C219.808 54.365 228.444 85.4015 228.444 85.4015C228.444 85.4015 232.676 59.1957 230.154 51.2015C227.631 43.1645 221.262 35.3412 221.262 35.3412C221.262 35.3412 219.167 26.4492 211.13 24.3545C203.093 22.2597 197.621 17.8137 197.621 17.8137V19.9085L183.684 17.3862L184.539 19.9085L167.653 21.4047L169.748 23.927L158.334 27.347L160.856 28.6295L149.442 35.384H154.101L148.672 45.6867L147.347 47.4395L149.869 48.2945L146.064 58.8537H149.442L147.005 69.4557L146.919 69.8405L149.014 69.413L150.724 86.2565Z" fill="#EDC866"/>
<path d="M212.412 51.2014L220.022 38.5474L211.557 48.2516C211.557 48.2516 181.162 40.6421 169.32 51.2014C169.32 51.2014 187.275 41.7109 212.412 51.2014Z" fill="#C6A956"/>
<path d="M210.703 49.919C210.703 49.919 218.313 54.7925 223.998 70.8237C223.998 70.8237 221.049 56.4597 211.558 48.209L210.703 49.919Z" fill="#C6A956"/>
<path d="M201.639 47.3968L189.584 41.9248L190.225 43.8058L179.238 41.0698L182.616 44.4471L175.006 43.5921L176.716 44.6608L167.653 46.1571L172.313 46.7983C172.313 46.7983 165.558 48.0808 163.635 50.3893C161.754 52.6978 155.598 68.5581 155.598 68.5581C155.598 68.5581 165.088 51.4581 169.748 50.1756C174.408 48.8931 201.639 47.3968 201.639 47.3968Z" fill="#C6A956"/>
<path d="M211.984 31.1517L206.299 27.3469L209.676 30.7242L205.315 29.8692L203.135 29.4417L203.306 31.5364L206.512 32.1777L198.262 32.8189L203.52 34.3152L201.639 37.2649H207.966L211.984 31.1517Z" fill="#EFE08A"/>
<path d="M221.048 44.447C220.62 45.0883 218.098 47.8243 218.953 51.2015C219.808 54.5788 222.33 60.2645 222.33 60.2645L221.475 51.8L223.57 53.2963L221.048 44.447Z" fill="#EFE08A"/>
<path d="M207.112 42.737C201.212 42.5232 190.439 38.0772 190.439 38.0772L199.502 39.9582L198.647 37.8635L203.948 38.5047C203.948 38.5047 196.339 34.7 197.194 34.9137C198.049 35.1275 206.471 36.41 206.471 36.41L207.112 42.737Z" fill="#EFE08A"/>
<path d="M160.471 49.2778C159.188 53.5101 155.17 66.5916 155.17 66.5916L156.666 58.7683C156.666 58.7683 156.025 58.1271 156.025 57.2721C156.025 56.4171 160.471 49.2778 160.471 49.2778Z" fill="#EFE08A"/>
<path d="M209.934 198.689C209.934 187.531 200.871 178.468 189.713 178.468C178.555 178.468 169.492 187.531 169.492 198.689C169.492 204.931 172.314 210.531 176.76 214.25H186.763H190.482H202.666C207.112 210.531 209.934 204.973 209.934 198.689Z" fill="#C42C76"/>
<path d="M197.877 196.552C196.509 193.217 195.441 190.011 197.279 189.84C197.279 189.84 194.842 186.035 190.14 189.241C185.437 192.448 184.197 207.966 178.127 207.196C178.127 207.196 186.634 208.479 192.277 206.897C197.792 205.358 199.288 199.929 197.877 196.552ZM192.705 192.619C191.85 192.619 191.166 191.935 191.166 191.08C191.166 190.225 191.85 189.541 192.705 189.541C193.56 189.541 194.244 190.225 194.244 191.08C194.244 191.935 193.56 192.619 192.705 192.619Z" fill="white"/>
<path d="M180.05 87.368C180.05 91.7713 176.416 95.3623 171.97 95.3623C167.482 95.3623 163.891 91.7713 163.891 87.368C163.891 82.9648 167.524 79.3738 171.97 79.3738C176.459 79.3738 180.05 82.9648 180.05 87.368Z" fill="#77CCF2"/>
<path d="M177.999 87.3681C177.999 90.4461 175.477 92.9683 172.399 92.9683C169.321 92.9683 166.799 90.4461 166.799 87.3681C166.799 84.2901 169.321 81.7678 172.399 81.7678C175.477 81.8106 177.999 84.2901 177.999 87.3681Z" fill="#2A1D01"/>
<path d="M170.048 84.5037C170.048 85.4014 169.321 86.1282 168.423 86.1282C167.526 86.1282 166.799 85.4014 166.799 84.5037C166.799 83.6059 167.526 82.8792 168.423 82.8792C169.321 82.8792 170.048 83.6059 170.048 84.5037Z" fill="white"/>
<path d="M199.887 87.368C199.887 91.7713 203.52 95.3623 207.966 95.3623C212.455 95.3623 216.046 91.7713 216.046 87.368C216.046 82.9648 212.412 79.3738 207.966 79.3738C203.52 79.3738 199.887 82.9648 199.887 87.368Z" fill="#77CCF2"/>
<path d="M201.939 87.3681C201.939 90.4461 204.462 92.9683 207.54 92.9683C210.618 92.9683 213.14 90.4461 213.14 87.3681C213.14 84.2901 210.618 81.7678 207.54 81.7678C204.462 81.8106 201.939 84.2901 201.939 87.3681Z" fill="#2A1D01"/>
<path d="M202.281 84.5037C202.281 85.4014 203.008 86.1282 203.906 86.1282C204.804 86.1282 205.53 85.4014 205.53 84.5037C205.53 83.6059 204.804 82.8792 203.906 82.8792C203.008 82.8792 202.281 83.6059 202.281 84.5037Z" fill="white"/>
</g>
</g>
<defs>
<linearGradient id="paint0_linear_1607_4893" x1="189.714" y1="214.25" x2="189.714" y2="116.286" gradientUnits="userSpaceOnUse">
<stop stop-color="#FEDEC8"/>
<stop offset="1" stop-color="#EACDBA"/>
</linearGradient>
<clipPath id="clip0_1607_4893">
<rect width="380" height="213.75" fill="white" transform="translate(0 0.500488)"/>
</clipPath>
<clipPath id="clip1_1607_4893">
<rect width="192.375" height="213.75" fill="white" transform="translate(94.209 0.5)"/>
</clipPath>
</defs>
</svg>
