<svg width="380" height="214" viewBox="0 0 380 214" fill="none" xmlns="http://www.w3.org/2000/svg">
<g clip-path="url(#clip0_1607_5144)">
<rect width="380" height="213.75" transform="translate(0 0.250488)" fill="#004152"/>
<g clip-path="url(#clip1_1607_5144)">
<path d="M176.376 160.014C176.376 160.014 172.842 148.509 174.256 147.606C179.949 144.033 201.86 144.74 203.706 147.606C204.452 148.745 205.198 158.169 205.198 158.169L179.674 170.263L176.376 160.014Z" fill="#74090A"/>
<path d="M224.242 163.077C224.242 163.077 224.242 163.077 215.25 160.093C206.258 157.109 200.093 151.69 200.093 145.289C200.093 138.928 200.093 128.483 200.093 128.483H189.295H189.02H178.222C178.222 128.483 178.222 138.889 178.222 145.289C178.222 151.69 172.96 154.988 163.968 157.972C154.976 160.957 154.347 162.252 154.347 162.252L134.479 214.242H149.832L157.803 191.153C157.803 191.153 161.887 197.867 164.832 214.242H188.981H189.256H213.404C216.349 197.867 218.863 191.153 218.863 191.153L226.834 214.242H243.797L224.242 163.077Z" fill="#EFD6C2"/>
<path d="M225.105 159.818C223.574 159.033 205.354 152.279 205.354 152.279L189.098 171.637L172.409 152.279C172.409 152.279 154.229 159.033 152.658 159.818C151.52 160.407 140.132 195.511 132.357 214.281H151.991L157.724 198.849C157.724 198.849 158.273 201.598 159.177 214.281H188.666H189.098H218.194C219.097 201.598 219.647 198.849 219.647 198.849L224.202 214.281H245.406C237.631 195.511 226.283 160.368 225.105 159.818Z" fill="#CE181E"/>
<path d="M229.895 80.8528C229.895 111.991 216.073 137.475 189.215 137.475C162.396 137.475 147.475 111.716 147.475 80.578C147.475 49.4395 162.828 46.2982 189.647 46.2982C216.505 46.2589 229.895 49.7144 229.895 80.8528Z" fill="#F7E2D0"/>
<path d="M188.941 159.347C182.305 159.347 176.455 156.873 173.156 153.182V172.344H204.491V153.496C201.153 157.03 195.42 159.347 188.941 159.347Z" fill="white"/>
<path d="M204.491 157.54C201.153 161.074 195.42 163.43 188.941 163.43C182.305 163.43 176.455 160.957 173.156 157.266" stroke="#E6E7E8" stroke-miterlimit="10"/>
<path d="M170.25 214.281L164.478 214.163L158.156 157.619L164.086 155.381L170.25 214.281Z" fill="#930D10"/>
<path d="M180.813 214.281L175.001 214.163L170.25 157.619L176.179 155.381L180.813 214.281Z" fill="#930D10"/>
<path d="M205.551 214.281L211.362 214.163L217.684 156.912L211.833 154.674L205.551 214.281Z" fill="#930D10"/>
<path d="M194.242 214.281L200.054 214.163L204.805 157.619L198.404 161.389L194.242 214.281Z" fill="#930D10"/>
<path d="M189.097 214.281H186.113L182.814 167.789L188.901 171.637L189.097 214.281Z" fill="#930D10"/>
<path d="M245.406 214.281H239.594L222.984 163.038L223.927 160.486L224.791 159.7C224.791 159.7 225.026 159.739 225.105 159.818C226.283 160.368 237.631 195.511 245.406 214.281Z" fill="#930D10"/>
<path d="M233.901 214.281H228.05L219.922 189.857L220.746 175.289L233.901 214.281Z" fill="#930D10"/>
<path d="M216.898 214.281L219.961 194.294L219.647 198.849L218.194 214.281H216.898Z" fill="#930D10"/>
<path d="M173.902 155.459L154.504 162.096C154.504 162.096 155.368 164.726 155.76 166.925L176.493 160.289L173.902 155.459Z" fill="#930D10"/>
<path d="M155.76 167.122C155.76 167.043 155.721 166.965 155.721 166.965C155.76 167.004 155.76 167.082 155.76 167.122Z" fill="#930D10"/>
<path d="M175.983 166.14L156.311 171.087L156.9 176.467L178.143 171.166L175.983 166.14Z" fill="#930D10"/>
<path d="M188.822 187.658L157.605 192.449L157.92 197.789L188.783 194.059L188.822 187.658Z" fill="#930D10"/>
<path d="M188.901 199.242L158.312 203.483L158.784 208.823L188.783 205.681L188.901 199.242Z" fill="#930D10"/>
<path d="M222.16 166.965C222.16 167.004 222.16 167.043 222.121 167.122C222.121 167.082 222.121 167.004 222.16 166.965Z" fill="#930D10"/>
<path d="M189.02 176.192L188.902 176.232L188.823 176.192V176.232L157.41 181.533L157.685 186.912L188.902 182.711L220.158 186.912L220.433 181.533L189.02 176.232V176.192Z" fill="#930D10"/>
<path d="M223.378 162.096L203.98 155.459L201.389 160.289L222.121 166.925C222.475 164.726 223.378 162.096 223.378 162.096Z" fill="#930D10"/>
<path d="M199.738 171.166L220.942 176.467L221.571 171.087L201.898 166.14L199.738 171.166Z" fill="#930D10"/>
<path d="M189.02 187.658L189.059 194.059L219.962 197.789L219.726 192.567L189.02 187.658Z" fill="#930D10"/>
<path d="M189.098 205.681L218.234 208.744L218.941 203.404L188.941 199.242L189.098 205.681Z" fill="#930D10"/>
<path d="M188.941 211.493L159.059 213.339C159.098 213.653 159.098 213.967 159.137 214.281H188.626H189.058H218.155C218.194 213.967 218.194 213.613 218.233 213.299L188.941 211.415V211.493Z" fill="#930D10"/>
<path d="M226.912 104.334C226.912 104.334 226.912 74.7271 221.062 69.5439C214.661 63.8503 194.635 62.3189 188.706 62.633C182.737 62.9471 163.889 63.4183 157.45 67.6591C151.01 71.8999 150.146 102.096 150.146 102.096C150.146 102.096 141.979 72.7638 148.222 54.5441C154.269 36.8348 211.598 33.1437 225.028 51.7169C234.766 65.2639 226.912 104.334 226.912 104.334Z" fill="#EDC866"/>
<path d="M228.717 168.614C224.633 173.404 220.55 179.569 220.55 179.569L220.039 191.663L231.78 177.135C230.602 173.993 229.581 171.088 228.717 168.614Z" fill="#930D10"/>
<path d="M220.039 190.25L220.353 191.192L224.398 186.166L221.61 177.92C220.903 178.941 220.51 179.569 220.51 179.569L220.039 190.25Z" fill="#540000"/>
<path d="M225.852 172.069L228.679 180.826L231.624 177.174C230.524 174.033 229.503 171.127 228.6 168.653C227.697 169.753 226.755 170.931 225.852 172.069Z" fill="#540000"/>
<path d="M220 200.027C220 200.027 230.916 185.538 234.018 183.731L236.453 190.603L222.12 207.252L220 200.027Z" fill="#930D10"/>
<path d="M224.712 204.229L228.874 199.399L226.361 191.899C224.869 193.744 223.455 195.551 222.316 197.004L224.712 204.229Z" fill="#540000"/>
<path d="M234.019 183.731C233.273 184.163 232.095 185.341 230.682 186.834L233.155 194.451L236.454 190.603L236.415 190.525C235.629 188.247 234.805 185.97 234.019 183.731Z" fill="#540000"/>
<path d="M223.928 213.142C223.928 213.142 235.826 199.163 238.928 197.357C238.928 197.357 241.441 204.032 241.401 204.032C240.969 204.229 230.917 214.281 230.917 214.281H224.281L223.928 213.142Z" fill="#930D10"/>
<path d="M228.05 214.242H230.878C230.878 214.242 231.82 213.299 233.116 212.003L230.838 205.25C229.307 206.938 227.815 208.626 226.637 210.001L228.05 214.242Z" fill="#540000"/>
<path d="M237.475 207.723C239.478 205.76 241.205 204.111 241.362 203.993C240.538 201.833 239.713 199.595 238.889 197.357C238.103 197.828 236.729 199.045 235.158 200.655L237.475 207.723Z" fill="#540000"/>
<path d="M222.199 166.965L222.16 167.161C222.16 167.082 222.16 167.043 222.199 166.965Z" fill="#930D10"/>
<path d="M223.495 164.609C223.102 163.666 225.301 159.897 225.144 159.818C225.105 159.818 225.105 159.779 225.066 159.779C224.163 160.407 222.945 162.174 222.199 166.965C222.199 166.925 223.259 164.883 223.495 164.609Z" fill="#930D10"/>
<path d="M223.024 163.234L223.456 164.609C223.456 164.609 224.791 162.096 225.93 161.389C225.93 161.389 225.302 159.779 225.027 159.779C225.027 159.779 224.045 159.779 223.024 163.234Z" fill="#540000"/>
<path d="M132.436 214.281H138.247L154.896 163.038L153.954 160.486L153.09 159.7C153.09 159.7 152.854 159.739 152.776 159.818C151.558 160.368 140.21 195.511 132.436 214.281Z" fill="#930D10"/>
<path d="M143.941 214.281H149.792L157.92 189.857L157.096 175.289L143.941 214.281Z" fill="#930D10"/>
<path d="M149.123 168.614C153.207 173.404 157.291 179.569 157.291 179.569L157.801 191.663L146.061 177.135C147.199 173.993 148.22 171.088 149.123 168.614Z" fill="#930D10"/>
<path d="M157.763 190.25L157.449 191.192L153.404 186.166L156.192 177.92C156.899 178.941 157.292 179.569 157.292 179.569L157.763 190.25Z" fill="#540000"/>
<path d="M151.913 172.03L149.086 180.786L146.141 177.135C147.24 173.993 148.261 171.088 149.164 168.614C150.067 169.713 151.01 170.891 151.913 172.03Z" fill="#540000"/>
<path d="M157.488 199.556C157.488 199.556 146.611 185.341 143.823 183.731L141.389 190.603L154.975 206.388L157.488 199.556Z" fill="#930D10"/>
<path d="M153.129 204.229L148.967 199.399L151.48 191.899C152.972 193.744 154.386 195.551 155.524 197.004L153.129 204.229Z" fill="#540000"/>
<path d="M143.823 183.731C144.569 184.163 145.747 185.341 147.161 186.834L144.687 194.451L141.389 190.603L141.428 190.525C142.213 188.247 143.038 185.97 143.823 183.731Z" fill="#540000"/>
<path d="M152.895 211.925C152.895 211.925 141.468 198.849 138.916 197.357C138.916 197.357 136.403 204.032 136.442 204.032C136.874 204.229 146.926 214.281 146.926 214.281H151.991L152.895 211.925Z" fill="#930D10"/>
<path d="M149.792 214.242H146.965C146.965 214.242 146.022 213.299 144.727 212.003L147.004 205.25C148.535 206.938 150.028 208.626 151.206 210.001L149.792 214.242Z" fill="#540000"/>
<path d="M140.368 207.723C138.365 205.76 136.638 204.111 136.48 203.993C137.305 201.833 138.13 199.595 138.954 197.357C139.74 197.828 141.114 199.045 142.685 200.655L140.368 207.723Z" fill="#540000"/>
<path d="M155.643 166.965L155.682 167.161C155.682 167.082 155.682 167.043 155.643 166.965Z" fill="#930D10"/>
<path d="M154.347 164.609C154.739 163.666 152.54 159.897 152.698 159.818C152.737 159.818 152.737 159.779 152.776 159.779C153.679 160.407 154.896 162.174 155.642 166.965C155.642 166.925 154.582 164.883 154.347 164.609Z" fill="#930D10"/>
<path d="M154.818 163.234L154.386 164.609C154.386 164.609 153.051 162.096 151.912 161.389C151.912 161.389 152.54 159.779 152.815 159.779C152.815 159.779 153.797 159.779 154.818 163.234Z" fill="#540000"/>
<path d="M206.886 201.716L206.258 207.488L212.03 208.077L212.619 202.54L206.886 201.716Z" fill="#540000"/>
<path d="M205.747 212.514L205.551 214.281L211.362 214.163L211.48 212.867L205.747 212.514Z" fill="#540000"/>
<path d="M208.025 190.682L207.436 196.297L213.247 196.964L213.836 191.624L208.025 190.682Z" fill="#540000"/>
<path d="M209.202 179.608L208.613 185.381L214.464 186.166L215.053 180.629L209.202 179.608Z" fill="#540000"/>
<path d="M211.479 158.051L210.93 163.352L216.78 165.237L217.33 160.054L211.479 158.051Z" fill="#540000"/>
<path d="M210.419 168.26L209.83 173.679L215.681 175.132L216.27 169.752L210.419 168.26Z" fill="#540000"/>
<path d="M194.871 206.271L200.683 206.899L201.154 200.93L195.382 200.145L194.871 206.271Z" fill="#540000"/>
<path d="M195.773 194.883L201.624 195.59L202.095 189.739L196.245 188.797L195.773 194.883Z" fill="#540000"/>
<path d="M203.037 178.588L197.147 177.606L196.637 183.771L202.527 184.556L203.037 178.588Z" fill="#540000"/>
<path d="M201.389 160.289L204.491 161.271L204.805 157.619L201.899 159.347L201.389 160.289Z" fill="#540000"/>
<path d="M204.06 166.69L201.9 166.14L199.74 171.166L203.588 172.108L204.06 166.69Z" fill="#540000"/>
<path d="M200.211 212.16L194.439 211.768L194.242 214.281L200.054 214.163L200.211 212.16Z" fill="#540000"/>
<path d="M189.138 195.943L191.219 172.108L188.98 171.637L189.138 195.943Z" fill="#930D10"/>
<path d="M188.98 176.192L189.02 182.75L190.237 182.907L190.787 176.546L188.98 176.232V176.192Z" fill="#540000"/>
<path d="M189.137 194.098H189.333L189.883 187.776L189.098 187.658L189.137 194.098Z" fill="#540000"/>
<path d="M189.097 211.454L188.94 211.415V211.493L185.916 211.689L186.112 214.281H188.665H189.097V211.454Z" fill="#540000"/>
<path d="M188.901 199.242L185.092 199.752L185.524 206.035L189.097 205.682L188.901 199.242Z" fill="#540000"/>
<path d="M188.823 176.192V176.232L183.482 177.135L183.914 183.378L188.901 182.711L188.94 182.75L188.901 176.232L188.823 176.192Z" fill="#540000"/>
<path d="M184.7 194.569L189.058 194.059L189.019 187.658L184.268 188.326L184.7 194.569Z" fill="#540000"/>
<path d="M189.098 214.281L188.98 171.637" stroke="#360000" stroke-width="2" stroke-miterlimit="10"/>
<path d="M179.714 200.498L173.941 201.323L174.413 207.174L180.224 206.585L179.714 200.498Z" fill="#540000"/>
<path d="M175.001 214.163L180.812 214.281L180.616 212.003L174.844 212.357L175.001 214.163Z" fill="#540000"/>
<path d="M178.849 189.189L172.998 190.093L173.469 195.904L179.32 195.197L178.849 189.189Z" fill="#540000"/>
<path d="M172.567 184.91L178.457 184.124L177.986 178.038L172.057 179.059L172.567 184.91Z" fill="#540000"/>
<path d="M170.25 157.619L170.643 162.174L176.493 160.289L174.255 156.127L170.25 157.619Z" fill="#540000"/>
<path d="M175.983 166.14L171.074 167.357L171.545 172.815L177.435 171.323L177.278 169.163L175.983 166.14Z" fill="#540000"/>
<path d="M161.965 191.781L162.593 197.2L168.405 196.493L167.816 190.878L161.965 191.781Z" fill="#540000"/>
<path d="M160.748 180.943L161.376 186.401L167.266 185.616L166.638 179.962L160.748 180.943Z" fill="#540000"/>
<path d="M168.993 201.99L163.182 202.815L163.81 208.273L169.582 207.684L168.993 201.99Z" fill="#540000"/>
<path d="M159.059 165.865L164.989 163.98L164.439 158.679L158.51 160.721L159.059 165.865Z" fill="#540000"/>
<path d="M170.094 212.632L164.361 212.985L164.479 214.124L170.251 214.242L170.094 212.632Z" fill="#540000"/>
<path d="M159.57 170.263L160.159 175.642L166.049 174.15L165.5 168.771L159.57 170.263Z" fill="#540000"/>
<path d="M192.474 180.512C193.06 180.512 193.534 180.037 193.534 179.451C193.534 178.866 193.06 178.391 192.474 178.391C191.889 178.391 191.414 178.866 191.414 179.451C191.414 180.037 191.889 180.512 192.474 180.512Z" fill="#360000"/>
<path d="M192.474 186.834C193.06 186.834 193.534 186.359 193.534 185.773C193.534 185.188 193.06 184.713 192.474 184.713C191.889 184.713 191.414 185.188 191.414 185.773C191.414 186.359 191.889 186.834 192.474 186.834Z" fill="#360000"/>
<path d="M192.474 193.156C193.06 193.156 193.534 192.681 193.534 192.095C193.534 191.51 193.06 191.035 192.474 191.035C191.889 191.035 191.414 191.51 191.414 192.095C191.414 192.681 191.889 193.156 192.474 193.156Z" fill="#360000"/>
<path d="M192.474 199.438C193.06 199.438 193.534 198.963 193.534 198.378C193.534 197.792 193.06 197.318 192.474 197.318C191.889 197.318 191.414 197.792 191.414 198.378C191.414 198.963 191.889 199.438 192.474 199.438Z" fill="#360000"/>
<path d="M192.474 205.76C193.06 205.76 193.534 205.285 193.534 204.7C193.534 204.114 193.06 203.64 192.474 203.64C191.889 203.64 191.414 204.114 191.414 204.7C191.414 205.285 191.889 205.76 192.474 205.76Z" fill="#360000"/>
<path d="M192.474 212.043C193.06 212.043 193.534 211.568 193.534 210.983C193.534 210.397 193.06 209.922 192.474 209.922C191.889 209.922 191.414 210.397 191.414 210.983C191.414 211.568 191.889 212.043 192.474 212.043Z" fill="#360000"/>
<path d="M152.658 159.818C152.658 159.818 157.449 158.13 157.724 198.457" stroke="#74090A" stroke-miterlimit="10"/>
<path d="M225.105 159.818C225.105 159.818 220.353 159.465 219.646 199.006" stroke="#74090A" stroke-miterlimit="10"/>
<path d="M208.85 63.222C208.85 63.222 209.36 57.2535 210.263 53.209C212.619 42.45 216.546 39.6228 219.216 39.505C223.535 39.3086 224.399 42.9604 224.399 42.9604C224.399 42.9604 226.559 43.628 228.64 47.7902C230.721 51.9525 231.546 64.2037 231.546 64.2037C231.546 64.2037 228.561 54.2692 226.48 53.1698C224.399 52.0703 219.726 54.7012 216.821 58.1959C213.954 61.6514 212.501 64.2037 212.501 64.2037L213.954 57.6462L208.85 63.222Z" fill="#F9D482"/>
<path d="M167.579 64.4394C167.579 64.4394 162.161 57.7641 156.86 60.3164C151.559 62.8688 157.213 74.6488 154.661 77.9864C154.661 77.9864 158.116 73.1959 158.47 68.8373C158.823 64.4787 160.276 63.0651 162.121 64.4002C163.967 65.7745 167.579 64.4394 167.579 64.4394Z" fill="#F9D482"/>
<path d="M209.399 42.1751C208.613 40.4474 203.351 25.2905 188.312 26.1936C188.312 26.1936 183.954 23.6805 176.611 26.1543C169.307 28.5889 167.619 32.4763 167.619 32.4763C167.619 32.4763 162.357 30.7093 156.271 33.7328C151.127 36.2851 143.431 40.4474 144.569 56.4682C144.883 61.1409 141.389 63.6933 141.389 63.6933C141.389 63.6933 146.572 65.1069 147.985 58.5886C148.732 55.1331 152.423 52.3452 154.307 51.1279C158.548 48.4185 163.025 48.6934 166.048 52.6201C169.032 56.5467 171.545 63.5755 171.545 63.5755C171.545 63.5755 177.593 62.8687 186.859 62.8687C193.456 71.3503 206.454 64.0074 206.454 64.0074C206.454 64.0074 210.223 43.9029 209.399 42.1751Z" fill="#F9D482"/>
<path d="M201.348 59.9236C201.348 58.5493 201.27 57.0964 201.152 55.6828C201.034 54.2692 200.877 52.8164 200.641 51.4028C200.209 48.5756 199.542 45.7484 198.678 43.039C198.246 41.6646 197.736 40.3296 197.147 38.9945C196.558 37.6987 195.89 36.4029 195.183 35.1464C194.437 33.9291 193.613 32.7511 192.67 31.6124C191.728 30.5129 190.707 29.492 189.607 28.5496C190.785 29.4134 191.885 30.3558 192.906 31.416C193.927 32.4762 194.83 33.615 195.694 34.8322C196.518 36.0495 197.304 37.306 197.971 38.6018C198.639 39.8976 199.267 41.2327 199.817 42.607C200.916 45.3557 201.78 48.1829 202.408 51.0494C202.722 52.5022 202.997 53.9551 203.233 55.408C203.469 56.8608 203.626 58.3137 203.743 59.8451C203.783 60.5126 203.272 61.0624 202.644 61.1016C201.976 61.1409 201.427 60.6304 201.387 60.0022C201.348 60.0022 201.348 60.0022 201.348 59.9236Z" fill="#FFE7B6"/>
<path d="M177.474 56.9002C175.786 52.8165 174.254 48.8505 172.291 45.3165C171.309 43.5495 170.288 41.8611 169.11 40.4082C168.521 39.6621 167.854 39.0339 167.108 38.4841C166.362 37.9344 165.537 37.5417 164.673 37.2669C164.241 37.1883 163.809 37.0313 163.338 36.992C162.867 36.9135 162.396 36.9135 161.925 36.9135C160.943 36.9527 159.922 37.0313 158.94 37.2669C156.977 37.6203 155.092 38.4056 153.404 39.5443C150.027 41.8218 147.553 45.5521 146.375 49.6359C146.336 49.7537 146.218 49.7929 146.139 49.7537C146.061 49.7144 145.982 49.6359 145.982 49.5573C146.297 47.3584 147.003 45.238 148.024 43.2747C149.045 41.3113 150.459 39.4658 152.226 37.9737C153.993 36.5208 156.113 35.3821 158.312 34.7145C159.451 34.3611 160.55 34.1648 161.728 34.047C162.357 34.0077 162.946 33.9292 163.574 34.0077C164.202 34.0077 164.83 34.1255 165.419 34.2433C166.637 34.5182 167.854 34.9894 168.953 35.5784C170.053 36.2067 171.035 36.9527 171.938 37.8166C172.802 38.6805 173.587 39.6229 174.215 40.6045C174.843 41.5862 175.393 42.6464 175.825 43.7066C176.728 45.827 177.278 48.0259 177.631 50.2641C177.945 52.5023 178.103 54.7013 177.828 56.9787C177.828 57.0965 177.71 57.1751 177.592 57.1751C177.553 57.018 177.514 56.9395 177.474 56.9002Z" fill="#FFE7B6"/>
<path d="M209.83 60.1984C209.83 59.2168 210.026 58.2744 210.262 57.3712C210.498 56.4681 210.812 55.565 211.165 54.7404C211.519 53.8765 211.99 53.0519 212.539 52.3058C213.089 51.5598 213.639 50.8137 214.228 50.0676C214.817 49.3216 215.406 48.6148 216.034 47.908C216.662 47.2404 217.369 46.5729 218.076 45.9839C218.822 45.3949 219.607 44.8452 220.432 44.4132C221.257 43.9813 222.199 43.6672 223.102 43.5886C223.181 43.5886 223.22 43.6279 223.22 43.7064C223.22 43.7457 223.181 43.8242 223.141 43.8242C221.414 44.374 220.039 45.552 218.861 46.8478C218.272 47.5153 217.723 48.1828 217.212 48.9289C216.702 49.6357 216.231 50.3818 215.759 51.1671C215.288 51.9132 214.895 52.7378 214.542 53.5231C214.149 54.3084 213.717 55.0938 213.286 55.8791C212.343 57.4105 211.361 58.9026 210.066 60.3555C210.026 60.3948 209.948 60.3948 209.909 60.3555C209.83 60.277 209.83 60.2377 209.83 60.1984Z" fill="#FFE7B6"/>
<path d="M182.776 62.6724C182.815 62.1619 182.815 61.5336 182.815 60.9446C182.815 60.3556 182.815 59.7666 182.776 59.1776C182.736 57.9996 182.658 56.8216 182.579 55.6436C182.383 53.2876 182.029 50.9316 181.519 48.6542C181.244 47.5154 180.969 46.3374 180.577 45.238C180.223 44.0992 179.791 42.9998 179.281 41.9396C178.299 39.7799 176.964 37.738 175.236 36.0496C177.2 37.5024 178.81 39.3872 180.145 41.4684C180.812 42.4893 181.401 43.5888 181.951 44.6882C182.501 45.7877 182.972 46.9264 183.404 48.1044C184.268 50.4212 184.935 52.8164 185.485 55.2117C185.76 56.429 185.995 57.6462 186.192 58.8635C186.31 59.4918 186.388 60.0808 186.467 60.709C186.545 61.3373 186.624 61.9263 186.702 62.5938L182.776 62.6724Z" fill="#EDC866"/>
<path d="M164.478 62.633C163.143 62.3582 161.847 62.1226 160.59 62.0833C159.962 62.0833 159.334 62.0833 158.705 62.1226C158.391 62.1618 158.077 62.2011 157.842 62.2796C157.567 62.3582 157.331 62.5152 157.135 62.6723C156.703 63.0257 156.389 63.5754 156.192 64.1644C155.996 64.7534 155.878 65.421 155.839 66.0885C155.721 67.4236 155.8 68.7586 155.878 70.0937H155.76C155.486 68.7586 155.289 67.4236 155.25 66.0492C155.25 65.3424 155.289 64.6749 155.446 63.9681C155.603 63.2613 155.918 62.5545 156.467 61.9655C156.742 61.6906 157.096 61.455 157.449 61.298C157.842 61.1409 158.156 61.0231 158.548 60.9446C159.255 60.7875 160.001 60.7875 160.708 60.866C161.415 60.9838 162.122 61.1409 162.75 61.4158C163.417 61.6906 164.006 62.0048 164.556 62.476L164.478 62.633Z" fill="#FFE7B6"/>
<path d="M178.849 98.4836C178.849 102.764 175.354 106.219 171.035 106.219C166.715 106.219 163.221 102.764 163.221 98.4836C163.221 94.2035 166.715 90.748 171.035 90.748C175.315 90.748 178.849 94.2035 178.849 98.4836Z" fill="#4C9BBB"/>
<path d="M176.847 98.4835C176.847 101.468 174.413 103.902 171.429 103.902C168.444 103.902 166.01 101.468 166.01 98.4835C166.01 95.4992 168.444 93.0647 171.429 93.0647C174.413 93.0647 176.847 95.4992 176.847 98.4835Z" fill="#2A1D01"/>
<path d="M169.151 95.6564C169.151 96.5202 168.444 97.227 167.58 97.227C166.717 97.227 166.01 96.5202 166.01 95.6564C166.01 94.7925 166.717 94.0857 167.58 94.0857C168.444 94.125 169.151 94.8318 169.151 95.6564Z" fill="white"/>
<path d="M173.861 117.881C178.613 120.748 183.717 122.554 188.861 122.476C194.044 122.476 199.031 120.473 203.979 117.881C202.173 120.041 199.895 121.808 197.304 123.065C194.712 124.36 191.806 125.067 188.861 125.106C185.916 125.106 182.971 124.439 180.419 123.182C177.867 121.965 175.55 120.198 173.861 117.881Z" fill="#A38276"/>
<path d="M199.818 98.4836C199.818 102.764 203.313 106.219 207.632 106.219C211.952 106.219 215.446 102.764 215.446 98.4836C215.446 94.2035 211.952 90.748 207.632 90.748C203.313 90.748 199.818 94.2035 199.818 98.4836Z" fill="#4C9BBB"/>
<path d="M201.82 98.4835C201.82 101.468 204.255 103.902 207.239 103.902C210.223 103.902 212.658 101.468 212.658 98.4835C212.658 95.4992 210.223 93.0647 207.239 93.0647C204.255 93.0647 201.82 95.4992 201.82 98.4835Z" fill="#2A1D01"/>
<path d="M202.135 95.6564C202.135 96.5202 202.842 97.227 203.705 97.227C204.569 97.227 205.276 96.5202 205.276 95.6564C205.276 94.7925 204.569 94.0857 203.705 94.0857C202.842 94.125 202.135 94.8318 202.135 95.6564Z" fill="white"/>
<path d="M203.705 147.646C203.313 152.279 188.98 171.637 188.98 171.637L196.323 182.279C196.323 182.279 209.478 160.015 209.478 153.81L203.705 147.646Z" fill="#E01919"/>
<path d="M202.998 149.923C202.488 151.179 201.663 152.711 200.682 154.399L206.964 162.017C207.828 160.054 208.535 158.208 208.928 156.677L202.998 149.923Z" fill="#930D10"/>
<path d="M201.192 173.758L193.653 165.237C192.632 166.69 191.69 168.025 190.904 169.124L198.601 178.47C199.386 177.056 200.25 175.485 201.192 173.758Z" fill="#930D10"/>
<path d="M198.561 157.894C197.697 159.229 196.794 160.603 195.891 161.939L202.919 170.459C203.744 168.849 204.569 167.2 205.354 165.59L198.561 157.894Z" fill="#930D10"/>
<path d="M189.02 171.637L191.218 174.857C194.949 169.713 203.902 156.912 206.061 150.159L203.705 147.646C203.313 152.279 189.02 171.637 189.02 171.637Z" fill="#930D10"/>
<path d="M196.009 167.907L193.614 165.198C192.593 166.651 191.651 167.986 190.865 169.085L193.26 171.952C194.124 170.734 195.027 169.36 196.009 167.907Z" fill="#540000"/>
<path d="M198.522 157.894C197.658 159.229 196.755 160.603 195.852 161.939L198.208 164.726C199.111 163.352 200.014 161.899 200.878 160.486L198.522 157.894Z" fill="#540000"/>
<path d="M202.999 149.923C202.959 150.041 202.92 150.158 202.842 150.237C202.331 151.415 201.546 152.789 200.643 154.36L202.842 157.03C203.745 155.381 204.53 153.81 205.158 152.397L202.999 149.923Z" fill="#540000"/>
<path d="M196.362 182.279C196.362 182.279 209.516 160.014 209.516 153.81L208.417 152.632C208.142 153.496 207.749 154.556 207.2 155.774C205.668 159.229 197.029 173.601 193.613 178.352L196.362 182.279Z" fill="#930D10"/>
<path d="M198.6 178.391C199.346 177.056 200.249 175.446 201.192 173.719L198.6 170.774C197.658 172.305 196.715 173.797 195.891 175.054L198.6 178.391Z" fill="#540000"/>
<path d="M202.92 170.42C203.745 168.81 204.57 167.2 205.355 165.551L203.195 163.077C202.371 164.491 201.468 166.022 200.564 167.515L202.92 170.42Z" fill="#540000"/>
<path d="M207.004 162.017C207.868 160.054 208.575 158.208 208.967 156.677L207.514 155.028C207.397 155.263 207.318 155.499 207.2 155.774C206.847 156.598 206.101 158.012 205.119 159.74L207.004 162.017Z" fill="#540000"/>
<path d="M174.294 147.646C174.686 152.279 189.019 171.637 189.019 171.637L181.676 182.279C181.676 182.279 168.521 160.015 168.521 153.81L174.294 147.646Z" fill="#E01919"/>
<path d="M175.002 149.923C175.512 151.179 176.337 152.711 177.318 154.399L171.036 162.017C170.172 160.054 169.465 158.208 169.072 156.677L175.002 149.923Z" fill="#930D10"/>
<path d="M176.809 173.758L184.348 165.237C185.369 166.69 186.311 168.025 187.096 169.124L179.4 178.47C178.615 177.056 177.751 175.485 176.809 173.758Z" fill="#930D10"/>
<path d="M179.44 157.894C180.303 159.229 181.207 160.603 182.11 161.939L175.081 170.459C174.256 168.849 173.432 167.2 172.646 165.59L179.44 157.894Z" fill="#930D10"/>
<path d="M188.979 171.637L186.78 174.857C183.05 169.713 174.097 156.912 171.938 150.159L174.294 147.646C174.647 152.279 188.979 171.637 188.979 171.637Z" fill="#930D10"/>
<path d="M181.99 167.907L184.385 165.198C185.406 166.651 186.349 167.986 187.134 169.085L184.739 171.952C183.875 170.734 182.972 169.36 181.99 167.907Z" fill="#540000"/>
<path d="M179.477 157.894C180.341 159.229 181.244 160.603 182.147 161.939L179.791 164.726C178.888 163.352 177.985 161.899 177.121 160.486L179.477 157.894Z" fill="#540000"/>
<path d="M175.001 149.923C175.041 150.041 175.08 150.158 175.159 150.237C175.669 151.415 176.454 152.789 177.357 154.36L175.159 157.03C174.255 155.381 173.47 153.81 172.842 152.397L175.001 149.923Z" fill="#540000"/>
<path d="M181.637 182.279C181.637 182.279 168.482 160.014 168.482 153.81L169.582 152.632C169.857 153.496 170.249 154.556 170.799 155.774C172.331 159.229 180.969 173.601 184.385 178.352L181.637 182.279Z" fill="#930D10"/>
<path d="M179.398 178.391C178.652 177.056 177.749 175.446 176.807 173.719L179.398 170.774C180.341 172.305 181.283 173.797 182.108 175.054L179.398 178.391Z" fill="#540000"/>
<path d="M175.079 170.42C174.254 168.81 173.43 167.2 172.645 165.551L174.804 163.077C175.629 164.491 176.532 166.022 177.435 167.515L175.079 170.42Z" fill="#540000"/>
<path d="M170.995 162.017C170.131 160.054 169.424 158.208 169.031 156.677L170.484 155.028C170.602 155.263 170.68 155.499 170.798 155.774C171.152 156.598 171.898 158.012 172.879 159.74L170.995 162.017Z" fill="#540000"/>
<path d="M168.483 153.85C168.483 153.85 168.208 159.7 181.637 182.318L188.98 171.677L196.362 182.318C196.362 182.318 210.106 158.601 209.517 153.85" stroke="#540000" stroke-miterlimit="10"/>
</g>
</g>
<defs>
<clipPath id="clip0_1607_5144">
<rect width="380" height="213.75" fill="white" transform="translate(0 0.250488)"/>
</clipPath>
<clipPath id="clip1_1607_5144">
<rect width="196.333" height="196.333" fill="white" transform="translate(91.834 18.458)"/>
</clipPath>
</defs>
</svg>
