<?xml version="1.0" encoding="UTF-8" standalone="no"?>
<!-- Created with Inkscape (http://www.inkscape.org/) -->

<svg
   xmlns:dc="http://purl.org/dc/elements/1.1/"
   xmlns:cc="http://creativecommons.org/ns#"
   xmlns:rdf="http://www.w3.org/1999/02/22-rdf-syntax-ns#"
   xmlns:svg="http://www.w3.org/2000/svg"
   xmlns="http://www.w3.org/2000/svg"
   xmlns:sodipodi="http://sodipodi.sourceforge.net/DTD/sodipodi-0.dtd"
   xmlns:inkscape="http://www.inkscape.org/namespaces/inkscape"
   width="1000.0001"
   height="661.33978"
   id="svg6874"
   version="1.1"
   inkscape:version="0.48.5 r10040"
   sodipodi:docname="A.svg">
  <!-- <defs
     id="defs6876">
    <clipPath
       clipPathUnits="userSpaceOnUse"
       id="clipPath3045">
      <path
         inkscape:connector-curvature="0"
         d="m 629.291,779.528 128.3979,0 0,53.858 -128.3979,0 0,-53.858 z"
         id="path3047" />
    </clipPath>
    <clipPath
       clipPathUnits="userSpaceOnUse"
       id="clipPath3053">
      <path
         inkscape:connector-curvature="0"
         d="m 631.246,779.829 123.9813,0 0,53.5553 -123.9813,0 0,-53.5553 z"
         id="path3055" />
    </clipPath>
    <clipPath
       clipPathUnits="userSpaceOnUse"
       id="clipPath3095">
      <path
         inkscape:connector-curvature="0"
         d="m 693.0054,816.4487 3.9925,-1.8957 -0.0271,0.0679 c 0.1619,-1.4056 0.9369,-2.5793 1.995,-3.1294 l -0.0851,0.0264 -3.5578,1.733 0.0483,-0.0173 m 0,0 c -1.2042,0.4508 -2.1178,1.6792 -2.3213,3.1888"
         id="path3097" />
    </clipPath>
    <clipPath
       clipPathUnits="userSpaceOnUse"
       id="clipPath3155">
      <path
         inkscape:connector-curvature="0"
         d="m 703.3466,809.4182 c -1.2041,0.4509 -2.1175,1.6793 -2.3213,3.1888 m -0.0445,0.0264 3.9925,-1.8957 -0.0271,0.0678 c 0.162,-1.4055 0.9372,-2.5793 1.9953,-3.1294 l -0.0854,0.0265 -3.5575,1.7329 0.048,-0.0173"
         id="path3157" />
    </clipPath>
    <clipPath
       clipPathUnits="userSpaceOnUse"
       id="clipPath7497">
      <path
         inkscape:connector-curvature="0"
         d="m 1350.162,828.661 157.252,0 0,79.078 -157.252,0 0,-79.078 z"
         id="path7499" />
    </clipPath>
    <clipPath
       clipPathUnits="userSpaceOnUse"
       id="clipPath9488">
      <path
         inkscape:connector-curvature="0"
         d="m 256.297,350.904 0,-545.735 192.364,0 0,545.735"
         id="path9490" />
    </clipPath>
    <clipPath
       clipPathUnits="userSpaceOnUse"
       id="clipPath9496">
      <path
         inkscape:connector-curvature="0"
         d="m 290.071,334.008 0,0.73 -1.468,0 0,0.74 -1.469,0 0,0.73 -0.734,0 0,0.74 -0.734,0 0,0.73 -0.734,0 0,0.74 -0.734,0 0,1.46 -0.735,0 0,2.21 -0.734,0 0,5.87 0.734,0 0,1.47 0.735,0 0,1.47 2.202,0 0,-2.2 0.734,0 0,-2.21 0.735,0 0,-0.73 0.734,0 0,-0.73 0.734,0 0,-0.74 1.469,0 0,-0.73 5.139,0 0,0.73 1.468,0 0,0.74 0.735,0 0,0.73 0.734,0 0,0.73 0.734,0 0,1.47 0.734,0 0,2.94 2.203,0 0,-0.73 0.734,0 0,-1.47 0.734,0 0,-8.08 -0.734,0 0,-1.47 -0.734,0 0,-0.73 -0.734,0 0,-1.47 -0.734,0 0,-0.74 -1.469,0 0,-0.73 -0.734,0 0,-0.74 -2.203,0 0,-0.73 -6.608,0 z m 25.698,0 0,0.73 -2.203,0 0,0.74 -0.734,0 0,0.73 -1.469,0 0,0.74 -0.734,0 0,0.73 -0.734,0 0,1.47 -0.734,0 0,1.47 -0.734,0 0,8.08 0.734,0 0,1.47 0.734,0 0,0.73 1.468,0 0,-0.73 0.735,0 0,-2.94 0.734,0 0,-0.74 0.734,0 0,-0.73 0.734,0 0,-0.73 0.735,0 0,-0.74 0.734,0 0,-0.73 5.873,0 0,0.73 1.469,0 0,0.74 0.734,0 0,0.73 0.734,0 0,1.47 0.734,0 0,1.47 0.735,0 0,2.2 2.202,0 0,-1.47 0.735,0 0,-2.2 0.734,0 0,-5.14 -0.734,0 0,-2.21 -0.735,0 0,-1.46 -0.734,0 0,-0.74 -0.734,0 0,-0.73 -0.734,0 0,-0.74 -0.735,0 0,-0.73 -1.468,0 0,-0.74 -1.468,0 0,-0.73 -6.608,0 z m -11.013,-21.3 0,0.73 -2.937,0 0,0.74 -1.469,0 0,0.73 -0.734,0 0,0.74 -0.734,0 0,0.73 -0.734,0 0,0.73 -0.735,0 0,0.74 -0.734,0 0,1.47 -0.734,0 0,2.2 -0.734,0 0,4.41 0.734,0 0,2.2 0.734,0 0,1.47 0.734,0 0,0.74 1.469,0 0,-2.21 0.734,0 0,-2.2 0.734,0 0,-0.74 0.735,0 0,-0.73 0.734,0 0,-0.74 0.734,0 0,-0.73 2.203,0 0,-0.73 2.936,0 0,0.73 2.203,0 0,0.73 0.734,0 0,0.74 0.734,0 0,0.73 0.735,0 0,1.47 0.734,0 0,2.21 0.734,0 0,1.47 1.469,0 0,-0.74 0.734,0 0,-1.47 0.734,0 0,-3.67 0.734,0 0,-1.47 -0.734,0 0,-3.67 -0.734,0 0,-1.47 -0.734,0 0,-0.74 -0.735,0 0,-0.73 -0.734,0 0,-0.73 -0.734,0 0,-0.74 -0.734,0 0,-0.73 -1.469,0 0,-0.74 -3.671,0 0,-0.73 -2.202,0 z m -17.622,-11.02 0,0.73 0.735,0 0,1.47 1.468,0 0,-1.47 0.734,0 0,-0.73 0.735,0 0,0.73 0.734,0 0,0.74 1.468,0 0,-0.74 1.469,0 0,-4.4 -3.671,0 0,0.73 -0.735,0 0,-0.73 -2.202,0 0,3.67 -0.735,0 0,-3.67 -1.468,0 0,2.94 -0.734,0 0,0.73 -0.734,0 0,-3.67 -1.469,0 0,4.4 1.469,0 0,0.74 1.468,0 0,-0.74 0.734,0 0,-0.73 0.734,0 z m -30.837,-5.88 0,1.47 2.203,0 0,0.74 -2.203,0 0,4.4 0.735,0 0,0.74 1.468,0 0,-0.74 1.468,0 0,-5.87 -0.734,0 0,-0.74 -2.937,0 z m 5.14,2.21 0,0.73 -0.734,0 0,3.67 1.468,0 0,0.74 1.468,0 0,-0.74 0.735,0 0,-0.73 0.734,0 0,-3.67 -3.671,0 z m 4.405,0 0,4.4 1.469,0 0,0.74 1.468,0 0,-0.74 1.468,0 0,0.74 1.469,0 0,-0.74 0.734,0 0,-4.4 -1.468,0 0,3.67 -0.735,0 0,-0.73 -0.734,0 0,-2.94 -1.468,0 0,3.67 -0.734,0 0,-3.67 -1.469,0 z m 7.342,0 0,4.4 1.469,0 0,0.74 1.468,0 0,-0.74 0.735,0 0,-0.73 1.468,0 0,0.73 0.734,0 0,0.74 1.469,0 0,-0.74 1.468,0 0,-4.4 -3.671,0 0,0.73 -0.734,0 0,-0.73 -4.406,0 z m 30.837,-8.82 0,0.74 -0.734,0 0,0.73 -0.734,0 0,0.74 -0.734,0 0,1.47 -0.734,0 0,6.61 0.734,0 0,1.47 0.734,0 0,0.73 0.734,0 0,0.73 2.203,0 0,0.74 1.468,0 0,-0.74 2.203,0 0,-0.73 0.734,0 0,-0.73 0.734,0 0,-0.74 0.734,0 0,-8.08 -0.734,0 0,-1.47 -0.734,0 0,-0.73 -1.468,0 0,-0.74 -4.406,0 z m 50.661,9.55 0,3.67 2.937,0 0,-3.67 0.734,0 0,0.74 3.671,0 0,-0.74 0.734,0 0,-1.47 0.735,0 0,-8.08 -2.937,0 0,5.88 -0.735,0 0,1.47 -1.468,0 0,-1.47 -0.734,0 0,-5.88 -2.937,0 0,8.82 -0.734,0 0,-0.74 -0.734,0 0,-0.73 -0.735,0 0,-0.74 -0.734,0 0,0.74 -1.468,0 0,-7.35 -3.671,0 0,10.29 2.936,0 0,-0.74 0.735,0 0,0.74 3.671,0 0,-0.74 0.734,0 z m -96.916,2.94 0,-0.73 -0.734,0 0,-1.47 1.468,0 0,2.2 -0.734,0 z m 17.621,0 -0.73398,0 0,-0.73004 0.73398,0 0,0.73004 z m -0.734,0 z m 5.874,0 -0.73499,0 0,-0.73004 0.73499,0 0,0.73004 z m -0.735,0 z m 10.279,0 -0.73398,0 0,-2.94 0.73398,0 0,2.94 z m -0.734,0 z m 3.671,0 -0.73398,0 0,-0.73004 0.73398,0 0,0.73004 z m -0.734,0 z m 41.116,-12.49 0,0.74 -1.469,0 0,0.73 -0.734,0 0,5.88 -0.734,0 0,2.2 0.734,0 0,2.94 2.937,0 0,-2.94 2.203,0 0,-2.2 -2.203,0 0,-4.41 2.203,0 0,-2.94 -2.937,0 z m 52.863,0 0,0.74 -0.734,0 0,0.73 -0.734,0 0,5.88 -0.735,0 0,2.2 0.735,0 0,2.94 2.936,0 0,-2.94 1.469,0 0,-2.2 -1.469,0 0,-4.41 1.469,0 0,-2.94 -2.937,0 z m -122.614,10.29 -0.73419,0 0,-0.73993 0.73419,0 0,0.73993 z m -0.734,0 z m 17.622,0 -0.73499,0 0,-0.73993 0.73499,0 0,0.73993 z m -0.735,0 z m 13.216,0 -0.73398,0 0,-0.73993 0.73398,0 0,0.73993 z m -0.734,0 z m 12.482,0 0,-6.61 0.734,0 0,-0.74 1.468,0 0,0.74 0.734,0 0,1.46 0.735,0 0,2.94 -0.735,0 0,2.21 -2.936,0 z m 10.279,-10.29 0,0.74 -1.469,0 0,0.73 -0.734,0 0,7.35 0.734,0 0,0.73 0.734,0 0,0.74 4.406,0 0,-0.74 1.468,0 0,-1.47 0.734,0 0,-5.87 -0.734,0 0,-1.47 -1.468,0 0,-0.74 -3.671,0 z m 8.076,0 0,0.74 -1.469,0 0,2.2 0.735,0 0,0.74 2.202,0 0,0.73 -2.202,0 0,5.14 1.468,0 0,0.74 4.405,0 0,-0.74 1.469,0 0,-1.47 -0.734,0 0,-0.73 -3.672,0 0,-0.74 3.672,0 0,-0.73 0.734,0 0,-1.47 0.734,0 0,-1.47 -0.734,0 0,-1.47 -0.734,0 0,-0.73 -0.735,0 0,-0.74 -5.139,0 z m 16.153,0 0,0.74 -1.469,0 0,1.47 -0.734,0 0,5.87 0.734,0 0,1.47 1.469,0 0,0.74 3.671,0 0,-0.74 1.468,0 0,-0.73 0.734,0 0,-2.21 0.734,0 0,-2.2 -5.873,0 0,-0.73 0.734,0 0,-0.74 2.203,0 0,0.74 1.468,0 0,-0.74 0.734,0 0,-1.47 -0.734,0 0,-0.73 -0.734,0 0,-0.74 -4.405,0 z m 27.9,0 0,0.74 -1.469,0 0,0.73 -0.734,0 0,2.94 -0.734,0 0,2.2 0.734,0 0,2.21 0.734,0 0,0.73 0.734,0 0,0.74 4.406,0 0,-0.74 1.468,0 0,-1.47 0.734,0 0,-5.87 -0.734,0 0,-0.74 -0.734,0 0,-0.73 -0.734,0 0,-0.74 -3.671,0 z m 8.81,0 0,0.74 -0.734,0 0,0.73 -0.734,0 0,8.82 2.937,0 0,-6.61 0.734,0 0,-0.74 0.734,0 0,0.74 0.734,0 0,6.61 2.937,0 0,-10.29 -6.608,0 z m -60.205,7.35 0,-4.41 1.468,0 0,0.74 0.734,0 0,2.93 -0.734,0 0,0.74 -1.468,0 z m 26.431,0 -2.202,0 0,-0.74005 2.202,0 0,0.74005 z m -2.202,0 z m 27.9,0 0,-4.41 1.468,0 0,0.74 0.734,0 0,2.93 -0.734,0 0,0.74 -1.468,0 z m -41.116,-3.67 -2.203,0 0,-0.73999 2.203,0 0,0.73999 z"
         clip-rule="evenodd"
         id="path9498" />
    </clipPath>
    <clipPath
       clipPathUnits="userSpaceOnUse"
       id="clipPath9504">
      <path
         inkscape:connector-curvature="0"
         d="m 256.297,350.898 192.551,0 0,-546.049 -192.551,0 0,546.049"
         id="path9506" />
    </clipPath>
    <clipPath
       clipPathUnits="userSpaceOnUse"
       id="clipPath9512">
      <path
         inkscape:connector-curvature="0"
         d="m 415.038,367.838 -216.141,0 0,-121.18 216.141,0 0,121.18 z"
         id="path9514" />
    </clipPath>
    <clipPath
       clipPathUnits="userSpaceOnUse"
       id="clipPath9520">
      <path
         inkscape:connector-curvature="0"
         d="m 1024.719,1445.891 -858.893,0 0,-1207.559 858.893,0 0,1207.559 z"
         id="path9522" />
    </clipPath>
    <clipPath
       clipPathUnits="userSpaceOnUse"
       id="clipPath9528">
      <path
         inkscape:connector-curvature="0"
         d="m 0,1683.975 1191,0 0,-1683.96 -1191,0 0,1683.96 z"
         id="path9530" />
    </clipPath>
    <clipPath
       clipPathUnits="userSpaceOnUse"
       id="clipPath10761">
      <path
         inkscape:connector-curvature="0"
         d="m 644.173,83.622 142.441,0 0,53.858 -142.441,0 0,-53.858 z"
         id="path10763" />
    </clipPath>
    <clipPath
       clipPathUnits="userSpaceOnUse"
       id="clipPath11955">
      <path
         inkscape:connector-curvature="0"
         d="m 409.606,15.194 140.548,0 0,45.392 -140.548,0 0,-45.392 z"
         id="path11957" />
    </clipPath>
    <clipPath
       clipPathUnits="userSpaceOnUse"
       id="clipPath14224">
      <path
         inkscape:connector-curvature="0"
         d="m 315.355,742.035 214.222,0 0,48.831 -214.222,0 0,-48.831 z"
         id="path14226" />
    </clipPath>
    <clipPath
       clipPathUnits="userSpaceOnUse"
       id="clipPath15033">
      <path
         inkscape:connector-curvature="0"
         d="m 0,0 819.213,0 0,1162.205 L 0,1162.205 0,0 z"
         id="path15035" />
    </clipPath>
    <clipPath
       clipPathUnits="userSpaceOnUse"
       id="clipPath16080">
      <path
         inkscape:connector-curvature="0"
         d="m 434.841,759.16 125.158,0 0,82.73 -125.158,0 0,-82.73 z"
         id="path16082" />
    </clipPath>
  </defs> -->
  <!-- <sodipodi:namedview -->
     id="base"
     pagecolor="#ffffff"
     bordercolor="#666666"
     borderopacity="1.0"
     inkscape:pageopacity="0.0"
     inkscape:pageshadow="2"
     inkscape:zoom="0.56875"
     inkscape:cx="628.56796"
     inkscape:cy="84.029487"
     inkscape:document-units="px"
     inkscape:current-layer="layer1"
     showgrid="false"
     fit-margin-left="0.5"
     fit-margin-bottom="0.5"
     fit-margin-top="0.5"
     fit-margin-right="0.5"
     inkscape:window-width="1057"
     inkscape:window-height="1029"
     inkscape:window-x="852"
     inkscape:window-y="-12"
     inkscape:window-maximized="0" />
  <!-- <metadata
     id="metadata6879">
    <rdf:RDF>
      <cc:Work
         rdf:about="">
        <dc:format>image/svg+xml</dc:format>
        <dc:type
           rdf:resource="http://purl.org/dc/dcmitype/StillImage" />
        <dc:title></dc:title>
      </cc:Work>
    </rdf:RDF>
  </metadata> -->
  <g
     inkscape:label="Layer 1"
     inkscape:groupmode="layer"
     id="layer1"
     transform="translate(-1900.4878,1892.4078)">
     <g>
    <path
       inkscape:connector-curvature="0"
       d="m 2470.3592,-1373.1283 429.6287,0 0,-518.7795 -429.6287,0 0,518.7795 z"
       style="fill:#0b335e;fill-opacity:1;fill-rule:nonzero;stroke:none"
       id="path16074"
       transform="scale(0.6) translate(1925,-950)" />
    <g
       transform="matrix(7.9819593,0,0,-7.9819593,-1569.9017,4828.0162)"
       id="g16076">
      <g
         id="g16078"
         clip-path="url(#clipPath16080)">
        <g
           id="g16084"
           transform="translate(553.3633,800.1917) scale(0.6)">
          <path
             inkscape:connector-curvature="0"
             d="m 0,0 -6.914,-5.459 0,-13.719 5.026,3.924 c 0,0 0.749,0.728 1.087,1.238 0.512,0.778 0.791,1.426 0.801,1.843 L 0,0 z m -0.114,3.141 0,6.826 -6.973,0 -0.013,-12.286 6.986,5.46 z m -9.486,-9.222 -7.674,0 -0.01,0 -7.673,0 0,-13.752 1.846,0 0,5.794 c 0,0 0.19,2.581 2.256,4.124 1.656,1.234 3.202,1.194 3.577,1.2 0.372,-0.006 1.919,0.034 3.576,-1.2 2.064,-1.543 2.253,-4.124 2.253,-4.124 l 0,-5.794 1.849,0 0,13.752 z m -17.836,3.762 -0.014,12.286 -6.974,0 0,-6.826 6.988,-5.46 z m -0.023,-3.14 -6.915,5.459 0,-12.173 c 0.009,-0.417 0.293,-1.065 0.8,-1.843 0.34,-0.51 1.09,-1.238 1.09,-1.238 l 5.025,-3.924 0,13.719 z m -6.842,17.874 6.702,0 -3.359,4.976 -3.343,-4.976 z m 13.499,-16.045 6.858,0 0,13.59 -6.858,0 0,-13.59 z m 0.174,16.045 6.701,0 -3.357,4.976 -3.344,-4.976 z m 13.677,0 6.697,0 -3.353,4.976 -3.344,-4.976 z m 9.354,-23.084 c 0,-2.435 -0.44,-4.135 -2.706,-6.351 -0.016,-0.017 -6.728,-5.251 -6.728,-5.251 l -6.914,0 0,8.232 c 0,1.058 -1.224,2.869 -3.329,2.869 l -0.004,0 c -2.106,0 -3.329,-1.811 -3.329,-2.869 l 0,-8.232 -6.916,0 c 0,0 -6.712,5.234 -6.728,5.251 -2.261,2.216 -2.705,3.916 -2.705,6.351 l 0.007,23.622 5.997,8.888 6.003,-8.888 0,-16.583 1.694,0 0,16.583 5.977,8.888 0.004,0 5.976,-8.888 0,-16.583 1.694,0 0,16.583 6.002,8.888 5.998,-8.888 0.007,-23.622 z"
             style="fill:#ffffff;fill-opacity:1;fill-rule:evenodd;stroke:none"
             id="path16086" />
        </g>
        <g
           id="g16088"
           transform="translate(437.7998,765.5859)">
          <path
             inkscape:connector-curvature="0"
             d="m 0,0 3.513,0 0,-6.333 -1.039,0 -0.397,0.933 c -0.64,-0.761 -1.16,-1.107 -2.164,-1.107 -1.694,0 -2.871,1.211 -2.871,3.201 l 0,6.438 c 0,1.765 1.037,3.201 3.149,3.201 2.147,0 3.218,-1.557 3.218,-3.427 l 0,-0.794 -2.041,0 c 0,1.867 -0.382,2.352 -1.229,2.352 -0.518,0 -0.951,-0.312 -0.951,-1.366 l 0,-6.421 c 0,-0.795 0.26,-1.315 1.003,-1.315 0.867,0 1.177,0.485 1.177,1.731 l 0,1.21 L 0,-1.697 0,0 z"
             style="fill:#0b335e;fill-opacity:1;fill-rule:nonzero;stroke:none"
             id="path16090" />
        </g>
        <g
           id="g16092"
           transform="translate(443.8381,759.2523)">
          <path
             inkscape:connector-curvature="0"
             d="m 0,0 0,12.493 5.746,0 0,-1.869 -3.601,0 0,-3.218 2.77,0 0,-1.869 -2.77,0 0,-3.667 3.841,0 L 5.986,0 0,0 z"
             style="fill:#0b335e;fill-opacity:1;fill-rule:nonzero;stroke:none"
             id="path16094" />
        </g>
        <g
           id="g16096"
           transform="translate(460.4657,771.7457)">
          <path
             inkscape:connector-curvature="0"
             d="m 0,0 0,-12.493 -1.869,0 0,9.76 -0.034,0 -1.938,-9.76 -1.038,0 -1.94,9.76 -0.035,0 0,-9.76 -1.869,0 0,12.493 2.823,0 1.523,-7.303 0.034,0 L -2.819,0 0,0 z"
             style="fill:#0b335e;fill-opacity:1;fill-rule:nonzero;stroke:none"
             id="path16098" />
        </g>
        <g
           id="g16100"
           transform="translate(462.7807,759.2523)">
          <path
             inkscape:connector-curvature="0"
             d="m 0,0 0,12.493 5.748,0 0,-1.869 -3.6,0 0,-3.218 2.769,0 0,-1.869 -2.769,0 0,-3.667 3.84,0 L 5.988,0 0,0 z"
             style="fill:#0b335e;fill-opacity:1;fill-rule:nonzero;stroke:none"
             id="path16102" />
        </g>
        <g
           id="g16104"
           transform="translate(470.811,759.2523)">
          <path
             inkscape:connector-curvature="0"
             d="m 0,0 0,12.493 5.743,0 0,-1.869 -3.598,0 0,-3.218 2.768,0 0,-1.869 -2.768,0 0,-3.667 3.842,0 L 5.987,0 0,0 z"
             style="fill:#0b335e;fill-opacity:1;fill-rule:nonzero;stroke:none"
             id="path16106" />
        </g>
        <g
           id="g16108"
           transform="translate(478.8365,759.2523)">
          <path
             inkscape:connector-curvature="0"
             d="m 0,0 0,12.493 1.99,0 2.614,-7.145 0.035,0 0,7.145 1.938,0 L 6.577,0 4.706,0 1.975,7.804 1.939,7.804 1.939,0 0,0 z"
             style="fill:#0b335e;fill-opacity:1;fill-rule:nonzero;stroke:none"
             id="path16110" />
        </g>
        <g
           id="g16112"
           transform="translate(489.0802,769.8763)">
          <path
             inkscape:connector-curvature="0"
             d="m 0,0 -2.077,0 0,1.87 6.301,0 0,-1.87 -2.078,0 0,-10.624 -2.146,0 L 0,0 z"
             style="fill:#0b335e;fill-opacity:1;fill-rule:nonzero;stroke:none"
             id="path16114" />
        </g>
        <g
           id="g16116"
           transform="translate(494.9107,759.2523)">
          <path
             inkscape:connector-curvature="0"
             d="m 0,0 0,12.493 5.745,0 0,-1.869 -3.6,0 0,-3.218 2.769,0 0,-1.869 -2.769,0 0,-3.667 3.842,0 L 5.987,0 0,0 z"
             style="fill:#0b335e;fill-opacity:1;fill-rule:nonzero;stroke:none"
             id="path16118" />
        </g>
        <g
           id="g16120"
           transform="translate(508.3712,769.8763)">
          <path
             inkscape:connector-curvature="0"
             d="m 0,0 -2.078,0 0,1.87 6.3,0 0,-1.87 -2.077,0 0,-10.624 -2.145,0 L 0,0 z"
             style="fill:#0b335e;fill-opacity:1;fill-rule:nonzero;stroke:none"
             id="path16122" />
        </g>
        <path
           inkscape:connector-curvature="0"
           d="m 514.496,771.745 2.148,0 0,-12.493 -2.148,0 0,12.493 z"
           style="fill:#0b335e;fill-opacity:1;fill-rule:nonzero;stroke:none"
           id="path16124" />
        <g
           id="g16126"
           transform="translate(519.2543,759.2523)">
          <path
             inkscape:connector-curvature="0"
             d="m 0,0 0,12.493 2.145,0 0,-10.623 3.373,0 L 5.518,0 0,0 z"
             style="fill:#0b335e;fill-opacity:1;fill-rule:nonzero;stroke:none"
             id="path16128" />
        </g>
        <g
           id="g16130"
           transform="translate(528.5778,761.0164)">
          <path
             inkscape:connector-curvature="0"
             d="m 0,0 0.899,0 c 1.144,0 1.56,0.658 1.56,1.921 0,1.282 -0.484,1.922 -1.765,1.922 L 0,3.843 0,0 z m 0,5.608 0.779,0 c 0.814,0 1.435,0.552 1.435,1.593 0,1.158 -0.448,1.764 -1.401,1.764 L 0,8.965 0,5.608 z m -2.144,5.121 3.183,0 c 2.303,0 3.323,-1.175 3.323,-3.305 0,-1.073 -0.45,-2.198 -1.491,-2.612 1.095,-0.485 1.731,-1.35 1.731,-2.959 0,-2.06 -0.915,-3.617 -3.354,-3.617 l -3.392,0 0,12.493 z"
             style="fill:#0b335e;fill-opacity:1;fill-rule:nonzero;stroke:none"
             id="path16132" />
        </g>
        <g
           id="g16134"
           transform="translate(535.43,771.7457)">
          <path
             inkscape:connector-curvature="0"
             d="m 0,0 2.145,0 0,-9.431 c 0,-0.917 0.364,-1.366 1.143,-1.366 0.779,0 1.141,0.449 1.141,1.366 l 0,9.431 2.144,0 0,-9.345 c 0,-2.145 -1.243,-3.321 -3.285,-3.321 C 1.245,-12.666 0,-11.49 0,-9.345 L 0,0 z"
             style="fill:#0b335e;fill-opacity:1;fill-rule:nonzero;stroke:none"
             id="path16136" />
        </g>
        <g
           id="g16138"
           transform="translate(546.5717,766.1387)">
          <path
             inkscape:connector-curvature="0"
             d="m 0,0 0.761,0 c 1.16,0 1.594,0.433 1.594,1.921 0,1.489 -0.434,1.922 -1.594,1.922 L 0,3.843 0,0 z m 0,-6.887 -2.145,0 0,12.494 3.008,0 c 2.409,0 3.638,-1.021 3.638,-3.686 0,-2.006 -0.781,-2.82 -1.506,-3.149 l 1.817,-5.659 -2.18,0 -1.524,5.175 C 0.83,-1.747 0.383,-1.765 0,-1.765 l 0,-5.122 z"
             style="fill:#0b335e;fill-opacity:1;fill-rule:nonzero;stroke:none"
             id="path16140" />
        </g>
        <g
           id="g16142"
           transform="translate(556.3812,765.5859)">
          <path
             inkscape:connector-curvature="0"
             d="m 0,0 3.516,0 0,-6.333 -1.04,0 -0.398,0.933 c -0.641,-0.761 -1.161,-1.107 -2.163,-1.107 -1.695,0 -2.875,1.211 -2.875,3.201 l 0,6.438 c 0,1.765 1.04,3.201 3.151,3.201 2.148,0 3.218,-1.557 3.218,-3.427 l 0,-0.794 -2.04,0 c 0,1.867 -0.382,2.352 -1.227,2.352 -0.524,0 -0.954,-0.312 -0.954,-1.366 l 0,-6.421 c 0,-0.795 0.259,-1.315 1.003,-1.315 0.866,0 1.178,0.485 1.178,1.731 l 0,1.21 L 0,-1.697 0,0 z"
             style="fill:#0b335e;fill-opacity:1;fill-rule:nonzero;stroke:none"
             id="path16144" />
        </g>
      </g>
    </g>
  </g>
</svg>
