<svg width="380" height="215" viewBox="0 0 380 215" fill="none" xmlns="http://www.w3.org/2000/svg">
<g clip-path="url(#clip0_1607_4960)">
<rect width="380" height="213.75" transform="translate(0 0.750244)" fill="#004152"/>
<path d="M82.6186 183.021C82.6186 183.021 80.0035 173.84 81.1565 172.849C82.3095 171.858 97.4107 168.249 104.296 170.285L106.023 180.941L86.3898 191.973L82.6186 183.021Z" fill="#8A6111"/>
<path d="M127.159 185.99C127.159 185.99 125.632 181.26 117.68 179.381C109.725 177.471 102.499 175.178 102.019 169.689C101.539 164.2 100.755 155.241 100.755 155.241L91.3855 156.061L91.354 156.063L81.9848 156.883C81.9848 156.883 82.7686 165.842 83.2488 171.331C83.7291 176.82 77.018 180.046 69.5443 183.275C62.039 186.506 61.4806 191.387 61.4806 191.387C61.4806 191.387 89.1784 197.323 127.159 185.99Z" fill="#DBBA9C"/>
<path d="M56.1705 232.062L57.2746 231.966L67.5194 213.904C67.5194 213.904 68.7362 221.999 70.1139 230.842L123.679 226.156C123.578 216.279 123.498 207.004 123.498 207.004L135.225 225.146L136.045 225.074L141.913 224.561L149.106 223.932C139.864 205.858 127.656 182.227 126.211 180.605C123.883 177.98 108.755 175.839 108.755 175.839L104.403 182.768L96.7573 206.197L84.4691 186.006L77.3713 178.998C77.3713 178.998 64.1688 183.236 62.8099 184.054C61.9653 184.573 49.4861 213.066 40.6813 233.418" fill="#8A6111"/>
<path d="M121.664 115.203C124.004 141.954 116.098 160.955 91.7132 163.089C67.3281 165.222 56.6913 147.557 54.3509 120.806C52.0105 94.0546 74.4808 89.2914 85.6166 88.3172C96.7524 87.3429 119.323 88.4516 121.664 115.203Z" fill="#E9CBAC"/>
<path d="M81.6187 135.999C81.9388 139.658 79.1726 142.92 75.4817 143.243C71.7592 143.569 68.5029 140.865 68.18 137.175C67.8598 133.515 70.5945 130.256 74.317 129.93C78.0394 129.605 81.2958 132.308 81.6187 135.999Z" fill="#8C7163"/>
<path d="M79.8854 136.15C80.1089 138.706 78.2091 140.97 75.6538 141.193C73.0986 141.417 70.8344 139.517 70.6108 136.962C70.3873 134.407 72.2872 132.142 74.8424 131.919C77.3949 131.664 79.6591 133.564 79.8854 136.15Z" fill="#2A1D01"/>
<path d="M73.0797 134.298C73.1432 135.024 72.599 135.707 71.8419 135.773C71.0848 135.84 70.433 135.293 70.3667 134.536C70.3032 133.81 70.8474 133.127 71.6045 133.061C72.3644 133.026 73.0162 133.573 73.0797 134.298Z" fill="white"/>
<path d="M98.0863 134.558C98.4064 138.217 101.697 140.949 105.388 140.626C109.11 140.301 111.848 137.073 111.525 133.382C111.205 129.723 107.946 126.988 104.223 127.314C100.532 127.637 97.7633 130.867 98.0863 134.558Z" fill="#8C7163"/>
<path d="M99.8218 134.406C100.045 136.961 102.31 138.861 104.865 138.638C107.42 138.414 109.32 136.15 109.096 133.595C108.873 131.04 106.609 129.14 104.053 129.363C101.495 129.555 99.5954 131.819 99.8218 134.406Z" fill="#2A1D01"/>
<path d="M99.8609 131.955C99.9243 132.681 100.579 133.259 101.336 133.193C102.093 133.127 102.64 132.475 102.574 131.718C102.51 130.992 101.856 130.414 101.099 130.48C100.344 130.578 99.7974 131.23 99.8609 131.955Z" fill="white"/>
<path d="M102.536 150.539C102.036 149.916 99.0298 145.347 95.932 144.092C93.1292 142.939 90.2608 145.033 90.2608 145.033L90.2293 145.036C90.2293 145.036 87.0092 143.474 84.4808 145.094C81.6822 146.896 79.4806 151.889 79.0969 152.59C78.4419 153.824 77.5575 154.251 77.5575 154.251C77.5575 154.251 78.4258 154.365 79.7054 154.094C81.3607 153.759 88.5194 151.289 90.7592 151.093C92.9989 150.897 100.512 152.115 102.166 152.129C103.471 152.142 104.309 151.91 104.309 151.91C104.309 151.91 103.395 151.64 102.536 150.539Z" fill="white"/>
<path d="M101.501 148.882C101.135 148.341 100.742 147.835 100.345 147.298C99.5254 146.289 98.6457 145.317 97.5562 144.49C97.2845 144.292 97.0128 144.093 96.7123 143.928C96.5463 143.848 96.4118 143.764 96.2458 143.683L96.1141 143.631L96.0798 143.602L96.0455 143.573L95.9797 143.547C95.9138 143.521 95.848 143.495 95.7506 143.472C95.3898 143.345 95.0345 143.28 94.6819 143.248C94.3294 143.215 93.9796 143.214 93.6038 143.278C92.9126 143.371 92.2324 143.589 91.6208 143.865C91.3163 144.019 91.0119 144.173 90.7103 144.358C90.5293 144.469 90.3195 144.615 90.1385 144.726C89.9382 144.616 89.7406 144.538 89.5087 144.431C89.1795 144.301 88.8845 144.2 88.5265 144.104C87.8762 143.939 87.1657 143.81 86.4717 143.871C85.7749 143.9 85.0604 144.09 84.4255 144.463C84.0923 144.651 83.8537 144.831 83.5548 145.048C83.2874 145.262 83.0544 145.505 82.8213 145.748C81.9207 146.716 81.1916 147.829 80.5914 148.963C80.2913 149.529 79.994 150.127 79.7282 150.723C79.4624 151.318 79.2282 151.911 78.9939 152.504C79.66 151.396 80.2945 150.292 81.0291 149.242C81.395 148.702 81.7637 148.192 82.1667 147.712C82.5698 147.232 82.9728 146.752 83.4128 146.332C83.6486 146.12 83.8845 145.909 84.123 145.729C84.3616 145.549 84.6317 145.367 84.8758 145.25C85.3928 144.982 85.9551 144.87 86.5257 144.851C87.0963 144.833 87.7067 144.907 88.2623 145.081C88.5545 145.151 88.8494 145.252 89.1156 145.388C89.379 145.492 89.6767 145.625 89.9113 145.763L90.2461 145.956L90.5423 145.708C90.7493 145.531 91.0194 145.348 91.2607 145.2C91.5336 145.049 91.7749 144.901 92.0478 144.75C92.5963 144.479 93.1531 144.303 93.7497 144.219C94.0309 144.163 94.3176 144.17 94.6042 144.176C94.8909 144.183 95.1831 144.253 95.4438 144.325C95.5096 144.351 95.607 144.375 95.6729 144.401L95.7387 144.427L95.7703 144.424L95.8704 144.479C96.0021 144.531 96.1366 144.615 96.2683 144.667C96.5345 144.802 96.8034 144.969 97.0723 145.137C97.5786 145.474 98.0905 145.874 98.5708 146.277C99.051 146.68 99.5053 147.149 99.9568 147.586C100.863 148.492 101.679 149.47 102.53 150.476C102.202 149.996 101.866 149.422 101.501 148.882Z" fill="#E6E7E8"/>
<path d="M59.1456 228.655L61.8192 223.971L50.9005 209.986C50.1607 211.704 49.3894 213.424 48.6208 215.176L59.1456 228.655Z" fill="#877A45"/>
<path d="M148.884 223.951L111.692 176.345C109.95 176.052 108.758 175.87 108.758 175.87L107.503 178.237L143.585 224.415" fill="#877A45"/>
<path d="M104.934 183.039L103.324 186.073L102.648 188.166L123.59 214.975C123.557 210.241 123.525 206.97 123.525 206.97" fill="#877A45"/>
<path d="M102.07 228.047L66.5595 182.582C64.7081 183.221 63.2326 183.795 62.8075 184.023C62.7471 184.06 62.606 184.263 62.4415 184.563L96.7392 228.513" fill="#877A45"/>
<path d="M55.3563 199.869C54.6658 201.424 53.9205 203.078 53.178 204.764L64.4879 219.224L67.0231 214.774L55.3563 199.869Z" fill="#877A45"/>
<path d="M123.679 226.156C123.656 225.173 123.665 224.187 123.646 223.235L100.772 193.957L98.9205 199.682L119.859 226.459" fill="#877A45"/>
<path d="M113.897 226.98L97.0351 205.378L96.7571 206.197L93.4953 200.887L76.5991 179.256C75.5801 179.599 73.6629 180.212 71.5619 180.905L108.001 227.528" fill="#877A45"/>
<path d="M119.23 177.847L137.2 200.847C131.66 190.206 127.056 181.549 126.211 180.606C125.262 179.576 122.384 178.652 119.23 177.847Z" fill="#877A45"/>
<path d="M90.8071 229.032L59.9889 189.61C59.2929 191.101 58.5216 192.821 57.6407 194.742L84.8764 229.551" fill="#877A45"/>
<path d="M76.568 179.259C76.568 179.259 87.1645 198.644 97.3727 212.5C104.255 197.784 110.363 176.048 110.363 176.048L104.936 174.329L96.9834 186.977L89.8291 184.774L78.3602 178.307L76.568 179.259Z" fill="#65682F"/>
<path d="M73.0207 230.652L89.8805 196.276L90.2299 195.546L87.4815 191.019L86.8348 192.347L69.5968 227.486C69.7565 228.585 69.9477 229.681 70.1102 230.811" fill="#65682F"/>
<path d="M84.6859 229.536L96.424 205.653L93.342 200.583L78.9101 230.009" fill="#65682F"/>
<path d="M50.4599 232.562L76.6217 179.158C75.3216 179.558 72.6638 180.427 69.9772 181.329L44.584 232.98" fill="#65682F"/>
<path d="M110.852 176.195C109.562 175.99 108.726 175.873 108.726 175.873L103.295 186.107L97.9585 202.499L110.852 176.195Z" fill="#65682F"/>
<path d="M107.651 227.527L128.636 184.716C127.388 182.441 126.496 180.962 126.179 180.608C126.002 180.401 125.73 180.202 125.396 180.009L101.818 228.069" fill="#65682F"/>
<path d="M57.2736 231.966L67.55 213.901C67.55 213.901 67.8473 215.846 68.3015 218.858L83.4665 188L80.0899 183.559L56.2326 232.057" fill="#65682F"/>
<path d="M118.569 226.603L123.572 216.566C123.533 211.038 123.501 207.036 123.501 207.036L126.219 211.216L134.15 195.042C133.235 193.31 132.361 191.67 131.56 190.151L113.459 227.05" fill="#65682F"/>
<path d="M63.1747 183.863C63.0225 183.94 62.8703 184.017 62.81 184.054C62.4192 184.311 59.505 190.606 55.6252 199.305L63.1747 183.863Z" fill="#65682F"/>
<path d="M129.378 216.089L132.54 220.994L139.879 206.047C138.919 204.161 137.965 202.337 137.014 200.545L129.378 216.089Z" fill="#65682F"/>
<path d="M136.077 225.071L142.712 211.521C143.669 213.377 144.626 215.232 145.548 217.059L141.913 224.561" fill="#65682F"/>
<path d="M80.4073 178.827C80.4073 178.827 86.7812 183.737 94.4552 183.161C98.5617 182.865 107.191 176.134 107.191 176.134L96.5677 204.401L80.4073 178.827Z" fill="white"/>
<path d="M124.356 127.81C123.785 127.097 122.984 126.658 121.99 126.554C119.645 126.283 115.574 128.8 114.491 129.499C112.621 125.562 108.308 123.142 103.261 123.584C97.9929 124.045 94.0622 127.44 93.0866 131.912C89.7431 130.393 87.0061 131.808 85.868 132.607C83.8192 128.082 78.3396 125.764 73.3869 126.197C68.5288 126.622 65.1959 129.584 64.2696 133.893C63.0815 133.393 58.6666 131.618 56.4051 132.292C55.415 132.601 54.6993 133.141 54.2923 133.939C53.5017 135.439 54.0431 137.267 54.0801 137.327L55.0703 137.018C55.0703 137.018 54.6223 135.532 55.2253 134.43C55.5254 133.863 56.0025 133.504 56.7143 133.282C58.5108 132.744 62.6512 134.289 64.1055 134.924C64.0195 135.758 63.9994 136.618 64.0795 137.533C64.6232 143.748 68.8744 147.286 75.2151 146.731C81.272 146.201 87.2185 141.866 86.6665 135.557C86.6058 134.863 86.4847 134.206 86.2691 133.558C87.0423 132.95 89.6311 131.293 92.9225 132.944C92.8543 133.617 92.8492 134.285 92.9127 135.011C93.4315 140.941 98.4331 144.7 105.089 144.117C111.746 143.535 116.021 138.997 115.5 133.035C115.42 132.12 115.219 131.279 114.926 130.478C116.309 129.563 120.029 127.393 121.889 127.58C122.628 127.675 123.192 127.943 123.554 128.452C124.339 129.432 124.156 130.974 124.156 130.974L125.185 131.106C125.18 131.043 125.395 129.149 124.356 127.81ZM75.0925 145.693C69.4142 146.19 65.609 143.026 65.1232 137.474C64.6209 131.732 67.8943 127.727 73.478 127.238C78.9039 126.764 85.0861 129.847 85.5967 135.683C86.0907 141.329 80.6446 145.207 75.0925 145.693ZM104.967 143.079C98.9414 143.606 94.3886 140.254 93.9249 134.954C93.4474 129.496 97.39 125.146 103.352 124.625C109.314 124.103 113.952 127.703 114.43 133.16C114.862 138.463 110.992 142.552 104.967 143.079Z" fill="#6D3926"/>
<path d="M57.1136 134.582C57.1136 134.582 53.8072 133.123 52.5875 135.169C51.3678 137.215 54.1746 143.136 56.2566 142.954C58.3387 142.772 58.8655 140.437 58.8655 140.437L57.1136 134.582Z" fill="#E9CBAC"/>
<path d="M121.469 128.952C121.469 128.952 124.472 126.941 126.028 128.744C127.584 130.547 125.849 136.866 123.767 137.048C121.684 137.23 120.76 135.022 120.76 135.022L121.469 128.952Z" fill="#E9CBAC"/>
<path d="M68.2404 92.7937C68.2404 92.7937 71.8567 101.791 71.0601 105.04C70.2635 108.288 61.0753 111.54 59.656 117.481C58.2368 123.422 55.7832 131.711 55.7832 131.711C55.7832 131.711 52.4039 122.152 53.4388 112.907C54.6593 102.151 60.7246 91.544 68.2404 92.7937Z" fill="#E6E7E8"/>
<path d="M103.066 89.7468C103.066 89.7468 101.067 99.2355 102.416 102.296C103.764 105.357 113.377 106.964 115.807 112.568C118.236 118.173 122.092 125.91 122.092 125.91C122.092 125.91 123.76 115.909 121.135 106.984C118.066 96.6039 110.251 87.211 103.066 89.7468Z" fill="#E6E7E8"/>
<path d="M97.9353 100.495C97.9353 100.495 99.9101 104.9 88.2159 108.211C76.5533 111.52 63.3433 109.497 58.5502 121.201C58.5502 121.201 59.113 111.648 68.0264 104.892C76.9398 98.1358 89.994 98.742 89.994 98.742C89.994 98.742 82.8737 95.8366 71.8538 100.679C71.9141 100.642 86.0398 91.3318 97.9353 100.495Z" fill="white"/>
<path d="M101.242 101.223C101.242 101.223 101.248 101.286 101.201 101.481C101.152 101.644 101.111 101.902 100.975 102.168C100.874 102.463 100.712 102.795 100.525 103.193C100.303 103.562 100.086 103.994 99.738 104.374C99.4269 104.815 99.0471 105.198 98.6414 105.646C98.1985 106.035 97.7612 106.486 97.221 106.851C96.9509 107.034 96.6835 107.248 96.4134 107.431C96.1433 107.613 95.8389 107.767 95.5372 107.952C94.9654 108.32 94.3538 108.596 93.7134 108.907C93.1073 109.246 92.4559 109.43 91.8443 109.706C91.2327 109.982 90.5785 110.134 89.9614 110.347C89.3415 110.529 88.7559 110.739 88.1936 110.852C87.6341 110.996 87.0718 111.109 86.5753 111.248C86.0788 111.386 85.6056 111.428 85.2011 111.527C84.7937 111.594 84.4495 111.656 84.1368 111.715C83.5429 111.831 83.1987 111.893 83.1987 111.893C83.1987 111.893 83.5429 111.831 84.1052 111.718C84.3864 111.662 84.7622 111.597 85.1668 111.498C85.5713 111.399 86.0445 111.358 86.5382 111.187C87.0347 111.048 87.5627 110.907 88.1222 110.763C88.6818 110.618 89.2674 110.408 89.8872 110.227C90.5044 110.014 91.1243 109.832 91.7359 109.556C92.3475 109.28 92.9961 109.065 93.5707 108.728C94.1795 108.421 94.7884 108.113 95.3286 107.748C95.5987 107.565 95.9004 107.38 96.1732 107.229C96.4406 107.015 96.6792 106.835 96.9493 106.653C97.458 106.29 97.8637 105.842 98.3066 105.453C98.6808 105.007 99.0605 104.624 99.3401 104.187C99.654 103.778 99.8733 103.377 100.066 103.042C100.225 102.679 100.387 102.347 100.46 102.086C100.564 101.823 100.608 101.596 100.628 101.467C100.649 101.338 100.672 101.241 100.672 101.241C100.69 101.08 100.807 100.975 100.968 100.993C101.154 100.944 101.26 101.062 101.242 101.223Z" fill="white"/>
<path d="M103.641 90.1416C103.641 90.1416 102.019 100.297 105.279 102.682C108.505 105.038 113.604 104.464 117.091 109.436C117.091 109.436 117.172 107.458 116.54 104.589C116.54 104.589 120.061 108.509 121.618 114.317C121.618 114.317 119.673 94.6197 107.242 90.2398C105.994 89.7768 104.382 89.886 103.641 90.1416Z" fill="white"/>
<path d="M68.0885 93.252C68.0885 93.252 71.4501 102.971 68.6535 105.886C65.8569 108.801 60.7641 109.087 58.1938 114.589C58.1938 114.589 57.7704 112.655 57.895 109.72C57.895 109.72 55.1075 114.191 54.5825 120.182C54.5825 120.182 53.0784 100.446 64.5597 93.974C65.7088 93.3013 67.2833 93.1318 68.0885 93.252Z" fill="white"/>
<path d="M68.3792 93.6716C68.3792 93.6716 69.5641 101.038 64.1338 103.643C58.7035 106.248 56.7263 107.629 55.9029 112.024C55.9029 112.024 57.7989 107.535 60.9173 106.118C64.0356 104.701 67.3712 104.313 68.0187 101.904C68.0187 101.904 67.6871 105.017 62.1432 108.14C62.1432 108.14 67.9524 106.233 68.6114 104.682C69.2991 103.096 70.2313 99.581 68.3792 93.6716Z" fill="#E6E7E8"/>
<path d="M104.248 90.5336C104.248 90.5336 104.361 97.9939 110.161 99.6162C115.961 101.239 118.148 102.255 119.722 106.441C119.722 106.441 117.075 102.349 113.758 101.495C110.441 100.641 107.089 100.839 106.033 98.5787C106.033 98.5787 106.9 101.586 112.902 103.699C112.902 103.699 106.85 102.83 105.931 101.417C104.979 99.9742 103.45 96.6748 104.248 90.5336Z" fill="#E6E7E8"/>
<path d="M92.8165 228.729L90.4959 229.091L115.953 177.085L119.041 177.863L120.196 179.066L96.0109 228.545" fill="#65682F"/>
<path d="M97.7831 100.572C97.6801 100.485 97.5224 100.499 97.4361 100.602L97.4073 100.636C96.9412 101.122 96.3461 101.587 95.7771 101.987C95.1765 102.389 94.5389 102.731 93.9013 103.073C93.2609 103.383 92.589 103.696 91.9115 103.946C91.5755 104.103 91.234 104.196 90.8953 104.321C90.5566 104.446 90.2151 104.54 89.8448 104.667C89.1646 104.886 88.4501 105.076 87.7328 105.234C87.0183 105.423 86.2955 105.518 85.5782 105.676C84.8554 105.772 84.1381 105.93 83.4153 106.025C82.6925 106.12 81.9697 106.215 81.2469 106.31C79.7985 106.468 78.3159 106.598 76.862 106.693C75.4081 106.789 73.9199 106.855 72.4716 107.014C71.0232 107.172 69.546 107.365 68.128 107.871C66.7416 108.373 65.4774 109.183 64.3874 110.169C65.5117 109.212 66.7786 108.434 68.1706 107.994C69.5598 107.523 71.0082 107.364 72.4936 107.266C73.9475 107.171 75.4357 107.104 76.8924 107.04C78.349 106.977 79.8317 106.847 81.2828 106.72C82.7339 106.593 84.2111 106.4 85.6511 106.147C86.3684 105.989 87.0912 105.894 87.8058 105.704C88.523 105.546 89.2376 105.356 89.9493 105.135C90.2908 105.042 90.6611 104.914 90.9998 104.789C91.3385 104.664 91.7116 104.568 92.0475 104.411C92.7565 104.158 93.4285 103.845 94.1004 103.532C94.7696 103.188 95.4072 102.846 96.0393 102.441C96.4589 102.15 96.8497 101.893 97.2034 101.576C97.1513 101.708 97.1281 101.805 97.076 101.937C96.9143 102.269 96.6896 102.606 96.4305 102.915C95.9096 103.501 95.2885 104.032 94.6276 104.472C93.2743 105.353 91.807 106.022 90.2656 106.57C88.7241 107.118 87.1716 107.54 85.5821 107.901C84.7702 108.068 83.9898 108.231 83.1779 108.398C82.3632 108.533 81.5828 108.696 80.7654 108.8L78.3502 109.17C77.5355 109.305 76.718 109.408 75.9377 109.572C75.123 109.706 74.3111 109.873 73.5307 110.036L72.3031 110.176L71.1209 110.47C70.309 110.636 69.5369 110.894 68.7305 111.124C67.9584 111.382 67.152 111.612 66.3827 111.902C65.6134 112.191 64.8468 112.513 64.1173 112.894C63.3878 113.276 62.6638 113.721 62.1484 114.37C62.6665 113.752 63.4248 113.336 64.1571 112.986C64.8894 112.636 65.656 112.315 66.428 112.056C67.1974 111.767 67.975 111.571 68.7814 111.342C69.559 111.147 70.3654 110.917 71.1458 110.754L72.3307 110.491L73.55 110.257C74.3619 110.091 75.1451 109.959 75.9597 109.824C76.7744 109.689 77.5576 109.557 78.375 109.454L80.793 109.115C81.6104 109.012 82.4251 108.877 83.2398 108.742C84.0545 108.607 84.8664 108.441 85.6468 108.277C87.2363 107.916 88.8519 107.488 90.3961 106.972C91.9375 106.423 93.4706 105.781 94.8843 104.862C95.574 104.389 96.2266 103.855 96.8051 103.2C97.0957 102.889 97.3177 102.52 97.5054 102.122C97.6931 101.724 97.8493 101.329 97.8024 100.793C97.8572 100.692 97.8201 100.632 97.7831 100.572Z" fill="#E6E7E8"/>
<path d="M85.4519 104.575C86.1404 104.451 86.8344 104.391 87.4886 104.238L88.5214 104.052L89.517 103.806C89.8585 103.713 90.2028 103.651 90.51 103.529C90.8515 103.435 91.1929 103.342 91.5029 103.251L92.4903 102.91L93.4749 102.538C94.1181 102.259 94.7612 101.981 95.3701 101.673C95.6745 101.519 95.9761 101.334 96.2806 101.18C96.5822 100.995 96.8839 100.81 97.1512 100.595C97.18 100.561 97.2116 100.558 97.2088 100.527C97.2636 100.427 97.2183 100.272 97.0866 100.22L96.5886 99.9771C96.4225 99.8963 96.2277 99.8497 96.0617 99.7689C95.8957 99.6881 95.7009 99.6415 95.5404 99.6238C95.3772 99.5745 95.1824 99.528 95.0219 99.5102C94.6666 99.4459 94.3113 99.3816 93.9588 99.3489C93.6063 99.3162 93.2537 99.2834 92.8697 99.2535C92.1331 99.1908 91.4335 99.1884 90.7052 99.2203C89.9769 99.2523 89.2829 99.313 88.5601 99.408C89.2884 99.3761 89.9879 99.3784 90.7218 99.4096C91.0715 99.4108 91.4241 99.4435 91.8081 99.4735C92.1607 99.5062 92.5132 99.539 92.8657 99.5717C93.2183 99.6044 93.5735 99.6687 93.9288 99.733C94.2841 99.7973 94.6394 99.8615 94.9659 99.9601C95.1292 100.009 95.2924 100.059 95.4872 100.105C95.6505 100.155 95.8137 100.204 95.9797 100.285C96.143 100.334 96.3062 100.383 96.4722 100.464L96.5724 100.519C96.3914 100.63 96.2104 100.741 96.0609 100.85C95.7565 101.004 95.4864 101.186 95.182 101.34C94.5731 101.647 93.9615 101.923 93.3156 102.171L92.3625 102.54L91.4067 102.878C91.0995 103 90.758 103.094 90.4165 103.187C90.075 103.281 89.7651 103.371 89.4236 103.465C88.7722 103.649 88.0864 103.804 87.4322 103.957C86.7781 104.11 86.0896 104.233 85.4354 104.386L83.4014 104.755C82.7102 104.847 82.0505 104.936 81.362 105.06C82.0587 105.031 82.7212 104.973 83.418 104.944C84.0982 104.725 84.7922 104.665 85.4519 104.575Z" fill="#E6E7E8"/>
<path d="M94.3213 209.97L90.8528 205.569L88.4387 210.675L91.8673 214.984L94.3213 209.97Z" fill="#9E7525"/>
<path d="M80.9764 192.955L77.5423 188.583L75.1144 193.531L78.517 197.907L80.9764 192.955Z" fill="#9E7525"/>
<path d="M72.8997 198.016L70.469 202.934L73.943 207.398L76.3366 202.42L72.8997 198.016Z" fill="#9E7525"/>
<path d="M71.4862 212.381L68.052 208.009L65.6241 212.957L67.0543 214.771L67.5476 213.87L67.7763 215.757L69.0267 217.333L71.4862 212.381Z" fill="#9E7525"/>
<path d="M79.7395 206.796L77.3144 211.776L80.3889 215.671L82.8141 210.691L79.7395 206.796Z" fill="#9E7525"/>
<path d="M100.913 218.453L97.6927 214.348L95.2647 219.297L98.4931 223.496L100.913 218.453Z" fill="#9E7525"/>
<path d="M105.792 208.458L102.54 204.356L100.144 209.302L103.34 213.504L105.792 208.458Z" fill="#9E7525"/>
<path d="M110.707 198.523L107.487 194.418L105.094 199.396L108.288 203.567L110.707 198.523Z" fill="#9E7525"/>
<path d="M115.497 188.6L112.243 184.466L109.85 189.443L113.044 193.614L115.497 188.6Z" fill="#9E7525"/>
<path d="M120.195 179.066L119.041 177.863L115.953 177.085L114.547 179.909L117.775 184.109L120.195 179.066Z" fill="#9E7525"/>
<path d="M111.729 208.002L115.077 212.477L117.502 207.497L114.128 203.088L111.729 208.002Z" fill="#9E7525"/>
<path d="M116.664 197.939L120.012 202.414L122.437 197.434L119.063 193.024L116.664 197.939Z" fill="#9E7525"/>
<path d="M126.974 187.882L123.601 183.472L121.204 188.418L124.549 192.862L126.974 187.882Z" fill="#9E7525"/>
<path d="M112.645 217.394L109.234 212.925L106.806 217.873L110.219 222.375L112.645 217.394Z" fill="#9E7525"/>
<path d="M123.418 206.82L126.464 210.75L128.889 205.769L125.812 201.843L123.418 206.82Z" fill="#9E7525"/>
<path d="M133.556 196.27L130.513 192.372L128.088 197.352L131.162 201.247L133.556 196.27Z" fill="#9E7525"/>
<path d="M87.3907 201.231L84.345 197.301L81.9198 202.282L84.9971 206.208L87.3907 201.231Z" fill="#9E7525"/>
<path d="M74.1384 184.208L71.4922 180.847L69.9507 181.395L68.2791 184.816L71.6817 189.191L74.1384 184.208Z" fill="#9E7525"/>
<path d="M69.4705 193.707L66.0624 189.269L63.5741 194.255L67.0741 198.653L69.4705 193.707Z" fill="#9E7525"/>
<path d="M58.7569 204.213L62.1623 208.619L64.619 203.636L61.1849 199.264L58.7569 204.213Z" fill="#9E7525"/>
<path d="M53.9749 213.881L57.383 218.319L59.8397 213.336L56.4056 208.964L53.9749 213.881Z" fill="#9E7525"/>
<path d="M129.973 214.893L133.321 219.368L135.746 214.388L132.372 209.979L129.973 214.893Z" fill="#9E7525"/>
<path d="M138.042 202.489L137.017 200.576L134.62 205.522L137.965 209.966L139.874 205.985L138.042 202.489Z" fill="#9E7525"/>
<path d="M142.716 211.585L141.365 214.31L144.744 218.782L145.507 216.967L142.716 211.585Z" fill="#9E7525"/>
<path d="M118.527 216.689L121.605 220.616L123.568 216.534L123.567 215.072L120.952 211.709L118.527 216.689Z" fill="#9E7525"/>
<path d="M126.464 210.75L129.973 214.893L129.376 216.058L126.182 211.156L126.464 210.75Z" fill="#877A45"/>
<path d="M81.0934 172.855C81.6592 179.322 94.3927 183.167 94.3927 183.167C94.3927 183.167 104.951 178.492 104.233 170.29L108.692 175.844C109.043 179.851 98.3363 188.639 98.3363 188.639L94.4243 183.164L91.7038 189.855C91.7038 189.855 78.1615 184.396 77.673 178.812L81.0934 172.855Z" fill="#EFEFF0"/>
<path d="M314.299 86.6567C314.299 86.6567 307.17 69.3127 279.42 72.5749C251.67 75.8371 241.328 101.761 240.893 117.267C240.429 132.739 243.099 142.191 249.259 153.538C255.366 164.753 251.676 171.328 246.187 172.659C246.187 172.659 274.799 196.969 308.371 178.386C308.371 178.386 300.881 175.346 302.308 169.209C303.735 163.072 315.67 156.36 323.627 143.896C331.584 131.432 337.762 94.9716 314.299 86.6567Z" fill="#4C360D"/>
<path d="M309.32 186.448C309.32 186.448 309.868 185.637 302.854 182.608C295.839 179.578 288.381 175.81 288.831 170.668C289.278 165.558 290.123 155.905 290.123 155.905L281.857 155.182L273.592 154.459C273.592 154.459 272.751 164.08 272.301 169.222C271.851 174.364 263.854 176.748 256.418 178.545C248.984 180.311 249.383 181.204 249.383 181.204L223.397 219.523L237.972 220.798L252.729 201.809C252.729 201.809 255.369 209.065 256.331 222.404L275.859 224.113L295.386 225.821C298.682 212.854 302.509 206.164 302.509 206.164L313.746 227.428L328.32 228.703L309.32 186.448Z" fill="#EACB8C"/>
<path d="M309.32 186.447L277.249 210.407L249.414 181.206L223.397 219.523L237.972 220.798L252.73 201.809C252.73 201.809 255.369 209.065 256.332 222.404L275.859 224.113L295.386 225.821C298.682 212.854 302.509 206.164 302.509 206.164L313.746 227.427L328.32 228.703L309.32 186.447Z" fill="#F4D89A"/>
<path d="M266.814 192.678L290.222 194.726L278.809 212.546L266.814 192.678Z" fill="#C42C76"/>
<path d="M319.803 119.307C317.614 144.323 304.056 163.767 281.249 161.772C258.441 159.777 247.601 137.976 249.79 112.959C251.978 87.9434 265.259 86.5623 288.036 88.555C310.844 90.5504 321.992 94.2912 319.803 119.307Z" fill="#F4D89A"/>
<path d="M275.842 130.179C275.541 133.618 272.49 136.148 269.02 135.844C265.55 135.541 262.986 132.519 263.286 129.081C263.587 125.642 266.638 123.112 270.108 123.415C273.546 123.716 276.143 126.74 275.842 130.179Z" fill="#00ADE9"/>
<path d="M274.203 130.036C273.993 132.433 271.866 134.218 269.469 134.008C267.071 133.798 265.286 131.671 265.496 129.274C265.706 126.876 267.833 125.092 270.23 125.301C272.657 125.545 274.413 127.638 274.203 130.036Z" fill="#234471"/>
<path d="M268.247 127.258C268.187 127.952 267.569 128.47 266.875 128.409C266.181 128.348 265.663 127.731 265.724 127.037C265.784 126.343 266.402 125.825 267.096 125.885C267.79 125.946 268.308 126.564 268.247 127.258Z" fill="white"/>
<path d="M268.988 144.933C273.049 147.927 277.514 149.938 282.189 150.284C286.889 150.695 291.529 149.257 296.213 147.315C294.404 149.095 292.213 150.525 289.776 151.488C287.34 152.451 284.663 152.884 282.011 152.684C279.361 152.452 276.763 151.621 274.528 150.281C272.293 148.941 270.32 147.147 268.988 144.933Z" fill="#C42C76"/>
<path d="M308.211 98.1081C308.211 98.1081 306.485 105.84 309.731 117.791C313.288 130.912 317.924 136.054 322.951 133.093C322.951 133.093 317.689 134.381 319.583 129.079C322.156 121.834 327.224 109.689 322.012 100.587C317.548 92.7582 311.922 93.474 311.922 93.474C311.922 93.474 308.796 77.9742 288.718 76.0268C259.91 73.2203 236.953 107.8 249.715 134.155C249.715 134.155 246.509 114.484 256.835 114.18C267.161 113.875 304.84 104.298 308.263 97.5088" fill="#5F3F12"/>
<path d="M309.391 100.246C309.391 100.246 304.925 107.325 291.634 112.456C281.075 116.523 269.299 116.319 258.065 115.019C258.065 115.019 253.645 121.212 252.996 131.899C252.347 142.587 256.756 154.321 256.756 154.321C256.756 154.321 238.488 120.776 257.165 96.5985C278.999 68.3104 307.681 85.6329 311.477 94.9291C311.509 94.9318 311.321 97.8081 309.391 100.246Z" fill="#754B1D"/>
<path d="M280.565 110.725C280.565 110.725 295.997 108.737 303.635 97.7395C303.635 97.7395 298.848 102.311 292.1 104.232C292.1 104.232 297.077 100.758 298.142 98.753C298.142 98.753 285.503 97.5201 275.162 103.45C275.162 103.45 286.466 92.3276 307.374 94.6018C307.345 94.5675 303.603 108.64 280.565 110.725Z" fill="#A26527"/>
<path d="M308.4 93.7698C305.038 92.2359 301.576 91.1066 298.101 90.1351C294.62 89.2266 291.089 88.5361 287.513 88.3504C280.372 87.8529 273.287 89.2674 266.56 92.3981C269.405 90.0403 272.776 88.2055 276.428 87.1581C280.051 86.0765 283.897 85.7136 287.66 85.9474C295.21 86.4809 302.573 89.1594 308.4 93.7698Z" fill="#A26527"/>
<path d="M317.48 117.515C316.382 115.893 315.55 114.135 314.816 112.355C314.084 110.542 313.519 108.649 313.114 106.738C312.37 102.89 311.855 94.9622 311.855 94.9622C311.855 94.9622 317.648 97.0583 319.622 101.745C321.596 106.431 321 111.433 321 111.433C321 111.433 320.101 106.809 318.41 103.61C316.719 100.41 314.81 99.7027 314.067 98.7477C314.067 98.7477 314.416 103.483 314.824 107.174C315.232 110.865 316.372 113.826 317.48 117.515Z" fill="#A26527"/>
<path d="M269.029 140.836C268.747 144.053 265.9 146.443 262.682 146.161C259.464 145.88 257.075 143.032 257.357 139.815C257.638 136.597 260.486 134.208 263.703 134.489C266.921 134.771 269.31 137.618 269.029 140.836Z" fill="url(#paint0_radial_1607_4960)"/>
<path d="M306.411 144.106C306.13 147.324 303.283 149.713 300.065 149.432C296.847 149.15 294.458 146.303 294.739 143.085C295.021 139.867 297.868 137.478 301.086 137.76C304.304 138.041 306.693 140.889 306.411 144.106Z" fill="url(#paint1_radial_1607_4960)"/>
<path d="M292.689 131.653C292.388 135.091 294.953 138.113 298.423 138.417C301.893 138.72 304.943 136.19 305.244 132.751C305.545 129.313 302.98 126.291 299.51 125.987C296.04 125.684 292.99 128.214 292.689 131.653Z" fill="#00ADE9"/>
<path d="M294.297 131.794C294.087 134.191 295.872 136.318 298.269 136.528C300.667 136.738 302.794 134.953 303.004 132.555C303.213 130.158 301.429 128.031 299.031 127.821C296.631 127.643 294.507 129.396 294.297 131.794Z" fill="#234471"/>
<path d="M294.745 129.576C294.684 130.27 295.203 130.888 295.897 130.948C296.591 131.009 297.208 130.491 297.269 129.797C297.329 129.103 296.811 128.485 296.117 128.425C295.423 128.364 294.806 128.882 294.745 129.576Z" fill="white"/>
<path d="M279.957 179.428C281.246 179.541 282.383 178.588 282.496 177.298C282.609 176.009 281.655 174.872 280.366 174.76C279.076 174.647 277.94 175.601 277.827 176.89C277.714 178.179 278.668 179.316 279.957 179.428Z" fill="#00ADE9"/>
<path opacity="0.2" d="M280.979 177.197C281.31 177.226 281.602 176.981 281.631 176.65C281.66 176.319 281.415 176.027 281.084 175.998C280.753 175.97 280.461 176.214 280.432 176.545C280.403 176.876 280.648 177.168 280.979 177.197Z" fill="#FFFEEF"/>
<path d="M275.728 178.359C276.825 178.455 277.793 177.643 277.889 176.546C277.985 175.448 277.173 174.48 276.075 174.384C274.978 174.288 274.01 175.1 273.914 176.198C273.818 177.295 274.63 178.263 275.728 178.359Z" fill="#00ADE9"/>
<path opacity="0.2" d="M276.592 176.464C276.871 176.488 277.117 176.282 277.141 176.003C277.165 175.725 276.959 175.479 276.681 175.455C276.402 175.43 276.156 175.636 276.132 175.915C276.107 176.194 276.313 176.44 276.592 176.464Z" fill="#FFFEEF"/>
<path d="M272.284 176.659C273.277 176.746 274.153 176.011 274.24 175.018C274.327 174.025 273.592 173.15 272.599 173.063C271.606 172.976 270.73 173.711 270.643 174.704C270.557 175.697 271.291 176.572 272.284 176.659Z" fill="#00ADE9"/>
<path opacity="0.2" d="M273.068 174.979C273.329 175.002 273.56 174.809 273.583 174.548C273.606 174.286 273.412 174.056 273.151 174.033C272.89 174.01 272.659 174.204 272.636 174.465C272.613 174.726 272.807 174.957 273.068 174.979Z" fill="#FFFEEF"/>
<path d="M269.976 173.978C270.83 174.052 271.583 173.421 271.657 172.567C271.732 171.714 271.101 170.961 270.247 170.886C269.393 170.812 268.641 171.443 268.566 172.297C268.491 173.15 269.123 173.903 269.976 173.978Z" fill="#00ADE9"/>
<path opacity="0.2" d="M270.676 172.513C270.903 172.533 271.102 172.366 271.122 172.139C271.142 171.913 270.974 171.713 270.748 171.693C270.521 171.673 270.322 171.841 270.302 172.067C270.282 172.294 270.45 172.493 270.676 172.513Z" fill="#FFFEEF"/>
<path d="M284.286 178.631C285.384 178.727 286.351 177.915 286.447 176.818C286.543 175.72 285.732 174.752 284.634 174.656C283.536 174.56 282.569 175.372 282.473 176.47C282.377 177.567 283.189 178.535 284.286 178.631Z" fill="#00ADE9"/>
<path opacity="0.2" d="M284.747 176.287C285.025 176.312 285.271 176.105 285.295 175.827C285.32 175.548 285.114 175.302 284.835 175.278C284.556 175.253 284.31 175.46 284.286 175.738C284.262 176.017 284.468 176.263 284.747 176.287Z" fill="#FFFEEF"/>
<path d="M287.939 177.584C288.932 177.671 289.807 176.936 289.894 175.943C289.981 174.95 289.246 174.074 288.253 173.987C287.26 173.901 286.385 174.635 286.298 175.628C286.211 176.621 286.945 177.497 287.939 177.584Z" fill="#00ADE9"/>
<path opacity="0.2" d="M288.103 175.341C288.365 175.364 288.595 175.171 288.618 174.909C288.641 174.648 288.447 174.418 288.186 174.395C287.925 174.372 287.694 174.565 287.671 174.826C287.649 175.088 287.842 175.318 288.103 175.341Z" fill="#FFFEEF"/>
<path d="M290.68 175.312C291.533 175.387 292.286 174.756 292.361 173.902C292.435 173.048 291.804 172.296 290.95 172.221C290.096 172.146 289.344 172.778 289.269 173.631C289.194 174.485 289.826 175.238 290.68 175.312Z" fill="#00ADE9"/>
<path opacity="0.2" d="M290.688 173.406C290.914 173.426 291.114 173.258 291.134 173.032C291.154 172.805 290.986 172.605 290.76 172.586C290.533 172.566 290.334 172.733 290.314 172.96C290.294 173.186 290.461 173.386 290.688 173.406Z" fill="#FFFEEF"/>
<path d="M309.03 185.755C305.854 183.188 295.692 178.707 293.623 177.286C291.837 185.713 277.608 205.193 277.608 205.193L277.545 205.188L277.482 205.182C277.482 205.182 266.821 183.524 266.557 174.918C264.272 175.958 253.487 178.607 249.913 180.583C247.24 182.065 231.909 206.885 231.909 206.885L242.059 215.847L251.925 203.36C251.925 203.36 253.838 212.014 254.501 222.244L275.795 224.107L276.078 224.132L297.372 225.995C299.77 216.033 303.188 207.845 303.188 207.845L310.735 221.856L322.288 214.792C322.196 214.753 311.405 187.679 309.03 185.755Z" fill="#F99D1C"/>
<g clip-path="url(#clip1_1607_4960)">
<path d="M227.168 160.13C227.168 160.13 225.988 154.045 216.603 150.764C207.237 147.482 198.829 144.145 198.829 137.157C198.829 130.169 198.829 118.738 198.829 118.738H187.969H177.11C177.11 118.738 177.11 130.15 177.11 137.157C177.11 144.145 168.702 147.482 159.336 150.764C149.969 154.045 148.771 160.13 148.771 160.13L123.936 222.006H140.179L159.225 185.15L165.236 222.006L187.988 222.08L210.74 222.006L216.75 185.15L235.796 222.006H252.04L227.168 160.13Z" fill="#4C3A1F"/>
<path d="M225.785 155.281C222.005 152.829 209.744 146.302 209.744 146.302C207.366 152.091 191.897 157.254 191.897 157.254L187.859 169.625L183.821 157.254C183.821 157.254 168.352 152.091 165.974 146.302C165.974 146.302 153.713 152.847 149.933 155.281C147.536 156.83 129.541 204.399 129.541 204.399L147.186 213.654L157.769 194.719L162.305 222.08H213.414L217.949 194.719L228.532 213.654L246.177 204.399C246.177 204.399 228.2 156.83 225.785 155.281Z" fill="#DCE8F7"/>
<path d="M236.221 209.635L246.196 204.399C246.196 204.399 228.201 156.83 225.804 155.281C222.024 152.829 209.763 146.302 209.763 146.302C208.86 148.514 206.039 150.635 202.904 152.405L220.309 161.255L238.802 200.803C238.839 200.785 241.254 206.205 236.221 209.635Z" fill="#E3ECF9"/>
<path d="M185.166 162.324L184.908 161.531C175.339 160.72 166.876 155.981 161.105 148.938C160.903 149.049 160.7 149.159 160.479 149.27C166.434 156.645 175.229 161.568 185.166 162.324Z" fill="#A3C5E9"/>
<path d="M215.276 149.289C215.073 149.178 214.852 149.067 214.649 148.957C208.878 156 200.397 160.738 190.846 161.55L190.588 162.342C200.507 161.568 209.32 156.645 215.276 149.289Z" fill="#A3C5E9"/>
<path d="M172.814 202.186C172.814 202.186 162.839 198.738 161.751 193.483C160.663 188.229 158.506 173.866 158.506 173.866L141.156 210.52L147.185 213.672L157.769 194.737L162.304 222.098H174.399L172.814 202.186Z" fill="#D3E2F5"/>
<path d="M229.25 68.1083C229.25 102.347 217.689 130.298 187.968 130.298C158.247 130.298 147.258 102.015 147.258 67.7764C147.258 33.5378 174.914 29.9978 188.484 29.9978C202.054 29.9978 229.25 33.8697 229.25 68.1083Z" fill="#60492D"/>
<path d="M181.203 90.0304C181.203 94.7319 177.534 98.5485 172.999 98.5485C168.463 98.5485 164.812 94.7319 164.812 90.0304C164.812 85.3288 168.482 81.5122 172.999 81.5122C177.534 81.5122 181.203 85.3288 181.203 90.0304Z" fill="#8E692D"/>
<path d="M179.102 90.0303C179.102 93.3121 176.558 95.9856 173.442 95.9856C170.307 95.9856 167.781 93.3121 167.781 90.0303C167.781 86.7484 170.307 84.0934 173.442 84.0934C176.576 84.0749 179.102 86.7484 179.102 90.0303Z" fill="#261F14"/>
<path d="M171.063 86.9513C171.063 87.8916 170.326 88.666 169.422 88.666C168.519 88.666 167.781 87.8916 167.781 86.9513C167.781 86.011 168.519 85.2366 169.422 85.2366C170.326 85.2366 171.063 85.9925 171.063 86.9513Z" fill="white"/>
<path d="M170.215 108.873C175.82 112.45 181.831 114.644 187.915 114.571C194.036 114.571 199.899 112.081 205.744 108.873C203.605 111.528 200.913 113.722 197.89 115.308C194.866 116.912 191.418 117.797 187.952 117.852C184.486 117.852 181.038 117.041 177.977 115.456C174.916 113.907 172.169 111.713 170.215 108.873Z" fill="#261F14"/>
<path d="M196.156 90.0304C196.156 94.7319 199.825 98.5485 204.361 98.5485C208.897 98.5485 212.547 94.7319 212.547 90.0304C212.547 85.3288 208.878 81.5122 204.361 81.5122C199.844 81.5122 196.156 85.3288 196.156 90.0304Z" fill="#8E692D"/>
<path d="M198.275 90.0303C198.275 93.3121 200.82 95.9856 203.936 95.9856C207.07 95.9856 209.596 93.3121 209.596 90.0303C209.596 86.7484 207.07 84.0934 203.936 84.0934C200.801 84.0749 198.275 86.7484 198.275 90.0303Z" fill="#261F14"/>
<path d="M198.59 86.9513C198.59 87.8916 199.327 88.666 200.231 88.666C201.134 88.666 201.872 87.8916 201.872 86.9513C201.872 86.011 201.134 85.2366 200.231 85.2366C199.327 85.2366 198.59 85.9925 198.59 86.9513Z" fill="white"/>
<path d="M241.695 62.5767C241.695 58.7786 239.022 55.6442 235.556 55.0911C235.519 54.9067 235.482 54.7223 235.464 54.5195C236.865 52.6573 237.694 50.3158 237.694 47.7529C237.694 43.5123 235.408 39.8432 232.071 38.0179C231.573 37.5016 231.039 37.0038 230.485 36.5613C228.439 34.9388 226.042 33.8694 223.553 33.2426C222.815 33.0582 222.059 33.0213 221.285 33.0398C220.529 31.9704 219.331 31.2697 217.966 31.2697C217.893 31.2697 217.819 31.2697 217.745 31.2697L216.178 31.8782C214.74 30.1635 214.721 27.1213 211.439 27.1213C210.481 27.1213 209.596 27.4716 208.895 28.0432C208.877 27.1397 208.6 26.31 208.157 25.6094C208.084 25.001 207.955 24.3741 207.77 23.7841C206.59 20.0228 202.755 17.3863 199.012 17.755C196.652 17.9763 194.182 16.5013 192.025 15.4503C190.476 14.6944 188.909 11.8365 187.249 11.3572C181.792 9.80841 178.03 13.5881 178.03 13.5881C176.205 10.6197 173.034 8.66528 169.439 8.66528C164.663 8.66528 160.662 12.0947 159.538 16.7409C157.915 15.6162 155.979 14.9525 153.896 14.9525C148.254 14.9525 143.663 19.7647 143.663 25.6832C143.663 26.8447 143.847 27.951 144.161 29.0019C143.995 29.0019 143.829 28.9835 143.663 28.9835C138.021 28.9835 133.43 33.7957 133.43 39.7142C133.43 41.2629 133.743 42.7379 134.297 44.0654C131.217 45.227 128.987 48.3061 128.987 51.9567C128.987 53.9664 129.65 55.7917 130.775 57.2483C129.337 57.488 128.249 58.7786 128.249 60.3458C128.249 61.2124 128.581 62.0052 129.134 62.5767C127.677 64.4389 126.792 66.8174 126.792 69.4171C126.792 72.533 128.046 75.3171 130.056 77.2899C128.544 78.5068 126.092 79.4656 126.055 83.5587C126.018 90.8415 129.54 90.1225 130.757 92.7406C133.596 98.7881 127.253 100.226 128.655 106.2C129.208 108.597 133.301 110.736 132.895 113.151C132.508 115.419 130.13 117.041 130.148 119.346C130.167 121.706 132.656 123.329 132.969 125.652C133.246 127.68 132.01 130.077 132.121 132.105C132.397 136.88 136.196 136.198 136.048 136.161C134.241 135.221 134.739 132.363 135.808 130.575C136.878 128.786 138.298 126.721 137.523 124.785C137.118 123.789 136.196 123.07 135.919 122.038C135.237 119.494 138.611 117.889 139.551 115.437C141.063 111.51 135.901 107.048 137.818 103.324C138.629 101.775 139.809 99.6363 141.506 99.5256C139.422 99.8391 139.736 104.578 140.953 106.384C142.169 108.21 144.179 109.298 145.359 111.141C146.889 113.538 146.576 117.06 144.64 119.106C145.156 118.553 146.539 118.387 147.203 117.76C148.088 116.931 148.733 115.769 148.991 114.571C149.692 111.436 147.645 110.312 146.76 107.62C146.299 106.237 146.392 104.541 147.35 103.471C148.162 102.549 149.471 102.218 150.227 101.259C151.72 99.3228 150.227 96.3175 151.075 93.9944C151.904 91.7081 154.762 90.7678 155.574 88.4815C156.366 86.2506 154.965 83.4296 156.274 81.4937C156.919 80.5349 158.063 80.0924 158.819 79.2443C160.552 77.2715 159.15 74.1371 156.975 73.3443C157.473 71.2793 159.925 71.0396 161.252 69.7305C162.414 68.5874 162.617 66.5224 161.713 65.158C161.474 64.7892 161.16 64.4389 161.068 64.0149C161.621 63.6646 162.045 63.1299 162.248 62.4846C162.764 62.337 163.317 62.3555 163.852 62.2633C165.604 61.9314 166.913 60.143 166.986 58.2992C171.706 56.9902 178.584 56.1605 189.075 56.1605C195.638 56.1605 200.912 56.6214 205.152 57.4327C206.037 57.9305 206.904 58.4467 207.789 58.9445C208.729 59.4792 209.798 60.3274 209.577 61.4336C209.485 61.8761 209.19 62.2449 209.006 62.6505C208.084 64.7155 210.186 66.8174 212.011 68.0527C210.167 69.5461 209.891 72.7358 211.439 74.5427C212.361 75.6305 213.892 77.0318 212.97 78.1196C213.597 78.7281 214.703 77.9905 214.813 77.1055C214.924 76.2205 214.445 75.3724 214.002 74.598C213.578 73.8237 213.173 72.9018 213.468 72.0536C213.689 71.4268 214.242 71.0027 214.629 70.4496C215.459 69.2696 215.348 67.4443 214.371 66.4118C213.928 65.9508 213.338 65.6189 213.062 65.0289C212.435 63.7383 213.67 62.337 213.91 60.9174C213.947 60.6592 213.965 60.3827 213.928 60.1245C214.426 60.3642 214.887 60.6039 215.33 60.8436C215.551 61.618 216.233 62.1711 217.044 62.1711C217.063 62.1711 217.1 62.1711 217.118 62.1711C217.1 62.2633 217.081 62.3555 217.081 62.4661C217.081 64.0333 218.298 65.3055 219.792 65.3055C220.087 65.3055 220.382 65.2317 220.658 65.1396C220.695 65.1764 220.732 65.2318 220.769 65.2686C220.732 65.4714 220.695 65.6742 220.695 65.8955C220.695 67.3152 221.691 68.4768 223 68.698C223.147 68.9746 223.276 69.2327 223.405 69.5093C227.038 77.124 225.71 97.1656 225.71 97.1656C225.894 96.4097 226.282 95.6537 226.779 94.8978C226.429 96.2069 225.968 97.6634 226.743 98.7144C227.093 99.1938 227.628 99.4703 227.978 99.9313C228.808 101.056 228.199 102.734 227.388 103.877C226.577 105.038 226.374 106.569 226.982 107.878C227.775 109.629 229.619 113.815 226.392 113.114C227.13 113.907 228.531 113.262 228.955 112.248C229.379 111.233 229.139 110.053 228.955 108.966C228.771 107.878 228.679 106.643 229.305 105.758C229.674 105.241 230.246 104.909 230.633 104.393C231.665 103.047 231.149 101.093 230.744 99.415C230.338 97.7372 230.301 95.5431 231.758 94.7503C231.776 96.2622 233.657 96.9444 234.302 98.2903C235.593 101.019 231.278 104.283 232.827 106.864C233.564 108.118 235.464 108.542 235.611 109.998C235.722 110.92 235.039 111.694 234.652 112.524C233.362 115.271 233.564 119.383 237.584 120.397C235.316 119.346 234.542 115.824 236.127 113.815C237.086 112.616 238.745 111.842 238.967 110.293C239.188 108.652 237.658 107.398 236.902 105.923C236.035 104.209 236.349 101.941 237.639 100.558C238.266 99.8944 239.114 99.3597 239.335 98.4562C239.63 97.2209 238.598 96.1516 237.768 95.2481C236.92 94.3447 236.164 92.8881 236.92 91.9109C237.399 91.3025 238.266 91.2103 238.874 90.7493C240.184 89.7353 239.723 87.5781 238.948 86.0662C238.174 84.5728 237.178 82.8581 237.805 81.2724C238.487 79.5393 240.847 78.9677 241.364 77.1793C242.212 74.2662 237.584 72.533 237.344 69.4908C239.925 68.3293 241.695 65.6742 241.695 62.5767Z" fill="#261F14"/>
</g>
</g>
<defs>
<radialGradient id="paint0_radial_1607_4960" cx="0" cy="0" r="1" gradientUnits="userSpaceOnUse" gradientTransform="translate(263.192 140.323) rotate(5) scale(5.86853)">
<stop stop-color="#EFB698"/>
<stop offset="1" stop-color="#F3D9A6"/>
</radialGradient>
<radialGradient id="paint1_radial_1607_4960" cx="0" cy="0" r="1" gradientUnits="userSpaceOnUse" gradientTransform="translate(300.555 143.591) rotate(5) scale(5.86853)">
<stop stop-color="#EFB698"/>
<stop offset="1" stop-color="#F3D9A6"/>
</radialGradient>
<clipPath id="clip0_1607_4960">
<rect width="380" height="213.75" fill="white" transform="translate(0 0.750244)"/>
</clipPath>
<clipPath id="clip1_1607_4960">
<rect width="213.75" height="213.75" fill="white" transform="translate(83.125 0.748657)"/>
</clipPath>
</defs>
</svg>
