<svg width="116" height="40" viewBox="0 0 116 40" fill="none" xmlns="http://www.w3.org/2000/svg">
<g clip-path="url(#clip0_389_5573)">
<path d="M16.9355 8.58184C16.9355 4.82982 19.5646 2.18188 23.279 2.18188C25.165 2.18188 26.7453 2.79096 27.8694 4.01027L26.2315 5.57175C25.5272 4.79101 24.5172 4.33362 23.3167 4.33362C21.0685 4.33362 19.507 6.08559 19.507 8.58184C19.507 11.0781 21.0309 12.9054 23.2214 12.9054C25.2215 12.9054 26.6125 11.7625 26.6125 10.1057V9.78235H23.6224V7.70586H29.1275V9.6295C29.1275 12.7913 26.6701 15.0206 23.1462 15.0206C19.6223 15.0206 16.9367 12.3539 16.9367 8.58184H16.9355Z" fill="#EC0000"/>
<path d="M30.7258 10.0868C30.7258 7.17196 32.6882 5.15308 35.4878 5.15308C38.2874 5.15308 40.231 7.15314 40.231 10.0292C40.231 10.2573 40.1934 10.6195 40.1546 10.8676H33.1068C33.2785 12.1433 34.3637 13.0005 35.7547 13.0005C36.7836 13.0005 37.6783 12.6195 38.2686 11.934L39.6972 13.325C38.8401 14.4303 37.3538 15.0205 35.6395 15.0205C32.7446 15.0205 30.7246 12.9829 30.7246 10.0868H30.7258ZM33.1068 9.13439H37.85C37.6972 7.89626 36.7447 7.0579 35.469 7.0579C34.1932 7.0579 33.2408 7.89626 33.1068 9.13439Z" fill="#EC0000"/>
<path d="M44.4031 5.38237V6.65813H44.4408C44.917 5.6869 45.7553 5.15308 46.8406 5.15308C48.0599 5.15308 48.9735 5.6869 49.545 6.75337C50.1164 5.72453 51.1641 5.15308 52.4974 5.15308C54.8208 5.15308 55.9449 6.44883 55.9449 9.09559V14.7913H53.5827V9.49536C53.5827 7.9527 53.0489 7.20958 51.9448 7.20958C50.8407 7.20958 50.2493 8.02912 50.2493 9.57179V14.7913H47.8871V9.49536C47.8871 7.93388 47.3732 7.20958 46.2492 7.20958C45.1251 7.20958 44.5536 8.04794 44.5536 9.57179V14.7913H42.1914V5.38237H44.4031Z" fill="#EC0000"/>
<path d="M57.8117 10.0868C57.8117 7.17196 59.7741 5.15308 62.5737 5.15308C65.3733 5.15308 67.317 7.15314 67.317 10.0292C67.317 10.2573 67.2793 10.6195 67.2405 10.8676H60.1927C60.3644 12.1433 61.4496 13.0005 62.8406 13.0005C63.8695 13.0005 64.7643 12.6195 65.3545 11.934L66.7831 13.325C65.9261 14.4303 64.4397 15.0205 62.7254 15.0205C59.8306 15.0205 57.8105 12.9829 57.8105 10.0868H57.8117ZM60.1927 9.13439H64.9359C64.7831 7.89626 63.8307 7.0579 62.5549 7.0579C61.2792 7.0579 60.3267 7.89626 60.1927 9.13439Z" fill="#EC0000"/>
<path d="M68.6886 10.0868C68.6886 7.17196 70.6511 5.15308 73.4507 5.15308C76.2503 5.15308 78.1939 7.15314 78.1939 10.0292C78.1939 10.2573 78.1563 10.6195 78.1175 10.8676H71.0697C71.2413 12.1433 72.3266 13.0005 73.7176 13.0005C74.7464 13.0005 75.6412 12.6195 76.2315 11.934L77.6601 13.325C76.8029 14.4303 75.3167 15.0205 73.6024 15.0205C70.7075 15.0205 68.6875 12.9829 68.6875 10.0868H68.6886ZM71.0697 9.13439H75.8129C75.6601 7.89626 74.7076 7.0579 73.4319 7.0579C72.1561 7.0579 71.2037 7.89626 71.0697 9.13439Z" fill="#EC0000"/>
<path d="M82.3837 5.38237V6.65813H82.4213C82.8598 5.72453 83.8123 5.15308 84.9164 5.15308C87.2786 5.15308 88.4979 6.50527 88.4979 9.09559V14.7913H86.1357V9.55298C86.1357 7.9527 85.5642 7.20958 84.3637 7.20958C83.1632 7.20958 82.5165 8.04794 82.5165 9.60942V14.7901H80.1543V5.38237H82.3837Z" fill="#EC0000"/>
<path d="M91.5273 11.4203V7.34378H89.9082V5.38134H90.7653C91.5461 5.38134 91.8506 5.07681 91.8506 4.29607V2.82983H93.8695V5.38252H96.1553V7.34495H93.8695V11.4215C93.8695 12.3363 94.3457 12.8501 95.2217 12.8501C95.4886 12.8501 95.8119 12.8125 96.0024 12.7548V14.7361C95.7167 14.8125 95.1829 14.869 94.7643 14.869C92.6314 14.869 91.5261 13.6884 91.5261 11.4215L91.5273 11.4203Z" fill="#EC0000"/>
<path d="M97.3176 10.0868C97.3176 7.17196 99.28 5.15308 102.08 5.15308C104.879 5.15308 106.823 7.15314 106.823 10.0292C106.823 10.2573 106.785 10.6195 106.747 10.8676H99.6986C99.8702 12.1433 100.956 13.0005 102.347 13.0005C103.375 13.0005 104.27 12.6195 104.861 11.934L106.289 13.325C105.432 14.4303 103.946 15.0205 102.231 15.0205C99.3364 15.0205 97.3164 12.9829 97.3164 10.0868H97.3176ZM99.6986 9.13439H104.442C104.289 7.89626 103.337 7.0579 102.061 7.0579C100.785 7.0579 99.8326 7.89626 99.6986 9.13439Z" fill="#EC0000"/>
<path d="M24.2309 25.2678L29.1834 37.6491H26.5355L25.5066 34.9247H20.0015L18.9726 37.6491H16.4199L21.3725 25.2678H24.2309ZM20.7446 32.8682H24.7447L22.7635 27.6488H22.7258L20.7446 32.8682Z" fill="#EC0000"/>
<path d="M32.9539 28.2403V29.5161H32.9915C33.4677 28.5449 34.3061 28.011 35.3914 28.011C36.6107 28.011 37.5243 28.5448 38.0957 29.6113C38.6672 28.5825 39.7148 28.011 41.0482 28.011C43.3716 28.011 44.4957 29.3068 44.4957 31.9547V37.6504H42.1335V32.3545C42.1335 30.8118 41.5997 30.0687 40.4956 30.0687C39.3915 30.0687 38.8 30.8882 38.8 32.4309V37.6504H36.4378V32.3545C36.4378 30.793 35.924 30.0687 34.7999 30.0687C33.6759 30.0687 33.1044 30.9071 33.1044 32.4309V37.6504H30.7422V28.2403H32.9539Z" fill="#EC0000"/>
<path d="M48.8418 33.7067C47.5661 33.3257 46.3279 32.6402 46.3279 30.9259C46.3279 29.2115 47.7754 28.011 49.9283 28.011C51.3757 28.011 52.4998 28.5249 53.1288 29.4773L51.7767 30.8295C51.3004 30.2392 50.6526 29.9147 49.9483 29.9147C49.1487 29.9147 48.6525 30.2768 48.6525 30.8483C48.6525 31.6102 49.4521 31.7431 50.6149 32.1052C51.8907 32.4862 53.1288 33.1717 53.1288 34.886C53.1288 36.6003 51.605 37.8761 49.3568 37.8761C47.8906 37.8761 46.7089 37.3623 46.0234 36.3899L47.3756 35.0377C47.8894 35.6468 48.5761 35.9713 49.338 35.9713C50.2528 35.9713 50.8043 35.5903 50.8043 34.9613C50.8043 34.1993 50.0047 34.0665 48.8418 33.7043V33.7067Z" fill="#EC0000"/>
<path d="M55.623 34.278V30.2015H54.0039V28.239H54.8611C55.6419 28.239 55.9464 27.9345 55.9464 27.1538V25.6875H57.9653V28.2402H60.251V30.2026H57.9653V34.2792C57.9653 35.194 58.4415 35.7078 59.3174 35.7078C59.5844 35.7078 59.9077 35.6702 60.0982 35.6126V37.5938C59.8125 37.6702 59.2786 37.7267 58.8601 37.7267C56.7271 37.7267 55.6219 36.5462 55.6219 34.2792L55.623 34.278Z" fill="#EC0000"/>
<path d="M61.4113 32.9447C61.4113 30.0299 63.3738 28.011 66.1734 28.011C68.973 28.011 70.9166 30.0111 70.9166 32.8871C70.9166 33.1152 70.879 33.4774 70.8402 33.7255H63.7924C63.964 35.0012 65.0493 35.8584 66.4403 35.8584C67.4691 35.8584 68.3639 35.4775 68.9542 34.7919L70.3828 36.1829C69.5256 37.2882 68.0394 37.8785 66.3251 37.8785C63.4302 37.8785 61.4102 35.8408 61.4102 32.9447H61.4113ZM63.7924 31.9923H68.5356C68.3827 30.7542 67.4303 29.9158 66.1546 29.9158C64.8788 29.9158 63.9264 30.7542 63.7924 31.9923Z" fill="#EC0000"/>
<path d="M75.1082 28.2402V29.8017H75.1458C75.6032 28.7352 76.4416 28.1638 77.5457 28.1638C77.8314 28.1638 78.2312 28.2014 78.384 28.259V30.5072C78.1171 30.4308 77.6033 30.3743 77.2223 30.3743C76.0218 30.3743 75.2411 31.2891 75.2411 32.6977V37.6502H72.8789V28.2402H75.1082Z" fill="#EC0000"/>
<path d="M79.0508 32.9834C79.0508 30.0686 80.9744 28.0121 83.6988 28.0121C84.9557 28.0121 85.9846 28.5647 86.6324 29.5736H86.6701V23.8403H89.0323V37.6502H86.8041V36.184H86.7665C86.1574 37.2505 85.0145 37.8795 83.7 37.8795C80.9756 37.8795 79.052 35.8418 79.052 32.9846L79.0508 32.9834ZM86.6701 32.9458C86.6701 31.2503 85.6224 30.1262 84.0798 30.1262C82.5371 30.1262 81.4706 31.2691 81.4706 32.9458C81.4706 34.6225 82.5183 35.7654 84.0798 35.7654C85.6412 35.7654 86.6701 34.6413 86.6701 32.9458Z" fill="#EC0000"/>
<path d="M90.841 34.9636C90.841 33.154 92.346 32.0688 94.8599 32.0488L96.6883 32.03V31.7254C96.6883 30.6202 95.984 30.0487 94.7071 30.0487C93.8687 30.0487 93.1256 30.3721 92.6118 30.9635L91.1831 29.5725C92.0027 28.5625 93.3161 28.011 94.9352 28.011C97.4491 28.011 99.0493 29.382 99.0493 31.5726V35.3058C99.0493 35.6491 99.2022 35.8008 99.5832 35.8008H99.7548V37.648H98.6495C97.7548 37.648 97.1445 37.2294 96.954 36.5427H96.9164C96.3261 37.3999 95.3549 37.8761 94.1732 37.8761C92.192 37.8761 90.8398 36.6956 90.8398 34.9613L90.841 34.9636ZM96.6883 34.1441V33.6103L95.1268 33.6291C93.8887 33.6479 93.222 34.0865 93.222 34.9048C93.222 35.6291 93.7934 36.143 94.593 36.143C95.8311 36.143 96.6883 35.3234 96.6883 34.1429V34.1441Z" fill="#EC0000"/>
<path d="M103.814 28.2403V29.5161H103.851C104.328 28.5449 105.166 28.011 106.251 28.011C107.471 28.011 108.384 28.5448 108.956 29.6113C109.527 28.5825 110.575 28.011 111.908 28.011C114.232 28.011 115.356 29.3068 115.356 31.9547V37.6504H112.993V32.3545C112.993 30.8118 112.46 30.0687 111.356 30.0687C110.251 30.0687 109.66 30.8882 109.66 32.4309V37.6504H107.298V32.3545C107.298 30.793 106.784 30.0687 105.66 30.0687C104.536 30.0687 103.964 30.9071 103.964 32.4309V37.6504H101.602V28.2403H103.814Z" fill="#EC0000"/>
<path d="M0.5 37.6492L4.02744 34.1217L0.5 30.5943L2.85163 28.2427L6.37907 31.7701L9.90651 28.2427L12.2581 30.5943L8.73069 34.1217L12.2581 37.6492L9.90651 40.0008L6.37907 36.4734L2.85163 40.0008L0.5 37.6492Z" fill="#EC0000"/>
<path d="M0.5 23.5405L4.02744 20.013L0.5 16.4856L2.85163 14.134L6.37907 17.6614L9.90651 14.134L12.2581 16.4856L8.73069 20.013L12.2581 23.5405L9.90651 25.8921L6.37907 22.3647L2.85163 25.8921L0.5 23.5405Z" fill="#EC0000"/>
<path d="M0.5 9.40724L4.02744 5.8798L0.5 2.35236L2.85163 0.000732422L6.37907 3.52817L9.90651 0.000732422L12.2581 2.35236L8.73069 5.8798L12.2581 9.40724L9.90651 11.7588L6.37907 8.23142L2.8528 11.7588L0.5 9.40724Z" fill="#EC0000"/>
</g>
<defs>
<clipPath id="clip0_389_5573">
<rect width="115" height="40" fill="white" transform="translate(0.5 0.000732422)"/>
</clipPath>
</defs>
</svg>
