<svg width="98" height="64" viewBox="0 0 98 64" fill="none" xmlns="http://www.w3.org/2000/svg">
<g clip-path="url(#clip0_389_5474)">
<path d="M22.5418 50.925C21.3861 50.925 20.2303 50.9807 19.4783 50.9807H18.3086V52.0669C18.6706 52.1505 19.1023 52.2201 19.5201 52.2479V59.113C19.1023 59.1409 18.6706 59.2105 18.3086 59.2941V60.3802H19.5201C19.9796 60.3802 21.1493 60.4359 22.1241 60.4359C25.1876 60.4359 27.3042 58.751 27.3042 55.5203C27.3042 52.234 25.4522 50.925 22.5418 50.925ZM22.2912 58.932C21.9431 58.932 21.5532 58.9181 21.2886 58.8763V52.4568C21.581 52.429 21.9988 52.415 22.4165 52.415C24.5888 52.415 25.4104 53.6265 25.4104 55.6735C25.4104 57.9294 24.1154 58.932 22.2912 58.932ZM31.5793 53.3202C29.5323 53.3202 28.3208 54.9076 28.3208 56.9825C28.3208 59.4194 29.5323 60.5195 31.7324 60.5195C32.554 60.5195 33.4313 60.3663 34.2111 60.1017L34.0301 58.8067C33.3199 59.0434 32.6236 59.1687 31.9413 59.1687C30.6463 59.1687 30.0893 58.5143 30.0753 57.2749H34.3921C34.3921 57.2749 34.4478 56.7736 34.4478 56.2584C34.4478 54.6152 33.5984 53.3202 31.5793 53.3202ZM30.0893 56.1191C30.1867 55.1722 30.7438 54.6152 31.4957 54.6152C32.2616 54.6152 32.749 55.1304 32.7211 56.1191H30.0893ZM40.2686 53.3202C39.1267 53.3202 38.319 53.8911 37.9013 54.7266L37.8874 54.7127C37.957 54.3367 37.9848 53.7797 37.9848 53.4455C37.0658 53.4176 36.0075 53.4594 35.1302 53.5708V54.6431C35.534 54.6709 36.0075 54.7266 36.3417 54.7823V60.3942H38.0823V57.0521C38.0823 55.8128 38.7925 54.7823 39.7115 54.7823C40.3939 54.7823 40.6028 55.2279 40.6028 55.966V60.3942H42.3295V55.5203C42.3295 54.3089 41.8282 53.3202 40.2686 53.3202ZM70.9735 55.7571C70.9735 54.2253 70.3051 53.3202 68.1746 53.3202C67.3251 53.3202 66.3643 53.529 65.5984 53.8076L65.863 55.1165C66.5314 54.8519 67.3391 54.657 67.9657 54.657C68.8987 54.657 69.2189 55.0469 69.2189 55.8685V56.1609C66.796 56.1609 65.2085 56.9407 65.2085 58.57C65.2085 59.6979 65.9465 60.5334 67.1859 60.5334C68.2303 60.5334 69.0797 59.9764 69.4139 59.1966L69.4278 59.2105C69.3721 59.5726 69.3582 59.9903 69.3582 60.4081C70.2494 60.4359 71.3077 60.3942 72.185 60.2827V59.2105C71.7812 59.1827 71.3077 59.127 70.9735 59.0713V55.7571ZM69.2189 57.5116C69.2189 58.3332 68.6341 59.1966 67.7429 59.1966C67.2137 59.1966 66.8934 58.8345 66.8934 58.3611C66.8934 57.7623 67.3948 57.3028 69.2189 57.3028V57.5116ZM76.6271 53.3341C74.1902 53.3341 72.8534 54.9355 72.8534 57.2749C72.8534 59.3915 73.7725 60.5195 75.4296 60.5195C76.3486 60.5195 77.1284 60.0182 77.4905 59.2105L77.5183 59.2244C77.4487 59.5865 77.4348 59.8928 77.4348 60.241V60.6727C77.4348 61.8563 76.8082 62.3854 75.4853 62.3854C74.8029 62.3854 74.051 62.2601 73.4383 62.0373L73.2712 63.6109C73.856 63.7501 74.608 63.8476 75.3878 63.8476C78.0196 63.8476 79.1476 62.6083 79.1476 60.5056V53.543C78.3956 53.4176 77.588 53.3341 76.6271 53.3341ZM77.4209 56.7736C77.4209 57.9851 76.8499 59.0852 75.8891 59.0852C75.0675 59.0852 74.6776 58.4168 74.6776 57.1217C74.6776 55.3811 75.4156 54.7266 76.46 54.7266C76.8082 54.7266 77.1145 54.7684 77.4209 54.838V56.7736ZM52.7873 52.0948C53.1075 52.1644 53.4835 52.2201 53.8177 52.2479V54.7545H49.7655V52.2479C50.0997 52.2201 50.4757 52.1644 50.796 52.0948V50.9807H46.9248V52.0669C47.2868 52.1505 47.7185 52.2201 48.1363 52.2479V59.113C47.7185 59.1409 47.2868 59.2105 46.9248 59.2941V60.3802H50.796V59.2662C50.4757 59.1966 50.0997 59.1409 49.7655 59.113V56.2862H53.8177V59.113C53.4835 59.1409 53.1075 59.1966 52.7873 59.2662V60.3802H56.6585V59.2941C56.2964 59.2105 55.8647 59.1409 55.447 59.113V52.2479C55.8647 52.2201 56.2964 52.1505 56.6585 52.0669V50.9807H52.7873V52.0948ZM63.3008 55.7571C63.3008 54.2253 62.6324 53.3202 60.5018 53.3202C59.6524 53.3202 58.6915 53.529 57.9257 53.8076L58.1902 55.1165C58.8586 54.8519 59.6663 54.657 60.2929 54.657C61.2259 54.657 61.5462 55.0469 61.5462 55.8685V56.1609C59.1232 56.1609 57.5357 56.9407 57.5357 58.57C57.5357 59.6979 58.2738 60.5334 59.5131 60.5334C60.5575 60.5334 61.4069 59.9764 61.7411 59.1966L61.7551 59.2105C61.6994 59.5726 61.6854 59.9903 61.6854 60.4081C62.5766 60.4359 63.635 60.3942 64.5122 60.2827V59.2105C64.1084 59.1827 63.635 59.127 63.3008 59.0713V55.7571ZM61.5462 57.5116C61.5462 58.3332 60.9613 59.1966 60.0701 59.1966C59.541 59.1966 59.2207 58.8345 59.2207 58.3611C59.2207 57.7623 59.722 57.3028 61.5462 57.3028V57.5116Z" fill="#155429"/>
<path d="M69.2596 37.6265H57.2422V44.3384H69.2596C78.0046 44.3384 81.2213 43.67 81.2213 43.67V36.8884C81.2213 36.8884 77.9628 37.6265 69.2596 37.6265Z" fill="#1D6B34"/>
<path d="M41.6606 35.9277L43.8469 41.0521C45.4622 41.0382 47.1054 41.0243 48.7764 41.0243C51.3108 41.0243 53.7894 41.0521 56.1985 41.08V36.4011L66.2803 35.0922C66.2803 35.0922 64.8739 34.8555 61.0723 34.5769C57.2707 34.2984 51.7981 34.3959 51.7981 34.3959C51.7981 34.3959 49.598 35.134 48.7625 35.2871C47.913 35.134 45.7268 34.3959 45.7268 34.3959C45.7268 34.3959 40.296 34.2984 36.4944 34.5769C32.6928 34.8555 30.1585 35.2593 30.1445 35.2593L41.6606 35.9277Z" fill="#1D6B34"/>
<path d="M41.1735 36.5822L41.1874 41.0939C42.0647 41.08 42.942 41.0661 43.8471 41.0521L41.6609 35.9277L30.1309 35.2593V36.5543C37.915 36.5265 41.1735 36.5822 41.1735 36.5822Z" fill="#155429"/>
<path d="M40.1289 37.6265H28.2508C19.5475 37.6265 16.2891 36.8884 16.2891 36.8884V43.67C16.2891 43.67 19.5058 44.3384 28.2508 44.3384H40.1289V37.6265Z" fill="#1D6B34"/>
<path d="M17.3474 37.0695C16.6093 36.972 16.2891 36.8884 16.2891 36.8884V43.67C16.2891 43.67 17.4448 43.9067 20.2717 44.1017C18.3918 41.999 17.4866 39.381 17.3474 37.0695Z" fill="#155429"/>
<path d="M20.2715 39.2556H21.5526V39.6594H21.2045L22.0121 41.9153C22.04 42.0128 22.0678 42.1103 22.0957 42.2077H22.1096C22.1375 42.1103 22.1514 41.9989 22.1932 41.9153L22.9869 39.6594H22.597V39.2556H23.8502V39.6594H23.5439L22.3742 42.6673H21.7754L20.5918 39.6594H20.2993V39.2556H20.2715Z" fill="white"/>
<path d="M24.1565 42.2635H24.4907L24.5046 39.6455H24.1426V39.2417H25.6743C26.3706 39.2417 26.7048 39.6455 26.7048 40.1468C26.7048 40.7317 26.3288 41.0102 25.8971 41.052V41.0659C26.0921 41.0798 26.2174 41.2469 26.3288 41.4419L26.7048 42.0685C26.8023 42.2356 26.8998 42.2774 27.0112 42.2774H27.1365V42.6812H26.8162C26.5238 42.6812 26.3985 42.6534 26.2035 42.3192L25.73 41.5254C25.5908 41.2748 25.5212 41.233 25.3541 41.233H25.0616L25.0477 42.2913H25.4376V42.6951H24.1565V42.2635ZM25.4794 40.7735C25.8693 40.7735 26.1339 40.5646 26.1339 40.2025C26.1339 39.8405 25.9111 39.6455 25.5212 39.6455H25.0616L25.0477 40.7735H25.4794Z" fill="white"/>
<path d="M27.5535 42.2635H27.9016V39.6455H27.5117V39.2417H29.9068L29.9208 40.1329H29.4612L29.4334 39.6316H28.4586L28.4447 40.6899H29.4195V41.1216H28.4447L28.4308 42.2495H29.4752L29.5169 41.6925H29.9765L29.9347 42.6534H27.5396V42.2635H27.5535Z" fill="white"/>
<path d="M30.5195 42.2635H30.8677L30.8816 39.6455H30.5195V39.2417H32.1348C33.2349 39.2417 33.8616 39.8823 33.8616 40.8709C33.8616 41.8736 33.221 42.6534 32.1348 42.6534H30.5195V42.2635ZM31.9677 42.2635C32.8033 42.2635 33.2628 41.7622 33.2628 40.8988C33.2628 40.1329 32.8172 39.6455 31.9817 39.6455H31.4247L31.4107 42.2635H31.9677Z" fill="white"/>
<path d="M34.2525 42.2635H34.6006L34.6145 39.6455H34.2246V39.2417H36.6197L36.6337 40.1329H36.1741L36.1463 39.6316H35.1576L35.1437 40.6899H36.1184V41.1216H35.1437L35.1297 42.2495H36.1741L36.2159 41.6925H36.6754L36.6337 42.6534H34.2385V42.2635H34.2525Z" fill="white"/>
<path d="M60.7385 42.2635H61.0727L61.0867 39.6455H60.7246V39.2417H62.2425C62.9387 39.2417 63.2729 39.6455 63.2729 40.1468C63.2729 40.7317 62.8969 41.0102 62.4653 41.052V41.0659C62.6602 41.0798 62.7855 41.2469 62.8969 41.4419L63.2729 42.0685C63.3704 42.2356 63.4679 42.2774 63.5793 42.2774H63.7046V42.6812H63.3843C63.0919 42.6812 62.9666 42.6534 62.7716 42.3192L62.2981 41.5254C62.1589 41.2748 62.0893 41.233 61.9222 41.233H61.6297L61.6158 42.2913H62.0057V42.6951H60.7246V42.2635H60.7385ZM62.0614 40.7735C62.4513 40.7735 62.7159 40.5646 62.7159 40.2025C62.7159 39.8405 62.4931 39.6455 62.1032 39.6455H61.6437L61.6297 40.7735H62.0614Z" fill="white"/>
<path d="M64.1216 42.2635H64.4697L64.4837 39.6455H64.0938V39.2417H66.4889L66.5028 40.1329H66.0572L66.0293 39.6316H65.0407L65.0267 40.6899H66.0015V41.1216H65.0267L65.0128 42.2495H66.0572L66.099 41.6925H66.5585L66.5167 42.6534H64.1216V42.2635Z" fill="white"/>
<path d="M69.3585 40.2443V39.7013C69.2332 39.6734 69.0382 39.6177 68.7737 39.6177C67.966 39.6177 67.5343 40.119 67.5343 40.9684C67.5343 41.7483 68.0078 42.2913 68.704 42.2913C68.9408 42.2913 69.1914 42.2635 69.3167 42.2356L69.3307 41.6229H69.8181L69.8041 42.5559C69.5813 42.6255 69.1496 42.723 68.7458 42.723C67.5204 42.723 66.9355 41.9571 66.9355 40.9963C66.9355 39.938 67.6457 39.2 68.7876 39.2C69.2193 39.2 69.6231 39.2974 69.8459 39.381V40.2583H69.3585V40.2443Z" fill="white"/>
<path d="M72.5055 42.2635H72.8537L72.8676 41.1634H71.2801L71.2662 42.2635H71.6283V42.6673H70.375V42.2635H70.7231L70.7371 39.6455H70.375V39.2417H71.6283V39.6455H71.2801L71.2662 40.7317H72.8537L72.8676 39.6455H72.5055V39.2417H73.7588V39.6455H73.4107L73.3968 42.2635H73.7588V42.6673H72.5055V42.2635Z" fill="white"/>
<path d="M75.0538 42.2634H75.402L75.4159 39.6455H74.6221L74.6082 40.1468H74.1348L74.1487 39.2556H77.2401L77.254 40.1468H76.7805L76.7666 39.6455H75.9868L75.9729 42.2634H76.3628V42.6673H75.0678V42.2634H75.0538Z" fill="white"/>
<path d="M48.9277 7.03282C52.1862 7.03282 54.637 7.18599 56.2802 7.3531L56.6562 4.38704C55.0548 4.24779 52.047 3.89966 48.7885 3.89966C45.4882 3.89966 42.3968 4.26171 40.7676 4.40096L41.1575 7.4088C42.7589 7.22777 45.3629 7.03282 48.9277 7.03282ZM54.1218 5.70993C54.1496 5.45928 54.4421 5.3061 54.8598 5.3061C54.9295 5.3061 54.9852 5.3061 55.0548 5.32002C55.2776 5.34787 55.4725 5.4175 55.6257 5.51498C55.8067 5.62638 55.8903 5.77955 55.8624 5.93273C55.8346 6.16946 55.5422 6.33656 55.1244 6.33656C55.0548 6.33656 54.9991 6.33656 54.9295 6.32263C54.4282 6.25301 54.08 5.98843 54.1218 5.70993ZM51.8659 4.97189L52.8685 5.51498L51.8381 6.01628L50.8355 5.4732L51.8659 4.97189ZM48.7049 4.87442C49.248 4.87442 49.6518 5.11115 49.6518 5.4175C49.6518 5.72385 49.248 5.96058 48.7049 5.96058C48.1618 5.96058 47.758 5.72385 47.758 5.4175C47.758 5.09722 48.1758 4.87442 48.7049 4.87442ZM45.5578 4.97189L46.5883 5.45928L45.5857 6.00236L44.5552 5.50105L45.5578 4.97189ZM41.798 5.50105C41.9512 5.40357 42.1462 5.33395 42.369 5.3061C42.4386 5.29217 42.4943 5.29217 42.5639 5.29217C42.9817 5.29217 43.2741 5.45928 43.302 5.696C43.3437 5.98843 42.9817 6.23908 42.4943 6.30871C42.4247 6.32263 42.369 6.32263 42.2993 6.32263C41.8816 6.32263 41.5892 6.15553 41.5613 5.91881C41.5335 5.76563 41.617 5.61245 41.798 5.50105Z" fill="#E3C029"/>
<path d="M49.5552 0.808382C49.5552 0.376702 49.207 0.0146484 48.7614 0.0146484C48.3297 0.0146484 47.9677 0.362777 47.9677 0.808382C47.9677 1.24006 48.3158 1.60212 48.7614 1.60212C49.1931 1.60212 49.5552 1.24006 49.5552 0.808382ZM41.1304 1.33754C41.1304 0.905858 40.7823 0.543804 40.3367 0.543804C39.905 0.543804 39.543 0.891933 39.543 1.33754C39.543 1.76922 39.8911 2.13127 40.3367 2.13127C40.7684 2.13127 41.1304 1.78314 41.1304 1.33754ZM47.8563 1.78314C47.4246 1.78314 47.0626 2.13127 47.0626 2.57688C47.0626 3.00856 47.4107 3.37061 47.8563 3.37061C48.288 3.37061 48.65 3.02248 48.65 2.57688C48.65 2.13127 48.288 1.78314 47.8563 1.78314ZM46.046 1.90847C45.6143 1.90847 45.2523 2.2566 45.2523 2.7022C45.2523 3.13388 45.6004 3.49594 46.046 3.49594C46.4916 3.49594 46.8397 3.14781 46.8397 2.7022C46.8258 2.27052 46.4777 1.90847 46.046 1.90847ZM44.2218 2.04772C43.7901 2.04772 43.4281 2.39585 43.4281 2.84145C43.4281 3.27313 43.7762 3.63519 44.2218 3.63519C44.6535 3.63519 45.0156 3.28706 45.0156 2.84145C45.0156 2.39585 44.6674 2.04772 44.2218 2.04772ZM42.4116 2.17305C41.9799 2.17305 41.6178 2.52118 41.6178 2.96678C41.6178 3.39846 41.9659 3.76051 42.4116 3.76051C42.8432 3.76051 43.2053 3.41239 43.2053 2.96678C43.2053 2.5351 42.8572 2.17305 42.4116 2.17305ZM40.6013 2.3123C40.1696 2.3123 39.8075 2.66043 39.8075 3.10603C39.8075 3.53771 40.1557 3.89977 40.6013 3.89977C41.033 3.89977 41.395 3.55164 41.395 3.10603C41.395 2.66043 41.033 2.3123 40.6013 2.3123ZM49.6666 1.78314C49.2349 1.78314 48.8728 2.13127 48.8728 2.57688C48.8728 2.925 49.0956 3.20351 49.388 3.31491L50.1679 1.96417C50.0425 1.85277 49.8615 1.78314 49.6666 1.78314Z" fill="#E3C029"/>
<path d="M57.1865 0.557617C56.7548 0.557617 56.3928 0.905746 56.3928 1.35135C56.3928 1.78303 56.7409 2.14508 57.1865 2.14508C57.6182 2.14508 57.9802 1.79696 57.9802 1.35135C57.9802 0.905746 57.6182 0.557617 57.1865 0.557617ZM56.9219 2.31219C56.4902 2.31219 56.1282 2.66032 56.1282 3.10592C56.1282 3.5376 56.4763 3.89965 56.9219 3.89965C57.3536 3.89965 57.7157 3.55152 57.7157 3.10592C57.7157 2.66032 57.3536 2.31219 56.9219 2.31219ZM55.1117 2.17293C54.68 2.17293 54.3179 2.52106 54.3179 2.96667C54.3179 3.39835 54.6661 3.7604 55.1117 3.7604C55.5433 3.7604 55.9054 3.41227 55.9054 2.96667C55.8915 2.53499 55.5433 2.17293 55.1117 2.17293ZM53.2875 2.04761C52.8558 2.04761 52.4937 2.39574 52.4937 2.84134C52.4937 3.27302 52.8419 3.63508 53.2875 3.63508C53.7191 3.63508 54.0812 3.28695 54.0812 2.84134C54.0812 2.39574 53.7331 2.04761 53.2875 2.04761ZM51.4772 1.90836C51.0455 1.90836 50.6835 2.25649 50.6835 2.70209C50.6835 3.13377 51.0316 3.49582 51.4772 3.49582C51.9089 3.49582 52.2709 3.1477 52.2709 2.70209C52.2709 2.27041 51.9228 1.90836 51.4772 1.90836ZM50.1822 1.96406L49.4023 3.3148C49.4859 3.34265 49.5694 3.35657 49.6669 3.35657C50.0986 3.35657 50.4607 3.00844 50.4607 2.56284C50.4607 2.32611 50.3493 2.10331 50.1822 1.96406Z" fill="#D2AD15"/>
<path d="M48.7058 5.94666C48.3856 5.94666 48.1071 5.8631 47.94 5.73778L47.1602 7.04674C47.7172 7.03282 48.302 7.03282 48.9147 7.03282C52.1732 7.03282 54.624 7.18599 56.2672 7.3531L56.6432 4.38704C55.0836 4.24779 52.2011 3.91358 49.0401 3.89966L48.4413 4.90227C48.5248 4.88834 48.6084 4.88834 48.7058 4.88834C49.2489 4.88834 49.6528 5.12507 49.6528 5.43143C49.6528 5.72385 49.2489 5.94666 48.7058 5.94666ZM54.1227 5.70993C54.1506 5.45928 54.443 5.3061 54.8608 5.3061C54.9304 5.3061 54.9861 5.3061 55.0557 5.32002C55.2785 5.34787 55.4735 5.4175 55.6267 5.51498C55.8077 5.62638 55.8912 5.77955 55.8634 5.93273C55.8355 6.16946 55.5431 6.33656 55.1253 6.33656C55.0557 6.33656 55 6.33656 54.9304 6.32263C54.4291 6.25301 54.081 5.98843 54.1227 5.70993ZM51.8669 4.9719L52.8695 5.51498L51.839 6.01628L50.8364 5.4732L51.8669 4.9719Z" fill="#D2AD15"/>
<path d="M56.1973 36.401V36.5681H67.4209V35.2591C67.4209 35.2591 67.0032 35.1895 66.2791 35.106L56.1973 36.401Z" fill="#155429"/>
<path d="M80.4827 43.7953C80.984 43.7117 81.2068 43.6839 81.2068 43.6839V36.9023C81.2068 36.9023 80.3992 37.0834 78.5332 37.2644C79.8143 38.7962 80.3156 41.3166 80.4827 43.7953Z" fill="#155429"/>
<path d="M45.9773 38.9773H46.2697L46.2837 36.7214H45.9355V36.3733H48.0104L48.0243 37.1531H47.6344L47.6066 36.7214H46.7571L46.7432 37.6266H47.5926V38.0025H46.7432L46.7293 38.9773H47.6344L47.6623 38.4899H48.0522L48.0243 39.3115H45.9634V38.9773H45.9773Z" fill="white"/>
<path d="M48.5677 38.9773H48.8601L48.874 36.7214H48.498V36.3733H49.2779L50.6425 38.1557C50.7261 38.2671 50.8514 38.4621 50.9349 38.6013H50.9489L50.9349 36.7214H50.6007V36.3733H51.6312V36.7214H51.3388L51.3249 39.3254H50.9349L49.4728 37.4177C49.3893 37.3063 49.3057 37.1949 49.2639 37.1113L49.25 37.1252L49.2639 39.0051H49.5842V39.3533H48.5537V38.9773H48.5677Z" fill="white"/>
<path d="M80.4277 16.5854C80.4277 15.0536 78.3807 15.541 77.2528 15.541C76.1249 15.541 76.2084 14.0928 76.2084 14.0928C76.5844 14.0928 77.3085 14.0928 78.339 14.0928C80.0518 14.0928 81.1518 15.1372 80.4277 16.5854Z" fill="#D2AD15"/>
<path d="M73.799 13.4523C74.3003 12.951 74.8155 12.6725 75.5535 12.6725C77.1828 12.6725 79.55 12.575 79.8703 11.7117C80.1628 12.018 80.1349 12.6168 79.4386 13.3131C81.2768 13.3131 81.597 13.7308 81.792 14.1207C82.2654 15.1373 81.4439 16.5855 80.4413 16.5855C81.1654 15.1373 80.0653 14.0929 78.3664 14.0929C77.322 14.0929 76.6118 14.0929 76.2359 14.0929H75.9156H75.5674C75.3168 14.0929 75.0383 14.2182 74.8155 14.4549C74.3281 14.9423 74.3281 15.7221 74.8155 16.2095L78.1715 19.5933C78.3803 19.8022 78.5335 20.0528 78.6588 20.3035L73.0888 16.0285C72.852 15.1373 73.0888 14.1486 73.799 13.4523Z" fill="#EFD544"/>
<path d="M69.8037 10.1381C69.7759 10.0407 69.762 9.94319 69.748 9.84572C70.2354 9.27479 71.057 9.03806 72.171 9.51151C73.5635 10.0964 74.8307 9.07983 74.8307 9.07983C73.8699 10.918 72.547 10.3192 71.3912 9.95712C70.7646 9.76217 70.1658 9.95712 69.8037 10.1381Z" fill="#B98F16"/>
<path d="M63.9412 17.0452C62.7575 16.3629 61.8106 15.8755 61.7967 15.8755L62.2423 17.825C62.2423 17.825 60.9055 19.9973 60.1953 21.181C60.2092 21.1949 60.2232 21.1949 60.2371 21.2088C60.2371 21.1949 63.9412 17.0452 63.9412 17.0452Z" fill="#B98F16"/>
<path d="M70.3464 13.9677C70.3464 12.5334 69.3855 11.9486 68.9539 11.7676C68.3133 11.7397 67.6588 11.7954 67.0879 12.0321C67.2689 13.7171 69.6919 15.9729 71.154 16.4743C71.168 16.4743 71.1819 16.4882 71.1819 16.4882C70.4856 15.9451 71.6414 13.9677 70.3464 13.9677Z" fill="#D2AD15"/>
<path d="M65.4166 17.9224C64.9153 17.6161 64.414 17.3237 63.9406 17.0452L60.2365 21.1949C60.0276 21.0835 59.8048 21.0138 59.5542 21.0138V22.476C58.9275 22.6152 58.5098 23.1305 58.5098 23.9242H59.5542V25.2192C59.6934 25.3724 59.9023 25.4699 60.1251 25.4838L65.4166 17.9224Z" fill="#E3C029"/>
<path d="M70.8617 17.8667C69.4135 18.7718 66.5449 18.6465 66.5449 18.6465C66.5449 18.6465 67.3526 19.1478 68.202 19.9555L73.8556 20.8467C73.8556 20.8467 72.0314 19.0364 70.8617 17.8667Z" fill="#D2AD15"/>
<path d="M77.0442 28.06C76.3898 28.06 74.4124 27.7954 74.4124 26.3472C74.4124 25.4978 74.4124 23.3394 74.4124 23.3394L72.9085 25.8041L72.8945 28.2967C75.3314 31.0957 74.7187 34.2845 73.6047 35.5656V36.5265C74.301 36.5125 74.9833 36.4986 75.6239 36.4708L75.4568 35.7467L76.3619 34.1731C76.348 34.187 75.9581 29.1461 77.0442 28.06Z" fill="#D2AD15"/>
<path d="M65.4166 17.9224L60.125 25.4837C60.1389 25.4837 60.1389 25.4837 60.1529 25.4837C60.2364 25.4837 62.0188 24.1608 62.0188 24.1608L66.5306 18.6465C66.1824 18.3958 65.8065 18.1591 65.4166 17.9224Z" fill="#EFD544"/>
<path d="M67.0884 12.0181C65.1389 13.0346 64.2338 15.945 61.7969 15.8614C61.7969 15.8614 64.568 17.2957 66.5454 18.6325C66.5454 18.6325 71.6698 18.8692 71.6698 16.5577C70.3608 16.5716 67.2973 13.9258 67.0884 12.0181Z" fill="#F6E477"/>
<path d="M62.1725 14.1347C62.5902 13.0346 62.7573 11.2522 63.2169 9.4837L61.0028 8.07726L60.4736 7.1582H57.981L57.5215 7.96586C58.4823 8.06334 59.095 8.13296 59.1229 8.13296L59.5546 8.18866V11.67L62.1725 14.1347Z" fill="#E3C029"/>
<path d="M65.1666 5.66836V4.17837L66.6984 4.8607C66.6844 4.77715 66.6566 4.3594 67.3807 3.95557C67.3528 4.40117 68.0073 4.73538 68.7593 4.9721C67.9795 6.7963 66.8098 9.59525 67.0743 12.0322C65.1248 13.0487 64.2197 15.959 61.7828 15.8755C61.7828 15.8755 61.1561 15.5831 60.9473 15.221C63.2867 15.2071 62.0334 8.81544 65.1666 5.66836Z" fill="#EFD544"/>
<path d="M71.5158 29.8702C72.2678 30.6221 72.7134 31.4994 72.7134 32.3488C72.7134 34.2566 71.4183 34.9528 71.4183 34.9528C69.8866 34.4655 69.4549 36.0111 69.3574 36.5821C69.9005 36.5821 70.4575 36.5821 71.0424 36.5821C71.8779 36.5821 72.7969 36.5682 73.5907 36.5542V35.5934C74.7047 34.3123 75.3174 31.1234 72.8805 28.3245L71.5158 29.8702Z" fill="#EFD544"/>
<path d="M70.0262 27.2105C70.0262 26.9041 70.0262 26.3749 70.0262 26.0825C70.0262 26.1521 70.0262 26.2218 70.0262 26.2914L65.2777 27.3915L62.1445 33.5743C63.0914 33.6578 63.927 33.7274 64.665 33.811L64.3586 33.0172L68.188 27.5586L70.0262 27.2105Z" fill="#EFD544"/>
<path d="M63.0623 27.9068C62.7141 30.9982 60.6811 31.973 60.6811 31.973C60.6811 31.973 60.2912 31.8755 59.8873 31.8755C58.9961 31.8755 58.5645 33.3516 58.5645 33.3516C59.0379 33.3794 59.5253 33.4073 60.0266 33.4351C60.4443 33.463 60.8482 33.4769 61.252 33.5047C61.5584 33.5326 61.8508 33.5465 62.1432 33.5744L65.2903 27.3916L63.0623 27.9068Z" fill="#E3C029"/>
<path d="M70.0253 24.3696L67.9923 22.8796L62.2969 27.5863C62.2969 27.5863 62.5893 28.0041 63.0628 27.9205L70.0253 26.3052C70.0253 25.5533 70.0253 24.8849 70.0253 24.3696Z" fill="#D2AD15"/>
<path d="M66.545 18.6465L64.9297 20.6378L70.0263 24.3836C70.0263 23.7988 70.0263 23.4228 70.0263 23.4228C70.0263 23.1025 69.9706 22.7823 69.8731 22.4759C69.5807 21.4872 68.8844 20.6239 68.2021 19.9694C67.3805 19.1617 66.5868 18.6743 66.545 18.6465Z" fill="#EFD544"/>
<path d="M72.49 7.31136L71.181 6.3366L70.9582 5.40361C70.9582 5.40361 69.7746 5.27829 68.772 4.95801C67.9921 6.7822 66.8224 9.58116 67.087 12.0181C68.8973 11.28 71.6545 12.2826 71.6545 12.2826L71.2228 11.1129L71.8633 10.3749L69.9834 10.5977C69.4264 9.34443 69.886 8.73172 71.0975 8.73172C71.5988 8.73172 71.9887 8.98238 71.9887 8.98238L72.2532 8.13294L72.0304 7.71519L72.3507 7.74304L72.49 7.31136ZM69.5935 6.47585C69.2454 6.48977 68.9669 6.26697 68.953 5.97454C68.953 5.94669 68.953 5.90492 68.9669 5.87707C69.3847 5.90492 69.8303 5.96062 70.1923 6.01632C70.1505 6.26697 69.8999 6.46192 69.5935 6.47585Z" fill="#E3C029"/>
<path d="M17.0831 16.5855C17.0831 15.0537 19.1301 15.5411 20.258 15.5411C21.386 15.5411 21.3024 14.0929 21.3024 14.0929C20.9264 14.0929 20.2023 14.0929 19.1719 14.0929C17.4452 14.079 16.359 15.1373 17.0831 16.5855Z" fill="#D2AD15"/>
<path d="M23.7107 13.4523C23.2094 12.951 22.6942 12.6725 21.9561 12.6725C20.3269 12.6725 17.9596 12.575 17.6393 11.7117C17.3469 12.018 17.3748 12.6168 18.071 13.3131C16.2329 13.3131 15.9126 13.7308 15.7177 14.1207C15.2442 15.1373 16.0658 16.5855 17.0684 16.5855C16.3443 15.1373 17.4444 14.0929 19.1432 14.0929C20.1876 14.0929 20.8978 14.0929 21.2738 14.0929H21.5941H21.9422C22.1929 14.0929 22.4714 14.2182 22.6942 14.4549C23.1815 14.9423 23.1815 15.7221 22.6942 16.2095L19.3103 19.5933C19.1015 19.8022 18.9483 20.0528 18.823 20.3035L24.393 16.0285C24.6437 15.1373 24.407 14.1486 23.7107 13.4523Z" fill="#E3C029"/>
<path d="M27.693 10.1381C27.7208 10.0407 27.7348 9.94319 27.7487 9.84572C27.2613 9.27479 26.4397 9.03806 25.3257 9.51151C23.9332 10.0964 22.666 9.07983 22.666 9.07983C23.6269 10.918 24.9497 10.3192 26.1055 9.95712C26.7461 9.76217 27.3309 9.95712 27.693 10.1381Z" fill="#B98F16"/>
<path d="M33.5706 17.0452C34.7543 16.3629 35.7012 15.8755 35.7151 15.8755L35.2695 17.825C35.2695 17.825 36.6063 19.9973 37.3165 21.181C37.3026 21.1949 37.2887 21.1949 37.2747 21.2088L33.5706 17.0452Z" fill="#E3C029"/>
<path d="M28.5564 11.7536C28.1247 11.9486 27.1639 12.5334 27.1639 13.9538C25.8549 13.9538 27.0107 15.9312 26.3145 16.4742C26.3284 16.4742 26.3423 16.4603 26.3423 16.4603C27.8044 15.959 30.2274 13.7031 30.4084 12.0182C29.8514 11.7954 29.197 11.7258 28.5564 11.7536Z" fill="#D2AD15"/>
<path d="M32.0941 17.9085C32.5954 17.6022 33.0967 17.3098 33.5701 17.0312L37.2742 21.1809C37.4831 21.0695 37.7059 20.9999 37.9566 20.9999V22.4621C38.5832 22.6013 39.001 23.1165 39.001 23.9103H37.9566V25.2053C37.8173 25.3585 37.6084 25.456 37.3856 25.4699L32.0941 17.9085C32.0941 17.9225 32.0802 17.9225 32.0941 17.9085Z" fill="#EFD544"/>
<path d="M26.6485 17.8667C28.0967 18.7718 30.9653 18.6465 30.9653 18.6465C30.9653 18.6465 30.1576 19.1478 29.3082 19.9555L23.6406 20.8606C23.6546 20.8467 25.4787 19.0225 26.6485 17.8667Z" fill="#E3C029"/>
<path d="M20.4668 28.06C21.1213 28.06 23.0986 27.7954 23.0986 26.3472C23.0986 25.4978 23.0986 23.3394 23.0986 23.3394L24.6026 25.8041L24.6165 28.2967C22.1796 31.0957 22.7923 34.2845 23.9063 35.5656V36.5265C23.2101 36.5125 22.5277 36.4986 21.8872 36.4708L22.0543 35.7467L21.1491 34.1731C21.1491 34.187 21.539 29.1461 20.4668 28.06Z" fill="#F6E477"/>
<path d="M23.9064 36.5403C24.7002 36.5542 25.6053 36.5682 26.4547 36.5682C27.0396 36.5682 27.6105 36.5682 28.1397 36.5682C28.0283 35.9972 27.6105 34.4515 26.0788 34.9389C26.0788 34.9389 24.7837 34.2427 24.7837 32.3349C24.7837 31.4855 25.2293 30.6221 25.9813 29.8562L24.6166 28.2966C22.1797 31.0956 22.7924 34.2844 23.9064 35.5656V36.5403Z" fill="#E3C029"/>
<path d="M32.0789 17.9224L37.3704 25.4837C37.3565 25.4837 37.3565 25.4837 37.3426 25.4837C37.259 25.4837 35.4766 24.1608 35.4766 24.1608L30.9648 18.6325C31.313 18.3958 31.689 18.1591 32.0789 17.9224Z" fill="#D2AD15"/>
<path d="M25.8418 16.5716C25.8418 18.8832 30.9663 18.6464 30.9663 18.6464C32.9436 17.3096 35.7008 15.8753 35.7147 15.8753C33.2778 15.9589 32.3866 13.0346 30.4232 12.032C30.2143 13.9258 27.1368 16.5716 25.8418 16.5716Z" fill="#F6E477"/>
<path d="M35.3374 14.1347C34.9196 13.0346 34.7525 11.2522 34.293 9.4837L36.5071 8.07726L37.0362 7.1582H39.5288L39.9884 7.96586C39.0275 8.06334 38.4148 8.13296 38.387 8.13296L37.9553 8.18866V11.67L35.3374 14.1347Z" fill="#D2AD15"/>
<path d="M32.331 5.66836V4.17837L30.7992 4.8607C30.8131 4.77715 30.841 4.3594 30.1169 3.95557C30.1447 4.40117 29.4902 4.73538 28.7383 4.9721C29.5181 6.7963 30.6878 9.59525 30.4232 12.0322C32.3727 13.0487 33.2779 15.959 35.7148 15.8755C35.7148 15.8755 36.3414 15.5831 36.5503 15.221C34.2248 15.2071 35.4781 8.81544 32.331 5.66836Z" fill="#E3C029"/>
<path d="M19.3375 23.3393C19.8388 23.8406 20.5073 24.1191 21.2174 24.1191C21.9276 24.1191 22.596 23.8406 23.0973 23.3393L24.6012 25.804L24.6152 28.2966L27.4698 31.569C27.4698 30.6639 27.4838 23.395 27.4838 23.395C27.4838 23.0747 27.5395 22.7544 27.6369 22.4481C27.9294 21.4594 28.6256 20.596 29.3079 19.9415L23.6404 20.8467L22.4846 21.9885C22.4846 21.9885 21.2314 23.2418 20.3262 22.3367C19.8388 21.8493 19.8388 21.0695 20.3262 20.5821L23.71 17.1983C24.0442 16.8641 24.267 16.4602 24.3924 16.0286L18.8223 20.3036C18.3489 21.2923 18.516 22.5177 19.3375 23.3393Z" fill="#EFD544"/>
<path d="M27.4844 27.1965C27.4844 26.8902 27.4844 26.361 27.4844 26.0686C27.4844 26.1382 27.4844 26.2079 27.4844 26.2775L32.2189 27.3915L35.3521 33.5743C34.4052 33.6578 33.5697 33.7274 32.8316 33.811L33.138 33.0173L29.3086 27.5586L27.4844 27.1965Z" fill="#F6E477"/>
<path d="M34.4328 27.9068C34.781 30.9982 36.8141 31.973 36.8141 31.973C36.8141 31.973 37.204 31.8755 37.6078 31.8755C38.499 31.8755 38.9307 33.3516 38.9307 33.3516C38.4572 33.3794 37.9698 33.4073 37.4685 33.4351C37.0508 33.463 36.6469 33.4769 36.2431 33.5047C35.9368 33.5326 35.6443 33.5465 35.3519 33.5744L32.2188 27.3916L34.4328 27.9068Z" fill="#D2AD15"/>
<path d="M27.4846 24.3696L29.5177 22.8796L35.1992 27.5863C35.1992 27.5863 34.9067 28.0041 34.4333 27.9205L27.4707 26.3052C27.4846 25.5533 27.4846 24.8709 27.4846 24.3696Z" fill="#E3C029"/>
<path d="M30.9657 18.6326L32.581 20.6239L27.4844 24.3697C27.4844 23.7849 27.4844 23.4089 27.4844 23.4089C27.4844 23.0886 27.5401 22.7683 27.6376 22.462C27.93 21.4733 28.6262 20.6099 29.3086 19.9555C30.1302 19.1617 30.91 18.6743 30.9657 18.6326Z" fill="#B98F16"/>
<path d="M28.7375 4.95801C27.7349 5.26436 26.5513 5.40361 26.5513 5.40361L26.3285 6.3366L25.0195 7.31136L25.1588 7.72911L25.4791 7.70126L25.2563 8.11902L25.5208 8.96845C25.5208 8.96845 25.9107 8.7178 26.412 8.7178C27.6235 8.7178 28.0831 9.33051 27.5261 10.5838L25.6462 10.361L26.2867 11.099L25.855 12.2687C25.855 12.2687 28.6122 11.2661 30.4225 12.0041C30.6871 9.58116 29.5174 6.7822 28.7375 4.95801ZM27.902 6.46192C27.5957 6.448 27.345 6.25305 27.3033 6.01632C27.6653 5.96062 28.1109 5.90492 28.5287 5.87707C28.5287 5.90492 28.5426 5.94669 28.5426 5.97454C28.5426 6.25305 28.2502 6.47585 27.902 6.46192Z" fill="#EFD544"/>
<path d="M58.5231 26.7928C58.5231 32.2793 48.7615 34.2149 48.7615 34.2149C48.7615 34.2149 39 32.2793 39 26.7928C39 21.8633 39 9.10783 39 9.10783C39 9.10783 42.3003 8.4812 48.7615 8.4812C55.2228 8.4812 58.5231 9.10783 58.5231 9.10783C58.5231 9.10783 58.5231 22.2532 58.5231 26.7928Z" fill="#D2AD15"/>
<path d="M48.7473 34.2149C48.7473 34.2149 58.5088 32.2793 58.5088 26.7928C58.5088 22.2532 58.5088 9.10783 58.5088 9.10783C58.5088 9.10783 55.2085 8.4812 48.7473 8.4812C47.2294 8.4812 45.8787 8.50905 44.709 8.56475C53.5236 8.91288 57.0467 10.1104 57.0467 10.1104C57.0467 10.1104 57.0606 22.4481 57.0606 26.9738C57.0606 31.4995 48.7473 34.2149 48.7473 34.2149Z" fill="#B98F16"/>
<path d="M50.7254 19.1896L49.9735 19.0921L49.7367 19.3984L47.9961 18.2844C48.1771 19.1617 48.6506 20.8327 49.876 22.267C50.6976 22.8658 51.547 23.4785 52.2293 23.9659C52.1736 21.0973 51.1989 19.5098 50.9482 18.8693L50.7254 19.1896Z" fill="#4B4B4B"/>
<path d="M47.1474 20.3037C46.2284 19.6492 46.5347 18.3542 47.1335 17.7554L49.7375 19.4125L49.9742 19.1061L50.7262 19.2036L50.9629 18.8972L52.8985 19.2314C52.5365 18.6605 51.9377 17.7275 51.0326 17.1009L51.2693 16.7945C50.8098 16.5717 49.7375 16.4046 48.5121 16.4046C47.593 16.4046 46.6322 16.4046 46.6322 16.4046L47.9551 12.617C48.3032 11.6005 47.6766 10.7789 46.9943 10.7092C45.9638 10.5978 45.5321 11.7119 45.5321 11.7119L46.6601 12.8676C46.6879 12.8676 45.1979 16.3489 45.1979 16.3489C45.0447 16.711 44.9473 17.1844 44.9473 17.6857C44.9473 18.6605 45.3789 19.6492 46.2841 20.5265C47.05 21.2784 50.3781 23.8824 50.3781 23.8824L50.6427 23.5204L52.258 23.9938C52.2301 23.9799 47.412 20.4847 47.1474 20.3037Z" fill="white"/>
<path d="M47.9952 18.2985L47.1319 17.7554C46.5331 18.3681 46.2267 19.6492 47.1458 20.3037C47.4243 20.4986 48.6079 21.362 49.8751 22.281C48.6497 20.8468 48.1762 19.1757 47.9952 18.2985Z" fill="#636363"/>
<path d="M52.8848 19.2175L50.9492 18.8833C51.1999 19.5239 52.1746 21.0974 52.2303 23.9799C52.9962 24.5369 53.5393 24.9268 53.5393 24.9268L53.9153 24.4255L54.9179 25.1218C54.8622 24.6622 54.7926 24.2306 54.6951 23.8267C54.2634 21.7797 53.5532 20.2619 52.8848 19.2175Z" fill="black"/>
<path d="M51.1986 31.0817C51.1568 30.9703 51.0733 30.8728 50.9201 30.8728H50.3631V28.2131L49.9036 28.422V30.8589H49.0542C48.9567 30.8589 48.7617 30.9982 48.706 30.9982H48.33C48.1769 30.9982 48.0933 31.0956 48.0515 31.207L48.0237 31.2906L48.0098 31.402C48.0098 31.4298 48.0098 31.4577 48.0098 31.4577H48.9288L49.1238 31.3184H49.5137C49.277 31.4716 49.0124 31.6248 48.9149 31.6805C48.7896 31.764 48.7617 31.8894 48.7896 32.0008L48.8035 32.0843L48.8453 32.1818C48.8592 32.2097 48.8731 32.2375 48.8731 32.2375L50.4327 31.3184H51.2822C51.2822 31.3184 51.2822 31.2906 51.2822 31.2627L51.2543 31.1513L51.1986 31.0817Z" fill="#4B4B4B"/>
<path d="M43.1226 21.2365L43.0391 21.3479L43.0948 22.0998L43.234 21.9049L43.3315 21.9188L43.9303 22.9493C43.9303 22.9493 43.9442 22.9493 43.9442 22.9353L44.0138 22.8796L44.0834 22.8239C44.167 22.7265 44.2366 22.6011 44.1531 22.448C44.1252 22.4062 44.0974 22.3366 44.0417 22.253L45.7962 23.0885L46.5204 22.9214L43.6378 21.5567C43.5682 21.4453 43.4847 21.2782 43.4847 21.2782C43.4429 21.2086 43.2619 21.1668 43.1226 21.2365Z" fill="#636363"/>
<path d="M46.6446 12.8535L45.5027 11.6978L40.6289 12.8535H46.6446Z" fill="black"/>
<path d="M42.9405 21.4732L42.0075 21.5986C42.0075 21.5986 41.729 21.9606 41.5897 22.1416C41.4922 22.267 41.534 22.3923 41.5897 22.4898L41.6454 22.5594L41.7151 22.629C41.7429 22.6569 41.7568 22.6708 41.7568 22.6708L42.2303 22.0302L42.6202 21.9745C42.4392 22.2252 42.2442 22.4898 42.1746 22.5733C42.0771 22.6986 42.1189 22.824 42.1746 22.9214L42.2303 23.005L42.286 23.0746C42.3138 23.1025 42.3278 23.1164 42.3278 23.1164L43.0797 22.0999L43.024 21.3479L42.9405 21.4732Z" fill="#4B4B4B"/>
<path d="M49.2501 22.9773C49.1108 22.8659 48.9437 22.7406 48.7905 22.6152V23.952L48.7209 23.966L46.5347 22.9216L45.8105 23.0887L48.5399 24.3837L48.8184 24.7458L49.264 24.6762L49.4311 24.2445L49.2361 23.9938L49.2501 22.9773Z" fill="#4B4B4B"/>
<path d="M47.286 11.684C47.286 11.684 46.7568 11.9207 46.6315 11.9207C46.5062 11.9207 46.3809 11.8093 46.3809 11.684C46.3809 11.5587 46.5062 11.4473 46.6315 11.4473C46.7568 11.4612 47.286 11.684 47.286 11.684Z" fill="black"/>
<path d="M41.9257 14.5942C41.5915 14.0094 41.9814 13.6613 42.246 13.3828C42.441 13.1878 42.6081 13.0207 42.6081 12.77C42.6081 12.4358 42.4271 12.3801 41.9675 12.3105C41.689 12.2687 41.4105 12.227 41.2573 12.0181C41.1599 11.9067 41.132 11.7674 41.1459 11.6143C41.1877 11.294 41.5219 11.0572 41.5498 11.0294C41.6472 10.9598 41.7726 10.9876 41.8283 11.0851C41.8979 11.1826 41.87 11.3079 41.7726 11.3636C41.7029 11.4193 41.5498 11.5586 41.5358 11.67C41.5358 11.6978 41.5358 11.7257 41.5637 11.7535C41.6194 11.8371 41.8283 11.8649 42.0232 11.8928C42.4271 11.9485 43.0258 12.032 43.0119 12.7561C43.0119 13.1739 42.7473 13.4245 42.5245 13.6613C42.2739 13.9258 42.065 14.1069 42.2043 14.4689C42.3017 14.7056 42.7056 14.831 42.622 14.9702C42.5663 15.1234 42.0929 14.8727 41.9257 14.5942Z" fill="black"/>
<path d="M50.364 23.8545C50.364 23.8545 50.1829 23.7152 49.9044 23.4924V24.3279L49.6816 24.7318L49.9044 25.1217V28.4219L50.364 28.2131V25.1356L50.5868 24.7318L50.364 24.3279V23.8545Z" fill="black"/>
<path d="M53.6912 18.4794C52.995 17.7553 52.1594 17.1704 51.2404 16.7805L51.0176 17.0869C51.9227 17.7135 52.5354 18.6326 52.8835 19.2174C53.552 20.2618 54.2621 21.7796 54.6938 23.8127C54.7913 24.2165 54.8609 24.6482 54.9166 25.1078L55.8775 25.7901C56.3788 22.9911 55.4458 20.2897 53.6912 18.4794Z" fill="#636363"/>
<path d="M78.6731 20.3036L73.1031 16.0286C73.2145 16.4602 73.4512 16.8641 73.7854 17.1983L77.1692 20.5821C77.6566 21.0695 77.6566 21.8493 77.1692 22.3367C76.2641 23.2418 75.0108 21.9885 75.0108 21.9885L73.855 20.8467L68.1875 19.9415C68.8698 20.596 69.5661 21.4594 69.8585 22.4481C69.956 22.7544 70.0117 23.0747 70.0117 23.395C70.0117 23.395 70.0256 30.65 70.0256 31.569L72.8803 28.2966L72.8942 25.804L74.3981 23.3393C74.8994 23.8406 75.5678 24.1191 76.278 24.1191C76.9882 24.1191 77.6566 23.8406 78.1579 23.3393C78.9795 22.5177 79.1466 21.2923 78.6731 20.3036Z" fill="#E3C029"/>
</g>
<defs>
<clipPath id="clip0_389_5474">
<rect width="97.8938" height="64" fill="white" transform="translate(0.0527344 0.000732422)"/>
</clipPath>
</defs>
</svg>
