<svg width="120" height="48" viewBox="0 0 120 48" fill="none" xmlns="http://www.w3.org/2000/svg">
<g clip-path="url(#clip0_389_5568)">
<path d="M0.253906 0.000732422H24.2539V48.0007H0.253906V0.000732422Z" fill="#154273"/>
<path d="M12.6915 37.1336H12.2739V35.9768H12.6915V37.1336ZM14.5731 32.0264H14.1555V30.8696H14.5731V32.0264ZM6.84034 30.0296C6.80674 30.0296 6.59074 30.0296 6.59074 30.0728C6.59074 30.116 6.69154 30.0968 6.84034 30.1208C7.17634 30.1784 7.30594 30.3464 7.54114 30.3464C7.75234 30.3464 7.97314 30.2024 7.88674 29.8952C7.87234 29.8424 7.84354 29.8568 7.83394 29.8904C7.80034 30.0296 7.63234 30.1064 7.45474 30.1064C7.23394 30.1064 7.18594 30.0296 6.84034 30.0296ZM4.53632 31.1864C4.57472 31.2392 4.96832 31.748 4.36352 31.9448C4.33472 31.9544 4.32993 31.9784 4.36833 31.9976C4.81473 32.1848 5.03072 31.8392 5.03072 31.8392C5.25634 32.3528 4.91072 32.6408 4.91072 32.6408C4.95872 32.732 5.17474 32.8904 5.49634 32.9624C5.62114 32.8952 5.79394 32.7704 5.86594 32.5784C5.86594 32.5784 5.95234 32.804 5.87554 33.02C6.78754 33.1016 7.10914 32.372 7.81474 32.5064C7.83394 32.5112 7.84354 32.4968 7.84354 32.4776C7.84354 32.0264 7.56994 31.2056 6.69634 31.0376C5.82754 30.8696 6.06274 30.5144 6.06274 30.5144C6.42754 30.5 6.63874 30.6584 6.63874 30.6584C6.70594 30.548 6.60994 30.4328 6.60994 30.4328C6.64354 30.3896 6.66274 30.2408 6.66274 30.2408C6.24994 30.2408 6.14434 30.1496 6.14434 30.1496C6.08194 29.9048 6.24994 29.5592 6.86434 29.9288C7.01794 29.7944 7.00354 29.5832 7.00354 29.5832C7.05154 29.5592 7.08034 29.4872 7.08034 29.4584C7.08034 29.3576 6.59074 29.084 6.46594 29.0504C6.43714 28.9016 6.24514 28.6904 5.66914 28.7672C5.39554 28.8008 5.19874 28.7288 5.28994 28.5704C5.30434 28.5416 5.25634 28.5368 5.23234 28.5656C5.16994 28.628 5.08354 28.8056 5.31874 28.9256C5.58274 29.06 5.59714 29.324 5.60194 29.3624C5.60674 29.42 5.53954 29.4248 5.52514 29.3672C5.40514 28.9208 4.79072 28.8248 4.43072 29.06C4.44992 29.3 4.70913 29.4584 4.84833 29.4584C4.92993 29.4584 5.04034 29.3768 5.04034 29.2664C5.04034 29.2136 5.06914 29.2184 5.08354 29.2616C5.14114 29.42 4.90592 29.7512 4.56032 29.5496C4.20512 29.9048 4.34913 30.3464 4.38273 30.5048C4.44513 30.7928 4.30592 31.076 4.04192 30.9464C4.02752 30.9416 4.01312 30.9368 4.01312 30.9656C4.01792 31.1384 4.25792 31.3448 4.53632 31.1864ZM6.49954 29.396C6.33154 29.5832 6.06274 29.54 5.99554 29.2328C6.33634 29.2136 6.48514 29.2472 6.49954 29.396ZM17.0931 30.1064C16.9155 30.1064 16.7475 30.0296 16.7139 29.8904C16.7043 29.8568 16.6755 29.8424 16.6611 29.8952C16.5747 30.2024 16.7955 30.3464 17.0067 30.3464C17.2419 30.3464 17.3715 30.1784 17.7075 30.1208C17.8563 30.0968 17.9571 30.1208 17.9571 30.0728C17.9571 30.0296 17.7411 30.0296 17.7075 30.0296C17.3571 30.0296 17.3139 30.1064 17.0931 30.1064ZM20.5251 30.956C20.5251 30.9272 20.5107 30.932 20.4963 30.9368C20.2323 31.0664 20.0931 30.788 20.1555 30.4952C20.1891 30.332 20.3331 29.8952 19.9779 29.54C19.6275 29.7416 19.3923 29.4104 19.4547 29.252C19.4691 29.2088 19.4979 29.204 19.4979 29.2568C19.4979 29.3672 19.6083 29.4488 19.6899 29.4488C19.8291 29.4488 20.0883 29.2904 20.1075 29.0504C19.7475 28.8152 19.1331 28.9112 19.0131 29.3576C18.9987 29.4152 18.9315 29.4104 18.9363 29.3528C18.9363 29.3144 18.9555 29.0504 19.2195 28.916C19.4595 28.796 19.3731 28.6184 19.3059 28.556C19.2819 28.532 19.2291 28.5368 19.2483 28.5608C19.3395 28.7192 19.1427 28.7912 18.8739 28.7576C18.2979 28.6808 18.1107 28.8968 18.0771 29.0408C17.9523 29.0744 17.4627 29.348 17.4627 29.4488C17.4627 29.4776 17.4915 29.5544 17.5395 29.5736C17.5395 29.5736 17.5299 29.78 17.6787 29.9192C18.2883 29.5496 18.4611 29.8952 18.3987 30.14C18.3987 30.14 18.2883 30.2264 17.8755 30.2312C17.8755 30.2312 17.8947 30.38 17.9283 30.4232C17.9283 30.4232 17.8323 30.5432 17.8995 30.6488C17.8995 30.6488 18.1107 30.4904 18.4755 30.5048C18.4755 30.5048 18.7107 30.86 17.8419 31.028C16.9731 31.196 16.6947 32.0168 16.6947 32.468C16.6947 32.492 16.7043 32.5016 16.7235 32.4968C17.4291 32.3672 17.7507 33.0968 18.6627 33.0104C18.5811 32.7944 18.6723 32.5688 18.6723 32.5688C18.7443 32.7608 18.9171 32.8904 19.0419 32.9528C19.3683 32.8808 19.5795 32.7272 19.6275 32.6312C19.6275 32.6312 19.2819 32.348 19.5075 31.8296C19.5075 31.8296 19.7235 32.1752 20.1699 31.988C20.2083 31.9688 20.1987 31.9448 20.1747 31.9352C19.5699 31.7384 19.9635 31.2296 20.0019 31.1768C20.2899 31.3448 20.5251 31.1384 20.5251 30.956ZM18.5475 29.2328C18.4803 29.54 18.2115 29.5832 18.0435 29.396C18.0627 29.2472 18.2067 29.2136 18.5475 29.2328ZM12.1107 24.1016C12.1107 24.1784 12.1443 24.2456 12.1683 24.284C12.2211 24.3608 12.2115 24.404 12.1875 24.428C12.1635 24.452 12.1203 24.4616 12.0435 24.4088C11.9901 24.3712 11.9264 24.3511 11.8611 24.3512C11.7315 24.3512 11.6643 24.4376 11.6643 24.5096C11.6643 24.5816 11.7315 24.668 11.8611 24.668C11.9379 24.668 12.0051 24.6344 12.0435 24.6104C12.1203 24.5576 12.1635 24.5672 12.1875 24.5912C12.2115 24.6152 12.1779 24.8792 12.1443 25.0904C11.9283 25.1384 11.8227 25.3112 11.8227 25.412C11.8227 25.676 12.1011 25.8248 12.2691 25.916C12.4323 25.8296 12.7155 25.676 12.7155 25.412C12.7155 25.3112 12.6099 25.1336 12.3939 25.0904C12.3651 24.884 12.3267 24.6152 12.3507 24.5912C12.3747 24.5672 12.4179 24.5576 12.4947 24.6104C12.5331 24.6392 12.6003 24.668 12.6771 24.668C12.8067 24.668 12.8739 24.5816 12.8739 24.5096C12.8739 24.4376 12.8067 24.3512 12.6771 24.3512C12.6003 24.3512 12.5331 24.3848 12.4947 24.4088C12.4179 24.4616 12.3747 24.452 12.3507 24.428C12.3267 24.404 12.3171 24.3608 12.3699 24.284C12.3987 24.2456 12.4275 24.1784 12.4275 24.1016C12.4275 23.972 12.3411 23.9048 12.2691 23.9048C12.1971 23.9048 12.1107 23.972 12.1107 24.1016ZM12.2739 26.0504C12.2103 26.0504 12.1481 26.0692 12.0952 26.1046C12.0423 26.1399 12.0012 26.1902 11.9768 26.2489C11.9525 26.3077 11.9461 26.3723 11.9585 26.4347C11.9709 26.4971 12.0015 26.5544 12.0465 26.5994C12.0915 26.6444 12.1488 26.675 12.2112 26.6874C12.2736 26.6998 12.3382 26.6934 12.397 26.6691C12.4558 26.6448 12.506 26.6035 12.5414 26.5506C12.5767 26.4978 12.5955 26.4356 12.5955 26.372C12.5946 26.287 12.5605 26.2057 12.5004 26.1456C12.4403 26.0854 12.359 26.0512 12.2739 26.0504ZM12.2739 29.1272C13.5555 29.1272 14.2755 29.372 14.2755 29.372C14.2803 28.724 14.2803 28.364 14.6499 28.4168C14.4483 27.8744 15.3219 27.6584 15.3219 26.9528C15.3219 26.4872 14.9907 26.4344 14.8947 26.4344C14.6067 26.4344 14.6499 26.6216 14.4051 26.6216C14.3763 26.6216 14.3427 26.612 14.3427 26.636C14.3427 26.7176 14.4099 26.8568 14.5251 26.8568C14.6787 26.8568 14.6787 26.7032 14.7939 26.7032C14.8419 26.7032 14.9139 26.7416 14.9139 26.9C14.9139 27.2024 14.7171 27.5336 14.4819 27.7928C14.4291 27.7208 14.3571 27.6728 14.2659 27.6728C14.1267 27.6728 14.0067 27.8168 14.0067 27.9944C14.0067 28.0616 14.0163 28.1096 14.0403 28.1624C13.9635 28.2056 13.8915 28.2296 13.8435 28.2296C13.7379 28.2296 13.5795 28.1864 13.5795 27.956C13.5795 27.4424 14.2659 26.9912 14.2659 26.3384C14.2659 26.0264 14.0595 25.7192 13.6227 25.7192C13.1571 25.7192 13.2435 26.1416 12.8403 26.1416C12.8211 26.1416 12.8067 26.1464 12.8067 26.1656C12.8067 26.1944 12.8787 26.4296 13.0851 26.4296C13.3059 26.4296 13.3683 26.0456 13.5699 26.0456C13.6419 26.0456 13.7523 26.0888 13.7523 26.348C13.7523 26.5496 13.6515 26.8808 13.5075 27.1928C13.4549 27.1372 13.3825 27.1044 13.3059 27.1016C13.1331 27.1016 13.0083 27.2696 13.0083 27.4664C13.0083 27.5912 13.0563 27.716 13.1427 27.7928C13.0419 27.9224 12.9363 28.028 12.7971 28.028C12.5187 28.028 12.3987 27.8696 12.3987 27.6968C12.3987 27.5096 12.7395 27.4424 12.7395 27.1544C12.7395 26.9576 12.6099 26.8472 12.4899 26.8472C12.3555 26.8472 12.2883 26.9336 12.2739 26.9336C12.2595 26.9336 12.1923 26.8472 12.0579 26.8472C11.9331 26.8472 11.8083 26.9576 11.8083 27.1544C11.8083 27.4424 12.1491 27.5144 12.1491 27.6968C12.1491 27.8696 12.0243 28.028 11.7507 28.028C11.6115 28.028 11.5059 27.9224 11.4051 27.7928C11.4915 27.7112 11.5395 27.5912 11.5395 27.4664C11.5395 27.2648 11.4147 27.1016 11.2419 27.1016C11.2039 27.1025 11.1665 27.111 11.1318 27.1267C11.0972 27.1423 11.0661 27.1649 11.0403 27.1928C10.8963 26.876 10.7955 26.5496 10.7955 26.348C10.7955 26.0888 10.9059 26.0456 10.9779 26.0456C11.1747 26.0456 11.2371 26.4296 11.4627 26.4296C11.6691 26.4296 11.7411 26.1944 11.7411 26.1656C11.7411 26.1512 11.7267 26.1416 11.7075 26.1416C11.3043 26.1416 11.3907 25.7192 10.9251 25.7192C10.4931 25.7192 10.2819 26.0264 10.2819 26.3384C10.2819 26.9912 10.9683 27.4424 10.9683 27.956C10.9683 28.1864 10.8099 28.2296 10.7043 28.2296C10.6515 28.2296 10.5843 28.2056 10.5075 28.1624C10.5315 28.1048 10.5411 28.0616 10.5411 27.9944C10.5411 27.8168 10.4211 27.6728 10.2819 27.6728C10.1955 27.6728 10.1235 27.7208 10.0707 27.7928C9.83554 27.5336 9.63874 27.2024 9.63874 26.9C9.63874 26.7464 9.71074 26.7032 9.75874 26.7032C9.86914 26.7032 9.87394 26.8568 10.0275 26.8568C10.1427 26.8568 10.2099 26.7176 10.2099 26.636C10.2099 26.612 10.1763 26.6216 10.1475 26.6216C9.90274 26.6216 9.94594 26.4344 9.65794 26.4344C9.56194 26.4344 9.23074 26.4872 9.23074 26.9528C9.23074 27.6632 10.1043 27.8744 9.90274 28.4168C10.2723 28.364 10.2675 28.724 10.2771 29.372C10.2675 29.372 10.9923 29.1272 12.2739 29.1272ZM9.92674 30.0824C9.57634 30.1592 9.32674 30.2312 9.21634 30.2648C9.22114 30.1112 9.27874 29.9672 9.41794 29.9384C9.43714 29.9336 9.44194 29.9096 9.42274 29.9C9.11074 29.6936 8.94754 30.0872 8.94274 30.1016C8.83234 30.092 8.66434 30.1256 8.66434 30.2744C8.66434 30.7208 7.64674 30.9656 7.41154 31.004C7.82914 31.1624 8.00194 31.6904 8.00194 31.6904C8.30434 31.388 8.65474 31.124 8.73634 31.124C8.81794 31.124 8.84674 31.2248 8.85154 31.2824C8.85154 31.3016 8.87074 31.3064 8.88514 31.292C9.04354 31.0568 8.96674 31.004 8.95234 30.932C8.94274 30.8792 8.95714 30.6728 9.18754 30.6968V33.668L9.06754 33.692C9.01474 33.7016 8.57794 33.332 8.08354 32.9864C7.58434 32.6408 7.32034 32.8472 6.75394 33.1544C6.00994 33.5576 5.26114 33.1928 5.26114 33.1928C4.62273 33.6488 4.40192 34.9736 4.40192 34.9736C4.27232 35.0264 4.06112 35.084 3.86432 35.084C3.37472 35.084 3.28833 34.7864 3.28833 34.6136C3.28833 33.86 4.23393 33.5384 4.23393 32.7944C4.23393 32.612 4.15232 31.8824 3.24512 31.8824H2.43393C2.09313 31.8824 2.01152 31.6376 1.96352 31.5464C1.94432 31.508 1.91072 31.532 1.92512 31.5608C1.94912 31.6232 1.88672 31.7192 1.88672 31.9064C1.88672 32.2088 2.06433 32.3912 2.39553 32.3912C2.54433 32.3912 2.68832 32.348 2.73152 32.3192C2.76032 32.3 2.77952 32.3288 2.76512 32.348C2.62112 32.516 2.61152 32.8328 2.66912 32.9048C2.68352 32.924 2.70273 32.9192 2.70273 32.9048C2.78433 32.588 3.08192 32.2856 3.48512 32.2856C3.97952 32.2856 3.97472 32.7032 3.97472 32.804C3.97472 33.4088 2.91393 33.8504 2.91393 34.6856C2.91393 35.5304 3.80672 35.708 4.32032 35.5784C4.29152 36.4232 3.32192 36.7112 3.29312 36.1064C3.29312 36.0776 3.26912 36.0728 3.25472 36.1112C3.13472 36.4088 3.18272 36.6728 3.55712 36.7544C3.58112 36.7592 3.57152 36.7736 3.54752 36.7928C3.17312 37.028 3.37473 37.9592 3.39393 38.2328C3.42273 38.6264 3.02913 38.5784 2.99553 38.5688C2.98113 38.564 2.96192 38.5688 2.99072 38.6024C3.26912 38.9432 3.61472 38.6312 3.61472 38.6312C3.87392 38.7128 3.71552 38.9336 3.53792 39.0488C3.50912 39.068 3.51393 39.0872 3.54273 39.0872C3.58113 39.092 3.98432 39.1256 4.05632 38.804C4.23392 39.0152 4.49792 38.9384 4.55072 38.9096C4.62752 38.8712 5.00672 38.732 5.04034 39.1544C5.04034 39.1832 5.05954 39.164 5.07394 39.1496C5.35714 38.7896 5.05474 38.5688 4.88192 38.5448C4.89632 38.5256 5.12194 38.3336 5.32834 38.5976C5.34274 38.6168 5.35714 38.6216 5.35714 38.5832C5.38114 38.1272 5.01152 38.0888 4.77152 38.2856C4.76192 38.2376 4.68032 37.9832 5.04034 37.9928C5.04994 37.9928 5.06434 37.9784 5.04994 37.964C4.77153 37.6664 4.54112 37.9352 4.48352 38.0024C4.35872 38.1512 4.04672 38.0888 4.01792 38.0888C4.11392 36.5096 5.50594 37.0712 5.69794 36.3032C5.70754 36.2648 5.72674 36.2792 5.72674 36.2936C5.77954 36.4808 6.24994 36.5048 6.33634 36.14C6.34114 36.116 6.33634 36.1016 6.32194 36.116C5.91874 36.5192 5.01153 35.2616 6.24994 34.2392C7.30594 33.3704 8.25154 33.8552 8.61154 34.1384C8.63074 34.2632 8.55394 34.3064 8.50594 34.3208C8.48674 34.3256 8.48194 34.34 8.51074 34.3544C8.61154 34.3928 8.75074 34.3784 8.81794 34.2872C9.04354 34.4456 8.85154 34.6472 8.76034 34.7C8.73634 34.7144 8.74594 34.7288 8.76514 34.7336C8.97154 34.772 9.14434 34.5608 9.15394 34.436L9.18754 34.4552V35.3528C9.18754 36.6296 10.6611 36.8072 12.2787 37.8872C13.8963 36.8024 15.3651 36.6296 15.3651 35.3528V34.4552L15.3987 34.436C15.4083 34.556 15.5763 34.772 15.7875 34.7336C15.8067 34.7288 15.8163 34.7144 15.7923 34.7C15.7011 34.6424 15.5043 34.4456 15.7347 34.2872C15.8019 34.3832 15.9411 34.3928 16.0419 34.3544C16.0707 34.3448 16.0659 34.3256 16.0467 34.3208C15.9987 34.3064 15.9219 34.2632 15.9411 34.1384C16.3011 33.8504 17.2467 33.3656 18.3027 34.2392C19.5411 35.2616 18.6339 36.5144 18.2307 36.116C18.2115 36.0968 18.2115 36.116 18.2163 36.14C18.3027 36.5096 18.7731 36.4808 18.8259 36.2936C18.8307 36.2792 18.8499 36.2648 18.8547 36.3032C19.0467 37.0712 20.4339 36.5096 20.5347 38.0888C20.5059 38.0936 20.1939 38.1512 20.0691 38.0024C20.0163 37.94 19.7859 37.6664 19.5027 37.964C19.4835 37.9832 19.5027 37.9928 19.5123 37.9928C19.8723 37.9832 19.7955 38.2376 19.7811 38.2856C19.5411 38.0888 19.1715 38.1272 19.1955 38.5832C19.1955 38.6168 19.2099 38.6168 19.2243 38.5976C19.4307 38.3336 19.6563 38.5256 19.6707 38.5448C19.5027 38.5688 19.1955 38.7896 19.4787 39.1496C19.4931 39.164 19.5075 39.1832 19.5123 39.1544C19.5507 38.732 19.9251 38.8664 20.0019 38.9096C20.0547 38.9384 20.3187 39.0152 20.4963 38.804C20.5683 39.1256 20.9715 39.092 21.0099 39.0872C21.0387 39.0872 21.0387 39.068 21.0147 39.0488C20.8419 38.9336 20.6787 38.7128 20.9379 38.6312C20.9379 38.6312 21.2835 38.9432 21.5619 38.6024C21.5859 38.5736 21.5715 38.564 21.5571 38.5688C21.5235 38.5784 21.1299 38.6264 21.1587 38.2328C21.1779 37.9592 21.3795 37.028 21.0051 36.7928C20.9811 36.7784 20.9715 36.764 20.9955 36.7544C21.3699 36.6728 21.4179 36.4088 21.2979 36.1112C21.2835 36.0728 21.2595 36.0824 21.2595 36.1064C21.2307 36.7112 20.2659 36.4232 20.2323 35.5784C20.7507 35.7128 21.6387 35.5304 21.6387 34.6856C21.6387 33.8552 20.5779 33.4088 20.5779 32.804C20.5779 32.7032 20.5731 32.2856 21.0675 32.2856C21.4707 32.2856 21.7683 32.588 21.8499 32.9048C21.8547 32.9192 21.8691 32.924 21.8835 32.9048C21.9411 32.828 21.9315 32.516 21.7875 32.348C21.7731 32.3336 21.7875 32.3 21.8211 32.3192C21.8643 32.348 22.0083 32.3912 22.1571 32.3912C22.4883 32.3912 22.6659 32.2088 22.6659 31.9064C22.6659 31.7192 22.5987 31.6232 22.6275 31.5608C22.6419 31.532 22.6035 31.5128 22.5891 31.5464C22.5411 31.6424 22.4547 31.8824 22.1187 31.8824H21.3075C20.4003 31.8824 20.3187 32.6168 20.3187 32.7944C20.3187 33.5384 21.2643 33.86 21.2643 34.6136C21.2643 34.7912 21.1731 35.084 20.6883 35.084C20.4867 35.084 20.2755 35.0264 20.1507 34.9736C20.1507 34.9736 19.9347 33.6536 19.2915 33.1928C19.2915 33.1928 18.5427 33.5576 17.7987 33.1544C17.2323 32.8472 16.9635 32.6408 16.4643 32.9864C15.9651 33.332 15.5331 33.7016 15.4803 33.692L15.3603 33.668V30.6968C15.5907 30.6728 15.6051 30.8792 15.5955 30.932C15.5811 30.9992 15.5091 31.0568 15.6627 31.292C15.6771 31.3112 15.6915 31.3016 15.6963 31.2824C15.7011 31.2248 15.7347 31.124 15.8115 31.124C15.8883 31.124 16.2435 31.388 16.5459 31.6904C16.5459 31.6904 16.7187 31.1672 17.1363 31.004C16.9011 30.9656 15.8835 30.7208 15.8835 30.2744C15.8835 30.1256 15.7155 30.092 15.6051 30.1016C15.6003 30.0872 15.4323 29.6936 15.1251 29.9C15.1107 29.9096 15.1107 29.9336 15.1299 29.9384C15.2691 29.972 15.3267 30.1112 15.3315 30.2648C15.0339 30.1736 13.7715 29.8184 12.2739 29.8184C11.5443 29.8184 10.8771 29.9048 10.3443 30.0008V31.028H9.92674V30.0824ZM7.15714 40.6328C7.04674 40.5896 6.97474 40.5176 6.97474 40.3688V39.7304C6.79234 39.668 6.29314 39.476 5.28994 39.476C4.45953 39.476 4.20032 39.6632 4.18592 39.7304L3.96512 40.9496C3.96512 40.9496 4.30112 40.6424 5.50594 40.7192C6.95554 40.8104 8.45794 41.6696 8.45794 40.7528V40.2152C7.32514 40.2152 7.15714 40.58 7.15714 40.6328ZM16.0851 40.2152V40.7528C16.0851 41.6648 17.5875 40.8104 19.0371 40.7192C20.2419 40.6424 20.5779 40.9496 20.5779 40.9496L20.3571 39.7304C20.3475 39.6632 20.0835 39.476 19.2531 39.476C18.2547 39.476 17.7555 39.668 17.5683 39.7304V40.3688C17.5683 40.5128 17.4963 40.5848 17.3859 40.6328C17.3859 40.58 17.2179 40.2152 16.0851 40.2152ZM12.2739 39.6632C14.6115 39.6632 16.9827 39.7832 17.2899 40.1384C17.3139 40.1672 17.3235 40.1384 17.3235 40.1144V38.876C17.3235 38.516 14.8755 38.3048 12.2691 38.3048C9.66274 38.3048 7.21474 38.516 7.21474 38.876V40.1144C7.21474 40.1336 7.22434 40.1624 7.24834 40.1384C7.56514 39.788 9.93634 39.6632 12.2739 39.6632ZM10.1907 33.8264L9.95554 33.764L9.93634 33.7928L9.66274 33.6728H9.90754C9.93154 33.6728 9.93154 33.6584 9.92194 33.6488C9.81154 33.5384 9.71074 33.4424 9.71074 33.4424C9.71074 33.4424 9.82114 33.4856 9.97954 33.5432C9.99874 33.548 10.0035 33.5384 9.99394 33.524L9.81154 33.26L10.0755 33.4376C10.0899 33.4472 10.0995 33.4376 10.0947 33.4232L9.96994 33.1112L10.2099 33.3416C10.2195 33.3512 10.2339 33.3464 10.2291 33.332L10.1619 33.02L10.3395 33.2792C10.3491 33.2936 10.3635 33.2888 10.3635 33.2744C10.3635 33.2216 10.3683 32.9912 10.3683 32.9912C10.3683 32.9912 10.4451 33.164 10.4787 33.2504C10.4883 33.2696 10.4979 33.2696 10.5075 33.2456C10.5171 33.2168 10.5987 33.0248 10.5987 33.0248L10.6083 33.3224L10.5699 33.332L10.5219 33.6872C10.8723 33.6056 11.3139 33.0008 11.6499 33.0008C12.0531 33.0008 12.1971 33.4712 12.9363 33.2312C13.1235 33.5096 13.1907 33.7496 13.2627 34.0808C13.5507 34.3496 13.9491 34.2584 13.9491 33.9752C13.9491 33.5912 13.5315 33.5192 13.5315 33.116C13.5315 32.9384 13.6563 32.6792 13.9971 32.6792C14.1795 32.6792 14.4435 32.756 14.5971 32.756C14.7795 32.756 14.8179 32.6264 14.8371 32.5688C14.8515 32.5304 14.9043 32.54 14.8995 32.5736C14.8947 32.612 14.9187 32.6648 14.9187 32.7512C14.9187 33.0056 14.5491 33.0392 14.5059 33.0056C14.4867 32.9912 14.4723 33.0104 14.4867 33.0248C14.5443 33.068 14.5299 33.2216 14.4627 33.3176C14.4531 33.3272 14.4435 33.3272 14.4435 33.3176C14.4051 33.1352 14.1891 32.9096 14.0019 32.9096C13.9347 32.9096 13.7955 32.948 13.7955 33.1112C13.7955 33.3368 14.2515 33.548 14.2515 34.0184C14.2515 34.508 13.7667 34.628 13.2771 34.5032C13.2915 34.9688 13.9875 35.2424 14.0019 34.9112C14.0019 34.8872 14.0163 34.9016 14.0211 34.9112C14.1219 35.0552 14.0787 35.1608 13.9443 35.2184C14.0643 35.2712 14.0883 35.516 14.1219 35.6648C14.1747 35.8856 14.4051 35.7608 14.4195 35.756C14.4339 35.7464 14.4387 35.756 14.4291 35.7704C14.3427 35.996 14.1075 35.9096 14.1075 35.9096C13.9875 35.996 14.1315 36.0728 14.2419 36.1064C14.2563 36.1112 14.2563 36.1208 14.2467 36.1304C14.1651 36.1592 13.9923 36.2168 13.9059 36.068C13.8435 36.2216 13.7139 36.2168 13.6659 36.2168C13.5747 36.2168 13.5171 36.308 13.5363 36.4328C13.5363 36.4424 13.5315 36.4472 13.5219 36.4424C13.3107 36.3032 13.4307 36.1352 13.5171 36.092C13.5027 36.0824 13.3539 36.02 13.2915 36.1928C13.2867 36.2072 13.2771 36.2072 13.2723 36.1928C13.1811 35.9432 13.3827 35.8712 13.5267 35.9336C13.5171 35.9 13.4403 35.7752 13.2483 35.8184C13.2387 35.8232 13.2339 35.8184 13.2387 35.804C13.2723 35.7272 13.3635 35.6168 13.5411 35.7272C13.6323 35.7848 13.7859 35.7032 13.8003 35.6936C13.4883 35.0744 12.8883 35.5928 12.7491 35.108C12.7443 35.0984 12.7347 35.0888 12.7251 35.1176C12.6915 35.2184 12.4275 35.228 12.3795 35.0264C12.3747 35.012 12.3795 35.0072 12.3939 35.0168C12.4323 35.0552 12.5139 35.0888 12.6243 34.9352C12.6963 34.8296 12.7059 34.6904 12.7059 34.5992C12.7059 34.2248 12.3315 33.5912 11.7459 33.5912C11.3763 33.5912 10.9779 33.7352 10.6803 33.9512L10.9539 34.0136C10.9299 34.292 10.6611 34.4552 10.4163 34.3832L10.4595 34.0664C10.4163 34.0808 10.3107 34.1192 10.2531 34.2008C10.2483 34.2056 10.2387 34.2056 10.2387 34.196C10.1907 34.0136 10.3395 33.9224 10.3827 33.9032C10.3875 33.8984 10.3875 33.8984 10.3779 33.8984C10.2435 33.8936 10.1715 33.9896 10.1475 34.0232C10.1427 34.028 10.1379 34.028 10.1379 34.0232C10.1523 33.9848 10.1283 33.8936 10.1907 33.8264ZM11.0067 35.9768C10.9011 36.1064 10.8099 35.9816 10.6707 35.9816C10.5411 35.9816 10.5171 36.092 10.5171 36.1352C10.5171 36.1448 10.5123 36.1448 10.5075 36.14C10.3587 35.9384 10.5267 35.828 10.6227 35.8136C10.6083 35.7992 10.4643 35.7032 10.3731 35.8376C10.3683 35.8472 10.3587 35.8424 10.3587 35.8328C10.3539 35.5832 10.5507 35.564 10.6851 35.6744C10.7091 35.5784 10.6467 35.516 10.5411 35.5112C10.5267 35.5112 10.5267 35.5016 10.5315 35.4968C10.5747 35.4488 10.6179 35.4296 10.6611 35.4296C10.8003 35.4296 10.8195 35.6072 10.9107 35.6072C11.0451 35.6072 11.2419 35.4248 11.2563 35.4056C11.2515 35.396 11.1219 35.0408 11.1459 34.8296C11.1459 34.82 11.1411 34.82 11.1363 34.8248C11.0691 34.8632 10.9059 34.8584 10.9059 34.6568C10.9059 34.6424 10.9107 34.6376 10.9203 34.652C10.9923 34.7528 11.1123 34.6376 11.1699 34.5704C11.2323 34.4984 11.5779 33.9992 12.0339 33.9992C12.1347 33.9992 12.2643 34.0568 12.3699 34.1288C12.2115 34.3208 12.3699 34.5032 12.4851 34.4792C12.4995 34.4744 12.4995 34.4888 12.4899 34.4936C11.8851 34.7192 11.6163 34.8104 11.6163 35.3192C11.6163 35.5832 11.7075 35.732 11.8611 35.6936C11.8707 35.6888 11.8755 35.6936 11.8659 35.7032C11.8083 35.7704 11.7459 35.7944 11.6931 35.7944C11.5683 35.7944 11.5443 35.7272 11.4771 35.7272C11.4099 35.7272 11.1843 35.8616 11.1843 35.972C11.1843 36.0152 11.2131 36.0728 11.2899 36.1208C11.2947 36.1256 11.2899 36.1304 11.2899 36.1304C11.2275 36.1304 11.0499 36.1448 11.0067 35.9768ZM12.6003 31.0568C12.4131 31.0472 12.2883 31.0856 12.2979 31.148C12.3843 31.244 12.5091 31.2344 12.6003 31.0568ZM11.8995 31.5224C12.0339 31.4888 12.1779 31.5032 12.1971 31.508C12.2163 31.5128 12.2163 31.5464 12.1923 31.5512C11.9139 31.5848 11.8995 31.7144 11.7219 31.7144C11.6067 31.7144 11.4771 31.5944 11.5251 31.4216C11.5299 31.3976 11.5491 31.3976 11.5539 31.4216C11.5731 31.4984 11.6835 31.58 11.8995 31.5224ZM8.28514 37.6952C8.46754 37.9304 8.64514 37.7096 8.88994 37.7096C9.00994 37.7096 9.15394 37.748 9.17794 37.988C9.17794 38.0024 9.18754 38.0024 9.20194 37.988C9.46594 37.628 9.16354 37.4264 8.99074 37.3976C9.02914 37.364 9.28354 37.2056 9.45154 37.4408C9.46114 37.4552 9.48034 37.4504 9.48034 37.4312C9.48034 36.9752 9.13954 36.9416 8.88994 37.1384C8.84194 36.9608 8.97634 36.8456 9.14914 36.8456C9.16834 36.8456 9.17794 36.8312 9.16834 36.8216C8.86114 36.4952 8.63554 36.908 8.58274 36.9704C8.46274 37.1336 8.02594 36.8264 7.84834 36.644C7.84834 36.644 8.23234 36.2408 8.23234 35.8712C8.23234 35.8472 8.22754 35.8184 8.22754 35.804C8.22754 35.7944 8.23234 35.7896 8.24194 35.7944C8.28034 35.8184 8.33314 35.8328 8.38594 35.8328C8.47234 35.8328 8.64034 35.804 8.64034 35.492C8.64034 35.468 8.63074 35.468 8.62114 35.4824C8.57314 35.5496 8.52514 35.564 8.48674 35.564C8.17474 35.564 7.52674 34.5272 6.75874 34.5272C6.55714 34.5272 6.17794 34.6712 5.99074 34.8776C6.08194 34.9304 6.10114 35.0456 6.09154 35.1272C6.07714 35.2568 5.97154 35.324 5.86594 35.3528C5.84674 35.3576 5.84674 35.372 5.86594 35.3816C6.25474 35.5304 6.95554 35.7944 7.11874 35.9336C7.30594 36.0968 7.27234 36.404 7.16194 36.8312C7.05634 37.2392 6.83074 37.1864 6.74434 37.172C6.72994 37.172 6.72994 37.1768 6.73474 37.1864C6.83554 37.3112 6.95554 37.3544 7.06114 37.3544C7.26274 37.3544 7.33954 37.2296 7.44034 37.2296C7.61314 37.2296 7.98274 37.4792 7.98274 37.6712C7.98274 37.7768 7.90114 37.8776 7.79074 37.9448C7.78594 37.9496 7.78594 37.9592 7.79554 37.9592C7.87714 37.9736 8.22274 38.0024 8.28514 37.6952ZM16.7523 37.9592C16.7619 37.9592 16.7667 37.9496 16.7571 37.9448C16.6515 37.8728 16.5651 37.7768 16.5651 37.6712C16.5651 37.4792 16.9299 37.2296 17.1075 37.2296C17.2131 37.2296 17.2851 37.3544 17.4867 37.3544C17.5923 37.3544 17.7123 37.3112 17.8131 37.1864C17.8227 37.1768 17.8179 37.1672 17.8035 37.172C17.7219 37.1864 17.4915 37.2392 17.3859 36.8312C17.2755 36.404 17.2371 36.0968 17.4291 35.9336C17.5875 35.7944 18.2931 35.5304 18.6819 35.3816C18.7011 35.372 18.7011 35.3576 18.6819 35.3528C18.5763 35.324 18.4707 35.2568 18.4563 35.1272C18.4467 35.0456 18.4659 34.9352 18.5571 34.8776C18.3651 34.6712 17.9859 34.5272 17.7843 34.5272C17.0163 34.5272 16.3683 35.564 16.0563 35.564C16.0179 35.564 15.9651 35.5496 15.9219 35.4824C15.9123 35.468 15.9027 35.468 15.9027 35.492C15.9027 35.804 16.0707 35.8328 16.1571 35.8328C16.2051 35.8328 16.2627 35.8184 16.3011 35.7944C16.3107 35.7896 16.3155 35.7944 16.3155 35.804C16.3155 35.8184 16.3107 35.8472 16.3107 35.8712C16.3107 36.2408 16.6947 36.644 16.6947 36.644C16.5219 36.8264 16.0851 37.1288 15.9603 36.9704C15.9075 36.9032 15.6819 36.4952 15.3747 36.8216C15.3651 36.836 15.3699 36.8456 15.3939 36.8456C15.5667 36.8456 15.7011 36.9608 15.6531 37.1384C15.4035 36.9416 15.0627 36.9752 15.0627 37.4312C15.0627 37.4504 15.0819 37.4552 15.0915 37.4408C15.2547 37.2056 15.5139 37.364 15.5475 37.3976C15.3747 37.4216 15.0771 37.628 15.3363 37.988C15.3459 38.0024 15.3555 38.0024 15.3603 37.988C15.3891 37.7528 15.5331 37.7096 15.6483 37.7096C15.8883 37.7096 16.0659 37.9304 16.2531 37.6952C16.3251 38.0024 16.6659 37.9736 16.7523 37.9592ZM10.5507 31.9736C10.5267 32.0072 10.4451 31.9736 10.4163 31.9592C10.4115 31.9544 10.4067 31.9592 10.4115 31.964C10.4307 32.0072 10.5075 32.1368 10.6227 32.1368C10.6755 32.1368 10.7523 32.108 10.7715 32.0696C10.7715 32.0696 11.2227 32.2184 11.4435 32.276C11.3571 32.3912 11.3043 32.5304 11.2899 32.6792C11.1123 32.5688 10.3923 32.1848 10.3923 32.1848L10.1715 32.492C10.1331 32.54 9.95554 32.4104 9.99394 32.3624L10.1619 32.1272C10.1043 32.0696 9.96994 32.1032 9.93154 32.1176C9.92674 32.1176 9.92194 32.1176 9.92674 32.108C9.95074 32.06 10.0323 31.9208 10.2435 31.9832C10.2435 31.8536 10.0515 31.8968 9.99874 31.9112C9.99394 31.9112 9.98914 31.9112 9.99394 31.9064C10.0467 31.8488 10.2051 31.724 10.3779 31.8296L10.4547 31.724L10.3011 31.5608L10.3971 31.4264L10.5075 31.5704L11.3379 30.4328C11.3571 30.404 11.5251 30.356 11.5827 30.3416C11.5875 30.404 11.5971 30.5768 11.5779 30.6056L10.7619 31.7528L10.9347 31.8104L10.8387 31.9448L10.6371 31.8488L10.5507 31.9736ZM13.4643 31.7864C13.4643 31.892 13.5267 32.0456 13.6659 31.9976C13.6707 31.9928 13.6803 31.9976 13.6755 32.0024C13.6563 32.1176 13.4451 32.2232 13.3539 32.0888C13.2675 32.2664 13.2915 32.4344 13.4691 32.5304C13.4787 32.5352 13.4787 32.5496 13.4691 32.5592C13.3587 32.636 13.1907 32.6216 13.1139 32.468C12.9651 32.5784 12.9843 32.8184 13.0755 32.9C13.0755 32.9 12.6627 33.1448 12.2883 32.972C12.0387 32.852 11.8371 32.6984 11.5155 32.7272C11.5587 32.276 11.7843 32.1608 12.1971 32.0936C12.5283 32.0408 12.5667 31.8872 12.5235 31.772C12.4131 31.7432 12.2067 31.844 12.2067 31.844C12.1683 31.7816 12.2211 31.7192 12.2211 31.7192C12.2019 31.6952 12.1923 31.6136 12.1923 31.6136C12.4227 31.6136 12.4659 31.5608 12.4659 31.5608C12.5091 31.3208 12.2643 31.2968 12.0771 31.4264C11.9907 31.3496 12.0051 31.2488 12.0051 31.2488C11.9934 31.2404 11.9835 31.2296 11.9761 31.2173C11.9686 31.2049 11.9638 31.1911 11.9619 31.1768C11.9619 31.1192 12.2355 30.9656 12.3075 30.9464C12.3267 30.8648 12.4227 30.7544 12.7155 30.7832C12.7491 30.7064 12.6915 30.4232 12.6579 30.3512C12.6483 30.3272 12.6627 30.3176 12.6867 30.332C12.7875 30.3944 12.8883 30.6344 12.9603 30.6392C12.9603 30.6392 13.2867 30.4664 13.3011 30.476C13.3155 30.4856 13.3635 30.8504 13.3635 30.8504C13.4067 30.9032 13.6611 30.8504 13.7715 30.8984C13.8003 30.9128 13.8003 30.932 13.7715 30.9368C13.6899 30.9512 13.4259 31.0664 13.3827 31.1384C13.5363 31.364 13.4643 31.6952 13.4643 31.7864Z" fill="white"/>
<path d="M29.9564 30.9416C30.2444 30.86 30.3884 30.7112 30.3884 30.3752V26.7224L29.918 26.5736V26.4104C30.3884 26.3288 30.8108 26.3 31.4012 26.3C32.5244 26.3 33.062 26.7368 33.062 27.5576C33.062 28.292 32.654 28.7768 31.9916 28.9784L33.0428 30.3848C33.2204 30.6248 33.4652 30.8024 33.734 30.8888V31.028C33.5948 31.124 33.4076 31.1912 33.1676 31.1912C32.846 31.1912 32.6396 31.0664 32.3708 30.6632L31.3868 29.1752H31.0364V30.7448L31.5068 30.8648V31.028C31.262 31.1048 30.9884 31.1528 30.6572 31.1528C30.398 31.1528 30.1724 31.1288 29.9564 31.076V30.9416ZM31.3244 28.8248C31.9052 28.8248 32.3804 28.4456 32.3804 27.6728C32.3804 27.0632 31.9916 26.7128 31.3532 26.7128C31.2572 26.7128 31.1276 26.7272 31.0316 26.7416V28.8248H31.3244ZM34.1036 30.9608C34.3052 30.8888 34.4972 30.74 34.4972 30.5576V28.0424L34.022 27.8408V27.6824C34.358 27.5864 34.6988 27.5432 34.9052 27.5432H35.1452L35.1068 27.9464V30.7736L35.5244 30.884V31.0232C35.27 31.1144 35.0396 31.148 34.6604 31.148C34.4876 31.148 34.2716 31.1336 34.1036 31.0808V30.9608ZM34.4156 26.4344C34.4156 26.204 34.5788 25.9976 34.838 25.9976C35.0444 25.9976 35.2268 26.156 35.2268 26.4008C35.2268 26.66 35.0492 26.8616 34.8092 26.8616C34.5884 26.8568 34.4156 26.6792 34.4156 26.4344ZM36.278 28.0424L35.8028 27.8408V27.6824C36.1436 27.5864 36.4796 27.5432 36.6956 27.5432H36.9356L36.8924 27.9608V31.3016C36.8924 32.5208 36.5276 32.9 36.0524 32.9C35.8892 32.9 35.726 32.8424 35.6348 32.7224V32.6024C35.9612 32.6024 36.2828 32.228 36.2828 31.4696V28.0424H36.278ZM36.1964 26.4344C36.1964 26.204 36.3596 25.9976 36.6188 25.9976C36.8252 25.9976 37.0076 26.156 37.0076 26.4008C37.0076 26.66 36.83 26.8616 36.59 26.8616C36.3692 26.8568 36.1964 26.6792 36.1964 26.4344ZM37.622 30.9608C37.8236 30.8888 38.0252 30.74 38.0252 30.5576V26.2424L37.5356 26.0408V25.8776C37.8764 25.7816 38.222 25.7432 38.4284 25.7432H38.6828L38.6396 26.1608V29.1368L39.0476 28.7816C39.4508 28.4408 39.8156 27.9272 39.8156 27.5912C39.95 27.548 40.0604 27.5336 40.2092 27.5336C40.3196 27.5336 40.4108 27.5576 40.5068 27.6008C40.4924 27.9224 40.1708 28.4264 39.494 28.9112L39.2348 29.0984L40.382 30.4904C40.5884 30.7448 40.7756 30.8456 40.934 30.8456V31.004C40.7708 31.1144 40.598 31.1624 40.382 31.1624C40.1756 31.1624 39.9932 31.0712 39.854 30.8792L38.6396 29.2808V30.7832L39.0284 30.9032V31.0424C38.7548 31.1336 38.5388 31.1624 38.1884 31.1624C38.0156 31.1624 37.7996 31.148 37.6316 31.0952V30.9608H37.622ZM41.2508 30.2792C41.5868 30.5912 41.9036 30.7496 42.302 30.7496C42.7196 30.7496 42.9356 30.548 42.9356 30.2888C42.9356 30.0296 42.7868 29.8664 42.2972 29.6552L41.9276 29.4968C41.4956 29.3096 41.2556 28.9976 41.2556 28.5752C41.2556 27.9896 41.774 27.4808 42.5516 27.4808C43.1468 27.4808 43.3868 27.6584 43.3868 27.9416C43.3868 28.052 43.3724 28.148 43.3484 28.2536C43.1084 28.0904 42.782 27.9704 42.4988 27.9704C42.0236 27.9704 41.798 28.1768 41.798 28.4312C41.798 28.7 41.9324 28.8488 42.3788 29.0168L42.782 29.1752C43.3196 29.3816 43.5212 29.66 43.5212 30.0968C43.5212 30.668 42.9692 31.1912 42.1388 31.1912C41.486 31.1912 41.1932 30.9848 41.1932 30.5816C41.1836 30.4808 41.2076 30.3608 41.2508 30.2792ZM45.7292 27.5C45.9068 27.5 46.1228 27.524 46.2428 27.5528V26.2424L45.7388 26.0408V25.8776C46.0796 25.7816 46.4444 25.7432 46.6604 25.7432H46.9004L46.8572 26.1608V30.4232C46.91 30.572 46.9964 30.7304 47.1404 30.8552C46.9916 30.9896 46.8284 31.0952 46.6172 31.2056C46.4684 31.0856 46.334 30.9176 46.262 30.7592C46.022 31.004 45.614 31.1816 45.3116 31.1816C44.558 31.1816 43.958 30.5576 43.958 29.5688C43.9484 28.2296 44.7596 27.5 45.7292 27.5ZM46.2476 30.4616V27.9992C46.1228 27.956 45.9068 27.9176 45.7052 27.9176C45.0716 27.9176 44.5964 28.4168 44.5964 29.4488C44.5964 30.26 45.0188 30.6968 45.4892 30.6968C45.7724 30.6968 46.0796 30.6008 46.2476 30.4616ZM47.678 30.9608C47.8796 30.8888 48.0716 30.74 48.0716 30.5576V28.0424L47.5964 27.8408V27.6824C47.9324 27.5864 48.2732 27.5432 48.4844 27.5432H48.7244L48.686 27.9464V30.7736L49.1036 30.884V31.0232C48.8492 31.1144 48.6188 31.148 48.2396 31.148C48.0668 31.148 47.8508 31.1336 47.6828 31.0808V30.9608H47.678ZM47.99 26.4344C47.99 26.204 48.1532 25.9976 48.4124 25.9976C48.6188 25.9976 48.8012 26.156 48.8012 26.4008C48.8012 26.66 48.6236 26.8616 48.3836 26.8616C48.1628 26.8568 47.99 26.6792 47.99 26.4344ZM51.0332 27.4904C51.8348 27.4904 52.3196 28.028 52.3196 28.8824C52.3196 29.0216 52.3196 29.1704 52.31 29.3576H50.1164C50.1164 30.1928 50.6012 30.6728 51.2156 30.6728C51.5804 30.6728 51.9836 30.548 52.2668 30.3512C52.2812 30.3896 52.2956 30.4712 52.2956 30.5432C52.2956 30.8792 51.806 31.1912 51.014 31.1912C50.1644 31.1912 49.4732 30.5288 49.4732 29.4872C49.478 28.196 50.2604 27.4904 51.0332 27.4904ZM51.7244 28.9736C51.7244 28.244 51.4124 27.8936 50.9708 27.8936C50.5628 27.8936 50.1308 28.3832 50.1308 28.9736H51.7244ZM52.7996 30.9608C52.9916 30.8888 53.1932 30.74 53.1932 30.5576V28.0424L52.7132 27.8408V27.6776C53.054 27.5816 53.39 27.5432 53.606 27.5432H53.7836V27.9464C54.038 27.692 54.4508 27.5288 54.8828 27.5288C55.502 27.5288 55.9244 27.9224 55.9244 28.6904V30.7736L56.3132 30.884V31.0232C56.1116 31.1048 55.8524 31.148 55.5308 31.148C55.3724 31.148 55.1948 31.1336 55.046 31.0808V30.9608C55.2332 30.8792 55.3148 30.74 55.3148 30.4712V29.0504C55.3148 28.3208 55.0076 28.0472 54.5708 28.0472C54.2636 28.0472 53.9708 28.1528 53.8028 28.2776V30.7784L54.2204 30.8888V31.028C53.966 31.1192 53.7308 31.1528 53.3564 31.1528C53.1788 31.1528 52.9676 31.1384 52.7996 31.0856V30.9608ZM56.8124 30.2792C57.1484 30.5912 57.4652 30.7496 57.8636 30.7496C58.2812 30.7496 58.4972 30.548 58.4972 30.2888C58.4972 30.0296 58.3484 29.8664 57.8588 29.6552L57.4892 29.4968C57.0572 29.3096 56.8172 28.9976 56.8172 28.5752C56.8172 27.9896 57.3356 27.4808 58.1132 27.4808C58.7084 27.4808 58.9484 27.6584 58.9484 27.9416C58.9484 28.052 58.934 28.148 58.91 28.2536C58.67 28.0904 58.3436 27.9704 58.0604 27.9704C57.5852 27.9704 57.3596 28.1768 57.3596 28.4312C57.3596 28.7 57.494 28.8488 57.9404 29.0168L58.3436 29.1752C58.8812 29.3816 59.0828 29.66 59.0828 30.0968C59.0828 30.668 58.5308 31.1912 57.7004 31.1912C57.0476 31.1912 56.7548 30.9848 56.7548 30.5816C56.7452 30.4808 56.7692 30.3608 56.8124 30.2792ZM59.8412 29.0552L59.8652 28.0664H59.4572V27.8216L60.2588 27.0248L60.5036 26.996L60.4748 27.668H61.4588L61.406 28.0712H60.4556L60.4412 29.0072C60.4316 29.3192 60.4316 29.6024 60.4316 29.876C60.4316 30.4808 60.6092 30.6872 60.8876 30.6872C61.1036 30.6872 61.2908 30.6104 61.4396 30.4952L61.5164 30.524C61.4876 30.9608 61.2284 31.1864 60.7148 31.1864C60.1196 31.1864 59.8316 30.8744 59.8316 30.1496C59.8172 29.7896 59.8364 29.396 59.8412 29.0552ZM62.942 27.9368L62.6396 27.7208V27.5432H64.0604V27.7208L63.638 27.8984L64.4396 30.2552H64.4492L65.2748 27.9176L64.8524 27.716V27.5384H65.9996V27.716L65.7932 27.8888L64.4684 31.172L64.214 31.1864L62.942 27.9368ZM67.7564 27.4856C68.6732 27.4856 69.3788 28.172 69.3788 29.204C69.3788 30.4328 68.5244 31.2056 67.6364 31.2056C66.734 31.2056 66.0044 30.572 66.0044 29.4872C66.0092 28.2632 66.8444 27.4856 67.7564 27.4856ZM67.6844 30.7736C68.1836 30.7736 68.702 30.2888 68.702 29.2712C68.702 28.4024 68.2316 27.9176 67.7036 27.9176C67.19 27.9176 66.686 28.4312 66.686 29.4152C66.686 30.3128 67.1564 30.7736 67.6844 30.7736ZM71.6396 27.4856C72.5564 27.4856 73.262 28.172 73.262 29.204C73.262 30.4328 72.4076 31.2056 71.5196 31.2056C70.6172 31.2056 69.8876 30.572 69.8876 29.4872C69.8924 28.2632 70.7276 27.4856 71.6396 27.4856ZM71.5676 30.7736C72.0668 30.7736 72.5852 30.2888 72.5852 29.2712C72.5852 28.4024 72.1148 27.9176 71.5868 27.9176C71.0732 27.9176 70.5692 28.4312 70.5692 29.4152C70.5692 30.3128 71.0396 30.7736 71.5676 30.7736ZM73.7276 30.9608C73.9196 30.8888 74.1212 30.74 74.1212 30.5576V28.0424L73.6412 27.8408V27.6776C73.982 27.5816 74.318 27.5432 74.534 27.5432H74.7116V28.0616H74.7212L74.9276 27.8312C75.1292 27.6152 75.3308 27.5048 75.5804 27.5048C75.8396 27.5048 75.9692 27.6152 75.9692 27.8264C75.9692 27.9656 75.926 28.1336 75.8492 28.2728C75.71 28.1624 75.5468 28.1 75.3884 28.1C75.158 28.1 74.942 28.2056 74.7356 28.4072V30.7736L75.2492 30.884V31.0232C74.9948 31.1144 74.75 31.148 74.3276 31.148C74.1116 31.148 73.9052 31.1336 73.7324 31.0808V30.9608H73.7276ZM79.7564 26.2616C80.8508 26.2616 81.7292 27.1256 81.7292 28.5032C81.7292 30.2168 80.678 31.2104 79.4876 31.2104C78.3932 31.2104 77.51 30.3176 77.51 28.844C77.51 27.2888 78.5948 26.2616 79.7564 26.2616ZM80.9996 28.6376C80.9996 27.3368 80.366 26.7416 79.6748 26.7416C78.9596 26.7416 78.2444 27.4568 78.2444 28.7576C78.2444 30.068 78.8828 30.7352 79.5596 30.7352C80.2748 30.7352 80.9996 30.0824 80.9996 28.6376ZM82.31 30.9608C82.502 30.8888 82.7036 30.74 82.7036 30.5576V28.0424L82.2236 27.8408V27.6776C82.5644 27.5816 82.9004 27.5432 83.1164 27.5432H83.294V27.9464C83.5484 27.692 83.9612 27.5288 84.3932 27.5288C85.0124 27.5288 85.4348 27.9224 85.4348 28.6904V30.7736L85.8236 30.884V31.0232C85.622 31.1048 85.3628 31.148 85.0412 31.148C84.8828 31.148 84.7052 31.1336 84.5564 31.0808V30.9608C84.7436 30.8792 84.8252 30.74 84.8252 30.4712V29.0504C84.8252 28.3208 84.518 28.0472 84.0812 28.0472C83.7788 28.0472 83.4764 28.1528 83.3132 28.2776V30.7784L83.7308 30.8888V31.028C83.4764 31.1192 83.2412 31.1528 82.8668 31.1528C82.6892 31.1528 82.478 31.1384 82.31 31.0856V30.9608ZM87.9788 27.5C88.1564 27.5 88.3724 27.524 88.4924 27.5528V26.2424L87.9884 26.0408V25.8776C88.3292 25.7816 88.694 25.7432 88.91 25.7432H89.15L89.1068 26.1608V30.4232C89.1596 30.572 89.246 30.7304 89.39 30.8552C89.2412 30.9896 89.078 31.0952 88.8716 31.2056C88.7228 31.0856 88.5884 30.9176 88.5164 30.7592C88.2764 31.004 87.8684 31.1816 87.566 31.1816C86.8124 31.1816 86.2124 30.5576 86.2124 29.5688C86.198 28.2296 87.0092 27.5 87.9788 27.5ZM88.4972 30.4616V27.9992C88.3724 27.956 88.1564 27.9176 87.9548 27.9176C87.3212 27.9176 86.846 28.4168 86.846 29.4488C86.846 30.26 87.2684 30.6968 87.7388 30.6968C88.022 30.6968 88.3292 30.6008 88.4972 30.4616ZM91.4204 27.4904C92.222 27.4904 92.7068 28.028 92.7068 28.8824C92.7068 29.0216 92.7068 29.1704 92.6972 29.3576H90.5036C90.5036 30.1928 90.9884 30.6728 91.6028 30.6728C91.9676 30.6728 92.3708 30.548 92.654 30.3512C92.6684 30.3896 92.6828 30.4712 92.6828 30.5432C92.6828 30.8792 92.1932 31.1912 91.4012 31.1912C90.5516 31.1912 89.8604 30.5288 89.8604 29.4872C89.8652 28.196 90.6476 27.4904 91.4204 27.4904ZM92.1164 28.9736C92.1164 28.244 91.8044 27.8936 91.3628 27.8936C90.9548 27.8936 90.5228 28.3832 90.5228 28.9736H92.1164ZM93.1868 30.9608C93.3788 30.8888 93.5804 30.74 93.5804 30.5576V28.0424L93.1004 27.8408V27.6776C93.4412 27.5816 93.7772 27.5432 93.9932 27.5432H94.1708V28.0616H94.1804L94.3868 27.8312C94.5884 27.6152 94.79 27.5048 95.0396 27.5048C95.2988 27.5048 95.4284 27.6152 95.4284 27.8264C95.4284 27.9656 95.3852 28.1336 95.3084 28.2728C95.1692 28.1624 95.006 28.1 94.8476 28.1C94.6172 28.1 94.4012 28.2056 94.1948 28.4072V30.7736L94.7084 30.884V31.0232C94.454 31.1144 94.2092 31.148 93.7868 31.148C93.5708 31.148 93.3644 31.1336 93.1916 31.0808V30.9608H93.1868ZM95.8172 30.9608C96.0092 30.8888 96.2108 30.74 96.2108 30.5576V28.0424L95.726 27.8408V27.6776C96.0668 27.5816 96.4028 27.5432 96.6188 27.5432H96.7964V27.9464C97.0508 27.692 97.4636 27.5288 97.8956 27.5288C98.5148 27.5288 98.9372 27.9224 98.9372 28.6904V30.7736L99.326 30.884V31.0232C99.1244 31.1048 98.8652 31.148 98.5436 31.148C98.3852 31.148 98.2076 31.1336 98.0588 31.0808V30.9608C98.246 30.8792 98.3276 30.74 98.3276 30.4712V29.0504C98.3276 28.3208 98.0204 28.0472 97.5836 28.0472C97.2812 28.0472 96.9788 28.1528 96.8156 28.2776V30.7784L97.2332 30.8888V31.028C96.9788 31.1192 96.7436 31.1528 96.3692 31.1528C96.1916 31.1528 95.9804 31.1384 95.8124 31.0856V30.9608H95.8172ZM101.26 27.4904C102.062 27.4904 102.547 28.028 102.547 28.8824C102.547 29.0216 102.547 29.1704 102.537 29.3576H100.344C100.344 30.1928 100.828 30.6728 101.443 30.6728C101.808 30.6728 102.211 30.548 102.494 30.3512C102.508 30.3896 102.523 30.4712 102.523 30.5432C102.523 30.8792 102.033 31.1912 101.241 31.1912C100.392 31.1912 99.7004 30.5288 99.7004 29.4872C99.7052 28.196 100.483 27.4904 101.26 27.4904ZM101.952 28.9736C101.952 28.244 101.64 27.8936 101.198 27.8936C100.79 27.8936 100.358 28.3832 100.358 28.9736H101.952ZM103.027 30.9608C103.219 30.8888 103.42 30.74 103.42 30.5576V28.0424L102.936 27.8408V27.6776C103.276 27.5816 103.612 27.5432 103.828 27.5432H104.006V27.9464C104.265 27.692 104.659 27.5288 105.1 27.5288C105.451 27.5288 105.792 27.716 105.94 27.9848C106.171 27.7544 106.67 27.5288 107.088 27.5288C107.712 27.5288 108.12 27.908 108.12 28.7144V30.7736L108.508 30.884V31.0232C108.302 31.1048 108.038 31.148 107.721 31.148C107.572 31.148 107.385 31.1336 107.246 31.0808V30.9608C107.433 30.8792 107.515 30.74 107.515 30.4712V29.0216C107.515 28.3448 107.217 28.0472 106.756 28.0472C106.488 28.0472 106.233 28.1144 106.041 28.22C106.07 28.3784 106.084 28.5848 106.084 28.7768V30.7784L106.473 30.8888V31.028C106.267 31.1096 106.012 31.1528 105.691 31.1528C105.532 31.1528 105.355 31.1384 105.206 31.0856V30.9608C105.393 30.8792 105.475 30.74 105.475 30.4712V29.1032C105.475 28.2776 105.23 28.0472 104.769 28.0472C104.472 28.0472 104.188 28.1528 104.03 28.2776V30.7784L104.448 30.8888V31.028C104.188 31.1192 103.958 31.1528 103.584 31.1528C103.406 31.1528 103.195 31.1384 103.027 31.0856V30.9608ZM110.448 27.4904C111.249 27.4904 111.734 28.028 111.734 28.8824C111.734 29.0216 111.734 29.1704 111.729 29.3576H109.536C109.536 30.1928 110.02 30.6728 110.635 30.6728C111 30.6728 111.403 30.548 111.686 30.3512C111.7 30.3896 111.715 30.4712 111.715 30.5432C111.715 30.8792 111.225 31.1912 110.433 31.1912C109.584 31.1912 108.892 30.5288 108.892 29.4872C108.892 28.196 109.675 27.4904 110.448 27.4904ZM111.139 28.9736C111.139 28.244 110.827 27.8936 110.385 27.8936C109.977 27.8936 109.545 28.3832 109.545 28.9736H111.139ZM112.214 30.9608C112.406 30.8888 112.608 30.74 112.608 30.5576V28.0424L112.123 27.8408V27.6776C112.464 27.5816 112.8 27.5432 113.016 27.5432H113.193V27.9464C113.448 27.692 113.86 27.5288 114.292 27.5288C114.912 27.5288 115.334 27.9224 115.334 28.6904V30.7736L115.723 30.884V31.0232C115.521 31.1048 115.262 31.148 114.94 31.148C114.782 31.148 114.604 31.1336 114.456 31.0808V30.9608C114.643 30.8792 114.724 30.74 114.724 30.4712V29.0504C114.724 28.3208 114.417 28.0472 113.98 28.0472C113.673 28.0472 113.38 28.1528 113.212 28.2776V30.7784L113.63 30.8888V31.028C113.376 31.1192 113.14 31.1528 112.766 31.1528C112.588 31.1528 112.377 31.1384 112.209 31.0856V30.9608H112.214ZM117.878 27.5C118.056 27.5 118.272 27.524 118.392 27.5528V26.2424L117.888 26.0408V25.8776C118.228 25.7816 118.593 25.7432 118.809 25.7432H119.049L119.006 26.1608V30.4232C119.059 30.572 119.145 30.7304 119.289 30.8552C119.14 30.9896 118.977 31.0952 118.771 31.2056C118.622 31.0856 118.488 30.9176 118.416 30.7592C118.176 31.004 117.768 31.1816 117.465 31.1816C116.712 31.1816 116.112 30.5576 116.112 29.5688C116.102 28.2296 116.913 27.5 117.878 27.5ZM118.401 30.4616V27.9992C118.276 27.956 118.06 27.9176 117.859 27.9176C117.225 27.9176 116.75 28.4168 116.75 29.4488C116.75 30.26 117.172 30.6968 117.643 30.6968C117.926 30.6968 118.228 30.6008 118.401 30.4616ZM29.9564 39.3896C30.2828 39.2984 30.3884 39.1352 30.3884 38.7368V35.156L29.918 35.0312V34.8152C30.2012 34.7768 30.4988 34.7624 30.7388 34.7624H31.0124L33.0812 38.1608L33.0956 38.1512V35.1368L32.6204 35.0168V34.8584C32.8605 34.7789 33.1115 34.7368 33.3644 34.7336C33.662 34.7336 33.7964 34.7576 33.9884 34.8152V34.9496C33.662 35.0552 33.566 35.1896 33.566 35.6504V39.548L33.2156 39.6296L30.8636 35.7512L30.854 35.7608V39.1976L31.31 39.3176V39.4808C31.094 39.5624 30.878 39.6056 30.6332 39.6056C30.3356 39.6056 30.134 39.5816 29.9564 39.5288V39.3896ZM35.9756 35.9384C36.7772 35.9384 37.262 36.476 37.262 37.3304C37.262 37.4696 37.262 37.6184 37.2572 37.8056H35.0636C35.0636 38.6408 35.5484 39.1208 36.1628 39.1208C36.5276 39.1208 36.9308 38.996 37.214 38.7992C37.2284 38.8376 37.2428 38.9192 37.2428 38.9912C37.2428 39.3272 36.7532 39.6392 35.9612 39.6392C35.1116 39.6392 34.4204 38.9768 34.4204 37.9352C34.4204 36.644 35.2028 35.9384 35.9756 35.9384ZM36.6668 37.4216C36.6668 36.692 36.3548 36.3416 35.9132 36.3416C35.5052 36.3416 35.0732 36.8312 35.0732 37.4216H36.6668ZM39.5324 35.948C39.71 35.948 39.926 35.972 40.046 36.0008V34.6904L39.542 34.4888V34.3256C39.8828 34.2296 40.2476 34.1912 40.4636 34.1912H40.7036L40.6604 34.6088V38.8712C40.7132 39.02 40.7996 39.1784 40.9436 39.3032C40.7948 39.4376 40.6316 39.5432 40.4204 39.6536C40.2716 39.5336 40.1372 39.3656 40.0652 39.2072C39.8252 39.452 39.4172 39.6296 39.1148 39.6296C38.3612 39.6296 37.7612 39.0056 37.7612 38.0168C37.7564 36.6776 38.5676 35.948 39.5324 35.948ZM40.0556 38.9096V36.4472C39.9308 36.404 39.7148 36.3656 39.5132 36.3656C38.8796 36.3656 38.4044 36.8648 38.4044 37.8968C38.4044 38.708 38.8268 39.1496 39.2972 39.1496C39.5804 39.1448 39.8828 39.0488 40.0556 38.9096ZM42.9788 35.9384C43.7804 35.9384 44.2652 36.476 44.2652 37.3304C44.2652 37.4696 44.2652 37.6184 44.2604 37.8056H42.0668C42.0668 38.6408 42.5516 39.1208 43.166 39.1208C43.5308 39.1208 43.934 38.996 44.2172 38.7992C44.2316 38.8376 44.246 38.9192 44.246 38.9912C44.246 39.3272 43.7564 39.6392 42.9644 39.6392C42.1148 39.6392 41.4236 38.9768 41.4236 37.9352C41.4236 36.644 42.206 35.9384 42.9788 35.9384ZM43.67 37.4216C43.67 36.692 43.358 36.3416 42.9164 36.3416C42.5084 36.3416 42.0764 36.8312 42.0764 37.4216H43.67ZM44.7452 39.4088C44.9372 39.332 45.1388 39.188 45.1388 39.0056V36.4904L44.654 36.2888V36.1256C44.9948 36.0296 45.3308 35.9912 45.5468 35.9912H45.7244V36.5144H45.7292L45.9356 36.284C46.1372 36.068 46.3388 35.9576 46.5884 35.9576C46.8476 35.9576 46.9772 36.068 46.9772 36.2792C46.9772 36.4184 46.934 36.5864 46.8572 36.7256C46.718 36.6152 46.55 36.5528 46.3964 36.5528C46.166 36.5528 45.95 36.6584 45.7436 36.86V39.2264L46.2572 39.3368V39.476C46.0028 39.5672 45.758 39.6008 45.3356 39.6008C45.1196 39.6008 44.9132 39.5864 44.7404 39.5336V39.4088H44.7452ZM47.126 39.4088C47.318 39.332 47.5196 39.188 47.5196 39.0056V34.6904L47.0348 34.4888V34.3256C47.3708 34.2296 47.7212 34.1912 47.9276 34.1912H48.1676L48.1292 34.6088V39.2216L48.5468 39.332V39.4712C48.2924 39.5624 48.0572 39.596 47.6828 39.596C47.5052 39.596 47.294 39.5816 47.126 39.5288V39.4088ZM50.8652 37.604V37.4024C50.8652 36.6008 50.6732 36.428 50.2028 36.428C49.7948 36.428 49.4012 36.6008 49.0844 36.9128C49.07 36.836 49.0604 36.7736 49.0604 36.692C49.0604 36.2168 49.4108 35.9384 50.2796 35.9384C51.0332 35.9384 51.4796 36.3176 51.4796 36.9368C51.4796 37.1 51.4556 37.4744 51.4508 37.6904L51.4268 38.8952C51.4796 39.0296 51.59 39.1688 51.7244 39.2744C51.614 39.4088 51.4124 39.5576 51.2204 39.6536C51.0812 39.5624 50.966 39.4472 50.8796 39.2888C50.6732 39.4904 50.27 39.644 49.8764 39.644C49.3196 39.644 48.9308 39.2936 48.9308 38.8184C48.9308 38.1656 49.646 37.604 50.8652 37.604ZM50.1548 39.1976C50.3852 39.1976 50.6828 39.1064 50.87 38.996V37.9544C50.03 37.9544 49.574 38.3048 49.574 38.708C49.574 39.0056 49.7756 39.1976 50.1548 39.1976ZM52.2476 39.4088C52.4396 39.332 52.6412 39.188 52.6412 39.0056V36.4904L52.1564 36.2888V36.1256C52.4972 36.0296 52.8332 35.9912 53.0492 35.9912H53.2268V36.3944C53.4812 36.14 53.894 35.9768 54.326 35.9768C54.9452 35.9768 55.3676 36.3704 55.3676 37.1384V39.2216L55.7564 39.332V39.4712C55.5548 39.5528 55.2956 39.596 54.974 39.596C54.8156 39.596 54.638 39.5816 54.4892 39.5288V39.4088C54.6764 39.3272 54.758 39.188 54.758 38.9192V37.4984C54.758 36.7688 54.4508 36.4952 54.014 36.4952C53.7068 36.4952 53.414 36.6008 53.246 36.7256V39.2264L53.6636 39.3368V39.476C53.4092 39.5672 53.174 39.6008 52.7996 39.6008C52.622 39.6008 52.4108 39.5864 52.2428 39.5336V39.4088H52.2476ZM57.9116 35.948C58.0892 35.948 58.3052 35.972 58.4252 36.0008V34.6904L57.9212 34.4888V34.3256C58.262 34.2296 58.6268 34.1912 58.8428 34.1912H59.0828L59.0396 34.6088V38.8712C59.0924 39.02 59.1788 39.1784 59.3228 39.3032C59.174 39.4376 59.0108 39.5432 58.7996 39.6536C58.6508 39.5336 58.5164 39.3656 58.4444 39.2072C58.2044 39.452 57.7964 39.6296 57.494 39.6296C56.7404 39.6296 56.1404 39.0056 56.1404 38.0168C56.1356 36.6776 56.9468 35.948 57.9116 35.948ZM58.4348 38.9096V36.4472C58.31 36.404 58.094 36.3656 57.8924 36.3656C57.2588 36.3656 56.7836 36.8648 56.7836 37.8968C56.7836 38.708 57.206 39.1496 57.6764 39.1496C57.9596 39.1448 58.262 39.0488 58.4348 38.9096Z" fill="black"/>
</g>
<defs>
<clipPath id="clip0_389_5568">
<rect width="119.52" height="48" fill="white" transform="translate(0.240234 0.000732422)"/>
</clipPath>
</defs>
</svg>
