<svg width="380" height="214" viewBox="0 0 380 214" fill="none" xmlns="http://www.w3.org/2000/svg">
<g clip-path="url(#clip0_1607_4826)">
<rect width="380" height="213.75" transform="translate(0 0.250488)" fill="#004152"/>
<g clip-path="url(#clip1_1607_4826)">
<path d="M181.76 148.806C181.76 148.806 179.238 136.366 180.734 135.297C182.23 134.228 200.741 131.578 208.778 134.698L210.018 148.763L185.351 159.921L181.76 148.806Z" fill="#AFB1B4"/>
<path d="M232.932 155.988C232.932 155.988 231.735 150.217 222.416 147.096C213.096 143.975 205.957 140.812 205.957 134.185C205.957 127.559 205.957 116.701 205.957 116.701H194.671H183.385C183.385 116.701 183.385 127.516 183.385 134.185C183.385 140.812 176.288 143.975 166.926 147.096C157.607 150.217 156.41 155.988 156.41 155.988L130.717 214.684H146.876L162.138 181.253L168.422 214.684H194.671H220.919L227.204 181.253L242.465 214.684H258.625L232.932 155.988Z" fill="#BFA573"/>
<path d="M235.368 66.3839C235.368 98.7456 223.869 125.165 194.371 125.165C164.874 125.165 153.93 98.4036 153.93 66.0419C153.93 33.6802 181.375 27.1394 194.841 27.1394C208.308 27.1394 235.368 34.0222 235.368 66.3839Z" fill="#D0B37D"/>
<path d="M179.838 105.714C184.327 108.407 189.072 108.835 193.945 108.749C198.819 108.749 203.479 108.151 208.138 105.714C206.428 107.723 201.64 111.229 193.945 111.229C186.25 111.229 181.377 107.894 179.838 105.714Z" fill="#494032"/>
<path d="M184.712 87.0748C184.712 91.5208 181.078 95.1118 176.589 95.1118C172.101 95.1118 168.467 91.5208 168.467 87.0748C168.467 82.6288 172.101 79.0378 176.589 79.0378C181.078 79.0378 184.712 82.6288 184.712 87.0748Z" fill="#896B4E"/>
<path d="M182.617 87.0749C182.617 90.1957 180.094 92.7179 177.016 92.7179C173.896 92.7179 171.416 90.1957 171.416 87.0749C171.416 83.9969 173.938 81.4747 177.016 81.4747C180.094 81.4319 182.617 83.9542 182.617 87.0749Z" fill="#2A1D01"/>
<path d="M174.665 84.168C174.665 85.0657 173.938 85.7925 173.041 85.7925C172.143 85.7925 171.416 85.0657 171.416 84.168C171.416 83.2702 172.143 82.5435 173.041 82.5435C173.896 82.5435 174.665 83.2702 174.665 84.168Z" fill="white"/>
<path d="M204.633 87.0748C204.633 91.5208 208.267 95.1118 212.755 95.1118C217.244 95.1118 220.878 91.5208 220.878 87.0748C220.878 82.6288 217.244 79.0378 212.755 79.0378C208.267 79.0378 204.633 82.6288 204.633 87.0748Z" fill="#896B4E"/>
<path d="M206.729 87.0749C206.729 90.1957 209.251 92.7179 212.329 92.7179C215.45 92.7179 217.929 90.1957 217.929 87.0749C217.929 83.9969 215.407 81.4747 212.329 81.4747C209.251 81.4319 206.729 83.9542 206.729 87.0749Z" fill="#2A1D01"/>
<path d="M207.027 84.168C207.027 85.0657 207.754 85.7925 208.652 85.7925C209.55 85.7925 210.276 85.0657 210.276 84.168C210.276 83.2702 209.55 82.5435 208.652 82.5435C207.797 82.5435 207.027 83.2702 207.027 84.168Z" fill="white"/>
<path d="M235.498 150.687C235.498 150.687 234.985 149.533 231.907 148.122C227.675 146.198 227.632 146.284 212.242 140.854L194.629 154.064L177.016 140.897C161.626 146.326 161.584 146.198 157.351 148.165C154.273 149.575 153.76 150.73 153.76 150.73L129.436 214.684H147.733L161.626 184.93L163.892 214.684L193.945 215.539V215.581H194.629H195.313V215.539L225.367 214.684L227.632 184.93L241.526 214.684H259.823L235.498 150.687Z" fill="#00B4AC"/>
<path d="M180.563 135.382C180.99 140.427 194.798 153.979 194.798 153.979C194.798 153.979 209.419 141.923 208.778 134.784L215.703 142.821C215.703 148.25 202.707 164.666 202.707 164.666L194.884 154.278L187.317 165.094C187.317 165.094 174.107 149.404 174.107 141.88L180.563 135.382Z" fill="#F4F4F4"/>
<path d="M215.576 142.778C215.576 148.207 202.58 164.623 202.58 164.623L194.757 154.235L187.19 165.051C187.19 165.051 173.98 149.362 173.98 141.838" stroke="#DBDCDD" stroke-miterlimit="10"/>
<path d="M236.608 53.8582C236.309 52.5757 236.01 51.2932 235.625 50.0534C235.283 48.8992 234.856 46.2059 234.856 46.2059C234.856 46.2059 234.172 46.0777 234.043 45.7784C233.744 45.0517 233.445 42.8287 233.445 42.8287C233.445 42.8287 231.393 41.0332 230.324 39.7934C229.597 38.9384 227.374 36.2452 227.374 36.2452L226.348 36.3307L223.741 34.4497C223.741 34.4497 222.501 32.3122 221.603 31.5854C221.261 31.3289 220.492 31.9274 220.15 31.6282C219.637 31.2007 218.525 30.4312 218.525 30.4312L217.328 28.8922L213.737 27.9517C213.737 27.9517 212.925 27.3104 212.497 27.2249C211.642 27.0967 209.804 27.4387 209.804 27.4387L208.778 26.5409L205.486 26.9684L203.178 25.7714L202.237 26.4982L200.057 26.2417C200.057 26.2417 199.202 25.7287 198.775 25.6859C198.133 25.6004 196.894 25.9424 196.894 25.9424C196.894 25.9424 195.312 25.4294 194.671 25.4294C193.559 25.4294 190.524 26.1562 190.524 26.1562L189.028 25.9424L186.548 26.7547C186.548 26.7547 185.266 26.5409 184.667 26.6264C183.94 26.7547 182.615 27.3959 182.615 27.3959L180.349 27.4387L179.366 27.8662L177.357 27.6097L175.732 28.3792C175.732 28.3792 174.792 28.2509 174.364 28.4647C174.193 28.5502 173.809 28.2937 173.809 28.2937L171.543 30.0464L169.662 31.4144H168.679C168.679 31.4144 168.08 32.6542 167.567 33.0817C166.926 33.5947 165.472 34.0649 164.874 34.4924C164.446 34.7917 164.831 35.1337 164.318 35.4757C164.104 35.6467 163.036 35.7749 162.779 35.9459C162.437 36.2024 162.907 36.4589 162.565 36.7154C161.197 37.7414 159.915 38.8102 159.06 39.7934C158.504 40.4347 157.991 41.1187 157.521 41.8454C156.58 43.2562 155.811 44.7097 155.127 46.2487C154.87 46.8044 154.657 47.4029 154.443 48.0014C153.759 49.8824 153.246 51.8489 152.776 53.8582C152.134 56.8507 152.647 59.9714 152.519 63.1777C151.878 82.4579 157.35 93.4447 157.35 93.4447C161.326 90.4949 156.281 66.4267 168.379 58.4324C172.227 55.9102 192.448 55.6537 194.756 55.6537C197.065 55.6537 217.2 55.9102 221.005 58.4324C233.103 66.4267 228.016 90.4949 232.034 93.4447C232.034 93.4447 237.506 82.4579 236.865 63.1777C236.779 59.9714 237.292 56.8507 236.608 53.8582Z" fill="#272524"/>
<path d="M232.078 80.1922C232.078 80.1922 231.351 78.9525 231.095 76.4302C230.496 69.8467 229.085 57.663 226.52 55.5682C222.972 52.6612 216.047 54.3285 214.294 54.243C212.541 54.1575 206.385 52.5757 205.06 50.7375C205.06 50.7375 199.46 52.6612 194.714 52.6612C190.012 52.6612 187.319 50.823 187.319 50.823C187.319 50.823 182.702 53.217 181.248 53.217C179.795 53.217 177.572 52.0627 177.572 52.0627C177.572 52.0627 177.358 53.3452 175.819 54.072C173.083 55.3117 166.2 53.6872 164.918 55.44C163.592 57.1927 159.446 61.9807 159.232 70.488C159.018 78.9952 157.223 69.5475 157.223 68.7352C157.223 67.923 158.291 55.3545 158.847 54.9697C159.403 54.585 161.284 53.5162 161.284 53.5162C161.284 53.5162 158.804 48.7282 162.908 45.009C164.063 43.9402 169.748 45.009 169.748 45.009C169.748 45.009 169.15 38.2545 171.458 37.1857C173.724 36.117 176.631 38.4682 179.88 36.8865C184.967 34.3642 187.019 41.247 188.772 40.05C190.525 38.8102 191.166 32.7397 195.356 34.9627C203.735 39.4087 200.357 34.8772 206.171 35.6467C212.028 36.4162 209.976 39.1095 214.208 41.5462C218.612 44.0685 221.989 42.1447 223.271 43.5555C224.597 44.9235 224.896 50.3955 230.24 52.533C235.626 54.6705 232.463 74.2072 232.676 75.5752C232.89 76.9432 233.232 80.1922 232.078 80.1922Z" fill="#393735"/>
<path d="M186.164 49.5832C186.164 49.5832 182.103 52.1482 180.521 52.0627C178.939 51.9772 176.802 49.113 176.588 45.9067C176.588 45.9067 178.683 50.1817 179.88 50.4382C181.077 50.6947 180.948 47.8732 181.974 48.3862C183.043 48.8992 183.855 49.284 184.411 48.9847C185.822 48.1725 183.77 37.9552 180.606 32.7397C180.564 32.7397 188.515 45.4365 186.164 49.5832Z" fill="#4F4C49"/>
<path d="M205.401 42.4011C205.401 42.4011 205.23 49.1556 202.836 49.4549C200.442 49.7541 202.836 29.6189 202.836 29.6189C202.836 29.6189 200.87 42.7004 200.741 44.3249C200.613 45.9494 199.673 46.8471 199.117 46.8899C198.518 46.9326 199.245 49.4549 198.518 49.7969C197.834 50.1389 195.825 50.6091 195.312 47.7449C195.312 47.7449 195.184 50.6091 197.279 50.9939C199.373 51.4214 204.204 50.3526 205.016 49.4121C205.871 48.5144 205.914 44.2394 205.401 42.4011Z" fill="#4F4C49"/>
<path d="M167.396 52.362C168.38 52.3192 169.363 52.3192 170.346 52.3192C171.329 52.3192 172.313 52.3192 173.253 52.3192C173.723 52.3192 174.236 52.2765 174.621 52.191C175.006 52.1482 175.22 51.8917 175.391 51.507C175.519 51.1222 175.519 50.652 175.476 50.1817C175.433 49.7115 175.305 49.2412 175.177 48.771C175.476 49.1557 175.733 49.626 175.904 50.0962C176.075 50.5665 176.16 51.1222 176.075 51.678C176.032 51.9772 175.904 52.2765 175.69 52.4902C175.562 52.6185 175.476 52.704 175.348 52.7895C175.22 52.875 175.049 52.9605 174.92 52.9605C174.365 53.1315 173.852 53.1315 173.381 53.1742C172.355 53.217 171.372 53.1315 170.389 53.0032C169.363 52.875 168.38 52.6612 167.396 52.362Z" fill="#4F4C49"/>
<path d="M208.094 37.8696C207.923 40.1354 207.795 42.4011 207.752 44.6241C207.752 45.7356 207.752 46.8899 207.881 47.9586C207.923 48.5144 208.009 49.0701 208.137 49.5831C208.265 50.0961 208.436 50.6091 208.736 50.9511C208.864 51.1221 209.078 51.2504 209.291 51.4214C209.505 51.5496 209.719 51.7206 209.933 51.8061C210.403 52.0199 210.873 52.0626 211.343 51.9771C211.6 51.9344 211.856 51.8489 212.113 51.7634C212.369 51.6779 212.669 51.5924 213.053 51.5496C213.139 51.5496 213.224 51.5496 213.353 51.5496C213.438 51.5496 213.566 51.5924 213.652 51.6351C213.78 51.6779 213.823 51.7206 213.908 51.7634C213.994 51.8061 214.037 51.8916 214.122 51.9344C214.25 52.0626 214.336 52.2764 214.379 52.4046C214.421 52.5329 214.421 52.4901 214.464 52.5329C214.635 52.6184 214.934 52.6611 215.191 52.6611C215.447 52.6611 215.747 52.7039 216.003 52.7039C216.559 52.7039 217.072 52.6611 217.628 52.4901C218.696 52.1909 219.68 51.6779 220.62 50.9939C219.851 51.8061 218.867 52.4901 217.756 52.9176C217.2 53.1314 216.644 53.2596 216.046 53.3024C215.747 53.3024 215.49 53.3024 215.191 53.3024C214.892 53.3024 214.592 53.3024 214.25 53.1741C214.165 53.1314 214.037 53.0886 213.951 52.9604C213.908 52.9176 213.866 52.8749 213.823 52.8321L213.78 52.7039C213.737 52.5756 213.695 52.5329 213.609 52.4474C213.566 52.4046 213.524 52.4046 213.481 52.3619C213.438 52.3191 213.395 52.2764 213.353 52.2764C213.31 52.2764 213.31 52.2336 213.267 52.2336C213.224 52.2336 213.182 52.2336 213.139 52.2336C212.711 52.2764 212.156 52.5756 211.557 52.7039C210.959 52.8321 210.232 52.7894 209.676 52.5329C209.377 52.4046 209.12 52.2336 208.864 52.0626C208.607 51.8916 208.394 51.7206 208.137 51.4214C207.71 50.8656 207.539 50.2671 207.41 49.7114C207.282 49.1129 207.197 48.5571 207.154 47.9586C207.068 46.8044 207.068 45.6501 207.154 44.4959C207.282 42.3584 207.581 40.0926 208.094 37.8696Z" fill="#4F4C49"/>
</g>
</g>
<defs>
<clipPath id="clip0_1607_4826">
<rect width="380" height="213.75" fill="white" transform="translate(0 0.250488)"/>
</clipPath>
<clipPath id="clip1_1607_4826">
<rect width="192.375" height="213.75" fill="white" transform="translate(94.209 0.249756)"/>
</clipPath>
</defs>
</svg>
