<svg width="380" height="215" viewBox="0 0 380 215" fill="none" xmlns="http://www.w3.org/2000/svg">
<g clip-path="url(#clip0_1607_4557)">
<rect width="380" height="213.75" transform="translate(0 0.500488)" fill="#004152"/>
<path d="M175.466 147.796C175.466 147.796 171.661 135.355 173.157 134.287C174.653 133.218 196.328 130.482 204.365 133.645L203.723 147.753L179.057 158.911L175.466 147.796Z" fill="#AFB1B4"/>
<path d="M156.613 176.866L220.139 178.49L228.476 156.046C228.476 156.046 227.15 150.232 217.831 147.112C208.511 143.991 200.09 140.485 200.09 133.859C200.09 127.233 200.09 116.417 200.09 116.417H188.804H188.761H177.475C177.475 116.417 177.475 127.233 177.475 133.859C177.475 140.485 169.096 143.649 159.776 146.727C150.457 149.848 149.26 155.576 149.26 155.576L156.613 176.866Z" fill="url(#paint0_linear_1607_4557)"/>
<path d="M131.903 214.229L153.278 183.236C153.278 183.236 154.347 200.464 155.288 214.229H218.472C219.584 199.523 221.08 180.842 221.08 180.842L238.736 214.229H254.168C245.063 191.657 228.86 151.9 227.065 149.506C224.543 146.129 203.894 140.229 203.894 140.229L188.291 162.972L170.977 139.374C170.977 139.374 152.423 146.129 150.756 146.984C149.516 147.625 125.534 191.786 113.393 214.229H131.903Z" fill="#1BB24B"/>
<path d="M229.33 66.2286C229.33 98.5476 217.873 124.924 188.419 124.924C158.964 124.924 148.062 98.2484 148.062 65.9294C148.062 33.6104 175.465 30.2759 188.889 30.2759C202.312 30.2759 229.33 33.9096 229.33 66.2286Z" fill="#5F492C"/>
<path d="M181.708 86.9198C181.708 91.3658 178.074 94.9568 173.585 94.9568C169.097 94.9568 165.463 91.3658 165.463 86.9198C165.463 82.4738 169.097 78.8828 173.585 78.8828C178.074 78.8828 181.708 82.4738 181.708 86.9198Z" fill="#90692D"/>
<path d="M179.613 86.9198C179.613 89.9978 177.09 92.5201 174.012 92.5201C170.934 92.5201 168.412 89.9978 168.412 86.9198C168.412 83.8418 170.934 81.3196 174.012 81.3196C177.133 81.3196 179.613 83.8418 179.613 86.9198Z" fill="#2A1D01"/>
<path d="M171.661 84.0127C171.661 84.9104 170.934 85.6372 170.037 85.6372C169.139 85.6372 168.412 84.9104 168.412 84.0127C168.412 83.1149 169.139 82.3882 170.037 82.3882C170.934 82.3882 171.661 83.1149 171.661 84.0127Z" fill="white"/>
<path d="M170.807 104.704C176.364 108.081 182.306 110.133 188.334 110.09C194.405 110.09 200.219 107.739 205.99 104.704C203.852 107.226 201.202 109.278 198.209 110.774C195.217 112.313 191.797 113.125 188.377 113.168C184.957 113.168 181.537 112.399 178.502 110.902C175.466 109.449 172.73 107.397 170.807 104.704Z" fill="#2A1D01"/>
<path d="M196.541 86.9198C196.541 91.3658 200.175 94.9568 204.664 94.9568C209.152 94.9568 212.786 91.3658 212.786 86.9198C212.786 82.4738 209.152 78.8828 204.664 78.8828C200.175 78.8828 196.541 82.4738 196.541 86.9198Z" fill="#90692D"/>
<path d="M198.637 86.9198C198.637 89.9978 201.159 92.5201 204.237 92.5201C207.315 92.5201 209.837 89.9978 209.837 86.9198C209.837 83.8418 207.315 81.3196 204.237 81.3196C201.116 81.3196 198.637 83.8418 198.637 86.9198Z" fill="#2A1D01"/>
<path d="M198.936 84.0127C198.936 84.9104 199.662 85.6372 200.56 85.6372C201.458 85.6372 202.185 84.9104 202.185 84.0127C202.185 83.1149 201.458 82.3882 200.56 82.3882C199.662 82.3882 198.936 83.1149 198.936 84.0127Z" fill="white"/>
<path d="M173.371 144.034C173.371 144.034 187.906 156.688 203.724 144.034L188.248 163.015L173.371 144.034Z" fill="#004152"/>
<path d="M235.101 64.989C235.101 63.621 234.075 62.5095 232.707 62.3385C234.161 62.0392 235.272 60.7567 235.272 59.2177C235.272 57.465 233.819 56.0115 232.066 56.0115C231.81 56.0115 231.553 56.0542 231.339 56.097V56.0542C232.707 55.6695 233.691 54.4725 233.691 52.9762C233.691 51.2235 232.237 49.77 230.484 49.77C230.399 49.77 230.313 49.77 230.271 49.8127C231.211 49.0005 231.81 47.8035 231.81 46.4782C231.81 43.9987 229.8 42.0322 227.364 42.0322C226.765 42.0322 226.209 42.1605 225.739 42.3315C226.423 41.6475 226.851 40.707 226.851 39.681C226.851 37.629 225.183 35.9617 223.131 35.9617C222.832 35.9617 222.49 36.0045 222.191 36.09C222.191 35.919 222.234 35.748 222.234 35.577C222.234 33.3112 220.395 31.473 218.13 31.473C217.232 31.473 216.377 31.7722 215.693 32.2852C215.736 32.0715 215.736 31.8577 215.736 31.644C215.736 29.3782 213.897 27.54 211.632 27.54C210.691 27.54 209.793 27.882 209.109 28.4377C209.024 26.0437 207.057 24.12 204.663 24.12C203.124 24.12 201.756 24.8895 200.987 26.0865C200.559 24.291 198.935 22.9657 197.011 22.9657C195.729 22.9657 194.574 23.5642 193.848 24.5047C193.164 23.1795 191.796 22.2817 190.214 22.2817C189.145 22.2817 188.205 22.6665 187.478 23.3505C186.922 23.0085 186.281 22.7947 185.597 22.7947C184.614 22.7947 183.759 23.1795 183.16 23.8207C182.476 23.3077 181.621 22.9657 180.681 22.9657C178.757 22.9657 177.132 24.291 176.705 26.0865C175.893 24.8895 174.567 24.12 173.028 24.12C170.634 24.12 168.668 26.0437 168.582 28.4377C167.898 27.882 167.001 27.54 166.06 27.54C163.794 27.54 161.956 29.3782 161.956 31.644C161.956 31.8577 161.999 32.0715 161.999 32.2852C161.315 31.7722 160.46 31.473 159.562 31.473C157.296 31.473 155.458 33.3112 155.458 35.577C155.458 35.748 155.458 35.919 155.501 36.09C155.202 36.0045 154.902 35.9617 154.56 35.9617C152.508 35.9617 150.841 37.629 150.841 39.681C150.841 40.3222 151.012 40.9635 151.311 41.4765C151.14 41.4337 151.012 41.4337 150.841 41.4337C149.345 41.4337 148.148 42.6307 148.148 44.127C148.148 45.1102 148.704 45.9652 149.473 46.4355C149.473 46.4355 149.473 46.4782 149.43 46.4782C149.131 46.3927 148.832 46.3072 148.533 46.3072C147.036 46.3072 145.839 47.5042 145.839 49.0005C145.839 49.3852 145.925 49.7272 146.053 50.0692C144.813 50.4967 143.916 51.6937 143.916 53.0617C143.916 54.4297 144.771 55.5412 145.925 56.0115C145.925 56.0542 145.925 56.097 145.882 56.097C145.754 56.097 145.626 56.0542 145.497 56.0542C143.745 56.0542 142.291 57.5077 142.291 59.2605C142.291 60.7995 143.403 62.082 144.856 62.3812C143.531 62.5522 142.462 63.6637 142.462 65.0317C142.462 66.3997 143.488 67.5112 144.813 67.6822C143.574 67.896 142.633 69.0075 142.633 70.3327C142.633 71.7007 143.659 72.8122 144.984 72.9832C144.984 73.0687 144.984 73.1542 144.984 73.197C144.001 73.4962 143.317 74.3512 143.317 75.42C143.317 76.5742 144.172 77.5147 145.284 77.7285C145.284 77.8567 145.326 77.985 145.326 78.1132C144.856 78.5407 144.514 79.1392 144.514 79.866C144.514 80.721 144.984 81.4905 145.668 81.8752C145.668 82.0035 145.711 82.1317 145.711 82.26C145.497 82.5592 145.412 82.9012 145.412 83.2432C145.412 83.7562 145.668 84.2265 146.01 84.5685C146.31 86.6632 150.67 90.9382 150.67 90.9382C150.67 90.9382 152.209 69.435 154.689 66.5707C155.116 66.0577 155.544 65.5447 155.928 64.989C157.382 64.9462 158.536 63.792 158.536 62.3385C158.536 62.253 158.536 62.2102 158.536 62.1675C159.006 62.5522 159.605 62.8087 160.289 62.8087C161.785 62.8087 162.982 61.6117 162.982 60.1155C162.982 59.7735 162.897 59.4315 162.811 59.1322C163.025 59.175 163.196 59.2177 163.41 59.2177C164.564 59.2177 165.504 58.491 165.889 57.5077C170.549 56.0115 177.731 55.0282 189.444 55.0282C202.611 55.0282 210.52 56.8237 215.479 59.4742C215.693 60.201 216.377 60.714 217.189 60.714C217.232 60.714 217.232 60.714 217.275 60.714C217.275 60.7995 217.232 60.885 217.232 60.9705C217.232 62.4667 218.429 63.6637 219.925 63.6637C220.224 63.6637 220.524 63.621 220.78 63.4927C220.823 63.5355 220.866 63.5782 220.908 63.621C220.866 63.792 220.823 64.0057 220.823 64.2195C220.823 65.5447 221.806 66.6562 223.089 66.87C223.217 67.1265 223.345 67.383 223.473 67.6395C227.064 74.8215 225.739 93.717 225.739 93.717C226.466 90.8527 230.613 87.9457 231.083 84.8677C231.639 84.5685 232.066 83.97 232.066 83.286C232.066 82.8157 231.852 82.3455 231.553 82.0462C232.408 81.7042 232.964 80.8492 232.964 79.9087C232.964 79.0965 232.536 78.3697 231.895 77.9422C231.895 77.8995 231.895 77.8567 231.895 77.814C233.135 77.7712 234.161 76.7452 234.161 75.4627C234.161 74.3085 233.306 73.3252 232.194 73.1542C232.194 73.1115 232.194 73.0687 232.194 73.026C233.648 73.026 234.845 71.829 234.845 70.3327C234.845 69.0075 233.904 67.9387 232.665 67.6822C234.075 67.4685 235.101 66.357 235.101 64.989Z" fill="#2A1D01"/>
<path d="M241.002 181.825L240.66 182.551L245.277 192.256C243.824 188.75 242.413 185.245 241.002 181.825Z" fill="#F99D1C"/>
<path d="M234.162 168.872L227.664 182.509L234.162 196.146L240.66 182.509L234.162 168.872Z" fill="#189B41"/>
<path d="M228.776 152.926L227.664 155.277L234.162 168.914L234.932 167.247C232.409 161.177 230.229 156.089 228.776 152.926Z" fill="#189B41"/>
<path d="M214.711 182.509L220.055 193.752C220.653 186.356 221.081 180.799 221.081 180.799L224.971 188.152L227.664 182.466L221.209 168.871L214.711 182.509Z" fill="#F99D1C"/>
<path d="M219.413 145.359L214.711 155.234L221.209 168.871L227.707 155.234L223.945 147.325C222.62 146.684 221.081 146.043 219.413 145.359Z" fill="#F99D1C"/>
<path d="M208.211 168.871L201.756 182.509L208.211 196.146L214.709 182.509L208.211 168.871Z" fill="#189B41"/>
<path d="M208.211 141.597L201.756 155.234L208.211 168.871L214.709 155.234L208.211 141.597Z" fill="#189B41"/>
<path d="M195.26 168.872L188.762 182.509L195.26 196.146L201.715 182.509L195.26 168.872Z" fill="#F99D1C"/>
<path d="M182.305 168.872L175.807 182.509L182.305 196.146L188.76 182.509L182.305 168.872Z" fill="#189B41"/>
<path d="M169.309 168.871L162.854 182.509L169.309 196.146L175.807 182.509L169.309 168.871Z" fill="#F99D1C"/>
<path d="M169.309 141.597L162.854 155.234L169.309 168.871L175.807 155.234L169.309 141.597Z" fill="#F99D1C"/>
<path d="M160.715 214.229L162.81 209.826L156.312 196.189L154.346 200.335C154.645 204.867 154.987 209.74 155.286 214.229H160.715Z" fill="#189B41"/>
<path d="M162.853 182.509L156.355 168.872L149.857 182.509L151.439 185.843L153.277 183.193C153.277 183.193 153.448 186.185 153.748 190.674L156.355 196.146L162.853 182.509Z" fill="#189B41"/>
<path d="M149.857 155.277L156.355 168.914L162.853 155.277L157.638 144.333C156.526 144.761 155.458 145.145 154.517 145.487L149.857 155.277Z" fill="#189B41"/>
<path d="M143.788 197.001L143.403 196.146L141.223 200.72L143.788 197.001Z" fill="#F99D1C"/>
<path d="M143.402 168.872L136.904 182.509L143.402 196.146L149.858 182.509L143.402 168.872Z" fill="#F99D1C"/>
<path d="M143.402 168.872L149.9 155.234L148.019 151.301C146.266 154.294 143.829 158.612 140.965 163.742L143.402 168.872Z" fill="#F99D1C"/>
<path d="M136.092 208.116L130.406 196.146L123.951 209.783L126.046 214.229H131.903L136.092 208.116Z" fill="#189B41"/>
<path d="M130.407 196.146L136.905 182.509L133.998 176.353C131.732 180.5 129.381 184.775 127.072 189.05L130.407 196.146Z" fill="#189B41"/>
<path d="M121.857 214.229L123.952 209.826L120.147 201.789C117.711 206.321 115.402 210.553 113.436 214.229H121.857Z" fill="#F99D1C"/>
<path d="M173.157 134.329C173.585 139.374 189.189 160.45 189.189 160.45C189.189 160.45 205.006 140.827 204.365 133.688L210.692 141.896C210.692 146.727 196.584 171.607 196.584 171.607L188.975 161.903L181.194 172.035C181.194 172.035 166.873 147.796 166.873 141.041L173.157 134.329Z" fill="#EFEFF0"/>
<path d="M252.929 211.194C251.091 206.705 249.082 201.661 246.944 196.488L240.617 209.826L242.712 214.229H251.476L252.929 211.194Z" fill="#F99D1C"/>
<path d="M238.651 214.016L240.66 209.783L234.162 196.146L231.811 201.105L238.651 214.016Z" fill="#189B41"/>
<path d="M219.627 199.48L214.711 209.783L216.806 214.186H218.473C218.858 209.484 219.242 204.311 219.627 199.48Z" fill="#F99D1C"/>
<path d="M212.614 214.229L214.709 209.783L208.211 196.146L201.756 209.783L203.851 214.229H212.614Z" fill="#189B41"/>
<path d="M199.62 214.229L201.715 209.783L195.26 196.146L188.762 209.783L190.856 214.229H199.62Z" fill="#F99D1C"/>
<path d="M186.665 214.229L188.76 209.783L182.305 196.146L175.807 209.783L177.901 214.229H186.665Z" fill="#189B41"/>
<path d="M173.712 214.229L175.807 209.783L169.309 196.146L162.854 209.783L164.948 214.229H173.712Z" fill="#F99D1C"/>
</g>
<defs>
<linearGradient id="paint0_linear_1607_4557" x1="149.266" y1="147.465" x2="228.487" y2="147.465" gradientUnits="userSpaceOnUse">
<stop stop-color="#5F492C"/>
<stop offset="1" stop-color="#46351B"/>
</linearGradient>
<clipPath id="clip0_1607_4557">
<rect width="380" height="213.75" fill="white" transform="translate(0 0.500488)"/>
</clipPath>
</defs>
</svg>
