<svg width="960" height="540" viewBox="0 0 960 540" fill="none" xmlns="http://www.w3.org/2000/svg">
 <!-- This ensures the component can be found in the ComponentIllustration component -->
  <symbol id="component-illustration" viewBox="0 0 960 540">
    
    <!-- Use variables to set backgroundcolors so they can change with the status of the component without modififying this file -->
        <g clip-path="url(#clip0_633_1932)">
        <rect width="960" height="540" fill="var(--component-illustration-background-color, white)"/>
        <g clip-path="url(#clip1_633_1932)">
        <rect width="960" height="540" fill="var(--component-illustration-background-color, white)"/>
        <rect width="2" height="540" transform="translate(69)" fill="var(--component-illustration-grid-color, #eee)"/>
        <rect width="2" height="540" transform="translate(151)" fill="var(--component-illustration-grid-color, #eee)"/>
        <rect width="2" height="540" transform="translate(233)" fill="var(--component-illustration-grid-color, #eee)"/>
        <rect width="2" height="540" transform="translate(315)" fill="var(--component-illustration-grid-color, #eee)"/>
        <rect width="2" height="540" transform="translate(397)" fill="var(--component-illustration-grid-color, #eee)"/>
        <rect width="2" height="540" transform="translate(479)" fill="var(--component-illustration-grid-color, #eee)"/>
        <rect width="2" height="540" transform="translate(561)" fill="var(--component-illustration-grid-color, #eee)"/>
        <rect width="2" height="540" transform="translate(643)" fill="var(--component-illustration-grid-color, #eee)"/>
        <rect width="2" height="540" transform="translate(725)" fill="var(--component-illustration-grid-color, #eee)"/>
        <rect width="2" height="540" transform="translate(807)" fill="var(--component-illustration-grid-color, #eee)"/>
        <rect width="2" height="540" transform="translate(889)" fill="var(--component-illustration-grid-color, #eee)"/>
        <rect width="960" height="2" transform="translate(0 64)" fill="var(--component-illustration-grid-color, #eee)"/>
        <rect width="960" height="2" transform="translate(0 146)" fill="var(--component-illustration-grid-color, #eee)"/>
        <rect width="960" height="2" transform="translate(0 228)" fill="var(--component-illustration-grid-color, #eee)"/>
        <rect width="960" height="2" transform="translate(0 310)" fill="var(--component-illustration-grid-color, #eee)"/>
        <rect width="960" height="2" transform="translate(0 392)" fill="var(--component-illustration-grid-color, #eee)"/>
        <rect width="960" height="2" transform="translate(0 474)" fill="var(--component-illustration-grid-color, #eee)"/>
        </g>
        <rect x="220" y="262" width="120" height="16" rx="8" fill="var(--component-illustration-color, #666)"/>
        <path fill-rule="evenodd" clip-rule="evenodd" d="M372.586 256.586C373.367 255.805 374.633 255.805 375.414 256.586L387.414 268.586C388.195 269.367 388.195 270.633 387.414 271.414L375.414 283.414C374.633 284.195 373.367 284.195 372.586 283.414C371.805 282.633 371.805 281.367 372.586 280.586L383.172 270L372.586 259.414C371.805 258.633 371.805 257.367 372.586 256.586Z" fill="var(--component-illustration-color, #666)" stroke="var(--component-illustration-color, #666)" stroke-width="2" stroke-linecap="round" stroke-linejoin="round"/>
        <rect x="420" y="262" width="120" height="16" rx="8" fill="var(--component-illustration-color, #666)"/>
        <path fill-rule="evenodd" clip-rule="evenodd" d="M572.586 256.586C573.367 255.805 574.633 255.805 575.414 256.586L587.414 268.586C588.195 269.367 588.195 270.633 587.414 271.414L575.414 283.414C574.633 284.195 573.367 284.195 572.586 283.414C571.805 282.633 571.805 281.367 572.586 280.586L583.172 270L572.586 259.414C571.805 258.633 571.805 257.367 572.586 256.586Z" fill="var(--component-illustration-color, #666)" stroke="var(--component-illustration-color, #666)" stroke-width="2" stroke-linecap="round" stroke-linejoin="round"/>
        <rect x="620" y="262" width="120" height="16" rx="8" fill="var(--component-illustration-color, #666)"/>
        </g>
        <defs>
        <clipPath id="clip0_633_1932">
        <rect width="960" height="540" fill="white"/>
        </clipPath>
        <clipPath id="clip1_633_1932">
        <rect width="960" height="540" fill="white"/>
        </clipPath>
        </defs>
    </symbol>
    <use href="#component-illustration"/>
</svg>
