<svg width="960" height="540" viewBox="0 0 960 540" fill="none" xmlns="http://www.w3.org/2000/svg">
<symbol id="component-illustration" viewBox="0 0 960 540">
<rect width="960" height="540" fill="var(--component-illustration-background-color, white)"/>
<rect width="2" height="540" transform="translate(69)" fill="var(--component-illustration-grid-color, #eee)"/>
<rect width="2" height="540" transform="translate(151)" fill="var(--component-illustration-grid-color, #eee)"/>
<rect width="2" height="540" transform="translate(233)" fill="var(--component-illustration-grid-color, #eee)"/>
<rect width="2" height="540" transform="translate(315)" fill="var(--component-illustration-grid-color, #eee)"/>
<rect width="2" height="540" transform="translate(397)" fill="var(--component-illustration-grid-color, #eee)"/>
<rect width="2" height="540" transform="translate(479)" fill="var(--component-illustration-grid-color, #eee)"/>
<rect width="2" height="540" transform="translate(561)" fill="var(--component-illustration-grid-color, #eee)"/>
<rect width="2" height="540" transform="translate(643)" fill="var(--component-illustration-grid-color, #eee)"/>
<rect width="2" height="540" transform="translate(725)" fill="var(--component-illustration-grid-color, #eee)"/>
<rect width="2" height="540" transform="translate(807)" fill="var(--component-illustration-grid-color, #eee)"/>
<rect width="2" height="540" transform="translate(889)" fill="var(--component-illustration-grid-color, #eee)"/>
<rect width="960" height="2" transform="translate(0 64)" fill="var(--component-illustration-grid-color, #eee)"/>
<rect width="960" height="2" transform="translate(0 146)" fill="var(--component-illustration-grid-color, #eee)"/>
<rect width="960" height="2" transform="translate(0 228)" fill="var(--component-illustration-grid-color, #eee)"/>
<rect width="960" height="2" transform="translate(0 310)" fill="var(--component-illustration-grid-color, #eee)"/>
<rect width="960" height="2" transform="translate(0 392)" fill="var(--component-illustration-grid-color, #eee)"/>
<rect width="960" height="2" transform="translate(0 474)" fill="var(--component-illustration-grid-color, #eee)"/>
<rect x="604" y="230" width="80" height="80" stroke="var(--component-illustration-color, #666)" stroke-width="4"/>
<rect x="604" y="230" width="80" height="80" stroke="var(--component-illustration-color, #666)" stroke-width="4"/>
<rect x="440" y="230" width="80" height="80" stroke="var(--component-illustration-color, #666)" stroke-width="4"/>
<rect x="440" y="230" width="80" height="80" stroke="var(--component-illustration-color, #666)" stroke-width="4"/>
<path d="M448 230L448 310" stroke="var(--component-illustration-color, #666)" stroke-width="4" stroke-linecap="round"/>
<path d="M456 230L456 310" stroke="var(--component-illustration-color, #666)" stroke-width="4" stroke-linecap="round"/>
<path d="M464 230L464 310" stroke="var(--component-illustration-color, #666)" stroke-width="4" stroke-linecap="round"/>
<path d="M472 230L472 310" stroke="var(--component-illustration-color, #666)" stroke-width="4" stroke-linecap="round"/>
<path d="M480 230L480 310" stroke="var(--component-illustration-color, #666)" stroke-width="4" stroke-linecap="round"/>
<path d="M488 230L488 310" stroke="var(--component-illustration-color, #666)" stroke-width="4" stroke-linecap="round"/>
<path d="M496 230L496 310" stroke="var(--component-illustration-color, #666)" stroke-width="4" stroke-linecap="round"/>
<path d="M504 230L504 310" stroke="var(--component-illustration-color, #666)" stroke-width="4" stroke-linecap="round"/>
<path d="M512 230L512 310" stroke="var(--component-illustration-color, #666)" stroke-width="4" stroke-linecap="round"/>
<rect x="274" y="228" width="84" height="84" fill="var(--component-illustration-color, #666)"/>
</symbol>
<use href="#component-illustration"/>
</svg>
