<svg width="960" height="540" viewBox="0 0 960 540" fill="none" xmlns="http://www.w3.org/2000/svg">
<symbol id="component-illustration">
<rect width="960" height="540" fill="var(--component-illustration-background-color, white)"/>
<rect width="960" height="540" fill="var(--component-illustration-background-color, white)"/>
<rect width="2" height="540" transform="translate(69)" fill="var(--component-illustration-grid-color, #eee)"/>
<rect width="2" height="540" transform="translate(151)" fill="var(--component-illustration-grid-color, #eee)"/>
<rect width="2" height="540" transform="translate(233)" fill="var(--component-illustration-grid-color, #eee)"/>
<rect width="2" height="540" transform="translate(315)" fill="var(--component-illustration-grid-color, #eee)"/>
<rect width="2" height="540" transform="translate(397)" fill="var(--component-illustration-grid-color, #eee)"/>
<rect width="2" height="540" transform="translate(479)" fill="var(--component-illustration-grid-color, #eee)"/>
<rect width="2" height="540" transform="translate(561)" fill="var(--component-illustration-grid-color, #eee)"/>
<rect width="2" height="540" transform="translate(643)" fill="var(--component-illustration-grid-color, #eee)"/>
<rect width="2" height="540" transform="translate(725)" fill="var(--component-illustration-grid-color, #eee)"/>
<rect width="2" height="540" transform="translate(807)" fill="var(--component-illustration-grid-color, #eee)"/>
<rect width="2" height="540" transform="translate(889)" fill="var(--component-illustration-grid-color, #eee)"/>
<rect width="960" height="2" transform="translate(0 64)" fill="var(--component-illustration-grid-color, #eee)"/>
<rect width="960" height="2" transform="translate(0 146)" fill="var(--component-illustration-grid-color, #eee)"/>
<rect width="960" height="2" transform="translate(0 228)" fill="var(--component-illustration-grid-color, #eee)"/>
<rect width="960" height="2" transform="translate(0 310)" fill="var(--component-illustration-grid-color, #eee)"/>
<rect width="960" height="2" transform="translate(0 392)" fill="var(--component-illustration-grid-color, #eee)"/>
<rect width="960" height="2" transform="translate(0 474)" fill="var(--component-illustration-grid-color, #eee)"/>
<rect x="397" y="262" width="62.6" height="16" rx="8" fill="var(--component-illustration-color, #666)"/>
<rect x="484.602" y="262" width="84.5" height="16" rx="8" fill="var(--component-illustration-color, #666)"/>
<rect x="572.199" y="262" width="62.6" height="16" rx="8" fill="var(--component-illustration-color, #666)"/>
<rect x="659.801" y="262" width="62.6" height="16" rx="8" fill="var(--component-illustration-color, #666)"/>
<rect x="747.398" y="262" width="62.6" height="16" rx="8" fill="var(--component-illustration-color, #666)"/>
<line x1="2" y1="-2" x2="168.523" y2="-2" transform="matrix(0.970524 0.241004 -0.776509 0.630106 151 249.903)" stroke="var(--component-illustration-color, #666)" stroke-width="4" stroke-linecap="round"/>
<line x1="2" y1="-2" x2="168.523" y2="-2" transform="matrix(0.970524 -0.241004 0.776509 0.630106 151.504 291)" stroke="var(--component-illustration-color, #666)" stroke-width="4" stroke-linecap="round"/>
<rect x="153" y="251" width="162" height="38" stroke="var(--component-illustration-color, #666)" stroke-width="4"/>
<rect x="71" y="230" width="818" height="81" stroke="var(--component-illustration-color, #666)" stroke-width="4"/>
</symbol>
<use href="#component-illustration"/>
</svg>
