<svg width="960" height="540" viewBox="0 0 960 540" fill="none" xmlns="http://www.w3.org/2000/svg">
<symbol id="component-illustration">
<rect width="960" height="540" fill="var(--component-illustration-background-color, white)"/>
<rect width="960" height="540" fill="var(--component-illustration-background-color, white)"/>
<rect width="2" height="540" transform="translate(69)" fill="var(--component-illustration-grid-color, #eee)"/>
<rect width="2" height="540" transform="translate(151)" fill="var(--component-illustration-grid-color, #eee)"/>
<rect width="2" height="540" transform="translate(233)" fill="var(--component-illustration-grid-color, #eee)"/>
<rect width="2" height="540" transform="translate(315)" fill="var(--component-illustration-grid-color, #eee)"/>
<rect width="2" height="540" transform="translate(397)" fill="var(--component-illustration-grid-color, #eee)"/>
<rect width="2" height="540" transform="translate(479)" fill="var(--component-illustration-grid-color, #eee)"/>
<rect width="2" height="540" transform="translate(561)" fill="var(--component-illustration-grid-color, #eee)"/>
<rect width="2" height="540" transform="translate(643)" fill="var(--component-illustration-grid-color, #eee)"/>
<rect width="2" height="540" transform="translate(725)" fill="var(--component-illustration-grid-color, #eee)"/>
<rect width="2" height="540" transform="translate(807)" fill="var(--component-illustration-grid-color, #eee)"/>
<rect width="2" height="540" transform="translate(889)" fill="var(--component-illustration-grid-color, #eee)"/>
<rect width="960" height="2" transform="translate(0 64)" fill="var(--component-illustration-grid-color, #eee)"/>
<rect width="960" height="2" transform="translate(0 146)" fill="var(--component-illustration-grid-color, #eee)"/>
<rect width="960" height="2" transform="translate(0 228)" fill="var(--component-illustration-grid-color, #eee)"/>
<rect width="960" height="2" transform="translate(0 310)" fill="var(--component-illustration-grid-color, #eee)"/>
<rect width="960" height="2" transform="translate(0 392)" fill="var(--component-illustration-grid-color, #eee)"/>
<rect width="960" height="2" transform="translate(0 474)" fill="var(--component-illustration-grid-color, #eee)"/>
<path d="M247.868 234.436H250.988V237.316H240.308V234.436H244.148V224.404L240.668 226.492L239.012 223.996L244.484 220.684H247.868V234.436Z" fill="var(--component-illustration-color, #666)"/>
<rect x="273" y="221" width="454" height="16" rx="8" fill="var(--component-illustration-color, #666)"/>
<path d="M244.831 261.48C246.063 261.48 247.111 261.696 247.975 262.128C248.839 262.56 249.487 263.144 249.919 263.88C250.351 264.6 250.567 265.4 250.567 266.28C250.567 267.144 250.359 268 249.943 268.848C249.543 269.68 248.855 270.632 247.879 271.704C246.919 272.76 245.551 274.064 243.775 275.616H250.951L250.543 278.52H239.431V275.832C241.447 273.896 242.943 272.408 243.919 271.368C244.911 270.312 245.615 269.424 246.031 268.704C246.463 267.984 246.679 267.28 246.679 266.592C246.679 265.92 246.479 265.384 246.079 264.984C245.679 264.568 245.127 264.36 244.423 264.36C243.815 264.36 243.271 264.496 242.791 264.768C242.327 265.024 241.847 265.448 241.351 266.04L239.047 264.264C240.471 262.408 242.399 261.48 244.831 261.48Z" fill="var(--component-illustration-color, #666)"/>
<rect x="273" y="262" width="454" height="16" rx="8" fill="var(--component-illustration-color, #666)"/>
<path d="M244.94 302.276C246.092 302.276 247.092 302.468 247.94 302.852C248.804 303.22 249.46 303.732 249.908 304.388C250.372 305.028 250.604 305.74 250.604 306.524C250.604 307.564 250.308 308.42 249.716 309.092C249.124 309.748 248.292 310.204 247.22 310.46C249.844 310.844 251.156 312.236 251.156 314.636C251.156 315.58 250.892 316.444 250.364 317.228C249.836 317.996 249.084 318.604 248.108 319.052C247.132 319.5 245.996 319.724 244.7 319.724C243.484 319.724 242.38 319.508 241.388 319.076C240.396 318.644 239.548 318.028 238.844 317.228L240.908 315.26C241.964 316.316 243.14 316.844 244.436 316.844C245.284 316.844 245.964 316.628 246.476 316.196C247.004 315.748 247.268 315.14 247.268 314.372C247.268 312.708 246.316 311.876 244.412 311.876H242.828L243.26 309.26H244.412C245.18 309.26 245.788 309.076 246.236 308.708C246.7 308.34 246.932 307.804 246.932 307.1C246.932 306.476 246.708 305.988 246.26 305.636C245.812 305.268 245.228 305.084 244.508 305.084C243.868 305.084 243.276 305.212 242.732 305.468C242.204 305.708 241.692 306.06 241.196 306.524L239.252 304.484C240.804 303.012 242.7 302.276 244.94 302.276Z" fill="var(--component-illustration-color, #666)"/>
<rect x="273" y="303" width="298" height="16" rx="8" fill="var(--component-illustration-color, #666)"/>
</symbol>
<use href="#component-illustration"/>
</svg>
