<svg xmlns="http://www.w3.org/2000/svg" width="576" height="80" fill="none">
  <path fill="#fff" d="M0 0h132v80H0z"/>
  <g clip-path="url(#a)">
    <path fill="#C00" d="M84.038 19.777H64.088l-.276.58h20.38l-.153-.58Zm2.697 3.514v6.866c.21.038.409.123.58.266v-7.018l-.58-.114Zm.21 12.611-.153.864c-.019 0-.038-.01-.057-.01v1.197c0 1.605-.474 3.068-1.395 4.33a9.237 9.237 0 0 1-.75.884L61.996 20.556a1.696 1.696 0 0 0-.37-.123v.617c.475.161.703.589.684 1.063l-.627-.009c-.133-.38-.465-.646-.912-.75v.617c.219.085.38.256.38.541 0 .247-.2.437-.38.475v7.388c.228-.19.504-.256.789-.256.275 0 .55.104.807.256l-.589.551c.351.418-.019 1.054-.399 1.263-.408.218-.19.598.105.598.095 0 .19-.038.285-.123.246-.228.57-.342.883-.342.664 0 1.32.513 1.234 1.576l-.513-.285c-.17.56-.57.798-.94.798a.745.745 0 0 1-.456-.142c-.284-.21-.579-.428-.778-.428a.203.203 0 0 0-.171.086c-.152.209.01.418.55.684.912.456 1.093 1.766-.104 2.117l-.2.02-.151-.865a.723.723 0 0 1-.37.01v2.041c0 2.023.693 3.714 1.823 5.071.01.01.019.02.019.029.038.047.085.095.123.142l.029.029c.047.057.095.104.142.161 0 0 0 .01.01.01.047.057.104.104.151.161l.01.01c.066.038.123.085.18.133.114.095.228.209.323.342.732.645 1.586 1.187 2.507 1.642.105.057.21.114.323.162 1.52.76 3.742 1.586 7.626 1.586 3.884 0 6.106-.826 7.625-1.586.114-.057.219-.114.323-.162a11.724 11.724 0 0 0 2.479-1.614l.057-.085a.131.131 0 0 0 .028-.038c.01-.01.02-.029.038-.038.01-.02.029-.029.038-.048.01-.01.01-.019.02-.019l.056-.057.01-.01.057-.056.01-.01c.018-.019.047-.038.066-.057.047-.038.095-.066.142-.095.01-.01.02-.01.029-.019 1.415-1.443 2.298-3.314 2.298-5.603v-2.013a.553.553 0 0 1-.352 0Z"/>
    <path fill="#FFB70B" d="M13.5 12.437h6.362V66.48H13.5V12.436Z"/>
    <path fill="#C00" d="M74.048 19.17c.934 0 1.69-.379 1.69-.846 0-.467-.756-.845-1.69-.845-.933 0-1.69.378-1.69.845 0 .467.757.845 1.69.845ZM69.215 18.324l-1.9-.959-1.909.96 1.91.949 1.898-.95Zm13.475 0-1.909-.959-1.9.96 1.9.949 1.909-.95Z"/>
    <path fill="#C00" d="M109.688 50.346c-.019.01-1.13.37-2.536.532.456-.39.76-.94.855-1.567.067-.475.048-1.804-.076-3.931a1.573 1.573 0 0 0-1.367-1.482 22.585 22.585 0 0 1-1.672-.275c-.807-.18-1.244-.475-1.301-.684-.076-.228-.066-.257-.038-.465.01-.095.029-.21.048-.361.019-.171.028-.333.057-.513.028-.218.047-.446.066-.674v-.038c.181.038.371.057.551.057.503 0 1.007-.133 1.444-.409a2.642 2.642 0 0 0 1.272-2.326c-.038-1.52-.883-2.583-1.633-3.514-.342-.427-.675-.836-.912-1.263-.769-1.386-.95-2.887-.532-4.473.171-.655.598-1.31 1.054-1.994.095-.142.19-.294.285-.437.067.01.133.02.2.02.284 0 .522-.096.693-.2 1.092-.675 1.472-2.878 1.453-4.112-.029-2.583-1.045-4.444-3.087-5.688l-.702-.428.266.779c.617 1.795.949 2.906.56 4.71-.124.58-.37 1.13-.608 1.662-.37.836-.731 1.643-.418 2.298-.076.114-.152.238-.228.351-.522.789-1.063 1.605-1.31 2.574-.532 2.051-.285 4.083.712 5.878.314.57.712 1.064 1.092 1.539.636.797 1.197 1.481 1.216 2.364a.741.741 0 0 1-.361.655.86.86 0 0 1-.855.029c-.218-.114-.427-.342-.56-.608a14.87 14.87 0 0 0-.836-1.975 51.3 51.3 0 0 0-1.016-1.9c-.627-1.139-1.225-2.212-1.662-3.38-.332-.902-.37-1.937-.351-2.602.475.085.893.104.969.104l.617.02-.01-.618c-.009-.465.361-1.272.779-2.213 1.149-2.544 2.887-6.381.655-10.778-.019-.028-.028-.066-.047-.095a2.4 2.4 0 0 0 .114-.807 2.591 2.591 0 0 0-.807-1.852l-.266-.237-.333.114a2.315 2.315 0 0 0-.636.37.966.966 0 0 0-.532-.256c-.057-.01-.114-.01-.19-.01-.92 0-4.273.76-4.71.988l-.228.114-.076.247-.161.56c-.74.247-1.415.617-1.918.893-.067.038-.133.076-.2.104l-.38.209.086.427c.01.067.342 1.738 1.31 2.868l.048.048c-.238.019-.447.038-.637.038-.579 0-1.035-.171-1.253-.513-.342-.532-.095-1.102.304-1.396a1.64 1.64 0 0 0-.684-.152 2.11 2.11 0 0 0-.513.066c-.76.171-1.187.808-1.044 1.577.161.921.807 1.49 1.927 1.49.228 0 .466-.018.732-.066.38-.066.769-.18 1.158-.304 0 .02-.01.029-.01.048-.094.532-.18.988.115 1.358a4.81 4.81 0 0 0-2.184 1.006c-.513-.389-1.207-.911-1.311-.997-.408-.303-.788-.636-1.197-.978-.161-.142-.332-.285-.503-.427a16.33 16.33 0 0 0-1.14-.883 2.325 2.325 0 0 0-1.035-.39v-1.68a3.46 3.46 0 0 0 2.052-3.153c0-.314-.038-.608-.124-.893h-2.554c.019.171.028.342.028.522 0 1.52-.76 2.859-1.7 2.859s-1.7-1.34-1.7-2.859c0-.18.01-.351.029-.522h-3.2c.019.171.028.342.028.522 0 1.52-.76 2.859-1.7 2.859s-1.7-1.34-1.7-2.859c0-.18.01-.351.029-.522h-3.305c.02.171.029.342.029.522 0 1.52-.76 2.859-1.7 2.859s-1.7-1.34-1.7-2.859c0-.18.01-.351.029-.522h-3.125c.02.171.029.342.029.522 0 1.52-.76 2.859-1.7 2.859s-1.7-1.34-1.7-2.859c0-.18.01-.351.029-.522H60.04c-.076.276-.114.56-.114.855 0 1.348.788 2.554 1.918 3.124v1.747c-.38.048-.75.18-1.063.4a13.88 13.88 0 0 0-1.14.882c-.17.143-.332.285-.503.428-.408.342-.788.674-1.197.978-.104.076-.797.598-1.31.997a4.765 4.765 0 0 0-2.184-1.007c.294-.38.209-.835.114-1.358 0-.01-.01-.028-.01-.047.39.133.779.237 1.159.304.266.047.503.066.73.066 1.121 0 1.767-.57 1.929-1.49.142-.77-.285-1.406-1.045-1.577a2.713 2.713 0 0 0-.513-.067 1.64 1.64 0 0 0-.683.152c.398.295.645.865.303 1.396-.218.352-.683.513-1.253.513-.2 0-.408-.019-.617-.057l.047-.047c.969-1.13 1.301-2.792 1.31-2.868l.086-.428-.38-.208c-.066-.038-.133-.067-.2-.105-.512-.275-1.177-.646-1.917-.893l-.162-.56-.076-.247-.228-.114c-.437-.228-3.789-.987-4.71-.987-.066 0-.133 0-.19.01a.968.968 0 0 0-.532.256 2.213 2.213 0 0 0-.636-.37l-.332-.115-.276.219a2.586 2.586 0 0 0-.807 1.851c0 .228.029.504.114.808-.019.038-.038.066-.047.095-2.232 4.396-.494 8.233.655 10.778.418.93.788 1.738.779 2.213l-.01.617.617-.02c.067 0 .485-.018.969-.104.019.665-.01 1.71-.351 2.602-.437 1.168-1.035 2.242-1.662 3.381a51.216 51.216 0 0 0-1.016 1.9 16.251 16.251 0 0 0-.836 1.975c-.133.266-.333.494-.56.607a.859.859 0 0 1-.855-.028.722.722 0 0 1-.36-.655c.018-.874.569-1.567 1.215-2.365.38-.475.769-.959 1.092-1.538.997-1.795 1.244-3.827.712-5.878-.247-.97-.788-1.786-1.31-2.574-.076-.114-.152-.238-.228-.351.313-.656-.038-1.463-.418-2.299-.238-.531-.485-1.082-.608-1.661-.39-1.814-.057-2.916.56-4.71l.266-.78-.703.428c-2.041 1.244-3.057 3.105-3.086 5.688-.019 1.235.37 3.448 1.453 4.112.17.105.399.2.693.2.067 0 .124-.01.2-.02.095.143.19.295.284.438.456.683.884 1.338 1.055 1.994.408 1.586.228 3.096-.532 4.473-.238.427-.56.835-.912 1.263-.75.93-1.595 1.984-1.633 3.513a2.652 2.652 0 0 0 1.272 2.327c.437.275.94.408 1.444.408.19 0 .37-.019.55-.057v.038c.02.228.039.456.067.674l.057.513c.01.152.029.266.047.361.029.2.038.237-.038.465-.066.21-.493.504-1.3.684-.39.086-.97.18-1.672.276a1.59 1.59 0 0 0-1.367 1.481c-.114 2.127-.143 3.457-.076 3.931.095.627.399 1.178.854 1.567-1.405-.161-2.526-.531-2.535-.531l-1.13-.38.38 1.13a6.28 6.28 0 0 0 2.46 3.238 6.623 6.623 0 0 0 3.674 1.13c1.577 0 3.01-.589 4.046-1.662.01.295.066.58.18.874l.523 1.3.579-1.272c.038-.076.92-1.937 3.03-2.098.901-.067 1.927-.2 2.724-.864h.01c0 .218.019.427.076.636.285 1.177 1.301 1.776 1.339 1.795l.94.54-.057-1.082c-.019-.465-.047-.997.086-1.434.237-.788 1.063-1.082 1.529-1.196.114-.029.227-.057.332-.076.77-.171 1.396-.313 2.042-.693-.276.54-.39 1.092-.333 1.652.133 1.396 1.273 2.27 1.32 2.308l1.301.978-.36-1.586c-.134-.608-.238-1.994.322-2.355.694-.456 1.216-.513 1.824-.58.503-.056 1.044-.123 1.68-.398-.493 1.092-.284 1.984-.266 2.032l.304 1.206.75-.997c.01-.02 1.416-1.833 3.41-1.833 1.443 0 2.611.712 2.62.722l.314.19.314-.19c.009-.01 1.177-.722 2.62-.722 1.995 0 3.4 1.823 3.41 1.833l.75.997.304-1.206c.01-.048.228-.94-.266-2.032.636.275 1.177.342 1.68.398.609.067 1.14.133 1.824.58.56.37.465 1.747.323 2.355l-.36 1.586 1.3-.978c.048-.038 1.187-.912 1.32-2.308.057-.56-.057-1.111-.332-1.652.645.37 1.272.512 2.041.693.105.028.219.047.333.076.465.104 1.291.408 1.529 1.196.133.437.104.969.085 1.434l-.057 1.083.94-.541c.048-.029 1.064-.618 1.34-1.795a2.91 2.91 0 0 0 .075-.636h.01c.797.664 1.823.788 2.725.864 2.108.161 2.992 2.022 3.03 2.098l.579 1.273.522-1.301c.114-.295.181-.589.181-.874 1.035 1.073 2.469 1.662 4.045 1.662a6.62 6.62 0 0 0 3.675-1.13 6.233 6.233 0 0 0 2.46-3.238l.38-1.13-1.14.408ZM91.626 19.208c-.798 0-1.216-.323-1.34-1.007-.085-.456.143-.788.59-.893.019 0 .038-.01.057-.01-.105.39-.057.817.2 1.235.189.295.483.523.854.655-.124.01-.247.02-.361.02Zm-34.68-.675c.265-.408.303-.845.199-1.234.019 0 .038.01.057.01.446.094.674.436.588.892-.123.684-.55 1.006-1.339 1.006-.114 0-.237-.009-.36-.018.37-.133.664-.352.854-.656Zm34.528 4.074c.142-.142.294-.275.456-.399.702-.54 1.595-.873 2.716-.873.161 0 .323.01.494.019l1.519-.694c-.541.01-.978.029-1.33.029-1.519 0-1.395-.209-1.196-1.273 0 0 1.282.352 2.26.352.095 0 .19 0 .275-.01.475-.038.684-.247.76-.503.095-.342.124-.874-.142-1.538a1.26 1.26 0 0 0-1.187-.817c-.456 0-1.007.218-1.634.788l-.532.532a4.79 4.79 0 0 1-.664-1.054c-.114-.494.418-.807.418-.807-.542.066-.808-.494-.893-.75.58-.314 1.405-.789 2.28-1.026l.255-.874c.333-.17 3.58-.921 4.435-.921.048 0 .076 0 .114.01a.39.39 0 0 1 .181.075c-.18.2-.342.428-.485.675l.58.19c.323-.523.769-.96 1.168-1.092.522.455 1.149 1.813-.228 3.238v.826l.237-.228c.333-.313.57-.617.75-.912 2.631 5.698-1.69 10.37-1.661 12.384 0 0-.903-.029-1.52-.276 0 0-.275 1.966.332 3.58.703 1.88 1.814 3.552 2.707 5.337.304.608.57 1.225.788 1.862.01.019.01.038.019.057.181.389.484.73.826.92.01.01.029.01.038.02.447.228.969.2 1.406-.067.427-.256.655-.693.646-1.177-.029-1.083-.665-1.88-1.349-2.726-.361-.456-.741-.92-1.035-1.453-.921-1.661-1.149-3.542-.655-5.441.228-.874.74-1.643 1.234-2.393l.333-.503a2.39 2.39 0 0 0 .123-.2c-.237-.218-.285-.484-.209-.836.067-.323.238-.712.446-1.196.238-.532.513-1.14.646-1.776.219-1.026.219-1.852.086-2.668.199.322.37.664.512 1.016.162.399.276.816.333 1.253.057.437.057.883-.01 1.33a4.82 4.82 0 0 0 .276-1.33c.028-.465 0-.93-.086-1.386a7.002 7.002 0 0 0-.342-1.235c.656.96.988 2.127 1.007 3.533.019 1.766-.589 3.248-1.168 3.599a.802.802 0 0 1-.209.095c-.247.057-.627-.114-.627-.114-.171.285-.342.541-.522.817-.484.73-.94 1.424-1.14 2.174-.446 1.738-.256 3.39.589 4.91.266.475.617.921.969 1.348.722.903 1.472 1.833 1.5 3.153a2.036 2.036 0 0 1-.987 1.805 2.2 2.2 0 0 1-1.14.322c-.18 0-.37-.028-.551-.066a2.26 2.26 0 0 1-.475-.19l-.142-.085c.029.227.038.465.029.693 0 .057-.01.123-.01.18-.028.39-.085.788-.114 1.178-.047.503-.133.56.019 1.054.18.57.95.911 1.747 1.092.504.114 1.187.218 1.719.285a.994.994 0 0 1 .855.93c.066 1.169.161 3.239.076 3.818-.095.636-.465 1.177-1.054 1.462.038.086.076.171.114.247.085.219.152.409.18.59.19 1.034-.551 1.357-1.215 1.518l-.086-.93c-.009-.038-.19-.124-.228-.143-.057-.038-.123-.076-.171-.123a.563.563 0 0 1-.171-.36c-.009-.077-.009-.153-.009-.238-.01-.143-.029-.285-.105-.39a.394.394 0 0 0-.493-.104.461.461 0 0 0-.247.342c-.01.057 0 .133.009.209.048.275.181.655.057.987-.076.219-.37.513-.693.513a.544.544 0 0 1-.304-.095l-.665.589c-.883-.969-.607-1.9.352-2.298a.983.983 0 0 0 .199-.105c.181-.123.285-.285.181-.456-.076-.132-.162-.18-.276-.18-.171 0-.389.105-.722.237a1.514 1.514 0 0 1-.579.143c-.342 0-.617-.2-.76-.75l-.028-.152-.228.095-.399.161.029-.209a1.9 1.9 0 0 1 .199-.579c.294-.541.817-.76 1.349-.76.683 0 1.386.342 1.68.779l1.254.17c.256-.322.266-1.272.228-2.012a1.134 1.134 0 0 0-.959-1.064c-.912-.133-2.279-.332-2.764-.37-.921-.067-1.88-.228-2.573-.902-.95-.94-1.159-1.919-1.159-3.277 0-.446.02-.892.057-1.348.029-.39.076-.779.114-1.159.029-.256.067-.513.105-.769.047-.337.04-.68-.02-1.016a4.374 4.374 0 0 0-.227-.817 3.628 3.628 0 0 0-.466-.807 3.928 3.928 0 0 0-1.206-1.035c-.18-.104-.398-.228-.626-.37-.228-.143-.475-.295-.732-.475-.626-.418-1.32-.94-1.965-1.539l.142-.085c.237-.143.893-.627 1.51-1.14.152-.123.285-.237.408-.35l-.588-.314c-.684.579-1.444 1.149-1.643 1.263l-.285.17c-.18.105-.361.21-.532.304-.997.57-1.71.96-1.69 1.624 1.234 1.33.56 2.118-.124 2.355l-.228-.73c-.721-.124-.712-.656-.74-1.064a.36.36 0 0 0-.361-.342c-.143 0-.285.095-.295.313-.019.238 0 .484-.066.874-.048.266-.332.627-.74.627a.723.723 0 0 1-.2-.029l-.152.864c-1.406-.266-1.254-1.662-.304-2.136.541-.276.712-.475.55-.684a.216.216 0 0 0-.17-.086c-.2 0-.494.219-.779.428a.744.744 0 0 1-.456.142c-.37 0-.769-.237-.94-.797l-.484.294c-.086-1.054.57-1.577 1.234-1.577.314 0 .637.114.883.342.095.086.19.124.285.124.304 0 .513-.38.105-.598-.39-.21-.76-.855-.399-1.263l-.589-.551c.266-.162.551-.238.817-.238.589 0 1.13.38 1.3 1.244.039.2.124.276.238.276.323 0 .893-.694 1.32-1.377.105-.162.2-.333.295-.494.123-.218.256-.427.399-.636.18-.266.37-.523.607-.75.4-.4 1.092-1.093 1.89-1.558.19-.104.39-.209.589-.294.237-.314.475-.637.684-.969.56-.855 1.025-1.766 1.291-2.725-.437.902-1.044 1.69-1.719 2.393-.313.332-.636.636-.978.94-.921.475-1.69 1.244-2.146 1.69l-.067.067a3.584 3.584 0 0 0-.36.408c-.152-.93-.114-2.08.18-3.172.057-.209.124-.427.2-.627.275-.721.674-1.405 1.215-1.956Zm3.552-3.77c.36-.123.721-.218 1.063-.218.285 0 .551.066.798.209a2.22 2.22 0 0 1-.038.256v.01s-.048.047-.237.066c-.067.01-.143.01-.228.01-.37 0-.789-.058-1.159-.124-.37-.057-.93-.18-.93-.18-.058-.304-.01-.627.104-.618.133.029.228.352.627.59Zm-.39-.475.228-.237c.57-.513.978-.627 1.216-.627a.67.67 0 0 1 .636.437c.038.095.066.19.095.275a1.733 1.733 0 0 0-.731-.142c-.456 0-.94.142-1.444.294Zm3.932 29.278c-.703.474-1.358.702-2.052.702-.645 0-1.272-.19-1.937-.398a9.317 9.317 0 0 0-.55-.162 3.32 3.32 0 0 0-.922-.123c-.76 0-1.415.247-1.842.465.047-.162.2-.77.2-1.235.56-.313.95-.76 1.139-1.339.285-.864.513-2.393.285-4.045a52.995 52.995 0 0 0 1.719-.256 21.927 21.927 0 0 0 1.68-.333c.2-.047.362-.095.504-.142a17.47 17.47 0 0 0-.029.997c0 .826.076 1.443.247 1.985.21.645.56 1.206 1.083 1.718.836.827 1.956 1.007 2.944 1.074.351.028 1.32.151 2.716.36a.537.537 0 0 1 .456.504c.038.683.009 1.092-.029 1.32l-.551-.076c-.456-.494-1.234-.817-1.994-.817-.959 0-1.68.503-2.004 1.358-.17.019-.36.047-.55.095.36-.55.389-1.064.398-1.13l.048-1.187-.96.665Zm-9.544.104a1.296 1.296 0 0 1-.162-.161c-.009-.02-.018-.029-.028-.048-.124-.2-.085-.408-.057-.627.028-.218.028-.437-.17-.579a.41.41 0 0 0-.4-.057.499.499 0 0 0-.304.314c-.028.075-.028.18-.028.303 0 .105.01.219.01.333 0 .2-.02.418-.105.608l-.029.056c-.114.19-.417.428-.73.428a.56.56 0 0 1-.41-.171l-.825.503s-.01 0-.01-.01c-.057-.085-.095-.17-.142-.246-.095-.2-.162-.38-.2-.56-.152-.798.323-1.377 1.159-1.567.342-.076.617-.257.513-.532-.067-.18-.18-.247-.352-.247-.18 0-.437.066-.788.142l-.323.057c-.085.01-.17.02-.247.02-.37 0-.608-.181-.608-.922l-.712.152c.323-1.13.978-1.567 1.662-1.567.703 0 1.444.466 1.9 1.102l.284.095.504.17 1.006.343c.978-.827.532-3.001.532-3.001s-1.909-1.073-1.272-3.457c0 0 .332-2.241 4.415-2.241.437 0 .912.028 1.434.085.314.038.599.076.855.124 0 0 0 .01.01.01a1.186 1.186 0 0 0-.077.702 1.189 1.189 0 0 0 1.159.988c.209 0 .408-.057.598-.162 0 .105-.01.2-.019.295a27.145 27.145 0 0 0-.2 1.7c-.825.417-4.652.892-4.652.892.37 1.804.133 3.514-.152 4.368-.105.314-.285.56-.513.76-.18.162-.39.285-.627.38-.047.627-.095 1.092-.209 1.462a1.116 1.116 0 0 1-.133.342c-.285.485-.873.599-1.405.637l.085-1.007c-.028-.057-.2-.18-.237-.209Zm1.358-14.017c.161-.256.703-.55 1.263-.873.066-.038.142-.076.218-.124l.314.285a17 17 0 0 0 .788.655l.01.01 1.31 1.367c.342.361.58.637.74.865l-1.908-.133c-.94 0-1.7.114-2.317.294.085-.133.152-.285.19-.437.152-.722-.2-1.396-.608-1.909Zm5.422 2.327a5.148 5.148 0 0 0-.598-.864c.076.047.162.095.228.133.456.256.798.57 1.054.911.2.266.332.551.437.827.038.104.066.218.085.322a.626.626 0 0 1-.522.295.516.516 0 0 1-.256-.067.622.622 0 0 1-.219-.902c.02-.03.042-.06.067-.085-.095-.162-.162-.342-.276-.57Zm-8.85-16.998c.38.256.74.55 1.092.845.57.475 1.12.978 1.719 1.424.19.143.769.58 1.225.93a8.34 8.34 0 0 0-.38.438c-.333.436-.608.93-.817 1.443L88.72 23.12c.114-.294.152-.636.114-.988 0-.019-.01-.038-.01-.066l-.57.275c.02.428-.142.874-.531 1.083a.718.718 0 0 1-.37.095h-.01l.02-.522c-.19 0-.447-.2-.447-.475 0-.314.2-.485.446-.56v-.608c-.475.085-.826.37-.969.76l-.626.009c-.029-.475.2-.902.683-1.064v-.617a1.515 1.515 0 0 0-.835.465c-.048.048-.086.105-.133.162l-.475.01c-.019-.457.209-.865.636-1.007v-.618a1.523 1.523 0 0 0-.693.333h-.446c.01-.295.18-.58.417-.76.21-.152.475-.237.741-.266a1.83 1.83 0 0 1 1.291.294Zm-1.273-3.799c.361-.617.57-1.405.58-2.222h1.433c.01.104.02.2.02.304 0 1.567-1.254 2.84-2.802 2.84h-.105c.333-.2.627-.504.874-.922Zm-6.543 0c.361-.617.57-1.405.58-2.222h1.946c.01.817.219 1.605.58 2.222.246.418.54.731.873.921h-1.3c-.333-.342-.609-.807-.789-1.358h-.655c-.171.551-.447 1.016-.788 1.358h-1.33c.342-.2.646-.503.883-.921Zm-6.638 0c.361-.617.57-1.405.58-2.222h2.05c.01.817.22 1.605.58 2.222.247.418.541.722.874.921h-1.415c-.333-.342-.608-.807-.788-1.358h-.656c-.17.551-.446 1.016-.788 1.358h-1.33c.343-.2.646-.503.893-.921Zm-6.476 0c.36-.617.57-1.405.579-2.222h1.88c.01.817.219 1.605.58 2.222.246.418.54.731.873.921h-1.33c-.332-.342-.607-.807-.787-1.358h-.656c-.17.551-.446 1.016-.788 1.358h-1.244c.352-.2.655-.503.893-.921Zm-5.499-1.966c0-.085 0-.17.01-.266h1.472c.01.817.218 1.605.58 2.223.246.417.54.73.873.92h-.143c-1.5.01-2.792-1.31-2.792-2.877Zm-2.212 8.025c.598-.447 1.149-.94 1.719-1.425.35-.294.712-.588 1.092-.845.218-.152.465-.247.73-.285.096-.019.2-.028.305-.028.095 0 .19.01.294.019.256.038.513.114.712.266a1 1 0 0 1 .418.76h-.446a1.681 1.681 0 0 0-.693-.333v.617c.436.143.664.551.636 1.007l-.475-.01c-.038-.057-.085-.104-.133-.161a1.682 1.682 0 0 0-.836-.465v.617c.475.161.703.589.684 1.063l-.627-.01c-.142-.398-.493-.673-.968-.759v.608c.247.076.446.247.446.56 0 .276-.247.475-.446.475l.019.522h-.01a.857.857 0 0 1-.37-.095c-.39-.209-.541-.664-.532-1.082l-.57-.276c0 .02-.01.038-.01.067-.047.351 0 .693.115.987l-1.073 1.026a6.564 6.564 0 0 0-.817-1.443 5.692 5.692 0 0 0-.38-.437c.447-.361 1.026-.798 1.216-.94Zm-17.645 27.91c-.085-.58.01-2.64.077-3.818.028-.475.389-.864.854-.93.532-.077 1.216-.181 1.719-.286.798-.17 1.567-.522 1.747-1.092.152-.494.067-.55.02-1.054-.039-.39-.086-.788-.115-1.177 0-.057-.01-.124-.01-.18-.009-.229 0-.466.03-.694l-.143.086a2.255 2.255 0 0 1-.475.19c-.18.047-.36.066-.55.066-.4 0-.789-.105-1.14-.323a2.036 2.036 0 0 1-.988-1.804c.029-1.32.779-2.25 1.5-3.153.342-.427.703-.874.97-1.349.844-1.519 1.044-3.171.588-4.91-.2-.759-.655-1.443-1.14-2.174-.18-.275-.351-.532-.522-.816 0 0-.38.17-.627.113a.798.798 0 0 1-.209-.095c-.579-.36-1.196-1.832-1.168-3.599.02-1.405.352-2.573 1.007-3.532a7.924 7.924 0 0 0-.342 1.234c-.085.456-.114.93-.085 1.387.028.465.123.911.275 1.33a4.797 4.797 0 0 1-.01-1.33c.058-.437.171-.855.333-1.254.142-.351.313-.693.513-1.016-.133.817-.133 1.643.085 2.669.133.636.408 1.244.646 1.775.218.485.38.874.446 1.197.076.351.029.617-.209.836.038.066.086.133.124.199.104.161.218.332.332.503.494.75 1.007 1.52 1.235 2.393.493 1.9.266 3.78-.656 5.442-.294.532-.674.997-1.035 1.453-.674.845-1.32 1.643-1.348 2.725-.01.494.228.921.646 1.178.436.266.959.285 1.405.066.01-.01.029-.01.038-.019.342-.18.646-.522.826-.92.01-.02.01-.039.02-.058.218-.636.483-1.263.787-1.861.893-1.785 2.004-3.457 2.707-5.337.608-1.614.332-3.58.332-3.58-.617.247-1.52.275-1.52.275.03-2.013-4.291-6.685-1.661-12.383.18.294.418.598.75.912l.238.227v-.826c-1.377-1.424-.741-2.782-.228-3.238.389.143.835.57 1.168 1.092l.579-.19a4.86 4.86 0 0 0-.484-.674.432.432 0 0 1 .18-.076c.029 0 .067-.01.114-.01.864 0 4.112.75 4.435.922l.285.864c.883.237 1.7.712 2.279 1.025-.095.247-.361.808-.893.75 0 0 .523.314.418.808-.17.36-.39.731-.665 1.054l-.532-.532c-.626-.58-1.177-.788-1.633-.788a1.26 1.26 0 0 0-1.187.817c-.266.664-.237 1.196-.142 1.538.076.256.285.465.76.503.085.01.18.01.275.01.978 0 2.26-.352 2.26-.352.2 1.064.323 1.273-1.197 1.273-.351 0-.788-.01-1.33-.029l1.52.694c.171-.01.333-.02.494-.02 1.12 0 2.013.333 2.716.874.162.124.313.257.456.4.541.55.93 1.234 1.206 1.955.076.21.142.418.2.627.294 1.102.332 2.25.18 3.172a4.845 4.845 0 0 0-.361-.408l-.067-.067c-.455-.446-1.225-1.215-2.146-1.69a15.258 15.258 0 0 1-.978-.94c-.674-.712-1.272-1.5-1.719-2.393.276.959.741 1.88 1.292 2.725.218.332.446.655.684.969.208.085.398.18.588.294.808.456 1.491 1.159 1.89 1.558.238.227.427.484.608.75.142.209.266.418.399.636.095.161.2.332.294.494.427.693.997 1.377 1.32 1.377.114 0 .2-.086.237-.276.171-.864.713-1.244 1.301-1.244.276 0 .56.086.817.238l-.589.55c.352.418-.019 1.055-.398 1.264-.409.218-.19.598.104.598.095 0 .19-.038.285-.124.247-.228.57-.342.883-.342.665 0 1.32.513 1.235 1.577l-.513-.285c-.171.56-.57.798-.94.798a.744.744 0 0 1-.456-.143c-.285-.209-.58-.427-.779-.427a.203.203 0 0 0-.17.085c-.153.21.009.418.55.684.96.475 1.111 1.87-.304 2.137l-.152-.864a.722.722 0 0 1-.2.028c-.408 0-.693-.36-.74-.627-.066-.389-.047-.626-.066-.873-.01-.219-.152-.314-.295-.314a.36.36 0 0 0-.36.342c-.03.408-.02.94-.741 1.064l-.228.731c-.684-.237-1.368-1.026-.124-2.355.02-.674-.693-1.064-1.69-1.624-.171-.095-.352-.2-.532-.304l-.285-.17c-.2-.124-.968-.685-1.643-1.264l-.589.314c.124.104.257.218.409.35.608.504 1.263.998 1.51 1.14l.142.086a15.925 15.925 0 0 1-1.965 1.538c-.257.171-.504.333-.732.475-.228.143-.446.266-.627.37a3.927 3.927 0 0 0-1.205 1.036c-.2.256-.352.531-.466.807-.114.266-.19.541-.228.816a2.74 2.74 0 0 0-.038.276 3.83 3.83 0 0 0 .02.74c.037.257.066.513.104.77.047.39.085.769.114 1.158.038.456.057.903.057 1.349 0 1.367-.21 2.346-1.159 3.276-.684.674-1.643.836-2.573.902-.485.029-1.843.228-2.764.37-.532.077-.93.523-.959 1.064-.038.731-.029 1.69.228 2.013l1.253-.17c.295-.437.998-.78 1.681-.78.532 0 1.054.21 1.349.76.085.162.161.352.2.58l.028.209-.4-.162-.227-.095-.029.152c-.133.551-.417.75-.76.75a1.52 1.52 0 0 1-.579-.142c-.322-.133-.55-.237-.721-.237-.114 0-.2.047-.276.18-.104.18 0 .332.18.456.058.038.134.076.2.104.96.4 1.235 1.33.352 2.298l-.665-.588a.567.567 0 0 1-.304.095c-.323 0-.617-.295-.693-.513-.124-.333.01-.712.057-.988.01-.076.019-.152.01-.209a.466.466 0 0 0-.248-.342.394.394 0 0 0-.494.105c-.085.104-.104.247-.104.39 0 .075 0 .16-.01.237a.56.56 0 0 1-.17.36c-.057.048-.114.086-.171.124-.038.019-.219.104-.228.142l-.086.931c-.665-.161-1.396-.484-1.215-1.52.028-.17.085-.37.18-.588.029-.076.067-.162.114-.247a1.934 1.934 0 0 1-1.044-1.463Zm11.33-30.607c.342 0 .693.085 1.063.218.4-.247.484-.56.636-.58.114-.009.162.314.105.618 0 0-.56.124-.93.18-.371.067-.789.124-1.16.124-.085 0-.16 0-.227-.01-.18-.018-.238-.056-.238-.066v-.01a.814.814 0 0 1-.038-.256 1.43 1.43 0 0 1 .789-.218Zm-.732-.409c.02-.085.057-.18.095-.275a.67.67 0 0 1 .637-.437c.247 0 .655.105 1.215.627l.228.237c-.503-.161-.997-.294-1.453-.294-.247 0-.484.047-.722.142Zm7.38 26.866 1.015-.342.503-.171.285-.095c.456-.646 1.197-1.102 1.9-1.102.683 0 1.339.437 1.661 1.567l-.712-.152c0 .731-.237.921-.608.921-.075 0-.16-.01-.246-.019l-.323-.057c-.352-.066-.608-.142-.788-.142-.171 0-.285.066-.352.247-.095.275.171.446.513.532.836.19 1.31.778 1.159 1.567-.038.18-.095.36-.2.56a1.642 1.642 0 0 1-.142.247s-.01 0-.01.01l-.826-.504a.561.561 0 0 1-.408.17c-.314 0-.618-.227-.732-.427l-.028-.056c-.095-.19-.105-.409-.105-.608 0-.114.01-.228.01-.333 0-.123 0-.228-.029-.303a.524.524 0 0 0-.303-.314.41.41 0 0 0-.4.057c-.199.142-.199.361-.17.58.028.227.066.436-.057.626-.01.02-.02.029-.029.048a1.297 1.297 0 0 1-.161.161c-.038.029-.209.152-.209.2l.086 1.006c-.532-.038-1.121-.152-1.406-.636a1.22 1.22 0 0 1-.133-.342c-.104-.37-.152-.826-.209-1.462a2.09 2.09 0 0 1-.627-.38 1.717 1.717 0 0 1-.512-.76c-.285-.855-.532-2.564-.152-4.368 0 0-3.827-.475-4.654-.893a35.19 35.19 0 0 0-.199-1.7 2.873 2.873 0 0 1-.019-.294 1.161 1.161 0 0 0 1.13.028c.332-.17.56-.484.627-.854a1.187 1.187 0 0 0-.076-.703s0-.01.01-.01c.256-.047.54-.085.854-.123.522-.057.997-.086 1.434-.086 4.083 0 4.416 2.242 4.416 2.242.636 2.383-1.273 3.456-1.273 3.456s-.475 2.184.494 3.01Zm-10.058 3.086c0 .066.038.58.4 1.13-.2-.047-.38-.076-.551-.095-.323-.855-1.045-1.358-2.004-1.358-.76 0-1.539.323-1.995.817l-.55.076c-.038-.238-.067-.646-.029-1.32a.537.537 0 0 1 .456-.504c1.396-.209 2.365-.342 2.716-.36.988-.067 2.108-.247 2.944-1.074.522-.512.883-1.082 1.082-1.718.171-.542.247-1.15.247-1.985 0-.333-.01-.665-.028-.997.142.047.313.095.503.142.418.105.988.219 1.681.333.636.104 1.273.199 1.719.256-.228 1.662-.01 3.181.285 4.045.19.57.58 1.026 1.14 1.34 0 .607.19 1.215.19 1.234-.428-.218-1.083-.465-1.843-.465-.313 0-.627.047-.921.123-.19.057-.37.114-.55.162-.666.199-1.283.398-1.938.398-.693 0-1.349-.218-2.051-.702l-.978-.665.075 1.187Zm3.495-11.443c.209.323.095.74-.218.902a.517.517 0 0 1-.257.066.625.625 0 0 1-.522-.294c.019-.104.057-.218.086-.323.094-.285.237-.56.436-.826a3.346 3.346 0 0 1 1.054-.912c.067-.038.143-.085.228-.133-.304.37-.484.637-.598.864-.123.228-.18.409-.266.58.01.019.038.047.057.076Zm3.827-3.694.314-.285c.076.038.142.085.218.123.56.314 1.092.617 1.263.874-.408.503-.77 1.187-.589 1.9.038.151.105.303.19.436-.617-.18-1.377-.294-2.317-.294l-1.909.133a7.35 7.35 0 0 1 .74-.865l1.311-1.367.01-.01c.247-.199.513-.417.77-.645Zm-8.47 20.312c-.979 1.045-2.299 1.53-3.657 1.53-2.326 0-4.729-1.435-5.574-3.96 0 0 1.149.389 2.63.56-.066.408-.028.769.124 1.092.323.683 1.035.93 1.538 1.063l.675.171.066-.693.067-.646c.056-.038.123-.085.18-.133.01.057.028.114.047.171.162.447.675.902 1.254.902.057 0 .114 0 .17-.01l.41.362.436.39.399-.438c.56-.608.788-1.291.646-1.918a1.72 1.72 0 0 0-.238-.56c.352 0 .665-.133.902-.38.086-.095.171-.2.228-.323l.038.01.921.38-.104-.988c0-.038-.01-.067-.01-.105.409.067.903.219 1.53.456.085.048.18.086.265.114.048.019.086.038.133.047-.2.114-.399.228-.58.342-.901.58-1.519 1.206-1.841 1.862-.2.228-.418.456-.656.702Zm7.036-2.06c-.655.55-1.567.664-2.393.721-2.507.19-3.532 2.45-3.532 2.45a1.815 1.815 0 0 1 .028-1.462c.304-.684.988-1.272 1.71-1.728a12.707 12.707 0 0 1 2.535-1.187 8.301 8.301 0 0 1-.665.028c-.522 0-.95-.066-1.3-.17a3.1 3.1 0 0 1-.533-.21c-1.11-.57-1.149-1.586-1.149-1.586.883.599 1.662.808 2.384.808.93 0 1.776-.333 2.64-.58.256-.076.513-.104.76-.104.712 0 1.329.266 1.68.456a3.552 3.552 0 0 0-1.12 1.073c-.114.18-.219.36-.304.532-.276.389-.456.73-.74.959Zm4.17-.864c-.875.199-1.691.702-1.967 1.604-.161.523-.133 1.092-.104 1.634 0 0-1.785-1.016-.836-3.02.076-.162.18-.342.295-.522.227-.352.503-.599.76-.788.094-.057.19-.105.294-.162l.266-.133c.455.39 1.073.484 1.529.513l.693.047-.057-.693-.057-.722c.076-.066.152-.142.228-.237 0-.01.01-.01.01-.019.028.086.066.17.113.247.21.36.703.722 1.244.722.143 0 .276-.029.408-.076l.314.19c-.02.019-.048.038-.067.057-1.016.959-1.766 1.063-3.067 1.358Zm26.94 3.304s.513-2.27-.579-2.991c-1.747-1.14-2.678-.161-4.634-1.652-.02-.029-.048-.048-.067-.076-.92-.931-1.937-1.52-2.858-1.833-.636.104-1.34.18-2.118.218.45.024.898.084 1.34.18.465.105.958.267 1.452.504.598.294 1.197.77 1.757 1.339.038.038.066.066.095.104 1.215 1.32.893 2.612.893 2.612s-1.558-2.07-3.885-2.07c-1.11 0-2.07.37-2.564.617l-.36.19-.361-.19c-.494-.237-1.453-.617-2.564-.617-2.327 0-3.884 2.07-3.884 2.07s-.333-1.292.892-2.612c.029-.038.067-.066.095-.104.56-.57 1.159-1.054 1.757-1.34a6.792 6.792 0 0 1 1.453-.502c.304-.067.598-.114.874-.143.161-.019.323-.028.475-.038a19.116 19.116 0 0 1-2.127-.218c-.922.313-1.938.892-2.859 1.833-.028.028-.047.047-.066.076-1.957 1.49-2.887.512-4.635 1.652-1.092.712-.579 2.991-.579 2.991s-2.308-1.747-.218-4.055c.437-.484.968-.883 1.358-1.149.323-.218.55-.342.55-.342s-.19-.019-.436-.066c-.133-.02-.295-.057-.466-.095-.028-.01-.066-.019-.104-.029a1.986 1.986 0 0 0-.086-1.158 1.762 1.762 0 0 0-.237-.408c.902.246 2.013.436 3.276.436.484 0 .988-.104 1.52-.161.18-.019.38-.029.579-.029.066 0 .133 0 .2.01-.495-.152-.931-.323-1.33-.494-.323.048-.646.095-.969.095-.997 0-1.89-.123-2.659-.304.143-.142.228-.304.285-.484l.086.019.968.209-.275-.96c-.513-1.804-1.728-1.994-2.232-1.994-.807 0-1.68.466-2.26 1.197l-1.235.418c-.275-.503-.256-1.396-.18-1.956.218-.162.532-.437.817-.846.437-.617.873-1.652.494-3.095-.038-.19-.238-.922-1.017-1.567l.143-.466.123-.408c.19-.076.342-.19.456-.313.171.351.504.674.921.778l.067.361.104.627.617-.114c.855-.161 1.425-.693 1.53-1.415a1.686 1.686 0 0 0-.152-.96 1.5 1.5 0 0 0 .835-.53l.807.455.076-.969c.067-.845-.237-1.377-.503-1.661a1.837 1.837 0 0 0-1.348-.58c-.057 0-.105 0-.162.01.01-.048.029-.095.038-.143a1.383 1.383 0 0 0 0-.484l.276-.257.607-.57-.712-.427a2.198 2.198 0 0 0-1.14-.332c-.645 0-1.386.332-1.756 1.225a6.694 6.694 0 0 1-.57-.788l-.257-.427c-.094-.162-.199-.333-.303-.494v-.01c.313-1.177.303-2.792-.162-4.292l1.168-1.111c.114.133.257.237.408.313.219.114.418.171.646.171h.01l.617-.01v-.76c.019-.018.047-.037.066-.056.172-.162.276-.36.314-.589l.57.01.57.01.028-.57c.01-.171-.01-.333-.038-.494h.209l.57.01.028-.57a1.801 1.801 0 0 0-.114-.722h.627l-.019-.608a1.55 1.55 0 0 0-.655-1.216 2.133 2.133 0 0 0-1.064-.38v-1.386h23.21v1.377c-.314.028-.732.123-1.093.39-.399.294-.646.75-.655 1.215l-.02.608h.628a1.65 1.65 0 0 0-.114.721l.028.57.57-.01h.209c-.038.152-.048.323-.038.494l.028.57.57-.01.57-.009c.038.219.142.427.313.589.02.019.048.038.067.057v.76l.617.01h.01c.227 0 .427-.058.645-.172.152-.085.295-.19.409-.313l1.168 1.11c-.466 1.501-.485 3.116-.162 4.293v.01c-.104.161-.209.332-.304.494l-.256.427a6.636 6.636 0 0 1-.57.798c-.37-.893-1.11-1.225-1.757-1.225-.389 0-.778.113-1.14.332l-.711.427.607.57.276.256a1.382 1.382 0 0 0 0 .485c.01.047.019.095.038.142-.057 0-.105-.01-.162-.01-.522 0-1.016.21-1.348.58-.266.294-.57.817-.503 1.662l.076.968.807-.455c.218.265.513.446.835.531-.142.304-.2.627-.152.96.105.73.675 1.263 1.53 1.414l.617.114.104-.626.067-.361a1.44 1.44 0 0 0 .92-.779c.115.124.267.228.457.313l.104.342.019.067.142.465c-.778.656-.978 1.377-1.016 1.567-.38 1.444.057 2.479.494 3.096.285.408.598.684.817.845.076.56.095 1.453-.18 1.956l-1.235-.417c-.589-.732-1.453-1.197-2.26-1.197-.504 0-1.72.19-2.232 1.994l-.275.96.968-.21.086-.019c.057.171.142.342.285.485a12.19 12.19 0 0 1-2.66.304c-.322 0-.645-.048-.968-.095-.399.17-.836.342-1.33.494h.19c.2 0 .4.009.58.028.531.066 1.035.161 1.52.161 1.262 0 2.373-.19 3.275-.436-.095.123-.18.256-.237.408-.143.351-.17.75-.086 1.159l-.104.028c-.17.038-.332.076-.465.095-.257.047-.409.057-.409.057s.228.123.551.342c.39.266.912.664 1.358 1.149 2.137 2.298-.17 4.045-.17 4.045Zm5.926-.066c.028-.542.047-1.111-.105-1.634-.275-.902-1.092-1.396-1.965-1.605-1.301-.303-2.051-.398-3.068-1.338-.019-.02-.047-.038-.066-.057l.313-.19c.124.047.266.076.409.076.55 0 1.044-.361 1.244-.722.047-.086.085-.161.114-.247 0 .01.01.01.01.019.075.095.151.17.227.237l-.057.722-.057.693.693-.047c.456-.029 1.064-.124 1.53-.513l.265.133c.105.057.2.105.294.161.266.19.532.437.76.789.124.18.219.351.295.522.95 1.985-.836 3-.836 3Zm8.005.807s-1.016-2.26-3.532-2.45c-.826-.067-1.729-.18-2.393-.722-.285-.237-.466-.58-.75-.959a5.046 5.046 0 0 0-.304-.532 3.361 3.361 0 0 0-1.121-1.073c.351-.19.96-.456 1.68-.456.248 0 .495.029.76.105.874.247 1.71.58 2.64.58.722 0 1.501-.2 2.384-.808 0 0-.047 1.016-1.149 1.586a3.107 3.107 0 0 1-.532.209 4.596 4.596 0 0 1-1.3.17c-.21 0-.428-.009-.666-.028 0 0 1.33.428 2.536 1.187.731.465 1.406 1.045 1.71 1.728.208.447.256.931.037 1.463Zm4.787.408c-1.358 0-2.688-.484-3.657-1.529-.237-.247-.446-.484-.655-.693-.323-.665-.94-1.282-1.842-1.861-.18-.114-.37-.228-.58-.342.048-.019.086-.038.134-.047.095-.038.18-.076.266-.114.626-.247 1.12-.39 1.528-.456 0 .038-.01.066-.01.104l-.104.988.922-.38.038-.01c.066.124.142.228.227.323.238.247.551.38.903.38-.114.171-.19.361-.238.56-.142.627.095 1.311.646 1.919l.399.437.437-.39.408-.36c.057.009.114.009.171.009.579 0 1.092-.456 1.253-.902a1.21 1.21 0 0 0 .048-.171c.066.047.123.095.18.133l.067.645.066.694.675-.171c.503-.124 1.215-.38 1.538-1.064.152-.323.19-.683.123-1.092 1.472-.17 2.631-.56 2.631-.56-.855 2.526-3.257 3.95-5.574 3.95ZM52.605 14.744c-.864.238-1.956.01-1.956.01.665.655.883 1.054.883 1.054.874.047 1.073-.522 1.073-1.064Zm42.876 0c0 .542.2 1.111 1.074 1.073 0 0 .227-.399.883-1.054 0 0-1.092.219-1.957-.019Zm.523 11.7.456-.77c.247-.417.474-.864.674-1.32.19-.455.351-.911.494-1.376.151-.456.284-.922.417-1.387a32.72 32.72 0 0 1-.645 1.292c-.219.427-.447.845-.694 1.244-.256.399-.531.769-.835 1.13-.266.323-.551.655-.826.978.313.038.636.095.959.209Zm-45.051-2.09c.19.456.427.903.674 1.32l.456.77c.323-.114.646-.18.96-.2-.276-.323-.561-.655-.827-.978-.304-.37-.58-.74-.836-1.13a17.484 17.484 0 0 1-.693-1.244c-.218-.427-.427-.864-.646-1.291.133.465.276.92.418 1.386.143.456.304.912.494 1.368Zm-.142 2.755c-.732-1.055-1.434-2.128-2.023-3.258a14.17 14.17 0 0 1-.836-1.909 16.281 16.281 0 0 1-.58-2.013c.077.703.181 1.396.343 2.09.161.693.38 1.367.636 2.032.256.664.55 1.31.855 1.946.247.504.503.997.76 1.491.246-.076.531-.2.845-.38Zm47.291.38c.266-.495.523-.988.76-1.492a20.84 20.84 0 0 0 .855-1.946c.256-.665.465-1.349.636-2.033.162-.693.275-1.386.342-2.089a16.35 16.35 0 0 1-.579 2.014 17.127 17.127 0 0 1-.836 1.908c-.589 1.13-1.291 2.203-2.023 3.258.333.18.608.303.845.38ZM50.051 60.952c-.74 0-1.292.285-1.653.855-.332-.57-.845-.855-1.528-.855-.684 0-1.197.266-1.539.789v-.646h-1.168v5.384h1.168v-3.02c0-.465.114-.816.333-1.063.218-.237.512-.36.864-.36.323 0 .57.104.75.303.18.209.266.494.266.864v3.267h1.168v-3.02c0-.475.104-.826.313-1.064.21-.237.494-.35.855-.35.323 0 .58.104.77.303.19.209.284.494.284.864v3.267h1.168v-3.343c0-.665-.19-1.196-.56-1.595-.39-.38-.883-.58-1.491-.58Zm62.315 0c-.76 0-1.32.276-1.671.827v-2.85h-1.168v7.54h1.168v-2.886c0-.522.123-.912.379-1.168.247-.256.58-.38.988-.38.37 0 .665.105.883.323.219.218.323.522.323.93v3.191h1.168v-3.304c0-.694-.19-1.235-.57-1.624-.389-.4-.883-.599-1.5-.599Zm-78.99 2.735H35.9c-.114.523-.38.94-.807 1.254-.418.313-.968.465-1.633.465-.836 0-1.51-.256-2.023-.769-.513-.513-.77-1.149-.77-1.928 0-.778.257-1.424.77-1.937.513-.513 1.159-.779 1.947-.779.484 0 .93.114 1.33.333.398.218.692.513.892.864l.855-.921a3.654 3.654 0 0 0-1.15-.997 3.9 3.9 0 0 0-1.927-.485c-1.12 0-2.06.38-2.82 1.14-.76.76-1.14 1.68-1.14 2.773 0 1.101.38 2.023 1.14 2.782.76.75 1.718 1.13 2.886 1.13 1.102 0 1.995-.332 2.669-.987.684-.656 1.025-1.5 1.025-2.536v-.503h-3.77v1.101Zm85.125-1.471v-1.121h-1.339v-1.51h-1.168v1.51h-.988v1.12h.988V64.8c0 .703.189 1.188.579 1.453.389.266 1.025.342 1.918.228v-1.044a6.651 6.651 0 0 1-.741.01c-.199-.01-.351-.067-.446-.162-.104-.095-.152-.257-.152-.485v-2.583h1.349Zm-77.842-1.264c-.836 0-1.52.276-2.051.817-.522.541-.788 1.216-.788 2.023 0 .817.266 1.5.807 2.032s1.244.807 2.127.807c.93 0 1.662-.323 2.184-.95l-.788-.788c-.313.447-.77.665-1.387.665-.446 0-.826-.114-1.13-.332-.313-.219-.503-.532-.588-.94h4.292c.028-.2.047-.361.047-.485 0-.788-.256-1.462-.76-2.013-.522-.56-1.177-.836-1.965-.836Zm-1.633 2.384c.076-.408.265-.731.55-.969.285-.237.646-.35 1.074-.35.38 0 .712.113.997.331.285.219.465.551.54.988h-3.161Zm16.704-2.384c-.836 0-1.52.276-2.051.817-.532.541-.798 1.216-.798 2.023 0 .817.266 1.5.807 2.032s1.244.807 2.127.807c.93 0 1.662-.323 2.184-.95l-.788-.788c-.313.447-.77.665-1.386.665-.447 0-.827-.114-1.13-.332-.314-.219-.504-.532-.59-.94h4.293c.029-.2.048-.361.048-.485 0-.788-.257-1.462-.76-2.013-.522-.56-1.168-.836-1.956-.836Zm-1.643 2.384c.076-.408.266-.731.55-.969.285-.237.646-.35 1.074-.35.38 0 .712.113.997.331.285.219.465.551.541.988h-3.162Zm7.72-2.384c-.835 0-1.519.276-2.05.817-.533.541-.798 1.216-.798 2.023 0 .817.265 1.5.807 2.032.54.532 1.244.807 2.127.807.93 0 1.662-.323 2.184-.95l-.788-.788c-.314.447-.77.665-1.387.665-.446 0-.826-.114-1.13-.332-.313-.219-.503-.532-.588-.94h4.292c.028-.2.047-.361.047-.485 0-.788-.256-1.462-.76-2.013-.512-.56-1.158-.836-1.956-.836Zm-1.633 2.384c.076-.408.266-.731.55-.969.286-.237.647-.35 1.074-.35.38 0 .712.113.997.331.285.219.465.551.541.988h-3.162Zm17.445-2.384c-.836 0-1.52.276-2.051.817-.532.541-.798 1.216-.798 2.023 0 .817.266 1.5.807 2.032s1.244.807 2.127.807c.93 0 1.662-.323 2.184-.95l-.788-.788c-.313.447-.769.665-1.386.665-.447 0-.826-.114-1.13-.332-.314-.219-.504-.532-.59-.94h4.293c.029-.2.048-.361.048-.485 0-.788-.257-1.462-.76-2.013-.513-.56-1.168-.836-1.956-.836Zm-1.634 2.384c.076-.408.266-.731.551-.969.285-.237.646-.35 1.073-.35.38 0 .713.113.997.331.285.219.466.551.542.988h-3.163Zm24.378-2.384c-.836 0-1.52.276-2.052.817-.532.541-.797 1.216-.797 2.023 0 .817.266 1.5.807 2.032s1.244.807 2.127.807c.931 0 1.662-.323 2.184-.95l-.788-.788c-.313.447-.769.665-1.386.665-.447 0-.827-.114-1.13-.332-.314-.219-.504-.532-.59-.94h4.293c.029-.2.048-.361.048-.485 0-.788-.257-1.462-.76-2.013-.513-.56-1.159-.836-1.956-.836Zm-1.634 2.384c.076-.408.266-.731.551-.969.285-.237.646-.35 1.073-.35.38 0 .712.113.997.331.285.219.466.551.541.988h-3.162Zm-25.744-3.751h-1.168v1.51h-.988v1.12h.988V64.8c0 .703.19 1.188.579 1.453.39.266 1.025.342 1.918.228v-1.044a6.65 6.65 0 0 1-.74.01c-.2-.01-.352-.067-.447-.162-.104-.095-.152-.257-.152-.485v-2.583h1.34v-1.12h-1.34l.01-1.51Zm15.09 4.32c0 .457-.134.827-.41 1.102-.265.276-.673.409-1.215.409-.54 0-.94-.133-1.215-.409-.266-.275-.409-.636-.409-1.101V58.94h-1.243v5.043c0 .807.265 1.443.797 1.928.532.474 1.216.712 2.06.712.846 0 1.53-.238 2.062-.712.531-.475.797-1.121.797-1.928V58.94h-1.244v4.967h.02Zm4.14-4.32h-1.168v1.51h-.988v1.12h.988V64.8c0 .703.19 1.188.579 1.453.39.266 1.025.342 1.918.228v-1.044a6.648 6.648 0 0 1-.74.01c-.2-.01-.352-.067-.447-.162-.104-.095-.152-.257-.152-.485v-2.583h1.34v-1.12h-1.34v-1.51h.01Zm-24.026 1.367c-.76 0-1.32.276-1.671.827v-.694H65.35v5.385h1.168v-2.887c0-.522.123-.912.38-1.168.246-.256.579-.38.987-.38.37 0 .665.105.883.323.219.218.323.522.323.93v3.191h1.168v-3.304c0-.694-.19-1.235-.57-1.624-.389-.4-.883-.599-1.5-.599Zm27.482 1.045v-.902h-1.168v5.384h1.168v-2.716c0-.55.162-.95.494-1.187.332-.237.722-.341 1.168-.313v-1.263c-.817 0-1.367.332-1.662.997Zm12.336 2.612a1.69 1.69 0 0 1-1.301.94h-.028c-.076.01-.162.019-.247.019-.95 0-1.681-.731-1.681-1.776s.731-1.776 1.681-1.776c.085 0 .161.01.237.02h.029a1.695 1.695 0 0 1 1.301.91l.778-.778a2.817 2.817 0 0 0-2.345-1.206 2.803 2.803 0 0 0-2.83 2.84 2.812 2.812 0 0 0 1.742 2.622c.345.14.715.211 1.088.207.987 0 1.842-.484 2.355-1.225l-.779-.797Z"/>
  </g>
  <path fill="#fff" d="M148 0h132v80H148z"/>
  <g clip-path="url(#b)">
    <path fill="#155429" d="M187.542 58.924c-1.156 0-2.311.056-3.063.056h-1.17v1.086a7.91 7.91 0 0 0 1.211.181v6.865a7.923 7.923 0 0 0-1.211.181v1.086h1.211c.46 0 1.63.056 2.604.056 3.064 0 5.18-1.685 5.18-4.915 0-3.287-1.852-4.596-4.762-4.596Zm-.251 8.007c-.348 0-.738-.014-1.002-.055v-6.42c.292-.028.71-.042 1.128-.042 2.172 0 2.994 1.212 2.994 3.259 0 2.256-1.295 3.258-3.12 3.258Zm9.289-5.612c-2.047 0-3.259 1.588-3.259 3.663 0 2.437 1.212 3.537 3.412 3.537.821 0 1.699-.153 2.478-.418l-.181-1.295a6.59 6.59 0 0 1-2.088.362c-1.295 0-1.852-.655-1.866-1.894h4.316s.056-.501.056-1.016c0-1.643-.849-2.939-2.868-2.939Zm-1.49 2.8c.097-.947.654-1.505 1.406-1.505.766 0 1.253.516 1.225 1.504h-2.631Zm10.179-2.8c-1.142 0-1.95.571-2.367 1.407l-.014-.014c.069-.376.097-.933.097-1.267a19.336 19.336 0 0 0-2.855.125v1.072c.404.028.878.084 1.212.14v5.611h1.741v-3.342c0-1.239.71-2.27 1.629-2.27.682 0 .891.446.891 1.184v4.428h1.727V63.52c0-1.212-.502-2.2-2.061-2.2Zm30.705 2.437c0-1.531-.669-2.437-2.799-2.437-.85 0-1.81.21-2.576.488l.264 1.309c.669-.265 1.476-.46 2.103-.46.933 0 1.253.39 1.253 1.212v.292c-2.423 0-4.01.78-4.01 2.41 0 1.127.738 1.963 1.977 1.963 1.045 0 1.894-.557 2.228-1.337l.014.014a8.11 8.11 0 0 0-.07 1.197c.892.028 1.95-.014 2.827-.125V67.21a13.89 13.89 0 0 1-1.211-.14v-3.314Zm-1.755 1.755c0 .822-.585 1.685-1.476 1.685-.529 0-.849-.362-.849-.836 0-.598.501-1.058 2.325-1.058v.209Zm7.408-4.178c-2.437 0-3.773 1.602-3.773 3.941 0 2.117.919 3.245 2.576 3.245.919 0 1.699-.502 2.061-1.31l.028.015c-.07.362-.084.668-.084 1.016v.432c0 1.184-.627 1.713-1.949 1.713a6.25 6.25 0 0 1-2.047-.348l-.168 1.573a9.44 9.44 0 0 0 2.117.237c2.632 0 3.76-1.24 3.76-3.342v-6.963a14.983 14.983 0 0 0-2.521-.209Zm.794 3.44c0 1.211-.571 2.312-1.532 2.312-.821 0-1.211-.669-1.211-1.964 0-1.74.738-2.395 1.782-2.395.348 0 .655.042.961.111v1.936Zm-24.633-4.679c.32.07.696.125 1.03.153v2.507h-4.052v-2.507c.334-.028.71-.083 1.03-.153V58.98h-3.871v1.086c.362.084.794.153 1.212.181v6.865c-.418.028-.85.098-1.212.181v1.086h3.871v-1.114a8.354 8.354 0 0 0-1.03-.153v-2.826h4.052v2.826c-.334.028-.71.084-1.03.154v1.113h3.871v-1.086a7.918 7.918 0 0 0-1.212-.18v-6.866c.418-.028.85-.097 1.212-.18V58.98h-3.871v1.114Zm10.513 3.662c0-1.531-.668-2.437-2.799-2.437-.849 0-1.81.21-2.576.488l.264 1.309c.669-.265 1.477-.46 2.103-.46.933 0 1.253.39 1.253 1.212v.292c-2.423 0-4.01.78-4.01 2.41 0 1.127.738 1.963 1.977 1.963 1.045 0 1.894-.557 2.228-1.337l.014.014c-.055.362-.069.78-.069 1.197.891.028 1.949-.014 2.826-.125V67.21a13.935 13.935 0 0 1-1.211-.14v-3.314Zm-1.755 1.755c0 .822-.584 1.685-1.476 1.685-.529 0-.849-.362-.849-.836 0-.598.501-1.058 2.325-1.058v.209Z"/>
    <path fill="#1D6B34" d="M234.261 45.626h-12.017v6.712h12.017c8.745 0 11.962-.668 11.962-.668v-6.782s-3.259.738-11.962.738Z"/>
    <path fill="#1D6B34" d="m206.661 43.927 2.187 5.125c1.615-.014 3.258-.028 4.929-.028 2.534 0 5.013.028 7.422.056V44.4l10.082-1.308s-1.406-.237-5.208-.515c-3.802-.279-9.274-.182-9.274-.182s-2.2.738-3.036.892c-.849-.154-3.035-.892-3.035-.892s-5.431-.097-9.233.181c-3.801.279-6.336.683-6.35.683l11.516.668Z"/>
    <path fill="#155429" d="m206.174 44.582.014 4.511 2.66-.041-2.187-5.125-11.53-.668v1.295c7.785-.028 11.043.028 11.043.028Z"/>
    <path fill="#1D6B34" d="M205.13 45.626h-11.878c-8.704 0-11.962-.738-11.962-.738v6.782s3.217.668 11.962.668h11.878v-6.712Z"/>
    <path fill="#155429" d="M182.348 45.07a9.898 9.898 0 0 1-1.058-.182v6.782s1.156.236 3.982.431c-1.88-2.102-2.785-4.72-2.924-7.032Z"/>
    <path fill="#fff" d="M185.272 47.255h1.282v.404h-.349l.808 2.256.084.293h.014c.027-.098.041-.21.083-.293l.794-2.256h-.39v-.404h1.253v.404h-.306l-1.17 3.008h-.599l-1.183-3.008h-.293v-.404h-.028ZM189.157 50.263h.335l.014-2.618h-.362v-.404h1.531c.697 0 1.031.404 1.031.905 0 .585-.376.864-.808.905v.014c.195.014.32.181.432.376l.376.627c.097.167.195.209.306.209h.125v.404h-.32c-.292 0-.418-.028-.613-.362l-.473-.794c-.139-.25-.209-.292-.376-.292h-.292l-.014 1.058h.39v.404h-1.282v-.432Zm1.323-1.49c.39 0 .655-.209.655-.571s-.223-.557-.613-.557h-.459l-.014 1.128h.431ZM192.555 50.263h.348v-2.618h-.39v-.404h2.396l.013.891h-.459l-.028-.5h-.975l-.014 1.057h.975v.432h-.975l-.014 1.128h1.045l.042-.557h.459l-.042.96h-2.395v-.389h.014ZM195.521 50.263h.349l.014-2.618h-.363v-.404h1.616c1.1 0 1.727.64 1.727 1.63 0 1.002-.641 1.782-1.727 1.782h-1.616v-.39Zm1.449 0c.835 0 1.295-.501 1.295-1.365 0-.766-.446-1.253-1.281-1.253h-.557l-.014 2.618h.557ZM199.253 50.263h.349l.013-2.618h-.389v-.404h2.395l.014.891h-.46l-.028-.5h-.988l-.014 1.057h.974v.432h-.974l-.014 1.128h1.044l.042-.557h.459l-.041.96h-2.395v-.389h.013ZM225.739 50.264h.334l.014-2.619h-.362v-.403h1.518c.696 0 1.03.404 1.03.905 0 .585-.376.863-.807.905v.014c.195.014.32.18.431.376l.376.627c.098.167.195.208.307.208h.125v.404h-.32c-.293 0-.418-.028-.613-.362l-.473-.794c-.14-.25-.209-.292-.376-.292h-.293l-.014 1.058h.39v.404h-1.281v-.431h.014Zm1.323-1.49c.39 0 .654-.21.654-.572 0-.361-.222-.556-.612-.556h-.46l-.014 1.127h.432ZM229.123 50.264h.348l.014-2.619h-.39v-.403h2.395l.014.89h-.446l-.027-.5h-.989l-.014 1.058h.975v.432h-.975l-.014 1.127h1.044l.042-.556h.46l-.042.96h-2.395v-.39ZM234.359 48.244v-.543c-.126-.028-.321-.084-.585-.084-.808 0-1.239.502-1.239 1.351 0 .78.473 1.323 1.169 1.323.237 0 .488-.028.613-.056l.014-.612h.487l-.014.933a3.9 3.9 0 0 1-1.058.167c-1.225 0-1.81-.766-1.81-1.727 0-1.058.71-1.796 1.852-1.796.432 0 .835.097 1.058.18v.878h-.487v-.014ZM237.506 50.264h.348l.014-1.1h-1.588l-.014 1.1h.363v.403h-1.254v-.404h.348l.014-2.617h-.362v-.404h1.254v.404h-.349l-.014 1.086h1.588l.014-1.087h-.362v-.403h1.253v.404h-.348l-.014 2.617h.362v.404h-1.253v-.404ZM240.054 50.263h.348l.014-2.618h-.794l-.014.502h-.473l.014-.892h3.091l.014.892h-.473l-.014-.502h-.78l-.014 2.618h.39v.404h-1.295v-.404h-.014Z"/>
    <path fill="#E3C029" d="M213.93 15.033c3.259 0 5.71.153 7.353.32l.376-2.966c-1.602-.14-4.609-.488-7.868-.488-3.3 0-6.391.363-8.021.502l.39 3.008c1.602-.182 4.206-.376 7.77-.376Zm5.194-1.323c.028-.251.321-.404.739-.404.069 0 .125 0 .194.014.223.028.418.097.571.195.181.111.265.264.237.417-.028.237-.32.404-.738.404-.07 0-.125 0-.195-.014-.501-.07-.849-.334-.808-.612Zm-2.255-.738 1.002.543-1.03.501-1.003-.543 1.031-.501Zm-3.161-.098c.543 0 .947.237.947.543 0 .307-.404.543-.947.543-.543 0-.947-.236-.947-.543 0-.32.417-.543.947-.543Zm-3.147.098 1.03.487-1.003.543-1.03-.501 1.003-.53Zm-3.76.529c.153-.098.348-.167.571-.195.069-.014.125-.014.195-.014.417 0 .71.167.738.404.041.292-.321.543-.808.613-.07.013-.125.013-.195.013-.418 0-.71-.167-.738-.403-.028-.154.056-.307.237-.418ZM214.557 8.808a.793.793 0 1 0-.794.794.802.802 0 0 0 .794-.794Zm-8.425.529a.793.793 0 1 0-1.586-.001.793.793 0 0 0 1.586.001Zm6.726.446a.793.793 0 1 0 0 1.586.793.793 0 0 0 0-1.586Zm-1.81.125a.793.793 0 1 0 0 1.587.785.785 0 0 0 .794-.793c-.014-.432-.362-.794-.794-.794Zm-1.824.14a.793.793 0 1 0 .794.793.785.785 0 0 0-.794-.794Zm-1.81.125a.793.793 0 1 0-.001 1.586.793.793 0 0 0 .001-1.586Zm-1.811.139a.794.794 0 1 0 0 1.588.794.794 0 0 0 0-1.588Zm9.066-.53a.79.79 0 0 0-.279 1.532l.78-1.35a.763.763 0 0 0-.501-.181Z"/>
    <path fill="#D2AD15" d="M222.188 8.557a.793.793 0 1 0-.001 1.587.793.793 0 0 0 .001-1.587Zm-.265 1.755a.793.793 0 1 0 0 1.586.793.793 0 0 0 0-1.586Zm-1.81-.14a.793.793 0 1 0 .794.794c-.014-.431-.362-.794-.794-.794Zm-1.824-.125a.793.793 0 1 0 .794.794.785.785 0 0 0-.794-.794Zm-1.81-.14a.793.793 0 1 0-.001 1.588.793.793 0 0 0 .001-1.587Zm-1.295.057-.78 1.35a.806.806 0 0 0 .264.042.79.79 0 0 0 .516-1.393ZM213.708 13.946c-.321 0-.599-.083-.766-.208l-.78 1.309c.557-.014 1.142-.014 1.754-.014 3.259 0 5.71.153 7.353.32l.376-2.966c-1.56-.14-4.442-.474-7.603-.488l-.599 1.003c.084-.014.167-.014.265-.014.543 0 .946.237.946.543 0 .293-.403.515-.946.515Zm5.416-.236c.028-.251.321-.404.738-.404.07 0 .126 0 .195.014.223.028.418.097.571.195.181.111.265.264.237.417-.028.237-.32.404-.738.404-.07 0-.125 0-.195-.014-.501-.07-.849-.334-.808-.612Zm-2.255-.738 1.002.543-1.03.501-1.003-.543 1.031-.501Z"/>
    <path fill="#155429" d="M221.199 44.4v.168h11.224v-1.31s-.418-.069-1.142-.153l-10.082 1.296ZM245.485 51.795c.501-.084.724-.112.724-.112v-6.781s-.808.18-2.674.362c1.281 1.532 1.783 4.052 1.95 6.53Z"/>
    <path fill="#fff" d="M210.978 46.977h.293l.014-2.256h-.348v-.348h2.074l.014.78h-.39l-.027-.432h-.85l-.014.905h.85v.376h-.85l-.014.975h.905l.028-.488h.39l-.028.822h-2.061v-.334h.014ZM213.568 46.977h.293l.014-2.256h-.376v-.348h.78l1.364 1.782c.084.111.209.306.293.446h.014l-.014-1.88h-.335v-.348h1.031v.348h-.292l-.014 2.604h-.39l-1.462-1.908a2.298 2.298 0 0 1-.209-.306l-.014.014.014 1.88h.32v.347h-1.031v-.375h.014Z"/>
    <path fill="#D2AD15" d="M245.429 24.585c0-1.531-2.047-1.044-3.175-1.044-1.128 0-1.044-1.448-1.044-1.448h2.13c1.713 0 2.813 1.044 2.089 2.492Z"/>
    <path fill="#EFD544" d="M238.801 21.452c.501-.501 1.016-.78 1.754-.78 1.629 0 3.997-.097 4.317-.96.292.306.265.905-.432 1.6 1.838 0 2.159.419 2.354.808.473 1.017-.348 2.465-1.351 2.465.724-1.448-.376-2.492-2.075-2.492h-2.799c-.25 0-.529.125-.752.362a1.236 1.236 0 0 0 0 1.754l3.356 3.384c.209.209.362.46.488.71l-5.571-4.275c-.236-.891 0-1.88.711-2.576Z"/>
    <path fill="#B98F16" d="M234.804 18.138a2.007 2.007 0 0 1-.055-.293c.487-.57 1.309-.807 2.423-.334 1.392.585 2.659-.431 2.659-.431-.961 1.838-2.284 1.239-3.439.877-.627-.195-1.226 0-1.588.18ZM228.942 25.045a42.35 42.35 0 0 0-2.145-1.17l.446 1.95s-1.337 2.172-2.047 3.355c.014.014.028.014.042.028 0-.014 3.704-4.163 3.704-4.163Z"/>
    <path fill="#D2AD15" d="M235.347 21.967c0-1.434-.96-2.02-1.392-2.2-.641-.028-1.295.028-1.866.264.181 1.685 2.604 3.941 4.066 4.443.014 0 .028.013.028.013-.696-.543.459-2.52-.836-2.52Z"/>
    <path fill="#E3C029" d="M230.418 25.922c-.501-.307-1.003-.6-1.476-.878l-3.704 4.15a1.427 1.427 0 0 0-.683-.18v1.461c-.626.14-1.044.655-1.044 1.448h1.044v1.296c.14.153.349.25.571.264l5.292-7.561Z"/>
    <path fill="#D2AD15" d="M235.862 25.866c-1.448.905-4.316.78-4.316.78s.807.501 1.657 1.309l5.653.891s-1.824-1.81-2.994-2.98ZM242.045 36.06c-.654 0-2.632-.265-2.632-1.713v-3.008l-1.504 2.465-.013 2.492c2.436 2.8 1.824 5.988.71 7.27v.96a88.201 88.201 0 0 0 2.019-.056l-.167-.724.905-1.573c-.014.014-.404-5.027.682-6.114Z"/>
    <path fill="#EFD544" d="m230.418 25.922-5.292 7.561h.028c.084 0 1.866-1.323 1.866-1.323l4.512-5.514c-.348-.25-.724-.487-1.114-.724Z"/>
    <path fill="#F6E477" d="M232.089 20.018c-1.95 1.016-2.855 3.927-5.292 3.843 0 0 2.771 1.434 4.749 2.771 0 0 5.124.237 5.124-2.075-1.309.014-4.372-2.632-4.581-4.54Z"/>
    <path fill="#E3C029" d="M227.173 22.134c.418-1.1.585-2.882 1.045-4.65l-2.214-1.407-.53-.92h-2.492l-.46.808c.961.098 1.574.168 1.602.168l.431.055v3.482l2.618 2.464Z"/>
    <path fill="#EFD544" d="M230.167 13.668v-1.49l1.532.682c-.014-.083-.042-.501.682-.905-.028.446.627.78 1.379 1.017-.78 1.824-1.95 4.623-1.685 7.06-1.95 1.016-2.855 3.927-5.292 3.843 0 0-.626-.292-.835-.654 2.339-.014 1.086-6.406 4.219-9.553ZM236.517 37.87c.752.752 1.198 1.63 1.198 2.479 0 1.907-1.295 2.604-1.295 2.604-1.532-.488-1.964 1.058-2.061 1.629h1.685c.835 0 1.754-.014 2.548-.028v-.96c1.114-1.282 1.727-4.47-.71-7.27l-1.365 1.546ZM235.027 35.21v-1.128.209l-4.749 1.1-3.133 6.183c.947.083 1.783.153 2.521.236l-.307-.793 3.83-5.459 1.838-.348Z"/>
    <path fill="#E3C029" d="M228.064 35.906c-.348 3.092-2.381 4.066-2.381 4.066s-.39-.097-.793-.097c-.892 0-1.323 1.476-1.323 1.476l1.462.084c.418.027.821.041 1.225.07.307.027.599.041.891.069l3.147-6.183-2.228.515Z"/>
    <path fill="#D2AD15" d="m235.027 32.37-2.033-1.49-5.695 4.706s.292.418.765.334l6.963-1.615v-1.936Z"/>
    <path fill="#EFD544" d="m231.546 26.646-1.616 1.991 5.097 3.746v-.96c0-.321-.056-.641-.153-.948-.293-.988-.989-1.852-1.671-2.506-.822-.808-1.615-1.295-1.657-1.323Z"/>
    <path fill="#E3C029" d="m237.492 15.31-1.309-.974-.223-.933s-1.184-.125-2.186-.446c-.78 1.825-1.95 4.624-1.685 7.06 1.81-.738 4.567.265 4.567.265l-.432-1.17.641-.738-1.88.223c-.557-1.253-.097-1.866 1.114-1.866.501 0 .891.25.891.25l.265-.849-.223-.417.32.028.14-.432Zm-2.897-.835c-.348.014-.626-.208-.64-.5 0-.029 0-.07.014-.098.417.027.863.083 1.225.139-.042.25-.292.445-.599.46Z"/>
    <path fill="#D2AD15" d="M182.084 24.585c0-1.532 2.047-1.044 3.175-1.044 1.127 0 1.044-1.449 1.044-1.449h-2.131c-1.726-.014-2.813 1.045-2.088 2.493Z"/>
    <path fill="#E3C029" d="M188.712 21.452c-.501-.501-1.017-.78-1.755-.78-1.629 0-3.996-.097-4.316-.96-.293.306-.265.905.431 1.6-1.838 0-2.158.419-2.353.808-.474 1.017.348 2.465 1.351 2.465-.724-1.448.376-2.492 2.074-2.492H186.943c.251 0 .53.125.752.362a1.234 1.234 0 0 1 0 1.754l-3.383 3.384c-.209.209-.362.46-.488.71l5.57-4.275a2.633 2.633 0 0 0-.682-2.576Z"/>
    <path fill="#B98F16" d="M192.694 18.138c.028-.098.042-.195.056-.293-.487-.57-1.309-.807-2.423-.334-1.392.585-2.66-.431-2.66-.431.961 1.838 2.284 1.239 3.44.877.641-.195 1.225 0 1.587.18Z"/>
    <path fill="#E3C029" d="M198.571 25.045a42.604 42.604 0 0 1 2.144-1.17l-.445 1.95s1.337 2.172 2.047 3.355c-.014.014-.028.014-.042.028l-3.704-4.163Z"/>
    <path fill="#D2AD15" d="M193.558 19.753c-.432.195-1.393.78-1.393 2.2-1.309 0-.153 1.977-.849 2.52.014 0 .028-.013.028-.013 1.462-.502 3.885-2.758 4.066-4.443-.557-.222-1.212-.292-1.852-.264Z"/>
    <path fill="#EFD544" d="M197.095 25.908c.501-.306 1.002-.599 1.476-.877l3.704 4.15c.209-.112.432-.182.682-.182v1.463c.627.139 1.045.654 1.045 1.448h-1.045v1.295a.846.846 0 0 1-.571.264l-5.291-7.561c0 .014-.014.014 0 0Z"/>
    <path fill="#E3C029" d="M191.65 25.866c1.448.905 4.317.78 4.317.78s-.808.501-1.657 1.309l-5.668.905c.014-.014 1.838-1.838 3.008-2.994Z"/>
    <path fill="#F6E477" d="M185.467 36.06c.655 0 2.632-.265 2.632-1.713v-3.008l1.504 2.465.014 2.492c-2.437 2.8-1.824 5.988-.71 7.27v.96a88.042 88.042 0 0 1-2.019-.056l.167-.724-.905-1.573c0 .014.39-5.027-.683-6.114Z"/>
    <path fill="#E3C029" d="M188.907 44.54c.794.014 1.699.027 2.548.027h1.685c-.111-.57-.529-2.116-2.061-1.629 0 0-1.295-.696-1.295-2.604 0-.85.446-1.713 1.198-2.479l-1.365-1.56c-2.437 2.8-1.824 5.989-.71 7.27v.975Z"/>
    <path fill="#D2AD15" d="m197.081 25.922 5.292 7.561h-.028c-.084 0-1.866-1.323-1.866-1.323l-4.512-5.528c.348-.237.724-.473 1.114-.71Z"/>
    <path fill="#F6E477" d="M190.843 24.571c0 2.312 5.124 2.075 5.124 2.075 1.977-1.337 4.735-2.77 4.748-2.77-2.436.083-3.328-2.842-5.291-3.844-.209 1.894-3.286 4.54-4.581 4.54Z"/>
    <path fill="#D2AD15" d="M200.339 22.134c-.417-1.1-.585-2.882-1.044-4.65l2.214-1.407.529-.92h2.493l.459.808c-.961.098-1.573.168-1.601.168l-.432.055v3.482l-2.618 2.464Z"/>
    <path fill="#E3C029" d="M197.332 13.668v-1.49l-1.532.682c.014-.083.042-.501-.682-.905.027.446-.627.78-1.379 1.017.78 1.824 1.95 4.623 1.685 7.06 1.949 1.016 2.855 3.927 5.292 3.843 0 0 .626-.292.835-.654-2.325-.014-1.072-6.406-4.219-9.553Z"/>
    <path fill="#EFD544" d="M184.339 31.339c.502.501 1.17.78 1.88.78.711 0 1.379-.279 1.88-.78l1.504 2.465.014 2.492 2.855 3.273c0-.905.014-8.174.014-8.174 0-.32.055-.64.153-.947.292-.989.989-1.852 1.671-2.507l-5.668.905-1.155 1.142s-1.254 1.253-2.159.348a1.236 1.236 0 0 1 0-1.754l3.384-3.384c.334-.334.557-.738.682-1.17l-5.57 4.275a2.668 2.668 0 0 0 .515 3.036Z"/>
    <path fill="#F6E477" d="M192.486 35.196v-1.128.21l4.734 1.113 3.133 6.183c-.947.084-1.782.153-2.52.237l.306-.794-3.829-5.459-1.824-.362Z"/>
    <path fill="#D2AD15" d="M199.434 35.906c.348 3.092 2.382 4.066 2.382 4.066s.389-.097.793-.097c.891 0 1.323 1.476 1.323 1.476l-1.462.084c-.418.027-.822.041-1.225.07-.307.027-.599.041-.892.069l-3.133-6.183 2.214.515Z"/>
    <path fill="#E3C029" d="m192.486 32.37 2.033-1.49 5.681 4.706s-.292.418-.766.334l-6.962-1.615c.014-.752.014-1.434.014-1.936Z"/>
    <path fill="#B98F16" d="m195.967 26.632 1.615 1.992-5.096 3.746v-.961c0-.32.055-.64.153-.947.292-.989.988-1.852 1.671-2.507.821-.793 1.601-1.28 1.657-1.323Z"/>
    <path fill="#EFD544" d="M193.739 12.957c-1.003.307-2.186.446-2.186.446l-.223.933-1.309.975.139.418.321-.028-.223.418.264.849s.39-.25.892-.25c1.211 0 1.671.612 1.114 1.865l-1.88-.223.64.739-.431 1.17s2.757-1.003 4.567-.265c.265-2.423-.905-5.222-1.685-7.047Zm-.835 1.504c-.307-.014-.558-.208-.599-.445.362-.056.807-.112 1.225-.14 0 .028.014.07.014.098 0 .279-.292.501-.64.487Z"/>
    <path fill="#D2AD15" d="M223.525 34.792c0 5.487-9.762 7.422-9.762 7.422s-9.761-1.935-9.761-7.422V17.107s3.3-.627 9.761-.627c6.462 0 9.762.627 9.762.627v17.685Z"/>
    <path fill="#B98F16" d="M213.749 42.214s9.762-1.935 9.762-7.422V17.107s-3.3-.627-9.762-.627c-1.518 0-2.868.028-4.038.084 8.815.348 12.338 1.546 12.338 1.546s.014 12.337.014 16.863-8.314 7.241-8.314 7.241Z"/>
    <path fill="#4B4B4B" d="m215.727 27.19-.752-.098-.237.306-1.741-1.114c.181.878.655 2.549 1.88 3.983.822.599 1.671 1.211 2.354 1.699-.056-2.869-1.031-4.456-1.282-5.097l-.222.32Z"/>
    <path fill="#fff" d="M212.148 28.303c-.919-.655-.613-1.95-.014-2.548l2.604 1.657.237-.307.752.098.236-.306 1.936.334c-.362-.571-.961-1.504-1.866-2.13l.237-.307c-.46-.223-1.532-.39-2.757-.39h-1.88l1.323-3.788c.348-1.016-.279-1.838-.961-1.907-1.031-.112-1.462 1.002-1.462 1.002l1.128 1.156c.027 0-1.463 3.481-1.463 3.481-.153.362-.25.836-.25 1.337 0 .975.431 1.963 1.337 2.84.765.753 4.094 3.357 4.094 3.357l.264-.362 1.615.473c-.027-.014-4.845-3.509-5.11-3.69Z"/>
    <path fill="#636363" d="m212.997 26.298-.863-.543c-.599.613-.905 1.894.014 2.548.278.195 1.462 1.058 2.729 1.978-1.225-1.435-1.699-3.106-1.88-3.983Z"/>
    <path fill="#000" d="m217.885 27.217-1.936-.334c.251.64 1.226 2.214 1.282 5.096.765.557 1.309.947 1.309.947l.376-.501 1.002.696c-.056-.46-.125-.89-.223-1.295-.431-2.047-1.142-3.565-1.81-4.609Z"/>
    <path fill="#4B4B4B" d="M216.2 39.081c-.042-.111-.125-.209-.278-.209h-.557v-2.66l-.46.21v2.436h-.849c-.098 0-.293.14-.349.14h-.375c-.154 0-.237.097-.279.208l-.028.084-.014.111v.056h.919l.195-.14h.39c-.237.154-.501.307-.599.363a.286.286 0 0 0-.125.32l.014.084.042.097.028.056 1.559-.92h.85v-.055l-.028-.111-.056-.07Z"/>
    <path fill="#636363" d="m208.124 29.236-.084.111.056.752.139-.195.097.014.599 1.03s.014 0 .014-.013l.07-.056.069-.056c.084-.097.154-.222.07-.375-.028-.042-.056-.112-.111-.195l1.754.835.724-.167-2.882-1.365c-.07-.111-.153-.278-.153-.278-.042-.07-.223-.112-.362-.042Z"/>
    <path fill="#000" d="m211.647 20.853-1.142-1.156-4.874 1.156h6.016Z"/>
    <path fill="#4B4B4B" d="m207.943 29.473-.933.125-.418.543c-.098.126-.056.251 0 .349l.056.07.069.069.042.041.473-.64.39-.056c-.181.25-.376.515-.445.6-.098.124-.056.25 0 .347l.055.084.056.07.042.041.752-1.016-.056-.752-.083.125ZM214.251 30.977c-.14-.112-.307-.237-.46-.362v1.337l-.07.013-2.186-1.044-.724.167 2.729 1.295.279.362.445-.07.168-.431-.195-.25.014-1.017Z"/>
    <path fill="#000" d="M212.287 19.683s-.529.237-.654.237c-.126 0-.251-.111-.251-.237 0-.125.125-.236.251-.236.125.014.654.236.654.236ZM206.926 22.594c-.334-.585.056-.933.32-1.212.195-.195.362-.362.362-.612 0-.335-.181-.39-.64-.46-.279-.042-.557-.083-.71-.292a.514.514 0 0 1-.112-.404c.042-.32.376-.557.404-.585a.19.19 0 0 1 .279.056.19.19 0 0 1-.056.278c-.07.056-.223.195-.237.306 0 .028 0 .056.028.084.056.084.265.111.459.14.404.055 1.003.139.989.863 0 .417-.264.668-.487.905-.251.264-.46.445-.321.807.098.237.502.363.418.502-.055.153-.529-.098-.696-.376ZM215.365 31.854s-.181-.139-.46-.362v.836l-.223.403.223.39v3.3l.46-.208v-3.078l.223-.404-.223-.403v-.474Z"/>
    <path fill="#636363" d="M218.693 26.48a7.465 7.465 0 0 0-2.451-1.7l-.223.307c.905.626 1.518 1.545 1.866 2.13.668 1.045 1.379 2.562 1.81 4.596.098.403.167.835.223 1.295l.961.682c.501-2.8-.432-5.5-2.186-7.31Z"/>
    <path fill="#E3C029" d="m243.675 28.303-5.57-4.275c.111.432.348.836.682 1.17l3.384 3.384a1.236 1.236 0 0 1 0 1.754c-.905.905-2.159-.348-2.159-.348l-1.155-1.142-5.668-.905c.682.655 1.379 1.518 1.671 2.507.097.306.153.626.153.947 0 0 .014 7.255.014 8.174l2.855-3.273.014-2.492 1.504-2.465c.501.501 1.169.78 1.879.78.711 0 1.379-.279 1.88-.78a2.667 2.667 0 0 0 .516-3.036Z"/>
  </g>
  <path fill="#fff" d="M296 0h132v80H296z"/>
  <path fill="#154273" d="M346 8h32v64h-32V8Z"/>
  <path fill="#fff" d="M362.582 57.51h-.556v-1.542h.556v1.542Zm2.509-6.81h-.557v-1.542h.557v1.543Zm-10.31-2.662c-.045 0-.333 0-.333.058s.134.032.333.064c.448.077.621.3.934.3.282 0 .576-.191.461-.6-.019-.071-.058-.052-.07-.007-.045.185-.269.288-.506.288-.294 0-.358-.102-.819-.102Zm-3.072 1.543c.051.07.576.749-.231 1.011-.038.013-.044.045.007.07.595.25.883-.21.883-.21.301.684-.16 1.068-.16 1.068.064.122.352.333.781.429.166-.09.397-.256.493-.512 0 0 .115.3.012.589 1.216.108 1.645-.864 2.586-.685.026.006.038-.013.038-.038 0-.602-.364-1.697-1.529-1.92-1.159-.225-.845-.698-.845-.698.486-.02.768.192.768.192.09-.147-.038-.3-.038-.3.044-.058.07-.257.07-.257-.55 0-.691-.121-.691-.121-.083-.327.141-.788.96-.295.205-.18.185-.46.185-.46.064-.033.103-.129.103-.167 0-.135-.653-.5-.819-.544-.039-.198-.295-.48-1.063-.378-.365.045-.627-.05-.505-.262.019-.039-.045-.045-.077-.007-.083.084-.199.32.115.48.352.18.371.532.378.583.006.077-.084.083-.103.006-.16-.595-.979-.723-1.459-.41.026.32.371.532.557.532.109 0 .256-.109.256-.256 0-.07.038-.064.057-.007.077.212-.236.653-.697.384-.474.474-.282 1.063-.237 1.274.083.384-.102.762-.454.589-.02-.007-.039-.013-.039.025.007.23.327.506.698.295Zm2.617-2.387c-.224.25-.582.192-.672-.218.455-.026.653.02.672.218Zm14.125.947c-.237 0-.461-.102-.505-.288-.013-.045-.052-.064-.071.006-.115.41.179.602.461.602.314 0 .486-.224.934-.3.199-.033.333 0 .333-.065 0-.057-.288-.057-.333-.057-.467 0-.524.102-.819.102Zm4.576 1.133c0-.039-.019-.032-.038-.026-.352.173-.538-.198-.455-.589.045-.217.237-.8-.236-1.273-.468.268-.781-.173-.698-.384.019-.058.058-.064.058.006 0 .147.147.256.256.256.185 0 .531-.211.556-.531-.48-.314-1.299-.186-1.459.41-.019.076-.109.07-.102-.007 0-.051.025-.403.377-.582.32-.16.205-.397.116-.48-.032-.032-.103-.026-.077.006.121.211-.141.307-.499.263-.768-.103-1.018.185-1.063.377-.166.045-.819.41-.819.544 0 .038.038.14.102.166 0 0-.012.276.186.461.813-.492 1.043-.032.96.295 0 0-.147.115-.698.121 0 0 .026.199.071.256 0 0-.128.16-.039.301 0 0 .282-.211.768-.192 0 0 .314.474-.844.698-1.159.224-1.53 1.318-1.53 1.92 0 .032.013.044.038.038.941-.173 1.37.8 2.586.685-.109-.288.013-.589.013-.589.096.256.326.429.493.512.435-.096.716-.3.78-.429 0 0-.46-.377-.16-1.069 0 0 .288.461.884.212.051-.026.038-.058.006-.07-.806-.263-.282-.941-.23-1.012.384.224.697-.051.697-.294Zm-2.637-2.298c-.089.41-.448.467-.672.218.026-.199.218-.244.672-.218Zm-8.582-6.841c0 .102.045.192.077.243.07.102.057.16.025.192s-.089.044-.192-.026a.42.42 0 0 0-.243-.077c-.173 0-.262.116-.262.212 0 .096.089.21.262.21a.471.471 0 0 0 .243-.076c.103-.07.16-.058.192-.026s-.012.384-.057.666c-.288.064-.429.294-.429.429 0 .352.371.55.595.672.218-.116.595-.32.595-.672 0-.135-.14-.371-.428-.43-.039-.274-.09-.633-.058-.665.032-.032.09-.044.192.026a.421.421 0 0 0 .243.077c.173 0 .263-.115.263-.212 0-.095-.09-.21-.263-.21a.474.474 0 0 0-.243.076c-.102.07-.16.058-.192.026s-.045-.09.026-.192a.425.425 0 0 0 .076-.243c0-.173-.115-.263-.211-.263-.096 0-.211.09-.211.263Zm.218 2.598a.432.432 0 0 0-.396.265.429.429 0 1 0 .396-.265Zm0 4.102c1.708 0 2.668.327 2.668.327.007-.864.007-1.344.5-1.274-.269-.723.896-1.011.896-1.952 0-.62-.442-.691-.57-.691-.384 0-.326.25-.653.25-.038 0-.083-.013-.083.019 0 .108.09.294.243.294.205 0 .205-.205.359-.205.064 0 .16.051.16.263 0 .403-.263.845-.576 1.19a.355.355 0 0 0-.288-.16c-.186 0-.346.192-.346.429a.5.5 0 0 0 .045.224.608.608 0 0 1-.263.09c-.14 0-.352-.058-.352-.365 0-.685.916-1.287.916-2.157 0-.416-.276-.826-.858-.826-.621 0-.506.564-1.043.564-.026 0-.045.006-.045.032 0 .038.096.352.371.352.295 0 .378-.512.647-.512.096 0 .243.057.243.403 0 .268-.135.71-.327 1.126a.387.387 0 0 0-.268-.121c-.231 0-.397.224-.397.486 0 .166.064.333.179.435-.134.173-.275.314-.461.314-.371 0-.531-.212-.531-.442 0-.25.454-.34.454-.723 0-.262-.172-.41-.332-.41-.18 0-.269.115-.288.115-.02 0-.109-.115-.288-.115-.167 0-.333.148-.333.41 0 .384.454.48.454.723 0 .23-.166.442-.531.442-.186 0-.326-.141-.461-.314a.6.6 0 0 0 .179-.435c0-.269-.166-.486-.396-.486a.377.377 0 0 0-.269.121c-.192-.422-.327-.858-.327-1.126 0-.346.148-.404.244-.404.262 0 .345.513.646.513.275 0 .371-.314.371-.352 0-.02-.019-.032-.045-.032-.537 0-.422-.564-1.043-.564-.576 0-.857.41-.857.826 0 .87.915 1.472.915 2.157 0 .307-.211.364-.352.364a.58.58 0 0 1-.263-.09.52.52 0 0 0 .045-.223c0-.237-.16-.429-.345-.429-.116 0-.212.064-.282.16-.314-.345-.576-.787-.576-1.19 0-.205.096-.263.16-.263.147 0 .154.205.358.205.154 0 .244-.185.244-.294 0-.032-.045-.02-.084-.02-.326 0-.268-.25-.652-.25-.128 0-.57.071-.57.692 0 .947 1.165 1.229.896 1.952.493-.07.486.41.499 1.274-.013 0 .954-.327 2.663-.327Zm-3.13 1.274c-.467.102-.8.198-.947.243.006-.205.083-.397.269-.435.025-.007.032-.038.006-.051-.416-.276-.634.25-.64.269-.147-.013-.371.032-.371.23 0 .595-1.357.921-1.671.973.557.21.788.915.788.915.403-.403.87-.755.979-.755.109 0 .147.134.153.21 0 .026.026.033.045.014.211-.314.109-.384.09-.48-.013-.07.006-.346.313-.314v3.962l-.16.032c-.07.013-.652-.48-1.312-.941-.665-.46-1.017-.186-1.772.224-.992.538-1.991.051-1.991.051-.851.608-1.145 2.374-1.145 2.374-.173.07-.455.148-.717.148-.653 0-.768-.397-.768-.627 0-1.005 1.261-1.434 1.261-2.426 0-.243-.109-1.216-1.319-1.216h-1.081c-.455 0-.564-.327-.628-.448-.025-.051-.07-.02-.051.02.032.082-.051.21-.051.46 0 .403.237.646.678.646.199 0 .391-.057.448-.096.039-.025.064.013.045.039-.192.224-.205.646-.128.742.019.026.045.02.045 0 .109-.422.506-.825 1.043-.825.659 0 .653.556.653.69 0 .807-1.414 1.396-1.414 2.51 0 1.126 1.19 1.363 1.875 1.19-.039 1.126-1.331 1.51-1.37.704 0-.038-.032-.045-.051.006-.16.397-.096.75.403.858.032.006.019.026-.013.051-.499.314-.23 1.555-.204 1.92.038.525-.487.46-.532.448-.019-.006-.044 0-.006.045.371.454.832.038.832.038.346.11.134.404-.102.557-.039.026-.032.051.006.051.051.007.589.051.685-.377.237.281.589.179.659.14.102-.05.608-.236.653.327 0 .038.025.013.045-.006.377-.48-.026-.775-.256-.807a.38.38 0 0 1 .595.07c.019.026.038.032.038-.019.032-.608-.461-.659-.781-.396-.012-.064-.121-.404.359-.39.013 0 .032-.02.013-.04-.372-.396-.679-.038-.756.052-.166.198-.582.115-.62.115.128-2.105 1.984-1.357 2.24-2.38.012-.052.038-.033.038-.014.07.25.698.282.813-.204.006-.032 0-.051-.019-.032-.538.537-1.748-1.14-.096-2.503 1.408-1.158 2.668-.512 3.148-.134.026.166-.076.224-.14.243-.026.007-.032.026.006.045.134.051.32.032.41-.09.3.211.044.48-.077.55-.032.02-.019.04.006.045.275.052.506-.23.519-.396l.044.025v1.197c0 1.703 1.965 1.94 4.122 3.38 2.157-1.447 4.115-1.677 4.115-3.38V53.94l.045-.025c.013.16.237.448.518.396.026-.006.039-.025.007-.044-.122-.077-.384-.34-.077-.55.09.127.275.14.41.089.038-.013.032-.038.006-.045-.064-.02-.166-.077-.141-.243.48-.384 1.741-1.03 3.149.134 1.651 1.363.442 3.034-.096 2.503-.026-.026-.026 0-.019.032.115.492.742.454.813.205.006-.02.032-.039.038.012.256 1.024 2.106.276 2.24 2.381-.038.007-.454.083-.621-.115-.07-.083-.377-.448-.755-.051-.026.025 0 .038.013.038.48-.013.377.327.358.39-.32-.262-.813-.21-.781.397 0 .045.02.045.039.02a.38.38 0 0 1 .595-.07c-.224.031-.634.325-.256.806.019.019.038.044.045.006.051-.563.55-.384.653-.326.07.038.422.14.659-.141.096.428.633.384.685.377.038 0 .038-.025.006-.05-.23-.154-.448-.449-.102-.558 0 0 .46.416.832-.038.032-.038.012-.051-.007-.045-.045.013-.569.077-.531-.448.026-.365.294-1.606-.205-1.92-.032-.02-.045-.038-.013-.051.5-.109.564-.46.404-.858-.02-.05-.052-.038-.052-.006-.038.806-1.324.422-1.369-.704.691.18 1.875-.064 1.875-1.19 0-1.108-1.414-1.703-1.414-2.51 0-.134-.007-.69.652-.69.538 0 .935.403 1.044.825.006.02.025.026.044 0 .077-.102.064-.518-.128-.742-.019-.02 0-.064.045-.039.058.039.25.096.448.096.442 0 .679-.243.679-.646 0-.25-.09-.378-.052-.46.02-.04-.032-.065-.051-.02-.064.128-.179.448-.627.448h-1.082c-1.209 0-1.318.98-1.318 1.216 0 .992 1.261 1.42 1.261 2.425 0 .237-.122.628-.768.628-.269 0-.551-.077-.717-.148 0 0-.288-1.76-1.146-2.374 0 0-.998.486-1.99-.051-.755-.41-1.114-.685-1.779-.224-.666.46-1.242.953-1.312.94l-.16-.031v-3.962c.307-.032.326.243.313.314-.019.09-.115.166.09.48.019.025.038.012.045-.013.006-.077.051-.211.153-.211.103 0 .576.352.98.755 0 0 .23-.698.787-.915-.314-.052-1.671-.378-1.671-.973 0-.199-.224-.243-.371-.23-.006-.02-.23-.544-.64-.27-.019.014-.019.045.007.052.185.045.262.23.268.435a14.86 14.86 0 0 0-4.076-.595c-.973 0-1.863.115-2.573.243v1.37h-.557v-1.261Zm-3.693 14.067c-.147-.058-.243-.154-.243-.352v-.851c-.243-.083-.909-.34-2.246-.34-1.108 0-1.453.25-1.472.34l-.295 1.626s.448-.41 2.055-.308c1.932.122 3.936 1.268 3.936.045v-.717c-1.511 0-1.735.487-1.735.557Zm11.904-.557v.717c0 1.216 2.003.077 3.936-.045 1.607-.102 2.055.308 2.055.308l-.295-1.626c-.013-.09-.365-.34-1.472-.34-1.331 0-1.997.257-2.246.34v.851c0 .192-.096.288-.243.352 0-.07-.224-.557-1.735-.557Zm-5.081-.736c3.116 0 6.278.16 6.688.634.032.038.044 0 .044-.032v-1.651c0-.48-3.264-.762-6.739-.762s-6.739.282-6.739.762v1.65c0 .026.013.065.045.033.422-.467 3.584-.634 6.701-.634Zm-2.778-7.782-.314-.083-.025.038-.365-.16h.326c.032 0 .032-.02.02-.032a21.995 21.995 0 0 0-.282-.275s.147.058.358.134c.026.007.032-.006.02-.025l-.244-.352.352.237c.02.012.032 0 .026-.02l-.166-.416.32.308c.012.012.032.006.025-.013l-.089-.416.236.345c.013.02.032.013.032-.006 0-.07.007-.378.007-.378s.102.23.147.346c.013.026.026.026.038-.006.013-.039.122-.295.122-.295l.013.397-.051.013-.064.473c.467-.108 1.056-.915 1.504-.915.537 0 .729.627 1.715.307.249.371.339.691.435 1.133.384.358.915.237.915-.14 0-.513-.557-.609-.557-1.146 0-.237.167-.583.621-.583.243 0 .595.103.8.103.243 0 .295-.173.32-.25.019-.051.09-.038.083.007-.006.05.026.121.026.236 0 .34-.493.384-.55.34-.026-.02-.045.006-.026.025.077.058.058.263-.032.39-.013.013-.026.013-.026 0-.051-.243-.339-.543-.588-.543-.09 0-.276.05-.276.268 0 .301.608.583.608 1.21 0 .653-.646.813-1.299.646.019.621.947.986.967.544 0-.032.019-.012.025 0 .135.192.077.333-.102.41.16.07.192.397.237.595.07.294.377.128.396.122.02-.013.026 0 .013.019-.115.3-.429.186-.429.186-.16.115.032.217.18.262.019.006.019.02.006.032-.109.038-.339.115-.454-.083-.084.204-.256.198-.32.198-.122 0-.199.122-.173.288 0 .013-.007.02-.019.013-.282-.186-.122-.41-.007-.467a.207.207 0 0 0-.301.134c-.006.02-.019.02-.025 0-.122-.333.147-.429.339-.346-.013-.044-.115-.21-.371-.153-.013.006-.019 0-.013-.02.045-.102.166-.249.403-.102.122.077.327-.032.346-.044-.416-.826-1.216-.135-1.402-.781-.006-.013-.019-.026-.032.012-.045.135-.397.148-.461-.121-.006-.02 0-.026.02-.013.051.051.16.096.307-.109.096-.14.109-.326.109-.448 0-.499-.5-1.344-1.28-1.344-.493 0-1.024.192-1.421.48l.365.083a.56.56 0 0 1-.717.493l.057-.422a.56.56 0 0 0-.275.18c-.006.005-.019.005-.019-.007-.064-.244.134-.365.192-.39.006-.007.006-.007-.006-.007a.36.36 0 0 0-.308.166c-.006.007-.012.007-.012 0 .019-.05-.013-.172.07-.262Zm1.088 2.867c-.141.173-.262.006-.448.006-.173 0-.205.148-.205.205 0 .013-.006.013-.013.007-.198-.27.026-.416.154-.435-.019-.02-.211-.148-.333.032-.006.012-.019.006-.019-.007-.006-.333.256-.358.435-.211.032-.128-.051-.211-.192-.218-.019 0-.019-.013-.013-.019.058-.064.116-.09.173-.09.186 0 .211.237.333.237.179 0 .442-.243.461-.269-.007-.012-.179-.486-.147-.768 0-.012-.007-.012-.013-.006-.09.051-.307.045-.307-.224 0-.02.006-.026.019-.006.096.134.256-.02.333-.11.083-.095.544-.76 1.152-.76.134 0 .307.076.448.172-.212.256 0 .5.153.467.019-.006.019.013.007.02-.807.3-1.165.422-1.165 1.1 0 .352.121.55.326.5.013-.007.019 0 .007.012-.077.09-.16.122-.231.122-.166 0-.198-.09-.288-.09-.089 0-.39.18-.39.327 0 .057.038.134.141.198.006.007 0 .013 0 .013-.084 0-.32.02-.378-.205Zm2.125-6.56c-.25-.013-.416.038-.403.122.115.128.281.115.403-.122Zm-.935.62a1.11 1.11 0 0 1 .397-.018c.026.006.026.05-.006.057-.371.045-.391.218-.627.218-.154 0-.327-.16-.263-.39.007-.033.032-.033.039 0 .025.102.172.21.46.134Zm-4.819 8.231c.243.314.48.02.807.02.16 0 .352.05.384.37 0 .02.012.02.032 0 .352-.48-.052-.748-.282-.787.051-.044.39-.256.614.058.013.02.039.013.039-.013 0-.608-.455-.652-.787-.39-.064-.237.115-.39.345-.39.026 0 .039-.02.026-.033-.41-.435-.711.116-.781.199-.16.218-.742-.192-.979-.435 0 0 .512-.538.512-1.03 0-.033-.007-.071-.007-.09 0-.013.007-.02.02-.013a.371.371 0 0 0 .192.051c.115 0 .339-.038.339-.454 0-.032-.013-.032-.026-.013-.064.09-.128.109-.179.109-.416 0-1.28-1.383-2.304-1.383-.269 0-.774.192-1.024.468.122.07.147.224.134.332-.019.173-.16.263-.3.301-.026.006-.026.026 0 .038.518.199 1.452.55 1.67.736.25.218.205.628.058 1.197-.141.544-.442.474-.557.455-.019 0-.019.006-.013.019a.55.55 0 0 0 .435.224c.269 0 .371-.166.506-.166.23 0 .723.332.723.588 0 .141-.109.276-.256.365-.006.007-.006.02.006.02.109.018.57.057.653-.353Zm11.29.352c.013 0 .019-.012.006-.019-.141-.096-.256-.224-.256-.365 0-.256.487-.588.723-.588.141 0 .237.166.506.166a.55.55 0 0 0 .435-.224c.013-.013.007-.026-.013-.02-.108.02-.416.09-.556-.454-.148-.57-.199-.979.057-1.197.211-.185 1.152-.537 1.671-.735.025-.013.025-.032 0-.039-.141-.038-.282-.128-.301-.3-.013-.11.013-.257.134-.334-.256-.275-.761-.467-1.03-.467-1.024 0-1.888 1.383-2.304 1.383-.051 0-.122-.02-.179-.11-.013-.018-.026-.018-.026.014 0 .416.224.454.339.454a.39.39 0 0 0 .192-.051c.013-.007.019 0 .019.013 0 .019-.006.057-.006.09 0 .492.512 1.03.512 1.03-.23.243-.813.646-.979.435-.071-.09-.371-.634-.781-.199-.013.02-.006.032.026.032.23 0 .409.154.345.39-.333-.261-.787-.217-.787.391 0 .026.026.032.038.013.218-.314.564-.102.608-.058-.23.032-.627.308-.281.788.013.019.025.019.032 0 .038-.314.23-.371.384-.371.32 0 .557.294.806-.02.096.41.551.371.666.352Zm-8.269-7.98c-.032.044-.141 0-.179-.02-.007-.006-.013 0-.007.007.026.057.128.23.282.23.07 0 .173-.038.198-.09 0 0 .602.199.896.276-.115.153-.185.339-.204.537a41.604 41.604 0 0 0-1.197-.659l-.295.41c-.051.064-.288-.11-.236-.173l.224-.314c-.077-.077-.256-.032-.308-.013-.006 0-.012 0-.006-.012.032-.064.141-.25.422-.167 0-.172-.256-.115-.326-.096-.006 0-.013 0-.006-.006.07-.077.281-.243.512-.102l.102-.141-.205-.218.128-.18.147.193 1.108-1.517c.025-.038.249-.102.326-.121.006.083.019.313-.006.352l-1.088 1.53.23.076-.128.18-.269-.129-.115.166Zm3.885-.25c0 .14.083.346.269.282.006-.007.019 0 .012.006-.025.154-.307.294-.428.115-.116.237-.084.46.153.589.013.006.013.026 0 .038-.147.103-.371.084-.473-.121-.199.147-.173.467-.052.576 0 0-.55.326-1.049.096-.333-.16-.602-.365-1.031-.327.058-.601.359-.755.909-.844.442-.07.493-.276.435-.43-.147-.038-.422.097-.422.097-.051-.084.019-.167.019-.167-.025-.032-.038-.14-.038-.14.307 0 .365-.07.365-.07.057-.32-.269-.353-.519-.18-.115-.103-.096-.237-.096-.237a.152.152 0 0 1-.039-.042.146.146 0 0 1-.018-.054c0-.077.364-.282.46-.307.026-.109.154-.256.544-.218.045-.102-.032-.48-.076-.576-.013-.032.006-.044.038-.025.134.083.269.403.365.41 0 0 .435-.231.454-.218.019.013.083.499.083.499.058.07.397 0 .544.064.039.02.039.045 0 .051-.108.02-.46.173-.518.269.205.3.109.742.109.864ZM444 0h132v80H444z"/>
  <g fill="#EC0000" clip-path="url(#c)">
    <path d="M475.006 30.294c0-3.19 2.24-5.44 5.406-5.44 1.607 0 2.954.518 3.911 1.554l-1.395 1.327c-.601-.663-1.461-1.052-2.484-1.052-1.916 0-3.247 1.49-3.247 3.611 0 2.122 1.299 3.675 3.166 3.675 1.704 0 2.889-.971 2.889-2.38v-.275h-2.548V29.55h4.692v1.636c0 2.687-2.095 4.582-5.098 4.582-3.003 0-5.291-2.267-5.291-5.473h-.001ZM486.757 31.573c0-2.478 1.673-4.194 4.058-4.194 2.386 0 4.042 1.7 4.042 4.145 0 .194-.032.502-.065.713h-6.006c.147 1.084 1.071 1.813 2.257 1.813.877 0 1.639-.324 2.142-.907l1.218 1.182c-.731.94-1.997 1.442-3.458 1.442-2.467 0-4.189-1.732-4.189-4.194h.001Zm2.029-.81h4.042c-.13-1.052-.941-1.765-2.029-1.765-1.087 0-1.898.713-2.013 1.765ZM498.413 27.574v1.085h.032c.406-.826 1.12-1.28 2.045-1.28 1.039 0 1.817.454 2.304 1.36.487-.874 1.38-1.36 2.516-1.36 1.98 0 2.938 1.102 2.938 3.351v4.842h-2.013V31.07c0-1.31-.455-1.943-1.396-1.943-.94 0-1.444.697-1.444 2.008v4.437h-2.013V31.07c0-1.327-.438-1.943-1.396-1.943s-1.445.713-1.445 2.008v4.437h-2.013v-7.998h1.885ZM509.84 31.573c0-2.478 1.673-4.194 4.058-4.194 2.386 0 4.043 1.7 4.043 4.145 0 .194-.033.502-.066.713h-6.006c.147 1.084 1.071 1.813 2.257 1.813.877 0 1.639-.324 2.142-.907l1.218 1.182c-.731.94-1.997 1.442-3.458 1.442-2.467 0-4.189-1.732-4.189-4.194h.001Zm2.029-.81h4.042c-.13-1.052-.941-1.765-2.029-1.765-1.087 0-1.898.713-2.013 1.765ZM519.109 31.573c0-2.478 1.672-4.194 4.058-4.194s4.042 1.7 4.042 4.145c0 .194-.032.502-.065.713h-6.006c.146 1.084 1.071 1.813 2.256 1.813.877 0 1.64-.324 2.143-.907l1.217 1.182c-.73.94-1.997 1.442-3.458 1.442-2.467 0-4.188-1.732-4.188-4.194h.001Zm2.029-.81h4.042c-.13-1.052-.942-1.765-2.029-1.765s-1.899.713-2.013 1.765ZM530.779 27.574v1.085h.032c.374-.794 1.186-1.28 2.127-1.28 2.013 0 3.052 1.15 3.052 3.351v4.842h-2.013v-4.453c0-1.36-.487-1.992-1.51-1.992-1.023 0-1.575.713-1.575 2.04v4.404h-2.013v-7.997h1.9ZM538.571 32.707v-3.465h-1.38v-1.668h.73c.666 0 .925-.26.925-.923v-1.246h1.721v2.17h1.948v1.668h-1.948v3.465c0 .777.405 1.214 1.152 1.214.227 0 .503-.032.665-.081v1.684c-.243.065-.698.113-1.055.113-1.817 0-2.759-1.003-2.759-2.93l.001-.001ZM543.505 31.573c0-2.478 1.673-4.194 4.059-4.194 2.385 0 4.042 1.7 4.042 4.145 0 .194-.033.502-.065.713h-6.007c.147 1.084 1.072 1.813 2.257 1.813.876 0 1.639-.324 2.143-.907l1.217 1.182c-.731.94-1.997 1.442-3.459 1.442-2.466 0-4.188-1.732-4.188-4.194h.001Zm2.029-.81h4.043c-.131-1.052-.942-1.765-2.029-1.765-1.088 0-1.899.713-2.014 1.765ZM481.222 44.477l4.221 10.524h-2.257l-.877-2.316h-4.691l-.877 2.316h-2.175l4.22-10.524h2.436Zm-2.971 6.46h3.409l-1.688-4.436h-.032l-1.689 4.436ZM488.657 47.004v1.084h.032c.406-.826 1.121-1.28 2.045-1.28 1.039 0 1.818.454 2.305 1.36.487-.874 1.38-1.36 2.516-1.36 1.98 0 2.938 1.102 2.938 3.353v4.841h-2.013v-4.501c0-1.312-.455-1.943-1.396-1.943-.941 0-1.445.696-1.445 2.008v4.436h-2.013v-4.501c0-1.328-.438-1.943-1.396-1.943s-1.445.712-1.445 2.008v4.436h-2.013v-7.998h1.885ZM502.195 51.65c-1.087-.324-2.142-.907-2.142-2.364 0-1.457 1.233-2.477 3.068-2.477 1.234 0 2.191.436 2.727 1.246l-1.152 1.15c-.406-.502-.958-.778-1.558-.778-.681 0-1.104.307-1.104.793 0 .648.681.76 1.672 1.069 1.087.323 2.142.906 2.142 2.363 0 1.457-1.298 2.542-3.214 2.542-1.249 0-2.256-.437-2.841-1.263l1.153-1.15c.438.518 1.023.794 1.672.794.78 0 1.25-.324 1.25-.859 0-.647-.682-.76-1.673-1.068v.002ZM507.974 52.136V48.67h-1.38v-1.668h.73c.666 0 .925-.26.925-.923v-1.246h1.721v2.17h1.947v1.668h-1.947v3.465c0 .777.405 1.214 1.152 1.214.227 0 .503-.032.665-.08v1.683c-.243.065-.698.113-1.055.113-1.818 0-2.759-1.003-2.759-2.93l.001-.001ZM512.907 51.002c0-2.477 1.673-4.193 4.059-4.193 2.385 0 4.042 1.7 4.042 4.144 0 .194-.032.502-.066.713h-6.005c.146 1.084 1.071 1.813 2.256 1.813.877 0 1.639-.324 2.142-.907l1.218 1.183c-.731.94-1.997 1.441-3.458 1.441-2.467 0-4.189-1.732-4.189-4.194h.001Zm2.03-.81h4.042c-.131-1.052-.942-1.764-2.029-1.764-1.088 0-1.899.712-2.013 1.765ZM524.579 47.003v1.328h.032c.39-.907 1.104-1.393 2.045-1.393.243 0 .584.032.714.081v1.911c-.227-.065-.665-.113-.99-.113-1.023 0-1.688.778-1.688 1.975v4.21h-2.013v-7.999h1.9ZM527.939 51.035c0-2.477 1.64-4.225 3.961-4.225 1.071 0 1.948.47 2.5 1.327h.032v-4.873h2.013v11.738h-1.898v-1.246h-.032c-.519.906-1.493 1.441-2.614 1.441-2.321 0-3.961-1.732-3.961-4.16l-.001-.002Zm6.493-.032c0-1.44-.892-2.396-2.207-2.396s-2.223.971-2.223 2.396c0 1.425.892 2.397 2.223 2.397s2.207-.956 2.207-2.397ZM537.987 52.718c0-1.538 1.282-2.46 3.424-2.477l1.559-.016v-.26c0-.939-.601-1.424-1.689-1.424-.714 0-1.348.275-1.785.777l-1.218-1.182c.699-.859 1.818-1.327 3.198-1.327 2.142 0 3.506 1.165 3.506 3.027v3.173c0 .292.13.42.454.42h.147V55h-.942c-.763 0-1.283-.356-1.445-.94h-.032c-.503.73-1.331 1.134-2.338 1.134-1.688 0-2.84-1.004-2.84-2.478l.001.002Zm4.983-.696v-.454l-1.331.016c-1.055.016-1.623.389-1.623 1.084 0 .616.487 1.053 1.168 1.053 1.055 0 1.786-.697 1.786-1.7ZM549.041 47.004v1.084h.031c.407-.826 1.121-1.28 2.045-1.28 1.04 0 1.818.454 2.305 1.36.487-.874 1.38-1.36 2.516-1.36 1.98 0 2.938 1.102 2.938 3.353v4.841h-2.013v-4.501c0-1.312-.455-1.943-1.395-1.943-.942 0-1.446.696-1.446 2.008v4.436h-2.013v-4.501c0-1.328-.438-1.943-1.395-1.943-.958 0-1.446.712-1.446 2.008v4.436h-2.012v-7.998h1.885ZM461 55.001l3.006-2.998L461 49.005l2.004-2 3.006 3 3.006-3 2.004 2-3.006 2.998 3.006 2.998-2.004 2-3.006-2.999L463.004 57 461 55.001ZM461 43.009l3.006-2.999L461 37.012l2.004-1.999 3.006 2.998 3.006-2.998 2.004 1.999-3.006 2.998 3.006 2.999-2.004 1.999-3.006-2.999-3.006 2.999-2.004-2ZM461 30.995l3.006-2.998L461 25 463.004 23l3.006 2.998L469.016 23l2.004 1.999-3.006 2.998 3.006 2.998-2.004 2-3.006-2.999-3.005 2.998L461 30.996Z"/>
  </g>
  <defs>
    <clipPath id="a">
      <path fill="#fff" d="M13.5 12h105v56h-105z"/>
    </clipPath>
    <clipPath id="b">
      <path fill="#fff" d="M165.053 8h97.894v64h-97.894z"/>
    </clipPath>
    <clipPath id="c">
      <path fill="#fff" d="M461 23h98v34h-98z"/>
    </clipPath>
  </defs>
</svg>
