<svg width="474" height="72" fill="none" xmlns="http://www.w3.org/2000/svg"><path d="m8.112 5.976-.16 1.296H4.896V17h-1.52V7.272H.24V5.976h7.872Zm7.167 6.56c0 .245-.011.496-.032.752H9.87c.064.928.298 1.61.704 2.048.405.437.928.656 1.568.656.405 0 .778-.059 1.12-.176a4.513 4.513 0 0 0 1.072-.56l.64.88c-.896.704-1.878 1.056-2.944 1.056-1.174 0-2.091-.384-2.752-1.152-.651-.768-.976-1.824-.976-3.168 0-.875.138-1.648.416-2.32.288-.683.693-1.216 1.216-1.6.533-.384 1.157-.576 1.872-.576 1.12 0 1.978.368 2.576 1.104.597.736.896 1.755.896 3.056Zm-1.456-.432c0-.832-.166-1.467-.496-1.904-.331-.437-.827-.656-1.488-.656-1.206 0-1.862.885-1.968 2.656h3.952v-.096Zm6.898.384L23.649 17h-1.776l-2.064-3.568L17.713 17h-1.664l2.944-4.448-2.608-3.984h1.728l1.76 3.088 1.776-3.088h1.664l-2.592 3.92Zm8.79 4.128a3.238 3.238 0 0 1-1.889.576c-.714 0-1.274-.203-1.68-.608-.394-.416-.592-1.013-.592-1.792V9.704h-1.472V8.568h1.472V6.664l1.472-.176v2.08h2l-.16 1.136h-1.84v5.024c0 .437.075.757.224.96.16.192.422.288.784.288.331 0 .704-.112 1.12-.336l.56.976Zm7.231-8.048V17H35.27V8.568h1.472ZM35.99 4.52c.31 0 .56.096.752.288a.977.977 0 0 1 .288.72.977.977 0 0 1-.288.72c-.192.181-.443.272-.752.272-.299 0-.544-.09-.736-.272a.977.977 0 0 1-.288-.72c0-.288.096-.528.288-.72a.997.997 0 0 1 .736-.288Zm7.764 3.856c.768 0 1.365.23 1.792.688.437.459.656 1.088.656 1.888V17H44.73v-5.84c0-.597-.112-1.019-.336-1.264-.224-.245-.555-.368-.992-.368a1.92 1.92 0 0 0-1.184.384c-.342.256-.662.624-.96 1.104V17h-1.472V8.568h1.264l.128 1.248a3.36 3.36 0 0 1 1.104-1.056 2.915 2.915 0 0 1 1.472-.384Zm9.279 0c1.077 0 1.866.384 2.368 1.152.501.768.752 1.85.752 3.248 0 1.323-.288 2.39-.864 3.2-.576.81-1.392 1.216-2.448 1.216-.939 0-1.675-.32-2.208-.96v4l-1.472.176V8.568h1.264l.112 1.136a3.15 3.15 0 0 1 1.12-.976 2.87 2.87 0 0 1 1.376-.352Zm-.544 7.616c1.386 0 2.08-1.072 2.08-3.216 0-2.155-.635-3.232-1.904-3.232-.416 0-.795.123-1.136.368-.342.245-.64.56-.896.944v4.112c.213.33.48.587.8.768.32.17.672.256 1.056.256ZM64.933 17h-1.264l-.112-1.312c-.32.523-.688.907-1.104 1.152-.416.235-.923.352-1.52.352-.736 0-1.312-.224-1.728-.672-.416-.448-.624-1.083-.624-1.904V8.568h1.472v5.888c0 .576.101.987.304 1.232.202.235.533.352.992.352.821 0 1.525-.485 2.112-1.456V8.568h1.472V17Zm7.296-.384a3.238 3.238 0 0 1-1.888.576c-.715 0-1.274-.203-1.68-.608-.395-.416-.592-1.013-.592-1.792V9.704h-1.472V8.568h1.472V6.664l1.472-.176v2.08h2l-.16 1.136h-1.84v5.024c0 .437.075.757.224.96.16.192.421.288.784.288.33 0 .704-.112 1.12-.336l.56.976Z" fill="#1C1C1C"/><rect x="1" y="33" width="472" height="38" rx="1" fill="#fff"/><path d="M15.12 45.976V57H13.6V45.976h1.52Zm7.087 2.4c.768 0 1.365.23 1.792.688.437.459.656 1.088.656 1.888V57h-1.472v-5.84c0-.597-.112-1.019-.336-1.264-.224-.245-.555-.368-.992-.368a1.92 1.92 0 0 0-1.184.384c-.342.256-.662.624-.96 1.104V57h-1.472v-8.432h1.264l.128 1.248c.298-.448.666-.8 1.104-1.056a2.915 2.915 0 0 1 1.472-.384Zm9.279 0c1.077 0 1.866.384 2.368 1.152.501.768.752 1.85.752 3.248 0 1.323-.288 2.39-.864 3.2-.576.81-1.392 1.216-2.448 1.216-.939 0-1.675-.32-2.208-.96v4l-1.472.176v-11.84h1.264l.112 1.136c.31-.427.682-.752 1.12-.976a2.87 2.87 0 0 1 1.376-.352Zm-.544 7.616c1.386 0 2.08-1.072 2.08-3.216 0-2.155-.635-3.232-1.904-3.232-.416 0-.795.123-1.136.368-.342.245-.64.56-.896.944v4.112c.213.33.48.587.8.768.32.17.672.256 1.056.256ZM43.386 57h-1.264l-.112-1.312c-.32.523-.688.907-1.104 1.152-.416.235-.923.352-1.52.352-.736 0-1.312-.224-1.728-.672-.416-.448-.624-1.083-.624-1.904v-6.048h1.472v5.888c0 .576.101.987.304 1.232.202.235.533.352.992.352.821 0 1.525-.485 2.112-1.456v-6.016h1.472V57Zm7.296-.384a3.238 3.238 0 0 1-1.888.576c-.714 0-1.274-.203-1.68-.608-.394-.416-.592-1.013-.592-1.792v-5.088H45.05v-1.136h1.472v-1.904l1.472-.176v2.08h2l-.16 1.136h-1.84v5.024c0 .437.075.757.224.96.16.192.422.288.784.288.33 0 .704-.112 1.12-.336l.56.976Zm10.016 0a3.238 3.238 0 0 1-1.888.576c-.715 0-1.275-.203-1.68-.608-.395-.416-.592-1.013-.592-1.792v-5.088h-1.472v-1.136h1.472v-1.904l1.472-.176v2.08h2l-.16 1.136h-1.84v5.024c0 .437.075.757.224.96.16.192.421.288.784.288.33 0 .704-.112 1.12-.336l.56.976Zm7.659-4.08c0 .245-.01.496-.032.752h-5.376c.064.928.298 1.61.704 2.048.405.437.928.656 1.568.656.405 0 .778-.059 1.12-.176a4.517 4.517 0 0 0 1.072-.56l.64.88c-.896.704-1.878 1.056-2.944 1.056-1.174 0-2.09-.384-2.752-1.152-.65-.768-.976-1.824-.976-3.168 0-.875.138-1.648.416-2.32.288-.683.693-1.216 1.216-1.6.533-.384 1.157-.576 1.872-.576 1.12 0 1.978.368 2.576 1.104.597.736.896 1.755.896 3.056Zm-1.456-.432c0-.832-.166-1.467-.496-1.904-.33-.437-.827-.656-1.488-.656-1.206 0-1.862.885-1.968 2.656H66.9v-.096Zm6.898.384L76.727 57H74.95l-2.064-3.568L70.79 57h-1.664l2.944-4.448-2.608-3.984h1.728l1.76 3.088 1.776-3.088h1.664l-2.592 3.92Zm8.79 4.128a3.238 3.238 0 0 1-1.888.576c-.715 0-1.275-.203-1.68-.608-.395-.416-.593-1.013-.593-1.792v-5.088h-1.471v-1.136h1.472v-1.904l1.471-.176v2.08h2l-.16 1.136H79.9v5.024c0 .437.075.757.224.96.16.192.422.288.785.288.33 0 .703-.112 1.12-.336l.56.976Z" fill="#888"/><rect x="1" y="33" width="472" height="38" rx="1" stroke="#646464" stroke-width="2"/></svg>