<svg width="65" height="24" fill="none" xmlns="http://www.w3.org/2000/svg"><path d="M0 2a2 2 0 0 1 2-2h61a2 2 0 0 1 2 2v20a2 2 0 0 1-2 2H2a2 2 0 0 1-2-2V2Z" fill="#fff"/><path d="m10.112 5.976-.16 1.296H6.896V17h-1.52V7.272H2.24V5.976h7.872Zm7.167 6.56c0 .245-.011.496-.032.752H11.87c.064.928.298 1.61.704 2.048.405.437.928.656 1.568.656.405 0 .778-.059 1.12-.176a4.513 4.513 0 0 0 1.072-.56l.64.88c-.896.704-1.878 1.056-2.944 1.056-1.174 0-2.091-.384-2.752-1.152-.651-.768-.976-1.824-.976-3.168 0-.875.138-1.648.416-2.32.288-.683.693-1.216 1.216-1.6.533-.384 1.157-.576 1.872-.576 1.12 0 1.978.368 2.576 1.104.597.736.896 1.755.896 3.056Zm-1.456-.432c0-.832-.166-1.467-.496-1.904-.331-.437-.827-.656-1.488-.656-1.206 0-1.862.885-1.968 2.656h3.952v-.096Zm6.898.384L25.649 17h-1.776l-2.064-3.568L19.713 17h-1.664l2.944-4.448-2.608-3.984h1.728l1.76 3.088 1.776-3.088h1.664l-2.592 3.92Zm8.79 4.128a3.238 3.238 0 0 1-1.889.576c-.714 0-1.274-.203-1.68-.608-.394-.416-.592-1.013-.592-1.792V9.704h-1.472V8.568h1.472V6.664l1.472-.176v2.08h2l-.16 1.136h-1.84v5.024c0 .437.075.757.224.96.16.192.422.288.784.288.331 0 .704-.112 1.12-.336l.56.976Zm7.439.576c-.544 0-.976-.16-1.296-.48-.31-.33-.464-.79-.464-1.376V5.176L38.662 5v10.304c0 .235.037.405.112.512.085.107.224.16.416.16.203 0 .384-.032.544-.096l.384 1.024a2.399 2.399 0 0 1-1.168.288Zm4.48-8.624V17h-1.472V8.568h1.471Zm-.752-4.048c.309 0 .56.096.752.288a.977.977 0 0 1 .288.72.977.977 0 0 1-.289.72c-.192.181-.442.272-.752.272-.298 0-.544-.09-.736-.272a.977.977 0 0 1-.288-.72c0-.288.096-.528.288-.72a.997.997 0 0 1 .736-.288Zm7.763 3.856c.768 0 1.365.23 1.792.688.438.459.656 1.088.656 1.888V17h-1.472v-5.84c0-.597-.112-1.019-.336-1.264-.224-.245-.555-.368-.992-.368a1.92 1.92 0 0 0-1.184.384c-.341.256-.661.624-.96 1.104V17h-1.472V8.568h1.264l.128 1.248A3.36 3.36 0 0 1 48.97 8.76a2.915 2.915 0 0 1 1.472-.384ZM57.321 5v12h-1.473V5.176L57.32 5Zm4.847 3.568-3.104 3.728L62.52 17h-1.76l-3.344-4.608 3.104-3.824h1.648ZM2 18.6h60.52v.8H2v-.8Z" fill="#005F89"/></svg>