<svg width="960" height="540" viewBox="0 0 960 540" fill="none" xmlns="http://www.w3.org/2000/svg">
<symbol id="component-illustration">
<rect width="960" height="540" fill="var(--component-illustration-background-color, white)"/>
<rect width="960" height="540" fill="var(--component-illustration-background-color, white)"/>
<rect width="2" height="540" transform="translate(69)" fill="var(--component-illustration-grid-color, #eee)"/>
<rect width="2" height="540" transform="translate(151)" fill="var(--component-illustration-grid-color, #eee)"/>
<rect width="2" height="540" transform="translate(233)" fill="var(--component-illustration-grid-color, #eee)"/>
<rect width="2" height="540" transform="translate(315)" fill="var(--component-illustration-grid-color, #eee)"/>
<rect width="2" height="540" transform="translate(397)" fill="var(--component-illustration-grid-color, #eee)"/>
<rect width="2" height="540" transform="translate(479)" fill="var(--component-illustration-grid-color, #eee)"/>
<rect width="2" height="540" transform="translate(561)" fill="var(--component-illustration-grid-color, #eee)"/>
<rect width="2" height="540" transform="translate(643)" fill="var(--component-illustration-grid-color, #eee)"/>
<rect width="2" height="540" transform="translate(725)" fill="var(--component-illustration-grid-color, #eee)"/>
<rect width="2" height="540" transform="translate(807)" fill="var(--component-illustration-grid-color, #eee)"/>
<rect width="2" height="540" transform="translate(889)" fill="var(--component-illustration-grid-color, #eee)"/>
<rect width="960" height="2" transform="translate(0 64)" fill="var(--component-illustration-grid-color, #eee)"/>
<rect width="960" height="2" transform="translate(0 146)" fill="var(--component-illustration-grid-color, #eee)"/>
<rect width="960" height="2" transform="translate(0 228)" fill="var(--component-illustration-grid-color, #eee)"/>
<rect width="960" height="2" transform="translate(0 310)" fill="var(--component-illustration-grid-color, #eee)"/>
<rect width="960" height="2" transform="translate(0 392)" fill="var(--component-illustration-grid-color, #eee)"/>
<rect width="960" height="2" transform="translate(0 474)" fill="var(--component-illustration-grid-color, #eee)"/>
<rect x="254" y="167" width="42" height="42" fill="var(--component-illustration-color, #666)"/>
<rect x="315" y="180" width="248" height="16" rx="8" fill="var(--component-illustration-color, #666)"/>
<path fill-rule="evenodd" clip-rule="evenodd" d="M290.237 178.013C290.921 178.696 290.921 179.804 290.237 180.487L272.737 197.987C272.054 198.671 270.946 198.671 270.263 197.987L261.513 189.237C260.829 188.554 260.829 187.446 261.513 186.763C262.196 186.079 263.304 186.079 263.987 186.763L271.5 194.275L287.763 178.013C288.446 177.329 289.554 177.329 290.237 178.013Z" fill="var(--component-illustration-background-color, white)"/>
<rect x="256" y="251" width="38" height="38" stroke="var(--component-illustration-color, #666)" stroke-width="4"/>
<rect x="256" y="251" width="38" height="38" stroke="var(--component-illustration-color, #666)" stroke-width="4"/>
<rect x="315" y="262" width="330" height="16" rx="8" fill="var(--component-illustration-color, #666)"/>
<rect x="256" y="333" width="38" height="38" stroke="var(--component-illustration-color, #666)" stroke-width="4"/>
<rect x="256" y="333" width="38" height="38" stroke="var(--component-illustration-color, #666)" stroke-width="4"/>
<rect x="315" y="344" width="248" height="16" rx="8" fill="var(--component-illustration-color, #666)"/>
</symbol>
<use href="#component-illustration"/>
</svg>
