<svg width="960" height="540" viewBox="0 0 960 540" fill="none" xmlns="http://www.w3.org/2000/svg">
<symbol id="component-illustration">
<rect width="960" height="540" fill="var(--component-illustration-background-color, white)"/>
<rect width="960" height="540" fill="var(--component-illustration-background-color, white)"/>
<rect width="2" height="540" transform="translate(69)" fill="var(--component-illustration-grid-color, #eee)"/>
<rect width="2" height="540" transform="translate(151)" fill="var(--component-illustration-grid-color, #eee)"/>
<rect width="2" height="540" transform="translate(233)" fill="var(--component-illustration-grid-color, #eee)"/>
<rect width="2" height="540" transform="translate(315)" fill="var(--component-illustration-grid-color, #eee)"/>
<rect width="2" height="540" transform="translate(397)" fill="var(--component-illustration-grid-color, #eee)"/>
<rect width="2" height="540" transform="translate(479)" fill="var(--component-illustration-grid-color, #eee)"/>
<rect width="2" height="540" transform="translate(561)" fill="var(--component-illustration-grid-color, #eee)"/>
<rect width="2" height="540" transform="translate(643)" fill="var(--component-illustration-grid-color, #eee)"/>
<rect width="2" height="540" transform="translate(725)" fill="var(--component-illustration-grid-color, #eee)"/>
<rect width="2" height="540" transform="translate(807)" fill="var(--component-illustration-grid-color, #eee)"/>
<rect width="2" height="540" transform="translate(889)" fill="var(--component-illustration-grid-color, #eee)"/>
<rect width="960" height="2" transform="translate(0 64)" fill="var(--component-illustration-grid-color, #eee)"/>
<rect width="960" height="2" transform="translate(0 146)" fill="var(--component-illustration-grid-color, #eee)"/>
<rect width="960" height="2" transform="translate(0 228)" fill="var(--component-illustration-grid-color, #eee)"/>
<rect width="960" height="2" transform="translate(0 310)" fill="var(--component-illustration-grid-color, #eee)"/>
<rect width="960" height="2" transform="translate(0 392)" fill="var(--component-illustration-grid-color, #eee)"/>
<rect width="960" height="2" transform="translate(0 474)" fill="var(--component-illustration-grid-color, #eee)"/>
<path fill-rule="evenodd" clip-rule="evenodd" d="M472 256C472 253.791 473.791 252 476 252H484C486.209 252 488 253.791 488 256V260H493.977C493.991 260 494.005 260 494.019 260H496C497.105 260 498 260.895 498 262C498 263.105 497.105 264 496 264H495.84L493.999 286.091C493.95 289.363 491.283 292 488 292H472C468.717 292 466.05 289.363 466.001 286.091L464.16 264H464C462.895 264 462 263.105 462 262C462 260.895 462.895 260 464 260H465.981C465.995 260 466.009 260 466.023 260H472V256ZM468.174 264L469.993 285.834C469.998 285.889 470 285.945 470 286C470 287.105 470.895 288 472 288H488C489.105 288 490 287.105 490 286C490 285.945 490.002 285.889 490.007 285.834L491.826 264H468.174ZM484 260H476V256H484V260ZM476 268C477.105 268 478 268.895 478 270V282C478 283.105 477.105 284 476 284C474.895 284 474 283.105 474 282V270C474 268.895 474.895 268 476 268ZM484 268C485.105 268 486 268.895 486 270V282C486 283.105 485.105 284 484 284C482.895 284 482 283.105 482 282V270C482 268.895 482.895 268 484 268Z" fill="var(--component-illustration-color, #666)"/>
<rect x="440" y="232" width="80" height="80" rx="14" stroke="var(--component-illustration-color, #666)" stroke-width="4"/>
</symbol>
<use href="#component-illustration"/>
</svg>
