<svg width="960" height="540" viewBox="0 0 960 540" fill="none" xmlns="http://www.w3.org/2000/svg">
<symbol id="component-illustration">
<g fill="var(--component-illustration-background-color, white)">
    <rect width="960" height="540"/>
    <rect width="2" height="540" transform="translate(69)"/>
</g>
<g fill="var(--component-illustration-grid-color, #eee)">
    <rect width="2" height="540" transform="translate(151)"/>
    <rect width="2" height="540" transform="translate(233)"/>
    <rect width="2" height="540" transform="translate(315)"/>
    <rect width="2" height="540" transform="translate(397)"/>
    <rect width="2" height="540" transform="translate(479)"/>
    <rect width="2" height="540" transform="translate(561)"/>
    <rect width="2" height="540" transform="translate(643)"/>
    <rect width="2" height="540" transform="translate(725)"/>
    <rect width="2" height="540" transform="translate(807)"/>
    <rect width="2" height="540" transform="translate(889)"/>
    <rect width="960" height="2" transform="translate(0 64)"/>
    <rect width="960" height="2" transform="translate(0 146)"/>
    <rect width="960" height="2" transform="translate(0 228)"/>
    <rect width="960" height="2" transform="translate(0 310)"/>
    <rect width="960" height="2" transform="translate(0 392)"/>
    <rect width="960" height="2" transform="translate(0 474)"/>
</g>
<rect x="153" y="66" width="654" height="408" stroke="var(--component-illustration-color, #666)" stroke-width="4" stroke-dasharray="8 8"/>
<circle cx="275" cy="270" r="19" stroke="var(--component-illustration-color, #666)" stroke-width="4"/>
<circle cx="275" cy="188" r="19" stroke="var(--component-illustration-color, #666)" stroke-width="4"/>
<circle cx="275" cy="352" r="19" stroke="var(--component-illustration-color, #666)" stroke-width="4"/>
<rect x="315" y="262" width="320" height="16" rx="8" fill="var(--component-illustration-color, #666)"/>
<rect x="315" y="180" width="240" height="16" rx="8" fill="var(--component-illustration-color, #666)"/>
<rect x="315" y="344" width="240" height="16" rx="8" fill="var(--component-illustration-color, #666)"/>
<circle cx="9" cy="9" r="9" transform="matrix(-1 0 0 1 284 179)" fill="var(--component-illustration-color, #666)"/>
<rect x="231" y="52" width="252" height="28" rx="14" fill="var(--component-illustration-color, #666)"/>
<rect x="231" y="52" width="252" height="28" rx="14" stroke="var(--component-illustration-background-color, white)" stroke-width="4"/>
<path d="M189.898 139.809L254.225 96.678M254.126 95.5403C247.724 97.8382 240.626 97.3682 235.004 101.138M254.106 96.6894C250.903 99.8017 249.271 103.726 246.612 107.148C245.219 108.941 243.869 110.847 243.267 112.977" stroke="var(--component-illustration-color, #666)" stroke-width="4" stroke-linecap="round" stroke-linejoin="round"/>
</symbol>
<use href="#component-illustration"/>
</svg>
