<svg width="960" height="540" viewBox="0 0 960 540" fill="none" xmlns="http://www.w3.org/2000/svg">
<symbol id="component-illustration">
<g clip-path="url(#clip0_1919_3537)">
<rect width="960" height="540" fill="var(--component-illustration-background-color, white)"/>
<g clip-path="url(#clip1_1919_3537)">
<rect width="960" height="540" fill="var(--component-illustration-background-color, white)"/>
<rect width="2" height="540" transform="translate(69)" fill="var(--component-illustration-grid-color, #EEE)"/>
<rect width="2" height="540" transform="translate(151)" fill="var(--component-illustration-grid-color, #EEE)"/>
<rect width="2" height="540" transform="translate(233)" fill="var(--component-illustration-grid-color, #EEE)"/>
<rect width="2" height="540" transform="translate(315)" fill="var(--component-illustration-grid-color, #EEE)"/>
<rect width="2" height="540" transform="translate(397)" fill="var(--component-illustration-grid-color, #EEE)"/>
<rect width="2" height="540" transform="translate(479)" fill="var(--component-illustration-grid-color, #EEE)"/>
<rect width="2" height="540" transform="translate(561)" fill="var(--component-illustration-grid-color, #EEE)"/>
<rect width="2" height="540" transform="translate(643)" fill="var(--component-illustration-grid-color, #EEE)"/>
<rect width="2" height="540" transform="translate(725)" fill="var(--component-illustration-grid-color, #EEE)"/>
<rect width="2" height="540" transform="translate(807)" fill="var(--component-illustration-grid-color, #EEE)"/>
<rect width="2" height="540" transform="translate(889)" fill="var(--component-illustration-grid-color, #EEE)"/>
<rect width="960" height="2" transform="translate(0 64)" fill="var(--component-illustration-grid-color, #EEE)"/>
<rect width="960" height="2" transform="translate(0 146)" fill="var(--component-illustration-grid-color, #EEE)"/>
<rect width="960" height="2" transform="translate(0 228)" fill="var(--component-illustration-grid-color, #EEE)"/>
<rect width="960" height="2" transform="translate(0 310)" fill="var(--component-illustration-grid-color, #EEE)"/>
<rect width="960" height="2" transform="translate(0 392)" fill="var(--component-illustration-grid-color, #EEE)"/>
<rect width="960" height="2" transform="translate(0 474)" fill="var(--component-illustration-grid-color, #EEE)"/>
</g>
<rect x="235" y="174" width="490" height="162" rx="2" stroke="var(--component-illustration-color, #666)" stroke-width="4"/>
<rect x="233" y="132" width="330" height="16" rx="8" fill="var(--component-illustration-color, #666)"/>
<rect x="233" y="92" width="248" height="24" rx="12" fill="var(--component-illustration-color, #666)"/>
<path d="M125 410L202.449 410M203 409C196.403 407.343 190.769 403 184 403M202.343 409.943C197.95 410.744 194.408 413.095 190.295 414.456C188.139 415.169 185.956 416.001 184.27 417.435" stroke="var(--component-illustration-color, #666)" stroke-width="4" stroke-linecap="round" stroke-linejoin="round"/>
<path fill-rule="evenodd" clip-rule="evenodd" d="M267.513 360.488C268.164 361.139 268.164 362.194 267.513 362.845L250.846 379.512C250.196 380.163 249.14 380.163 248.489 379.512L240.156 371.179C239.505 370.528 239.505 369.472 240.156 368.821C240.807 368.171 241.862 368.171 242.513 368.821L249.668 375.976L265.156 360.488C265.807 359.837 266.862 359.837 267.513 360.488Z" fill="var(--component-illustration-color, #666)"/>
<rect x="281" y="362" width="336" height="16" rx="8" fill="var(--component-illustration-color, #666)"/>
<g clip-path="url(#clip2_1919_3537)">
<circle cx="253" cy="410" r="8" fill="var(--component-illustration-color, #666)"/>
</g>
<rect x="281" y="402" width="160" height="16" rx="8" fill="var(--component-illustration-color, #666)"/>
<path fill-rule="evenodd" clip-rule="evenodd" d="M267.513 440.488C268.164 441.139 268.164 442.194 267.513 442.845L250.846 459.512C250.196 460.163 249.14 460.163 248.489 459.512L240.156 451.179C239.505 450.528 239.505 449.472 240.156 448.821C240.807 448.171 241.862 448.171 242.513 448.821L249.668 455.976L265.156 440.488C265.807 439.837 266.862 439.837 267.513 440.488Z" fill="var(--component-illustration-color, #666)"/>
<rect x="281" y="442" width="242" height="16" rx="8" fill="var(--component-illustration-color, #666)"/>
</g>
<defs>
<clipPath id="clip0_1919_3537">
<rect width="960" height="540" fill="var(--component-illustration-background-color, white)"/>
</clipPath>
<clipPath id="clip1_1919_3537">
<rect width="960" height="540" fill="var(--component-illustration-background-color, white)"/>
</clipPath>
<clipPath id="clip2_1919_3537">
<rect x="245" y="402" width="16" height="16" rx="8" fill="var(--component-illustration-background-color, white)"/>
</clipPath>
</defs>
</symbol>
<use href="#component-illustration"/>
</svg>
