<svg width="960" height="540" viewBox="0 0 960 540" fill="none" xmlns="http://www.w3.org/2000/svg">
<symbol id="component-illustration" viewBox="0 0 960 540">
<rect width="960" height="540" fill="var(--component-illustration-background-color, white)"/>
<rect width="960" height="540" fill="var(--component-illustration-background-color, white)"/>
<rect width="2" height="540" transform="translate(69)" fill="var(--component-illustration-grid-color, #eee)"/>
<rect width="2" height="540" transform="translate(151)" fill="var(--component-illustration-grid-color, #eee)"/>
<rect width="2" height="540" transform="translate(233)" fill="var(--component-illustration-grid-color, #eee)"/>
<rect width="2" height="540" transform="translate(315)" fill="var(--component-illustration-grid-color, #eee)"/>
<rect width="2" height="540" transform="translate(397)" fill="var(--component-illustration-grid-color, #eee)"/>
<rect width="2" height="540" transform="translate(479)" fill="var(--component-illustration-grid-color, #eee)"/>
<rect width="2" height="540" transform="translate(561)" fill="var(--component-illustration-grid-color, #eee)"/>
<rect width="2" height="540" transform="translate(643)" fill="var(--component-illustration-grid-color, #eee)"/>
<rect width="2" height="540" transform="translate(725)" fill="var(--component-illustration-grid-color, #eee)"/>
<rect width="2" height="540" transform="translate(807)" fill="var(--component-illustration-grid-color, #eee)"/>
<rect width="2" height="540" transform="translate(889)" fill="var(--component-illustration-grid-color, #eee)"/>
<rect width="960" height="2" transform="translate(0 64)" fill="var(--component-illustration-grid-color, #eee)"/>
<rect width="960" height="2" transform="translate(0 146)" fill="var(--component-illustration-grid-color, #eee)"/>
<rect width="960" height="2" transform="translate(0 228)" fill="var(--component-illustration-grid-color, #eee)"/>
<rect width="960" height="2" transform="translate(0 310)" fill="var(--component-illustration-grid-color, #eee)"/>
<rect width="960" height="2" transform="translate(0 392)" fill="var(--component-illustration-grid-color, #eee)"/>
<rect width="960" height="2" transform="translate(0 474)" fill="var(--component-illustration-grid-color, #eee)"/>
<path d="M544.393 224.8C567.913 224.8 581.953 240.64 581.953 268.36C581.953 295.6 567.913 312.04 544.393 312.04C520.993 312.04 506.953 296.08 506.953 268.36C506.953 241.24 520.993 224.8 544.393 224.8ZM544.393 239.2C533.353 239.2 527.593 247.36 527.593 268.36C527.593 289.48 533.593 297.64 544.393 297.64C555.673 297.64 561.313 289.48 561.313 268.36C561.313 247.36 555.553 239.2 544.393 239.2Z" fill="var(--component-illustration-color, #666)"/>
<path d="M478.233 282.88C490.953 282.88 497.313 290.08 497.313 298C497.313 305.2 493.593 310.72 477.273 323.92H498.513L497.073 334.6H461.313V324.76C478.713 308.92 482.793 304.48 482.793 299.2C482.793 295.6 480.393 293.44 476.793 293.44C473.073 293.44 470.433 295 467.433 298.48L459.273 292.12C463.473 286.72 469.953 282.88 478.233 282.88Z" fill="var(--component-illustration-color, #666)"/>
<path d="M427.468 310V274.36H402.508V310H382.828V226.84H402.508V259H427.468V226.84H447.148V310H427.468Z" fill="var(--component-illustration-color, #666)"/>
<path d="M479.002 430L479.002 352.551M478.002 352C476.346 358.597 472.002 364.231 472.002 371M478.946 352.657C479.747 357.05 482.097 360.592 483.458 364.705C484.172 366.861 485.003 369.044 486.437 370.73" stroke="var(--component-illustration-color, #666)" stroke-width="4" stroke-linecap="round" stroke-linejoin="round"/>
</symbol>
<use href="#component-illustration"/>
</svg>
