<svg width="960" height="540" viewBox="0 0 960 540" fill="none" xmlns="http://www.w3.org/2000/svg">
 <!-- This ensures the component can be found in the ComponentIllustration component -->
  <symbol id="component-illustration" viewBox="0 0 960 540">
    
    <!-- Use variables to set backgroundcolors so they can change with the status of the component without modififying this file -->
        <g clip-path="url(#clip0_632_1855)">
        <rect width="960" height="540" fill="var(--component-illustration-background-color, white)"/>
        <g clip-path="url(#clip1_632_1855)">
        <rect width="960" height="540" fill="var(--component-illustration-background-color, white)"/>
        <rect width="2" height="540" transform="translate(69)" fill="var(--component-illustration-grid-color, #eee)"/>
        <rect width="2" height="540" transform="translate(151)" fill="var(--component-illustration-grid-color, #eee)"/>
        <rect width="2" height="540" transform="translate(233)" fill="var(--component-illustration-grid-color, #eee)"/>
        <rect width="2" height="540" transform="translate(315)" fill="var(--component-illustration-grid-color, #eee)"/>
        <rect width="2" height="540" transform="translate(397)" fill="var(--component-illustration-grid-color, #eee)"/>
        <rect width="2" height="540" transform="translate(479)" fill="var(--component-illustration-grid-color, #eee)"/>
        <rect width="2" height="540" transform="translate(561)" fill="var(--component-illustration-grid-color, #eee)"/>
        <rect width="2" height="540" transform="translate(643)" fill="var(--component-illustration-grid-color, #eee)"/>
        <rect width="2" height="540" transform="translate(725)" fill="var(--component-illustration-grid-color, #eee)"/>
        <rect width="2" height="540" transform="translate(807)" fill="var(--component-illustration-grid-color, #eee)"/>
        <rect width="2" height="540" transform="translate(889)" fill="var(--component-illustration-grid-color, #eee)"/>
        <rect width="960" height="2" transform="translate(0 64)" fill="var(--component-illustration-grid-color, #eee)"/>
        <rect width="960" height="2" transform="translate(0 146)" fill="var(--component-illustration-grid-color, #eee)"/>
        <rect width="960" height="2" transform="translate(0 228)" fill="var(--component-illustration-grid-color, #eee)"/>
        <rect width="960" height="2" transform="translate(0 310)" fill="var(--component-illustration-grid-color, #eee)"/>
        <rect width="960" height="2" transform="translate(0 392)" fill="var(--component-illustration-grid-color, #eee)"/>
        <rect width="960" height="2" transform="translate(0 474)" fill="var(--component-illustration-grid-color, #eee)"/>
        </g>
        <g clip-path="url(#clip2_632_1855)">
        <circle cx="480" cy="270" r="83" fill="var(--component-illustration-color, #666)"/>
        </g>
        <path fill-rule="evenodd" clip-rule="evenodd" d="M480 243.333C474.477 243.333 470 247.811 470 253.333C470 258.856 474.477 263.333 480 263.333C485.523 263.333 490 258.856 490 253.333C490 247.811 485.523 243.333 480 243.333ZM463.333 253.333C463.333 244.129 470.795 236.667 480 236.667C489.205 236.667 496.667 244.129 496.667 253.333C496.667 262.538 489.205 270 480 270C470.795 270 463.333 262.538 463.333 253.333ZM473.333 283.333C467.811 283.333 463.333 287.811 463.333 293.333V300C463.333 301.841 461.841 303.333 460 303.333C458.159 303.333 456.667 301.841 456.667 300V293.333C456.667 284.129 464.129 276.667 473.333 276.667H486.667C495.871 276.667 503.333 284.129 503.333 293.333V300C503.333 301.841 501.841 303.333 500 303.333C498.159 303.333 496.667 301.841 496.667 300V293.333C496.667 287.811 492.19 283.333 486.667 283.333H473.333Z" fill="var(--component-illustration-background-color, white)"/>
        </g>
        <defs>
        <clipPath id="clip0_632_1855">
        <rect width="960" height="540" fill="white"/>
        </clipPath>
        <clipPath id="clip1_632_1855">
        <rect width="960" height="540" fill="white"/>
        </clipPath>
        <clipPath id="clip2_632_1855">
        <rect x="397" y="187" width="166" height="166" rx="83" fill="white"/>
        </clipPath>
        </defs>
    </symbol>
    <use href="#component-illustration"/>
</svg>
