<svg width="960" height="540" viewBox="0 0 960 540" fill="none" xmlns="http://www.w3.org/2000/svg">
<symbol id="component-illustration" viewBox="0 0 960 540">
<g clip-path="url(#clip0_1318_2811)">
<rect width="960" height="540" fill="var(--component-illustration-background-color, white)"/>
<g clip-path="url(#clip1_1318_2811)">
<rect width="960" height="540" fill="var(--component-illustration-background-color, white)"/>
<rect width="2" height="540" transform="translate(69)" fill="var(--component-illustration-grid-color, #eee)"/>
<rect width="2" height="540" transform="translate(151)" fill="var(--component-illustration-grid-color, #eee)"/>
<rect width="2" height="540" transform="translate(233)" fill="var(--component-illustration-grid-color, #eee)"/>
<rect width="2" height="540" transform="translate(315)" fill="var(--component-illustration-grid-color, #eee)"/>
<rect width="2" height="540" transform="translate(397)" fill="var(--component-illustration-grid-color, #eee)"/>
<rect width="2" height="540" transform="translate(479)" fill="var(--component-illustration-grid-color, #eee)"/>
<rect width="2" height="540" transform="translate(561)" fill="var(--component-illustration-grid-color, #eee)"/>
<rect width="2" height="540" transform="translate(643)" fill="var(--component-illustration-grid-color, #eee)"/>
<rect width="2" height="540" transform="translate(725)" fill="var(--component-illustration-grid-color, #eee)"/>
<rect width="2" height="540" transform="translate(807)" fill="var(--component-illustration-grid-color, #eee)"/>
<rect width="2" height="540" transform="translate(889)" fill="var(--component-illustration-grid-color, #eee)"/>
<rect width="960" height="2" transform="translate(0 64)" fill="var(--component-illustration-grid-color, #eee)"/>
<rect width="960" height="2" transform="translate(0 146)" fill="var(--component-illustration-grid-color, #eee)"/>
<rect width="960" height="2" transform="translate(0 228)" fill="var(--component-illustration-grid-color, #eee)"/>
<rect width="960" height="2" transform="translate(0 310)" fill="var(--component-illustration-grid-color, #eee)"/>
<rect width="960" height="2" transform="translate(0 392)" fill="var(--component-illustration-grid-color, #eee)"/>
<rect width="960" height="2" transform="translate(0 474)" fill="var(--component-illustration-grid-color, #eee)"/>
</g>
<rect x="277" y="221" width="177" height="16" rx="8" fill="var(--component-illustration-color, #666)"/>
<rect x="469" y="221" width="77" height="16" rx="8" fill="var(--component-illustration-color, #666)"/>
<rect x="277" y="262" width="223" height="16" rx="8" fill="var(--component-illustration-color, #666)"/>
<rect x="513" y="262" width="118" height="16" rx="8" fill="var(--component-illustration-color, #666)"/>
<rect x="277" y="303" width="147" height="16" rx="8" fill="var(--component-illustration-color, #666)"/>
<rect x="237" y="150" width="488" height="242" stroke="var(--component-illustration-color, #666)" stroke-width="4"/>
<rect x="434" y="303" width="218" height="16" rx="8" fill="var(--component-illustration-color, #666)"/>
<path fill-rule="evenodd" clip-rule="evenodd" d="M263.586 339.586C264.367 338.805 265.633 338.805 266.414 339.586L278.414 351.586C279.195 352.367 279.195 353.633 278.414 354.414L266.414 366.414C265.633 367.195 264.367 367.195 263.586 366.414C262.805 365.633 262.805 364.367 263.586 363.586L274.172 353L263.586 342.414C262.805 341.633 262.805 340.367 263.586 339.586Z" fill="var(--component-illustration-color, #666)" stroke="var(--component-illustration-color, #666)" stroke-width="2" stroke-linecap="round" stroke-linejoin="round"/>
<path fill-rule="evenodd" clip-rule="evenodd" d="M277.414 171.586C278.195 172.367 278.195 173.633 277.414 174.414L266.828 185L277.414 195.586C278.195 196.367 278.195 197.633 277.414 198.414C276.633 199.195 275.367 199.195 274.586 198.414L262.586 186.414C261.805 185.633 261.805 184.367 262.586 183.586L274.586 171.586C275.367 170.805 276.633 170.805 277.414 171.586Z" fill="var(--component-illustration-color, #666)" stroke="var(--component-illustration-color, #666)" stroke-width="2" stroke-linecap="round" stroke-linejoin="round"/>
</g>
</symbol>
<use href="#component-illustration"/>
</svg>
