<svg width="960" height="540" viewBox="0 0 960 540" fill="none" xmlns="http://www.w3.org/2000/svg">
<symbol id="component-illustration">
    <g>
        <rect width="960" height="540" fill="var(--component-illustration-background-color, white)"/>
        <rect width="960" height="540" fill="var(--component-illustration-background-color, white)"/>
    </g>
    <g fill="var(--component-illustration-grid-color, #eee)">
        <rect width="2" height="540" transform="translate(69)"/>
        <rect width="2" height="540" transform="translate(151)"/>
        <rect width="2" height="540" transform="translate(233)"/>
        <rect width="2" height="540" transform="translate(315)"/>
        <rect width="2" height="540" transform="translate(397)"/>
        <rect width="2" height="540" transform="translate(479)"/>
        <rect width="2" height="540" transform="translate(561)"/>
        <rect width="2" height="540" transform="translate(643)"/>
        <rect width="2" height="540" transform="translate(725)"/>
        <rect width="2" height="540" transform="translate(807)"/>
        <rect width="2" height="540" transform="translate(889)"/>
        <rect width="960" height="2" transform="translate(0 64)"/>
        <rect width="960" height="2" transform="translate(0 146)"/>
        <rect width="960" height="2" transform="translate(0 228)"/>
        <rect width="960" height="2" transform="translate(0 310)"/>
        <rect width="960" height="2" transform="translate(0 392)"/>
        <rect width="960" height="2" transform="translate(0 474)"/>
    </g>
    <rect x="208" y="101" width="380" height="140" stroke="var(--component-illustration-color, #666)" stroke-width="4" stroke-dasharray="8 8"/>
    <g fill="var(--component-illustration-color, #666)">
        <rect x="233" y="270" width="494" height="16" rx="8" />
        <rect x="233" y="132" width="94" height="16" rx="8" />
        <rect x="233" y="311" width="494" height="16" rx="8" />
        <rect x="233" y="352" width="494" height="16" rx="8" />
        <rect x="233" y="393" width="330" height="16" rx="8" />
        <rect x="233" y="176" width="330" height="40" rx="20" />
    </g>   
</symbol>
<use href="#component-illustration"/>
</svg>
