<svg width="960" height="540" viewBox="0 0 960 540" fill="none" xmlns="http://www.w3.org/2000/svg">
<symbol id="component-illustration">
<g clip-path="url(#clip0_2076_3569)">
<rect width="960" height="540" fill="var(--ma-component-illustration-background-color, var(--ma-component-illustration-background-color, white))"/>
<g clip-path="url(#clip1_2076_3569)">
<rect width="960" height="540" fill="var(--ma-component-illustration-background-color, var(--ma-component-illustration-background-color, white))"/>
<rect width="2" height="540" transform="translate(69)" fill="var(--ma-component-illustration-grid-color, #EEE)"/>
<rect width="2" height="540" transform="translate(151)" fill="var(--ma-component-illustration-grid-color, #EEE)"/>
<rect width="2" height="540" transform="translate(233)" fill="var(--ma-component-illustration-grid-color, #EEE)"/>
<rect width="2" height="540" transform="translate(315)" fill="var(--ma-component-illustration-grid-color, #EEE)"/>
<rect width="2" height="540" transform="translate(397)" fill="var(--ma-component-illustration-grid-color, #EEE)"/>
<rect width="2" height="540" transform="translate(479)" fill="var(--ma-component-illustration-grid-color, #EEE)"/>
<rect width="2" height="540" transform="translate(561)" fill="var(--ma-component-illustration-grid-color, #EEE)"/>
<rect width="2" height="540" transform="translate(643)" fill="var(--ma-component-illustration-grid-color, #EEE)"/>
<rect width="2" height="540" transform="translate(725)" fill="var(--ma-component-illustration-grid-color, #EEE)"/>
<rect width="2" height="540" transform="translate(807)" fill="var(--ma-component-illustration-grid-color, #EEE)"/>
<rect width="2" height="540" transform="translate(889)" fill="var(--ma-component-illustration-grid-color, #EEE)"/>
<rect width="960" height="2" transform="translate(0 64)" fill="var(--ma-component-illustration-grid-color, #EEE)"/>
<rect width="960" height="2" transform="translate(0 146)" fill="var(--ma-component-illustration-grid-color, #EEE)"/>
<rect width="960" height="2" transform="translate(0 228)" fill="var(--ma-component-illustration-grid-color, #EEE)"/>
<rect width="960" height="2" transform="translate(0 310)" fill="var(--ma-component-illustration-grid-color, #EEE)"/>
<rect width="960" height="2" transform="translate(0 392)" fill="var(--ma-component-illustration-grid-color, #EEE)"/>
<rect width="960" height="2" transform="translate(0 474)" fill="var(--ma-component-illustration-grid-color, #EEE)"/>
</g>
<rect x="234" y="401" width="494" height="16" rx="8" fill="var(--ma-component-illustration-color, #666)"/>
<rect x="234" y="442" width="411" height="16" rx="8" fill="var(--ma-component-illustration-color, #666)"/>
<rect x="264" y="275" width="463" height="24" rx="12" fill="var(--ma-component-illustration-color, #666)"/>
<rect x="264" y="323" width="299" height="24" rx="12" fill="var(--ma-component-illustration-color, #666)"/>
<g clip-path="url(#clip2_2076_3569)">
<path d="M234 253L234 369" stroke="var(--ma-component-illustration-color, #666)" stroke-width="4" stroke-linecap="round"/>
</g>
<rect x="234" y="164" width="494" height="16" rx="8" fill="var(--ma-component-illustration-color, #666)"/>
<rect x="234" y="205" width="494" height="16" rx="8" fill="var(--ma-component-illustration-color, #666)"/>
<rect x="234" y="82" width="494" height="16" rx="8" fill="var(--ma-component-illustration-color, #666)"/>
<rect x="234" y="123" width="330" height="16" rx="8" fill="var(--ma-component-illustration-color, #666)"/>
<path d="M200 106C193.403 104.343 187.769 100 181 100M199.343 106.943C194.95 107.744 191.408 110.095 187.295 111.456C185.139 112.169 182.956 113.001 181.27 114.435" stroke="var(--ma-component-illustration-color, #666)" stroke-width="4" stroke-linecap="round" stroke-linejoin="round"/>
<path d="M200 311C193.403 309.343 187.769 305 181 305M199.343 311.943C194.95 312.744 191.408 315.095 187.295 316.456C185.139 317.169 182.956 318.001 181.27 319.435" stroke="var(--ma-component-illustration-color, #666)" stroke-width="4" stroke-linecap="round" stroke-linejoin="round"/>
<path d="M98 211.55C98 168.377 114.768 141.316 135.91 125.141C156.958 109.038 182.168 103.849 199.019 104.003L198.981 108.003C182.832 107.856 158.542 112.861 138.34 128.317C118.233 143.701 102 169.564 102 211.55C102 253.533 118.226 278.307 138.273 292.365C158.435 306.504 182.697 309.965 198.854 308.787L199.146 312.776C182.303 314.004 157.065 310.428 135.977 295.64C114.774 280.77 98 254.725 98 211.55Z" fill="var(--ma-component-illustration-color, #666)"/>
</g>
<defs>
<clipPath id="clip0_2076_3569">
<rect width="960" height="540" fill="var(--ma-component-illustration-background-color, white)"/>
</clipPath>
<clipPath id="clip1_2076_3569">
<rect width="960" height="540" fill="var(--ma-component-illustration-background-color, white)"/>
</clipPath>
<clipPath id="clip2_2076_3569">
<rect x="232" y="253" width="4" height="116" rx="2" fill="var(--ma-component-illustration-background-color, white)"/>
</clipPath>
</defs>
</symbol>
<use href="#component-illustration"/>
</svg>
