<svg width="960" height="540" viewBox="0 0 960 540" fill="none" xmlns="http://www.w3.org/2000/svg">
<symbol id="component-illustration">
<rect width="960" height="540" fill="var(--component-illustration-background-color, white)"/>

<rect width="960" height="540" fill="var(--component-illustration-background-color, white)"/>
<rect width="2" height="540" transform="translate(69)" fill="var(--component-illustration-grid-color, #eee)"/>
<rect width="2" height="540" transform="translate(151)" fill="var(--component-illustration-grid-color, #eee)"/>
<rect width="2" height="540" transform="translate(233)" fill="var(--component-illustration-grid-color, #eee)"/>
<rect width="2" height="540" transform="translate(315)" fill="var(--component-illustration-grid-color, #eee)"/>
<rect width="2" height="540" transform="translate(397)" fill="var(--component-illustration-grid-color, #eee)"/>
<rect width="2" height="540" transform="translate(479)" fill="var(--component-illustration-grid-color, #eee)"/>
<rect width="2" height="540" transform="translate(561)" fill="var(--component-illustration-grid-color, #eee)"/>
<rect width="2" height="540" transform="translate(643)" fill="var(--component-illustration-grid-color, #eee)"/>
<rect width="2" height="540" transform="translate(725)" fill="var(--component-illustration-grid-color, #eee)"/>
<rect width="2" height="540" transform="translate(807)" fill="var(--component-illustration-grid-color, #eee)"/>
<rect width="2" height="540" transform="translate(889)" fill="var(--component-illustration-grid-color, #eee)"/>
<rect width="960" height="2" transform="translate(0 64)" fill="var(--component-illustration-grid-color, #eee)"/>
<rect width="960" height="2" transform="translate(0 146)" fill="var(--component-illustration-grid-color, #eee)"/>
<rect width="960" height="2" transform="translate(0 228)" fill="var(--component-illustration-grid-color, #eee)"/>
<rect width="960" height="2" transform="translate(0 310)" fill="var(--component-illustration-grid-color, #eee)"/>
<rect width="960" height="2" transform="translate(0 392)" fill="var(--component-illustration-grid-color, #eee)"/>
<rect width="960" height="2" transform="translate(0 474)" fill="var(--component-illustration-grid-color, #eee)"/>
<rect x="233" y="262" width="84" height="16" rx="8" fill="var(--component-illustration-color, #666)"/>
<rect x="397" y="262" width="166" height="16" rx="8" fill="var(--component-illustration-color, #666)"/>
<rect x="643" y="262" width="84" height="16" rx="8" fill="var(--component-illustration-color, #666)"/>
<path fill-rule="evenodd" clip-rule="evenodd" d="M192.414 256.586C193.195 257.367 193.195 258.633 192.414 259.414L183.828 268H207C208.105 268 209 268.895 209 270C209 271.105 208.105 272 207 272H183.828L192.414 280.586C193.195 281.367 193.195 282.633 192.414 283.414C191.633 284.195 190.367 284.195 189.586 283.414L177.586 271.414C176.805 270.633 176.805 269.367 177.586 268.586L189.586 256.586C190.367 255.805 191.633 255.805 192.414 256.586Z" fill="var(--component-illustration-color, #666)"/>
<path fill-rule="evenodd" clip-rule="evenodd" d="M767.586 256.586C768.367 255.805 769.633 255.805 770.414 256.586L782.414 268.586C783.195 269.367 783.195 270.633 782.414 271.414L770.414 283.414C769.633 284.195 768.367 284.195 767.586 283.414C766.805 282.633 766.805 281.367 767.586 280.586L776.172 272H753C751.895 272 751 271.105 751 270C751 268.895 751.895 268 753 268H776.172L767.586 259.414C766.805 258.633 766.805 257.367 767.586 256.586Z" fill="var(--component-illustration-color, #666)"/>
</symbol>
<use href="#component-illustration"/>
</svg>
