<svg width="960" height="540" viewBox="0 0 960 540" fill="none" xmlns="http://www.w3.org/2000/svg">
<symbol id="component-illustration" viewBox="0 0 960 540">
<rect width="960" height="540" fill="var(--component-illustration-background-color, white)"/>
<rect width="960" height="540" fill="var(--component-illustration-background-color, white)"/>
<rect width="2" height="540" transform="translate(69)" fill="var(--component-illustration-grid-color, #eee)"/>
<rect width="2" height="540" transform="translate(151)" fill="var(--component-illustration-grid-color, #eee)"/>
<rect width="2" height="540" transform="translate(233)" fill="var(--component-illustration-grid-color, #eee)"/>
<rect width="2" height="540" transform="translate(315)" fill="var(--component-illustration-grid-color, #eee)"/>
<rect width="2" height="540" transform="translate(397)" fill="var(--component-illustration-grid-color, #eee)"/>
<rect width="2" height="540" transform="translate(479)" fill="var(--component-illustration-grid-color, #eee)"/>
<rect width="2" height="540" transform="translate(561)" fill="var(--component-illustration-grid-color, #eee)"/>
<rect width="2" height="540" transform="translate(643)" fill="var(--component-illustration-grid-color, #eee)"/>
<rect width="2" height="540" transform="translate(725)" fill="var(--component-illustration-grid-color, #eee)"/>
<rect width="2" height="540" transform="translate(807)" fill="var(--component-illustration-grid-color, #eee)"/>
<rect width="2" height="540" transform="translate(889)" fill="var(--component-illustration-grid-color, #eee)"/>
<rect width="960" height="2" transform="translate(0 64)" fill="var(--component-illustration-grid-color, #eee)"/>
<rect width="960" height="2" transform="translate(0 146)" fill="var(--component-illustration-grid-color, #eee)"/>
<rect width="960" height="2" transform="translate(0 228)" fill="var(--component-illustration-grid-color, #eee)"/>
<rect width="960" height="2" transform="translate(0 310)" fill="var(--component-illustration-grid-color, #eee)"/>
<rect width="960" height="2" transform="translate(0 392)" fill="var(--component-illustration-grid-color, #eee)"/>
<rect width="960" height="2" transform="translate(0 474)" fill="var(--component-illustration-grid-color, #eee)"/>
<path d="M650.093 219.76C662.813 219.76 669.173 226.96 669.173 234.88C669.173 242.08 665.453 247.6 649.133 260.8H670.373L668.933 271.48H633.173V261.64C650.573 245.8 654.653 241.36 654.653 236.08C654.653 232.48 652.253 230.32 648.653 230.32C644.933 230.32 642.293 231.88 639.293 235.36L631.133 229C635.333 223.6 641.813 219.76 650.093 219.76Z" fill="var(--component-illustration-color, #666)"/>
<path d="M604.427 244.24C613.307 244.24 620.147 246.88 626.267 252.04L618.107 263.32C614.027 260.2 610.307 258.76 605.987 258.76C597.827 258.76 593.147 264.28 593.147 278.56C593.147 292.72 598.187 297.04 605.747 297.04C610.307 297.04 613.427 295.6 617.987 292.72L626.267 304.48C620.387 309.16 613.547 312.04 604.787 312.04C585.227 312.04 573.227 298.84 573.227 278.68C573.227 258.4 585.347 244.24 604.427 244.24Z" fill="var(--component-illustration-color, #666)"/>
<path d="M546.253 244.24C556.093 244.24 562.812 251.32 562.812 263.44V310H543.853V266.68C543.853 259.96 541.452 258.16 538.572 258.16C534.492 258.16 531.612 261.16 528.852 266.44V310H509.893V266.68C509.893 259.96 507.372 258.16 504.492 258.16C500.532 258.16 497.532 261.16 494.772 266.44V310H475.812V246.28H492.252L493.692 253.84C498.492 247.48 504.373 244.24 512.173 244.24C519.252 244.24 524.653 247.84 527.173 254.32C532.213 247.6 538.093 244.24 546.253 244.24Z" fill="var(--component-illustration-color, #666)"/>
<path d="M383.547 265V250.24H434.187V265H383.547ZM383.547 290.2V275.44H434.187V290.2H383.547Z" fill="var(--component-illustration-color, #666)"/>
<path d="M344.945 226.84L342.905 240.88H313.625V260.8H339.185V274.6H313.625V295.84H344.945V310H293.945V226.84H344.945Z" fill="var(--component-illustration-color, #666)"/>
<path d="M650.998 124L650.998 201.449M651.998 202C653.654 195.403 657.998 189.769 657.998 183M651.054 201.343C650.253 196.95 647.903 193.408 646.542 189.295C645.828 187.139 644.997 184.956 643.562 183.27" stroke="var(--component-illustration-color, #666)" stroke-width="4" stroke-linecap="round" stroke-linejoin="round"/>
</symbol>
<use href="#component-illustration"/>
</svg>
