<svg width="960" height="540" viewBox="0 0 960 540" fill="var(--component-illustration-background-color, white)" xmlns="http://www.w3.org/2000/svg">
    <!-- This ensures the component can be found in the ComponentIllustration component -->
    <symbol id="component-illustration" viewBox="0 0 960 540">
        <!-- Use variables to set backgroundcolors so they can change with the status of the component without modififying this file -->
        <g fill="var(--component-illustration-background-color, white)">
          <rect width="960" height="540"/>
          <rect width="960" height="540"/>
        </g>
        <g fill="var(--component-illustration-grid-color, #eee)">
        <rect width="2" height="540" transform="translate(69)"/>
        <rect width="2" height="540" transform="translate(151)"/>
        <rect width="2" height="540" transform="translate(233)"/>
        <rect width="2" height="540" transform="translate(315)"/>
        <rect width="2" height="540" transform="translate(397)"/>
        <rect width="2" height="540" transform="translate(479)"/>
        <rect width="2" height="540" transform="translate(561)"/>
        <rect width="2" height="540" transform="translate(643)"/>
        <rect width="2" height="540" transform="translate(725)"/>
        <rect width="2" height="540" transform="translate(807)"/>
        <rect width="2" height="540" transform="translate(889)"/>
        <rect width="960" height="2" transform="translate(0 64)"/>
        <rect width="960" height="2" transform="translate(0 146)"/>
        <rect width="960" height="2" transform="translate(0 228)"/>
        <rect width="960" height="2" transform="translate(0 310)"/>
        <rect width="960" height="2" transform="translate(0 392)"/>
        <rect width="960" height="2" transform="translate(0 474)"/>
        </g>
        <g>
          <rect x="127" y="229" width="330" height="84" rx="16" fill="var(--component-illustration-color, #666)"/>
          <rect x="172" y="263" width="240" height="16" rx="8" fill="var(--component-illustration-background-color, white)"/>
          <rect x="505" y="230" width="326" height="80" rx="14" fill="var(--component-illustration-background-color, white)"  stroke="var(--component-illustration-color, #666)" stroke-width="4"/>
        </g>
    </symbol>
    <use href="#component-illustration"/>
</svg>
