<svg width="960" height="540" viewBox="0 0 960 540" fill="none" xmlns="http://www.w3.org/2000/svg">
<symbol id="component-illustration">
<rect width="960" height="540" fill="var(--component-illustration-background-color, white)"/>

<rect width="960" height="540" fill="var(--component-illustration-background-color, white)"/>
<rect width="2" height="540" transform="translate(69)" fill="var(--component-illustration-grid-color, #eee)"/>
<rect width="2" height="540" transform="translate(151)" fill="var(--component-illustration-grid-color, #eee)"/>
<rect width="2" height="540" transform="translate(233)" fill="var(--component-illustration-grid-color, #eee)"/>
<rect width="2" height="540" transform="translate(315)" fill="var(--component-illustration-grid-color, #eee)"/>
<rect width="2" height="540" transform="translate(397)" fill="var(--component-illustration-grid-color, #eee)"/>
<rect width="2" height="540" transform="translate(479)" fill="var(--component-illustration-grid-color, #eee)"/>
<rect width="2" height="540" transform="translate(561)" fill="var(--component-illustration-grid-color, #eee)"/>
<rect width="2" height="540" transform="translate(643)" fill="var(--component-illustration-grid-color, #eee)"/>
<rect width="2" height="540" transform="translate(725)" fill="var(--component-illustration-grid-color, #eee)"/>
<rect width="2" height="540" transform="translate(807)" fill="var(--component-illustration-grid-color, #eee)"/>
<rect width="2" height="540" transform="translate(889)" fill="var(--component-illustration-grid-color, #eee)"/>
<rect width="960" height="2" transform="translate(0 64)" fill="var(--component-illustration-grid-color, #eee)"/>
<rect width="960" height="2" transform="translate(0 146)" fill="var(--component-illustration-grid-color, #eee)"/>
<rect width="960" height="2" transform="translate(0 228)" fill="var(--component-illustration-grid-color, #eee)"/>
<rect width="960" height="2" transform="translate(0 310)" fill="var(--component-illustration-grid-color, #eee)"/>
<rect width="960" height="2" transform="translate(0 392)" fill="var(--component-illustration-grid-color, #eee)"/>
<rect width="960" height="2" transform="translate(0 474)" fill="var(--component-illustration-grid-color, #eee)"/>
<g filter="url(#filter0_d_634_2249)">
<rect x="315" y="163" width="330" height="312" fill="var(--component-illustration-background-color, white)"/>
<rect x="394" y="211" width="16" height="16" fill="var(--component-illustration-color, #666)"/>
<rect x="433" y="211" width="16" height="16" fill="var(--component-illustration-color, #666)"/>
<rect x="472" y="211" width="16" height="16" fill="var(--component-illustration-color, #666)"/>
<rect x="511" y="211" width="16" height="16" fill="var(--component-illustration-color, #666)"/>
<rect x="550" y="211" width="16" height="16" fill="var(--component-illustration-color, #666)"/>
<rect x="589" y="211" width="16" height="16" fill="var(--component-illustration-color, #666)"/>
<rect x="355" y="251" width="16" height="16" fill="var(--component-illustration-color, #666)"/>
<rect x="394" y="251" width="16" height="16" fill="var(--component-illustration-color, #666)"/>
<rect x="433" y="251" width="16" height="16" fill="var(--component-illustration-color, #666)"/>
<rect x="472" y="251" width="16" height="16" fill="var(--component-illustration-color, #666)"/>
<rect x="511" y="251" width="16" height="16" fill="var(--component-illustration-color, #666)"/>
<rect x="550" y="251" width="16" height="16" fill="var(--component-illustration-color, #666)"/>
<rect x="589" y="251" width="16" height="16" fill="var(--component-illustration-color, #666)"/>
<rect x="355" y="291" width="16" height="16" fill="var(--component-illustration-color, #666)"/>
<rect x="394" y="291" width="16" height="16" fill="var(--component-illustration-color, #666)"/>
<rect x="433" y="291" width="16" height="16" fill="var(--component-illustration-color, #666)"/>
<rect x="472" y="291" width="16" height="16" fill="var(--component-illustration-color, #666)"/>
<rect x="511" y="291" width="16" height="16" fill="var(--component-illustration-color, #666)"/>
<rect x="550" y="291" width="16" height="16" fill="var(--component-illustration-color, #666)"/>
<rect x="589" y="291" width="16" height="16" fill="var(--component-illustration-color, #666)"/>
<rect x="355" y="331" width="16" height="16" fill="var(--component-illustration-color, #666)"/>
<rect x="394" y="331" width="16" height="16" fill="var(--component-illustration-color, #666)"/>
<rect x="433" y="331" width="16" height="16" fill="var(--component-illustration-color, #666)"/>
<rect x="472" y="331" width="16" height="16" fill="var(--component-illustration-color, #666)"/>
<rect x="511" y="331" width="16" height="16" fill="var(--component-illustration-color, #666)"/>
<rect x="550" y="331" width="16" height="16" fill="var(--component-illustration-color, #666)"/>
<rect x="589" y="331" width="16" height="16" fill="var(--component-illustration-color, #666)"/>
<rect x="355" y="371" width="16" height="16" fill="var(--component-illustration-color, #666)"/>
<rect x="394" y="371" width="16" height="16" fill="var(--component-illustration-color, #666)"/>
<rect x="433" y="371" width="16" height="16" fill="var(--component-illustration-color, #666)"/>
<rect x="472" y="371" width="16" height="16" fill="var(--component-illustration-color, #666)"/>
<rect x="511" y="371" width="16" height="16" fill="var(--component-illustration-color, #666)"/>
<rect x="550" y="371" width="16" height="16" fill="var(--component-illustration-color, #666)"/>
<rect x="589" y="371" width="16" height="16" fill="var(--component-illustration-color, #666)"/>
<rect x="355" y="411" width="16" height="16" fill="var(--component-illustration-color, #666)"/>
<rect x="394" y="411" width="16" height="16" fill="var(--component-illustration-color, #666)"/>
<rect x="433" y="411" width="16" height="16" fill="var(--component-illustration-color, #666)"/>
<rect x="472" y="411" width="16" height="16" fill="var(--component-illustration-color, #666)"/>
<rect x="511" y="411" width="16" height="16" fill="var(--component-illustration-background-color, white)"/>
<rect x="550" y="411" width="16" height="16" fill="var(--component-illustration-background-color, white)"/>
<rect x="589" y="411" width="16" height="16" fill="var(--component-illustration-background-color, white)"/>
<circle cx="518" cy="299" r="22" stroke="var(--component-illustration-color, #666)" stroke-width="4"/>
<rect x="317" y="165" width="326" height="308" stroke="var(--component-illustration-color, #666)" stroke-width="4"/>
</g>
<rect x="318" y="66" width="325" height="80" stroke="var(--component-illustration-color, #666)" stroke-width="4"/>
<path fill-rule="evenodd" clip-rule="evenodd" d="M595 86C596.105 86 597 86.8954 597 88V90H609V88C609 86.8954 609.895 86 611 86C612.105 86 613 86.8954 613 88V90H615C618.314 90 621 92.6863 621 96V120C621 123.314 618.314 126 615 126H591C587.686 126 585 123.314 585 120V96C585 92.6863 587.686 90 591 90H593V88C593 86.8954 593.895 86 595 86ZM593 94H591C589.895 94 589 94.8954 589 96V102H617V96C617 94.8954 616.105 94 615 94H613V96C613 97.1046 612.105 98 611 98C609.895 98 609 97.1046 609 96V94H597V96C597 97.1046 596.105 98 595 98C593.895 98 593 97.1046 593 96V94ZM617 106H589V120C589 121.105 589.895 122 591 122H615C616.105 122 617 121.105 617 120V106ZM593 112C593 110.895 593.895 110 595 110H599C600.105 110 601 110.895 601 112V116C601 117.105 600.105 118 599 118H595C593.895 118 593 117.105 593 116V112Z" fill="var(--component-illustration-color, #666)"/>
<path d="M342 86L342 126" stroke="var(--component-illustration-color, #666)" stroke-width="4" stroke-linecap="round"/>
<defs>
    <filter id="filter0_d_634_2249" x="315" y="163" width="338" height="320" filterUnits="userSpaceOnUse" color-interpolation-filters="sRGB">
    <feFlood flood-opacity="0" result="BackgroundImageFix"/>
    <feColorMatrix in="SourceAlpha" type="matrix" values="0 0 0 0 0 0 0 0 0 0 0 0 0 0 0 0 0 0 127 0" result="hardAlpha"/>
    <feOffset dx="8" dy="8"/>
    <feComposite in2="hardAlpha" operator="out"/>
    <feBlend mode="normal" in2="BackgroundImageFix" result="effect1_dropShadow_634_2249"/>
    <feBlend mode="normal" in="SourceGraphic" in2="effect1_dropShadow_634_2249" result="shape"/>
    </filter>
</defs>
</symbol>
<use href="#component-illustration"/>
</svg>
