<svg viewBox="0 0 960 540" fill="none" xmlns="http://www.w3.org/2000/svg">
    <symbol id="component-illustration" viewBox="0 0 960 540">
    <rect width="960" height="540" fill="var(--component-illustration-background-color, white)"/>
    <rect width="960" height="540" fill="var(--component-illustration-background-color, white)"/>
    <rect width="2" height="540" transform="translate(69)" fill="var(--component-illustration-grid-color, #eee)"/>
    <rect width="2" height="540" transform="translate(151)" fill="var(--component-illustration-grid-color, #eee)"/>
    <rect width="2" height="540" transform="translate(233)" fill="var(--component-illustration-grid-color, #eee)"/>
    <rect width="2" height="540" transform="translate(315)" fill="var(--component-illustration-grid-color, #eee)"/>
    <rect width="2" height="540" transform="translate(397)" fill="var(--component-illustration-grid-color, #eee)"/>
    <rect width="2" height="540" transform="translate(479)" fill="var(--component-illustration-grid-color, #eee)"/>
    <rect width="2" height="540" transform="translate(561)" fill="var(--component-illustration-grid-color, #eee)"/>
    <rect width="2" height="540" transform="translate(643)" fill="var(--component-illustration-grid-color, #eee)"/>
    <rect width="2" height="540" transform="translate(725)" fill="var(--component-illustration-grid-color, #eee)"/>
    <rect width="2" height="540" transform="translate(807)" fill="var(--component-illustration-grid-color, #eee)"/>
    <rect width="2" height="540" transform="translate(889)" fill="var(--component-illustration-grid-color, #eee)"/>
    <rect width="960" height="2" transform="translate(0 64)" fill="var(--component-illustration-grid-color, #eee)"/>
    <rect width="960" height="2" transform="translate(0 146)" fill="var(--component-illustration-grid-color, #eee)"/>
    <rect width="960" height="2" transform="translate(0 228)" fill="var(--component-illustration-grid-color, #eee)"/>
    <rect width="960" height="2" transform="translate(0 310)" fill="var(--component-illustration-grid-color, #eee)"/>
    <rect width="960" height="2" transform="translate(0 392)" fill="var(--component-illustration-grid-color, #eee)"/>
    <rect width="960" height="2" transform="translate(0 474)" fill="var(--component-illustration-grid-color, #eee)"/>
    <rect x="317" y="65" width="326" height="409" stroke="var(--component-illustration-color, #666)" stroke-width="4"/>
    <line x1="2" y1="-2" x2="365.346" y2="-2" transform="matrix(0.895612 0.444835 -0.524557 0.851375 315 66.5914)" stroke="var(--component-illustration-color, #666)" stroke-width="4" stroke-linecap="round"/>
    <line x1="2" y1="-2" x2="365.346" y2="-2" transform="matrix(0.895612 -0.444835 0.524557 0.851375 316 230)" stroke="var(--component-illustration-color, #666)" stroke-width="4" stroke-linecap="round"/>
    <rect x="317" y="65" width="326" height="163" stroke="var(--component-illustration-color, #666)" stroke-width="4"/>
    <rect x="357" y="260" width="174" height="24" rx="12" fill="var(--component-illustration-color, #666)"/>
    <rect x="356" y="310" width="248" height="16" rx="8" fill="var(--component-illustration-color, #666)"/>
    <rect x="356" y="342" width="248" height="16" rx="8" fill="var(--component-illustration-color, #666)"/>
    <rect x="356" y="425" width="175" height="16" rx="8" fill="var(--component-illustration-color, #666)"/>
</symbol>
<use href="#component-illustration"/>
</svg>
