<svg width="960" height="540" viewBox="0 0 960 540" fill="none" xmlns="http://www.w3.org/2000/svg">
<symbol id="component-illustration">
<rect width="960" height="540" fill="var(--ma-component-illustration-grid-background-color, #AAA)"/>
<rect width="960" height="540" fill="var(--ma-component-illustration-grid-background-color, #AAA)"/>
<rect width="2" height="540" transform="translate(69)" fill="var(--ma-component-illustration-grid-color, #eee)"/>
<rect width="2" height="540" transform="translate(151)" fill="var(--ma-component-illustration-grid-color, #eee)"/>
<rect width="2" height="540" transform="translate(233)" fill="var(--ma-component-illustration-grid-color, #eee)"/>
<rect width="2" height="540" transform="translate(315)" fill="var(--ma-component-illustration-grid-color, #eee)"/>
<rect width="2" height="540" transform="translate(397)" fill="var(--ma-component-illustration-grid-color, #eee)"/>
<rect width="2" height="540" transform="translate(479)" fill="var(--ma-component-illustration-grid-color, #eee)"/>
<rect width="2" height="540" transform="translate(561)" fill="var(--ma-component-illustration-grid-color, #eee)"/>
<rect width="2" height="540" transform="translate(643)" fill="var(--ma-component-illustration-grid-color, #eee)"/>
<rect width="2" height="540" transform="translate(725)" fill="var(--ma-component-illustration-grid-color, #eee)"/>
<rect width="2" height="540" transform="translate(807)" fill="var(--ma-component-illustration-grid-color, #eee)"/>
<rect width="2" height="540" transform="translate(889)" fill="var(--ma-component-illustration-grid-color, #eee)"/>
<rect width="960" height="2" transform="translate(0 64)" fill="var(--ma-component-illustration-grid-color, #eee)"/>
<rect width="960" height="2" transform="translate(0 146)" fill="var(--ma-component-illustration-grid-color, #eee)"/>
<rect width="960" height="2" transform="translate(0 228)" fill="var(--ma-component-illustration-grid-color, #eee)"/>
<rect width="960" height="2" transform="translate(0 310)" fill="var(--ma-component-illustration-grid-color, #eee)"/>
<rect width="960" height="2" transform="translate(0 392)" fill="var(--ma-component-illustration-grid-color, #eee)"/>
<rect width="960" height="2" transform="translate(0 474)" fill="var(--ma-component-illustration-grid-color, #eee)"/>
<rect x="323" y="236" width="330" height="84" fill="var(--ma-component-illustration-color, #666)"/>
<rect x="315" y="228" width="330" height="84" fill="var(--ma-component-illustration-background-color, white)"/>
<rect x="317" y="230" width="326" height="80" stroke="var(--ma-component-illustration-color, #666)" stroke-width="4"/>
<path fill-rule="evenodd" clip-rule="evenodd" d="M345 256C346.105 256 347 256.895 347 258V270C347 272.209 348.791 274 351 274H366.172L361.586 269.414C360.805 268.633 360.805 267.367 361.586 266.586C362.367 265.805 363.633 265.805 364.414 266.586L372.414 274.586C373.195 275.367 373.195 276.633 372.414 277.414L364.414 285.414C363.633 286.195 362.367 286.195 361.586 285.414C360.805 284.633 360.805 283.367 361.586 282.586L366.172 278H351C346.582 278 343 274.418 343 270V258C343 256.895 343.895 256 345 256Z" fill="var(--ma-component-illustration-color, #666)"/>
<rect x="397" y="262" width="206" height="16" rx="8" fill="var(--ma-component-illustration-color, #666)"/>
</symbol>
<use href="#component-illustration"/>
</svg>
