<svg width="960" height="540" viewBox="0 0 960 540" fill="none" xmlns="http://www.w3.org/2000/svg">
<symbol id="component-illustration">
    <rect width="960" height="540" fill="var(--component-illustration-background-color, white)"/>
    <rect width="2" height="540" transform="translate(69)" fill="var(--component-illustration-grid-color, #eee)"/>
    <rect width="2" height="540" transform="translate(151)" fill="var(--component-illustration-grid-color, #eee)"/>
    <rect width="2" height="540" transform="translate(233)" fill="var(--component-illustration-grid-color, #eee)"/>
    <rect width="2" height="540" transform="translate(315)" fill="var(--component-illustration-grid-color, #eee)"/>
    <rect width="2" height="540" transform="translate(397)" fill="var(--component-illustration-grid-color, #eee)"/>
    <rect width="2" height="540" transform="translate(479)" fill="var(--component-illustration-grid-color, #eee)"/>
    <rect width="2" height="540" transform="translate(561)" fill="var(--component-illustration-grid-color, #eee)"/>
    <rect width="2" height="540" transform="translate(643)" fill="var(--component-illustration-grid-color, #eee)"/>
    <rect width="2" height="540" transform="translate(725)" fill="var(--component-illustration-grid-color, #eee)"/>
    <rect width="2" height="540" transform="translate(807)" fill="var(--component-illustration-grid-color, #eee)"/>
    <rect width="2" height="540" transform="translate(889)" fill="var(--component-illustration-grid-color, #eee)"/>
    <rect width="960" height="2" transform="translate(0 64)" fill="var(--component-illustration-grid-color, #eee)"/>
    <rect width="960" height="2" transform="translate(0 146)" fill="var(--component-illustration-grid-color, #eee)"/>
    <rect width="960" height="2" transform="translate(0 228)" fill="var(--component-illustration-grid-color, #eee)"/>
    <rect width="960" height="2" transform="translate(0 310)" fill="var(--component-illustration-grid-color, #eee)"/>
    <rect width="960" height="2" transform="translate(0 392)" fill="var(--component-illustration-grid-color, #eee)"/>
    <rect width="960" height="2" transform="translate(0 474)" fill="var(--component-illustration-grid-color, #eee)"/>
    <line x1="2" y1="-2" x2="547.041" y2="-2" transform="matrix(0.897024 0.441983 -0.527604 0.84949 233 151.333)" stroke="var(--component-illustration-color, #666)" stroke-width="4" stroke-linecap="round"/>
    <line x1="2" y1="-2" x2="547.041" y2="-2" transform="matrix(0.897024 -0.441983 0.527604 0.84949 234.496 394)" stroke="var(--component-illustration-color, #666)" stroke-width="4" stroke-linecap="round"/>
    <rect x="235" y="148" width="490" height="244" stroke="var(--component-illustration-color, #666)" stroke-width="4"/>
</symbol>
<use href="#component-illustration"/>
</svg>
