<svg width="960" height="540" viewBox="0 0 960 540" fill="none" xmlns="http://www.w3.org/2000/svg">
<symbol id="component-illustration">
<rect width="960" height="540" fill="var(--component-illustration-background-color, white)"/>
<rect width="960" height="540" fill="var(--component-illustration-background-color, white)"/>
<rect width="2" height="540" transform="translate(69)" fill="var(--component-illustration-grid-color, #eee)"/>
<rect width="2" height="540" transform="translate(151)" fill="var(--component-illustration-grid-color, #eee)"/>
<rect width="2" height="540" transform="translate(233)" fill="var(--component-illustration-grid-color, #eee)"/>
<rect width="2" height="540" transform="translate(315)" fill="var(--component-illustration-grid-color, #eee)"/>
<rect width="2" height="540" transform="translate(397)" fill="var(--component-illustration-grid-color, #eee)"/>
<rect width="2" height="540" transform="translate(479)" fill="var(--component-illustration-grid-color, #eee)"/>
<rect width="2" height="540" transform="translate(561)" fill="var(--component-illustration-grid-color, #eee)"/>
<rect width="2" height="540" transform="translate(643)" fill="var(--component-illustration-grid-color, #eee)"/>
<rect width="2" height="540" transform="translate(725)" fill="var(--component-illustration-grid-color, #eee)"/>
<rect width="2" height="540" transform="translate(807)" fill="var(--component-illustration-grid-color, #eee)"/>
<rect width="2" height="540" transform="translate(889)" fill="var(--component-illustration-grid-color, #eee)"/>
<rect width="960" height="2" transform="translate(0 64)" fill="var(--component-illustration-grid-color, #eee)"/>
<rect width="960" height="2" transform="translate(0 146)" fill="var(--component-illustration-grid-color, #eee)"/>
<rect width="960" height="2" transform="translate(0 228)" fill="var(--component-illustration-grid-color, #eee)"/>
<rect width="960" height="2" transform="translate(0 310)" fill="var(--component-illustration-grid-color, #eee)"/>
<rect width="960" height="2" transform="translate(0 392)" fill="var(--component-illustration-grid-color, #eee)"/>
<rect width="960" height="2" transform="translate(0 474)" fill="var(--component-illustration-grid-color, #eee)"/>
<rect x="235" y="230" width="490" height="80" stroke="var(--component-illustration-color, #666)" stroke-width="4"/>
<rect x="233" y="180" width="330" height="16" rx="8" fill="var(--component-illustration-color, #666)"/>
<rect x="289" y="344" width="330" height="16" rx="8" fill="var(--component-illustration-color, #666)"/>
<path fill-rule="evenodd" clip-rule="evenodd" d="M251.741 335.012C252.801 333.113 254.805 331.935 256.98 331.935C259.156 331.935 261.16 333.113 262.22 335.012L276.411 359.496C276.458 359.577 276.499 359.662 276.534 359.749C277.28 361.592 277.064 363.684 275.959 365.336C274.854 366.988 273.002 367.985 271.014 367.999L271 367.999H243C242.964 367.999 242.928 367.998 242.891 367.996C242.821 368 242.75 368 242.677 367.996C240.738 367.896 238.967 366.864 237.924 365.226C236.882 363.587 236.697 361.546 237.427 359.746C237.462 359.66 237.503 359.577 237.55 359.496L251.741 335.012ZM242.89 364.002C242.926 364 242.963 363.999 243 363.999H270.992C271.653 363.992 272.267 363.66 272.635 363.111C272.981 362.593 273.065 361.945 272.867 361.359L258.75 337.002L258.73 336.967C258.378 336.331 257.708 335.935 256.98 335.935C256.253 335.935 255.583 336.331 255.23 336.967L255.211 337.002L241.093 361.36C240.898 361.932 240.972 362.565 241.299 363.078C241.647 363.624 242.237 363.968 242.883 364.002C242.886 364.002 242.888 364.002 242.89 364.002ZM257 343.999C258.105 343.999 259 344.894 259 345.999V349.999C259 351.104 258.105 351.999 257 351.999C255.896 351.999 255 351.104 255 349.999V345.999C255 344.894 255.896 343.999 257 343.999ZM255 357.999C255 356.894 255.896 355.999 257 355.999H257.02C258.125 355.999 259.02 356.894 259.02 357.999C259.02 359.104 258.125 359.999 257.02 359.999H257C255.896 359.999 255 359.104 255 357.999Z" fill="var(--component-illustration-color, #666)"/>
<rect x="233" y="134" width="248" height="24" rx="12" fill="var(--component-illustration-color, #666)"/>
<path d="M259 250L259 290" stroke="var(--component-illustration-color, #666)" stroke-width="4" stroke-linecap="round"/>
</symbol>
<use href="#component-illustration"/>
</svg>
