<svg width="960" height="540" viewBox="0 0 960 540" fill="none" xmlns="http://www.w3.org/2000/svg">
<symbol id="component-illustration">
<g clip-path="url(#clip0_612_1270)">
<rect width="960" height="540" fill="var(--component-illustration-background-color, white)"/>
<g clip-path="url(#clip1_612_1270)">
<rect width="960" height="540" fill="var(--component-illustration-background-color, white)"/>
<rect width="2" height="540" transform="translate(69)" fill="var(--component-illustration-grid-color, #eee)"/>
<rect width="2" height="540" transform="translate(151)" fill="var(--component-illustration-grid-color, #eee)"/>
<rect width="2" height="540" transform="translate(233)" fill="var(--component-illustration-grid-color, #eee)"/>
<rect width="2" height="540" transform="translate(315)" fill="var(--component-illustration-grid-color, #eee)"/>
<rect width="2" height="540" transform="translate(397)" fill="var(--component-illustration-grid-color, #eee)"/>
<rect width="2" height="540" transform="translate(479)" fill="var(--component-illustration-grid-color, #eee)"/>
<rect width="2" height="540" transform="translate(561)" fill="var(--component-illustration-grid-color, #eee)"/>
<rect width="2" height="540" transform="translate(643)" fill="var(--component-illustration-grid-color, #eee)"/>
<rect width="2" height="540" transform="translate(725)" fill="var(--component-illustration-grid-color, #eee)"/>
<rect width="2" height="540" transform="translate(807)" fill="var(--component-illustration-grid-color, #eee)"/>
<rect width="2" height="540" transform="translate(889)" fill="var(--component-illustration-grid-color, #eee)"/>
<rect width="960" height="2" transform="translate(0 64)" fill="var(--component-illustration-grid-color, #eee)"/>
<rect width="960" height="2" transform="translate(0 146)" fill="var(--component-illustration-grid-color, #eee)"/>
<rect width="960" height="2" transform="translate(0 228)" fill="var(--component-illustration-grid-color, #eee)"/>
<rect width="960" height="2" transform="translate(0 310)" fill="var(--component-illustration-grid-color, #eee)"/>
<rect width="960" height="2" transform="translate(0 392)" fill="var(--component-illustration-grid-color, #eee)"/>
<rect width="960" height="2" transform="translate(0 474)" fill="var(--component-illustration-grid-color, #eee)"/>
</g>
<g clip-path="url(#clip2_612_1270)">
<circle cx="275" cy="270" r="19" stroke="var(--component-illustration-color, #666)" stroke-width="4"/>
</g>
<g clip-path="url(#clip3_612_1270)">
<circle cx="275" cy="188" r="19" stroke="var(--component-illustration-color, #666)" stroke-width="4"/>
</g>
<g clip-path="url(#clip4_612_1270)">
<circle cx="275" cy="352" r="19" stroke="var(--component-illustration-color, #666)" stroke-width="4"/>
</g>
<rect x="315" y="262" width="330" height="16" rx="8" fill="var(--component-illustration-color, #666)"/>
<rect x="315" y="180" width="248" height="16" rx="8" fill="var(--component-illustration-color, #666)"/>
<rect x="317" y="344" width="246" height="16" rx="8" fill="var(--component-illustration-color, #666)"/>
<g clip-path="url(#clip5_612_1270)">
<circle cx="9" cy="9" r="9" transform="matrix(-1 0 0 1 284 179)" fill="var(--component-illustration-color, #666)"/>
</g>
</g>
<defs>
<clipPath id="clip0_612_1270">
<rect width="960" height="540" fill="var(--component-illustration-background-color, white)"/>
</clipPath>
<clipPath id="clip1_612_1270">
<rect width="960" height="540" fill="var(--component-illustration-background-color, white)"/>
</clipPath>
<clipPath id="clip2_612_1270">
<rect x="254" y="249" width="42" height="42" rx="21" fill="var(--component-illustration-background-color, white)"/>
</clipPath>
<clipPath id="clip3_612_1270">
<rect x="254" y="167" width="42" height="42" rx="21" fill="var(--component-illustration-background-color, white)"/>
</clipPath>
<clipPath id="clip4_612_1270">
<rect x="254" y="331" width="42" height="42" rx="21" fill="var(--component-illustration-background-color, white)"/>
</clipPath>
<clipPath id="clip5_612_1270">
<rect width="18" height="18" rx="9" transform="matrix(-1 0 0 1 284 179)" fill="var(--component-illustration-background-color, white)"/>
</clipPath>
</defs>
</symbol>
<use href="#component-illustration"/>
</svg>
