<svg width="960" height="540" viewBox="0 0 960 540" fill="none" xmlns="http://www.w3.org/2000/svg">
<symbol id="component-illustration">
<rect width="960" height="540" fill="var(--component-illustration-background-color, white)"/>
<rect width="960" height="540" fill="var(--component-illustration-background-color, white)"/>
<rect width="2" height="540" transform="translate(69)" fill="var(--component-illustration-grid-color, #eee)"/>
<rect width="2" height="540" transform="translate(151)" fill="var(--component-illustration-grid-color, #eee)"/>
<rect width="2" height="540" transform="translate(233)" fill="var(--component-illustration-grid-color, #eee)"/>
<rect width="2" height="540" transform="translate(315)" fill="var(--component-illustration-grid-color, #eee)"/>
<rect width="2" height="540" transform="translate(397)" fill="var(--component-illustration-grid-color, #eee)"/>
<rect width="2" height="540" transform="translate(479)" fill="var(--component-illustration-grid-color, #eee)"/>
<rect width="2" height="540" transform="translate(561)" fill="var(--component-illustration-grid-color, #eee)"/>
<rect width="2" height="540" transform="translate(643)" fill="var(--component-illustration-grid-color, #eee)"/>
<rect width="2" height="540" transform="translate(725)" fill="var(--component-illustration-grid-color, #eee)"/>
<rect width="2" height="540" transform="translate(807)" fill="var(--component-illustration-grid-color, #eee)"/>
<rect width="2" height="540" transform="translate(889)" fill="var(--component-illustration-grid-color, #eee)"/>
<rect width="960" height="2" transform="translate(0 64)" fill="var(--component-illustration-grid-color, #eee)"/>
<rect width="960" height="2" transform="translate(0 146)" fill="var(--component-illustration-grid-color, #eee)"/>
<rect width="960" height="2" transform="translate(0 228)" fill="var(--component-illustration-grid-color, #eee)"/>
<rect width="960" height="2" transform="translate(0 310)" fill="var(--component-illustration-grid-color, #eee)"/>
<rect width="960" height="2" transform="translate(0 392)" fill="var(--component-illustration-grid-color, #eee)"/>
<rect width="960" height="2" transform="translate(0 474)" fill="var(--component-illustration-grid-color, #eee)"/>
<path fill-rule="evenodd" clip-rule="evenodd" d="M209.739 197.012C210.799 195.113 212.803 193.935 214.978 193.935C217.154 193.935 219.158 195.113 220.218 197.012L234.409 221.496C234.456 221.577 234.497 221.662 234.532 221.749C235.278 223.592 235.062 225.684 233.957 227.336C232.852 228.988 231 229.985 229.012 229.999L228.998 229.999H200.998C200.962 229.999 200.926 229.998 200.889 229.996C200.819 230 200.748 230 200.675 229.996C198.736 229.896 196.965 228.864 195.922 227.226C194.88 225.587 194.695 223.546 195.425 221.746C195.46 221.66 195.501 221.577 195.548 221.496L209.739 197.012ZM200.888 226.002C200.925 226 200.961 225.999 200.998 225.999H228.99C229.651 225.992 230.265 225.66 230.633 225.111C230.979 224.593 231.063 223.945 230.865 223.359L216.748 199.002L216.728 198.967C216.376 198.331 215.706 197.935 214.978 197.935C214.251 197.935 213.581 198.331 213.228 198.967L213.209 199.002L199.091 223.36C198.896 223.932 198.97 224.565 199.297 225.078C199.645 225.624 200.235 225.968 200.881 226.002C200.884 226.002 200.886 226.002 200.888 226.002ZM214.998 205.999C216.103 205.999 216.998 206.894 216.998 207.999V211.999C216.998 213.104 216.103 213.999 214.998 213.999C213.894 213.999 212.998 213.104 212.998 211.999V207.999C212.998 206.894 213.894 205.999 214.998 205.999ZM212.998 219.999C212.998 218.894 213.894 217.999 214.998 217.999H215.018C216.123 217.999 217.018 218.894 217.018 219.999C217.018 221.104 216.123 221.999 215.018 221.999H214.998C213.894 221.999 212.998 221.104 212.998 219.999Z" fill="var(--component-illustration-color, #666)"/>
<rect x="263" y="194" width="463" height="24" rx="12" fill="var(--component-illustration-color, #666)"/>
<circle cx="271" cy="258" r="8" fill="var(--component-illustration-color, #666)"/>
<rect x="295" y="250" width="268" height="16" rx="8" fill="var(--component-illustration-color, #666)"/>
<circle cx="271" cy="298" r="8" fill="var(--component-illustration-color, #666)"/>
<rect x="295" y="290" width="268" height="16" rx="8" fill="var(--component-illustration-color, #666)"/>
<circle cx="271" cy="338" r="8" fill="var(--component-illustration-color, #666)"/>
<rect x="295" y="330" width="186" height="16" rx="8" fill="var(--component-illustration-color, #666)"/>
<rect x="153" y="148" width="654" height="244" stroke="var(--component-illustration-color, #666)" stroke-width="4"/>
</symbol>
<use href="#component-illustration"/>
</svg>
