<svg width="960" height="540" viewBox="0 0 960 540" fill="none" xmlns="http://www.w3.org/2000/svg">
<symbol id="component-illustration">
<rect width="960" height="540" fill="var(--component-illustration-background-color, white)"/>
<rect width="960" height="540" fill="var(--component-illustration-background-color, white)"/>
<rect width="2" height="540" transform="translate(69)" fill="var(--component-illustration-grid-color, #eee)"/>
<rect width="2" height="540" transform="translate(151)" fill="var(--component-illustration-grid-color, #eee)"/>
<rect width="2" height="540" transform="translate(233)" fill="var(--component-illustration-grid-color, #eee)"/>
<rect width="2" height="540" transform="translate(315)" fill="var(--component-illustration-grid-color, #eee)"/>
<rect width="2" height="540" transform="translate(397)" fill="var(--component-illustration-grid-color, #eee)"/>
<rect width="2" height="540" transform="translate(479)" fill="var(--component-illustration-grid-color, #eee)"/>
<rect width="2" height="540" transform="translate(561)" fill="var(--component-illustration-grid-color, #eee)"/>
<rect width="2" height="540" transform="translate(643)" fill="var(--component-illustration-grid-color, #eee)"/>
<rect width="2" height="540" transform="translate(725)" fill="var(--component-illustration-grid-color, #eee)"/>
<rect width="2" height="540" transform="translate(807)" fill="var(--component-illustration-grid-color, #eee)"/>
<rect width="2" height="540" transform="translate(889)" fill="var(--component-illustration-grid-color, #eee)"/>
<rect width="960" height="2" transform="translate(0 64)" fill="var(--component-illustration-grid-color, #eee)"/>
<rect width="960" height="2" transform="translate(0 146)" fill="var(--component-illustration-grid-color, #eee)"/>
<rect width="960" height="2" transform="translate(0 228)" fill="var(--component-illustration-grid-color, #eee)"/>
<rect width="960" height="2" transform="translate(0 310)" fill="var(--component-illustration-grid-color, #eee)"/>
<rect width="960" height="2" transform="translate(0 392)" fill="var(--component-illustration-grid-color, #eee)"/>
<rect width="960" height="2" transform="translate(0 474)" fill="var(--component-illustration-grid-color, #eee)"/>
<rect x="194" y="230" width="162" height="80" stroke="var(--component-illustration-color, #666)" stroke-width="4"/>
<rect x="376" y="230" width="162" height="80" stroke="var(--component-illustration-color, #666)" stroke-width="4"/>
<rect x="558" y="230" width="208" height="80" stroke="var(--component-illustration-color, #666)" stroke-width="4"/>
<path d="M218 250L218 290" stroke="var(--component-illustration-color, #666)" stroke-width="4" stroke-linecap="round"/>
<rect x="192" y="188" width="120" height="16" rx="8" fill="var(--component-illustration-color, #666)"/>
<rect x="374" y="188" width="120" height="16" rx="8" fill="var(--component-illustration-color, #666)"/>
<rect x="556" y="188" width="120" height="16" rx="8" fill="var(--component-illustration-color, #666)"/>
<rect x="184" y="180" width="182" height="140" stroke="var(--component-illustration-color, #666)" stroke-width="4" stroke-dasharray="8 8"/>
<path d="M94 197L171.449 197M172 196C165.403 194.343 159.769 190 153 190M171.343 196.943C166.95 197.744 163.408 200.095 159.295 201.456C157.139 202.169 154.956 203.001 153.27 204.435" stroke="var(--component-illustration-color, #666)" stroke-width="4" stroke-linecap="round" stroke-linejoin="round"/>
</symbol>
<use href="#component-illustration"/>
</svg>
