<svg width="960" height="540" viewBox="0 0 960 540" fill="none" xmlns="http://www.w3.org/2000/svg">
<symbol id="component-illustration">
<g fill="var(--component-illustration-background-color, white)">
<rect width="960" height="540"/>
<rect width="960" height="540"/>
</g>
<g fill="var(--component-illustration-grid-color, #eee)">
    <rect width="2" height="540" transform="translate(69)"/>
    <rect width="2" height="540" transform="translate(151)"/>
    <rect width="2" height="540" transform="translate(233)"/>
    <rect width="2" height="540" transform="translate(315)"/>
    <rect width="2" height="540" transform="translate(397)"/>
    <rect width="2" height="540" transform="translate(479)"/>
    <rect width="2" height="540" transform="translate(561)"/>
    <rect width="2" height="540" transform="translate(643)"/>
    <rect width="2" height="540" transform="translate(725)"/>
    <rect width="2" height="540" transform="translate(807)"/>
    <rect width="2" height="540" transform="translate(889)"/>
    <rect width="960" height="2" transform="translate(0 64)"/>
    <rect width="960" height="2" transform="translate(0 146)"/>
    <rect width="960" height="2" transform="translate(0 228)"/>
    <rect width="960" height="2" transform="translate(0 310)"/>
    <rect width="960" height="2" transform="translate(0 392)"/>
    <rect width="960" height="2" transform="translate(0 474)"/>
</g>
<path fill-rule="evenodd" clip-rule="evenodd" d="M310.586 192.586C311.367 191.805 312.633 191.805 313.414 192.586L325.414 204.586C326.195 205.367 326.195 206.633 325.414 207.414L313.414 219.414C312.633 220.195 311.367 220.195 310.586 219.414C309.805 218.633 309.805 217.367 310.586 216.586L321.172 206L310.586 195.414C309.805 194.633 309.805 193.367 310.586 192.586Z" fill="var(--component-illustration-color, #666)" stroke="var(--component-illustration-color, #666)" stroke-width="2" stroke-linecap="round" stroke-linejoin="round"/>
<rect x="350" y="198" width="245" height="16" rx="8" fill="var(--component-illustration-color, #666)"/>
<path fill-rule="evenodd" clip-rule="evenodd" d="M310.586 256.586C311.367 255.805 312.633 255.805 313.414 256.586L325.414 268.586C326.195 269.367 326.195 270.633 325.414 271.414L313.414 283.414C312.633 284.195 311.367 284.195 310.586 283.414C309.805 282.633 309.805 281.367 310.586 280.586L321.172 270L310.586 259.414C309.805 258.633 309.805 257.367 310.586 256.586Z" fill="var(--component-illustration-color, #666)" stroke="var(--component-illustration-color, #666)" stroke-width="2" stroke-linecap="round" stroke-linejoin="round"/>
<rect x="350" y="262" width="304" height="16" rx="8" fill="var(--component-illustration-color, #666)"/>
<path fill-rule="evenodd" clip-rule="evenodd" d="M310.586 320.586C311.367 319.805 312.633 319.805 313.414 320.586L325.414 332.586C326.195 333.367 326.195 334.633 325.414 335.414L313.414 347.414C312.633 348.195 311.367 348.195 310.586 347.414C309.805 346.633 309.805 345.367 310.586 344.586L321.172 334L310.586 323.414C309.805 322.633 309.805 321.367 310.586 320.586Z" fill="var(--component-illustration-color, #666)" stroke="var(--component-illustration-color, #666)" stroke-width="2" stroke-linecap="round" stroke-linejoin="round"/>
<rect x="350" y="326" width="263" height="16" rx="8" fill="var(--component-illustration-color, #666)"/>
</symbol>
<use href="#component-illustration"/>
</svg>
