<svg width="960" height="540" viewBox="0 0 960 540" fill="none" xmlns="http://www.w3.org/2000/svg">
<symbol id="component-illustration">
    <rect width="960" height="540" fill="var(--component-illustration-background-color, white)"/>
    <rect width="960" height="540" fill="var(--component-illustration-background-color, white)"/>
    <rect width="2" height="540" transform="translate(69)" fill="var(--component-illustration-grid-color, #eee)"/>
    <rect width="2" height="540" transform="translate(151)" fill="var(--component-illustration-grid-color, #eee)"/>
    <rect width="2" height="540" transform="translate(233)" fill="var(--component-illustration-grid-color, #eee)"/>
    <rect width="2" height="540" transform="translate(315)" fill="var(--component-illustration-grid-color, #eee)"/>
    <rect width="2" height="540" transform="translate(397)" fill="var(--component-illustration-grid-color, #eee)"/>
    <rect width="2" height="540" transform="translate(479)" fill="var(--component-illustration-grid-color, #eee)"/>
    <rect width="2" height="540" transform="translate(561)" fill="var(--component-illustration-grid-color, #eee)"/>
    <rect width="2" height="540" transform="translate(643)" fill="var(--component-illustration-grid-color, #eee)"/>
    <rect width="2" height="540" transform="translate(725)" fill="var(--component-illustration-grid-color, #eee)"/>
    <rect width="2" height="540" transform="translate(807)" fill="var(--component-illustration-grid-color, #eee)"/>
    <rect width="2" height="540" transform="translate(889)" fill="var(--component-illustration-grid-color, #eee)"/>
    <rect width="960" height="2" transform="translate(0 64)" fill="var(--component-illustration-grid-color, #eee)"/>
    <rect width="960" height="2" transform="translate(0 146)" fill="var(--component-illustration-grid-color, #eee)"/>
    <rect width="960" height="2" transform="translate(0 228)" fill="var(--component-illustration-grid-color, #eee)"/>
    <rect width="960" height="2" transform="translate(0 310)" fill="var(--component-illustration-grid-color, #eee)"/>
    <rect width="960" height="2" transform="translate(0 392)" fill="var(--component-illustration-grid-color, #eee)"/>
    <rect width="960" height="2" transform="translate(0 474)" fill="var(--component-illustration-grid-color, #eee)"/>
    <rect x="317" y="230" width="326" height="80" stroke="var(--component-illustration-color, #666)" stroke-width="4"/>
    <path fill-rule="evenodd" clip-rule="evenodd" d="M595 250C596.105 250 597 250.895 597 252V254H609V252C609 250.895 609.895 250 611 250C612.105 250 613 250.895 613 252V254H615C618.314 254 621 256.686 621 260V284C621 287.314 618.314 290 615 290H591C587.686 290 585 287.314 585 284V260C585 256.686 587.686 254 591 254H593V252C593 250.895 593.895 250 595 250ZM593 258H591C589.895 258 589 258.895 589 260V266H617V260C617 258.895 616.105 258 615 258H613V260C613 261.105 612.105 262 611 262C609.895 262 609 261.105 609 260V258H597V260C597 261.105 596.105 262 595 262C593.895 262 593 261.105 593 260V258ZM617 270H589V284C589 285.105 589.895 286 591 286H615C616.105 286 617 285.105 617 284V270ZM593 276C593 274.895 593.895 274 595 274H599C600.105 274 601 274.895 601 276V280C601 281.105 600.105 282 599 282H595C593.895 282 593 281.105 593 280V276Z" fill="var(--component-illustration-color, #666)"/>
    <path d="M341 250L341 290" stroke="var(--component-illustration-color, #666)" stroke-width="4" stroke-linecap="round"/>
</symbol>
<use href="#component-illustration"/>
</svg>
