<svg width="960" height="540" viewBox="0 0 960 540" fill="none" xmlns="http://www.w3.org/2000/svg">
<symbol id="component-illustration">
<g clip-path="url(#clip0_1223_2600)">
<rect width="960" height="540" fill="var(--component-illustration-background-color, white)"/>
<g clip-path="url(#clip1_1223_2600)">
<rect width="960" height="540" fill="var(--component-illustration-background-color, white)"/>
<rect width="2" height="540" transform="translate(69)" fill="var(--component-illustration-grid-color, #eee)"/>
<rect width="2" height="540" transform="translate(151)" fill="var(--component-illustration-grid-color, #eee)"/>
<rect width="2" height="540" transform="translate(233)" fill="var(--component-illustration-grid-color, #eee)"/>
<rect width="2" height="540" transform="translate(315)" fill="var(--component-illustration-grid-color, #eee)"/>
<rect width="2" height="540" transform="translate(397)" fill="var(--component-illustration-grid-color, #eee)"/>
<rect width="2" height="540" transform="translate(479)" fill="var(--component-illustration-grid-color, #eee)"/>
<rect width="2" height="540" transform="translate(561)" fill="var(--component-illustration-grid-color, #eee)"/>
<rect width="2" height="540" transform="translate(643)" fill="var(--component-illustration-grid-color, #eee)"/>
<rect width="2" height="540" transform="translate(725)" fill="var(--component-illustration-grid-color, #eee)"/>
<rect width="2" height="540" transform="translate(807)" fill="var(--component-illustration-grid-color, #eee)"/>
<rect width="2" height="540" transform="translate(889)" fill="var(--component-illustration-grid-color, #eee)"/>
<rect width="960" height="2" transform="translate(0 64)" fill="var(--component-illustration-grid-color, #eee)"/>
<rect width="960" height="2" transform="translate(0 146)" fill="var(--component-illustration-grid-color, #eee)"/>
<rect width="960" height="2" transform="translate(0 228)" fill="var(--component-illustration-grid-color, #eee)"/>
<rect width="960" height="2" transform="translate(0 310)" fill="var(--component-illustration-grid-color, #eee)"/>
<rect width="960" height="2" transform="translate(0 392)" fill="var(--component-illustration-grid-color, #eee)"/>
<rect width="960" height="2" transform="translate(0 474)" fill="var(--component-illustration-grid-color, #eee)"/>
</g>
<rect x="233" y="270" width="494" height="16" rx="8" fill="var(--component-illustration-color, #666)"/>
<rect x="233" y="200" width="94" height="16" rx="8" fill="var(--component-illustration-color, #666)"/>
<rect x="233" y="311" width="494" height="16" rx="8" fill="var(--component-illustration-color, #666)"/>
<rect x="233" y="352" width="494" height="16" rx="8" fill="var(--component-illustration-color, #666)"/>
<rect x="233" y="393" width="330" height="16" rx="8" fill="var(--component-illustration-color, #666)"/>
<rect x="233" y="132" width="330" height="40" rx="20" fill="var(--component-illustration-color, #666)"/>
<path d="M130 209L207.449 209M208 208C201.403 206.343 195.769 202 189 202M207.343 208.943C202.95 209.744 199.408 212.095 195.295 213.456C193.139 214.169 190.956 215.001 189.27 216.435" stroke="var(--component-illustration-color, #666)" stroke-width="4" stroke-linecap="round" stroke-linejoin="round"/>
</g>
</symbol>
<use href='#component-illustration'/>
</svg>
