<svg width="960" height="540" viewBox="0 0 960 540" fill="none" xmlns="http://www.w3.org/2000/svg">
<symbol id="component-illustration">
<g clip-path="url(#clip0_1446_2957)">
<rect width="960" height="540" fill="var(--component-illustration-background-color, white)"/>
<g clip-path="url(#clip1_1446_2957)">
<rect width="960" height="540" fill="var(--component-illustration-background-color, white)"/>
<rect width="2" height="540" transform="translate(69)" fill="var(--component-illustration-grid-color, #EEE)"/>
<rect width="2" height="540" transform="translate(151)" fill="var(--component-illustration-grid-color, #EEE)"/>
<rect width="2" height="540" transform="translate(233)" fill="var(--component-illustration-grid-color, #EEE)"/>
<rect width="2" height="540" transform="translate(315)" fill="var(--component-illustration-grid-color, #EEE)"/>
<rect width="2" height="540" transform="translate(397)" fill="var(--component-illustration-grid-color, #EEE)"/>
<rect width="2" height="540" transform="translate(479)" fill="var(--component-illustration-grid-color, #EEE)"/>
<rect width="2" height="540" transform="translate(561)" fill="var(--component-illustration-grid-color, #EEE)"/>
<rect width="2" height="540" transform="translate(643)" fill="var(--component-illustration-grid-color, #EEE)"/>
<rect width="2" height="540" transform="translate(725)" fill="var(--component-illustration-grid-color, #EEE)"/>
<rect width="2" height="540" transform="translate(807)" fill="var(--component-illustration-grid-color, #EEE)"/>
<rect width="2" height="540" transform="translate(889)" fill="var(--component-illustration-grid-color, #EEE)"/>
<rect width="960" height="2" transform="translate(0 64)" fill="var(--component-illustration-grid-color, #EEE)"/>
<rect width="960" height="2" transform="translate(0 146)" fill="var(--component-illustration-grid-color, #EEE)"/>
<rect width="960" height="2" transform="translate(0 228)" fill="var(--component-illustration-grid-color, #EEE)"/>
<rect width="960" height="2" transform="translate(0 310)" fill="var(--component-illustration-grid-color, #EEE)"/>
<rect width="960" height="2" transform="translate(0 392)" fill="var(--component-illustration-grid-color, #EEE)"/>
<rect width="960" height="2" transform="translate(0 474)" fill="var(--component-illustration-grid-color, #EEE)"/>
</g>
<g clip-path="url(#clip2_1446_2957)">
<circle cx="345" cy="229" r="21" fill="var(--component-illustration-color, #666)"/>
</g>
<g clip-path="url(#clip3_1446_2957)">
<circle cx="345" cy="147" r="21" fill="var(--component-illustration-color, #666)"/>
</g>
<g clip-path="url(#clip4_1446_2957)">
<circle cx="345" cy="311" r="21" fill="var(--component-illustration-color, #666)"/>
</g>
<g clip-path="url(#clip5_1446_2957)">
<circle cx="345" cy="393" r="19" stroke="var(--component-illustration-color, #666)" stroke-width="4"/>
</g>
<rect x="385" y="221" width="198" height="16" rx="8" fill="var(--component-illustration-color, #666)"/>
<rect x="385" y="139" width="139" height="16" rx="8" fill="var(--component-illustration-color, #666)"/>
<rect x="385" y="303" width="248" height="16" rx="8" fill="var(--component-illustration-color, #666)"/>
<rect x="385" y="385" width="139" height="16" rx="8" fill="var(--component-illustration-color, #666)"/>
<g clip-path="url(#clip6_1446_2957)">
<path d="M345 166L345 210" stroke="var(--component-illustration-color, #666)" stroke-width="4" stroke-linecap="round"/>
</g>
<g clip-path="url(#clip7_1446_2957)">
<path d="M345 250L345 294" stroke="var(--component-illustration-color, #666)" stroke-width="4" stroke-linecap="round"/>
</g>
<g clip-path="url(#clip8_1446_2957)">
<path d="M345 313L345 391" stroke="var(--component-illustration-color, #666)" stroke-width="4" stroke-linecap="round" stroke-dasharray="6 8"/>
</g>
<path fill-rule="evenodd" clip-rule="evenodd" d="M356.608 139.391C357.129 139.911 357.129 140.755 356.608 141.276L343.275 154.609C342.754 155.13 341.91 155.13 341.389 154.609L334.723 147.943C334.202 147.422 334.202 146.578 334.723 146.057C335.243 145.536 336.087 145.536 336.608 146.057L342.332 151.781L354.723 139.391C355.243 138.87 356.087 138.87 356.608 139.391Z" fill="var(--component-illustration-background-color, white)"/>
<path fill-rule="evenodd" clip-rule="evenodd" d="M356.608 222.391C357.129 222.911 357.129 223.755 356.608 224.276L343.275 237.609C342.754 238.13 341.91 238.13 341.389 237.609L334.723 230.943C334.202 230.422 334.202 229.578 334.723 229.057C335.243 228.536 336.087 228.536 336.608 229.057L342.332 234.781L354.723 222.391C355.243 221.87 356.087 221.87 356.608 222.391Z" fill="var(--component-illustration-background-color, white)"/>
</g>
<defs>
<clipPath id="clip0_1446_2957">
<rect width="960" height="540" fill="var(--component-illustration-background-color, white)"/>
</clipPath>
<clipPath id="clip2_1446_2957">
<rect x="324" y="208" width="42" height="42" rx="21" fill="var(--component-illustration-background-color, white)"/>
</clipPath>
<clipPath id="clip3_1446_2957">
<rect x="324" y="126" width="42" height="42" rx="21" fill="var(--component-illustration-background-color, white)"/>
</clipPath>
<clipPath id="clip4_1446_2957">
<rect x="324" y="290" width="42" height="42" rx="21" fill="var(--component-illustration-background-color, white)"/>
</clipPath>
<clipPath id="clip5_1446_2957">
<rect x="324" y="372" width="42" height="42" rx="21" fill="var(--component-illustration-background-color, white)"/>
</clipPath>
<clipPath id="clip6_1446_2957">
<rect x="343" y="166" width="4" height="44" rx="2" fill="var(--component-illustration-background-color, white)"/>
</clipPath>
<clipPath id="clip7_1446_2957">
<rect x="343" y="250" width="4" height="44" rx="2" fill="var(--component-illustration-background-color, white)"/>
</clipPath>
<clipPath id="clip8_1446_2957">
<rect x="343" y="331" width="4" height="44" rx="2" fill="var(--component-illustration-background-color, white)"/>
</clipPath>
</defs>
</symbol>
<use href="#component-illustration"/>
</svg>
