<svg width="960" height="540" viewBox="0 0 960 540" fill="none" xmlns="http://www.w3.org/2000/svg">
<symbol id="component-illustration">
<rect width="960" height="540" fill="var(--component-illustration-background-color, white)"/>
<rect width="960" height="540" fill="var(--component-illustration-background-color, white)"/>
<g fill="var(--component-illustration-grid-color, #eee)">
    <rect width="2" height="540" transform="translate(69)"/>
    <rect width="2" height="540" transform="translate(151)"/>
    <rect width="2" height="540" transform="translate(233)"/>
    <rect width="2" height="540" transform="translate(315)"/>
    <rect width="2" height="540" transform="translate(397)"/>
    <rect width="2" height="540" transform="translate(479)"/>
    <rect width="2" height="540" transform="translate(561)"/>
    <rect width="2" height="540" transform="translate(643)"/>
    <rect width="2" height="540" transform="translate(725)"/>
    <rect width="2" height="540" transform="translate(807)"/>
    <rect width="2" height="540" transform="translate(889)"/>
    <rect width="960" height="2" transform="translate(0 64)"/>
    <rect width="960" height="2" transform="translate(0 146)"/>
    <rect width="960" height="2" transform="translate(0 228)"/>
    <rect width="960" height="2" transform="translate(0 310)"/>
    <rect width="960" height="2" transform="translate(0 392)"/>
    <rect width="960" height="2" transform="translate(0 474)"/>
</g>
<g filter="url(#filter0_d_640_2967)">
<rect x="233" y="161" width="494" height="218" fill="var(--component-illustration-background-color, white)"/>
<rect x="273" y="209" width="346" height="16" rx="8" fill="var(--component-illustration-color, #666)"/>
<rect x="273" y="241" width="240" height="16" rx="8" fill="var(--component-illustration-color, #666)"/>
<rect x="273" y="289" width="165" height="42" rx="8" fill="var(--component-illustration-color, #666)"/>
<rect x="295.5" y="306" width="120" height="8" rx="4" fill="var(--component-illustration-background-color, white)"/>
<rect x="476.5" y="306" width="120" height="8" rx="4" fill="var(--component-illustration-color, #666)"/>
<rect x="456" y="291" width="161" height="38" rx="6" stroke="var(--component-illustration-color, #666)" stroke-width="4"/>
<path fill-rule="evenodd" clip-rule="evenodd" d="M657.586 203.586C658.367 202.805 659.633 202.805 660.414 203.586L671 214.172L681.586 203.586C682.367 202.805 683.633 202.805 684.414 203.586C685.195 204.367 685.195 205.633 684.414 206.414L673.828 217L684.414 227.586C685.195 228.367 685.195 229.633 684.414 230.414C683.633 231.195 682.367 231.195 681.586 230.414L671 219.828L660.414 230.414C659.633 231.195 658.367 231.195 657.586 230.414C656.805 229.633 656.805 228.367 657.586 227.586L668.172 217L657.586 206.414C656.805 205.633 656.805 204.367 657.586 203.586Z" fill="var(--component-illustration-color, #666)"/>
<rect x="235" y="163" width="490" height="214" stroke="var(--component-illustration-color, #666)" stroke-width="4"/>
</g>
</g>
<defs>
    <filter id="filter0_d_640_2967" x="233" y="161" width="502" height="226" filterUnits="userSpaceOnUse" color-interpolation-filters="sRGB">
        <feFlood flood-opacity="0" result="BackgroundImageFix"/>
        <feColorMatrix in="SourceAlpha" type="matrix" values="0 0 0 0 0 0 0 0 0 0 0 0 0 0 0 0 0 0 127 0" result="hardAlpha"/>
        <feOffset dx="8" dy="8"/>
        <feComposite in2="hardAlpha" operator="out"/>
        <feColorMatrix type="matrix" values="0 0 0 0 0 0 0 0 0 0.254902 0 0 0 0 0.321569 0 0 0 1 0"/>
        <feBlend mode="normal" in2="BackgroundImageFix" result="effect1_dropShadow_640_2967"/>
        <feBlend mode="normal" in="SourceGraphic" in2="effect1_dropShadow_640_2967" result="shape"/>
    </filter>
</defs>
</symbol>
<use href="#component-illustration"/>
</svg>
