<svg width="960" height="540" viewBox="0 0 960 540" fill="none" xmlns="http://www.w3.org/2000/svg">
<symbol id="component-illustration">
<g clip-path="url(#clip0_608_1182)">
<rect width="960" height="540" fill="var(--component-illustration-background-color, white)"/>
<g clip-path="url(#clip1_608_1182)">
<rect width="960" height="540" fill="var(--component-illustration-background-color, white)"/>
<rect width="2" height="540" transform="translate(69)" fill="var(--component-illustration-grid-color, #EEE)"/>
<rect width="2" height="540" transform="translate(151)" fill="var(--component-illustration-grid-color, #EEE)"/>
<rect width="2" height="540" transform="translate(233)" fill="var(--component-illustration-grid-color, #EEE)"/>
<rect width="2" height="540" transform="translate(315)" fill="var(--component-illustration-grid-color, #EEE)"/>
<rect width="2" height="540" transform="translate(397)" fill="var(--component-illustration-grid-color, #EEE)"/>
<rect width="2" height="540" transform="translate(479)" fill="var(--component-illustration-grid-color, #EEE)"/>
<rect width="2" height="540" transform="translate(561)" fill="var(--component-illustration-grid-color, #EEE)"/>
<rect width="2" height="540" transform="translate(643)" fill="var(--component-illustration-grid-color, #EEE)"/>
<rect width="2" height="540" transform="translate(725)" fill="var(--component-illustration-grid-color, #EEE)"/>
<rect width="2" height="540" transform="translate(807)" fill="var(--component-illustration-grid-color, #EEE)"/>
<rect width="2" height="540" transform="translate(889)" fill="var(--component-illustration-grid-color, #EEE)"/>
<rect width="960" height="2" transform="translate(0 64)" fill="var(--component-illustration-grid-color, #EEE)"/>
<rect width="960" height="2" transform="translate(0 146)" fill="var(--component-illustration-grid-color, #EEE)"/>
<rect width="960" height="2" transform="translate(0 228)" fill="var(--component-illustration-grid-color, #EEE)"/>
<rect width="960" height="2" transform="translate(0 310)" fill="var(--component-illustration-grid-color, #EEE)"/>
<rect width="960" height="2" transform="translate(0 392)" fill="var(--component-illustration-grid-color, #EEE)"/>
<rect width="960" height="2" transform="translate(0 474)" fill="var(--component-illustration-grid-color, #EEE)"/>
</g>
<path d="M70 64L70 476" stroke="var(--component-illustration-color, #666)" stroke-width="4" stroke-linecap="round"/>
<path d="M86.3999 64L86.3999 476" stroke="var(--component-illustration-color, #666)" stroke-width="4" stroke-linecap="round"/>
<path d="M102.8 64L102.8 476" stroke="var(--component-illustration-color, #666)" stroke-width="4" stroke-linecap="round"/>
<path d="M119.2 64L119.2 476" stroke="var(--component-illustration-color, #666)" stroke-width="4" stroke-linecap="round"/>
<path d="M135.6 64L135.6 476" stroke="var(--component-illustration-color, #666)" stroke-width="4" stroke-linecap="round"/>
<path d="M152 64L152 476" stroke="var(--component-illustration-color, #666)" stroke-width="4" stroke-linecap="round"/>
<path d="M168.4 64L168.4 476" stroke="var(--component-illustration-color, #666)" stroke-width="4" stroke-linecap="round"/>
<path d="M184.8 64L184.8 476" stroke="var(--component-illustration-color, #666)" stroke-width="4" stroke-linecap="round"/>
<path d="M201.2 64L201.2 476" stroke="var(--component-illustration-color, #666)" stroke-width="4" stroke-linecap="round"/>
<path d="M217.6 64L217.6 476" stroke="var(--component-illustration-color, #666)" stroke-width="4" stroke-linecap="round"/>
<path d="M234 64L234 476" stroke="var(--component-illustration-color, #666)" stroke-width="4" stroke-linecap="round"/>
<path d="M250.4 64L250.4 476" stroke="var(--component-illustration-color, #666)" stroke-width="4" stroke-linecap="round"/>
<path d="M266.8 64L266.8 476" stroke="var(--component-illustration-color, #666)" stroke-width="4" stroke-linecap="round"/>
<path d="M283.2 64L283.2 476" stroke="var(--component-illustration-color, #666)" stroke-width="4" stroke-linecap="round"/>
<path d="M299.6 64L299.6 476" stroke="var(--component-illustration-color, #666)" stroke-width="4" stroke-linecap="round"/>
<path d="M316 64L316 476" stroke="var(--component-illustration-color, #666)" stroke-width="4" stroke-linecap="round"/>
<path d="M332.4 64L332.4 476" stroke="var(--component-illustration-color, #666)" stroke-width="4" stroke-linecap="round"/>
<path d="M348.8 64L348.8 476" stroke="var(--component-illustration-color, #666)" stroke-width="4" stroke-linecap="round"/>
<path d="M365.2 64L365.2 476" stroke="var(--component-illustration-color, #666)" stroke-width="4" stroke-linecap="round"/>
<path d="M381.6 64L381.6 476" stroke="var(--component-illustration-color, #666)" stroke-width="4" stroke-linecap="round"/>
<path d="M398 64L398 476" stroke="var(--component-illustration-color, #666)" stroke-width="4" stroke-linecap="round"/>
<path d="M414.4 64L414.4 476" stroke="var(--component-illustration-color, #666)" stroke-width="4" stroke-linecap="round"/>
<path d="M430.8 64L430.8 476" stroke="var(--component-illustration-color, #666)" stroke-width="4" stroke-linecap="round"/>
<path d="M447.2 64L447.2 476" stroke="var(--component-illustration-color, #666)" stroke-width="4" stroke-linecap="round"/>
<path d="M463.6 64L463.6 476" stroke="var(--component-illustration-color, #666)" stroke-width="4" stroke-linecap="round"/>
<path d="M480 64L480 476" stroke="var(--component-illustration-color, #666)" stroke-width="4" stroke-linecap="round"/>
<path d="M496.4 64L496.4 476" stroke="var(--component-illustration-color, #666)" stroke-width="4" stroke-linecap="round"/>
<path d="M512.8 64L512.8 476" stroke="var(--component-illustration-color, #666)" stroke-width="4" stroke-linecap="round"/>
<path d="M529.2 64L529.2 476" stroke="var(--component-illustration-color, #666)" stroke-width="4" stroke-linecap="round"/>
<path d="M545.6 64L545.6 476" stroke="var(--component-illustration-color, #666)" stroke-width="4" stroke-linecap="round"/>
<path d="M562 64L562 476" stroke="var(--component-illustration-color, #666)" stroke-width="4" stroke-linecap="round"/>
<path d="M578.4 64L578.4 476" stroke="var(--component-illustration-color, #666)" stroke-width="4" stroke-linecap="round"/>
<path d="M594.8 64L594.8 476" stroke="var(--component-illustration-color, #666)" stroke-width="4" stroke-linecap="round"/>
<path d="M611.2 64L611.2 476" stroke="var(--component-illustration-color, #666)" stroke-width="4" stroke-linecap="round"/>
<path d="M627.6 64L627.6 476" stroke="var(--component-illustration-color, #666)" stroke-width="4" stroke-linecap="round"/>
<path d="M644 64L644 476" stroke="var(--component-illustration-color, #666)" stroke-width="4" stroke-linecap="round"/>
<path d="M660.4 64L660.4 476" stroke="var(--component-illustration-color, #666)" stroke-width="4" stroke-linecap="round"/>
<path d="M676.8 64L676.8 476" stroke="var(--component-illustration-color, #666)" stroke-width="4" stroke-linecap="round"/>
<path d="M693.2 64L693.2 476" stroke="var(--component-illustration-color, #666)" stroke-width="4" stroke-linecap="round"/>
<path d="M709.6 64L709.6 476" stroke="var(--component-illustration-color, #666)" stroke-width="4" stroke-linecap="round"/>
<path d="M726 64L726 476" stroke="var(--component-illustration-color, #666)" stroke-width="4" stroke-linecap="round"/>
<path d="M742.4 64L742.4 476" stroke="var(--component-illustration-color, #666)" stroke-width="4" stroke-linecap="round"/>
<path d="M758.8 64L758.8 476" stroke="var(--component-illustration-color, #666)" stroke-width="4" stroke-linecap="round"/>
<path d="M775.2 64L775.2 476" stroke="var(--component-illustration-color, #666)" stroke-width="4" stroke-linecap="round"/>
<path d="M791.6 64L791.6 476" stroke="var(--component-illustration-color, #666)" stroke-width="4" stroke-linecap="round"/>
<path d="M808 64L808 476" stroke="var(--component-illustration-color, #666)" stroke-width="4" stroke-linecap="round"/>
<path d="M824.4 64L824.4 476" stroke="var(--component-illustration-color, #666)" stroke-width="4" stroke-linecap="round"/>
<path d="M840.8 64L840.8 476" stroke="var(--component-illustration-color, #666)" stroke-width="4" stroke-linecap="round"/>
<path d="M857.2 64L857.2 476" stroke="var(--component-illustration-color, #666)" stroke-width="4" stroke-linecap="round"/>
<path d="M873.6 64L873.6 476" stroke="var(--component-illustration-color, #666)" stroke-width="4" stroke-linecap="round"/>
<path d="M890 64L890 476" stroke="var(--component-illustration-color, #666)" stroke-width="4" stroke-linecap="round"/>
<g clip-path="url(#clip2_608_1182)">
<rect x="241" y="169" width="494" height="218" fill="var(--component-illustration-color, #666)"/>
</g>
<rect x="235" y="163" width="490" height="214" rx="2" fill="var(--component-illustration-background-color, white)"/>
<rect x="235" y="163" width="490" height="214" rx="2" stroke="var(--component-illustration-color, #666)" stroke-width="4"/>
<path fill-rule="evenodd" clip-rule="evenodd" d="M291.741 216.012C292.8 214.113 294.804 212.936 296.98 212.936C299.155 212.936 301.16 214.113 302.219 216.012L316.41 240.496C316.457 240.577 316.499 240.662 316.534 240.749C317.279 242.592 317.064 244.684 315.959 246.336C314.853 247.988 313.002 248.985 311.014 248.999L311 248.999H283C282.963 248.999 282.927 248.998 282.891 248.996C282.82 249 282.749 249 282.677 248.996C280.738 248.896 278.966 247.864 277.924 246.226C276.881 244.587 276.696 242.546 277.427 240.746C277.462 240.66 277.503 240.577 277.55 240.496L291.741 216.012ZM282.889 245.002C282.926 245 282.963 244.999 283 244.999H310.992C311.652 244.992 312.267 244.66 312.634 244.111C312.981 243.593 313.065 242.945 312.867 242.359L298.75 218.002L298.73 217.967C298.378 217.331 297.707 216.936 296.98 216.936C296.252 216.936 295.582 217.331 295.23 217.967L295.21 218.002L281.092 242.36C280.898 242.932 280.972 243.565 281.299 244.078C281.646 244.624 282.236 244.968 282.883 245.002C282.885 245.002 282.887 245.002 282.889 245.002ZM297 224.999C298.104 224.999 299 225.894 299 226.999V230.999C299 232.104 298.104 232.999 297 232.999C295.895 232.999 295 232.104 295 230.999V226.999C295 225.894 295.895 224.999 297 224.999ZM295 238.999C295 237.894 295.895 236.999 297 236.999H297.02C298.124 236.999 299.02 237.894 299.02 238.999C299.02 240.104 298.124 240.999 297.02 240.999H297C295.895 240.999 295 240.104 295 238.999Z" fill="var(--component-illustration-color, #666)"/>
<rect x="345" y="209" width="346" height="16" rx="8" fill="var(--component-illustration-color, #666)"/>
<rect x="345" y="241" width="240" height="16" rx="8" fill="var(--component-illustration-color, #666)"/>
<rect x="345" y="289" width="165" height="42" rx="8" fill="var(--component-illustration-color, #666)"/>
<rect x="367.5" y="306" width="120" height="8" rx="4" fill="var(--component-illustration-background-color, white)"/>
<rect x="528" y="291" width="161" height="38" rx="6" stroke="var(--component-illustration-color, #666)" stroke-width="4"/>
<rect x="548.5" y="306" width="120" height="8" rx="4" fill="var(--component-illustration-color, #666)"/>
</g>
<defs>
<clipPath id="clip0_608_1182">
<rect width="960" height="540" fill="var(--component-illustration-background-color, white)"/>
</clipPath>
<clipPath id="clip1_608_1182">
<rect width="960" height="540" fill="var(--component-illustration-background-color, white)"/>
</clipPath>
<clipPath id="clip2_608_1182">
<rect x="241" y="169" width="494" height="218" rx="4" fill="var(--component-illustration-background-color, white)"/>
</clipPath>
</defs>
</symbol>
<use href="#component-illustration"/>
</svg>
