<svg width="960" height="540" viewBox="0 0 960 540" fill="none" xmlns="http://www.w3.org/2000/svg">
<symbol id="component-illustration">
<g clip-path="url(#clip0_641_3256)">
<rect width="960" height="540" fill="var(--component-illustration-background-color, white)"/>
<g clip-path="url(#clip1_641_3256)">
<rect width="960" height="540" fill="var(--component-illustration-background-color, white)"/>
<rect width="2" height="540" transform="translate(69)" fill="var(--component-illustration-grid-color, #eee)"/>
<rect width="2" height="540" transform="translate(151)" fill="var(--component-illustration-grid-color, #eee)"/>
<rect width="2" height="540" transform="translate(233)" fill="var(--component-illustration-grid-color, #eee)"/>
<rect width="2" height="540" transform="translate(315)" fill="var(--component-illustration-grid-color, #eee)"/>
<rect width="2" height="540" transform="translate(397)" fill="var(--component-illustration-grid-color, #eee)"/>
<rect width="2" height="540" transform="translate(479)" fill="var(--component-illustration-grid-color, #eee)"/>
<rect width="2" height="540" transform="translate(561)" fill="var(--component-illustration-grid-color, #eee)"/>
<rect width="2" height="540" transform="translate(643)" fill="var(--component-illustration-grid-color, #eee)"/>
<rect width="2" height="540" transform="translate(725)" fill="var(--component-illustration-grid-color, #eee)"/>
<rect width="2" height="540" transform="translate(807)" fill="var(--component-illustration-grid-color, #eee)"/>
<rect width="2" height="540" transform="translate(889)" fill="var(--component-illustration-grid-color, #eee)"/>
<rect width="960" height="2" transform="translate(0 64)" fill="var(--component-illustration-grid-color, #eee)"/>
<rect width="960" height="2" transform="translate(0 146)" fill="var(--component-illustration-grid-color, #eee)"/>
<rect width="960" height="2" transform="translate(0 228)" fill="var(--component-illustration-grid-color, #eee)"/>
<rect width="960" height="2" transform="translate(0 310)" fill="var(--component-illustration-grid-color, #eee)"/>
<rect width="960" height="2" transform="translate(0 392)" fill="var(--component-illustration-grid-color, #eee)"/>
<rect width="960" height="2" transform="translate(0 474)" fill="var(--component-illustration-grid-color, #eee)"/>
</g>
<g clip-path="url(#clip2_641_3256)">
<path d="M480 187C434.16 187 397 224.16 397 270C397 315.84 434.16 353 480 353C525.84 353 563 315.84 563 270C563 254.675 558.847 240.321 551.605 228" stroke="var(--component-illustration-color, #666)" stroke-width="22"/>
</g>
</g>
<defs>
<clipPath id="clip0_641_3256">
<rect width="960" height="540"/>
</clipPath>
<clipPath id="clip1_641_3256">
<rect width="960" height="540"/>
</clipPath>
<clipPath id="clip2_641_3256">
<rect x="397" y="187" width="166" height="166" rx="83"/>
</clipPath>
</defs>
</symbol>
<use href="#component-illustration"/>
</svg>
