<svg width="960" height="540" viewBox="0 0 960 540" fill="none" xmlns="http://www.w3.org/2000/svg">
<symbol id="component-illustration">
<rect width="960" height="540" fill="var(--component-illustration-background-color, white)"/>
<rect width="960" height="540" fill="var(--component-illustration-background-color, white)"/>
<rect width="2" height="540" transform="translate(69)" fill="var(--component-illustration-grid-color, #eee)"/>
<rect width="2" height="540" transform="translate(151)" fill="var(--component-illustration-grid-color, #eee)"/>
<rect width="2" height="540" transform="translate(233)" fill="var(--component-illustration-grid-color, #eee)"/>
<rect width="2" height="540" transform="translate(315)" fill="var(--component-illustration-grid-color, #eee)"/>
<rect width="2" height="540" transform="translate(397)" fill="var(--component-illustration-grid-color, #eee)"/>
<rect width="2" height="540" transform="translate(479)" fill="var(--component-illustration-grid-color, #eee)"/>
<rect width="2" height="540" transform="translate(561)" fill="var(--component-illustration-grid-color, #eee)"/>
<rect width="2" height="540" transform="translate(643)" fill="var(--component-illustration-grid-color, #eee)"/>
<rect width="2" height="540" transform="translate(725)" fill="var(--component-illustration-grid-color, #eee)"/>
<rect width="2" height="540" transform="translate(807)" fill="var(--component-illustration-grid-color, #eee)"/>
<rect width="2" height="540" transform="translate(889)" fill="var(--component-illustration-grid-color, #eee)"/>
<rect width="960" height="2" transform="translate(0 64)" fill="var(--component-illustration-grid-color, #eee)"/>
<rect width="960" height="2" transform="translate(0 146)" fill="var(--component-illustration-grid-color, #eee)"/>
<rect width="960" height="2" transform="translate(0 228)" fill="var(--component-illustration-grid-color, #eee)"/>
<rect width="960" height="2" transform="translate(0 310)" fill="var(--component-illustration-grid-color, #eee)"/>
<rect width="960" height="2" transform="translate(0 392)" fill="var(--component-illustration-grid-color, #eee)"/>
<rect width="960" height="2" transform="translate(0 474)" fill="var(--component-illustration-grid-color, #eee)"/>
<circle cx="357" cy="312" r="19" stroke="var(--component-illustration-color, #666)" stroke-width="4"/>
<rect x="397" y="304" width="248" height="16" rx="8" fill="var(--component-illustration-color, #666)"/>
<circle cx="9" cy="9" r="9" transform="matrix(-1 0 0 1 366 303)" fill="var(--component-illustration-color, #666)"/>
<rect x="336" y="207" width="42" height="42" fill="var(--component-illustration-color, #666)"/>
<path fill-rule="evenodd" clip-rule="evenodd" d="M372.237 218.013C372.921 218.696 372.921 219.804 372.237 220.487L354.737 237.987C354.054 238.671 352.946 238.671 352.263 237.987L343.513 229.237C342.829 228.554 342.829 227.446 343.513 226.763C344.196 226.079 345.304 226.079 345.987 226.763L353.5 234.275L369.763 218.013C370.446 217.329 371.554 217.329 372.237 218.013Z" fill="var(--component-illustration-background-color, white)"/>
<rect x="397" y="220" width="248" height="16" rx="8" fill="var(--component-illustration-color, #666)"/>
<path d="M521 107L521 184.449M522 185C523.656 178.403 528 172.769 528 166M521.056 184.343C520.255 179.95 517.905 176.408 516.544 172.295C515.83 170.139 514.999 167.956 513.564 166.27" stroke="var(--component-illustration-color, #666)" stroke-width="4" stroke-linecap="round" stroke-linejoin="round"/>
<path d="M521 432L521 354.551M520 354C518.344 360.597 514 366.231 514 373M520.944 354.657C521.745 359.05 524.095 362.592 525.456 366.705C526.17 368.861 527.001 371.044 528.436 372.73" stroke="var(--component-illustration-color, #666)" stroke-width="4" stroke-linecap="round" stroke-linejoin="round"/>
</symbol>
<use href="#component-illustration"/>
</svg>
