<svg width="960" height="540" viewBox="0 0 960 540" fill="none" xmlns="http://www.w3.org/2000/svg">
<symbol id="component-illustration">
<rect width="960" height="540" fill="var(--component-illustration-background-color, white)"/>
<rect width="960" height="540" fill="var(--component-illustration-background-color, white)"/>
<rect width="2" height="540" transform="translate(69)" fill="var(--component-illustration-grid-color, #eee)"/>
<rect width="2" height="540" transform="translate(151)" fill="var(--component-illustration-grid-color, #eee)"/>
<rect width="2" height="540" transform="translate(233)" fill="var(--component-illustration-grid-color, #eee)"/>
<rect width="2" height="540" transform="translate(315)" fill="var(--component-illustration-grid-color, #eee)"/>
<rect width="2" height="540" transform="translate(397)" fill="var(--component-illustration-grid-color, #eee)"/>
<rect width="2" height="540" transform="translate(479)" fill="var(--component-illustration-grid-color, #eee)"/>
<rect width="2" height="540" transform="translate(561)" fill="var(--component-illustration-grid-color, #eee)"/>
<rect width="2" height="540" transform="translate(643)" fill="var(--component-illustration-grid-color, #eee)"/>
<rect width="2" height="540" transform="translate(725)" fill="var(--component-illustration-grid-color, #eee)"/>
<rect width="2" height="540" transform="translate(807)" fill="var(--component-illustration-grid-color, #eee)"/>
<rect width="2" height="540" transform="translate(889)" fill="var(--component-illustration-grid-color, #eee)"/>
<rect width="960" height="2" transform="translate(0 64)" fill="var(--component-illustration-grid-color, #eee)"/>
<rect width="960" height="2" transform="translate(0 146)" fill="var(--component-illustration-grid-color, #eee)"/>
<rect width="960" height="2" transform="translate(0 228)" fill="var(--component-illustration-grid-color, #eee)"/>
<rect width="960" height="2" transform="translate(0 310)" fill="var(--component-illustration-grid-color, #eee)"/>
<rect width="960" height="2" transform="translate(0 392)" fill="var(--component-illustration-grid-color, #eee)"/>
<rect width="960" height="2" transform="translate(0 474)" fill="var(--component-illustration-grid-color, #eee)"/>
<rect x="319" y="230" width="322" height="80" stroke="var(--component-illustration-color, #666)" stroke-width="4"/>
<path d="M351.438 254.96C353.171 254.96 354.665 255.293 355.918 255.96C357.198 256.627 358.171 257.547 358.838 258.72C359.531 259.893 359.878 261.213 359.878 262.68C359.878 264.36 359.491 265.987 358.718 267.56C357.945 269.133 356.691 270.88 354.958 272.8C353.251 274.693 350.825 277.067 347.678 279.92H360.518L360.078 283H343.478V280.08C347.051 276.64 349.691 273.96 351.398 272.04C353.131 270.12 354.331 268.48 354.998 267.12C355.691 265.76 356.038 264.333 356.038 262.84C356.038 261.347 355.611 260.173 354.758 259.32C353.905 258.44 352.731 258 351.238 258C349.958 258 348.878 258.227 347.998 258.68C347.145 259.133 346.278 259.88 345.398 260.92L342.918 259C344.011 257.64 345.238 256.627 346.598 255.96C347.958 255.293 349.571 254.96 351.438 254.96Z" fill="var(--component-illustration-color, #666)"/>
<path d="M383.941 273.48V276.4H380.461V283H376.901V276.4H365.461V273.76L373.501 254.96L376.581 256.24L369.341 273.48H376.941L377.261 265.8H380.461V273.48H383.941Z" fill="var(--component-illustration-color, #666)"/>
</symbol>
<use href="#component-illustration"/>
</svg>
