<svg xmlns="http://www.w3.org/2000/svg" width="960" height="540" viewBox="0 0 960 540">
 <!-- This ensures the component can be found in the ComponentIllustration component -->
    <symbol id="component-illustration" viewBox="0 0 960 540">
    
        <!-- Use variables to set backgroundcolors so they can change with the status of the component without modififying this file -->
        <g fill="var(--component-illustration-background-color, white)">
            <rect width="960" height="540"/>
            <rect width="960" height="540"/>
        </g>
        <g fill="var(--component-illustration-grid-color, #eee)">
            <rect width="2" height="540" transform="translate(69)"/>
            <rect width="2" height="540" transform="translate(151)"/>
            <rect width="2" height="540" transform="translate(233)"/>
            <rect width="2" height="540" transform="translate(315)"/>
            <rect width="2" height="540" transform="translate(397)"/>
            <rect width="2" height="540" transform="translate(479)"/>
            <rect width="2" height="540" transform="translate(561)"/>
            <rect width="2" height="540" transform="translate(643)"/>
            <rect width="2" height="540" transform="translate(725)"/>
            <rect width="2" height="540" transform="translate(807)"/>
            <rect width="2" height="540" transform="translate(889)"/>
            <rect width="960" height="2" transform="translate(0 64)"/>
            <rect width="960" height="2" transform="translate(0 146)"/>
            <rect width="960" height="2" transform="translate(0 228)"/>
            <rect width="960" height="2" transform="translate(0 310)"/>
            <rect width="960" height="2" transform="translate(0 392)"/>
            <rect width="960" height="2" transform="translate(0 474)"/>
        </g>
        <rect x="153" y="192" width="654" height="156" stroke="var(--component-illustration-color, #666)" stroke-width="4" fill="var(--component-illustration-background-color, white)"/>
        <g fill="var(--component-illustration-color, #666)">
            <path d="M209.741 253.012C210.8 251.113 212.805 249.935 214.98 249.935C217.155 249.935 219.16 251.113 220.219 253.012L234.41 277.496C234.458 277.577 234.499 277.662 234.534 277.749C235.279 279.592 235.064 281.684 233.959 283.336C232.853 284.988 231.002 285.985 229.014 285.999L229 285.999H201C200.963 285.999 200.927 285.998 200.891 285.996C200.821 286 200.749 286 200.677 285.996C198.738 285.896 196.967 284.864 195.924 283.226C194.881 281.587 194.696 279.546 195.427 277.746C195.462 277.66 195.503 277.577 195.55 277.496L209.741 253.012ZM200.89 282.002C200.926 282 200.963 281.999 201 281.999H228.992C229.652 281.992 230.267 281.66 230.634 281.111C230.981 280.593 231.065 279.945 230.867 279.359L216.75 255.002L216.73 254.967C216.378 254.331 215.708 253.935 214.98 253.935C214.252 253.935 213.582 254.331 213.23 254.967L213.21 255.002L199.093 279.36C198.898 279.932 198.972 280.565 199.299 281.078C199.646 281.624 200.237 281.968 200.883 282.002C200.885 282.002 200.887 282.002 200.89 282.002ZM215 261.999C216.105 261.999 217 262.894 217 263.999V267.999C217 269.104 216.105 269.999 215 269.999C213.895 269.999 213 269.104 213 267.999V263.999C213 262.894 213.895 261.999 215 261.999ZM213 275.999C213 274.894 213.895 273.999 215 273.999H215.02C216.125 273.999 217.02 274.894 217.02 275.999C217.02 277.104 216.125 277.999 215.02 277.999H215C213.895 277.999 213 277.104 213 275.999Z" />
            <rect x="263" y="246" width="480" height="16" rx="8" />
            <rect x="263" y="278" width="240" height="16" rx="8" />
        </g>
        <g stroke="var(--component-illustration-color, #666)">
            <path d="M152 160L152 180" stroke-width="4" stroke-linecap="round"/>
            <path d="M129.5 168.5L143.698 182.698" stroke-width="4" stroke-linecap="round"/>
            <path d="M121 191H141" stroke-width="4" stroke-linecap="round"/>
            <path d="M808 380L808 360" stroke-width="4" stroke-linecap="round"/>
            <path d="M830.5 371.5L816.302 357.302" stroke-width="4" stroke-linecap="round"/>
            <path d="M839 349L819 349" stroke-width="4" stroke-linecap="round"/>
            <path d="M121 350L141 350" stroke-width="4" stroke-linecap="round"/>
            <path d="M129.5 371.5L143.698 357.302" stroke-width="4" stroke-linecap="round"/>
            <path d="M152 380L152 360" stroke-width="4" stroke-linecap="round"/>
            <path d="M839 190L819 190" stroke-width="4" stroke-linecap="round"/>
            <path d="M830.5 168.5L816.302 182.698" stroke-width="4" stroke-linecap="round"/>
            <path d="M808 160L808 180" stroke-width="4" stroke-linecap="round"/>
       </g>
    </symbol>
    <use href="#component-illustration"/>
</svg>