<svg width="960" height="540" viewBox="0 0 960 540" fill="none" xmlns="http://www.w3.org/2000/svg">
<symbol id="component-illustration">
<rect width="960" height="540" fill="var(--component-illustration-background-color, white)"/>
<rect width="960" height="540" fill="var(--component-illustration-background-color, white)"/>
<rect width="2" height="540" transform="translate(69)" fill="var(--component-illustration-grid-color, #eee)"/>
<rect width="2" height="540" transform="translate(151)" fill="var(--component-illustration-grid-color, #eee)"/>
<rect width="2" height="540" transform="translate(233)" fill="var(--component-illustration-grid-color, #eee)"/>
<rect width="2" height="540" transform="translate(315)" fill="var(--component-illustration-grid-color, #eee)"/>
<rect width="2" height="540" transform="translate(397)" fill="var(--component-illustration-grid-color, #eee)"/>
<rect width="2" height="540" transform="translate(479)" fill="var(--component-illustration-grid-color, #eee)"/>
<rect width="2" height="540" transform="translate(561)" fill="var(--component-illustration-grid-color, #eee)"/>
<rect width="2" height="540" transform="translate(643)" fill="var(--component-illustration-grid-color, #eee)"/>
<rect width="2" height="540" transform="translate(725)" fill="var(--component-illustration-grid-color, #eee)"/>
<rect width="2" height="540" transform="translate(807)" fill="var(--component-illustration-grid-color, #eee)"/>
<rect width="2" height="540" transform="translate(889)" fill="var(--component-illustration-grid-color, #eee)"/>
<rect width="960" height="2" transform="translate(0 64)" fill="var(--component-illustration-grid-color, #eee)"/>
<rect width="960" height="2" transform="translate(0 146)" fill="var(--component-illustration-grid-color, #eee)"/>
<rect width="960" height="2" transform="translate(0 228)" fill="var(--component-illustration-grid-color, #eee)"/>
<rect width="960" height="2" transform="translate(0 310)" fill="var(--component-illustration-grid-color, #eee)"/>
<rect width="960" height="2" transform="translate(0 392)" fill="var(--component-illustration-grid-color, #eee)"/>
<rect width="960" height="2" transform="translate(0 474)" fill="var(--component-illustration-grid-color, #eee)"/>
<path fill-rule="evenodd" clip-rule="evenodd" d="M209.739 253.012C210.799 251.113 212.803 249.935 214.978 249.935C217.154 249.935 219.158 251.113 220.218 253.012L234.409 277.496C234.456 277.577 234.497 277.662 234.532 277.749C235.278 279.592 235.062 281.684 233.957 283.336C232.852 284.988 231 285.985 229.012 285.999L228.998 285.999H200.998C200.962 285.999 200.926 285.998 200.889 285.996C200.819 286 200.748 286 200.675 285.996C198.736 285.896 196.965 284.864 195.922 283.226C194.88 281.587 194.695 279.546 195.425 277.746C195.46 277.66 195.501 277.577 195.548 277.496L209.739 253.012ZM200.888 282.002C200.925 282 200.961 281.999 200.998 281.999H228.99C229.651 281.992 230.265 281.66 230.633 281.111C230.979 280.593 231.063 279.945 230.865 279.359L216.748 255.002L216.728 254.967C216.376 254.331 215.706 253.935 214.978 253.935C214.251 253.935 213.581 254.331 213.228 254.967L213.209 255.002L199.091 279.36C198.896 279.932 198.97 280.565 199.297 281.078C199.645 281.624 200.235 281.968 200.881 282.002C200.884 282.002 200.886 282.002 200.888 282.002ZM214.998 261.999C216.103 261.999 216.998 262.894 216.998 263.999V267.999C216.998 269.104 216.103 269.999 214.998 269.999C213.894 269.999 212.998 269.104 212.998 267.999V263.999C212.998 262.894 213.894 261.999 214.998 261.999ZM212.998 275.999C212.998 274.894 213.894 273.999 214.998 273.999H215.018C216.123 273.999 217.018 274.894 217.018 275.999C217.018 277.104 216.123 277.999 215.018 277.999H214.998C213.894 277.999 212.998 277.104 212.998 275.999Z" fill="var(--component-illustration-color, #666)"/>
<rect x="263" y="246" width="480" height="16" rx="8" fill="var(--component-illustration-color, #666)"/>
<rect x="263" y="278" width="240" height="16" rx="8" fill="var(--component-illustration-color, #666)"/>
<rect x="153" y="192" width="654" height="156" stroke="var(--component-illustration-color, #666)" stroke-width="4"/>
</symbol>
<use href="#component-illustration"/>
</svg>
