<svg width="80" height="32" fill="none" xmlns="http://www.w3.org/2000/svg"><g filter="url(#a)"><path fill="#fff" d="M0 0h80v32H0z"/><path fill-rule="evenodd" clip-rule="evenodd" d="M15.293 23.707a1 1 0 0 0 1.414-1.414L11.414 17H23a1 1 0 1 0 0-2H11.414l5.293-5.293a1 1 0 0 0-1.414-1.414l-7 7a.997.997 0 0 0-.294.705l.001.002v.003a.997.997 0 0 0 .286.698l.008.007m6.999 7-7-7Z" fill="#3F3F3F"/><path d="M42.464 15.176c.757.128 1.37.395 1.84.8s.704 1.035.704 1.888c0 2.09-1.456 3.136-4.368 3.136H37.6V9.976h2.608c1.397 0 2.464.23 3.2.688.747.459 1.12 1.157 1.12 2.096 0 .64-.203 1.173-.608 1.6-.395.427-.88.699-1.456.816Zm-3.344-4v3.472h1.664c.64 0 1.163-.155 1.568-.464.416-.31.624-.747.624-1.312 0-.64-.219-1.083-.656-1.328-.427-.245-1.077-.368-1.952-.368H39.12Zm1.52 8.608c.896 0 1.579-.133 2.048-.4.48-.267.72-.773.72-1.52 0-.725-.23-1.248-.688-1.568-.459-.32-1.056-.48-1.792-.48H39.12v3.968h1.52Zm12.294-.752c0 .341.059.597.176.768.118.16.294.283.528.368l-.336 1.024c-.437-.053-.789-.176-1.056-.368-.266-.192-.464-.49-.592-.896-.565.843-1.402 1.264-2.512 1.264-.832 0-1.488-.235-1.968-.704-.48-.47-.72-1.083-.72-1.84 0-.896.32-1.584.96-2.064.651-.48 1.568-.72 2.752-.72h1.296v-.624c0-.597-.144-1.024-.432-1.28-.288-.256-.73-.384-1.328-.384-.618 0-1.376.15-2.272.448l-.368-1.072c1.046-.384 2.016-.576 2.912-.576.992 0 1.734.245 2.224.736.491.48.736 1.168.736 2.064v3.856Zm-3.456 1.056c.843 0 1.504-.437 1.984-1.312V16.84h-1.104c-1.557 0-2.336.576-2.336 1.728 0 .501.123.88.368 1.136.246.256.608.384 1.088.384Zm9.551-7.712c.502 0 .96.075 1.377.224a3.71 3.71 0 0 1 1.2.688l-.705.928a3.35 3.35 0 0 0-.88-.464 2.566 2.566 0 0 0-.928-.16c-.682 0-1.216.272-1.6.816-.373.544-.56 1.35-.56 2.416 0 1.067.187 1.856.56 2.368.374.501.907.752 1.6.752.331 0 .635-.048.912-.144.278-.107.587-.272.928-.496l.672.96c-.767.619-1.626.928-2.575.928-1.142 0-2.043-.384-2.705-1.152-.65-.768-.976-1.83-.976-3.184 0-.896.15-1.68.449-2.352.298-.672.72-1.195 1.264-1.568.554-.373 1.21-.56 1.968-.56ZM65.07 9v12h-1.472V9.176L65.07 9Zm4.848 3.568-3.104 3.728L70.27 21h-1.76l-3.344-4.608 3.104-3.824h1.648Z" fill="#1C1C1C"/></g><defs><filter id="a" x="0" y="0" width="80" height="32" filterUnits="userSpaceOnUse" color-interpolation-filters="sRGB"><feFlood flood-opacity="0" result="BackgroundImageFix"/><feBlend in="SourceGraphic" in2="BackgroundImageFix" result="shape"/><feColorMatrix in="SourceAlpha" values="0 0 0 0 0 0 0 0 0 0 0 0 0 0 0 0 0 0 127 0" result="hardAlpha"/><feMorphology radius="1" in="SourceAlpha" result="effect1_innerShadow_2724_6581"/><feOffset/><feComposite in2="hardAlpha" operator="arithmetic" k2="-1" k3="1"/><feColorMatrix values="0 0 0 0 0.392157 0 0 0 0 0.392157 0 0 0 0 0.392157 0 0 0 1 0"/><feBlend in2="shape" result="effect1_innerShadow_2724_6581"/></filter></defs></svg>