<svg width="616" height="112" fill="none" xmlns="http://www.w3.org/2000/svg"><path fill="#fff" d="M0 0h616v112H0z"/><path fill="#fff" d="M0 0h616v40H0z"/><path d="m26 23-6-6-6 6" stroke="#1C1C1C" stroke-width="2" stroke-linecap="round" stroke-linejoin="round"/><path d="m49.126 12.598-.18 1.458h-3.438V25h-1.71V14.056H40.27v-1.458h8.856Zm7.876 10.188c0 .384.066.672.198.864.132.18.33.318.594.414l-.378 1.152c-.492-.06-.888-.198-1.188-.414-.3-.216-.522-.552-.666-1.008-.636.948-1.578 1.422-2.826 1.422-.936 0-1.674-.264-2.214-.792s-.81-1.218-.81-2.07c0-1.008.36-1.782 1.08-2.322.732-.54 1.764-.81 3.096-.81h1.458v-.702c0-.672-.162-1.152-.486-1.44-.324-.288-.822-.432-1.494-.432-.696 0-1.548.168-2.556.504l-.414-1.206c1.176-.432 2.268-.648 3.276-.648 1.116 0 1.95.276 2.502.828.552.54.828 1.314.828 2.322v4.338Zm-3.888 1.188c.948 0 1.692-.492 2.232-1.476V20.32h-1.242c-1.752 0-2.628.648-2.628 1.944 0 .564.138.99.414 1.278.276.288.684.432 1.224.432Zm12.145-8.676c1.212 0 2.1.432 2.664 1.296.564.864.846 2.082.846 3.654 0 1.488-.324 2.688-.972 3.6-.648.912-1.566 1.368-2.754 1.368-1.056 0-1.884-.36-2.484-1.08v4.5l-1.656.198v-13.32h1.422l.126 1.278c.348-.48.768-.846 1.26-1.098a3.23 3.23 0 0 1 1.548-.396Zm-.612 8.568c1.56 0 2.34-1.206 2.34-3.618 0-2.424-.714-3.636-2.142-3.636a2.14 2.14 0 0 0-1.278.414c-.384.276-.72.63-1.008 1.062v4.626c.24.372.54.66.9.864.36.192.756.288 1.188.288Zm9.1-8.352V25H72.09v-9.486h1.656ZM72.9 10.96c.348 0 .63.108.846.324.216.216.324.486.324.81 0 .324-.108.594-.324.81-.216.204-.498.306-.846.306-.336 0-.612-.102-.828-.306a1.099 1.099 0 0 1-.324-.81c0-.324.108-.594.324-.81.216-.216.492-.324.828-.324Zm8.892 4.338c.336 0 .648.036.936.108l-.306 1.62a3.413 3.413 0 0 0-.828-.108c-.588 0-1.062.216-1.422.648-.36.432-.642 1.104-.846 2.016V25H77.67v-9.486h1.422l.162 1.926c.252-.708.594-1.242 1.026-1.602a2.29 2.29 0 0 1 1.512-.54Z" fill="#1B1B1B"/><path fill="#fff" d="M0 48h616v64H0z"/><path d="M9.172 74V62.547h1.515v10.101h5.641V74H9.172Zm14.203-1.023c-.52.442-1.023.755-1.508.937-.479.182-.995.273-1.547.273-.911 0-1.612-.22-2.101-.664-.49-.447-.735-1.018-.735-1.71 0-.407.091-.776.274-1.11.187-.338.43-.61.726-.812.302-.204.641-.357 1.016-.461.276-.073.693-.144 1.25-.211 1.135-.136 1.971-.297 2.508-.485.005-.192.008-.315.008-.367 0-.573-.133-.976-.399-1.21-.36-.319-.893-.477-1.601-.477-.662 0-1.151.117-1.47.351-.312.23-.543.638-.694 1.227l-1.375-.188c.125-.588.33-1.062.617-1.422.286-.364.7-.643 1.242-.835.542-.198 1.17-.297 1.883-.297.708 0 1.284.083 1.726.25.443.166.768.377.977.632.208.25.354.568.437.954.047.24.07.671.07 1.296v1.875c0 1.308.03 2.136.087 2.485.062.344.182.674.359.992h-1.469a2.983 2.983 0 0 1-.281-1.023Zm-.117-3.141c-.51.208-1.276.385-2.297.531-.578.084-.987.177-1.227.281a1.214 1.214 0 0 0-.75 1.125c0 .375.141.688.422.938.287.25.703.375 1.25.375.542 0 1.024-.117 1.446-.352a2.21 2.21 0 0 0 .93-.976c.15-.318.226-.787.226-1.406v-.516ZM26.852 74v-8.297h1.265v1.258c.323-.589.62-.977.89-1.164a1.58 1.58 0 0 1 .907-.281c.474 0 .956.15 1.445.453l-.484 1.304a2.012 2.012 0 0 0-1.031-.304c-.308 0-.584.094-.828.281-.245.182-.42.438-.524.766a5.476 5.476 0 0 0-.234 1.64V74h-1.406Zm5.085.688 1.368.203c.057.421.216.729.476.921.35.26.826.391 1.43.391.651 0 1.154-.13 1.508-.39.354-.26.593-.626.718-1.094.073-.287.107-.888.102-1.805-.614.724-1.38 1.086-2.297 1.086-1.14 0-2.023-.412-2.648-1.234-.625-.823-.938-1.81-.938-2.961 0-.792.143-1.521.43-2.188.286-.672.7-1.19 1.242-1.555.547-.364 1.188-.546 1.922-.546.98 0 1.786.395 2.422 1.187v-1h1.297v7.172c0 1.292-.133 2.206-.399 2.742-.26.542-.677.969-1.25 1.281-.567.313-1.268.47-2.101.47-.99 0-1.79-.225-2.399-.673-.61-.442-.903-1.112-.883-2.007Zm1.165-4.985c0 1.089.216 1.883.648 2.383.432.5.974.75 1.625.75.646 0 1.188-.248 1.625-.742.438-.5.656-1.281.656-2.344 0-1.016-.226-1.781-.68-2.297-.447-.516-.989-.773-1.624-.773-.625 0-1.157.255-1.594.765-.438.506-.656 1.258-.656 2.258Zm13.68 1.625 1.452.18c-.229.849-.653 1.508-1.273 1.976-.62.47-1.411.704-2.375.704-1.214 0-2.177-.373-2.89-1.118-.709-.75-1.063-1.8-1.063-3.148 0-1.396.36-2.48 1.078-3.25.719-.771 1.651-1.156 2.797-1.156 1.11 0 2.015.377 2.719 1.132.703.756 1.054 1.818 1.054 3.188 0 .083-.002.208-.008.375h-6.187c.052.911.31 1.61.773 2.094.464.484 1.042.726 1.735.726.515 0 .956-.135 1.32-.406.365-.27.654-.703.867-1.297Zm-4.618-2.273h4.633c-.063-.698-.24-1.222-.531-1.57-.448-.542-1.029-.813-1.743-.813-.645 0-1.19.216-1.632.648-.438.433-.68 1.01-.727 1.735Zm12.305-4.89v-1.618h1.406v1.617h-1.406Zm0 9.835v-8.297h1.406V74h-1.406Zm3.554 0v-8.297h1.266v1.18c.61-.912 1.49-1.367 2.64-1.367.5 0 .959.09 1.376.273.422.177.737.412.945.703.208.292.354.638.438 1.04.052.26.078.715.078 1.366V74h-1.407v-5.047c0-.573-.054-1-.164-1.281a1.327 1.327 0 0 0-.586-.68 1.81 1.81 0 0 0-.976-.258c-.6 0-1.117.19-1.555.57-.432.38-.648 1.102-.648 2.165V74h-1.407Zm8.383-4.148c0-1.537.427-2.675 1.281-3.415.714-.614 1.584-.921 2.61-.921 1.14 0 2.073.375 2.797 1.125.724.744 1.086 1.776 1.086 3.093 0 1.068-.162 1.91-.485 2.524a3.377 3.377 0 0 1-1.398 1.422 4.05 4.05 0 0 1-2 .507c-1.162 0-2.102-.372-2.82-1.117-.714-.744-1.07-1.817-1.07-3.218Zm1.446 0c0 1.062.231 1.859.695 2.39a2.234 2.234 0 0 0 1.75.79c.698 0 1.279-.266 1.742-.798.464-.53.695-1.34.695-2.43 0-1.025-.234-1.801-.703-2.327-.463-.532-1.041-.797-1.734-.797-.703 0-1.287.263-1.75.789-.464.526-.695 1.32-.695 2.383ZM76.172 74v-7.203H74.93v-1.094h1.242v-.883c0-.557.05-.971.148-1.242.136-.364.373-.659.711-.883.344-.229.823-.343 1.438-.343.396 0 .833.046 1.312.14l-.21 1.227a4.718 4.718 0 0 0-.829-.078c-.427 0-.729.09-.906.273-.177.182-.266.523-.266 1.023v.766h1.618v1.094H77.57V74h-1.398Zm4.156 0v-7.203h-1.242v-1.094h1.242v-.883c0-.557.05-.971.149-1.242.135-.364.372-.659.71-.883.344-.229.823-.343 1.438-.343.396 0 .833.046 1.313.14l-.211 1.227a4.718 4.718 0 0 0-.829-.078c-.427 0-.729.09-.906.273-.177.182-.265.523-.265 1.023v.766h1.617v1.094h-1.617V74h-1.399Zm9.797-2.672 1.453.18c-.229.849-.654 1.508-1.273 1.976-.62.47-1.412.704-2.375.704-1.214 0-2.177-.373-2.89-1.118-.71-.75-1.063-1.8-1.063-3.148 0-1.396.359-2.48 1.078-3.25.718-.771 1.65-1.156 2.797-1.156 1.109 0 2.015.377 2.718 1.132.703.756 1.055 1.818 1.055 3.188 0 .083-.003.208-.008.375H85.43c.052.911.31 1.61.773 2.094.464.484 1.042.726 1.734.726.516 0 .956-.135 1.32-.406.365-.27.654-.703.868-1.297Zm-4.617-2.273h4.633c-.063-.698-.24-1.222-.532-1.57-.447-.542-1.028-.813-1.742-.813-.646 0-1.19.216-1.633.648-.437.433-.68 1.01-.726 1.735ZM93.352 74v-8.297h1.265v1.18c.61-.912 1.49-1.367 2.64-1.367.5 0 .96.09 1.376.273.422.177.737.412.945.703.209.292.354.638.438 1.04.052.26.078.715.078 1.366V74h-1.406v-5.047c0-.573-.055-1-.165-1.281a1.326 1.326 0 0 0-.585-.68 1.81 1.81 0 0 0-.977-.258c-.599 0-1.117.19-1.555.57-.432.38-.648 1.102-.648 2.165V74h-1.406Zm8.343-2.477 1.391-.218c.078.557.294.984.648 1.28.36.298.86.446 1.5.446.646 0 1.125-.13 1.438-.39.312-.266.469-.576.469-.93 0-.318-.138-.568-.414-.75-.193-.125-.672-.284-1.438-.477-1.031-.26-1.747-.484-2.148-.671a2.146 2.146 0 0 1-.907-.79 2.131 2.131 0 0 1-.304-1.117c0-.37.083-.71.25-1.023a2.3 2.3 0 0 1 .695-.79c.219-.16.516-.296.891-.406.38-.114.786-.171 1.218-.171.651 0 1.222.093 1.711.28.495.188.86.444 1.094.766.234.318.396.745.484 1.282l-1.375.187c-.062-.427-.244-.76-.546-1-.297-.24-.719-.36-1.266-.36-.646 0-1.107.108-1.383.321-.276.214-.414.464-.414.75 0 .182.057.346.172.492.115.151.294.276.539.375.141.053.555.172 1.242.36.995.265 1.688.484 2.078.656.396.167.706.412.93.734.224.323.336.724.336 1.204 0 .468-.138.911-.414 1.328-.271.411-.664.731-1.18.96-.515.225-1.099.337-1.75.337-1.078 0-1.901-.225-2.469-.672-.562-.448-.921-1.112-1.078-1.993Zm8.571-7.359v-1.617h1.406v1.617h-1.406Zm0 9.836v-8.297h1.406V74h-1.406Zm5.859 0-3.156-8.297h1.484l1.781 4.969c.193.536.37 1.094.532 1.672.125-.438.299-.964.523-1.578l1.844-5.063h1.445L117.438 74h-1.313Zm11.375-2.672 1.453.18c-.229.849-.654 1.508-1.273 1.976-.62.47-1.412.704-2.375.704-1.214 0-2.177-.373-2.891-1.118-.708-.75-1.062-1.8-1.062-3.148 0-1.396.359-2.48 1.078-3.25.718-.771 1.651-1.156 2.797-1.156 1.109 0 2.015.377 2.718 1.132.703.756 1.055 1.818 1.055 3.188 0 .083-.003.208-.008.375h-6.187c.052.911.31 1.61.773 2.094.464.484 1.042.726 1.734.726.516 0 .956-.135 1.321-.406.364-.27.653-.703.867-1.297Zm-4.617-2.273h4.633c-.063-.698-.24-1.222-.532-1.57-.448-.542-1.028-.813-1.742-.813-.646 0-1.19.216-1.633.648-.437.433-.679 1.01-.726 1.735Zm17.711 1.906 1.383.18c-.151.953-.539 1.7-1.165 2.242-.619.536-1.382.805-2.289.805-1.135 0-2.049-.37-2.742-1.11-.687-.745-1.031-1.81-1.031-3.195 0-.896.148-1.68.445-2.352.297-.672.748-1.174 1.352-1.508a4.019 4.019 0 0 1 1.984-.507c.901 0 1.638.229 2.211.687.573.453.94 1.1 1.102 1.938l-1.367.21c-.131-.557-.362-.976-.696-1.257-.328-.281-.726-.422-1.195-.422-.708 0-1.284.255-1.727.766-.442.505-.664 1.307-.664 2.406 0 1.114.214 1.924.641 2.43.427.505.984.757 1.672.757.552 0 1.013-.169 1.383-.508.369-.338.604-.859.703-1.562ZM143.18 74V62.547h1.406v4.11c.656-.761 1.484-1.141 2.484-1.141.615 0 1.149.122 1.602.367.453.24.776.573.969 1 .198.427.297 1.047.297 1.86V74h-1.407v-5.258c0-.703-.153-1.213-.461-1.531-.302-.323-.731-.484-1.289-.484-.416 0-.81.109-1.179.328a1.819 1.819 0 0 0-.782.875c-.156.37-.234.88-.234 1.53V74h-1.406Zm8.914-9.836v-1.617h1.406v1.617h-1.406Zm0 9.836v-8.297h1.406V74h-1.406Zm9.234-2.672 1.453.18c-.229.849-.653 1.508-1.273 1.976-.62.47-1.412.704-2.375.704-1.214 0-2.177-.373-2.891-1.118-.708-.75-1.062-1.8-1.062-3.148 0-1.396.359-2.48 1.078-3.25.719-.771 1.651-1.156 2.797-1.156 1.109 0 2.015.377 2.718 1.132.704.756 1.055 1.818 1.055 3.188 0 .083-.002.208-.008.375h-6.187c.052.911.31 1.61.773 2.094.464.484 1.042.726 1.735.726.515 0 .955-.135 1.32-.406.365-.27.654-.703.867-1.297Zm-4.617-2.273h4.633c-.063-.698-.24-1.222-.532-1.57-.447-.542-1.028-.813-1.742-.813-.646 0-1.19.216-1.632.648-.438.433-.68 1.01-.727 1.735Zm8.18 4.945v-7.203h-1.243v-1.094h1.243v-.883c0-.557.049-.971.148-1.242a1.78 1.78 0 0 1 .711-.883c.344-.229.823-.343 1.438-.343.395 0 .833.046 1.312.14l-.211 1.227a4.723 4.723 0 0 0-.828-.078c-.427 0-.729.09-.906.273-.177.182-.266.523-.266 1.023v.766h1.617v1.094h-1.617V74h-1.398Zm4.086 0V62.547h1.406V74h-1.406Zm3.531 3.195-.156-1.32c.307.083.575.125.804.125.313 0 .563-.052.75-.156.188-.104.341-.25.461-.438.089-.14.232-.49.43-1.047.026-.078.068-.192.125-.343l-3.149-8.313h1.516l1.727 4.805c.224.61.424 1.25.601 1.922.162-.646.354-1.276.578-1.89l1.774-4.837h1.406l-3.156 8.438c-.339.911-.602 1.539-.789 1.882-.25.464-.537.803-.86 1.016-.323.219-.708.328-1.156.328-.271 0-.573-.057-.906-.172ZM185.023 74v-8.297h1.266v1.18c.609-.912 1.49-1.367 2.641-1.367.5 0 .958.09 1.375.273.422.177.737.412.945.703.208.292.354.638.438 1.04.052.26.078.715.078 1.366V74h-1.407v-5.047c0-.573-.054-1-.164-1.281a1.322 1.322 0 0 0-.586-.68 1.807 1.807 0 0 0-.976-.258c-.599 0-1.117.19-1.555.57-.432.38-.648 1.102-.648 2.165V74h-1.407Zm8.383-4.148c0-1.537.427-2.675 1.282-3.415.713-.614 1.583-.921 2.609-.921 1.141 0 2.073.375 2.797 1.125.724.744 1.086 1.776 1.086 3.093 0 1.068-.162 1.91-.485 2.524a3.375 3.375 0 0 1-1.398 1.422 4.049 4.049 0 0 1-2 .507c-1.162 0-2.102-.372-2.82-1.117-.714-.744-1.071-1.817-1.071-3.218Zm1.446 0c0 1.062.231 1.859.695 2.39a2.233 2.233 0 0 0 1.75.79c.698 0 1.279-.266 1.742-.798.464-.53.695-1.34.695-2.43 0-1.025-.234-1.801-.703-2.327-.463-.532-1.041-.797-1.734-.797-.703 0-1.287.263-1.75.789-.464.526-.695 1.32-.695 2.383Zm13.398 1.109 1.383.18c-.151.953-.539 1.7-1.164 2.242-.62.536-1.383.805-2.289.805-1.136 0-2.05-.37-2.742-1.11-.688-.745-1.032-1.81-1.032-3.195 0-.896.149-1.68.446-2.352.296-.672.747-1.174 1.351-1.508a4.02 4.02 0 0 1 1.985-.507c.901 0 1.638.229 2.21.687.573.453.941 1.1 1.102 1.938l-1.367.21c-.13-.557-.362-.976-.695-1.257-.329-.281-.727-.422-1.196-.422-.708 0-1.284.255-1.726.766-.443.505-.664 1.307-.664 2.406 0 1.114.213 1.924.64 2.43.427.505.985.757 1.672.757.552 0 1.013-.169 1.383-.508.37-.338.604-.859.703-1.562Zm5.656 1.781.203 1.242c-.395.084-.75.125-1.062.125-.511 0-.906-.08-1.188-.242a1.357 1.357 0 0 1-.593-.633c-.115-.265-.172-.82-.172-1.664v-4.773h-1.032v-1.094h1.032v-2.055l1.398-.843v2.898h1.414v1.094h-1.414v4.851c0 .401.024.66.07.774a.618.618 0 0 0 .243.273c.114.068.276.102.484.102.156 0 .362-.018.617-.055ZM220.727 74v-1.219c-.646.938-1.524 1.406-2.633 1.406-.49 0-.948-.093-1.375-.28-.422-.188-.737-.423-.946-.704a2.716 2.716 0 0 1-.429-1.047c-.058-.276-.086-.713-.086-1.312v-5.14h1.406v4.6c0 .735.029 1.23.086 1.485.089.37.276.662.562.875.287.208.641.313 1.063.313.422 0 .818-.107 1.187-.32.37-.22.631-.514.782-.884.156-.375.234-.916.234-1.625v-4.445h1.406V74h-1.257Zm3.453 0v-8.297h1.265v1.258c.323-.589.62-.977.891-1.164.276-.188.578-.281.906-.281.474 0 .956.15 1.446.453l-.485 1.304a2.011 2.011 0 0 0-1.031-.304c-.307 0-.583.094-.828.281a1.48 1.48 0 0 0-.524.766 5.486 5.486 0 0 0-.234 1.64V74h-1.406Zm5.343 0v-8.297h1.266v1.18c.609-.912 1.49-1.367 2.641-1.367.5 0 .958.09 1.375.273.422.177.737.412.945.703.208.292.354.638.438 1.04.052.26.078.715.078 1.366V74h-1.407v-5.047c0-.573-.054-1-.164-1.281a1.322 1.322 0 0 0-.586-.68 1.807 1.807 0 0 0-.976-.258c-.599 0-1.117.19-1.555.57-.432.38-.648 1.102-.648 2.165V74h-1.407Zm14.321-1.023c-.521.442-1.024.755-1.508.937a4.314 4.314 0 0 1-1.547.273c-.911 0-1.612-.22-2.101-.664-.49-.447-.735-1.018-.735-1.71 0-.407.091-.776.274-1.11a2.33 2.33 0 0 1 .726-.812 3.473 3.473 0 0 1 1.016-.461c.276-.073.692-.144 1.25-.211 1.135-.136 1.971-.297 2.508-.485.005-.192.007-.315.007-.367 0-.573-.132-.976-.398-1.21-.359-.319-.893-.477-1.602-.477-.661 0-1.151.117-1.468.351-.313.23-.545.638-.696 1.227l-1.375-.188c.125-.588.331-1.062.617-1.422.287-.364.701-.643 1.243-.835.541-.198 1.169-.297 1.883-.297.708 0 1.283.083 1.726.25.443.166.768.377.977.632.208.25.354.568.437.954.047.24.07.671.07 1.296v1.875c0 1.308.029 2.136.086 2.485.063.344.183.674.36.992h-1.469a2.963 2.963 0 0 1-.281-1.023Zm-.117-3.141c-.511.208-1.276.385-2.297.531-.578.084-.987.177-1.227.281a1.222 1.222 0 0 0-.555.461c-.13.198-.195.42-.195.664 0 .375.141.688.422.938.286.25.703.375 1.25.375.542 0 1.023-.117 1.445-.352.422-.24.732-.565.93-.976.151-.318.227-.787.227-1.406v-.516ZM247.305 74V62.547h1.406V74h-1.406Zm13.484 0v-1.219c-.646.938-1.523 1.406-2.633 1.406-.489 0-.948-.093-1.375-.28-.422-.188-.737-.423-.945-.704a2.733 2.733 0 0 1-.43-1.047c-.057-.276-.086-.713-.086-1.312v-5.14h1.407v4.6c0 .735.028 1.23.085 1.485.089.37.277.662.563.875.286.208.641.313 1.063.313.421 0 .817-.107 1.187-.32.37-.22.63-.514.781-.884.156-.375.235-.916.235-1.625v-4.445h1.406V74h-1.258Zm3.469 0v-8.297h1.265v1.18c.61-.912 1.49-1.367 2.641-1.367.5 0 .958.09 1.375.273.422.177.737.412.945.703a2.7 2.7 0 0 1 .438 1.04c.052.26.078.715.078 1.366V74h-1.406v-5.047c0-.573-.055-1-.164-1.281a1.33 1.33 0 0 0-.586-.68 1.81 1.81 0 0 0-.977-.258c-.599 0-1.117.19-1.555.57-.432.38-.648 1.102-.648 2.165V74h-1.406Zm8.648.688 1.367.203c.058.421.217.729.477.921.349.26.826.391 1.43.391.651 0 1.153-.13 1.508-.39.354-.26.593-.626.718-1.094.073-.287.107-.888.102-1.805-.615.724-1.38 1.086-2.297 1.086-1.141 0-2.023-.412-2.649-1.234-.624-.823-.937-1.81-.937-2.961 0-.792.143-1.521.43-2.188.286-.672.7-1.19 1.242-1.555.547-.364 1.187-.546 1.922-.546.979 0 1.786.395 2.422 1.187v-1h1.297v7.172c0 1.292-.133 2.206-.399 2.742-.26.542-.677.969-1.25 1.281-.568.313-1.268.47-2.101.47-.99 0-1.79-.225-2.399-.673-.609-.442-.904-1.112-.883-2.007Zm1.164-4.985c0 1.089.216 1.883.649 2.383.432.5.974.75 1.625.75.646 0 1.187-.248 1.625-.742.437-.5.656-1.281.656-2.344 0-1.016-.227-1.781-.68-2.297-.448-.516-.989-.773-1.625-.773-.625 0-1.156.255-1.593.765-.438.506-.657 1.258-.657 2.258ZM287.508 74v-1.219c-.646.938-1.524 1.406-2.633 1.406-.49 0-.948-.093-1.375-.28-.422-.188-.737-.423-.945-.704a2.717 2.717 0 0 1-.43-1.047c-.057-.276-.086-.713-.086-1.312v-5.14h1.406v4.6c0 .735.029 1.23.086 1.485.089.37.276.662.563.875.286.208.64.313 1.062.313.422 0 .818-.107 1.188-.32.37-.22.63-.514.781-.884.156-.375.234-.916.234-1.625v-4.445h1.407V74h-1.258Zm3.437 0V62.547h1.407V74h-1.407Zm9.008-1.023c-.521.442-1.023.755-1.508.937a4.31 4.31 0 0 1-1.547.273c-.911 0-1.612-.22-2.101-.664-.49-.447-.735-1.018-.735-1.71 0-.407.092-.776.274-1.11.187-.338.43-.61.726-.812a3.484 3.484 0 0 1 1.016-.461c.276-.073.693-.144 1.25-.211 1.136-.136 1.971-.297 2.508-.485.005-.192.008-.315.008-.367 0-.573-.133-.976-.399-1.21-.359-.319-.893-.477-1.601-.477-.662 0-1.151.117-1.469.351-.313.23-.544.638-.695 1.227l-1.375-.188c.125-.588.33-1.062.617-1.422.286-.364.7-.643 1.242-.835.542-.198 1.169-.297 1.883-.297.708 0 1.284.083 1.726.25.443.166.769.377.977.632.208.25.354.568.438.954.046.24.07.671.07 1.296v1.875c0 1.308.028 2.136.086 2.485.062.344.182.674.359.992h-1.469a3.008 3.008 0 0 1-.281-1.023Zm-.117-3.141c-.51.208-1.276.385-2.297.531-.578.084-.987.177-1.227.281a1.214 1.214 0 0 0-.75 1.125c0 .375.141.688.422.938.287.25.704.375 1.25.375.542 0 1.024-.117 1.446-.352.422-.24.731-.565.929-.976.151-.318.227-.787.227-1.406v-.516Zm6.68 2.906.203 1.242a5.22 5.22 0 0 1-1.063.125c-.51 0-.906-.08-1.187-.242a1.364 1.364 0 0 1-.594-.633c-.115-.265-.172-.82-.172-1.664v-4.773h-1.031v-1.094h1.031v-2.055l1.399-.843v2.898h1.414v1.094h-1.414v4.851c0 .401.023.66.07.774a.616.616 0 0 0 .242.273c.115.068.276.102.484.102.157 0 .362-.018.618-.055Zm7.062-1.414 1.453.18c-.229.849-.653 1.508-1.273 1.976-.62.47-1.412.704-2.375.704-1.214 0-2.177-.373-2.891-1.118-.708-.75-1.062-1.8-1.062-3.148 0-1.396.359-2.48 1.078-3.25.719-.771 1.651-1.156 2.797-1.156 1.109 0 2.015.377 2.718 1.132.704.756 1.055 1.818 1.055 3.188 0 .083-.002.208-.008.375h-6.187c.052.911.31 1.61.773 2.094.464.484 1.042.726 1.735.726.515 0 .955-.135 1.32-.406.365-.27.654-.703.867-1.297Zm-4.617-2.273h4.633c-.063-.698-.24-1.222-.532-1.57-.447-.542-1.028-.813-1.742-.813-.646 0-1.19.216-1.632.648-.438.433-.68 1.01-.727 1.735Zm11.773.797c0-1.537.427-2.675 1.282-3.415.713-.614 1.583-.921 2.609-.921 1.141 0 2.073.375 2.797 1.125.724.744 1.086 1.776 1.086 3.093 0 1.068-.162 1.91-.485 2.524a3.37 3.37 0 0 1-1.398 1.422 4.049 4.049 0 0 1-2 .507c-1.161 0-2.102-.372-2.82-1.117-.714-.744-1.071-1.817-1.071-3.218Zm1.446 0c0 1.062.231 1.859.695 2.39a2.234 2.234 0 0 0 1.75.79c.698 0 1.279-.266 1.742-.798.464-.53.695-1.34.695-2.43 0-1.025-.234-1.801-.703-2.327-.463-.532-1.041-.797-1.734-.797-.703 0-1.286.263-1.75.789-.464.526-.695 1.32-.695 2.383ZM330.5 74v-7.203h-1.242v-1.094h1.242v-.883c0-.557.049-.971.148-1.242a1.79 1.79 0 0 1 .711-.883c.344-.229.823-.343 1.438-.343.396 0 .833.046 1.312.14l-.211 1.227a4.705 4.705 0 0 0-.828-.078c-.427 0-.729.09-.906.273-.177.182-.266.523-.266 1.023v.766h1.618v1.094h-1.618V74H330.5Zm11.641-1.258.203 1.242a5.22 5.22 0 0 1-1.063.125c-.51 0-.906-.08-1.187-.242a1.36 1.36 0 0 1-.594-.633c-.115-.265-.172-.82-.172-1.664v-4.773h-1.031v-1.094h1.031v-2.055l1.399-.843v2.898h1.414v1.094h-1.414v4.851c0 .401.023.66.07.774a.616.616 0 0 0 .242.273c.115.068.276.102.484.102.157 0 .362-.018.618-.055ZM343.508 74v-8.297h1.265v1.258c.323-.589.62-.977.891-1.164.276-.188.578-.281.906-.281.474 0 .956.15 1.446.453l-.485 1.304a2.009 2.009 0 0 0-1.031-.304c-.307 0-.583.094-.828.281a1.485 1.485 0 0 0-.524.766 5.486 5.486 0 0 0-.234 1.64V74h-1.406Zm4.82-4.148c0-1.537.427-2.675 1.281-3.415.714-.614 1.584-.921 2.61-.921 1.14 0 2.073.375 2.797 1.125.724.744 1.086 1.776 1.086 3.093 0 1.068-.162 1.91-.485 2.524a3.38 3.38 0 0 1-1.398 1.422 4.052 4.052 0 0 1-2 .507c-1.162 0-2.102-.372-2.821-1.117-.713-.744-1.07-1.817-1.07-3.218Zm1.445 0c0 1.062.232 1.859.696 2.39a2.233 2.233 0 0 0 1.75.79c.698 0 1.278-.266 1.742-.798.463-.53.695-1.34.695-2.43 0-1.025-.234-1.801-.703-2.327-.463-.532-1.042-.797-1.734-.797-.703 0-1.287.263-1.75.789-.464.526-.696 1.32-.696 2.383Zm7.985 7.328V65.703h1.281v1.078c.302-.422.643-.737 1.023-.945.381-.214.842-.32 1.383-.32.709 0 1.334.182 1.875.546.542.365.951.88 1.227 1.547.276.662.414 1.388.414 2.18 0 .849-.154 1.615-.461 2.297-.302.677-.745 1.198-1.328 1.562a3.41 3.41 0 0 1-1.828.54 2.67 2.67 0 0 1-1.266-.297 2.888 2.888 0 0 1-.914-.75v4.039h-1.406Zm1.273-7.282c0 1.068.216 1.857.649 2.368.432.51.955.765 1.57.765.625 0 1.159-.263 1.602-.789.447-.531.671-1.351.671-2.46 0-1.058-.218-1.85-.656-2.376-.432-.526-.95-.789-1.555-.789-.598 0-1.13.281-1.593.844-.459.557-.688 1.37-.688 2.437Zm7.641-5.734v-1.617h1.406v1.617h-1.406Zm0 9.836v-8.297h1.406V74h-1.406Zm8.969-3.04 1.382.18c-.151.954-.539 1.701-1.164 2.243-.619.536-1.382.805-2.289.805-1.135 0-2.049-.37-2.742-1.11-.687-.745-1.031-1.81-1.031-3.195 0-.896.148-1.68.445-2.352.297-.672.748-1.174 1.352-1.508a4.019 4.019 0 0 1 1.984-.507c.901 0 1.638.229 2.211.687.573.453.94 1.1 1.102 1.938l-1.368.21c-.13-.557-.362-.976-.695-1.257-.328-.281-.726-.422-1.195-.422-.709 0-1.284.255-1.727.766-.442.505-.664 1.307-.664 2.406 0 1.114.214 1.924.641 2.43.427.505.984.757 1.672.757.552 0 1.013-.169 1.383-.508.369-.338.604-.859.703-1.562Zm8 2.017c-.521.442-1.024.755-1.508.937a4.314 4.314 0 0 1-1.547.273c-.912 0-1.612-.22-2.102-.664-.489-.447-.734-1.018-.734-1.71 0-.407.091-.776.273-1.11.188-.338.43-.61.727-.812a3.473 3.473 0 0 1 1.016-.461c.276-.073.692-.144 1.25-.211 1.135-.136 1.971-.297 2.507-.485.006-.192.008-.315.008-.367 0-.573-.133-.976-.398-1.21-.36-.319-.893-.477-1.602-.477-.661 0-1.151.117-1.469.351-.312.23-.544.638-.695 1.227l-1.375-.188c.125-.588.331-1.062.617-1.422.287-.364.701-.643 1.243-.835.541-.198 1.169-.297 1.882-.297.709 0 1.284.083 1.727.25.443.166.768.377.977.632.208.25.354.568.437.954.047.24.07.671.07 1.296v1.875c0 1.308.029 2.136.086 2.485.063.344.183.674.36.992h-1.469a2.963 2.963 0 0 1-.281-1.023Zm-.118-3.141c-.51.208-1.276.385-2.296.531-.579.084-.987.177-1.227.281a1.217 1.217 0 0 0-.75 1.125c0 .375.141.688.422.938.286.25.703.375 1.25.375.542 0 1.023-.117 1.445-.352.422-.24.732-.565.93-.976.151-.318.226-.787.226-1.406v-.516ZM387.102 74V62.547h1.406V74h-1.406Zm6.078 0 4.398-11.453h1.633L403.898 74h-1.726l-1.336-3.469h-4.789L394.789 74h-1.609Zm3.304-4.703h3.883l-1.195-3.172a31.154 31.154 0 0 1-.813-2.375 14.458 14.458 0 0 1-.617 2.188l-1.258 3.359ZM404.93 74v-8.297h1.258v1.164c.26-.406.606-.732 1.039-.976.432-.25.924-.375 1.476-.375.615 0 1.117.127 1.508.382.396.256.674.612.836 1.07.656-.968 1.51-1.452 2.562-1.452.823 0 1.456.229 1.899.687.443.453.664 1.154.664 2.102V74h-1.399v-5.227c0-.562-.046-.966-.14-1.21a1.16 1.16 0 0 0-.492-.602 1.55 1.55 0 0 0-.844-.227c-.583 0-1.068.196-1.453.586-.386.386-.578 1.006-.578 1.86V74h-1.407v-5.39c0-.626-.114-1.094-.343-1.407-.23-.312-.605-.469-1.125-.469-.396 0-.763.105-1.102.313a1.786 1.786 0 0 0-.727.914c-.151.401-.226.98-.226 1.734V74h-1.406Zm19.008-2.672 1.453.18c-.23.849-.654 1.508-1.274 1.976-.62.47-1.411.704-2.375.704-1.213 0-2.177-.373-2.89-1.118-.709-.75-1.063-1.8-1.063-3.148 0-1.396.359-2.48 1.078-3.25.719-.771 1.651-1.156 2.797-1.156 1.109 0 2.016.377 2.719 1.132.703.756 1.055 1.818 1.055 3.188 0 .083-.003.208-.008.375h-6.188c.052.911.31 1.61.774 2.094.463.484 1.041.726 1.734.726.516 0 .956-.135 1.32-.406.365-.27.654-.703.868-1.297Zm-4.618-2.273h4.633c-.062-.698-.239-1.222-.531-1.57-.448-.542-1.029-.813-1.742-.813-.646 0-1.19.216-1.633.648-.438.433-.68 1.01-.727 1.735ZM427.148 74v-8.297h1.266v1.258c.323-.589.62-.977.891-1.164.276-.188.578-.281.906-.281.474 0 .956.15 1.445.453l-.484 1.304a2.014 2.014 0 0 0-1.031-.304c-.308 0-.584.094-.829.281a1.484 1.484 0 0 0-.523.766 5.486 5.486 0 0 0-.234 1.64V74h-1.407Zm5.352-9.836v-1.617h1.406v1.617H432.5Zm0 9.836v-8.297h1.406V74H432.5Zm8.969-3.04 1.383.18c-.151.954-.54 1.701-1.164 2.243-.62.536-1.383.805-2.29.805-1.135 0-2.049-.37-2.742-1.11-.687-.745-1.031-1.81-1.031-3.195 0-.896.148-1.68.445-2.352.297-.672.748-1.174 1.352-1.508a4.019 4.019 0 0 1 1.984-.507c.901 0 1.638.229 2.211.687.573.453.94 1.1 1.102 1.938l-1.367.21c-.131-.557-.362-.976-.696-1.257-.328-.281-.726-.422-1.195-.422-.708 0-1.284.255-1.727.766-.442.505-.664 1.307-.664 2.406 0 1.114.214 1.924.641 2.43.427.505.984.757 1.672.757.552 0 1.013-.169 1.383-.508.369-.338.604-.859.703-1.562Zm8 2.017c-.521.442-1.024.755-1.508.937a4.314 4.314 0 0 1-1.547.273c-.911 0-1.612-.22-2.102-.664-.489-.447-.734-1.018-.734-1.71 0-.407.091-.776.274-1.11a2.33 2.33 0 0 1 .726-.812 3.473 3.473 0 0 1 1.016-.461c.276-.073.692-.144 1.25-.211 1.135-.136 1.971-.297 2.508-.485.005-.192.007-.315.007-.367 0-.573-.132-.976-.398-1.21-.359-.319-.893-.477-1.602-.477-.661 0-1.151.117-1.468.351-.313.23-.545.638-.696 1.227l-1.375-.188c.125-.588.331-1.062.618-1.422.286-.364.7-.643 1.242-.835.541-.198 1.169-.297 1.882-.297.709 0 1.284.083 1.727.25.443.166.768.377.977.632.208.25.354.568.437.954.047.24.07.671.07 1.296v1.875c0 1.308.029 2.136.086 2.485.063.344.183.674.36.992h-1.469a2.963 2.963 0 0 1-.281-1.023Zm-.117-3.141c-.511.208-1.276.385-2.297.531-.578.084-.987.177-1.227.281a1.222 1.222 0 0 0-.555.461c-.13.198-.195.42-.195.664 0 .375.141.688.422.938.286.25.703.375 1.25.375.542 0 1.023-.117 1.445-.352.422-.24.732-.565.93-.976.151-.318.227-.787.227-1.406v-.516Zm13.476 3.14c-.521.443-1.023.756-1.508.938a4.31 4.31 0 0 1-1.547.273c-.911 0-1.612-.22-2.101-.664-.49-.447-.734-1.018-.734-1.71 0-.407.091-.776.273-1.11.187-.338.43-.61.727-.812.302-.204.64-.357 1.015-.461.276-.073.693-.144 1.25-.211 1.136-.136 1.971-.297 2.508-.485.005-.192.008-.315.008-.367 0-.573-.133-.976-.399-1.21-.359-.319-.893-.477-1.601-.477-.662 0-1.151.117-1.469.351-.312.23-.544.638-.695 1.227l-1.375-.188c.125-.588.33-1.062.617-1.422.286-.364.7-.643 1.242-.835.542-.198 1.169-.297 1.883-.297.708 0 1.284.083 1.726.25.443.166.769.377.977.632.208.25.354.568.437.954.047.24.071.671.071 1.296v1.875c0 1.308.028 2.136.086 2.485.062.344.182.674.359.992h-1.469a3.008 3.008 0 0 1-.281-1.023Zm-.117-3.14c-.51.208-1.276.385-2.297.531-.578.084-.987.177-1.226.281a1.212 1.212 0 0 0-.75 1.125c0 .375.14.688.421.938.287.25.703.375 1.25.375.542 0 1.024-.117 1.446-.352.422-.24.731-.565.929-.976.151-.318.227-.787.227-1.406v-.516ZM466.32 74v-8.297h1.266v1.18c.609-.912 1.49-1.367 2.641-1.367.5 0 .958.09 1.375.273.421.177.737.412.945.703.208.292.354.638.437 1.04.052.26.078.715.078 1.366V74h-1.406v-5.047c0-.573-.054-1-.164-1.281a1.322 1.322 0 0 0-.586-.68 1.807 1.807 0 0 0-.976-.258c-.599 0-1.118.19-1.555.57-.432.38-.648 1.102-.648 2.165V74h-1.407Zm14.289 0v-1.047c-.526.823-1.299 1.234-2.32 1.234a3.272 3.272 0 0 1-1.828-.546c-.552-.365-.982-.873-1.289-1.524-.302-.656-.453-1.409-.453-2.258 0-.828.138-1.578.414-2.25.276-.677.69-1.195 1.242-1.554a3.32 3.32 0 0 1 1.852-.54c.5 0 .945.107 1.335.32.391.21.709.483.954.821v-4.11h1.398V74h-1.305Zm-4.445-4.14c0 1.062.224 1.856.672 2.382.448.526.976.79 1.586.79.614 0 1.135-.25 1.562-.75.433-.506.649-1.274.649-2.305 0-1.136-.219-1.97-.656-2.5-.438-.532-.977-.797-1.618-.797-.625 0-1.148.255-1.57.765-.417.51-.625 1.315-.625 2.414Zm11.859 1.663 1.391-.218c.078.557.294.984.648 1.28.36.298.86.446 1.5.446.646 0 1.126-.13 1.438-.39.312-.266.469-.576.469-.93 0-.318-.138-.568-.414-.75-.193-.125-.672-.284-1.438-.477-1.031-.26-1.747-.484-2.148-.671a2.146 2.146 0 0 1-.907-.79 2.131 2.131 0 0 1-.304-1.117c0-.37.083-.71.25-1.023a2.3 2.3 0 0 1 .695-.79c.219-.16.516-.296.891-.406.38-.114.786-.171 1.218-.171.652 0 1.222.093 1.711.28.495.188.86.444 1.094.766.235.318.396.745.485 1.282l-1.375.187c-.063-.427-.245-.76-.547-1-.297-.24-.719-.36-1.266-.36-.646 0-1.107.108-1.383.321-.276.214-.414.464-.414.75 0 .182.057.346.172.492.115.151.294.276.539.375.141.053.555.172 1.242.36.995.265 1.688.484 2.078.656.396.167.706.412.93.734.224.323.336.724.336 1.204 0 .468-.138.911-.414 1.328-.271.411-.664.731-1.18.96-.515.225-1.099.337-1.75.337-1.078 0-1.901-.225-2.468-.672-.563-.448-.922-1.112-1.079-1.993Zm8.039-1.671c0-1.537.428-2.675 1.282-3.415.713-.614 1.583-.921 2.609-.921 1.141 0 2.073.375 2.797 1.125.724.744 1.086 1.776 1.086 3.093 0 1.068-.162 1.91-.484 2.524a3.378 3.378 0 0 1-1.399 1.422 4.049 4.049 0 0 1-2 .507c-1.161 0-2.101-.372-2.82-1.117-.714-.744-1.071-1.817-1.071-3.218Zm1.446 0c0 1.062.232 1.859.695 2.39a2.234 2.234 0 0 0 1.75.79c.698 0 1.279-.266 1.742-.798.464-.53.696-1.34.696-2.43 0-1.025-.235-1.801-.703-2.327-.464-.532-1.042-.797-1.735-.797-.703 0-1.286.263-1.75.789-.463.526-.695 1.32-.695 2.383ZM510.93 74v-1.219c-.646.938-1.524 1.406-2.633 1.406-.49 0-.948-.093-1.375-.28-.422-.188-.737-.423-.945-.704a2.702 2.702 0 0 1-.43-1.047c-.057-.276-.086-.713-.086-1.312v-5.14h1.406v4.6c0 .735.029 1.23.086 1.485.089.37.276.662.563.875.286.208.64.313 1.062.313.422 0 .818-.107 1.188-.32.369-.22.63-.514.781-.884.156-.375.234-.916.234-1.625v-4.445h1.407V74h-1.258Zm6.539-1.258.203 1.242a5.22 5.22 0 0 1-1.063.125c-.51 0-.906-.08-1.187-.242a1.364 1.364 0 0 1-.594-.633c-.114-.265-.172-.82-.172-1.664v-4.773h-1.031v-1.094h1.031v-2.055l1.399-.843v2.898h1.414v1.094h-1.414v4.851c0 .401.023.66.07.774a.616.616 0 0 0 .242.273c.115.068.276.102.485.102.156 0 .362-.018.617-.055ZM518.852 74V62.547h1.406v4.11c.656-.761 1.484-1.141 2.484-1.141.615 0 1.149.122 1.602.367.453.24.776.573.968 1 .198.427.297 1.047.297 1.86V74h-1.406v-5.258c0-.703-.154-1.213-.461-1.531-.302-.323-.732-.484-1.289-.484-.417 0-.81.109-1.18.328a1.817 1.817 0 0 0-.781.875c-.156.37-.234.88-.234 1.53V74h-1.406Zm14.586-2.672 1.453.18c-.23.849-.654 1.508-1.274 1.976-.62.47-1.411.704-2.375.704-1.213 0-2.177-.373-2.89-1.118-.709-.75-1.063-1.8-1.063-3.148 0-1.396.359-2.48 1.078-3.25.719-.771 1.651-1.156 2.797-1.156 1.109 0 2.016.377 2.719 1.132.703.756 1.055 1.818 1.055 3.188 0 .083-.003.208-.008.375h-6.188c.052.911.31 1.61.774 2.094.463.484 1.041.726 1.734.726.516 0 .956-.135 1.32-.406.365-.27.654-.703.868-1.297Zm-4.618-2.273h4.633c-.062-.698-.239-1.222-.531-1.57-.448-.542-1.029-.813-1.742-.813-.646 0-1.19.216-1.633.648-.438.433-.68 1.01-.727 1.735Zm13.258 3.922c-.521.442-1.023.755-1.508.937a4.31 4.31 0 0 1-1.547.273c-.911 0-1.612-.22-2.101-.664-.49-.447-.734-1.018-.734-1.71 0-.407.091-.776.273-1.11.187-.338.43-.61.727-.812.302-.204.64-.357 1.015-.461.276-.073.693-.144 1.25-.211 1.136-.136 1.971-.297 2.508-.485.005-.192.008-.315.008-.367 0-.573-.133-.976-.399-1.21-.359-.319-.893-.477-1.601-.477-.662 0-1.151.117-1.469.351-.312.23-.544.638-.695 1.227l-1.375-.188c.125-.588.33-1.062.617-1.422.286-.364.7-.643 1.242-.835.542-.198 1.169-.297 1.883-.297.708 0 1.284.083 1.726.25.443.166.769.377.977.632.208.25.354.568.437.954.047.24.071.671.071 1.296v1.875c0 1.308.028 2.136.086 2.485.062.344.182.674.359.992h-1.469a3.008 3.008 0 0 1-.281-1.023Zm-.117-3.141c-.51.208-1.276.385-2.297.531-.578.084-.987.177-1.226.281a1.212 1.212 0 0 0-.75 1.125c0 .375.14.688.421.938.287.25.703.375 1.25.375.542 0 1.024-.117 1.446-.352.422-.24.731-.565.929-.976.151-.318.227-.787.227-1.406v-.516Zm3.047 1.687 1.39-.218c.079.557.295.984.649 1.28.359.298.859.446 1.5.446.646 0 1.125-.13 1.437-.39.313-.266.469-.576.469-.93 0-.318-.138-.568-.414-.75-.193-.125-.672-.284-1.437-.477-1.032-.26-1.748-.484-2.149-.671a2.137 2.137 0 0 1-.906-.79 2.132 2.132 0 0 1-.305-1.117c0-.37.084-.71.25-1.023.172-.318.404-.58.696-.79.218-.16.515-.296.89-.406.38-.114.787-.171 1.219-.171.651 0 1.221.093 1.711.28.495.188.859.444 1.094.766.234.318.395.745.484 1.282l-1.375.187c-.063-.427-.245-.76-.547-1-.297-.24-.719-.36-1.266-.36-.645 0-1.106.108-1.382.321-.276.214-.414.464-.414.75 0 .182.057.346.171.492.115.151.295.276.539.375.141.053.555.172 1.243.36.994.265 1.687.484 2.078.656.396.167.706.412.929.734.224.323.336.724.336 1.204 0 .468-.138.911-.414 1.328-.27.411-.664.731-1.179.96-.516.225-1.099.337-1.75.337-1.078 0-1.901-.225-2.469-.672-.563-.448-.922-1.112-1.078-1.993Zm11.633 1.22.203 1.241a5.22 5.22 0 0 1-1.063.125c-.51 0-.906-.08-1.187-.242a1.36 1.36 0 0 1-.594-.633c-.115-.265-.172-.82-.172-1.664v-4.773h-1.031v-1.094h1.031v-2.055l1.399-.843v2.898h1.414v1.094h-1.414v4.851c0 .401.023.66.07.774a.616.616 0 0 0 .242.273c.115.068.276.102.484.102.157 0 .362-.018.618-.055ZM560.508 74l4.398-11.453h1.633L571.227 74H569.5l-1.336-3.469h-4.789L562.117 74h-1.609Zm3.304-4.703h3.883l-1.195-3.172a31.078 31.078 0 0 1-.812-2.375 14.58 14.58 0 0 1-.618 2.188l-1.258 3.359Zm7.883 2.226 1.391-.218c.078.557.294.984.648 1.28.36.298.86.446 1.5.446.646 0 1.125-.13 1.438-.39.312-.266.469-.576.469-.93 0-.318-.138-.568-.414-.75-.193-.125-.672-.284-1.438-.477-1.031-.26-1.747-.484-2.148-.671a2.146 2.146 0 0 1-.907-.79 2.131 2.131 0 0 1-.304-1.117c0-.37.083-.71.25-1.023a2.3 2.3 0 0 1 .695-.79c.219-.16.516-.296.891-.406.38-.114.786-.171 1.218-.171.651 0 1.222.093 1.711.28.495.188.86.444 1.094.766.234.318.396.745.484 1.282l-1.375.187c-.062-.427-.244-.76-.546-1-.297-.24-.719-.36-1.266-.36-.646 0-1.107.108-1.383.321-.276.214-.414.464-.414.75 0 .182.057.346.172.492.115.151.294.276.539.375.141.053.555.172 1.242.36.995.265 1.688.484 2.078.656.396.167.706.412.93.734.224.323.336.724.336 1.204 0 .468-.138.911-.414 1.328-.271.411-.664.731-1.18.96-.515.225-1.099.337-1.75.337-1.078 0-1.901-.225-2.469-.672-.562-.448-.921-1.112-1.078-1.993Zm8.571-7.359v-1.617h1.406v1.617h-1.406Zm0 9.836v-8.297h1.406V74h-1.406Zm8.968-1.023c-.52.442-1.023.755-1.507.937-.48.182-.995.273-1.547.273-.912 0-1.612-.22-2.102-.664-.489-.447-.734-1.018-.734-1.71 0-.407.091-.776.273-1.11.188-.338.43-.61.727-.812.302-.204.64-.357 1.015-.461.276-.073.693-.144 1.25-.211 1.136-.136 1.972-.297 2.508-.485.005-.192.008-.315.008-.367 0-.573-.133-.976-.398-1.21-.36-.319-.894-.477-1.602-.477-.661 0-1.151.117-1.469.351-.312.23-.544.638-.695 1.227l-1.375-.188c.125-.588.331-1.062.617-1.422.287-.364.701-.643 1.242-.835.542-.198 1.17-.297 1.883-.297.708 0 1.284.083 1.727.25.442.166.768.377.976.632.209.25.354.568.438.954.047.24.07.671.07 1.296v1.875c0 1.308.029 2.136.086 2.485.063.344.182.674.359.992h-1.468a2.986 2.986 0 0 1-.282-1.023Zm-.117-3.141c-.51.208-1.276.385-2.297.531-.578.084-.987.177-1.226.281a1.212 1.212 0 0 0-.75 1.125c0 .375.14.688.422.938.286.25.703.375 1.25.375.541 0 1.023-.117 1.445-.352.422-.24.732-.565.93-.976.151-.318.226-.787.226-1.406v-.516ZM9.055 98V86.547h1.406v4.11c.656-.761 1.484-1.141 2.484-1.141.615 0 1.149.122 1.602.367.453.24.776.573.969 1 .197.427.296 1.047.296 1.86V98h-1.406v-5.258c0-.703-.153-1.213-.46-1.531-.303-.323-.732-.484-1.29-.484-.416 0-.81.109-1.18.328a1.816 1.816 0 0 0-.78.875c-.157.37-.235.88-.235 1.53V98H9.055Zm14.32-1.023c-.52.442-1.023.755-1.508.937-.479.182-.995.273-1.547.273-.911 0-1.612-.22-2.101-.664-.49-.447-.735-1.018-.735-1.71 0-.407.091-.776.274-1.11.187-.338.43-.61.726-.812.302-.204.641-.357 1.016-.461.276-.073.693-.144 1.25-.211 1.135-.136 1.971-.297 2.508-.485.005-.192.008-.315.008-.367 0-.573-.133-.976-.399-1.21-.36-.319-.893-.477-1.601-.477-.662 0-1.151.117-1.47.351-.312.23-.543.638-.694 1.227l-1.375-.188c.125-.588.33-1.062.617-1.422.286-.364.7-.643 1.242-.835.542-.198 1.17-.297 1.883-.297.708 0 1.284.083 1.726.25.443.166.768.377.977.632.208.25.354.568.437.954.047.24.07.671.07 1.296v1.875c0 1.308.03 2.136.087 2.485.062.344.182.674.359.992h-1.469a2.983 2.983 0 0 1-.281-1.023Zm-.117-3.141c-.51.208-1.276.385-2.297.531-.578.084-.987.177-1.227.281a1.214 1.214 0 0 0-.75 1.125c0 .375.141.688.422.938.287.25.703.375 1.25.375.542 0 1.024-.117 1.446-.352a2.21 2.21 0 0 0 .93-.976c.15-.318.226-.787.226-1.406v-.516ZM29.172 98l-3.156-8.297H27.5l1.781 4.969c.193.536.37 1.094.532 1.672.125-.438.299-.964.523-1.578l1.844-5.063h1.445L30.485 98h-1.313Zm5.703-9.836v-1.617h1.406v1.617h-1.406Zm0 9.836v-8.297h1.406V98h-1.406Zm3.555 0v-8.297h1.265v1.18c.61-.912 1.49-1.367 2.64-1.367.5 0 .96.09 1.376.273.422.177.737.412.945.703.209.292.354.638.438 1.04.052.26.078.715.078 1.366V98h-1.406v-5.047c0-.573-.055-1-.164-1.281a1.327 1.327 0 0 0-.586-.68 1.81 1.81 0 0 0-.977-.258c-.599 0-1.117.19-1.555.57-.432.38-.648 1.102-.648 2.165V98H38.43Zm8.648.688 1.367.203c.058.421.216.729.477.921.349.261.825.391 1.43.391.65 0 1.153-.13 1.507-.39.355-.26.594-.626.72-1.094.072-.287.106-.888.1-1.805-.614.724-1.38 1.086-2.296 1.086-1.14 0-2.024-.412-2.649-1.234-.625-.823-.937-1.81-.937-2.961 0-.792.143-1.521.43-2.188.286-.672.7-1.19 1.242-1.555.547-.364 1.187-.546 1.922-.546.979 0 1.786.395 2.422 1.187v-1h1.296v7.172c0 1.292-.132 2.206-.398 2.742-.26.542-.677.969-1.25 1.281-.568.313-1.268.469-2.102.469-.99 0-1.789-.224-2.398-.672-.61-.442-.904-1.112-.883-2.007Zm1.164-4.985c0 1.089.216 1.883.649 2.383.432.5.974.75 1.625.75.645 0 1.187-.248 1.625-.742.437-.5.656-1.281.656-2.344 0-1.016-.227-1.781-.68-2.297-.448-.516-.99-.773-1.625-.773-.625 0-1.156.255-1.594.765-.437.506-.656 1.258-.656 2.258Zm17.867 3.274c-.52.442-1.023.755-1.507.937-.48.182-.995.273-1.547.273-.912 0-1.612-.22-2.102-.664-.49-.447-.734-1.018-.734-1.71 0-.407.09-.776.273-1.11.188-.338.43-.61.727-.812a3.47 3.47 0 0 1 1.015-.461c.276-.073.693-.144 1.25-.211 1.136-.136 1.972-.297 2.508-.485.005-.192.008-.315.008-.367 0-.573-.133-.976-.398-1.21-.36-.319-.894-.477-1.602-.477-.661 0-1.151.117-1.469.351-.312.23-.544.638-.695 1.227l-1.375-.188c.125-.588.33-1.062.617-1.422.287-.364.7-.643 1.242-.835.542-.198 1.17-.297 1.883-.297.709 0 1.284.083 1.727.25.442.166.768.377.976.632.209.25.354.568.438.954.047.24.07.671.07 1.296v1.875c0 1.308.029 2.136.086 2.485.063.344.182.674.36.992h-1.47a2.981 2.981 0 0 1-.28-1.023Zm-.117-3.141c-.51.208-1.276.385-2.297.531-.578.084-.987.177-1.226.281a1.214 1.214 0 0 0-.75 1.125c0 .375.14.688.422.938.286.25.703.375 1.25.375.541 0 1.023-.117 1.445-.352a2.21 2.21 0 0 0 .93-.976c.15-.318.226-.787.226-1.406v-.516ZM74.055 98V86.547h1.406v4.11c.656-.761 1.484-1.141 2.484-1.141.615 0 1.149.122 1.602.367.453.24.776.573.969 1 .197.427.296 1.047.296 1.86V98h-1.406v-5.258c0-.703-.153-1.213-.46-1.531-.303-.323-.733-.484-1.29-.484-.416 0-.81.109-1.18.328a1.816 1.816 0 0 0-.78.875c-.157.37-.235.88-.235 1.53V98h-1.406Zm14.586-2.672 1.453.18c-.23.849-.654 1.508-1.274 1.976-.62.47-1.411.704-2.375.704-1.213 0-2.177-.373-2.89-1.118-.709-.75-1.063-1.8-1.063-3.148 0-1.396.36-2.48 1.078-3.25.72-.771 1.651-1.156 2.797-1.156 1.11 0 2.016.377 2.719 1.132.703.756 1.055 1.818 1.055 3.188 0 .083-.003.208-.008.375h-6.188c.052.911.31 1.61.774 2.094.463.484 1.041.726 1.734.726.516 0 .956-.135 1.32-.406.365-.27.654-.703.868-1.297Zm-4.618-2.273h4.633c-.062-.698-.24-1.222-.531-1.57-.448-.542-1.029-.813-1.742-.813-.646 0-1.19.216-1.633.648-.438.433-.68 1.01-.727 1.735Zm13.258 3.922c-.52.442-1.023.755-1.508.937-.479.182-.994.273-1.546.273-.912 0-1.612-.22-2.102-.664-.49-.447-.734-1.018-.734-1.71 0-.407.09-.776.273-1.11.188-.338.43-.61.727-.812.302-.204.64-.357 1.015-.461.276-.073.693-.144 1.25-.211 1.136-.136 1.972-.297 2.508-.485.005-.192.008-.315.008-.367 0-.573-.133-.976-.399-1.21-.359-.319-.893-.477-1.601-.477-.662 0-1.151.117-1.469.351-.312.23-.544.638-.695 1.227l-1.375-.188c.125-.588.33-1.062.617-1.422.287-.364.7-.643 1.242-.835.542-.198 1.17-.297 1.883-.297.708 0 1.284.083 1.727.25.442.166.768.377.976.632.209.25.354.568.438.954.046.24.07.671.07 1.296v1.875c0 1.308.029 2.136.086 2.485.062.344.182.674.36.992h-1.47a2.983 2.983 0 0 1-.28-1.023Zm-.117-3.141c-.51.208-1.276.385-2.297.531-.578.084-.987.177-1.226.281a1.214 1.214 0 0 0-.75 1.125c0 .375.14.688.421.938.287.25.704.375 1.25.375.542 0 1.024-.117 1.446-.352a2.21 2.21 0 0 0 .93-.976c.15-.318.226-.787.226-1.406v-.516ZM103.078 98l-3.156-8.297h1.484l1.782 4.969c.192.536.369 1.094.531 1.672.125-.438.299-.964.523-1.578l1.844-5.063h1.445L104.391 98h-1.313Zm5.633 3.195-.156-1.32c.307.083.575.125.804.125.313 0 .563-.052.75-.156.188-.104.342-.25.461-.438.089-.14.232-.49.43-1.047.026-.078.068-.192.125-.343l-3.148-8.313h1.515l1.727 4.805c.224.61.424 1.25.601 1.922.162-.646.354-1.276.578-1.89l1.774-4.837h1.406l-3.156 8.438c-.339.911-.602 1.539-.789 1.882-.25.464-.537.803-.86 1.016-.322.219-.708.328-1.156.328-.271 0-.573-.057-.906-.172ZM122.523 98h-1.304V86.547h1.406v4.086c.594-.745 1.352-1.117 2.273-1.117.511 0 .993.104 1.446.312.458.203.833.492 1.125.867.297.37.528.818.695 1.344.167.526.25 1.089.25 1.688 0 1.421-.352 2.52-1.055 3.296-.703.776-1.547 1.165-2.531 1.165-.979 0-1.747-.41-2.305-1.227V98Zm-.015-4.21c0 .994.135 1.713.406 2.155.443.724 1.042 1.086 1.797 1.086.615 0 1.146-.265 1.594-.797.448-.536.672-1.333.672-2.39 0-1.084-.217-1.883-.649-2.399-.427-.515-.945-.773-1.555-.773-.614 0-1.145.268-1.593.805-.448.53-.672 1.302-.672 2.312Zm7.101.062c0-1.537.427-2.675 1.282-3.415.713-.614 1.583-.921 2.609-.921 1.141 0 2.073.375 2.797 1.125.724.744 1.086 1.776 1.086 3.093 0 1.068-.162 1.91-.485 2.524a3.37 3.37 0 0 1-1.398 1.422 4.049 4.049 0 0 1-2 .507c-1.161 0-2.102-.372-2.82-1.117-.714-.744-1.071-1.817-1.071-3.218Zm1.446 0c0 1.062.231 1.859.695 2.39a2.234 2.234 0 0 0 1.75.79c.698 0 1.279-.266 1.742-.798.464-.53.696-1.34.696-2.43 0-1.025-.235-1.801-.704-2.327-.463-.532-1.041-.797-1.734-.797-.703 0-1.286.263-1.75.789-.464.526-.695 1.32-.695 2.383ZM144.422 98v-1.047c-.526.823-1.3 1.234-2.32 1.234a3.275 3.275 0 0 1-1.829-.546c-.552-.365-.981-.873-1.289-1.524-.302-.656-.453-1.409-.453-2.258 0-.828.138-1.578.414-2.25.276-.677.69-1.195 1.243-1.554a3.32 3.32 0 0 1 1.851-.54c.5 0 .945.107 1.336.32.391.21.708.483.953.821v-4.11h1.399V98h-1.305Zm-4.445-4.14c0 1.062.224 1.856.671 2.382.448.526.977.79 1.586.79.615 0 1.136-.25 1.563-.75.432-.506.648-1.274.648-2.305 0-1.136-.218-1.97-.656-2.5-.437-.532-.977-.797-1.617-.797-.625 0-1.149.255-1.57.765-.417.51-.625 1.315-.625 2.414Zm7.906 7.335-.156-1.32c.307.083.575.125.804.125.313 0 .563-.052.75-.156.188-.104.341-.25.461-.438.089-.14.232-.49.43-1.047.026-.078.068-.192.125-.343l-3.149-8.313h1.516l1.727 4.805c.224.61.424 1.25.601 1.922.162-.646.354-1.276.578-1.89l1.774-4.837h1.406l-3.156 8.438c-.339.911-.602 1.539-.789 1.882-.25.464-.537.803-.86 1.016-.323.219-.708.328-1.156.328-.271 0-.573-.057-.906-.172Zm17.929-4.218c-.52.442-1.023.755-1.507.937a4.314 4.314 0 0 1-1.547.273c-.912 0-1.612-.22-2.102-.664-.489-.447-.734-1.018-.734-1.71 0-.407.091-.776.273-1.11.188-.338.43-.61.727-.812a3.46 3.46 0 0 1 1.016-.461c.276-.073.692-.144 1.25-.211 1.135-.136 1.971-.297 2.507-.485.006-.192.008-.315.008-.367 0-.573-.133-.976-.398-1.21-.36-.319-.894-.477-1.602-.477-.661 0-1.151.117-1.469.351-.312.23-.544.638-.695 1.227l-1.375-.188c.125-.588.331-1.062.617-1.422.287-.364.701-.643 1.242-.835.542-.198 1.17-.297 1.883-.297.709 0 1.284.083 1.727.25.443.166.768.377.976.632.209.25.355.568.438.954.047.24.07.671.07 1.296v1.875c0 1.308.029 2.136.086 2.485.063.344.182.674.359.992h-1.468a2.986 2.986 0 0 1-.282-1.023Zm-.117-3.141c-.51.208-1.276.385-2.297.531-.578.084-.987.177-1.226.281a1.212 1.212 0 0 0-.75 1.125c0 .375.14.688.422.938.286.25.703.375 1.25.375.541 0 1.023-.117 1.445-.352.422-.24.732-.565.93-.976.151-.318.226-.787.226-1.406v-.516Zm3.61 4.164v-8.297h1.265v1.18c.61-.912 1.49-1.367 2.641-1.367.5 0 .958.09 1.375.273.422.177.737.412.945.703.209.292.354.638.438 1.04.052.26.078.715.078 1.366V98h-1.406v-5.047c0-.573-.055-1-.164-1.281a1.33 1.33 0 0 0-.586-.68 1.81 1.81 0 0 0-.977-.258c-.599 0-1.117.19-1.555.57-.432.38-.648 1.102-.648 2.165V98h-1.406Zm14.289 0v-1.047c-.526.823-1.3 1.234-2.321 1.234-.661 0-1.27-.182-1.828-.546-.552-.365-.981-.873-1.289-1.524-.302-.656-.453-1.409-.453-2.258 0-.828.138-1.578.414-2.25.276-.677.69-1.195 1.242-1.554.552-.36 1.17-.54 1.852-.54.5 0 .945.107 1.336.32.391.21.708.483.953.821v-4.11h1.398V98h-1.304Zm-4.446-4.14c0 1.062.224 1.856.672 2.382.448.526.977.79 1.586.79.615 0 1.136-.25 1.563-.75.432-.506.648-1.274.648-2.305 0-1.136-.219-1.97-.656-2.5-.438-.532-.977-.797-1.617-.797-.625 0-1.149.255-1.571.765-.416.51-.625 1.315-.625 2.414ZM191.906 98v-7.203h-1.242v-1.094h1.242v-.883c0-.557.05-.971.149-1.242a1.78 1.78 0 0 1 .711-.883c.343-.229.823-.343 1.437-.343.396 0 .833.046 1.313.14l-.211 1.227a4.723 4.723 0 0 0-.828-.078c-.428 0-.73.09-.907.273-.177.182-.265.523-.265 1.023v.766h1.617v1.094h-1.617V98h-1.399Zm4.086 0V86.547h1.406V98h-1.406Zm9.274-2.672 1.453.18c-.229.849-.654 1.508-1.274 1.976-.619.47-1.411.704-2.375.704-1.213 0-2.177-.373-2.89-1.118-.709-.75-1.063-1.8-1.063-3.148 0-1.396.36-2.48 1.078-3.25.719-.771 1.651-1.156 2.797-1.156 1.11 0 2.016.377 2.719 1.132.703.756 1.055 1.818 1.055 3.188 0 .083-.003.208-.008.375h-6.188c.052.911.31 1.61.774 2.094.463.484 1.041.726 1.734.726.516 0 .956-.135 1.32-.406.365-.27.654-.703.868-1.297Zm-4.618-2.273h4.633c-.062-.698-.239-1.222-.531-1.57-.448-.542-1.029-.813-1.742-.813-.646 0-1.19.216-1.633.648-.437.433-.68 1.01-.727 1.735Zm7.282 2.468 1.39-.218c.078.557.295.984.649 1.28.359.298.859.446 1.5.446.646 0 1.125-.13 1.437-.39.313-.266.469-.576.469-.93 0-.318-.138-.568-.414-.75-.193-.125-.672-.284-1.438-.477-1.031-.26-1.747-.484-2.148-.671a2.137 2.137 0 0 1-.906-.79 2.132 2.132 0 0 1-.305-1.117c0-.37.083-.71.25-1.023a2.31 2.31 0 0 1 .695-.79c.219-.16.516-.296.891-.406a4.2 4.2 0 0 1 1.219-.171c.651 0 1.221.093 1.711.28.494.188.859.444 1.093.766.235.318.396.745.485 1.282l-1.375.187c-.063-.427-.245-.76-.547-1-.297-.24-.719-.36-1.266-.36-.646 0-1.106.108-1.382.321-.277.214-.415.464-.415.75a.78.78 0 0 0 .172.492c.115.151.295.276.539.375.141.053.555.172 1.243.36.994.265 1.687.484 2.078.656.396.167.705.412.929.734.224.323.336.724.336 1.204 0 .468-.138.911-.414 1.328-.271.411-.664.731-1.179.96-.516.225-1.099.337-1.75.337-1.079 0-1.901-.225-2.469-.672-.563-.448-.922-1.112-1.078-1.993ZM216.492 98V86.547h1.406v4.11c.657-.761 1.485-1.141 2.485-1.141.614 0 1.148.122 1.601.367.454.24.776.573.969 1 .198.427.297 1.047.297 1.86V98h-1.406v-5.258c0-.703-.154-1.213-.461-1.531-.302-.323-.732-.484-1.289-.484-.417 0-.81.109-1.18.328a1.812 1.812 0 0 0-.781.875c-.156.37-.235.88-.235 1.53V98h-1.406Zm8.844 3.195-.156-1.32c.307.083.575.125.804.125.313 0 .563-.052.75-.156.188-.104.342-.25.461-.438.089-.14.232-.49.43-1.047.026-.078.068-.192.125-.343l-3.148-8.313h1.515l1.727 4.805c.224.61.424 1.25.601 1.922.162-.646.354-1.276.578-1.89l1.774-4.837h1.406l-3.156 8.438c-.339.911-.602 1.539-.789 1.882-.25.464-.537.803-.86 1.016-.322.219-.708.328-1.156.328-.271 0-.573-.057-.906-.172Zm11.953-5.672 1.391-.218c.078.557.294.984.648 1.28.36.298.86.446 1.5.446.646 0 1.125-.13 1.438-.39.312-.266.468-.576.468-.93 0-.318-.138-.568-.414-.75-.192-.125-.672-.284-1.437-.477-1.031-.26-1.748-.484-2.149-.671a2.143 2.143 0 0 1-.906-.79 2.132 2.132 0 0 1-.305-1.117c0-.37.084-.71.25-1.023.172-.318.404-.58.696-.79.219-.16.515-.296.89-.406a4.21 4.21 0 0 1 1.219-.171c.651 0 1.221.093 1.711.28.495.188.859.444 1.094.766.234.318.396.745.484 1.282l-1.375.187c-.062-.427-.245-.76-.547-1-.297-.24-.718-.36-1.265-.36-.646 0-1.107.108-1.383.321-.276.214-.414.464-.414.75 0 .182.057.346.172.492.114.151.294.276.539.375.14.053.554.172 1.242.36.995.265 1.687.484 2.078.656.396.167.706.412.93.734.224.323.336.724.336 1.204 0 .468-.138.911-.414 1.328-.271.411-.664.731-1.18.96-.516.225-1.099.337-1.75.337-1.078 0-1.901-.225-2.469-.672-.562-.448-.922-1.112-1.078-1.993ZM245.852 98v-8.297h1.265v1.18c.61-.912 1.49-1.367 2.641-1.367.5 0 .958.09 1.375.273.422.177.737.412.945.703.208.292.354.638.438 1.04.052.26.078.715.078 1.366V98h-1.406v-5.047c0-.573-.055-1-.165-1.281a1.324 1.324 0 0 0-.585-.68 1.813 1.813 0 0 0-.977-.258c-.599 0-1.117.19-1.555.57-.432.38-.648 1.102-.648 2.165V98h-1.406Zm8.382-4.148c0-1.537.427-2.675 1.282-3.415.713-.614 1.583-.921 2.609-.921 1.141 0 2.073.375 2.797 1.125.724.744 1.086 1.776 1.086 3.093 0 1.068-.162 1.91-.485 2.524a3.37 3.37 0 0 1-1.398 1.422 4.049 4.049 0 0 1-2 .507c-1.161 0-2.102-.372-2.82-1.117-.714-.744-1.071-1.817-1.071-3.218Zm1.446 0c0 1.062.231 1.859.695 2.39a2.234 2.234 0 0 0 1.75.79c.698 0 1.279-.266 1.742-.798.464-.53.695-1.34.695-2.43 0-1.025-.234-1.801-.703-2.327-.463-.532-1.041-.797-1.734-.797-.703 0-1.286.263-1.75.789-.464.526-.695 1.32-.695 2.383ZM269.102 98v-1.219c-.646.938-1.524 1.406-2.633 1.406-.49 0-.948-.093-1.375-.28-.422-.188-.737-.423-.946-.704a2.716 2.716 0 0 1-.429-1.047c-.058-.276-.086-.713-.086-1.312v-5.14h1.406v4.6c0 .735.029 1.23.086 1.485.089.37.276.662.563.875.286.208.64.313 1.062.313.422 0 .818-.107 1.188-.32.369-.22.63-.514.781-.884.156-.375.234-.916.234-1.625v-4.445h1.406V98h-1.257Zm6.539-1.258.203 1.242a5.22 5.22 0 0 1-1.063.125c-.51 0-.906-.08-1.187-.242a1.36 1.36 0 0 1-.594-.633c-.115-.265-.172-.82-.172-1.664v-4.773h-1.031v-1.094h1.031v-2.055l1.399-.843v2.898h1.414v1.094h-1.414v4.851c0 .401.023.66.07.774a.616.616 0 0 0 .242.273c.115.068.276.102.484.102.157 0 .362-.018.618-.055Z" fill="#1B1B1B"/></svg>