<svg width="600" height="302" fill="none" xmlns="http://www.w3.org/2000/svg"><path d="M17.46 34V22.372H7.02V34H3.6V9.196h3.42v10.368h10.44V9.196h3.42V34h-3.42Zm25.257-10.044c0 .552-.024 1.116-.072 1.692H30.549c.144 2.088.672 3.624 1.584 4.608.912.984 2.088 1.476 3.528 1.476.912 0 1.752-.132 2.52-.396s1.572-.684 2.412-1.26l1.44 1.98c-2.016 1.584-4.224 2.376-6.624 2.376-2.64 0-4.704-.864-6.192-2.592-1.464-1.728-2.196-4.104-2.196-7.128 0-1.968.312-3.708.936-5.22.648-1.536 1.56-2.736 2.736-3.6 1.2-.864 2.604-1.296 4.212-1.296 2.52 0 4.452.828 5.796 2.484 1.344 1.656 2.016 3.948 2.016 6.876Zm-3.276-.972c0-1.872-.372-3.3-1.116-4.284-.744-.984-1.86-1.476-3.348-1.476-2.712 0-4.188 1.992-4.428 5.976h8.892v-.216Zm21.493 6.588c0 .768.132 1.344.396 1.728.264.36.66.636 1.188.828l-.756 2.304c-.984-.12-1.776-.396-2.376-.828-.6-.432-1.044-1.104-1.332-2.016-1.272 1.896-3.156 2.844-5.652 2.844-1.872 0-3.348-.528-4.428-1.584s-1.62-2.436-1.62-4.14c0-2.016.72-3.564 2.16-4.644 1.464-1.08 3.528-1.62 6.192-1.62h2.916V21.04c0-1.344-.324-2.304-.972-2.88-.648-.576-1.644-.864-2.988-.864-1.392 0-3.096.336-5.112 1.008l-.828-2.412c2.352-.864 4.536-1.296 6.552-1.296 2.232 0 3.9.552 5.004 1.656 1.104 1.08 1.656 2.628 1.656 4.644v8.676Zm-7.776 2.376c1.896 0 3.384-.984 4.464-2.952V24.64h-2.484c-3.504 0-5.256 1.296-5.256 3.888 0 1.128.276 1.98.828 2.556.552.576 1.368.864 2.448.864ZM82.924 7.396V34h-2.916l-.324-2.628a7.034 7.034 0 0 1-2.34 2.268c-.936.528-1.98.792-3.132.792-2.256 0-4.02-.888-5.292-2.664-1.248-1.776-1.872-4.164-1.872-7.164 0-1.944.3-3.672.9-5.184.6-1.512 1.464-2.688 2.592-3.528 1.128-.864 2.448-1.296 3.96-1.296 1.944 0 3.648.78 5.112 2.34V7l3.312.396Zm-7.992 24.408c1.008 0 1.872-.228 2.592-.684.72-.48 1.416-1.188 2.088-2.124v-9.288c-.624-.816-1.296-1.428-2.016-1.836-.696-.432-1.488-.648-2.376-.648-1.464 0-2.604.612-3.42 1.836-.792 1.224-1.188 3.048-1.188 5.472 0 2.448.372 4.272 1.116 5.472.744 1.2 1.812 1.8 3.204 1.8Zm18.632-16.776V34h-3.312V15.028h3.312ZM91.872 5.92c.696 0 1.26.216 1.692.648.432.432.648.972.648 1.62 0 .648-.216 1.188-.648 1.62-.432.408-.996.612-1.692.612-.672 0-1.224-.204-1.656-.612-.432-.432-.648-.972-.648-1.62 0-.648.216-1.188.648-1.62.432-.432.984-.648 1.656-.648Zm17.968 8.676c1.728 0 3.072.516 4.032 1.548.984 1.032 1.476 2.448 1.476 4.248V34h-3.312V20.86c0-1.344-.252-2.292-.756-2.844s-1.248-.828-2.232-.828c-1.008 0-1.896.288-2.664.864-.768.576-1.488 1.404-2.16 2.484V34h-3.312V15.028h2.844l.288 2.808c.672-1.008 1.5-1.8 2.484-2.376a6.56 6.56 0 0 1 3.312-.864Zm27.966 1.296c-.72.24-1.512.396-2.376.468a39.08 39.08 0 0 1-3.168.108c2.232 1.008 3.348 2.604 3.348 4.788 0 1.896-.648 3.444-1.944 4.644-1.296 1.2-3.06 1.8-5.292 1.8-.864 0-1.668-.12-2.412-.36a2.008 2.008 0 0 0-.684.792 2.024 2.024 0 0 0-.252.972c0 1.032.828 1.548 2.484 1.548h3.024c1.272 0 2.4.228 3.384.684.984.456 1.74 1.08 2.268 1.872.552.792.828 1.692.828 2.7 0 1.848-.756 3.264-2.268 4.248-1.512 1.008-3.72 1.512-6.624 1.512-2.04 0-3.66-.216-4.86-.648-1.176-.408-2.016-1.032-2.52-1.872-.504-.84-.756-1.92-.756-3.24h2.988c0 .768.144 1.368.432 1.8.288.456.804.792 1.548 1.008.744.24 1.8.36 3.168.36 1.992 0 3.408-.252 4.248-.756.864-.48 1.296-1.212 1.296-2.196 0-.888-.336-1.56-1.008-2.016-.672-.456-1.608-.684-2.808-.684h-2.988c-1.608 0-2.832-.336-3.672-1.008-.816-.696-1.224-1.56-1.224-2.592 0-.624.18-1.224.54-1.8.36-.576.876-1.092 1.548-1.548-1.104-.576-1.92-1.284-2.448-2.124-.504-.864-.756-1.908-.756-3.132 0-1.272.312-2.412.936-3.42a6.531 6.531 0 0 1 2.628-2.34c1.128-.576 2.376-.864 3.744-.864 1.488.024 2.736-.024 3.744-.144 1.008-.144 1.836-.324 2.484-.54.672-.24 1.488-.576 2.448-1.008l.972 2.988Zm-9.648 1.08c-1.248 0-2.22.396-2.916 1.188-.672.768-1.008 1.788-1.008 3.06 0 1.296.348 2.34 1.044 3.132.696.768 1.68 1.152 2.952 1.152 1.296 0 2.28-.372 2.952-1.116.696-.768 1.044-1.836 1.044-3.204 0-2.808-1.356-4.212-4.068-4.212Zm27.358 17.46c-1.224 0-2.196-.36-2.916-1.08-.696-.744-1.044-1.776-1.044-3.096V7.396L154.868 7v23.184c0 .528.084.912.252 1.152.192.24.504.36.936.36.456 0 .864-.072 1.224-.216l.864 2.304c-.792.432-1.668.648-2.628.648Zm21.42-10.476c0 .552-.024 1.116-.072 1.692h-12.096c.144 2.088.672 3.624 1.584 4.608.912.984 2.088 1.476 3.528 1.476.912 0 1.752-.132 2.52-.396s1.572-.684 2.412-1.26l1.44 1.98c-2.016 1.584-4.224 2.376-6.624 2.376-2.64 0-4.704-.864-6.192-2.592-1.464-1.728-2.196-4.104-2.196-7.128 0-1.968.312-3.708.936-5.22.648-1.536 1.56-2.736 2.736-3.6 1.2-.864 2.604-1.296 4.212-1.296 2.52 0 4.452.828 5.796 2.484 1.344 1.656 2.016 3.948 2.016 6.876Zm-3.276-.972c0-1.872-.372-3.3-1.116-4.284-.744-.984-1.86-1.476-3.348-1.476-2.712 0-4.188 1.992-4.428 5.976h8.892v-.216Zm22.856-7.956L190.072 34h-3.996l-6.552-18.972h3.6l4.968 16.02 4.932-16.02h3.492Zm18.474 8.928c0 .552-.024 1.116-.072 1.692h-12.096c.144 2.088.672 3.624 1.584 4.608.912.984 2.088 1.476 3.528 1.476.912 0 1.752-.132 2.52-.396s1.572-.684 2.412-1.26l1.44 1.98c-2.016 1.584-4.224 2.376-6.624 2.376-2.64 0-4.704-.864-6.192-2.592-1.464-1.728-2.196-4.104-2.196-7.128 0-1.968.312-3.708.936-5.22.648-1.536 1.56-2.736 2.736-3.6 1.2-.864 2.604-1.296 4.212-1.296 2.52 0 4.452.828 5.796 2.484 1.344 1.656 2.016 3.948 2.016 6.876Zm-3.276-.972c0-1.872-.372-3.3-1.116-4.284-.744-.984-1.86-1.476-3.348-1.476-2.712 0-4.188 1.992-4.428 5.976h8.892v-.216Zm12.845 11.448c-1.224 0-2.196-.36-2.916-1.08-.696-.744-1.044-1.776-1.044-3.096V7.396L223.911 7v23.184c0 .528.084.912.252 1.152.192.24.504.36.936.36.456 0 .864-.072 1.224-.216l.864 2.304c-.792.432-1.668.648-2.628.648Zm24.423-19.836c2.664 0 4.728.888 6.192 2.664 1.488 1.776 2.232 4.188 2.232 7.236 0 1.968-.336 3.708-1.008 5.22-.672 1.488-1.644 2.652-2.916 3.492-1.272.816-2.784 1.224-4.536 1.224-2.664 0-4.74-.888-6.228-2.664-1.488-1.776-2.232-4.188-2.232-7.236 0-1.968.336-3.696 1.008-5.184.672-1.512 1.644-2.676 2.916-3.492 1.272-.84 2.796-1.26 4.572-1.26Zm0 2.664c-3.288 0-4.932 2.424-4.932 7.272 0 4.824 1.632 7.236 4.896 7.236 3.264 0 4.896-2.424 4.896-7.272 0-4.824-1.62-7.236-4.86-7.236Zm23.323-2.664c1.728 0 3.072.516 4.032 1.548.984 1.032 1.476 2.448 1.476 4.248V34h-3.312V20.86c0-1.344-.252-2.292-.756-2.844s-1.248-.828-2.232-.828c-1.008 0-1.896.288-2.664.864-.768.576-1.488 1.404-2.16 2.484V34h-3.312V15.028h2.844l.288 2.808c.672-1.008 1.5-1.8 2.484-2.376a6.56 6.56 0 0 1 3.312-.864Zm26.994 9.36c0 .552-.024 1.116-.072 1.692h-12.096c.144 2.088.672 3.624 1.584 4.608.912.984 2.088 1.476 3.528 1.476.912 0 1.752-.132 2.52-.396s1.572-.684 2.412-1.26l1.44 1.98c-2.016 1.584-4.224 2.376-6.624 2.376-2.64 0-4.704-.864-6.192-2.592-1.464-1.728-2.196-4.104-2.196-7.128 0-1.968.312-3.708.936-5.22.648-1.536 1.56-2.736 2.736-3.6 1.2-.864 2.604-1.296 4.212-1.296 2.52 0 4.452.828 5.796 2.484 1.344 1.656 2.016 3.948 2.016 6.876Zm-3.276-.972c0-1.872-.372-3.3-1.116-4.284-.744-.984-1.86-1.476-3.348-1.476-2.712 0-4.188 1.992-4.428 5.976h8.892v-.216ZM15.52 97V86.664H6.24V97H3.2V74.952h3.04v9.216h9.28v-9.216h3.04V97h-3.04Zm22.506-8.928c0 .49-.021.992-.064 1.504H27.21c.128 1.856.597 3.221 1.408 4.096.81.875 1.856 1.312 3.136 1.312a6.85 6.85 0 0 0 2.24-.352c.683-.235 1.397-.608 2.144-1.12l1.28 1.76c-1.792 1.408-3.755 2.112-5.888 2.112-2.347 0-4.181-.768-5.504-2.304-1.301-1.536-1.952-3.648-1.952-6.336 0-1.75.277-3.296.832-4.64.576-1.365 1.387-2.432 2.432-3.2 1.067-.768 2.315-1.152 3.744-1.152 2.24 0 3.957.736 5.152 2.208 1.195 1.472 1.792 3.51 1.792 6.112Zm-2.912-.864c0-1.664-.33-2.933-.992-3.808-.661-.875-1.653-1.312-2.976-1.312-2.41 0-3.723 1.77-3.936 5.312h7.904v-.192Zm19.161 5.856c0 .683.117 1.195.352 1.536.235.32.587.565 1.056.736l-.672 2.048c-.875-.107-1.579-.352-2.112-.736-.533-.384-.928-.981-1.184-1.792-1.13 1.685-2.805 2.528-5.024 2.528-1.664 0-2.976-.47-3.936-1.408-.96-.939-1.44-2.165-1.44-3.68 0-1.792.64-3.168 1.92-4.128 1.301-.96 3.136-1.44 5.504-1.44h2.592V85.48c0-1.195-.288-2.048-.864-2.56-.576-.512-1.461-.768-2.656-.768-1.237 0-2.752.299-4.544.896l-.736-2.144c2.09-.768 4.032-1.152 5.824-1.152 1.984 0 3.467.49 4.448 1.472.981.96 1.472 2.336 1.472 4.128v7.712Zm-6.912 2.112c1.685 0 3.008-.875 3.968-2.624V88.68h-2.208c-3.115 0-4.672 1.152-4.672 3.456 0 1.003.245 1.76.736 2.272.49.512 1.216.768 2.176.768Zm26.514-21.824V97h-2.592l-.288-2.336a6.253 6.253 0 0 1-2.08 2.016c-.832.47-1.76.704-2.784.704-2.005 0-3.573-.79-4.704-2.368-1.11-1.579-1.664-3.701-1.664-6.368 0-1.728.267-3.264.8-4.608.534-1.344 1.302-2.39 2.304-3.136 1.003-.768 2.176-1.152 3.52-1.152 1.728 0 3.243.693 4.544 2.08V73l2.944.352Zm-7.104 21.696c.896 0 1.664-.203 2.304-.608.64-.427 1.259-1.056 1.856-1.888v-8.256c-.554-.725-1.152-1.27-1.792-1.632-.618-.384-1.322-.576-2.112-.576-1.301 0-2.314.544-3.04 1.632-.704 1.088-1.056 2.71-1.056 4.864 0 2.176.33 3.797.992 4.864.662 1.067 1.61 1.6 2.848 1.6ZM83.39 80.136V97h-2.944V80.136h2.944Zm-1.504-8.096c.619 0 1.12.192 1.504.576.384.384.576.864.576 1.44s-.192 1.056-.576 1.44c-.384.363-.885.544-1.504.544-.597 0-1.088-.181-1.472-.544-.384-.384-.576-.864-.576-1.44s.192-1.056.576-1.44c.384-.384.875-.576 1.472-.576Zm16.028 7.712c1.535 0 2.73.459 3.584 1.376.874.917 1.312 2.176 1.312 3.776V97h-2.945V85.32c0-1.195-.224-2.037-.671-2.528-.448-.49-1.11-.736-1.984-.736-.896 0-1.686.256-2.368.768-.683.512-1.323 1.248-1.92 2.208V97h-2.944V80.136h2.528l.255 2.496c.598-.896 1.334-1.6 2.209-2.112a5.83 5.83 0 0 1 2.944-.768Zm24.914 1.152a9.043 9.043 0 0 1-2.112.416c-.768.064-1.707.096-2.816.096 1.984.896 2.976 2.315 2.976 4.256 0 1.685-.576 3.061-1.728 4.128-1.152 1.067-2.72 1.6-4.704 1.6a6.946 6.946 0 0 1-2.144-.32c-.256.17-.459.405-.608.704-.15.277-.224.565-.224.864 0 .917.736 1.376 2.208 1.376h2.688c1.13 0 2.133.203 3.008.608.874.405 1.546.96 2.016 1.664.49.704.736 1.504.736 2.4 0 1.643-.672 2.901-2.016 3.776-1.344.896-3.307 1.344-5.888 1.344-1.814 0-3.254-.192-4.32-.576-1.046-.363-1.792-.917-2.24-1.664-.448-.747-.672-1.707-.672-2.88h2.656c0 .683.128 1.216.384 1.6.256.405.714.704 1.376.896.661.213 1.6.32 2.816.32 1.77 0 3.029-.224 3.776-.672.768-.427 1.152-1.077 1.152-1.952 0-.79-.299-1.387-.896-1.792-.598-.405-1.43-.608-2.496-.608H113.1c-1.43 0-2.518-.299-3.264-.896-.726-.619-1.088-1.387-1.088-2.304 0-.555.16-1.088.48-1.6.32-.512.778-.97 1.376-1.376-.982-.512-1.707-1.141-2.176-1.888-.448-.768-.672-1.696-.672-2.784 0-1.13.277-2.144.832-3.04a5.801 5.801 0 0 1 2.336-2.08c1.002-.512 2.112-.768 3.328-.768 1.322.021 2.432-.021 3.328-.128.896-.128 1.632-.288 2.208-.48a30.496 30.496 0 0 0 2.176-.896l.864 2.656Zm-8.576.96c-1.11 0-1.974.352-2.592 1.056-.598.683-.896 1.59-.896 2.72 0 1.152.309 2.08.928 2.784.618.683 1.493 1.024 2.624 1.024 1.152 0 2.026-.33 2.624-.992.618-.683.928-1.632.928-2.848 0-2.496-1.206-3.744-3.616-3.744Zm24.429 15.52c-1.088 0-1.952-.32-2.592-.96-.618-.661-.928-1.579-.928-2.752v-20.32l2.944-.352v20.608c0 .47.075.81.224 1.024.171.213.448.32.832.32.406 0 .768-.064 1.088-.192l.768 2.048a4.796 4.796 0 0 1-2.336.576Zm19.095-9.312c0 .49-.021.992-.064 1.504H146.96c.128 1.856.597 3.221 1.408 4.096.811.875 1.856 1.312 3.136 1.312a6.85 6.85 0 0 0 2.24-.352c.683-.235 1.397-.608 2.144-1.12l1.28 1.76c-1.792 1.408-3.755 2.112-5.888 2.112-2.347 0-4.181-.768-5.504-2.304-1.301-1.536-1.952-3.648-1.952-6.336 0-1.75.277-3.296.832-4.64.576-1.365 1.387-2.432 2.432-3.2 1.067-.768 2.315-1.152 3.744-1.152 2.24 0 3.957.736 5.152 2.208 1.195 1.472 1.792 3.51 1.792 6.112Zm-2.912-.864c0-1.664-.331-2.933-.992-3.808s-1.653-1.312-2.976-1.312c-2.411 0-3.723 1.77-3.936 5.312h7.904v-.192Zm20.373-7.072L169.509 97h-3.552l-5.824-16.864h3.2l4.416 14.24 4.384-14.24h3.104Zm16.477 7.936c0 .49-.022.992-.064 1.504h-10.752c.128 1.856.597 3.221 1.408 4.096.81.875 1.856 1.312 3.136 1.312.81 0 1.557-.117 2.24-.352.682-.235 1.397-.608 2.144-1.12l1.28 1.76c-1.792 1.408-3.755 2.112-5.888 2.112-2.347 0-4.182-.768-5.504-2.304-1.302-1.536-1.952-3.648-1.952-6.336 0-1.75.277-3.296.832-4.64.576-1.365 1.386-2.432 2.432-3.2 1.066-.768 2.314-1.152 3.744-1.152 2.24 0 3.957.736 5.152 2.208 1.194 1.472 1.792 3.51 1.792 6.112Zm-2.912-.864c0-1.664-.331-2.933-.992-3.808-.662-.875-1.654-1.312-2.976-1.312-2.411 0-3.723 1.77-3.936 5.312h7.904v-.192Zm11.473 10.176c-1.088 0-1.952-.32-2.592-.96-.619-.661-.928-1.579-.928-2.752v-20.32l2.944-.352v20.608c0 .47.075.81.224 1.024.171.213.448.32.832.32a2.91 2.91 0 0 0 1.088-.192l.768 2.048a4.799 4.799 0 0 1-2.336.576Zm21.82-17.632c2.368 0 4.202.79 5.504 2.368 1.322 1.579 1.984 3.723 1.984 6.432 0 1.75-.299 3.296-.896 4.64-.598 1.323-1.462 2.357-2.592 3.104-1.131.725-2.475 1.088-4.032 1.088-2.368 0-4.214-.79-5.536-2.368-1.323-1.579-1.984-3.723-1.984-6.432 0-1.75.298-3.285.896-4.608.597-1.344 1.461-2.379 2.592-3.104 1.13-.747 2.485-1.12 4.064-1.12Zm0 2.368c-2.923 0-4.384 2.155-4.384 6.464 0 4.288 1.45 6.432 4.352 6.432 2.901 0 4.352-2.155 4.352-6.464 0-4.288-1.44-6.432-4.32-6.432Zm20.787-2.368c1.536 0 2.731.459 3.584 1.376.875.917 1.312 2.176 1.312 3.776V97h-2.944V85.32c0-1.195-.224-2.037-.672-2.528-.448-.49-1.109-.736-1.984-.736-.896 0-1.685.256-2.368.768-.682.512-1.322 1.248-1.92 2.208V97h-2.944V80.136h2.528l.256 2.496c.598-.896 1.334-1.6 2.208-2.112a5.832 5.832 0 0 1 2.944-.768Zm24.05 8.32c0 .49-.021.992-.064 1.504h-10.752c.128 1.856.598 3.221 1.408 4.096.811.875 1.856 1.312 3.136 1.312.811 0 1.558-.117 2.24-.352.683-.235 1.398-.608 2.144-1.12l1.28 1.76c-1.792 1.408-3.754 2.112-5.888 2.112-2.346 0-4.181-.768-5.504-2.304-1.301-1.536-1.952-3.648-1.952-6.336 0-1.75.278-3.296.832-4.64.576-1.365 1.387-2.432 2.432-3.2 1.067-.768 2.315-1.152 3.744-1.152 2.24 0 3.958.736 5.152 2.208 1.195 1.472 1.792 3.51 1.792 6.112Zm-2.912-.864c0-1.664-.33-2.933-.992-3.808-.661-.875-1.653-1.312-2.976-1.312-2.41 0-3.722 1.77-3.936 5.312h7.904v-.192ZM13.58 155v-9.044H5.46V155H2.8v-19.292h2.66v8.064h8.12v-8.064h2.66V155h-2.66Zm19.755-7.812c0 .429-.018.868-.056 1.316h-9.408c.112 1.624.523 2.819 1.232 3.584.71.765 1.624 1.148 2.744 1.148.71 0 1.363-.103 1.96-.308.598-.205 1.223-.532 1.876-.98l1.12 1.54c-1.568 1.232-3.285 1.848-5.152 1.848-2.053 0-3.658-.672-4.816-2.016-1.138-1.344-1.708-3.192-1.708-5.544 0-1.531.243-2.884.728-4.06.504-1.195 1.214-2.128 2.128-2.8.934-.672 2.026-1.008 3.276-1.008 1.96 0 3.463.644 4.508 1.932 1.046 1.288 1.568 3.071 1.568 5.348Zm-2.548-.756c0-1.456-.29-2.567-.868-3.332-.578-.765-1.446-1.148-2.604-1.148-2.11 0-3.257 1.549-3.444 4.648h6.916v-.168Zm16.829 5.124c0 .597.102 1.045.308 1.344.205.28.513.495.924.644l-.588 1.792c-.766-.093-1.382-.308-1.848-.644-.467-.336-.812-.859-1.036-1.568-.99 1.475-2.455 2.212-4.396 2.212-1.456 0-2.604-.411-3.444-1.232-.84-.821-1.26-1.895-1.26-3.22 0-1.568.56-2.772 1.68-3.612 1.138-.84 2.744-1.26 4.816-1.26h2.268v-1.092c0-1.045-.252-1.792-.756-2.24-.504-.448-1.279-.672-2.324-.672-1.083 0-2.408.261-3.976.784l-.644-1.876c1.829-.672 3.528-1.008 5.096-1.008 1.736 0 3.033.429 3.892 1.288.858.84 1.288 2.044 1.288 3.612v6.748Zm-6.048 1.848c1.474 0 2.632-.765 3.472-2.296v-3.388h-1.932c-2.726 0-4.088 1.008-4.088 3.024 0 .877.214 1.54.644 1.988.429.448 1.064.672 1.904.672Zm23.262-19.096V155h-2.268l-.252-2.044a5.464 5.464 0 0 1-1.82 1.764c-.728.411-1.54.616-2.436.616-1.755 0-3.127-.691-4.116-2.072-.97-1.381-1.456-3.239-1.456-5.572 0-1.512.233-2.856.7-4.032.467-1.176 1.139-2.091 2.016-2.744.877-.672 1.904-1.008 3.08-1.008 1.512 0 2.837.607 3.976 1.82V134l2.576.308Zm-6.216 18.984c.784 0 1.456-.177 2.016-.532.56-.373 1.101-.924 1.624-1.652v-7.224c-.485-.635-1.008-1.111-1.568-1.428-.541-.336-1.157-.504-1.848-.504-1.139 0-2.025.476-2.66 1.428-.616.952-.924 2.371-.924 4.256 0 1.904.29 3.323.868 4.256.579.933 1.41 1.4 2.492 1.4Zm14.602-13.048V155h-2.575v-14.756h2.575ZM71.9 133.16c.542 0 .98.168 1.316.504.337.336.505.756.505 1.26s-.169.924-.505 1.26c-.335.317-.774.476-1.316.476-.522 0-.952-.159-1.288-.476-.335-.336-.503-.756-.503-1.26s.168-.924.504-1.26c.335-.336.765-.504 1.287-.504Zm14.087 6.748c1.344 0 2.39.401 3.136 1.204.765.803 1.148 1.904 1.148 3.304V155h-2.576v-10.22c0-1.045-.196-1.783-.588-2.212-.392-.429-.97-.644-1.736-.644-.784 0-1.475.224-2.072.672-.598.448-1.158 1.092-1.68 1.932V155h-2.576v-14.756h2.212l.224 2.184a5.88 5.88 0 0 1 1.932-1.848 5.102 5.102 0 0 1 2.576-.672Zm21.862 1.008a7.894 7.894 0 0 1-1.848.364 30.39 30.39 0 0 1-2.464.084c1.736.784 2.604 2.025 2.604 3.724 0 1.475-.504 2.679-1.512 3.612-1.008.933-2.38 1.4-4.116 1.4a6.068 6.068 0 0 1-1.876-.28 1.56 1.56 0 0 0-.532.616c-.13.243-.196.495-.196.756 0 .803.644 1.204 1.932 1.204h2.352c.989 0 1.867.177 2.632.532.765.355 1.353.84 1.764 1.456.429.616.644 1.316.644 2.1 0 1.437-.588 2.539-1.764 3.304-1.176.784-2.893 1.176-5.152 1.176-1.587 0-2.847-.168-3.78-.504-.915-.317-1.568-.803-1.96-1.456-.392-.653-.588-1.493-.588-2.52h2.324c0 .597.112 1.064.336 1.4.224.355.625.616 1.204.784.579.187 1.4.28 2.464.28 1.549 0 2.651-.196 3.304-.588.672-.373 1.008-.943 1.008-1.708 0-.691-.261-1.213-.784-1.568s-1.251-.532-2.184-.532h-2.324c-1.25 0-2.203-.261-2.856-.784-.635-.541-.952-1.213-.952-2.016 0-.485.14-.952.42-1.4.28-.448.681-.849 1.204-1.204-.859-.448-1.493-.999-1.904-1.652-.392-.672-.588-1.484-.588-2.436 0-.989.243-1.876.728-2.66a5.077 5.077 0 0 1 2.044-1.82c.877-.448 1.848-.672 2.912-.672 1.157.019 2.128-.019 2.912-.112.784-.112 1.428-.252 1.932-.42a26.687 26.687 0 0 0 1.904-.784l.756 2.324Zm-7.504.84c-.97 0-1.727.308-2.268.924-.523.597-.784 1.391-.784 2.38 0 1.008.27 1.82.812 2.436.541.597 1.307.896 2.296.896 1.008 0 1.773-.289 2.296-.868.541-.597.812-1.428.812-2.492 0-2.184-1.055-3.276-3.164-3.276Zm21.501 13.58c-.952 0-1.708-.28-2.268-.84-.541-.579-.812-1.381-.812-2.408v-17.78l2.576-.308v18.032c0 .411.065.709.196.896.149.187.392.28.728.28.355 0 .672-.056.952-.168l.672 1.792a4.197 4.197 0 0 1-2.044.504Zm16.771-8.148c0 .429-.019.868-.056 1.316h-9.408c.112 1.624.522 2.819 1.232 3.584.709.765 1.624 1.148 2.744 1.148.709 0 1.362-.103 1.96-.308.597-.205 1.222-.532 1.876-.98l1.12 1.54c-1.568 1.232-3.286 1.848-5.152 1.848-2.054 0-3.659-.672-4.816-2.016-1.139-1.344-1.708-3.192-1.708-5.544 0-1.531.242-2.884.728-4.06.504-1.195 1.213-2.128 2.128-2.8.933-.672 2.025-1.008 3.276-1.008 1.96 0 3.462.644 4.508 1.932 1.045 1.288 1.568 3.071 1.568 5.348Zm-2.548-.756c0-1.456-.29-2.567-.868-3.332-.579-.765-1.447-1.148-2.604-1.148-2.11 0-3.258 1.549-3.444 4.648h6.916v-.168Zm17.888-6.188L148.945 155h-3.108l-5.096-14.756h2.8l3.864 12.46 3.836-12.46h2.716Zm14.48 6.944c0 .429-.019.868-.056 1.316h-9.408c.112 1.624.522 2.819 1.232 3.584.709.765 1.624 1.148 2.744 1.148.709 0 1.362-.103 1.96-.308.597-.205 1.222-.532 1.876-.98l1.12 1.54c-1.568 1.232-3.286 1.848-5.152 1.848-2.054 0-3.659-.672-4.816-2.016-1.139-1.344-1.708-3.192-1.708-5.544 0-1.531.242-2.884.728-4.06.504-1.195 1.213-2.128 2.128-2.8.933-.672 2.025-1.008 3.276-1.008 1.96 0 3.462.644 4.508 1.932 1.045 1.288 1.568 3.071 1.568 5.348Zm-2.548-.756c0-1.456-.29-2.567-.868-3.332-.579-.765-1.447-1.148-2.604-1.148-2.11 0-3.258 1.549-3.444 4.648h6.916v-.168Zm10.102 8.904c-.952 0-1.708-.28-2.268-.84-.542-.579-.812-1.381-.812-2.408v-17.78l2.576-.308v18.032c0 .411.065.709.196.896.149.187.392.28.728.28.354 0 .672-.056.952-.168l.672 1.792a4.2 4.2 0 0 1-2.044.504Zm19.217-15.428c2.072 0 3.677.691 4.816 2.072 1.157 1.381 1.736 3.257 1.736 5.628 0 1.531-.261 2.884-.784 4.06-.523 1.157-1.279 2.063-2.268 2.716-.989.635-2.165.952-3.528.952-2.072 0-3.687-.691-4.844-2.072-1.157-1.381-1.736-3.257-1.736-5.628 0-1.531.261-2.875.784-4.032.523-1.176 1.279-2.081 2.268-2.716.989-.653 2.175-.98 3.556-.98Zm0 2.072c-2.557 0-3.836 1.885-3.836 5.656 0 3.752 1.269 5.628 3.808 5.628 2.539 0 3.808-1.885 3.808-5.656 0-3.752-1.26-5.628-3.78-5.628Zm18.251-2.072c1.344 0 2.39.401 3.136 1.204.766.803 1.148 1.904 1.148 3.304V155h-2.576v-10.22c0-1.045-.196-1.783-.588-2.212-.392-.429-.97-.644-1.736-.644-.784 0-1.474.224-2.072.672-.597.448-1.157 1.092-1.68 1.932V155h-2.576v-14.756h2.212l.224 2.184a5.885 5.885 0 0 1 1.932-1.848 5.103 5.103 0 0 1 2.576-.672Zm21.107 7.28c0 .429-.019.868-.056 1.316h-9.408c.112 1.624.522 2.819 1.232 3.584.709.765 1.624 1.148 2.744 1.148.709 0 1.362-.103 1.96-.308.597-.205 1.222-.532 1.876-.98l1.12 1.54c-1.568 1.232-3.286 1.848-5.152 1.848-2.054 0-3.659-.672-4.816-2.016-1.139-1.344-1.708-3.192-1.708-5.544 0-1.531.242-2.884.728-4.06.504-1.195 1.213-2.128 2.128-2.8.933-.672 2.025-1.008 3.276-1.008 1.96 0 3.462.644 4.508 1.932 1.045 1.288 1.568 3.071 1.568 5.348Zm-2.548-.756c0-1.456-.29-2.567-.868-3.332-.579-.765-1.447-1.148-2.604-1.148-2.11 0-3.258 1.549-3.444 4.648h6.916v-.168ZM11.64 206v-7.752H4.68V206H2.4v-16.536h2.28v6.912h6.96v-6.912h2.28V206h-2.28Zm17.005-6.696c0 .368-.017.744-.049 1.128h-8.064c.096 1.392.448 2.416 1.056 3.072.608.656 1.392.984 2.352.984.608 0 1.168-.088 1.68-.264.512-.176 1.049-.456 1.608-.84l.96 1.32c-1.343 1.056-2.816 1.584-4.415 1.584-1.76 0-3.136-.576-4.128-1.728-.976-1.152-1.465-2.736-1.465-4.752 0-1.312.209-2.472.625-3.48.431-1.024 1.04-1.824 1.823-2.4.8-.576 1.736-.864 2.808-.864 1.68 0 2.968.552 3.864 1.656.896 1.104 1.345 2.632 1.345 4.584Zm-2.184-.648c0-1.248-.248-2.2-.744-2.856-.496-.656-1.24-.984-2.232-.984-1.808 0-2.793 1.328-2.953 3.984h5.928v-.144Zm14.495 4.392c0 .512.088.896.264 1.152.176.24.44.424.792.552l-.504 1.536c-.656-.08-1.184-.264-1.584-.552-.4-.288-.696-.736-.888-1.344-.848 1.264-2.104 1.896-3.768 1.896-1.248 0-2.232-.352-2.952-1.056-.72-.704-1.08-1.624-1.08-2.76 0-1.344.48-2.376 1.44-3.096.976-.72 2.352-1.08 4.128-1.08h1.944v-.936c0-.896-.216-1.536-.648-1.92-.432-.384-1.096-.576-1.992-.576-.928 0-2.064.224-3.408.672l-.552-1.608c1.568-.576 3.024-.864 4.368-.864 1.488 0 2.6.368 3.336 1.104.736.72 1.104 1.752 1.104 3.096v5.784Zm-5.184 1.584c1.264 0 2.256-.656 2.976-1.968v-2.904h-1.656c-2.336 0-3.504.864-3.504 2.592 0 .752.184 1.32.552 1.704.368.384.912.576 1.632.576Zm20.01-16.368V206H53.84l-.216-1.752a4.69 4.69 0 0 1-1.56 1.512 4.175 4.175 0 0 1-2.088.528c-1.504 0-2.68-.592-3.528-1.776-.832-1.184-1.248-2.776-1.248-4.776 0-1.296.2-2.448.6-3.456.4-1.008.976-1.792 1.728-2.352.752-.576 1.632-.864 2.64-.864 1.296 0 2.432.52 3.408 1.56V188l2.208.264Zm-5.327 16.272c.672 0 1.248-.152 1.728-.456.48-.32.944-.792 1.392-1.416v-6.192c-.416-.544-.864-.952-1.344-1.224a2.941 2.941 0 0 0-1.584-.432c-.976 0-1.736.408-2.28 1.224-.528.816-.792 2.032-.792 3.648 0 1.632.248 2.848.744 3.648.496.8 1.208 1.2 2.136 1.2Zm12.588-11.184V206h-2.208v-12.648h2.208Zm-1.128-6.072c.464 0 .84.144 1.128.432.288.288.432.648.432 1.08 0 .432-.144.792-.432 1.08-.288.272-.664.408-1.128.408-.448 0-.816-.136-1.104-.408a1.465 1.465 0 0 1-.432-1.08c0-.432.144-.792.432-1.08.288-.288.656-.432 1.104-.432Zm12.145 5.784c1.152 0 2.048.344 2.688 1.032.656.688.984 1.632.984 2.832V206h-2.208v-8.76c0-.896-.168-1.528-.504-1.896-.336-.368-.832-.552-1.488-.552a2.88 2.88 0 0 0-1.776.576c-.512.384-.992.936-1.44 1.656V206h-2.208v-12.648h1.896l.192 1.872c.448-.672 1-1.2 1.656-1.584a4.373 4.373 0 0 1 2.208-.576Zm18.81.864a6.78 6.78 0 0 1-1.583.312c-.576.048-1.28.072-2.112.072 1.488.672 2.232 1.736 2.232 3.192 0 1.264-.432 2.296-1.296 3.096-.864.8-2.04 1.2-3.528 1.2a5.21 5.21 0 0 1-1.608-.24 1.338 1.338 0 0 0-.456.528 1.35 1.35 0 0 0-.168.648c0 .688.552 1.032 1.656 1.032h2.016c.848 0 1.6.152 2.256.456.656.304 1.16.72 1.512 1.248.368.528.552 1.128.552 1.8 0 1.232-.504 2.176-1.512 2.832-1.008.672-2.48 1.008-4.416 1.008-1.36 0-2.44-.144-3.24-.432-.784-.272-1.344-.688-1.68-1.248-.336-.56-.504-1.28-.504-2.16h1.992c0 .512.096.912.288 1.2.192.304.536.528 1.032.672.496.16 1.2.24 2.112.24 1.328 0 2.272-.168 2.832-.504.576-.32.864-.808.864-1.464 0-.592-.224-1.04-.672-1.344-.448-.304-1.072-.456-1.872-.456h-1.992c-1.072 0-1.888-.224-2.448-.672-.544-.464-.816-1.04-.816-1.728 0-.416.12-.816.36-1.2s.584-.728 1.032-1.032c-.736-.384-1.28-.856-1.632-1.416-.336-.576-.504-1.272-.504-2.088 0-.848.208-1.608.624-2.28a4.354 4.354 0 0 1 1.752-1.56c.752-.384 1.584-.576 2.496-.576.992.016 1.824-.016 2.496-.096.672-.096 1.224-.216 1.656-.36.448-.16.992-.384 1.632-.672l.648 1.992Zm-6.431.72c-.832 0-1.48.264-1.944.792-.448.512-.672 1.192-.672 2.04 0 .864.232 1.56.696 2.088.464.512 1.12.768 1.968.768.864 0 1.52-.248 1.968-.744.464-.512.696-1.224.696-2.136 0-1.872-.904-2.808-2.712-2.808Zm18.572 11.64c-.816 0-1.464-.24-1.944-.72-.464-.496-.696-1.184-.696-2.064v-15.24l2.208-.264v15.456c0 .352.056.608.168.768.128.16.336.24.624.24.304 0 .576-.048.816-.144l.576 1.536a3.598 3.598 0 0 1-1.752.432Zm14.446-6.984c0 .368-.016.744-.048 1.128h-8.064c.096 1.392.448 2.416 1.056 3.072.608.656 1.392.984 2.352.984.608 0 1.168-.088 1.68-.264.512-.176 1.048-.456 1.608-.84l.96 1.32c-1.344 1.056-2.816 1.584-4.416 1.584-1.76 0-3.136-.576-4.128-1.728-.976-1.152-1.464-2.736-1.464-4.752 0-1.312.208-2.472.624-3.48.432-1.024 1.04-1.824 1.824-2.4.8-.576 1.736-.864 2.808-.864 1.68 0 2.968.552 3.864 1.656.896 1.104 1.344 2.632 1.344 4.584Zm-2.184-.648c0-1.248-.248-2.2-.744-2.856-.496-.656-1.24-.984-2.232-.984-1.808 0-2.792 1.328-2.952 3.984h5.928v-.144Zm15.404-5.304L128.381 206h-2.664l-4.368-12.648h2.4l3.312 10.68 3.288-10.68h2.328Zm12.483 5.952c0 .368-.016.744-.048 1.128h-8.064c.096 1.392.448 2.416 1.056 3.072.608.656 1.392.984 2.352.984.608 0 1.168-.088 1.68-.264.512-.176 1.048-.456 1.608-.84l.96 1.32c-1.344 1.056-2.816 1.584-4.416 1.584-1.76 0-3.136-.576-4.128-1.728-.976-1.152-1.464-2.736-1.464-4.752 0-1.312.208-2.472.624-3.48.432-1.024 1.04-1.824 1.824-2.4.8-.576 1.736-.864 2.808-.864 1.68 0 2.968.552 3.864 1.656.896 1.104 1.344 2.632 1.344 4.584Zm-2.184-.648c0-1.248-.248-2.2-.744-2.856-.496-.656-1.24-.984-2.232-.984-1.808 0-2.792 1.328-2.952 3.984h5.928v-.144Zm8.73 7.632c-.816 0-1.464-.24-1.944-.72-.464-.496-.696-1.184-.696-2.064v-15.24l2.208-.264v15.456c0 .352.056.608.168.768.128.16.336.24.624.24.304 0 .576-.048.816-.144l.576 1.536a3.598 3.598 0 0 1-1.752.432Zm16.615-13.224c1.776 0 3.152.592 4.128 1.776.992 1.184 1.488 2.792 1.488 4.824 0 1.312-.224 2.472-.672 3.48-.448.992-1.096 1.768-1.944 2.328-.848.544-1.856.816-3.024.816-1.776 0-3.16-.592-4.152-1.776-.992-1.184-1.488-2.792-1.488-4.824 0-1.312.224-2.464.672-3.456.448-1.008 1.096-1.784 1.944-2.328.848-.56 1.864-.84 3.048-.84Zm0 1.776c-2.192 0-3.288 1.616-3.288 4.848 0 3.216 1.088 4.824 3.264 4.824 2.176 0 3.264-1.616 3.264-4.848 0-3.216-1.08-4.824-3.24-4.824Zm15.716-1.776c1.152 0 2.048.344 2.688 1.032.656.688.984 1.632.984 2.832V206h-2.208v-8.76c0-.896-.168-1.528-.504-1.896-.336-.368-.832-.552-1.488-.552a2.88 2.88 0 0 0-1.776.576c-.512.384-.992.936-1.44 1.656V206h-2.208v-12.648h1.896l.192 1.872c.448-.672 1-1.2 1.656-1.584a4.373 4.373 0 0 1 2.208-.576Zm18.162 6.24c0 .368-.016.744-.048 1.128h-8.064c.096 1.392.448 2.416 1.056 3.072.608.656 1.392.984 2.352.984.608 0 1.168-.088 1.68-.264.512-.176 1.048-.456 1.608-.84l.96 1.32c-1.344 1.056-2.816 1.584-4.416 1.584-1.76 0-3.136-.576-4.128-1.728-.976-1.152-1.464-2.736-1.464-4.752 0-1.312.208-2.472.624-3.48.432-1.024 1.04-1.824 1.824-2.4.8-.576 1.736-.864 2.808-.864 1.68 0 2.968.552 3.864 1.656.896 1.104 1.344 2.632 1.344 4.584Zm-2.184-.648c0-1.248-.248-2.2-.744-2.856-.496-.656-1.24-.984-2.232-.984-1.808 0-2.792 1.328-2.952 3.984h5.928v-.144ZM9.7 251v-6.46H3.9V251H2v-13.78h1.9v5.76h5.8v-5.76h1.9V251H9.7Zm14.254-5.58c0 .307-.014.62-.04.94h-6.72c.08 1.16.373 2.013.88 2.56.506.547 1.16.82 1.96.82.506 0 .973-.073 1.4-.22a5.66 5.66 0 0 0 1.34-.7l.8 1.1c-1.12.88-2.347 1.32-3.68 1.32-1.467 0-2.614-.48-3.44-1.44-.814-.96-1.22-2.28-1.22-3.96 0-1.093.173-2.06.52-2.9.36-.853.866-1.52 1.52-2 .666-.48 1.446-.72 2.34-.72 1.4 0 2.473.46 3.22 1.38.746.92 1.12 2.193 1.12 3.82Zm-1.82-.54c0-1.04-.207-1.833-.62-2.38-.414-.547-1.034-.82-1.86-.82-1.507 0-2.327 1.107-2.46 3.32h4.94v-.12Zm12.163 3.66c0 .427.073.747.22.96.146.2.366.353.66.46l-.42 1.28c-.547-.067-.987-.22-1.32-.46-.334-.24-.58-.613-.74-1.12-.707 1.053-1.754 1.58-3.14 1.58-1.04 0-1.86-.293-2.46-.88-.6-.587-.9-1.353-.9-2.3 0-1.12.4-1.98 1.2-2.58.813-.6 1.96-.9 3.44-.9h1.62v-.78c0-.747-.18-1.28-.54-1.6-.36-.32-.914-.48-1.66-.48-.774 0-1.72.187-2.84.56l-.46-1.34c1.306-.48 2.52-.72 3.64-.72 1.24 0 2.166.307 2.78.92.613.6.92 1.46.92 2.58v4.82Zm-4.32 1.32c1.053 0 1.88-.547 2.48-1.64v-2.42h-1.38c-1.947 0-2.92.72-2.92 2.16 0 .627.153 1.1.46 1.42.306.32.76.48 1.36.48Zm16.759-13.64V251h-1.62l-.18-1.46c-.347.533-.78.953-1.3 1.26-.52.293-1.1.44-1.74.44-1.254 0-2.234-.493-2.94-1.48-.694-.987-1.04-2.313-1.04-3.98 0-1.08.166-2.04.5-2.88.333-.84.813-1.493 1.44-1.96.626-.48 1.36-.72 2.2-.72 1.08 0 2.026.433 2.84 1.3V236l1.84.22Zm-4.44 13.56c.56 0 1.04-.127 1.44-.38.4-.267.786-.66 1.16-1.18v-5.16c-.347-.453-.72-.793-1.12-1.02a2.451 2.451 0 0 0-1.32-.36c-.814 0-1.447.34-1.9 1.02-.44.68-.66 1.693-.66 3.04 0 1.36.206 2.373.62 3.04.413.667 1.006 1 1.78 1Zm10.573-9.32V251h-1.84v-10.54h1.84Zm-.94-5.06c.387 0 .7.12.94.36s.36.54.36.9-.12.66-.36.9c-.24.227-.553.34-.94.34-.373 0-.68-.113-.92-.34-.24-.24-.36-.54-.36-.9s.12-.66.36-.9.547-.36.92-.36Zm10.204 4.82c.96 0 1.707.287 2.24.86.547.573.82 1.36.82 2.36V251h-1.84v-7.3c0-.747-.14-1.273-.42-1.58-.28-.307-.693-.46-1.24-.46a2.4 2.4 0 0 0-1.48.48c-.426.32-.826.78-1.2 1.38V251h-1.84v-10.54h1.58l.16 1.56a4.2 4.2 0 0 1 1.38-1.32c.56-.32 1.174-.48 1.84-.48Zm15.76.72c-.4.133-.84.22-1.32.26-.48.04-1.067.06-1.76.06 1.24.56 1.86 1.447 1.86 2.66 0 1.053-.36 1.913-1.08 2.58-.72.667-1.7 1-2.94 1-.48 0-.928-.067-1.34-.2-.16.107-.288.253-.38.44-.094.173-.14.353-.14.54 0 .573.46.86 1.38.86h1.68c.706 0 1.333.127 1.88.38.546.253.966.6 1.26 1.04.306.44.46.94.46 1.5 0 1.027-.42 1.813-1.26 2.36-.84.56-2.067.84-3.68.84-1.134 0-2.034-.12-2.7-.36-.654-.227-1.12-.573-1.4-1.04-.28-.467-.42-1.067-.42-1.8h1.66c0 .427.08.76.24 1 .16.253.446.44.86.56.412.133 1 .2 1.76.2 1.106 0 1.892-.14 2.36-.42.48-.267.72-.673.72-1.22 0-.493-.188-.867-.56-1.12-.374-.253-.894-.38-1.56-.38h-1.66c-.894 0-1.574-.187-2.04-.56-.454-.387-.68-.867-.68-1.44 0-.347.1-.68.3-1 .2-.32.486-.607.86-.86-.614-.32-1.067-.713-1.36-1.18-.28-.48-.42-1.06-.42-1.74 0-.707.172-1.34.52-1.9.36-.56.846-.993 1.46-1.3.626-.32 1.32-.48 2.08-.48.826.013 1.52-.013 2.08-.08.56-.08 1.02-.18 1.38-.3.373-.133.826-.32 1.36-.56l.54 1.66Zm-5.36.6c-.694 0-1.234.22-1.62.66-.374.427-.56.993-.56 1.7 0 .72.193 1.3.58 1.74.386.427.932.64 1.64.64.72 0 1.266-.207 1.64-.62.386-.427.58-1.02.58-1.78 0-1.56-.754-2.34-2.26-2.34Zm15.643 9.7c-.68 0-1.22-.2-1.62-.6-.387-.413-.58-.987-.58-1.72v-12.7l1.84-.22v12.88c0 .293.046.507.14.64.106.133.28.2.52.2.253 0 .48-.04.68-.12l.48 1.28c-.44.24-.927.36-1.46.36Zm12.122-5.82c0 .307-.014.62-.04.94h-6.72c.08 1.16.373 2.013.88 2.56.506.547 1.16.82 1.96.82.506 0 .973-.073 1.4-.22.426-.147.873-.38 1.34-.7l.8 1.1c-1.12.88-2.347 1.32-3.68 1.32-1.467 0-2.614-.48-3.44-1.44-.814-.96-1.22-2.28-1.22-3.96 0-1.093.173-2.06.52-2.9.36-.853.866-1.52 1.52-2 .666-.48 1.446-.72 2.34-.72 1.4 0 2.473.46 3.22 1.38.746.92 1.12 2.193 1.12 3.82Zm-1.82-.54c0-1.04-.207-1.833-.62-2.38-.414-.547-1.034-.82-1.86-.82-1.507 0-2.327 1.107-2.46 3.32h4.94v-.12Zm12.92-4.42-3.58 10.54h-2.22l-3.64-10.54h2l2.76 8.9 2.74-8.9h1.94Zm10.485 4.96c0 .307-.013.62-.04.94h-6.72c.08 1.16.374 2.013.88 2.56.507.547 1.16.82 1.96.82.507 0 .974-.073 1.4-.22a5.64 5.64 0 0 0 1.34-.7l.8 1.1c-1.12.88-2.346 1.32-3.68 1.32-1.466 0-2.613-.48-3.44-1.44-.813-.96-1.22-2.28-1.22-3.96 0-1.093.174-2.06.52-2.9.36-.853.867-1.52 1.52-2 .667-.48 1.447-.72 2.34-.72 1.4 0 2.474.46 3.22 1.38.747.92 1.12 2.193 1.12 3.82Zm-1.82-.54c0-1.04-.206-1.833-.62-2.38-.413-.547-1.033-.82-1.86-.82-1.506 0-2.326 1.107-2.46 3.32h4.94v-.12Zm7.359 6.36c-.68 0-1.22-.2-1.62-.6-.387-.413-.58-.987-.58-1.72v-12.7l1.84-.22v12.88c0 .293.047.507.14.64.107.133.28.2.52.2.253 0 .48-.04.68-.12l.48 1.28a3 3 0 0 1-1.46.36Zm14.012-11.02c1.48 0 2.627.493 3.44 1.48.827.987 1.24 2.327 1.24 4.02 0 1.093-.186 2.06-.56 2.9-.373.827-.913 1.473-1.62 1.94-.706.453-1.546.68-2.52.68-1.48 0-2.633-.493-3.46-1.48-.826-.987-1.24-2.327-1.24-4.02 0-1.093.187-2.053.56-2.88.374-.84.914-1.487 1.62-1.94.707-.467 1.554-.7 2.54-.7Zm0 1.48c-1.826 0-2.74 1.347-2.74 4.04 0 2.68.907 4.02 2.72 4.02 1.814 0 2.72-1.347 2.72-4.04 0-2.68-.9-4.02-2.7-4.02Zm13.18-1.48c.96 0 1.707.287 2.24.86.547.573.82 1.36.82 2.36V251h-1.84v-7.3c0-.747-.14-1.273-.42-1.58-.28-.307-.693-.46-1.24-.46a2.4 2.4 0 0 0-1.48.48c-.427.32-.827.78-1.2 1.38V251h-1.84v-10.54h1.58l.16 1.56c.373-.56.833-1 1.38-1.32.56-.32 1.173-.48 1.84-.48Zm15.219 5.2c0 .307-.014.62-.04.94h-6.72c.08 1.16.373 2.013.88 2.56.506.547 1.16.82 1.96.82.506 0 .973-.073 1.4-.22.426-.147.873-.38 1.34-.7l.8 1.1c-1.12.88-2.347 1.32-3.68 1.32-1.467 0-2.614-.48-3.44-1.44-.814-.96-1.22-2.28-1.22-3.96 0-1.093.173-2.06.52-2.9.36-.853.866-1.52 1.52-2 .666-.48 1.446-.72 2.34-.72 1.4 0 2.473.46 3.22 1.38.746.92 1.12 2.193 1.12 3.82Zm-1.82-.54c0-1.04-.207-1.833-.62-2.38-.414-.547-1.034-.82-1.86-.82-1.507 0-2.327 1.107-2.46 3.32h4.94v-.12ZM8.73 293v-5.814H3.51V293H1.8v-12.402h1.71v5.184h5.22v-5.184h1.71V293H8.73Zm12.878-5.022c0 .276-.012.558-.036.846h-6.048c.072 1.044.336 1.812.792 2.304.456.492 1.044.738 1.764.738.456 0 .876-.066 1.26-.198a5.081 5.081 0 0 0 1.206-.63l.72.99c-1.008.792-2.112 1.188-3.312 1.188-1.32 0-2.352-.432-3.096-1.296-.732-.864-1.098-2.052-1.098-3.564 0-.984.156-1.854.468-2.61.324-.768.78-1.368 1.368-1.8.6-.432 1.302-.648 2.106-.648 1.26 0 2.226.414 2.898 1.242.672.828 1.008 1.974 1.008 3.438Zm-1.638-.486c0-.936-.186-1.65-.558-2.142-.372-.492-.93-.738-1.674-.738-1.356 0-2.094.996-2.214 2.988h4.446v-.108Zm10.997 3.294c0 .384.066.672.198.864.132.18.33.318.594.414l-.378 1.152c-.492-.06-.888-.198-1.188-.414-.3-.216-.522-.552-.666-1.008-.636.948-1.578 1.422-2.826 1.422-.936 0-1.674-.264-2.214-.792s-.81-1.218-.81-2.07c0-1.008.36-1.782 1.08-2.322.732-.54 1.764-.81 3.096-.81h1.458v-.702c0-.672-.162-1.152-.486-1.44-.324-.288-.822-.432-1.494-.432-.696 0-1.548.168-2.556.504l-.414-1.206c1.176-.432 2.268-.648 3.276-.648 1.116 0 1.95.276 2.502.828.552.54.828 1.314.828 2.322v4.338Zm-3.888 1.188c.948 0 1.692-.492 2.232-1.476v-2.178H28.07c-1.752 0-2.628.648-2.628 1.944 0 .564.138.99.414 1.278.276.288.684.432 1.224.432Zm15.133-12.276V293h-1.458l-.162-1.314c-.312.48-.702.858-1.17 1.134-.468.264-.99.396-1.566.396-1.128 0-2.01-.444-2.646-1.332-.624-.888-.936-2.082-.936-3.582 0-.972.15-1.836.45-2.592.3-.756.732-1.344 1.296-1.764.564-.432 1.224-.648 1.98-.648.972 0 1.824.39 2.556 1.17V279.5l1.656.198Zm-3.996 12.204c.504 0 .936-.114 1.296-.342.36-.24.708-.594 1.044-1.062v-4.644c-.312-.408-.648-.714-1.008-.918a2.206 2.206 0 0 0-1.188-.324c-.732 0-1.302.306-1.71.918-.396.612-.594 1.524-.594 2.736 0 1.224.186 2.136.558 2.736.372.6.906.9 1.602.9Zm9.566-8.388V293h-1.656v-9.486h1.656Zm-.846-4.554c.348 0 .63.108.846.324.216.216.324.486.324.81 0 .324-.108.594-.324.81-.216.204-.498.306-.846.306-.336 0-.612-.102-.828-.306a1.099 1.099 0 0 1-.324-.81c0-.324.108-.594.324-.81.216-.216.492-.324.828-.324Zm9.234 4.338c.864 0 1.536.258 2.016.774.492.516.738 1.224.738 2.124V293h-1.656v-6.57c0-.672-.126-1.146-.378-1.422s-.624-.414-1.116-.414a2.16 2.16 0 0 0-1.332.432c-.384.288-.744.702-1.08 1.242V293h-1.656v-9.486h1.422l.144 1.404c.336-.504.75-.9 1.242-1.188a3.28 3.28 0 0 1 1.656-.432Zm14.233.648c-.36.12-.756.198-1.188.234-.432.036-.96.054-1.584.054 1.116.504 1.674 1.302 1.674 2.394 0 .948-.324 1.722-.972 2.322-.648.6-1.53.9-2.646.9-.432 0-.834-.06-1.206-.18a1.004 1.004 0 0 0-.342.396 1.012 1.012 0 0 0-.126.486c0 .516.414.774 1.242.774h1.512c.636 0 1.2.114 1.692.342.492.228.87.54 1.134.936.276.396.414.846.414 1.35 0 .924-.378 1.632-1.134 2.124-.756.504-1.86.756-3.312.756-1.02 0-1.83-.108-2.43-.324-.588-.204-1.008-.516-1.26-.936-.252-.42-.378-.96-.378-1.62h1.494c0 .384.072.684.216.9.144.228.402.396.774.504.372.12.9.18 1.584.18.996 0 1.704-.126 2.124-.378.432-.24.648-.606.648-1.098 0-.444-.168-.78-.504-1.008-.336-.228-.804-.342-1.404-.342h-1.494c-.804 0-1.416-.168-1.836-.504-.408-.348-.612-.78-.612-1.296 0-.312.09-.612.27-.9.18-.288.438-.546.774-.774-.552-.288-.96-.642-1.224-1.062-.252-.432-.378-.954-.378-1.566 0-.636.156-1.206.468-1.71a3.266 3.266 0 0 1 1.314-1.17 4.056 4.056 0 0 1 1.872-.432c.744.012 1.368-.012 1.872-.072a7.277 7.277 0 0 0 1.242-.27c.336-.12.744-.288 1.224-.504l.486 1.494Zm-4.824.54c-.624 0-1.11.198-1.458.594-.336.384-.504.894-.504 1.53 0 .648.174 1.17.522 1.566.348.384.84.576 1.476.576.648 0 1.14-.186 1.476-.558.348-.384.522-.918.522-1.602 0-1.404-.678-2.106-2.034-2.106Zm14.18 8.73c-.613 0-1.099-.18-1.459-.54-.348-.372-.522-.888-.522-1.548v-11.43l1.656-.198v11.592c0 .264.042.456.126.576.096.12.252.18.468.18.228 0 .432-.036.612-.108l.432 1.152a2.699 2.699 0 0 1-1.314.324Zm10.959-5.238c0 .276-.012.558-.036.846h-6.048c.072 1.044.336 1.812.792 2.304.456.492 1.044.738 1.764.738.456 0 .876-.066 1.26-.198a5.081 5.081 0 0 0 1.206-.63l.72.99c-1.008.792-2.112 1.188-3.312 1.188-1.32 0-2.352-.432-3.096-1.296-.732-.864-1.098-2.052-1.098-3.564 0-.984.156-1.854.468-2.61.324-.768.78-1.368 1.368-1.8.6-.432 1.302-.648 2.106-.648 1.26 0 2.226.414 2.898 1.242.672.828 1.008 1.974 1.008 3.438Zm-1.638-.486c0-.936-.186-1.65-.558-2.142-.372-.492-.93-.738-1.674-.738-1.356 0-2.094.996-2.214 2.988h4.446v-.108Zm11.678-3.978L97.536 293h-1.998l-3.276-9.486h1.8l2.484 8.01 2.466-8.01h1.746Zm9.487 4.464c0 .276-.012.558-.036.846h-6.048c.072 1.044.336 1.812.792 2.304.456.492 1.044.738 1.764.738.456 0 .876-.066 1.26-.198a5.081 5.081 0 0 0 1.206-.63l.72.99c-1.008.792-2.112 1.188-3.312 1.188-1.32 0-2.352-.432-3.096-1.296-.732-.864-1.098-2.052-1.098-3.564 0-.984.156-1.854.468-2.61.324-.768.78-1.368 1.368-1.8.6-.432 1.302-.648 2.106-.648 1.26 0 2.226.414 2.898 1.242.672.828 1.008 1.974 1.008 3.438Zm-1.638-.486c0-.936-.186-1.65-.558-2.142-.372-.492-.93-.738-1.674-.738-1.356 0-2.094.996-2.214 2.988h4.446v-.108Zm6.673 5.724c-.612 0-1.098-.18-1.458-.54-.348-.372-.522-.888-.522-1.548v-11.43l1.656-.198v11.592c0 .264.042.456.126.576.096.12.252.18.468.18.228 0 .432-.036.612-.108l.432 1.152a2.699 2.699 0 0 1-1.314.324Zm12.711-9.918c1.332 0 2.364.444 3.096 1.332.744.888 1.116 2.094 1.116 3.618 0 .984-.168 1.854-.504 2.61-.336.744-.822 1.326-1.458 1.746-.636.408-1.392.612-2.268.612-1.332 0-2.37-.444-3.114-1.332-.744-.888-1.116-2.094-1.116-3.618 0-.984.168-1.848.504-2.592.336-.756.822-1.338 1.458-1.746.636-.42 1.398-.63 2.286-.63Zm0 1.332c-1.644 0-2.466 1.212-2.466 3.636 0 2.412.816 3.618 2.448 3.618 1.632 0 2.448-1.212 2.448-3.636 0-2.412-.81-3.618-2.43-3.618Zm11.912-1.332c.864 0 1.536.258 2.016.774.492.516.738 1.224.738 2.124V293h-1.656v-6.57c0-.672-.126-1.146-.378-1.422s-.624-.414-1.116-.414a2.16 2.16 0 0 0-1.332.432c-.384.288-.744.702-1.08 1.242V293h-1.656v-9.486h1.422l.144 1.404c.336-.504.75-.9 1.242-1.188a3.28 3.28 0 0 1 1.656-.432Zm13.746 4.68c0 .276-.012.558-.036.846h-6.048c.072 1.044.336 1.812.792 2.304.456.492 1.044.738 1.764.738.456 0 .876-.066 1.26-.198a5.081 5.081 0 0 0 1.206-.63l.72.99c-1.008.792-2.112 1.188-3.312 1.188-1.32 0-2.352-.432-3.096-1.296-.732-.864-1.098-2.052-1.098-3.564 0-.984.156-1.854.468-2.61.324-.768.78-1.368 1.368-1.8.6-.432 1.302-.648 2.106-.648 1.26 0 2.226.414 2.898 1.242.672.828 1.008 1.974 1.008 3.438Zm-1.638-.486c0-.936-.186-1.65-.558-2.142-.372-.492-.93-.738-1.674-.738-1.356 0-2.094.996-2.214 2.988h4.446v-.108Z" fill="#1C1C1C"/></svg>