<svg width="299" height="96" fill="none" xmlns="http://www.w3.org/2000/svg"><path d="M0 2a2 2 0 0 1 2-2h295a2 2 0 0 1 2 2v92a2 2 0 0 1-2 2H2a2 2 0 0 1-2-2V2Z" fill="#0095DA" fill-opacity=".05"/><path d="M28 32v-4m0-4h.01M38 28c0 5.523-4.477 10-10 10s-10-4.477-10-10 4.477-10 10-10 10 4.477 10 10Z" stroke="#0095DA" stroke-width="2" stroke-linecap="round" stroke-linejoin="round"/><path d="M57.328 33h-2.032l-4.48-9.36c.064.736.112 1.419.144 2.048.043.619.064 1.37.064 2.256V33H49.6V21.976h1.984l4.528 9.376a44.677 44.677 0 0 1-.128-1.456 25.002 25.002 0 0 1-.08-1.904v-6.016h1.424V33Zm6.282-8.624c1.184 0 2.101.395 2.752 1.184.661.79.992 1.861.992 3.216 0 .875-.15 1.648-.448 2.32-.299.661-.73 1.179-1.296 1.552-.566.363-1.237.544-2.016.544-1.184 0-2.107-.395-2.768-1.184-.662-.79-.992-1.861-.992-3.216 0-.875.15-1.643.448-2.304.299-.672.73-1.19 1.296-1.552.565-.373 1.242-.56 2.032-.56Zm0 1.184c-1.462 0-2.192 1.077-2.192 3.232 0 2.144.725 3.216 2.176 3.216 1.45 0 2.176-1.077 2.176-3.232 0-2.144-.72-3.216-2.16-3.216Zm10.432 7.056a3.238 3.238 0 0 1-1.888.576c-.715 0-1.275-.203-1.68-.608-.395-.416-.592-1.013-.592-1.792v-5.088H68.41v-1.136h1.472v-1.904l1.472-.176v2.08h2l-.16 1.136h-1.84v5.024c0 .437.074.757.224.96.16.192.421.288.784.288.33 0 .704-.112 1.12-.336l.56.976Zm2.997-8.048V33h-1.472v-8.432h1.472Zm-.752-4.048c.31 0 .56.096.752.288a.977.977 0 0 1 .288.72.977.977 0 0 1-.288.72c-.192.181-.443.272-.752.272-.299 0-.544-.09-.736-.272a.977.977 0 0 1-.288-.72c0-.288.096-.528.288-.72a.997.997 0 0 1 .736-.288Zm6.691.48c.449 0 .854.048 1.217.144.373.096.746.24 1.12.432l-.513 1.024a4.046 4.046 0 0 0-1.776-.4c-.565 0-.954.101-1.167.304-.214.203-.32.517-.32.944v1.12h4.704V33H84.77v-7.296h-3.233V33h-1.471v-7.296h-1.344v-1.136h1.344v-1.104c0-.747.24-1.344.72-1.792.48-.448 1.21-.672 2.191-.672Zm9.38 3.376c.501 0 .96.075 1.376.224a3.71 3.71 0 0 1 1.2.688l-.704.928a3.35 3.35 0 0 0-.88-.464 2.566 2.566 0 0 0-.928-.16c-.683 0-1.216.272-1.6.816-.374.544-.56 1.35-.56 2.416 0 1.067.186 1.856.56 2.368.373.501.906.752 1.6.752.33 0 .634-.048.912-.144.277-.107.586-.272.928-.496l.672.96c-.768.619-1.627.928-2.576.928-1.142 0-2.043-.384-2.704-1.152-.651-.768-.976-1.83-.976-3.184 0-.896.149-1.68.448-2.352.298-.672.72-1.195 1.264-1.568.554-.373 1.21-.56 1.968-.56Zm10.092 6.656c0 .341.059.597.176.768.117.16.293.283.528.368l-.336 1.024c-.437-.053-.789-.176-1.056-.368s-.464-.49-.592-.896c-.565.843-1.403 1.264-2.512 1.264-.832 0-1.488-.235-1.968-.704-.48-.47-.72-1.083-.72-1.84 0-.896.32-1.584.96-2.064.65-.48 1.568-.72 2.752-.72h1.296v-.624c0-.597-.144-1.024-.432-1.28-.288-.256-.73-.384-1.328-.384-.619 0-1.376.15-2.272.448l-.368-1.072c1.045-.384 2.016-.576 2.912-.576.992 0 1.733.245 2.224.736.491.48.736 1.168.736 2.064v3.856Zm-3.456 1.056c.843 0 1.504-.437 1.984-1.312V28.84h-1.104c-1.557 0-2.336.576-2.336 1.728 0 .501.123.88.368 1.136.245.256.608.384 1.088.384Zm10.735.528a3.238 3.238 0 0 1-1.888.576c-.715 0-1.275-.203-1.68-.608-.395-.416-.592-1.013-.592-1.792v-5.088h-1.472v-1.136h1.472v-1.904l1.472-.176v2.08h2l-.16 1.136h-1.84v5.024c0 .437.075.757.224.96.16.192.421.288.784.288.331 0 .704-.112 1.12-.336l.56.976Zm2.997-8.048V33h-1.472v-8.432h1.472Zm-.752-4.048c.31 0 .56.096.752.288a.977.977 0 0 1 .288.72.977.977 0 0 1-.288.72c-.192.181-.442.272-.752.272-.298 0-.544-.09-.736-.272a.977.977 0 0 1-.288-.72c0-.288.096-.528.288-.72a.998.998 0 0 1 .736-.288Zm6.964 3.856c1.184 0 2.101.395 2.752 1.184.661.79.992 1.861.992 3.216 0 .875-.149 1.648-.448 2.32-.299.661-.731 1.179-1.296 1.552-.565.363-1.237.544-2.016.544-1.184 0-2.107-.395-2.768-1.184-.661-.79-.992-1.861-.992-3.216 0-.875.149-1.643.448-2.304.299-.672.731-1.19 1.296-1.552.565-.373 1.243-.56 2.032-.56Zm0 1.184c-1.461 0-2.192 1.077-2.192 3.232 0 2.144.725 3.216 2.176 3.216s2.176-1.077 2.176-3.232c0-2.144-.72-3.216-2.16-3.216Zm10.144-1.184c.768 0 1.365.23 1.792.688.437.459.656 1.088.656 1.888V33h-1.472v-5.84c0-.597-.112-1.019-.336-1.264-.224-.245-.555-.368-.992-.368a1.92 1.92 0 0 0-1.184.384c-.342.256-.662.624-.96 1.104V33h-1.472v-8.432h1.264l.128 1.248c.298-.448.666-.8 1.104-1.056a2.914 2.914 0 0 1 1.472-.384Zm13.897 8.24a3.238 3.238 0 0 1-1.888.576c-.715 0-1.275-.203-1.68-.608-.395-.416-.592-1.013-.592-1.792v-5.088h-1.472v-1.136h1.472v-1.904l1.472-.176v2.08h2l-.16 1.136h-1.84v5.024c0 .437.075.757.224.96.16.192.421.288.784.288.331 0 .704-.112 1.12-.336l.56.976Zm7.659-4.08c0 .245-.011.496-.032.752h-5.376c.064.928.299 1.61.704 2.048.405.437.928.656 1.568.656.405 0 .779-.059 1.12-.176a4.515 4.515 0 0 0 1.072-.56l.64.88c-.896.704-1.877 1.056-2.944 1.056-1.173 0-2.091-.384-2.752-1.152-.651-.768-.976-1.824-.976-3.168 0-.875.139-1.648.416-2.32.288-.683.693-1.216 1.216-1.6.533-.384 1.157-.576 1.872-.576 1.12 0 1.979.368 2.576 1.104.597.736.896 1.755.896 3.056Zm-1.456-.432c0-.832-.165-1.467-.496-1.904-.331-.437-.827-.656-1.488-.656-1.205 0-1.861.885-1.968 2.656h3.952v-.096Zm6.898.384L159.008 33h-1.776l-2.064-3.568L153.072 33h-1.664l2.944-4.448-2.608-3.984h1.728l1.76 3.088 1.776-3.088h1.664l-2.592 3.92Zm8.79 4.128a3.238 3.238 0 0 1-1.888.576c-.715 0-1.275-.203-1.68-.608-.395-.416-.592-1.013-.592-1.792v-5.088h-1.472v-1.136h1.472v-1.904l1.472-.176v2.08h2l-.16 1.136h-1.84v5.024c0 .437.074.757.224.96.16.192.421.288.784.288.33 0 .704-.112 1.12-.336l.56.976Z" fill="#1C1C1C"/><path fill-rule="evenodd" clip-rule="evenodd" d="M277.707 22.707a1 1 0 1 0-1.414-1.414L271 26.586l-5.293-5.293a1 1 0 1 0-1.414 1.414L269.586 28l-5.293 5.293a1 1 0 1 0 1.414 1.414L271 29.414l5.293 5.293a1 1 0 1 0 1.414-1.414L272.414 28l5.293-5.293Z" fill="#3F3F3F"/><path d="M25.328 73h-2.032l-4.48-9.36c.064.736.112 1.419.144 2.048.043.619.064 1.37.064 2.256V73H17.6V61.976h1.984l4.528 9.376a44.677 44.677 0 0 1-.128-1.456 25.002 25.002 0 0 1-.08-1.904v-6.016h1.424V73Zm6.282-8.624c1.184 0 2.101.395 2.752 1.184.661.79.992 1.861.992 3.216 0 .875-.15 1.648-.448 2.32-.299.661-.73 1.179-1.296 1.552-.566.363-1.237.544-2.016.544-1.184 0-2.107-.395-2.768-1.184-.662-.79-.992-1.861-.992-3.216 0-.875.15-1.643.448-2.304.299-.672.73-1.19 1.296-1.552.565-.373 1.242-.56 2.032-.56Zm0 1.184c-1.462 0-2.192 1.077-2.192 3.232 0 2.144.725 3.216 2.176 3.216 1.45 0 2.176-1.077 2.176-3.232 0-2.144-.72-3.216-2.16-3.216Zm10.432 7.056a3.238 3.238 0 0 1-1.888.576c-.715 0-1.275-.203-1.68-.608-.395-.416-.592-1.013-.592-1.792v-5.088H36.41v-1.136h1.472v-1.904l1.472-.176v2.08h2l-.16 1.136h-1.84v5.024c0 .437.074.757.224.96.16.192.421.288.784.288.33 0 .704-.112 1.12-.336l.56.976Zm2.997-8.048V73h-1.472v-8.432h1.472Zm-.752-4.048c.31 0 .56.096.752.288a.977.977 0 0 1 .288.72.977.977 0 0 1-.288.72c-.192.181-.443.272-.752.272-.299 0-.544-.09-.736-.272a.977.977 0 0 1-.288-.72c0-.288.096-.528.288-.72a.997.997 0 0 1 .736-.288Zm6.691.48c.448 0 .854.048 1.216.144.374.096.747.24 1.12.432l-.511 1.024a4.046 4.046 0 0 0-1.776-.4c-.566 0-.955.101-1.169.304-.213.203-.32.517-.32.944v1.12h4.705V73H52.77v-7.296h-3.232V73h-1.471v-7.296h-1.345v-1.136h1.344v-1.104c0-.747.24-1.344.72-1.792.48-.448 1.211-.672 2.192-.672Zm9.38 3.376c.501 0 .96.075 1.376.224a3.71 3.71 0 0 1 1.2.688l-.704.928a3.35 3.35 0 0 0-.88-.464 2.566 2.566 0 0 0-.928-.16c-.683 0-1.216.272-1.6.816-.374.544-.56 1.35-.56 2.416 0 1.067.186 1.856.56 2.368.373.501.906.752 1.6.752.33 0 .634-.048.912-.144.277-.107.586-.272.928-.496l.672.96c-.768.619-1.627.928-2.576.928-1.142 0-2.043-.384-2.704-1.152-.651-.768-.976-1.83-.976-3.184 0-.896.149-1.68.448-2.352.298-.672.72-1.195 1.264-1.568.554-.373 1.21-.56 1.968-.56Zm10.092 6.656c0 .341.059.597.176.768.117.16.293.283.528.368l-.336 1.024c-.437-.053-.79-.176-1.056-.368-.267-.192-.464-.49-.592-.896-.565.843-1.403 1.264-2.512 1.264-.832 0-1.488-.235-1.968-.704-.48-.47-.72-1.083-.72-1.84 0-.896.32-1.584.96-2.064.65-.48 1.568-.72 2.752-.72h1.296v-.624c0-.597-.144-1.024-.432-1.28-.288-.256-.73-.384-1.328-.384-.619 0-1.376.15-2.272.448l-.368-1.072c1.045-.384 2.016-.576 2.912-.576.992 0 1.733.245 2.224.736.49.48.736 1.168.736 2.064v3.856Zm-3.456 1.056c.843 0 1.504-.437 1.984-1.312V68.84h-1.104c-1.557 0-2.336.576-2.336 1.728 0 .501.123.88.368 1.136.245.256.608.384 1.088.384Zm10.735.528a3.238 3.238 0 0 1-1.888.576c-.715 0-1.274-.203-1.68-.608-.395-.416-.592-1.013-.592-1.792v-5.088h-1.472v-1.136h1.472v-1.904l1.472-.176v2.08h2l-.16 1.136h-1.84v5.024c0 .437.075.757.224.96.16.192.421.288.784.288.33 0 .704-.112 1.12-.336l.56.976Zm2.997-8.048V73h-1.472v-8.432h1.472Zm-.752-4.048c.31 0 .56.096.752.288a.977.977 0 0 1 .288.72.977.977 0 0 1-.288.72c-.192.181-.442.272-.752.272-.298 0-.544-.09-.736-.272a.977.977 0 0 1-.288-.72c0-.288.096-.528.288-.72a.997.997 0 0 1 .736-.288Zm6.964 3.856c1.184 0 2.101.395 2.752 1.184.661.79.992 1.861.992 3.216 0 .875-.15 1.648-.448 2.32-.299.661-.73 1.179-1.296 1.552-.565.363-1.237.544-2.016.544-1.184 0-2.107-.395-2.768-1.184-.661-.79-.992-1.861-.992-3.216 0-.875.15-1.643.448-2.304.299-.672.73-1.19 1.296-1.552.565-.373 1.243-.56 2.032-.56Zm0 1.184c-1.461 0-2.192 1.077-2.192 3.232 0 2.144.725 3.216 2.176 3.216 1.45 0 2.176-1.077 2.176-3.232 0-2.144-.72-3.216-2.16-3.216Zm10.144-1.184c.768 0 1.365.23 1.792.688.437.459.656 1.088.656 1.888V73h-1.472v-5.84c0-.597-.112-1.019-.336-1.264-.224-.245-.555-.368-.992-.368a1.92 1.92 0 0 0-1.184.384c-.342.256-.662.624-.96 1.104V73h-1.472v-8.432h1.264l.128 1.248c.298-.448.666-.8 1.104-1.056a2.915 2.915 0 0 1 1.472-.384Zm13.497 0c.96 0 1.723.39 2.288 1.168.565.768.848 1.845.848 3.232 0 .875-.133 1.648-.4 2.32-.267.661-.651 1.179-1.152 1.552-.501.363-1.088.544-1.76.544-.885 0-1.632-.373-2.24-1.12l-.144.928h-1.296V61.176l1.472-.176v4.624c.608-.832 1.403-1.248 2.384-1.248Zm-.528 7.648c.651 0 1.157-.261 1.52-.784.373-.533.56-1.355.56-2.464 0-1.141-.171-1.963-.512-2.464-.341-.512-.827-.768-1.456-.768-.747 0-1.403.437-1.968 1.312v4.032c.224.352.496.63.816.832a1.96 1.96 0 0 0 1.04.304Zm9.34-7.648c1.184 0 2.101.395 2.752 1.184.661.79.992 1.861.992 3.216 0 .875-.149 1.648-.448 2.32-.299.661-.731 1.179-1.296 1.552-.565.363-1.237.544-2.016.544-1.184 0-2.107-.395-2.768-1.184-.661-.79-.992-1.861-.992-3.216 0-.875.149-1.643.448-2.304.299-.672.731-1.19 1.296-1.552.565-.373 1.243-.56 2.032-.56Zm0 1.184c-1.461 0-2.192 1.077-2.192 3.232 0 2.144.725 3.216 2.176 3.216s2.176-1.077 2.176-3.232c0-2.144-.72-3.216-2.16-3.216Zm12.704-4.384V73h-1.296l-.144-1.168a3.122 3.122 0 0 1-1.04 1.008c-.416.235-.88.352-1.392.352-1.003 0-1.787-.395-2.352-1.184-.555-.79-.832-1.85-.832-3.184 0-.864.133-1.632.4-2.304.267-.672.651-1.195 1.152-1.568.501-.384 1.088-.576 1.76-.576.864 0 1.621.347 2.272 1.04V61l1.472.176Zm-3.552 10.848c.448 0 .832-.101 1.152-.304.32-.213.629-.528.928-.944v-4.128c-.277-.363-.576-.635-.896-.816a1.96 1.96 0 0 0-1.056-.288c-.651 0-1.157.272-1.52.816-.352.544-.528 1.355-.528 2.432 0 1.088.165 1.899.496 2.432.331.533.805.8 1.424.8Zm9.962 1.024c-.33.981-.794 1.755-1.392 2.32-.586.576-1.429.923-2.528 1.04l-.16-1.152c.555-.096.998-.235 1.328-.416a2.18 2.18 0 0 0 .784-.704c.203-.277.39-.656.56-1.136h-.496l-2.832-8.432h1.568l2.256 7.36 2.208-7.36h1.52l-2.816 8.48Zm12.99-.432a3.238 3.238 0 0 1-1.888.576c-.715 0-1.275-.203-1.68-.608-.395-.416-.592-1.013-.592-1.792v-5.088h-1.472v-1.136h1.472v-1.904l1.472-.176v2.08h2l-.16 1.136h-1.84v5.024c0 .437.074.757.224.96.16.192.421.288.784.288.33 0 .704-.112 1.12-.336l.56.976Zm7.659-4.08c0 .245-.011.496-.032.752h-5.376c.064.928.298 1.61.704 2.048.405.437.928.656 1.568.656a3.43 3.43 0 0 0 1.12-.176 4.534 4.534 0 0 0 1.072-.56l.64.88c-.896.704-1.878 1.056-2.944 1.056-1.174 0-2.091-.384-2.752-1.152-.651-.768-.976-1.824-.976-3.168 0-.875.138-1.648.416-2.32.288-.683.693-1.216 1.216-1.6.533-.384 1.157-.576 1.872-.576 1.12 0 1.978.368 2.576 1.104.597.736.896 1.755.896 3.056Zm-1.456-.432c0-.832-.166-1.467-.496-1.904-.331-.437-.827-.656-1.488-.656-1.206 0-1.862.885-1.968 2.656h3.952v-.096Zm6.898.384L167.524 73h-1.776l-2.064-3.568L161.588 73h-1.664l2.944-4.448-2.608-3.984h1.728l1.76 3.088 1.776-3.088h1.664l-2.592 3.92Zm8.789 4.128a3.236 3.236 0 0 1-1.888.576c-.714 0-1.274-.203-1.68-.608-.394-.416-.592-1.013-.592-1.792v-5.088h-1.472v-1.136h1.472v-1.904l1.472-.176v2.08h2l-.16 1.136h-1.84v5.024c0 .437.075.757.224.96.16.192.422.288.784.288.331 0 .704-.112 1.12-.336l.56.976Z" fill="#1C1C1C"/><path d="M2 2h295v-4H2v4Zm295 0v92h4V2h-4Zm0 92H2v4h295v-4ZM2 94V2h-4v92h4Zm0 0h-4a4 4 0 0 0 4 4v-4Zm295 0v4a4 4 0 0 0 4-4h-4Zm0-92h4a4 4 0 0 0-4-4v4ZM2-2a4 4 0 0 0-4 4h4v-4Z" fill="#0095DA"/></svg>