<svg width="168" height="24" fill="none" xmlns="http://www.w3.org/2000/svg"><rect x="1" y="1" width="22" height="22" rx="11" fill="#fff"/><circle cx="12" cy="12" r="7.2" fill="#646464"/><rect x="1" y="1" width="22" height="22" rx="11" stroke="#646464" stroke-width="2"/><path d="M36.832 12.328H35.12V17H33.6V5.976h2.896c1.376 0 2.416.261 3.12.784.715.523 1.072 1.301 1.072 2.336 0 .768-.197 1.392-.592 1.872-.395.48-.992.843-1.792 1.088L41.28 17h-1.808l-2.64-4.672Zm-.176-1.168c.8 0 1.403-.16 1.808-.48.405-.33.608-.859.608-1.584 0-.683-.208-1.173-.624-1.472-.405-.31-1.061-.464-1.968-.464h-1.36v4h1.536Zm12.075 3.872c0 .341.059.597.176.768.118.16.294.283.528.368l-.336 1.024c-.437-.053-.79-.176-1.056-.368s-.464-.49-.592-.896c-.565.843-1.402 1.264-2.512 1.264-.832 0-1.488-.235-1.968-.704-.48-.47-.72-1.083-.72-1.84 0-.896.32-1.584.96-2.064.65-.48 1.568-.72 2.752-.72h1.296v-.624c0-.597-.144-1.024-.432-1.28-.288-.256-.73-.384-1.328-.384-.618 0-1.376.15-2.272.448l-.368-1.072c1.046-.384 2.016-.576 2.912-.576.992 0 1.734.245 2.224.736.49.48.736 1.168.736 2.064v3.856Zm-3.456 1.056c.843 0 1.504-.437 1.984-1.312V12.84h-1.104c-1.557 0-2.336.576-2.336 1.728 0 .501.123.88.368 1.136.246.256.608.384 1.088.384ZM58.282 5.176V17h-1.296l-.144-1.168a3.126 3.126 0 0 1-1.04 1.008c-.416.235-.88.352-1.392.352-1.002 0-1.786-.395-2.352-1.184-.554-.79-.832-1.85-.832-3.184 0-.864.134-1.632.4-2.304.267-.672.651-1.195 1.152-1.568.502-.384 1.088-.576 1.76-.576.864 0 1.622.347 2.272 1.04V5l1.472.176ZM54.73 16.024c.448 0 .832-.101 1.152-.304.32-.213.63-.528.928-.944v-4.128c-.277-.363-.576-.635-.896-.816a1.961 1.961 0 0 0-1.056-.288c-.65 0-1.157.272-1.52.816-.352.544-.528 1.355-.528 2.432 0 1.088.166 1.899.496 2.432.331.533.806.8 1.424.8Zm8.059-7.456V17h-1.472V8.568h1.472Zm-.752-4.048c.31 0 .56.096.752.288a.977.977 0 0 1 .288.72.977.977 0 0 1-.288.72c-.192.181-.443.272-.752.272-.299 0-.544-.09-.736-.272a.977.977 0 0 1-.288-.72c0-.288.096-.528.288-.72a.997.997 0 0 1 .736-.288ZM69 8.376c1.183 0 2.1.395 2.751 1.184.662.79.993 1.861.993 3.216 0 .875-.15 1.648-.449 2.32-.298.661-.73 1.179-1.296 1.552-.565.363-1.237.544-2.016.544-1.183 0-2.106-.395-2.767-1.184-.662-.79-.992-1.861-.992-3.216 0-.875.149-1.643.448-2.304.298-.672.73-1.19 1.296-1.552.565-.373 1.242-.56 2.032-.56Zm0 1.184c-1.462 0-2.193 1.077-2.193 3.232 0 2.144.726 3.216 2.176 3.216 1.451 0 2.177-1.077 2.177-3.232 0-2.144-.72-3.216-2.16-3.216Zm14.266-1.184c.96 0 1.722.39 2.288 1.168.565.768.848 1.845.848 3.232 0 .875-.134 1.648-.4 2.32-.267.661-.651 1.179-1.152 1.552-.502.363-1.088.544-1.76.544-.886 0-1.632-.373-2.24-1.12l-.144.928H79.41V5.176L80.883 5v4.624c.608-.832 1.402-1.248 2.384-1.248Zm-.528 7.648c.65 0 1.157-.261 1.52-.784.373-.533.56-1.355.56-2.464 0-1.141-.171-1.963-.512-2.464-.342-.512-.827-.768-1.456-.768-.747 0-1.403.437-1.968 1.312v4.032c.224.352.496.63.816.832.33.203.677.304 1.04.304ZM95.183 17h-1.264l-.112-1.312c-.32.523-.688.907-1.104 1.152-.416.235-.923.352-1.52.352-.736 0-1.312-.224-1.728-.672-.416-.448-.624-1.083-.624-1.904V8.568h1.472v5.888c0 .576.101.987.304 1.232.202.235.533.352.992.352.821 0 1.525-.485 2.112-1.456V8.568h1.472V17Zm7.296-.384a3.238 3.238 0 0 1-1.888.576c-.715 0-1.274-.203-1.68-.608-.395-.416-.592-1.013-.592-1.792V9.704h-1.472V8.568h1.472V6.664l1.472-.176v2.08h2l-.16 1.136h-1.84v5.024c0 .437.075.757.224.96.16.192.421.288.784.288.331 0 .704-.112 1.12-.336l.56.976Zm5.781 0a3.236 3.236 0 0 1-1.888.576c-.714 0-1.274-.203-1.68-.608-.394-.416-.592-1.013-.592-1.792V9.704h-1.472V8.568h1.472V6.664l1.472-.176v2.08h2l-.16 1.136h-1.84v5.024c0 .437.075.757.224.96.16.192.422.288.784.288.331 0 .704-.112 1.12-.336l.56.976Zm4.459-8.24c1.184 0 2.102.395 2.752 1.184.662.79.992 1.861.992 3.216 0 .875-.149 1.648-.448 2.32-.298.661-.73 1.179-1.296 1.552-.565.363-1.237.544-2.016.544-1.184 0-2.106-.395-2.768-1.184-.661-.79-.992-1.861-.992-3.216 0-.875.15-1.643.448-2.304.299-.672.731-1.19 1.296-1.552.566-.373 1.243-.56 2.032-.56Zm0 1.184c-1.461 0-2.192 1.077-2.192 3.232 0 2.144.726 3.216 2.176 3.216 1.451 0 2.176-1.077 2.176-3.232 0-2.144-.72-3.216-2.16-3.216Zm10.144-1.184c.768 0 1.365.23 1.792.688.437.459.656 1.088.656 1.888V17h-1.472v-5.84c0-.597-.112-1.019-.336-1.264-.224-.245-.555-.368-.992-.368a1.92 1.92 0 0 0-1.184.384c-.341.256-.661.624-.96 1.104V17h-1.472V8.568h1.264l.128 1.248c.299-.448.667-.8 1.104-1.056a2.916 2.916 0 0 1 1.472-.384Zm11.321 8.816c-.544 0-.976-.16-1.296-.48-.309-.33-.464-.79-.464-1.376V5.176L133.896 5v10.304c0 .235.038.405.112.512.086.107.224.16.416.16.203 0 .384-.032.544-.096l.384 1.024a2.398 2.398 0 0 1-1.168.288Zm8.61-2.16c0 .341.058.597.176.768.117.16.293.283.528.368l-.336 1.024c-.438-.053-.79-.176-1.056-.368-.267-.192-.464-.49-.592-.896-.566.843-1.403 1.264-2.512 1.264-.832 0-1.488-.235-1.968-.704-.48-.47-.72-1.083-.72-1.84 0-.896.32-1.584.96-2.064.65-.48 1.568-.72 2.752-.72h1.296v-.624c0-.597-.144-1.024-.432-1.28-.288-.256-.731-.384-1.328-.384-.619 0-1.376.15-2.272.448l-.368-1.072c1.045-.384 2.016-.576 2.912-.576.992 0 1.733.245 2.224.736.49.48.736 1.168.736 2.064v3.856Zm-3.456 1.056c.842 0 1.504-.437 1.984-1.312V12.84h-1.104c-1.558 0-2.336.576-2.336 1.728 0 .501.122.88.368 1.136.245.256.608.384 1.088.384Zm10.335-7.712c.96 0 1.723.39 2.288 1.168.565.768.848 1.845.848 3.232 0 .875-.133 1.648-.4 2.32-.267.661-.651 1.179-1.152 1.552-.501.363-1.088.544-1.76.544-.885 0-1.632-.373-2.24-1.12l-.144.928h-1.296V5.176L147.289 5v4.624c.608-.832 1.403-1.248 2.384-1.248Zm-.528 7.648c.651 0 1.157-.261 1.52-.784.373-.533.56-1.355.56-2.464 0-1.141-.171-1.963-.512-2.464-.341-.512-.827-.768-1.456-.768-.747 0-1.403.437-1.968 1.312v4.032c.224.352.496.63.816.832a1.96 1.96 0 0 0 1.04.304Zm12.54-3.488c0 .245-.011.496-.032.752h-5.376c.064.928.299 1.61.704 2.048.405.437.928.656 1.568.656.405 0 .779-.059 1.12-.176a4.515 4.515 0 0 0 1.072-.56l.64.88c-.896.704-1.877 1.056-2.944 1.056-1.173 0-2.091-.384-2.752-1.152-.651-.768-.976-1.824-.976-3.168 0-.875.139-1.648.416-2.32.288-.683.693-1.216 1.216-1.6.533-.384 1.157-.576 1.872-.576 1.12 0 1.979.368 2.576 1.104.597.736.896 1.755.896 3.056Zm-1.456-.432c0-.832-.165-1.467-.496-1.904-.331-.437-.827-.656-1.488-.656-1.205 0-1.861.885-1.968 2.656h3.952v-.096Zm5.487 5.088c-.544 0-.976-.16-1.296-.48-.31-.33-.464-.79-.464-1.376V5.176L165.428 5v10.304c0 .235.037.405.112.512.085.107.224.16.416.16.202 0 .384-.032.544-.096l.384 1.024a2.4 2.4 0 0 1-1.168.288Z" fill="#1C1C1C"/></svg>