<?xml version="1.0" encoding="utf-8"?>
<!-- Generator: Adobe Illustrator 27.1.0, SVG Export Plug-In . SVG Version: 6.00 Build 0)  -->
<svg version="1.1" id="Laag_1" xmlns="http://www.w3.org/2000/svg" xmlns:xlink="http://www.w3.org/1999/xlink" x="0px" y="0px"
	 viewBox="0 0 351 467" style="enable-background:new 0 0 351 467;" xml:space="preserve">
<g>
	<path fill="#CCB896" d="M84.1,185.3c0,0-25,68.4-18.1,98.7c0,0,27.2,36.2,35.9,30.5c1.8-1.2,5.4-2.8,10.1-4.5c0.5,0.8,1,1.6,1.6,2.3
		c1.7-0.4,3.4-0.8,5.1-1.2c0,0,0.7-1.6,0.7-1.5c1.6,0,3,0.8,4.9,0.4c0.5-1.5,0.5-3,1.2-4.6c0.7,1.1,1.4,2.2,2.2,3.3
		c1.9-0.4,3.7-0.9,5.5-1.3c0.9-1.5,0.5-2.5,1.4-4.2c17.1-5.2,34.3-9.8,46-10.3c11.5-0.6,39.4,5.2,39.6,6.3c2,0.9,7,2.4,9,3.4
		c0-0.6,0.1-1.2,0.2-1.9c0.5,0.3,1.3,1.9,1.5,3.1c2.7,1.7,4.4,3.1,6.5,4.4c0-0.7,0.9-2,0.9-2.7c5.8,6.6,10.7,9.8,12.7,10.1
		c0,0,29.4-132.1,35.1-140.6C291.7,166.5,84.1,185.3,84.1,185.3z"/>
	<path fill="#EAD1BD" d="M87.2,330.3c0,0-0.8-15.6,21-22.8c21.8-7.3,44.2-15.5,44.2-31c0-15.5,0-40.9,0-40.9h24.4h24.4
		c0,0,0,25.3,0,40.9c0,15.5,22.4,23.7,44.2,31c21.8,7.3,25,20.9,25,20.9L330,467h-41l-44.1-88.2l-14.5,86h-53.7h-53.7l-14.5-86
		L68,467H26L87.2,330.3z"/>
	<g>
		<path fill="#22252C" d="M271,314c0,0,3.9-0.6,9.4,6.2c5.5,6.8,31,88.7,31,88.7l-51.7,14.5l-5.1-35.5L271,314z"/>
		<path fill="#22252C" d="M256.8,413.9c0,0,1.1-23.7,1.9-23.9c0.6-14.4,27.6-66.8,17.3-74.8c-8.1-6.3-57-18.5-57-18.5
			s-11.5,11.4-46.4,10.2c-40.1-1.4-37.7-10.2-37.7-10.2l-56,15.5c0,1.8,16.3,97,16.3,97L100,467h161L256.8,413.9z"/>
		<linearGradient id="SVGID_1_" gradientUnits="userSpaceOnUse" x1="177.9207" y1="319.8961" x2="175.1217" y2="292.9058">
			<stop  offset="0" style="stop-color:#171921"/>
			<stop  offset="1" style="stop-color:#23252C"/>
		</linearGradient>
		<path style="fill:url(#SVGID_1_)" d="M132.3,297.4c0,0-4.2,14.2,46.1,12.5c37.3-1.3,40.5-13.2,40.5-13.2l-5-2.7c0,0-1.5,10.1-36.5,11.1
			c-41.1,1.3-39.5-9.7-39.5-9.7L132.3,297.4z"/>
		<path fill="#22252C" d="M81,312c0,0-3.5-0.8-9,6c-5.5,6.8-29.6,90.9-29.6,90.9l51.7,14.5l5.1-35.5L81,312z"/>
		
			<linearGradient id="SVGID_00000005965471219418745760000000762421685113049993_" gradientUnits="userSpaceOnUse" x1="5575.8882" y1="418.2259" x2="5628.1265" y2="385.7723" gradientTransform="matrix(-1 0 0 1 5700.875 0)">
			<stop  offset="0" style="stop-color:#23252C"/>
			<stop  offset="1" style="stop-color:#171921"/>
		</linearGradient>
		<path style="fill:url(#SVGID_00000005965471219418745760000000762421685113049993_);" d="M95.7,422.6L88.8,372
			c0,0-6.6,34.2-8.3,42.4L95.7,422.6z"/>
		
			<linearGradient id="SVGID_00000060029780684058785580000001812084705137705374_" gradientUnits="userSpaceOnUse" x1="121.88" y1="425.5958" x2="34.4534" y2="405.0248">
			<stop  offset="0" style="stop-color:#23252C"/>
			<stop  offset="1" style="stop-color:#171921"/>
		</linearGradient>

		<path d="M95.7 422.6 88.8 372s-6.6 34.2-8.3 42.4l15.2 8.2z" fill="#22252C"></path>
		<path style="fill:url(#SVGID_00000060029780684058785580000001812084705137705374_);" d="M95.7,426.9c0,0-19.5-4.7-31.5-8.1
			c-12.6-3.6-25.6-9.3-25.6-9.3l3.3-10.1c0,0,33.9,11,51.9,14.8L95.7,426.9z"/>
		
			<linearGradient id="SVGID_00000117634558083492379740000014364893443243278757_" gradientUnits="userSpaceOnUse" x1="91.9049" y1="474.6181" x2="94.7655" y2="338.7303">
			<stop  offset="0" style="stop-color:#23252C"/>
			<stop  offset="1" style="stop-color:#171921"/>
		</linearGradient>
		<path style="fill:url(#SVGID_00000117634558083492379740000014364893443243278757_);" d="M105.4,410.7c0-5.3-24.5-65.9-24.5-65.9
			c1.4,10.2,11.1,66.7,17.7,104.8h7.5C106,432.6,105.4,415.2,105.4,410.7z"/>
		
			<linearGradient id="SVGID_00000063605427039319246280000004016516176355586224_" gradientUnits="userSpaceOnUse" x1="9814.5977" y1="418.2259" x2="9866.8359" y2="385.7723" gradientTransform="matrix(1 0 0 1 -9585.8018 0)">
			<stop  offset="0" style="stop-color:#23252C"/>
			<stop  offset="1" style="stop-color:#171921"/>
		</linearGradient>
		<path style="fill:url(#SVGID_00000063605427039319246280000004016516176355586224_);" d="M258.1,422.6L265,372
			c0,0,6.6,34.2,8.3,42.4L258.1,422.6z"/>
		
			<linearGradient id="SVGID_00000021822526321199306250000009593858316117749922_" gradientUnits="userSpaceOnUse" x1="-4116.8296" y1="425.5958" x2="-4204.2559" y2="405.0248" gradientTransform="matrix(-1 0 0 1 -3884.9263 0)">
			<stop  offset="0" style="stop-color:#23252C"/>
			<stop  offset="1" style="stop-color:#171921"/>
		</linearGradient>
		<path style="fill:url(#SVGID_00000021822526321199306250000009593858316117749922_);" d="M258.1,426.9c0,0,19.5-4.7,31.5-8.1
			c12.6-3.6,25.6-9.3,25.6-9.3l-3.3-10.1c0,0-33.9,11-51.9,14.8L258.1,426.9z"/>
		
			<linearGradient id="SVGID_00000150075769914758988880000013034129207366579596_" gradientUnits="userSpaceOnUse" x1="256.9919" y1="480.9172" x2="259.9626" y2="339.8025">
			<stop  offset="0" style="stop-color:#23252C"/>
			<stop  offset="1" style="stop-color:#171921"/>
		</linearGradient>
		<path style="fill:url(#SVGID_00000150075769914758988880000013034129207366579596_);" d="M259,419.4c0.5-5.6,10.8-80.4,10.8-80.4
			s-21.2,60.2-21,65.7c0.2,7.3-1,31.1,0.2,49.3h11C260.6,443.8,257.9,428.6,259,419.4z"/>
	</g>
	<g>
		<path fill="#CCB896" d="M75.9,308.2c6.2,8-5.6,21.7-5.6,21.7s15-9.6,11.2-23.5c3.4,2.8,8,7.1,8.4,10.2c0.6,4.9-2.1,10.8-7.4,14.1
			c0,0,13.9-1.9,13.9-16.9c0-14.9-6.8-13.6,0-21.9c0,0,0,0,0,0c-5.8-10.9-11-22.8-9.5-28.9C88.6,256.6,69.8,300.3,75.9,308.2z"/>
	</g>
	<g>
		<path fill="#D6C19D" d="M122.4,286.3c-1.7,9.9,15.2,16.5,15.2,16.5s-17.7-1.4-20.9-15.4c-1.7,4.1-3.7,10.1-2.6,12.9
			c1.8,4.6,7,8.5,13.1,8.9c0,0-13.2,4.8-20.2-8.3c-7-13.2-0.4-15.2-10.3-19.3c0,0,0,0,0,0c0-12.3-1-25.3-5.3-30
			C87,246.8,124.1,276.4,122.4,286.3z"/>
	</g>
	<path fill="#F2DDCB" d="M268.9,142.3c0,79.3-32.1,134.2-94.3,134.2c-62.2,0-96.7-55.6-96.7-134.9c0-79.3,35.6-117.3,97.8-117.3
		C237.9,24.2,268.9,63,268.9,142.3z"/>
	<path fill="#929EAD" d="M147.7,174.2c0,10.9-8.9,19.7-19.9,19.7c-11,0-19.9-8.8-19.9-19.7c0-10.9,8.9-19.7,19.9-19.7
		C138.8,154.5,147.7,163.3,147.7,174.2z"/>
	<path fill="#2A1D01" d="M142.6,174.2c0,7.6-6.2,13.8-13.8,13.8c-7.6,0-13.8-6.2-13.8-13.8c0-7.6,6.2-13.8,13.8-13.8
		C136.4,160.4,142.6,166.6,142.6,174.2z"/>
	<path fill="#FFFFFF" d="M123,167.1c0,2.2-1.8,4-4,4c-2.2,0-4-1.8-4-4s1.8-4,4-4C121.2,163.1,123,164.9,123,167.1z"/>
	<path fill="#D8BCAD" d="M135.1,223.6c12.1,7.3,25.1,11.9,38.2,11.7c13.2,0,25.9-5.1,38.5-11.7c-4.6,5.5-10.4,10-17,13.2
		c-6.6,3.3-14,5.1-21.5,5.2c-7.5,0-15-1.7-21.5-4.9C145.2,234,139.3,229.5,135.1,223.6z"/>
	<path fill="#929EAD" d="M201.1,174.2c0,10.9,8.9,19.7,19.9,19.7c11,0,19.9-8.8,19.9-19.7c0-10.9-8.9-19.7-19.9-19.7
		C210,154.5,201.1,163.3,201.1,174.2z"/>
	<path fill="#2A1D01" d="M206.2,174.2c0,7.6,6.2,13.8,13.8,13.8c7.6,0,13.8-6.2,13.8-13.8c0-7.6-6.2-13.8-13.8-13.8
		C212.4,160.4,206.2,166.6,206.2,174.2z"/>
	<path fill="#FFFFFF" d="M207,167.1c0,2.2,1.8,4,4,4c2.2,0,4-1.8,4-4s-1.8-4-4-4C208.8,163.1,207,164.9,207,167.1z"/>
	
		<radialGradient id="SVGID_00000127742753370891464820000010470468751513296278_" cx="124.543" cy="211.7968" r="15.9853" gradientUnits="userSpaceOnUse">
		<stop  offset="0" style="stop-color:#EDCDB5"/>
		<stop  offset="1" style="stop-color:#F2DDCB"/>
	</radialGradient>
	<path style="fill:url(#SVGID_00000127742753370891464820000010470468751513296278_);" d="M140.5,211.8c0,8.8-7.2,16-16,16
		c-8.8,0-16-7.2-16-16c0-8.8,7.2-16,16-16C133.4,195.8,140.5,203,140.5,211.8z"/>
	
		<radialGradient id="SVGID_00000158722232218175883800000017582648743169563280_" cx="226.7017" cy="211.7968" r="15.9853" gradientUnits="userSpaceOnUse">
		<stop  offset="0" style="stop-color:#EDCDB5"/>
		<stop  offset="1" style="stop-color:#F2DDCB"/>
	</radialGradient>
	<path style="fill:url(#SVGID_00000158722232218175883800000017582648743169563280_);" d="M242.7,211.8c0,8.8-7.2,16-16,16
		s-16-7.2-16-16c0-8.8,7.2-16,16-16S242.7,203,242.7,211.8z"/>
	<path fill="#D6C19D" d="M236.6,82.1c0,0,29.9,34.4,41.9,52.5c12,18.1,19.6,26.4,19.5,42.5c-0.1,18.4-21.3,42.4-19.3,58.4
		c0,0-3-29.8-2.2-39.2c0.7-9.5,9.2-13,6.4-26.5c-2.8-13.4-20.5-31.8-28.9-48C245.4,105.5,236.6,82.1,236.6,82.1z"/>
	<path fill="#D6C19D" d="M283.5,293.5c-6.3-4.7-13.1-12-12.8-21.1l4.3-85L255,227c0,0-19.6,60.1-4.6,72c3.3,2.6,6,4.6,8.2,6.2
		c1.1-0.4,2.2-0.8,3.4-1.2c-2.2-3-4.1-6.5-4.2-9.5C257.8,294.5,280.9,295.4,283.5,293.5z"/>
	<path fill="#CCB896" d="M284.7,161.3c0.1,20.5-13.2,38.7-19.6,59c-8.7,24.5-0.3,53.9,22.2,70c0.1-0.1,0.2-0.2,0.3-0.3
		C246,235,294.4,207.3,284.7,161.3z"/>
	<path fill="#D6C19D" d="M185,69.4c0,0,3.6-3.5,1.6-6.8c-2-3.3-25-18-38.6-9.1S145,66,145,66L185,69.4z"/>
	<path fill="#D6C19D" d="M189.4,69.4c0,0,20.1-2.2,34.1,8.5c14,10.7,23.7,54.2,33.4,61.8l9.2,27.1c0,0,5.4,28.4,6.9,38.1
		c0,0,19-38.7,19.1-53.7c0.6-81.8-49.6-134.6-91.9-123.2L189.4,69.4z"/>
	<path fill="#D6C19D" d="M185,69.4c0,0,14.7-21.5,15.2-41.3c0,0-17.1-12.2-50.6-2.1c-59.6,17.9-83,57.5-90.1,76.7
		c-23.7,64.4-13.7,123.2-12.9,145.2s10.7,36.8,10.7,36.8s0.8-45.5,14.9-60.6c14.1-15.1,31.9-40,35.8-59.4
		c3.9-19.5,12.1-52.9,23.6-78C142.5,63,173.8,42.6,185,69.4z"/>
	<path fill="#EAD4B5" d="M96.8,296.1c4.9,9.5,23.8,22.2,26.2,21.8c0.8,0-41.2-61.1-34.8-119.1c0,0-33.6,39.4-30.8,91.8
		c0.5,10.1,4.2,24.5,8.2,35.2c2.8-0.1,4.5-31,7.1-43.5c0,0,8.8,25,21.3,41.5C94.5,323.7,97.3,302.1,96.8,296.1z"/>
	<path fill="#D6C19D" d="M157.6,56.6c-13,6-21.8,18.8-28.8,30.7c-5.5,9.2-10.7,17.9-15.6,28c-7.4,14.4-10.5,31.4-14.2,47.2
		c-4.2,17.5-12.9,33.3-23.3,49.1c-24.7,34.1-30.3,76.8-8,112.8c0.3,0,0.6,0,0.8,0c-11.8-24.9-13.1-55.7-1.3-81.7
		c8.3-18.6,22.7-34.3,31.7-53.3c11.4-22.1,10.8-47.3,20.7-69.9c9-18.7,16.9-40.7,32.7-56.1c7.9-7.3,22.6-12.9,31.7-4.2
		C178.4,52.2,166.5,52.1,157.6,56.6z"/>
	<g>
		<path fill="#EAD4B5" d="M122.9,304.1c-6.5-5.4-11.3-12.7-14.3-20.5c-2-5.9-3.3-12.1-5.5-17.9c-6.9-17.4-11.1-35.4-15.2-53.6
			c0,0,0.4-0.1,0.4-0.1c2.1,3.6,3.9,7.4,5.4,11.3c3.1,7.7,5.2,15.8,6.9,23.9c1.9,8,2.7,16.3,5.7,24.1c1.5,3.9,3.5,7.4,5.4,11.1
			c1.8,3.6,3.6,7.3,5.5,10.9c1.9,3.6,4.1,7.1,6.1,10.7C123.1,303.9,122.9,304.1,122.9,304.1L122.9,304.1z"/>
	</g>
	<path fill="#D6C19D" d="M101.5,322.1c-10.2-24.9-15.6-53.7-20.7-79.8C76.1,267.3,99.7,322.5,101.5,322.1z"/>
	<path fill="#EAD4B5" d="M171,42.8c-33.7-2.5-63.2,20.1-78,47.1c-18.2,31.8-20.6,69-32,103.5C90.3,142.3,90.6,53.1,171,42.8z"/>
	<path fill="#D6C19D" d="M61.6,210.7c-16.6,23.9-33.9,63.4-14.1,91.4C41.1,273.1,55.3,240.7,61.6,210.7z"/>
	<path fill="#EAD4B5" d="M188.3,23.4c-24.2-3-46.5,1.6-67.2,10.9c-72.6,32.4-85.9,116-76.7,180.2c0.5-59,12.8-141.4,85.4-176
		C147.2,30.2,168,22.6,188.3,23.4z"/>
	<path fill="#EAD4B5" d="M215,26.6c33.2,12.3,74.5,63.7,76.5,108C289,78.9,257.1,30,215,26.6z"/>
	<path fill="#CCB896" d="M254.2,239.7c-4.8,18.7,27.4,55.2,29.2,53.9C267.8,281.1,259.4,257.7,254.2,239.7z"/>
	<path fill="#CCB896" d="M241.6,259.3c-8,14.3,17.5,45.8,19.6,45C250.6,292.4,244.1,275.7,241.6,259.3z"/>
	<path fill="#EAD4B5" d="M251.9,256.8c-8,14.3-2.7,36.2,12.1,45.9C266,301.9,254.4,273.2,251.9,256.8z"/>
	<path fill="#EAD4B5" d="M189.4,69.4c48.5-5,38.2,69.6,89.5,82.9c-9.4-7.1-19.1-17.7-25.2-32.2c-5.4-12.9-8.3-28.6-17.9-40
		C227.1,69.5,200.9,62.7,189.4,69.4z"/>
	<path fill="#CCB896" d="M185,69.4h4.4c0,0,6.6-17.4,8.6-20.4s3.2-4,3.1-8.5c-0.1-4.5,0.1-13.3,1-12.9c0.9,0.4-0.3-1.4-2.7,0
		C197,29,198,36,197,39s-5,11-6,16s-6.9,10.9-6.9,12.5C184,69,185,69.4,185,69.4z"/>
	<path fill="#D6C19D" d="M260.3,142.7c1.7,15.1,22.2,18.1,28,31c1.5-6.6-3.4-13.2-8.5-17.5C274,150.9,265.5,149.1,260.3,142.7z"/>
	<path fill="#D6C19D" d="M281.3,199.9c-1.7,8.5-7.1,17.3-7.8,26.7c-2.2,15.4,5,34,20.6,39.9c-9.4-9.1-14.7-22.4-14.5-37.7
		C279.1,219.6,282.8,209.4,281.3,199.9z"/>
	<path fill="#EAD4B5" d="M207.6,42c19.7,8.2,43.1,19.4,54.7,39.3C258.2,56.3,232.2,42.4,207.6,42z"/>
	<path fill="#CCB896" d="M199.4,34.6c0,0-10.3-6.1-28.4-1.9S154,38,154,38s22-7,32-5s12.9,5,12.9,5"/>
	<path fill="#CCB896" d="M193.4,54.6c0,0-12.2-6.1-33.4-1.9S96,116,96,116s51.1-60.4,63-61c20-1,33.8,3,33.8,3"/>
	<path fill="#CCB896" d="M199.4,44.6c0,0-10.8-6.1-29.6-1.9S152,48,152,48s23-7,33.4-5s13.4,5,13.4,5"/>
	<path fill="#CCB896" d="M200,29.6c0,0,7.7-6.1,21.2-1.9S234,33,234,33s-16.5-7-23.9-5c-7.5,2-9.6,5-9.6,5"/>
	<path fill="#CCB896" d="M193,50.6c0,0,12.2-6.1,33.4-1.9s20,5.3,20,5.3s-25.9-7-37.6-5c-11.8,2-15.1,5-15.1,5"/>
	<path fill="#CCB896" d="M190,62.6c0,0,12.2-6.1,33.4-1.9S267,132,267,132s-31.3-67.9-43-70c-11-2-33,2-33,2"/>
	<path fill="#CCB896" d="M200,39.6c0,0,8-6.1,21.9-1.9C235.8,42,235,43,235,43s-16.9-7-24.6-5c-7.7,2-9.9,5-9.9,5"/>
	<g>
		<path fill="#CCB896" d="M83,93c-8.3,17-17.5,34-22.3,52.4c-3.4,18.3-3.8,38.4-6.5,56.8c-0.4,2.7-0.8,5.4-1.4,8.1
			c-0.6,2.6-1.1,5.5-2.9,7.6c1.6-2.2,1.8-5.1,2.3-7.7c0.4-2.7,0.7-5.4,1-8.1c1.9-19,2-38.3,5.6-57.1c1.9-8.1,5.2-15.7,8.6-23.2
			C72.1,112,77.4,102.4,83,93L83,93z"/>
	</g>
	<g>
		<path fill="#CCB896" d="M130,78c-7.4,10.3-14.6,20.8-21.3,31.5c-4.9,8.1-9.8,16.2-13,25.1c-4.6,15.1-5.4,31.1-7.6,46.7
			c-0.8,6.3-1.7,12.6-2.8,18.9c-0.6,3.1-1.2,6.2-2.1,9.3c-0.9,3-1.7,6.4-4.2,8.4c5.1-4.5,6.5-29,7.6-36.8c0.6-6.3,1.3-12.6,2.1-18.9
			c1.2-9.5,2.2-19.1,5.3-28.2c3.4-9,8.3-17.3,13.5-25.3C114.4,98.1,121.9,87.8,130,78L130,78z"/>
	</g>
</g>
</svg>
