<?xml version="1.0" encoding="utf-8"?>
<!-- Generator: Adobe Illustrator 27.1.0, SVG Export Plug-In . SVG Version: 6.00 Build 0)  -->
<svg version="1.1" id="Laag_1" xmlns="http://www.w3.org/2000/svg" xmlns:xlink="http://www.w3.org/1999/xlink" x="0px" y="0px"
	 viewBox="0 0 351 467" style="enable-background:new 0 0 351 467;" xml:space="preserve">
<g>
	<g>
		<g>
			<path fill="#3A475E" d="M151,278.3c0-1.2,0-2.5,0-3.9c-7.1,1.1-13,2.7-16.5,5c-2,1.2-0.5,9.8,1.5,18.1
				C144.9,292.6,151,286.4,151,278.3z"/>
			<path fill="#3A475E" d="M199.8,274.1c0,1.5,0,2.9,0,4.3c0,9.6,8.5,16.4,20.2,21.9c-0.8-8-2.1-18.8-3.3-20.7
				C215.1,277.1,208.6,275.2,199.8,274.1z"/>
		</g>
		<path fill="#EAD1BD" d="M270.1,329.1c0,0-3.1-13.6-25-20.9c-21.8-7.3-42.2-15.5-42.2-31c0-15.5,0-40.9,0-40.9h-26.4h-26.4
			c0,0,0,25.3,0,40.9c0,15.5-20.4,23.7-42.2,31c-21.8,7.3-25,20.9-25,20.9l24,67.9l140,3L270.1,329.1z"/>
		<path fill="#F2DDCB" d="M269.8,123.2c0,77-26,139.8-93,139.8c-66.9,0-91.7-63.6-91.7-140.6c0-77,62.3-92.5,92.8-92.5
			S269.8,46.2,269.8,123.2z"/>
		<radialGradient id="SVGID_1_" cx="125.5571" cy="198.7968" r="15.9853" gradientUnits="userSpaceOnUse">
			<stop  offset="0" style="stop-color:#EDCDB5"/>
			<stop  offset="1" style="stop-color:#F2DDCB"/>
		</radialGradient>
		<path fill="url(#SVGID_1_)" d="M141.5,198.8c0,8.8-7.2,16-16,16c-8.8,0-16-7.2-16-16c0-8.8,7.2-16,16-16C134.4,182.8,141.5,190,141.5,198.8z
			"/>
		
			<radialGradient id="SVGID_00000050659633043987227330000014542451432463691440_" cx="227.7158" cy="198.7968" r="15.9853" gradientUnits="userSpaceOnUse">
			<stop  offset="0" style="stop-color:#EDCDB5"/>
			<stop  offset="1" style="stop-color:#F2DDCB"/>
		</radialGradient>
		<path style="fill:url(#SVGID_00000050659633043987227330000014542451432463691440_);" d="M243.7,198.8c0,8.8-7.2,16-16,16
			s-16-7.2-16-16c0-8.8,7.2-16,16-16S243.7,190,243.7,198.8z"/>
		<g>
			<path fill="#DFE8EA" d="M78.8,334.3l0.1,0.5C78.9,334.6,78.8,334.5,78.8,334.3C78.8,334.3,78.8,334.3,78.8,334.3z"/>
		</g>
		<path fill="#D1A49F" d="M141.4,211.2c11.1,6.7,23,10.9,35.1,10.8c12.1,0,23.8-4.7,35.4-10.8c-4.3,5-9.6,9.2-15.6,12.2
			c-6,3-12.8,4.7-19.7,4.8c-6.9,0-13.7-1.5-19.8-4.5C150.7,220.7,145.3,216.6,141.4,211.2z"/>
		<path fill="#8C998E" d="M149.6,162.2c0,10.9-8.9,19.7-19.9,19.7c-11,0-19.9-8.8-19.9-19.7c0-10.9,8.9-19.7,19.9-19.7
			C140.6,142.4,149.6,151.3,149.6,162.2z"/>
		<path fill="#2A1D01" d="M144.4,162.2c0,7.6-6.2,13.8-13.8,13.8c-7.6,0-13.8-6.2-13.8-13.8c0-7.6,6.2-13.8,13.8-13.8
			C138.3,148.4,144.4,154.6,144.4,162.2z"/>
		<path fill="#FFFFFF" d="M124.9,155c0,2.2-1.8,4-4,4c-2.2,0-4-1.8-4-4s1.8-4,4-4C123.1,151.1,124.9,152.8,124.9,155z"/>
		<path fill="#8C998E" d="M203,162.2c0,10.9,8.9,19.7,19.9,19.7c11,0,19.9-8.8,19.9-19.7c0-10.9-8.9-19.7-19.9-19.7
			C211.9,142.4,203,151.3,203,162.2z"/>
		<path fill="#2A1D01" d="M208.1,162.2c0,7.6,6.2,13.8,13.8,13.8c7.6,0,13.8-6.2,13.8-13.8c0-7.6-6.2-13.8-13.8-13.8
			C214.3,148.4,208.1,154.6,208.1,162.2z"/>
		<path fill="#FFFFFF" d="M208.9,155c0,2.2,1.8,4,4,4c2.2,0,4-1.8,4-4s-1.8-4-4-4C210.7,151.1,208.9,152.8,208.9,155z"/>
		<path d="M47.9,404.9c0,0.1-0.1,0.1-0.1,0.1S47.8,405,47.9,404.9z"/>
		<path d="M306.3,404.9c0,0.1,0.1,0.1,0.1,0.1S306.3,405,306.3,404.9z"/>
		<path fill="#516182" d="M282,325c-4.3-2.2-60.8-32.5-60.8-32.5l-45.4,54l-46.6-54c0,0-46,29.4-50.3,31.5c-3.2,1.6,15.5,107.7,18,143
			h160c2.5-35.3,6-54,6-54l21,54h50C312.3,414.7,285.2,326.6,282,325z"/>
		<g>
			<circle fill="#3A475E" cx="185.3" cy="368.4" r="3"/>
			<circle fill="#3A475E" cx="185.3" cy="385.9" r="3"/>
			<circle fill="#3A475E" cx="185.3" cy="403.5" r="3"/>
			<circle fill="#3A475E" cx="185.3" cy="421.1" r="3"/>
			<circle fill="#3A475E" cx="185.3" cy="438.7" r="3"/>
			<circle fill="#3A475E" cx="185.3" cy="456.3" r="3"/>
		</g>
		<g>
			<g>
				
					<rect x="174.6" y="346.5" transform="matrix(1 -2.589430e-03 2.589430e-03 1 -1.0533 0.4564)" fill="#3A475E" width="2.2" height="120.9"/>
			</g>
			<g>
				<g>
					<path fill="#3A475E" d="M196.1,377.3l-20.6-29.8L155,377.3l-0.4-0.7c-37.2-62.5-36.8-79-36.8-79.7l1.1,0c0,0.2-0.2,17,36.2,78.3
						l20.5-29.7l20.5,29.6c4.2-7.3,37.7-66.2,36.2-78.3l1.1-0.1c1.7,13.2-35.2,77-36.8,79.7L196.1,377.3z"/>
				</g>
			</g>
		</g>
		<path fill="#262C3F" d="M155.9,466.8c-10.2-156.9-18-181.7-31.3-172.8C102.7,308.6,63.4,319,63.4,319L12,466.8h57.8l19.6-45.9
			l4.4,45.9H155.9z"/>
		<path fill="#1F2435" d="M89.1,422.7c-0.6-9.3-1.3-18.5-2.3-27.7c-1-9.2-2.2-18.4-3.8-27.4c-0.8-4.5-1.7-9-2.8-13.4
			c-1.1-4.4-2.2-8.8-3.4-13.1c-0.6-2.2-1.3-4.3-2-6.4c-0.7-2.1-1.6-4.1-2.5-6.1c-1.9-3.9-4.2-7.5-7.9-9.5l0.1-0.5
			c2.1,0.3,4.1,1.3,5.8,2.8c1.7,1.5,3.2,3.3,4.5,5.3c2.6,3.9,4.4,8.3,6,12.7c3.1,8.9,4.3,18.3,5.6,27.6c1.2,9.3,2,18.6,2.5,27.9
			c0.5,9.3,0.7,18.6,0.6,27.9L89.1,422.7z"/>
		<path fill="#262C3F" d="M197.3,466.8c10.2-156.9,16.7-181.7,30-172.8c21.9,14.7,61.1,25.1,61.1,25.1L339,466.8h-54.5l-21.8-45.9
			l-3.3,45.9H197.3z"/>
		<path fill="#1F2435" d="M262.9,421.5c0.6-9.1,1.3-18.2,2.3-27.2c1-9,2.2-18.1,3.7-27c0.8-4.4,1.7-8.9,2.8-13.2
			c1.1-4.3,2.2-8.7,3.4-12.9c0.6-2.1,1.3-4.2,2-6.3c0.7-2.1,1.6-4,2.5-6c1.9-3.8,4.3-7.4,8-9.3l-0.1-0.5c-2.1,0.3-4.1,1.3-5.9,2.8
			c-1.7,1.5-3.3,3.2-4.6,5.1c-2.6,3.8-4.5,8.1-6.1,12.5c-3.1,8.8-4.4,18-5.6,27.1c-1.2,9.1-2,18.2-2.5,27.4
			c-0.4,9.1-0.7,18.3-0.6,27.4L262.9,421.5z"/>
		<path fill="#1F2435" d="M69.8,466.8l19.6-45.9c0,0-13.1,18.7-16.4,24.1s-9.8,21.8-9.8,21.8H69.8z"/>
		<path fill="#1F2435" d="M282.3,466.8l-19.6-45.9c0,0,13.1,18.7,16.4,24.1c3.3,5.5,9.8,21.8,9.8,21.8H282.3z"/>
		<path fill="#1F2435" d="M197,467c9.7-154.9,16-178.4,28.3-174.4l16.4,9.8l8.2,19.8l-15,15l8,17l-36,114l0.5-3.6l-0.5,2.4H197z"/>
		<path fill="#1F2435" d="M155.9,466.8c-9.7-154.9-16-178.4-28.3-174.4l-16.4,9.8L103,322l15,15l-8,17l36,114l-0.5-3.6l0.5,2.4H155.9z
			"/>
		<path fill="#5B6E8E" d="M216.6,279.6c-1.1,13-41,67-41,67l20.5,29.7c0,0,36.7-62.1,36.7-79.4L216.6,279.6z"/>
		<g>
			<path fill="#5B6E8E" d="M134.5,279.6c1.1,13,41,67,41,67L155,376.3c0,0-36.7-62.1-36.7-79.4L134.5,279.6z"/>
		</g>
		<path fill="#EDE6DF" d="M74.9,99.3C77.2,93.6,81.4,80.1,90,75c1.7-2.4,53-10,53-10c8.3-10.3,135.6,28.4,131.4,29.3
			c3.3,0.4,5.8,6.4-0.4,10.9c1,30.8-8.1,62.9-8.1,62.9l-1.5-58.3c-0.8,0.2-88.6-22-94.4-35.8c-5.8-13.8-13.5-1.4-21.8,0.3
			c-8.3,1.7-17.4,0.9-17.4,0.9S114.4,81.4,110,76c1.3,2,7.5,13.9-3.3,21.6c-2.8,2-5,3.9-6.8,5.8c-0.5,0.5-0.9,1-1.3,1.4
			c-0.1,1.8-0.3,3.5-0.5,4.8c-1.1,5.7-5,28.1-6.1,30.4c-1.1,2.3-3.3,29.8-3.3,29.8s-13.3-26.4-13.8-63.6c0,0-3.9,1.1-8.9,0.6
			C66.1,106.7,72.1,106.2,74.9,99.3z"/>
		<g>
			<path fill="#C6BDB5" d="M265,80.6c-0.3-0.2-2.4-2.9-5.5-6.9c-3.8-4.9-5.1-10.7-1.3-5.6c6.6,8.8,10.9,13.6,13.8,14.5
				c9.9,3.2,12.1-3.5,12.8-5.7c-5,2.1-7.5,3-11.4,0c-18.7-14.5-21.6-29.3-49.8-44.4c7.4-1.6,18.6,9.8,18.6,9.8s-6.4-17.7-27.9-14.4
				c-0.9-0.4-4.6-3-10.5-5.7c15.6-9.2,3.2-17,3.2-17s7.3,9.7-12.1,10.5c-15.4-5-30.5-12.1-68.7,9.2c-41.8,3.2-32.8,24.6-28.7,32.3
				c-0.5-0.1-10,2.6-18.3,15.1c-1.4,2.1-4,14.4-2.4,21C77.4,95.3,126,72.7,164,70C217.8,66.2,266.2,81.4,265,80.6z"/>
			<path fill="#C6BDB5" d="M278.8,102h0.7c0-0.3-0.1-0.6-0.1-0.9C279.4,101.2,279.2,101.6,278.8,102z"/>
		</g>
		<path fill="#A29E9B" d="M271.6,84.2c9.9,3.2,12.1-3.5,12.8-5.7c-1.3,2.3-8.9,6.3-14,3.3c-4.1-2.5-8.4-7.4-12.5-11.9
			C264.5,78.5,268.7,83.3,271.6,84.2z"/>
		<path fill="#A29E9B" d="M219.1,57.1c-8.1-0.4-15.7,0.6-20.8,4.2c-0.7,0.2,8.1-1.8,20.1-1.6c4.4,0.1,23.5,3.2,32.9,8.9
			c2.6,1.6,4.9,3.4,6.8,5.2c-1.8-2.7-2.8-5.4-2.5-6.1C250.5,63.7,234.1,57.9,219.1,57.1z"/>
		<path fill="#A29E9B" d="M188.4,54.8C188.4,54.8,188.4,54.7,188.4,54.8C188.5,54.7,188.4,54.7,188.4,54.8z"/>
		<path fill="#A29E9B" d="M203.3,23.9c0,0-8.1-0.4-14.2,0.7c-6,1.1-18.8,7.1-18.8,7.1c20.9-5.3,37.6-5.3,37.6-5.3L203.3,23.9z"/>
		<path fill="#C6BDB5" d="M276.1,89.1c2.4-1.5,5.8-4.6,9.9-11.4c0,0-9.4,5.7-16.6-1.7c-6.6-6.8-10.4-23.2-32.5-25.1
			c-0.2-0.1-0.3-0.1-0.5-0.2c-2.4-0.9-6.2-3.2-9.6-9.1c-5.5-9.7-21.3-25.2-50.2-17.2c0,0,3.3-5.2,11.5-4.6c0,0-8.9-4.6-21.6,2.3
			C153.7,29,139.3,31,139.3,31s-18.2,1.8-23.8,4.6c-10.4,5.2-7.1,15-14.9,24.1c-7.9,9-10,3.9-18.3,14.2c0,0,4.5-2.5,10.2-1.6
			c-3,2.4-5.5,4.8-7.2,7.2c-6.7,3.9-9.1,13.9-10.9,20.8l9.8-7.8c0.6,2.1,1.1,5.3,0,7.4c2.3-2.7,6.7-8.1,5.7-9.6
			c-0.5-0.7-0.1-1.8,0.5-2.8l3.5-2.8c0.1,0,0.2-0.1,0.2-0.1c-0.1,0.1-0.2,0.1-0.2,0.1S91.5,99,94,96.2c0,0-0.4,0.8,5.8-3.6
			c3.7-2.6,4.8-6.1,5-8.5c3.5,1.7,6.3,4.9,8.2,7.8c0-1.8-0.6-3.2-1.1-4c4.3,5.4,12.8,6.2,12.8,6.2l-4.2-10.3
			c5.8,6.9,19.1,4.3,19.1,4.3c-5-0.9-10.8-6.9-10.8-6.9s9.1,0.9,17.4-0.9c8.3-1.7,10.8-4.3,16.6,9.5c5.8,13.8,43.2,18.9,43.2,18.9
			c6.6,13.8,23.2,13.8,23.2,13.8c-9.1,0-12.5-14.6-12.5-14.6c12.5,14.6,34.9,11.2,34.9,11.2s0.4-0.9,0.9-2.2l1.3,1
			c2-0.3,4-0.9,5.9-1.7c0.1,0,0.2,0,0.2,0c0.7-0.1,1.4-0.2,2-0.3c3.9-2,8.8-4.5,10-4.7c6.2-4.5,10.1-10.5,10.1-10.5
			c-2.8,0.2-6.4,0-9.7-0.4c4.2-0.9,9.4-2.4,13.1-5.3C285.5,94.9,280.6,93.4,276.1,89.1z"/>
		<g>
			<path fill="#D1CAC5" d="M99.7,75.5c-4-0.5-15.8,11.6-14.9,6.1c0.9-5.4,13.7-8.3,13.7-10.9c0-2.6-7.1-7.1-7.1-7.1
				C80,69.4,76.8,78.3,76.4,85.6c-0.1,2.5,1.5,7.1,3.7,7.8c2.2,0.8,4.9-2.3,6.7-3.6c7.1-5.3,16.7-6.4,17.2-6.9
				C104.7,82.2,103.7,76,99.7,75.5z"/>
			<path fill="#D1CAC5" d="M167.6,20.9c5.5-3.5,4.2-4.7,2.4-3.3c-3.8,2.8-27.4,10.4-33.3,10.4c-5.9,0-21.3,1.2-25.8,2.4
				c-4.5,1.2-12.3,4.5-14.9,9.5c-2.6,5,0.5,12.8,2.1,15.6c0.6,1.1-2.4-17,12.1-19.4c-10.4,9.9-8,20-6.6,22.7
				c1.9,3.7,4.7,5.4,4.7,5.4c-2.8-6.9,1.4-17.3,5.9-21c4.5-3.8,26.7-8.5,31.7-10.9C148.4,31,161.6,24.7,167.6,20.9z"/>
			<path fill="#D1CAC5" d="M155,51.9c4.3-2.4,17.3-6.6,20.8-8s20.8-2.8,22.2-2.8s10.4,5.2,14.2,5.9c3.8,0.7,14.1,0.9,14.1,0.9
				s-16.6-4.9-23.3-8.8c-6.7-3.9-30,2.4-30,2.4s5.1-4.8,9.6-6c4.5-1.2,20.3-0.7,23.4-0.7c3.1,0,11.6-0.7,13.7-1.4s9.7-2.1,12.3,0.5
				c0.2-5.2-14.9-4.7-19.2-3.3c-4.3,1.4-25.3-0.7-32.4,0.7s-18.2,5.2-18.2,5.2s4-5.9,7.8-7.6c3.8-1.7,22.2-6.9,25.5-6.6
				c3.3,0.2-7.1-3.1-15.1-0.7c-8,2.4-19.6,5.9-26,12.3c-6.4,6.4-26.5,10.6-30.3,12.3c-3.8,1.7-9.9,12.8-5.9,18.2
				c1.3,1.8,4.7-6.4,7.8-9.7c3.1-3.3,9.2-7.8,15.1-10.2c5.9-2.4,14.9-6.4,14.9-6.4s-19.4,14.2-22.7,18.4c-3.3,4.3-4,9.7-2.1,8.8
				c1.9-0.9,15.4-13.7,15.4-13.7s-8.8,13-10.4,17c-1.7,4-3.3,10.9-1.7,11.1c1.7,0.2,5.2-10.6,6.1-12.5
				C141.8,65.1,150.8,54.3,155,51.9z"/>
			<path fill="#D1CAC5" d="M259.1,65.1c-8.8-9.9-19.9-13.2-22.2-13.7c-2.4-0.5,0.7-2.1,4.7-1.2c4,0.9,6.1,2.4,6.1,2.4
				s-7.6-6.4-11.1-7.6c-3.5-1.2-11.1-1.4-11.1-1.4s4.3,4.5,6.4,4.7c2.1,0.2-4.3,2.6-5.9,3.1c-1.7,0.5-13.5,3.8-13.5,3.8
				s14-0.5,23.9,2.1c9.9,2.6,17.7,6.6,22,10.4c4.3,3.8,10.2,10.9,12.8,11.8c2.6,0.9,5,0.5,5,0.5S267.9,75.1,259.1,65.1z"/>
			<path fill="#D1CAC5" d="M210.1,62.3c1.9,0.2,7.8,0.9,7.8,0.9s-6.4-4-14.2-2.4c-7.8,1.7-16.3,6.6-16.3,6.6s4.7-6.4,9-8.8
				c4.3-2.4,13.7-3.5,13.7-3.5s-14.7,0.2-18.4,1.2c-3.8,0.9-12.8,4.5-18,8.5c-5.2,4-13.7,13.2-10.4,16.8c1.6,1.7,10.6-4.5,12.8-4.5
				s-2.1,6.6,0,7.1c2.1,0.5,18.9-16.6,22-18.4C201.2,64,208.3,62.1,210.1,62.3z"/>
		</g>
		<path fill="#EDE6DF" d="M116.3,33.7c-3.3-2.1-14.4-1.4-19.4,7.3c-0.7,1.2,0.2,3.1,3.1-1.4c1.4-2.2,9.8-5.5,11.1-3.5
			c1.3,2-4.5,9.2-4.5,9.2c0.1,1.1,2.9-1.7,6.9-4C116.4,39.5,119.6,35.8,116.3,33.7z"/>
		<path fill="#C99379" d="M145.6,40.6c0.3-0.1,0.5-0.2,0.7-0.3C146.6,40.1,146.3,40.3,145.6,40.6z"/>
		<path fill="#EDE6DF" d="M190,41.5c0,0-11.6,0.2-19.6,2.1c-8,1.9-16.6,5.2-19.6,6.6c-3.1,1.4-10.4,10.2-5.9,8.3c0,0,0.3-0.3,0.8-0.7
			c1.9-1.6,6.5-5.6,8.2-6.9c2.1-1.7,15.4-6.4,23.9-7.8C186.3,41.7,190,41.5,190,41.5z"/>
		<path fill="#EDE6DF" d="M203.5,52.1c0,0-14.7-1.7-18.9-1.7c-4.3,0-16.1,4.5-21,7.8c-5,3.3-9.5,9-9.5,9c-1.4,4.5,3.8-1.9,9-6.1
			c5.2-4.3,13.5-6.4,18.7-7.8C187,51.9,203.5,52.1,203.5,52.1z"/>
		<path fill="#EDE6DF" d="M217,70.3c-2.8,0-6.6,0.7-9.5,1.4s-6.9,6.1-6.9,6.1c-0.7,2.4,4.3-1.7,7.3-4C211.1,71.5,219.8,70.3,217,70.3z
			"/>
		<path fill="#EDE6DF" d="M89.8,68.7c0,0-4.7,2.6-7.1,5.2c-2.4,2.6-4.5,8.8-4.7,13.5c2.8-6.9,3.8-9.2,7.1-11.8c3.3-2.6,8-4,8-4
			S93.8,68.2,89.8,68.7z"/>
		<path fill="#EDE6DF" d="M98.5,79.1c-3.5-1.2-11.6,6.4-11.6,6.4s6.6-1.7,9-2.6C98.3,81.9,102.1,80.3,98.5,79.1z"/>
		<g>
			<path fill="#ADA8A5" d="M273,84.2c9.9,3.2,12.1-3.5,12.8-5.7c-1.3,2.3-8.9,6.3-14,3.3c-4.1-2.5-8.4-7.4-12.5-11.9
				C265.9,78.5,270.1,83.3,273,84.2z"/>
			<path fill="#ADA8A5" d="M220.5,57.1c-8.1-0.4-15.7,0.6-20.8,4.2c-0.7,0.2,8.1-1.8,20.1-1.6c4.4,0.1,23.5,3.2,32.9,8.9
				c2.6,1.6,4.9,3.4,6.8,5.2c-1.8-2.7-2.8-5.4-2.5-6.1C252,63.7,235.5,57.9,220.5,57.1z"/>
			<path fill="#ADA8A5" d="M189.8,54.8C189.8,54.8,189.8,54.7,189.8,54.8C189.9,54.7,189.8,54.7,189.8,54.8z"/>
			<path fill="#ADA8A5" d="M202.8,36.8c-7.8-0.2-19.9-1.2-28.6,5c9-2.6,17.3-4,30-2.4c1.2,0.2,8.7,4.3,14.8,6.5
				c4.2,1.5,7.7,2.3,8.5,2.3c0.9,0-4.5-2.4-8.3-4.4c-3.2-1.7-5.1-4-4.4-4.1c8.6-0.5,15.5-2.4,15.5-2.4l-5.3-3.1
				C224.9,34.1,210.6,37,202.8,36.8z"/>
			<path fill="#ADA8A5" d="M130.6,24.6c-1.8,0.5-2.8,1.1-3.3,1.7c-0.2,0.3,13.5,0,19.6-0.6c10.6-1.1,21.6-8.9,21.6-8.9"/>
			<path fill="#ADA8A5" d="M204.8,23.9c0,0-8.1-0.4-14.2,0.7c-6,1.1-18.8,7.1-18.8,7.1c20.9-5.3,37.6-5.3,37.6-5.3L204.8,23.9z"/>
		</g>
		<g>
			<path fill="#EDE6DF" d="M207,87.5c0,0.1-0.1,0.2-0.1,0.2c0,0,0,0,0,0c0,0-0.1-0.1-0.2-0.1c-0.1,0,0,0,0,0
				c4.7-4.3,10.3-7.5,16.5-9.1c9.6-2.7,19.7-0.7,29.3,0.4c3.4,0.2,7.3,1.1,10.2-0.6c1.6-1.5,2.4-3.9,3.9-5.5c2.1-2.6,5-5.3,8.5-5.3
				c0.2,0,0.3,0.3,0.1,0.4c-2.9,1.2-4.7,3.9-6.2,6.5c-1.4,2.2-1.7,4.9-3.7,6.8c-0.8,0.7-1.8,1.3-2.7,1.6c-3.6,1.2-7,0.7-10.5,0.1
				c-6.3-1.3-12.5-2.8-18.9-3.1c-8.7-0.3-17.5,2.1-24.5,7.2c-0.3,0.2-1.3,1.1-1.8,1.1c-0.1,0-0.3-0.1-0.3-0.2c0-0.2,0.1-0.3,0.1-0.5
				C206.7,87.1,207.1,87.3,207,87.5L207,87.5z"/>
		</g>
		<g>
			<path fill="#EDE6DF" d="M226.8,84.7c6.1-2.4,12.7-3.1,19.1-3.8c4-0.6,12.2-0.5,13.6-5c0.9-3.8,2.4-7.9,5.5-10.6
				c0.9-0.7,2-1.3,3.2-1.5c0.2,0,0.3,0.3,0.2,0.4c-3.2,2.8-3.8,7-4.5,10.9c-0.2,1.3-0.3,2.5-1,3.7c-3.4,6.2-17,4.3-23.1,4.8
				c-4.3,0.1-8.5,0.5-12.7,1.5C226.8,85.1,226.6,84.8,226.8,84.7L226.8,84.7z"/>
		</g>
		<g>
			<path fill="#EDE6DF" d="M254.1,117.8c0.1-0.1,0.2-0.1,0.2-0.2c0,0,0,0.1,0,0.1c0.1,0.2,0.1,0.1,0,0.1c-0.2,0-0.4,0-0.6,0
				c-9.8,1.1-19.8-1.7-27.6-7.8c-6.7-5.1-11.6-12.1-17.8-17.5c-1.9-1.5-3.7-2.8-6-2c-2,0.8-3.9,1.7-6,2.2c-3.3,0.8-7.4,1.4-10.3-0.7
				c-0.2-0.1,0-0.4,0.2-0.3c4.8,1.2,9.4-1.6,13.4-3.8c3.9-2.6,8.1-1.2,11.3,1.6c6.3,5.7,10.3,13.3,16.8,18.7
				c6.7,5.9,15.7,9.3,24.7,9.3c0,0,1.3,0,1.3,0c0.2,0,0.4,0,0.7,0c0.1,0,0.1,0,0.3,0.2c0.1,0.1,0,0.3-0.1,0.4
				c-0.2,0.1-0.4,0.3-0.6,0.1C254,118,254.1,117.9,254.1,117.8L254.1,117.8z"/>
		</g>
		<path fill="#D1CAC5" d="M223.3,88.6c0,0,0.7,0.4,1.9,1c1.2,0.7,2.9,1.5,5,2.4c4.2,1.8,10,3.6,15.9,4.5c3,0.5,6,0.8,8.9,1.1
			c2.9,0.2,5.5,0.4,7.8,0.5c2.3,0.1,4.2,0.3,5.6,0.3c1.4,0.1,2.1,0.2,2.1,0.2s-3.1,0.7-7.7,1.2c-2.3,0.2-5.1,0.4-8,0.4
			c-2.9,0-6.1-0.3-9.2-0.8c-6.3-1-12.2-3.4-16.2-5.9C225.4,91,223.3,88.6,223.3,88.6z"/>
		<path fill="#ADA8A5" d="M283.9,94.3c0,0-2.5,0.9-6.4,1.7c-3.9,0.8-9.1,1.3-14.4,1.3c-5.3-0.1-10.5-0.6-14.4-1.7
			c-1.9-0.5-3.5-1.4-4.4-2c-1-0.7-1.5-1.1-1.5-1.1s2.4,1.2,6.2,1.5c1.9,0.2,4.1,0.2,6.5,0.3c2.4,0,5,0.1,7.5,0.1
			c5.1,0.1,10.3,0,14.2,0c2,0,3.6,0,4.7,0C283.3,94.3,283.9,94.3,283.9,94.3z"/>
		<path fill="#ADA8A5" d="M229.3,101.9c0,0,2.4-0.8,6.1-1.4c3.7-0.6,8.6-1,13.6-0.8c4.9,0.2,9.8,0.9,13.4,1.9c3.6,0.9,5.9,1.9,5.9,1.9
			s-0.6,0-1.7,0c-1.1,0-2.6-0.1-4.4-0.1c-3.6-0.2-8.5-0.4-13.3-0.6c-4.8-0.2-9.7-0.3-13.3-0.4c-1.8-0.1-3.4-0.1-4.4-0.2
			C229.9,102,229.3,101.9,229.3,101.9z"/>
		<path fill="#ADA8A5" d="M209.8,102.8c0,0-2.5-0.1-6.2-0.8c-3.7-0.7-8.4-2.1-13-4c-4.6-1.9-8.9-4.3-11.9-6.4c-3-2.1-4.9-3.8-4.9-3.8
			s0.6,0.2,1.6,0.6c1,0.4,2.4,1,4.1,1.7c3.3,1.4,7.8,3.3,12.3,5.2c4.5,1.8,9,3.7,12.3,5.1c1.7,0.7,3.1,1.3,4.1,1.7
			C209.3,102.5,209.8,102.8,209.8,102.8z"/>
	</g>
	<path d="M306.3,404.9c0,0.1,0.1,0.1,0.1,0.1S306.3,405,306.3,404.9z"/>
</g>
</svg>
