<?xml version="1.0" encoding="utf-8"?>
<!-- Generator: Adobe Illustrator 27.1.0, SVG Export Plug-In . SVG Version: 6.00 Build 0)  -->
<svg version="1.1" id="Laag_1" xmlns="http://www.w3.org/2000/svg" xmlns:xlink="http://www.w3.org/1999/xlink" x="0px" y="0px"
	 viewBox="0 0 351 467" style="enable-background:new 0 0 351 467;" xml:space="preserve">
	 	 <title>Avatar van Robbert</title>
<style type="text/css">
	.st1{fill:#205E20;}
	.st2{fill:#E2C1B5;}
	.st3{fill:#007BC7;}
	.st4{fill:#F2DDCB;}
	.st5{fill:#A1A7A8;}
	.st6{fill:#2A1D01;}
	.st7{fill:#FFFFFF;}
	.st8{fill:#A38276;}
	.st9{fill:#0084C6;}
	.st10{fill:#18689E;}
	.st11{fill:#594432;}
	.st12{fill:#493627;}
	.st13{fill:#38291E;}
	.st14{fill:#705A4A;}
	.st15{fill:#30231A;}
</style>

		
<path fill="#080051" d="M1142.9,1807.9C1142.9,1808,1142.8,1808,1142.9,1807.9C1142.8,1808,1142.8,1808,1142.9,1807.9z"/>
<path fill="#205E20" d="M-68.6,1865.9C-68.6,1866-68.5,1866-68.6,1865.9C-68.5,1866-68.5,1866-68.6,1865.9z"/>
<path d="M-52.7,892.9C-52.7,893-52.6,893-52.7,892.9C-52.6,893-52.7,893-52.7,892.9z"/>
<path d="M-56.7,1378.9C-56.7,1379-56.6,1379-56.7,1378.9C-56.6,1379-56.7,1379-56.7,1378.9z"/>
<path d="M-56.7,2352.9c0,0.1,0.1,0.1,0.1,0.1S-56.7,2353-56.7,2352.9z"/>
<path fill="#E2C1B5" d="M-665,2902l17.8-51.4c0,0,9.2,15.1,16.5,51.4h126.4c7.3-36.3,16.5-51.4,16.5-51.4l17.8,51.4h38.8l-47.7-124.9
	c0,0-1.6-3.3-24.5-10.9s-36.3-16-36.3-32.3c0-16.2,0-42.8,0-42.8h-27.5h-0.2h-0.2h-0.2h-27.5v42.8c0,16.3-13.4,24.7-36.3,32.3
	s-24.5,10.9-24.5,10.9l-47.7,124.9H-665z"/>
<path fill="#007BC7" d="M-658.9,2902l14.5-39.2l0.3,1.2l5,38H-490l5-38l0.3-1.2l14.5,39.2h53.4l-46.4-129.8l-62.4-24.7l-39,53.1
	l-39-53.1l-62.3,24.7l-46.4,129.8H-658.9z"/>
<path fill="#F2DDCB" d="M-462.6,2577.7c0,79.3-35.2,134.2-103.6,134.2c-68.3,0-106.3-55.6-106.3-134.9s39.1-117.3,107.4-117.3
	C-496.7,2459.6-462.6,2498.4-462.6,2577.7L-462.6,2577.7z"/>
<path fill="#A1A7A8" d="M-594.3,2614.6c0,10.9-8.9,19.7-19.9,19.7s-19.9-8.8-19.9-19.7s8.9-19.7,19.9-19.7S-594.3,2603.7-594.3,2614.6z
	"/>
<path fill="#2A1D01" d="M-599.4,2614.6c0,7.6-6.2,13.8-13.8,13.8s-13.8-6.2-13.8-13.8s6.2-13.8,13.8-13.8S-599.4,2607-599.4,2614.6z"/>
<path fill="#FFFFFF" d="M-619,2607.5c0,2.2-1.8,4-4,4s-4-1.8-4-4s1.8-4,4-4C-620.7,2603.5-619,2605.3-619,2607.5z"/>
<path fill="#A38276" d="M-606.9,2664.1c12.1,7.3,25.1,11.9,38.2,11.7c13.2,0,25.9-5.1,38.5-11.7c-4.6,5.5-10.4,10-17,13.2
	c-6.6,3.3-14,5.1-21.5,5.2c-7.5,0-15-1.7-21.5-4.9S-602.7,2669.9-606.9,2664.1z"/>
<path fill="#A1A7A8" d="M-540.8,2614.6c0,10.9,8.9,19.7,19.9,19.7s19.9-8.8,19.9-19.7s-8.9-19.7-19.9-19.7S-540.8,2603.7-540.8,2614.6z

	"/>
	
<path fill="#2A1D01" d="M-535.7,2614.6c0,7.6,6.2,13.8,13.8,13.8s13.8-6.2,13.8-13.8s-6.2-13.8-13.8-13.8
	C-529.6,2600.8-535.7,2607-535.7,2614.6z"/>
<path fill="#FFFFFF" d="M-534.9,2607.5c0,2.2,1.8,4,4,4s4-1.8,4-4s-1.8-4-4-4C-533.2,2603.5-534.9,2605.3-534.9,2607.5z"/>
<path fill="#0084C6" d="M-624.5,2755.8l-41.2,16.3c4.4,1.2,7,6.4,7,6.4l2.8,6.5l41.5-16.1L-624.5,2755.8z"/>
<path fill="#18689E" d="M-564.6,2831.8l-60.2-75.3l0.8-0.7l59.4,74.4l60.8-74.2l0.8,0.7L-564.6,2831.8z"/>
<path fill="#594432" d="M-473.2,2535.9l-3.8,1.2c7.1,18,6.6,80.6-18.7,127.2c-3.7,7.6-10.1,14.5-17.1,20.3c-4.1-5.7-5-16.5-11.6-22.1
	c-11.3-9.4-38.7-13.7-38.7-13.7s0.5,11.3,4.6,11.9s19.5,6,23.8,9.8c5.3,4.7,3.3,19.6,3.3,24.3c0,0.6-0.1,1.2-0.2,1.8
	c-9,4.3-16.3,5.7-17.4,3c-0.6-1.5-2.4-7.8-5.5-9.4c-1-0.5-5.3-0.9-7-0.9c-1,0-1.8,0.1-2.6,0.4c-0.8-0.2-1.6-0.4-2.6-0.4
	c-1.6,0-5.9,0.3-7,0.9c-3.1,1.6-5,8-5.5,9.4c-1.2,3.3-11,0.8-22.1-5.4c-0.1-5.3-1.7-19.1,3.3-23.6c4.2-3.8,19.7-9.2,23.8-9.8
	s4.6-11.9,4.6-11.9s-27.4,4.3-38.7,13.7c-5.7,4.8-7.2,13.5-10.1,19.5c-5.8-5.2-10.9-11.2-14.1-17.7
	c-25.3-46.6-24.3-108.5-17.2-126.5l-6-3c0,0-30.8,33.7-26.3,71.5c3.5,29.9,8,72.3,22.5,103.7c1.5,3.2,3.7,5,5.4,8
	c2.7,4.6,5.1,10.3,8.4,14.2c17.2,20.2,30.1,28.4,40.6,31.4c9.3,6.7,11.8,19.7,41.1,19.7s31.8-13,41.1-19.7
	c10.4-3,23.4-11.2,40.6-31.4c25.9-30.3,21.8-88,26.2-125.8C-451.8,2568.5-473.2,2535.9-473.2,2535.9L-473.2,2535.9z"/>
<path fill="#493627" d="M-456.9,2608.2l-14.9-16.3c-2.2,11.5-5.2,23.6-9,35.2v0.1c-2.5,9-6.7,19-9.7,25.5c-0.8,1.9-1.7,3.7-2.6,5.5
	c-0.4,0.8-0.6,1.3-0.6,1.3s0.4,18.9,9.9,30.3c0,0-6.9-13-6.9-20.9s5-12.2,5-12.2s0.4,9.3,5.3,17.3c4.8,8,13.2,27.2,8.6,39.5
	C-458.5,2682.5-460.3,2639.1-456.9,2608.2L-456.9,2608.2z"/>
<path fill="#594432" d="M-513.3,2506.4c0,0,18.6,4.8,22.8,23.4c2.8,12.2,2.4,51.3,12.1,83.7c5.1,17.1,18.8,34.4,18.8,34.4
	s-1.2,4.1-3,30.7c0,0,25.8-3.1,19.9-33.9c0,0,9.8-11,8.8-31.7c-1.4-29.2-18-42.9-22.3-59.1c-10.6-40-11.7-68.1-25.4-72.6
	c-18.3-6.1-19.3,0.1-19.3,0.1L-513.3,2506.4z"/>
<path fill="#493627" d="M-451.6,2699.9c-0.6-5,3.8-8.7,6.5-12.2c10.7-12.4,5.6-25-3.5-36.5c-6.1-7.2-10.5-15.7-14.4-24.2
	c-3.9-8.6-7.1-17.4-9.5-26.5l0.3-0.1c4,13.4,9.8,26.3,17,38.3l1.8,3c1.8,3,4.2,5.4,6.5,8.2c4.5,5.4,9.3,11.5,10.4,18.8
	c1.1,7.4-2.2,14.8-7.3,20c-3,3.4-7.4,6.2-7.5,11.2H-451.6z"/>
<path fill="#493627" d="M-459.2,2559.1c5.4,17,13.5,21.5,13.5,21.5s9.1,17.7,9.8,29.6c0.8,11.9-4.2,23.5-4.2,23.5s-0.2-2.1-2.8-7.1
	c-4.8-9.2-13.6-9.1-21.2-23.8s-14.5-46.8-14.5-46.8c8.1,55.9,15.1,57.6,25.1,70.1c10.9,13.6,11.4,22.7,11.4,22.7
	s10.5-10.4,10.8-31.1c0.2-14.6-7.1-28.6-13.8-41c-1.6-0.6-3.2-1.7-4.3-2.7C-455.9,2568.6-459.2,2559.1-459.2,2559.1z"/>
<path fill="#38291E" d="M-462.1,2671.5c0,0,7-2.8,8.1-8.4s-1.6-9-5.6-15.1L-462.1,2671.5z"/>
<path fill="#705A4A" d="M-466.2,2537.1c0,0-1.8-28.1-9.8-37.9c-8-9.9-15.6-8.7-15.6-8.7s8.7-3.2,16.8,4.2c-2.7-4.3-5.8-7.1-9.7-8.4
	c-3.7-1.2-6.8-1.9-9.5-2.2c-3.4,1-6.9,2.1-8.2,3c-3,2-4.5,6.4-4.5,6.4s2.8-3,7.2-3.2c4.3-0.3,4.3-0.3,4.3-0.3s-8.7,3.2-10.8,4.9
	c-2.1,1.8-4.9,10.4-4.9,10.4s2.4-3.6,4.6-4.8c0,0,5.4-3.9,14.3-3.7s14.6,4.8,18,11.7C-470.5,2515.4-466.2,2537.1-466.2,2537.1
	L-466.2,2537.1z"/>
<path fill="#705A4A" d="M-475.2,2526.7c2.8,12.6,5.8,25,8.7,37.5c2.3,10.2,3.7,21.1,9.8,29.8c3.7,5.2,7.9,10.2,11.2,15.7
	c2.3,3.7,4.2,7.6,6,11.5l-2.5,0.4c0.3-2.2,0.6-4.5,0.8-6.7c0.4-6.7,1-13.7-1.4-20.1l0.3-0.1c1.2,2,1.9,4.3,2.4,6.5
	c1.7,8.2,1.1,16.7,0.2,25c-2.7-5-5.4-10.2-8.4-14.9c-4.4-7.4-10.4-13.8-13.9-21.7c-3.5-8-4.5-16.7-6.1-25.1
	c-2.5-12.6-5-25.2-7.3-37.8C-475.5,2526.8-475.2,2526.7-475.2,2526.7L-475.2,2526.7z"/>
<path fill="#594432" d="M-507.8,2507.5c0,0-40.6-5.6-65.8-5.6s-40-0.2-51.5,10.1c-11.9,10.6-22.9,46.3-25,65.7
	c-3.5,32.1-7.5,136.6-7.5,136.6s-35.4,0-41.9-44c-3.2-21.8,11.3-47.4,12.1-83.6s-15.7-29.7,19.9-102.2c8-16.3,59.6-76,95.7-30.6
	c4,0.4,24.9-7.6,53.5,4.5c22.7,9.6,19.5,21.4,19.5,21.4L-507.8,2507.5z"/>
<path fill="#594432" d="M-682.9,2557c3.4,10.9-4.1,31.3-10.2,49c-6.1,17.8-25.3,43.5-25.8,62.7c-0.4,19.2,3.9,26.2,3.9,26.2
	s-6.1-27,3.5-41c0,0-6.5,18.8,2.6,37.1c9.2,18.3,23.1,29.2,17.5,39.7c-5.7,10.5-10.9,10.5-10.9,10.5s9.2,1.7,14-7s4.8-18.5,1.7-24.3
	s-11.3-18.9-7.9-30.3c3.5-11.3,14.4-6.4,14.4-6.4l2.3,34.9c0,0-3.2,7.3,7.7,18.2c0,0-4.8-6.2-2.4-16.5s9.1-98.5,9.1-98.5
	L-682.9,2557z"/>
<path fill="#705A4A" d="M-666.8,2524.2c0,0-7.6,45-32,83.3c-12,18.8-18.1,31.9-15,41.7c0,0,3.7-6.6,12.4-25
	C-691.4,2602.9-671.9,2587.8-666.8,2524.2z"/>
<path fill="#705A4A" d="M-670,2496.9c14.6-23.4,39.8-54.3,69.2-56.6c6.6-0.5,12.9,2.5,17.3,7.3c4.4,4.5,7.9,9.8,10.7,15.3
	c2.9,5.6,5.1,11.3,6.8,17.4c0.3,1-0.3,2-1.3,2.3s-2-0.3-2.3-1.3c-4-12-13.3-22.8-25.6-26.7c-4-1.3-8.2-1.9-12.1-0.9
	c-8.5,2.1-13.2,10.8-18.7,17.1c-5.9,6.8-13.1,13.3-22,15.4l-0.1-0.4c8.4-3,14.8-9.7,20.2-16.6c5.5-7.3,10.2-16.4,19.7-19.1
	c4.8-1.4,9.9-0.8,14.3,0.6c9.1,2.7,16.8,9,21.9,16.9c2.6,4,4.6,8.1,6,12.7l-3.6,0.9c-1.4-5.7-3.5-11.4-6.2-16.8
	c-2.6-5.4-5.9-10.4-9.9-14.8c-8.1-9.7-19.7-7.3-30.2-3.3c-17.6,7.3-31.3,21.4-43.2,35.9c-3.8,4.8-7.4,9.7-10.7,14.8L-670,2496.9z"/>
<path fill="#705A4A" d="M-580.5,2497.6c-2.6-10.9-9.2-31.1-23.1-30.2c-4.7,0.4-8.8,3.1-12.3,6c1.8-1.6,3.5-3.1,5.6-4.3
	c12.7-7.9,22.6,3.5,27.7,14.4c2.1,4.3,3.8,8.7,5.1,13.4c0.2,0.8-0.2,1.6-1,1.8C-579.5,2499-580.4,2498.5-580.5,2497.6L-580.5,2497.6
	z"/>
<path fill="#493627" d="M-636.8,2656c-6.6-16.7-12.4-33.5-15.3-54c0.7-9.8,1.3-18.3,2-24.3c2.1-19.4,13.1-55.1,25-65.7
	c7.5-6.7,16.3-8.9,28.5-9.7c-12.8-17.7-26.9-14.1-33.4,1.5s-23.8,79.2-31.2,93c-7.4,13.9-29.9,38.1-35.2,54.7
	c-4,12.7-1.2,23.2,1,34.5c1.8,6.3,7.8,13.2,9.4,15c-2.4-11.5-4.8-27.3-2.5-37c3.9-16.6,30.8-32.6,30.8-32.6l4.8,13.1
	c0,0-9.4,15.5-10.4,32.8c0,0,2.6-20,14.3-28.2l4.2,10.8c0,0-11.3,17.9-11.8,31.1c-0.3,6.9-0.9,15.8-1,23.3c0.1,0.1,0.9,1.3,2.3,1.6
	c0.5-10.5,1.8-24.7,3.7-29.8C-646,2670-636.7,2656.2-636.8,2656L-636.8,2656z"/>
<path fill="#493627" d="M-518.3,2458.4c-2.6-1.1-5.2-2.1-7.7-2.9c0.2,0.1,13.6,7.5,17.8,14.4s4.1,13.5,2.6,19.4s-9.4,15.3-9.4,15.3
	s-34.1-4.4-37.5-8.6c-4-5.1-6.4-14.4-6.4-14.4l4.8,21c22.5,1.5,40.6,6.7,43.7,5.1c7.7-4.1,11.6-26.9,11.6-26.9
	C-498,2476.2-498.3,2466.9-518.3,2458.4L-518.3,2458.4z"/>
<path fill="#493627" d="M-566,2457.5c-0.5-1.5-1.1-2.9-1.6-4.1c-1.9,0.3-3.3,0.6-4.1,0.5c0,0,9.2,16.9,12.2,24.8
	C-559.5,2478.7-563.6,2464.3-566,2457.5L-566,2457.5z"/>
<path fill="#493627" d="M-535.2,2454.9c6.7,2.9,13.4,7.4,16.6,14.2c1,2.3,1.6,4.8,2,7.3c1.1,7.4,0.9,15-0.5,22.3
	c-0.6,2.6-1.1,5.1-2.6,7.4l-2.4-1.7c2.4-3.9,3.1-8.8,3.7-13.3c0.7-7.1,1-14.6-1.4-21.4C-522.6,2462.9-528.8,2458.2-535.2,2454.9
	L-535.2,2454.9z"/>
<path fill="#493627" d="M-531.3,2690c-0.1,2-0.2,3.7-0.2,4.8c0,0.6-0.1,1.2-0.2,1.8c-9,4.3-16.3,5.7-17.4,3c-0.6-1.5-2.4-7.8-5.5-9.4
	c-1-0.5-5.3-0.9-7-0.9c-1,0-1.8,0.1-2.6,0.4c-0.8-0.2-1.6-0.4-2.6-0.4c-1.6,0-5.9,0.3-7,0.9c-3.1,1.6-5,8-5.5,9.4
	c-1.2,3.3-11,0.8-22.1-5.4c0-1.1-0.1-2.5-0.2-4.2c-0.4,1.2-0.7,2.5-0.7,3.8c0,4,3.7,5.7,2.3,8.5s-2.3,4.6-1.1,9.2s0.2,5,0.4,12.5
	s8.4,10.7,8.4,10.7s-0.7,4.3,1.5,7.8s2.4,11.3,2.4,11.3s1.7-2.8,1.7-10.8s0-9.4,0.4-14.6s3.9-7.5,3.9-7.5s-3,5.4-1.5,12
	s16.4,13.3,16.4,13.3l21.4-2.4c0,0,5.4-8.7,5.2-18c0,0,0.2,8,0,13.9c0,0,6.5-4.3,6.3-24.4c0-0.1,0-0.2,0-0.3c1.6,1.2,4.7,4.4,4.6,10
	c0,0,0.7-8.6,0-16.5C-530.8,2700.7-531.3,2690-531.3,2690L-531.3,2690z"/>
<path fill="#493627" d="M-483.1,2515.8c-0.3-11.3-6-15.8-14.1-14.5c-5.6,0.9-11,4.8-13.5,6.7c5.8,3.9,17.4,9.1,20.3,21.9
	c2,8.9,2.4,32.2,6.2,56.7C-486.9,2565.4-482.9,2526.2-483.1,2515.8L-483.1,2515.8z"/>
<path fill="#493627" d="M-483.4,2592c0,0.2,0.1,0.5,0.1,0.7C-483.3,2592.5-483.3,2592.3-483.4,2592z"/>
<path fill="#493627" d="M-621.3,2747.5c0,0-0.1-0.1-0.1-0.3C-621.5,2747.7-621.3,2747.5-621.3,2747.5z"/>
<path fill="#493627" d="M-620.5,2683.3c0,0-1.8,9.2,0,13.4s3.1,5.5,1.6,8.7s-2.3,9-0.7,14.8s4.8,5.7,0.7,15c-3.3,7.6-2.8,10.9-2.5,12
	c0.1-0.5,0.4-1.8,1.5-4.9c2.2-5.9,5.3-15.8,4.4-19c-0.8-3.2-3.6-5.5-1.8-10.1c1.8-4.7,3.7-5.7,3.1-10.2s-2.8-2.6-3.7-10.9
	c-0.3-2.5-0.4-6.1-0.5-10c0,0.1-0.1,0.2-0.1,0.3c-5.8-5.2-10.9-11.2-14.1-17.7c-0.6-1.1-1.2-2.3-1.8-3.5c-0.3,2.2-0.6,5.8,0.3,7.6
	C-632.8,2671.4-620.5,2683.3-620.5,2683.3L-620.5,2683.3z"/>
<path fill="#493627" d="M-507.9,2683.3c0,0,1.8,9.2,0,13.4s-3.1,5.5-1.6,8.7s2.3,9,0.7,14.8s-4.8,5.7-0.7,15c3.3,7.6,2.8,10.9,2.5,12
	c-0.1-0.5-0.4-1.8-1.5-4.9c-2.2-5.9-5.3-15.8-4.4-19c0.8-3.2,3.6-5.5,1.8-10.1c-1.8-4.7-3.7-5.7-3.1-10.2s2.8-2.6,3.7-10.9
	c0.3-2.5,0.4-6.1,0.5-10c0,0.1,0.1,0.2,0.1,0.3c5.8-5.2,10.9-11.2,14.1-17.7c0.6-1.1,1.2-2.3,1.8-3.5c0.3,2.2,0.6,5.8-0.3,7.6
	C-495.6,2671.4-507.9,2683.3-507.9,2683.3L-507.9,2683.3z"/>
<path fill="#705A4A" d="M-543,2454.9c6.8,2.9,12.9,8.2,16.1,14.9c1.5,3.1,1.9,6.7,1.4,10.1v0.1h-0.2v-0.1
	c-2.6-10.9-7.5-19.3-17.5-24.8h-0.1L-543,2454.9z"/>
<path fill="#705A4A" d="M-549.5,2456.3c9.9,9.5,23.4,27.1,14.7,41l-0.1,0.1l-0.2-0.1v-0.1c3.4-11.1-1.2-22.7-7.6-31.8
	c-2.1-3.2-4.5-6.2-7.1-9l-0.1-0.1L-549.5,2456.3z"/>
<path fill="#705A4A" d="M-691.2,2707.7c-9.2-12.9-16.6-35.7-14.5-51.6c1.6-10.9,7.4-20.8,14.1-29.3c6.6-8.6,14.4-16.2,21.4-24.4
	c2.3-2.7,4.4-5.6,6.1-8.8c7.3-12.5,11.8-26.2,16.5-39.8l0.2,0.1c-4.5,13.7-8.8,27.6-15.8,40.2c-3.3,6.5-8.4,11.8-13.2,17.2
	c-13.9,15.4-29.8,33.5-27.4,55.7c1.1,10.7,3.7,21.2,7.9,31.1c1.4,3.3,3,6.5,4.9,9.6H-691.2z"/>
<path fill="#705A4A" d="M-608.3,2683.1c0,0.4,0.1,0.6,0.1,0.6S-608.2,2683.5-608.3,2683.1z"/>
<path fill="#705A4A" d="M-615.5,2728.4c-0.4,1.5-0.9,2.6-0.9,2.6S-615.7,2730.1-615.5,2728.4z"/>
<path fill="#705A4A" d="M-583,2653.6c0,0,7-2.4,8.3-2.7c1.3-0.2,1.3-0.2,1.3-0.2l-2.1,4c1.4-1.6,3.4-3.8,4-5.6
	c-7.6,1.5-26.9,5.3-36.9,13.4c-5.8,4.7-7.2,13.5-10.1,19.5c-0.1,0-0.1-0.1-0.2-0.1c-0.2,3.3-0.3,6.8-0.1,8.7c0.4,4.5,3,6.8,3.9,12.4
	c0.3,2-3.7,7.6-3.5,12.4c0.2,4.9,0.4,2.8,2.3,7.9c0.8,2.1,0.8,3.8,0.7,5.1c0.6-2.2,1-5.3-0.3-7.6c-2.3-4-0.7-6.1,1.8-13.1
	s-0.8-7.9-2.4-13.2s-0.3-8.2,0-11.9s2.6-7.8,2.6-7.8s0,0,0.7,2.3s0,5.6,0,5.6s1.1-3.2,1.3-3.8c0.2-0.7-1.1-6.6,0.4-9.7
	s2.8-1.5,2.8-1.5c0.9,1.8,0.8,6.4,0.2,8.8c-0.5,1.9-0.1,5.3,0.1,6.7c-0.1-1.1-0.2-3.4,0.7-5.5c1.2-2.9,1.4-7,0.7-9.3
	s0.9-4.2,2.3-5.8s5.4-2.7,5.4-2.7l1.3,4.3c0,0,0-4,1.4-5.1s5.7-2.4,5.7-2.4v4l3.5-5.4l-0.1,3.5C-586.4,2658.5-583,2653.6-583,2653.6
	L-583,2653.6z"/>
<path fill="#705A4A" d="M-550.2,2653.6c0,0-7-2.4-8.3-2.7c-1.3-0.2-1.3-0.2-1.3-0.2l2.1,4c-1.4-1.6-3.4-3.8-4-5.6
	c7.6,1.5,26.7,5.3,37,13.1c6.1,4.6,11.7,22.4,11.8,22.4c0.2,3.3,0.3,5,0.2,7c-0.4,4.5-4.1,5.9-5.6,11.4s2.4,6.6,3.5,11.4
	s-0.4,3.8-2.3,8.9c-0.8,2.1-0.8,3.8-0.7,5.1c-0.6-2.2-1-5.3,0.3-7.6c2.3-4,0.7-6.1-1.8-13.1s0.8-7.9,2.4-13.2s0.3-8.2,0-11.9
	s-2.6-7.8-2.6-7.8s0,0-0.7,2.3s0,5.6,0,5.6s-1.1-3.2-1.3-3.8c-0.2-0.7,1.1-6.6-0.4-9.7s-2.8-1.5-2.8-1.5c-0.9,1.8-0.8,6.4-0.2,8.8
	c0.5,1.9,0.1,5.3-0.1,6.7c0.1-1.1,0.2-3.4-0.7-5.5c-1.2-2.9-1.4-7-0.7-9.3s-0.9-4.2-2.3-5.8s-5.4-2.7-5.4-2.7l-1.3,4.3
	c0,0,0-4-1.4-5.1s-5.7-2.4-5.7-2.4v4l-3.5-5.4l0.1,3.5C-546.9,2658.5-550.2,2653.6-550.2,2653.6z"/>
<path fill="#705A4A" d="M-571.2,2654.7c-1.2,5.7-4.1,5.8-4.1,5.8l0.5-4l-1.3,4.6c0.7-0.2,1.4-0.3,1.8-0.4c4.1-0.6,4.6-11.9,4.6-11.9
	s-0.4,0.1-1.1,0.2C-570.7,2650.3-570.7,2652.2-571.2,2654.7L-571.2,2654.7z"/>
<path fill="#594432" d="M-629.2,2747.2v3.3c0,0-4.5-0.7-5.9-4.7c-1.4-4.1-3.2-6.3-3.2-6.3l-6.1-6v1.2c0,0-4.6-1-4.9-4.9s0-4.8,0-4.8
	l-3.5-4.1c0,0,8.7-5.6,9.1-5.5s11,0.5,11,0.5l9.6,4.4L-629.2,2747.2z"/>
<path fill="#705A4A" d="M-601.4,2694.1c-0.1-3.9-1-12.4,0.6-18.5s-2.1,3.7-2.3,10.6s-0.2,10.7,1.5,12.8c1.6,2.1-0.1,6.4-0.5,9
	s2.7,4.6,1.6,7.3c0,0,0.7-0.2,0.2-3s-1.6-2.6-1-4.8s1.9-5.5,1.2-8.1C-600.9,2696.6-601.3,2698-601.4,2694.1z"/>
<path fill="#493627" d="M-653.9,2702.2c0,0-0.1,0.1-0.2,0.3c-0.5,0.8-1.6,3-1.8,5.2c-0.3,2.8,0.1,8.8,2.5,11.5c0,0-0.1,4.1,3.3,7.1
	c0,0-0.5,4.3,0.9,5.5c1.4,1.3,4.1,3.6,4.3,6.3l0.9-3.3c0,0,1.2,5.2,6.4,8.3c0,0,1.2,5.3,4.6,6.7c3.5,1.4,3.3,3.3,3.2,5.4
	c-0.1,2.2,1.8,2.9,1.8,2.9s-1.8-1.2-1-3.1c0.7-2,2.4-5.1,1-8.7s-1.8-5.8-1.1-7.9c0,0-1.7,2-1.3,5.6s0.2,4.9,0.2,4.9
	s-4.5-2.5-4.9-5.3c-0.4-2.7-0.5-5.2,1.2-9.1c1.8-3.9,4.9-7,3.5-13.8c0,0,0.1,3.5-0.3,6s-5.7,7-6.3,12.5c0,0-4-1.6-5.8-5.9
	c0,0-0.6-5.7,2.9-11.6c0,0-4.4,4-5.1,12.1c0,0-2.6-1.6-3.2-3.8s0.1-4.9,1.8-8c0,0-2.2,0.8-2.7,2.3c0,0-2.6-1.2-2.6-4.2
	s3.7-4.5,5.2-7.1s-0.3-5.9-0.3-5.9s0.9,3-0.5,4.8c-1.4,1.9-4.1,3.1-5.1,4.8c0,0-2-1.9-2.2-6.4S-653.9,2702.2-653.9,2702.2
	L-653.9,2702.2z"/>
<path fill="#594432" d="M-523.7,2762.9l-1.1,3.9c0,0,5.5,0.8,8.6-3.5c3-4.3,6-6.3,6-6.3l9.3-5l-0.4,1.5c0,0,5.7,0.4,7.5-4.1
	c1.7-4.5,1.7-5.7,1.7-5.7l5.6-3.7c0,0-8.3-9.6-8.8-9.7s-13.1-3.2-13.1-3.2l-12.8,1.9L-523.7,2762.9z"/>
<path fill="#493627" d="M-479.1,2718.5c0,0,0,0.2,0.1,0.5c0.3,1.1,0.8,4.1,0.3,6.7c-0.7,3.4-3.1,10.4-7,12.7c0,0-1.3,4.9-6.4,7.2
	c0,0-0.9,5.2-3,6.2s-6.1,2.8-7.2,5.9l0.1-4.1c0,0-3.2,5.7-10.4,7.5c0,0-3.2,5.8-7.8,6.3s-5,2.7-5.6,5.3s-3.2,2.8-3.2,2.8
	s2.5-0.7,2.3-3.3s-1-6.9,1.8-10.6s4.2-6.1,4-8.9c0,0,1.3,2.9-0.4,7s-2,5.7-2,5.7s6.2-1.4,7.7-4.5c1.4-3.1,2.4-5.9,1.7-11.1
	s-3.4-10,0.7-17.5c0,0-1.3,4.1-1.7,7.1s4.3,10.2,3,16.9c0,0,5.3-0.5,8.8-4.9c0,0,2.7-6.5,0.6-14.7c0,0,3.8,6.2,1.8,16.1
	c0,0,3.6-1,5.1-3.4c1.5-2.3,1.6-5.8,0.6-10c0,0,2.3,1.7,2.4,3.7c0,0,3.5-0.4,4.6-4s-2.8-6.6-3.7-10.2c-0.9-3.5,2.4-6.8,2.4-6.8
	s-2.2,3.2-1.1,5.9s3.8,5.1,4.4,7.5c0,0,3-1.5,4.8-6.7C-479.5,2723.5-479.1,2718.5-479.1,2718.5L-479.1,2718.5z"/>
<path fill="#493627" d="M-642.9,2668.7c-2.5,3.5-4.7,7.6-5.7,11.8c-1,4.3-0.2,9.2-1.9,13.4c-1.3,3.8-3.5,7.1-4.6,10.9
	c-1.4,4.9-0.5,10.3,2.4,14.5c-3.1-4.1-4.2-9.6-3-14.6c1-3.8,3.1-7.3,4.2-11.1c1.5-4.4,0.4-8.9,1.3-13.4c1-4.6,3-8.8,5.6-12.7
	c0.3-0.5,0.9-0.6,1.4-0.3C-642.6,2667.6-642.5,2668.2-642.9,2668.7L-642.9,2668.7z"/>
<path fill="#493627" d="M-657,2699.1c-0.6,7.8-1.8,7.5-1.8,7.5s-4.7,1.9-5.3-4.2s0-23.8,0-23.8s-5.7,12-5.7,20.2
	c0,0-8.2-24.2,5.7-49.7c0,0-17.3,9.9-9.2,61.1c8.5,4,15.7,4,15.7,4S-657.4,2708.5-657,2699.1z"/>
<path fill="#493627" d="M-659.7,2707.6c0,0-0.6-19.8,0.9-31.1c1.5-11.2,3.7-21.1,3.7-21.1s-5.8,2.7-8.3,8.6c0,0-0.8-10.9,2.7-17.8
	l-6.2-10.5l7.9-11.6l9.2,12.2l8.1,18.6v4.6c0,0-8.3,17.4-8.5,31.6c-0.2,8.4-8.2,17.4-8.2,17.4L-659.7,2707.6z"/>
<path fill="#493627" d="M-643,2661.5c0,0-4.4,12.8-4.1,25.4c0.2,12.7,4.1,16.1,4.1,16.1s-1.4-11.1-0.4-15.4s5-8.8,6.2-10.6
	c1.1-1.9,2.8-7.9,2.8-7.9l5,5.5c0,0-2,0.1-1.8,6.9s1.7,9.1-1.6,12.4s-2.5,11.7-2.5,11.7s-0.3-5.4,2.2-8.6s4.6-4.1,4.6-6.3
	s-0.8-6.8-0.3-7.4s2.8-1.3,3.2,0.5c0.3,1.8-1.2,4.8-0.8,9.7s3.2,5.3,2.2,9.6c-1.1,4.3-3,8.7-1.5,14.3c0,0-0.8-5.8,1.7-10
	s3.8-4.4,3.2-7.6s0.2-8.8,0.2-8.8l1.6-9.5c0,0-9.6-8.2-14.9-20.1c-5.2-11.9-5.8-12.3-5.8-12.3L-643,2661.5z"/>
<path fill="#594432" d="M-578,2703.4c0,0-0.1,7.4,2.6,10.5l1.2-5.4c0,0,1.8,12.8,8.8,12.8c5.3,0,8.3-7,9-12.7c0,0,1.2,3.4,1.6,9.1
	c0,0,1.9-4.2,2.8-8.6c0,0,0.5-0.5,0.5,1.8c0,0,2.4-2.5,2-8.9c0,0-4.3-14.5-9.6-3.5c0,0,0.1,2.1-0.9,2.5s-1.5-0.7-1.5-0.7l-0.5,4.1
	l-0.5-1.5c0,0-1.3,2-2.2,0.5s-1.4-4-1.4-4l0.4,3.2c0,0-1.7-1-2.1-4.2c0,0-3.5-5-6.6-3.1C-577.1,2697.3-578,2703.4-578,2703.4
	L-578,2703.4z"/>
<path fill="#493627" d="M-555.8,2724.5l1.3-4.3c0,0-5.6,7-11,6.8s-8.8-8.6-8.8-8.6l-1.3,0.8c-2.8-1.3-3.6-4-3.7-6.8
	c-0.2,2-3.3,28.6,1.4,40.9c5,12.8,6.3,13.6,6.3,13.6s-0.1,6.6,2.4,9.6s4.9,3.5,4.9,3.5s-6.3-8-4.9-33.8c0,0,0.7,21.7,4.9,28.7
	s6.2-16.5,6.2-16.5s1.3,10.2,0,18.5c0,0,3.8-4.5,4-15.4c0,0,2.2,0.7,2.5,5.1c0,0,3-14.2,3.1-23.7l-0.8-26.2
	C-551.3,2723-555.8,2724.5-555.8,2724.5L-555.8,2724.5z"/>
<path fill="#705A4A" d="M-579.2,2709.9c-0.1,3.3,0.6,7.3,3.8,8.8l-0.9,0.4l0.7-2.8l0.7-2.7c1.1,5.1,3.5,12.1,9.5,12.5
	c4.8,0.4,9-2.9,9.8-7.7l0.9-4.9c0.4,3.5,1.9,8.1-0.1,11.4l-0.9-1c3.5-1.6,5.4-5.5,5.8-9.2c0.8-0.4,0.6,1.1,0.6,1.5
	c0-0.4-0.1-0.9-0.3-1.3c-0.1-0.1-0.2-0.1-0.2-0.1c0.4,3.6-1.7,8.5-5.5,10.3l-2,1l1.2-2.1c0.8-1.5,0.6-3.7,0.4-5.4h1.7
	c-0.7,5.7-5.9,10-11.7,9.4c-5.8-0.3-9.1-6.2-10-11.4l1.4,0.1c-0.2,0.5-1,3-1.1,3.5C-579.1,2718.3-580,2713.7-579.2,2709.9
	L-579.2,2709.9z"/>
<path fill="#705A4A" d="M-572.5,2697.1c-0.3,0.9-1,3.1-1.3,4c-0.1,0.4-0.2,0.7,0.2,0.9c1.3,0.6,2.7,2,2.2,3.7
	c-0.3,0.9-1.2,1.4-1.3,2.3c-0.1,1.4,1,2.9,0.1,4.4c-0.3,0.5-0.6,0.6-0.7,1c-0.3,1.3,0.6,2.3,0.1,4.1l-1.9-0.6
	c0.4-0.9-0.3-2.9,0.3-4.1c0.2-0.5,0.7-0.9,1-1.2c0.6-0.7-0.3-2.6,0-3.8c0.2-1.1,1.2-1.6,1.6-2.4c0.4-1.2-0.7-2.3-1.7-3
	c-0.2-0.1-0.5-0.4-0.5-0.7s0.1-0.6,0.2-0.8C-573.8,2700.1-572.8,2698-572.5,2697.1L-572.5,2697.1z"/>
<path fill="#705A4A" d="M-566.4,2700.9c0.7,2.2,1.5,4.6,0.4,6.9c-0.5,1.1-1.3,2-1.5,3c-0.3,1-0.1,2.2,0.1,3.2
	c0.7,3.2,4.6,6.6,2.6,10.2c-0.3,0.8-0.7,1.7-0.3,2.3l-1.6,1.2c-1-1.4-0.3-3,0.3-4.2c0.5-1,0.8-1.6,0.5-2.7c-1-3-3.5-6.6-2.3-10.1
	c0.4-1.2,1.3-2.1,1.8-3C-565.3,2705.5-565.9,2703.1-566.4,2700.9L-566.4,2700.9z"/>
<path fill="#705A4A" d="M-562.7,2730.2c1.7-2.8,2.3-5.9,1.6-9.1c-0.4-2.5-1.5-4.6-2.1-7.1c-0.1-0.9,0.1-1.8,0.5-2.6
	c0.1,0.9,0.2,1.7,0.5,2.4c1.2,2.1,2.7,4.4,3.1,7C-558.4,2724.2-559.7,2728.3-562.7,2730.2L-562.7,2730.2z"/>
<path fill="#705A4A" d="M-501,2728.4c-0.4-1.7-1.1-3.2-1.4-5c-0.3-2.2-0.1-4.4,0.2-6.5c0.1-0.6,0.1-1.7,0.1-2.3
	c0.1-4.6-2.6-8.8-2.6-13.5c0.3-4.4,1.8-8.5,3.7-12.4c-0.4,4.2-1.2,8.2-1.1,12.3c0.2,2.4,1.2,4.5,1.9,6.9c0.7,2.5,1.1,5.4,0.7,8
	c-0.1,0.6-0.4,1.9-0.6,2.5c-0.4,1.6-0.8,3.2-0.8,4.8C-501,2724.9-500.7,2726.7-501,2728.4L-501,2728.4z"/>
<path fill="#705A4A" d="M-486.9,2708.1c-0.5-1-1.1-1.8-1.6-2.8c-0.9-1.9-0.9-4.2-1.8-6c-1.2-2.9-4.3-5-4.8-8.3
	c-0.5-2.2-0.6-4.3-0.7-6.4c0-0.5,0.4-0.9,0.9-0.9c0.4,0,0.8,0.3,0.9,0.6c0.4,1.3,1,2.6,1.6,3.8c1,1.8,2.2,3.5,3.9,4.5
	c2.1,1.1,4,2.9,4.5,5.3c0.4,1.8,0.2,3.4,0.2,5.1c0,1.2,0.7,2.1,1.3,3.1c1.8,2.3,2.9,5.4,2.4,8.3c0-1.5-0.3-2.9-0.8-4.2
	c-0.8-2.1-2.6-3.4-3.7-5.4c-0.4-0.7-0.5-1.6-0.5-2.4c0.1-3-0.4-6.2-3.4-7.7c-1-0.5-2-1.2-2.8-2c-2.2-2.2-3.5-5-4.4-7.9l1.8-0.3
	c0.2,3,0,6.2,1.5,8.9c1.1,1.8,2.5,3.5,3.2,5.6c0.7,2,0.5,4.3,1.1,6.3C-487.8,2706.2-487.2,2707.1-486.9,2708.1L-486.9,2708.1z"/>
<path fill="#30231A" d="M-475.8,2620.9c0,0-2,8.4-2.1,14.5s2.1,12.7,3.7,16.3s6.9,9,7.5,15.3c0,0,1.3-4.9-0.8-11.6
	c-2.2-6.7-3.7-9-4.6-12.7s0.3-10.6,0.3-10.6l8.5,10.6C-463.5,2642.7-472.9,2627.6-475.8,2620.9z"/>
<path fill="#38291E" d="M-559.8,2732v30.2c0,0,4-9.1,4-14.8c0-5.8,1.3-11.7,1.3-11.7s1.3,7.3,1.3,9.7v5.8c0,0,2.2-3.1,2-10.4
	s-1.5-11.7-0.9-14.6c0,0-2,0.9-3.4,4.6c-1.4,3.8-2.1,9.7-2.1,9.7L-559.8,2732z"/>
<path fill="#30231A" d="M-652,2600.6c-1.3,2.6-3,5.4-5.1,8.2c-7.2,9.7-24.2,27-24.2,27s5.3-2.2,16.4-10.3c5.1-3.7,10.4-8.4,14.6-12.5
	c-0.7-3.6-1.3-7.3-1.9-11.1C-652,2601.5-652,2601-652,2600.6L-652,2600.6z"/>
<path fill="#705A4A" d="M-587.4,2775.5c-4.8-1.4-8.4-8.5-8.8-13.3c-0.3-2.7,0.3-5.4,0-8.1c-0.2-2.6-0.6-5.2-1.2-7.7l1.7-0.3
	c0,2.4-0.1,4.8-0.9,7.2c-0.2,0.5-0.6,1.1-0.9,1.6c-0.6,1-1.9,3.6-2.5,4.6c0.6-2.3,1.5-4.4,2.3-6.6c0.8-3.8,0-9.4-0.1-13.3
	c1.4,4.4,3.4,9.8,3.6,14.4c0.3,2.7-0.3,5.4-0.2,8.1c0.1,2.6,0.8,5,2,7.4S-589.8,2774.3-587.4,2775.5L-587.4,2775.5z"/>
<path fill="#705A4A" d="M-606.1,2731.8c-0.5,4.7-1.2,9.3-1.8,13.9c-0.3,3.9-1.8,9.3,2.1,11.7l5.5,2.6l-5.9-0.7c-5.7-0.6-9.3-3.7-9-9.7
	c0.2-4.7,2.5-8.7,3.1-13.3c0.4,8-6.4,19.6,6.1,21.1l-0.4,1.9c-5.3-2.9-3.8-9.1-3-13.8C-608.5,2740.8-607.4,2736.2-606.1,2731.8
	L-606.1,2731.8z"/>
<path fill="#705A4A" d="M-548.4,2774.2c2.3-2.3,3.6-5.5,3.8-8.7l0.3-3.5c1,2.6,2.1,5.8,2,8.6c0,1.8-0.2,3.5-0.7,5.2l-1.4-1.1
	c5.4-4,4.8-11.4,4.1-17.3c-0.3-2.8,0.7-5.5,1.9-7.9c0.6-1.2,1.2-2.5,2.2-3.3c-0.8,1-1.1,2.4-1.6,3.6c-0.8,2.5-1.5,4.9-1,7.5
	c1.5,6.6,1.6,14.9-4.6,19.1l-2.2,1.5l0.7-2.6c0.9-3,1.1-6.4,0.3-9.4l1.5-0.2C-543.6,2769-545.4,2772.4-548.4,2774.2L-548.4,2774.2z"
	/>
<path fill="#493627" d="M-682.9,2574.3c3.8-9.7,6.8-19.7,9-29.8c3.2-14.7,5-31.5,8.7-46.1c2.2-8.1,4.1-16.3,12.9-19.5
	c4.9-2,10-2.9,14.2-6c2.1-1.5,3.8-3.4,5.4-5.5c-1.2,2.3-2.8,4.4-4.8,6.2c-3.9,3.6-9.3,5-13.9,7.2c-2.2,1.1-4.3,2.5-5.8,4.3
	c-2.8,4.1-3.9,9.3-5.1,14.1c-3.5,15.2-5.2,30.7-9.2,45.9C-674.3,2555.2-678,2565.1-682.9,2574.3L-682.9,2574.3z"/>
<path fill="#0071B7" d="M-490,2902l5-38l0.3-1.2l14.5,39.2h17.8l-28.5-82.9c-12.1,1.3-22.5,10.2-27.4,32.7
	c-3.6,16.8-7.5,38.9-9.4,50.3h27.7V2902z"/>
<path fill="#0071B7" d="M-658.9,2902l14.5-39.2l0.3,1.2l5,38h27.6c-1.9-11.4-5.8-33.5-9.4-50.3c-4.9-22.5-15.3-31.4-27.4-32.7
	l-28.5,82.9h17.9L-658.9,2902z"/>
<path fill="#18689E" d="M-665.9,2772.4l0.1,0.5c0,0,1.3-0.1,3.3,1.6c5.6,4.9,15.3,23,17.7,89.6h0.1l0.4-1.1l0.2,1h0.3
	c-2.4-67.3-12.4-85.6-18.2-90.4c-1.2-1-2.2-1.4-2.9-1.6L-665.9,2772.4z"/>
<path fill="#0084C6" d="M-426.3,2902h9.5l-46.4-129.8l-40.2-15.9l-6.3,7.7l39.4,14.8L-426.3,2902z"/>
<path fill="#18689E" d="M-463.2,2772.4l-0.1,0.5c0,0-1.3-0.1-3.3,1.6c-5.6,4.9-15.3,23-17.7,89.6h-0.1l-0.4-1.1l-0.2,1h-0.3
	c2.4-67.3,12.4-85.6,18.2-90.4c1.2-1,2.2-1.4,2.9-1.6L-463.2,2772.4z"/>
<path fill="#E2C1B5" d="M-665,2902l17.8-51.4c0,0,9.2,15.1,16.5,51.4h126.4c7.3-36.3,16.5-51.4,16.5-51.4l17.8,51.4h38.8l-47.7-124.9
	c0,0-1.6-3.3-24.5-10.9s-36.3-16-36.3-32.3c0-16.2,0-42.8,0-42.8h-27.5h-0.2h-0.2h-0.2h-27.5v42.8c0,16.3-13.4,24.7-36.3,32.3
	s-24.5,10.9-24.5,10.9l-47.7,124.9H-665z"/>
<path fill="#007BC7" d="M-658.9,2902l14.5-39.2l0.3,1.2l5,38H-490l5-38l0.3-1.2l14.5,39.2h53.4l-46.4-129.8l-62.4-24.7l-39,53.1
	l-39-53.1l-62.3,24.7l-46.4,129.8H-658.9z"/>
<path fill="#F2DDCB" d="M-462.6,2577.7c0,79.3-35.2,134.2-103.6,134.2c-68.3,0-106.3-55.6-106.3-134.9s39.1-117.3,107.4-117.3
	C-496.7,2459.6-462.6,2498.4-462.6,2577.7L-462.6,2577.7z"/>
<path fill="#A1A7A8" d="M-594.3,2614.6c0,10.9-8.9,19.7-19.9,19.7s-19.9-8.8-19.9-19.7s8.9-19.7,19.9-19.7S-594.3,2603.7-594.3,2614.6z
	"/>
<path fill="#2A1D01" d="M-599.4,2614.6c0,7.6-6.2,13.8-13.8,13.8s-13.8-6.2-13.8-13.8s6.2-13.8,13.8-13.8S-599.4,2607-599.4,2614.6z"/>
<path fill="#FFFFFF" d="M-619,2607.5c0,2.2-1.8,4-4,4s-4-1.8-4-4s1.8-4,4-4C-620.7,2603.5-619,2605.3-619,2607.5z"/>
<path fill="#A38276" d="M-606.9,2664.1c12.1,7.3,25.1,11.9,38.2,11.7c13.2,0,25.9-5.1,38.5-11.7c-4.6,5.5-10.4,10-17,13.2
	c-6.6,3.3-14,5.1-21.5,5.2c-7.5,0-15-1.7-21.5-4.9S-602.7,2669.9-606.9,2664.1z"/>
<path fill="#A1A7A8" d="M-540.8,2614.6c0,10.9,8.9,19.7,19.9,19.7s19.9-8.8,19.9-19.7s-8.9-19.7-19.9-19.7S-540.8,2603.7-540.8,2614.6z
	"/>
<path fill="#2A1D01" d="M-535.7,2614.6c0,7.6,6.2,13.8,13.8,13.8s13.8-6.2,13.8-13.8s-6.2-13.8-13.8-13.8
	C-529.6,2600.8-535.7,2607-535.7,2614.6z"/>
<path fill="#FFFFFF" d="M-534.9,2607.5c0,2.2,1.8,4,4,4s4-1.8,4-4s-1.8-4-4-4C-533.2,2603.5-534.9,2605.3-534.9,2607.5z"/>
<path fill="#0084C6" d="M-624.5,2755.8l-41.2,16.3c4.4,1.2,7,6.4,7,6.4l2.8,6.5l41.5-16.1L-624.5,2755.8z"/>
<path fill="#18689E" d="M-564.6,2831.8l-60.2-75.3l0.8-0.7l59.4,74.4l60.8-74.2l0.8,0.7L-564.6,2831.8z"/>
<path fill="#594432" d="M-473.2,2535.9l-3.8,1.2c7.1,18,6.6,80.6-18.7,127.2c-3.7,7.6-10.1,14.5-17.1,20.3c-4.1-5.7-5-16.5-11.6-22.1
	c-11.3-9.4-38.7-13.7-38.7-13.7s0.5,11.3,4.6,11.9s19.5,6,23.8,9.8c5.3,4.7,3.3,19.6,3.3,24.3c0,0.6-0.1,1.2-0.2,1.8
	c-9,4.3-16.3,5.7-17.4,3c-0.6-1.5-2.4-7.8-5.5-9.4c-1-0.5-5.3-0.9-7-0.9c-1,0-1.8,0.1-2.6,0.4c-0.8-0.2-1.6-0.4-2.6-0.4
	c-1.6,0-5.9,0.3-7,0.9c-3.1,1.6-5,8-5.5,9.4c-1.2,3.3-11,0.8-22.1-5.4c-0.1-5.3-1.7-19.1,3.3-23.6c4.2-3.8,19.7-9.2,23.8-9.8
	s4.6-11.9,4.6-11.9s-27.4,4.3-38.7,13.7c-5.7,4.8-7.2,13.5-10.1,19.5c-5.8-5.2-10.9-11.2-14.1-17.7
	c-25.3-46.6-24.3-108.5-17.2-126.5l-6-3c0,0-30.8,33.7-26.3,71.5c3.5,29.9,8,72.3,22.5,103.7c1.5,3.2,3.7,5,5.4,8
	c2.7,4.6,5.1,10.3,8.4,14.2c17.2,20.2,30.1,28.4,40.6,31.4c9.3,6.7,11.8,19.7,41.1,19.7s31.8-13,41.1-19.7
	c10.4-3,23.4-11.2,40.6-31.4c25.9-30.3,21.8-88,26.2-125.8C-451.8,2568.5-473.2,2535.9-473.2,2535.9L-473.2,2535.9z"/>
<path fill="#493627" d="M-456.9,2608.2l-14.9-16.3c-2.2,11.5-5.2,23.6-9,35.2v0.1c-2.5,9-6.7,19-9.7,25.5c-0.8,1.9-1.7,3.7-2.6,5.5
	c-0.4,0.8-0.6,1.3-0.6,1.3s0.4,18.9,9.9,30.3c0,0-6.9-13-6.9-20.9s5-12.2,5-12.2s0.4,9.3,5.3,17.3c4.8,8,13.2,27.2,8.6,39.5
	C-458.5,2682.5-460.3,2639.1-456.9,2608.2L-456.9,2608.2z"/>
<path fill="#594432" d="M-513.3,2506.4c0,0,18.6,4.8,22.8,23.4c2.8,12.2,2.4,51.3,12.1,83.7c5.1,17.1,18.8,34.4,18.8,34.4
	s-1.2,4.1-3,30.7c0,0,25.8-3.1,19.9-33.9c0,0,9.8-11,8.8-31.7c-1.4-29.2-18-42.9-22.3-59.1c-10.6-40-11.7-68.1-25.4-72.6
	c-18.3-6.1-19.3,0.1-19.3,0.1L-513.3,2506.4z"/>
<path fill="#493627" d="M-451.6,2699.9c-0.6-5,3.8-8.7,6.5-12.2c10.7-12.4,5.6-25-3.5-36.5c-6.1-7.2-10.5-15.7-14.4-24.2
	c-3.9-8.6-7.1-17.4-9.5-26.5l0.3-0.1c4,13.4,9.8,26.3,17,38.3l1.8,3c1.8,3,4.2,5.4,6.5,8.2c4.5,5.4,9.3,11.5,10.4,18.8
	c1.1,7.4-2.2,14.8-7.3,20c-3,3.4-7.4,6.2-7.5,11.2H-451.6z"/>
<path fill="#493627" d="M-459.2,2559.1c5.4,17,13.5,21.5,13.5,21.5s9.1,17.7,9.8,29.6c0.8,11.9-4.2,23.5-4.2,23.5s-0.2-2.1-2.8-7.1
	c-4.8-9.2-13.6-9.1-21.2-23.8s-14.5-46.8-14.5-46.8c8.1,55.9,15.1,57.6,25.1,70.1c10.9,13.6,11.4,22.7,11.4,22.7
	s10.5-10.4,10.8-31.1c0.2-14.6-7.1-28.6-13.8-41c-1.6-0.6-3.2-1.7-4.3-2.7C-455.9,2568.6-459.2,2559.1-459.2,2559.1z"/>
<path fill="#38291E" d="M-462.1,2671.5c0,0,7-2.8,8.1-8.4s-1.6-9-5.6-15.1L-462.1,2671.5z"/>
<path fill="#705A4A" d="M-466.2,2537.1c0,0-1.8-28.1-9.8-37.9c-8-9.9-15.6-8.7-15.6-8.7s8.7-3.2,16.8,4.2c-2.7-4.3-5.8-7.1-9.7-8.4
	c-3.7-1.2-6.8-1.9-9.5-2.2c-3.4,1-6.9,2.1-8.2,3c-3,2-4.5,6.4-4.5,6.4s2.8-3,7.2-3.2c4.3-0.3,4.3-0.3,4.3-0.3s-8.7,3.2-10.8,4.9
	c-2.1,1.8-4.9,10.4-4.9,10.4s2.4-3.6,4.6-4.8c0,0,5.4-3.9,14.3-3.7s14.6,4.8,18,11.7C-470.5,2515.4-466.2,2537.1-466.2,2537.1
	L-466.2,2537.1z"/>
<path fill="#705A4A" d="M-475.2,2526.7c2.8,12.6,5.8,25,8.7,37.5c2.3,10.2,3.7,21.1,9.8,29.8c3.7,5.2,7.9,10.2,11.2,15.7
	c2.3,3.7,4.2,7.6,6,11.5l-2.5,0.4c0.3-2.2,0.6-4.5,0.8-6.7c0.4-6.7,1-13.7-1.4-20.1l0.3-0.1c1.2,2,1.9,4.3,2.4,6.5
	c1.7,8.2,1.1,16.7,0.2,25c-2.7-5-5.4-10.2-8.4-14.9c-4.4-7.4-10.4-13.8-13.9-21.7c-3.5-8-4.5-16.7-6.1-25.1
	c-2.5-12.6-5-25.2-7.3-37.8C-475.5,2526.8-475.2,2526.7-475.2,2526.7L-475.2,2526.7z"/>
<path fill="#594432" d="M-507.8,2507.5c0,0-40.6-5.6-65.8-5.6s-40-0.2-51.5,10.1c-11.9,10.6-22.9,46.3-25,65.7
	c-3.5,32.1-7.5,136.6-7.5,136.6s-35.4,0-41.9-44c-3.2-21.8,11.3-47.4,12.1-83.6s-15.7-29.7,19.9-102.2c8-16.3,59.6-76,95.7-30.6
	c4,0.4,24.9-7.6,53.5,4.5c22.7,9.6,19.5,21.4,19.5,21.4L-507.8,2507.5z"/>
<path fill="#594432" d="M-682.9,2557c3.4,10.9-4.1,31.3-10.2,49c-6.1,17.8-25.3,43.5-25.8,62.7c-0.4,19.2,3.9,26.2,3.9,26.2
	s-6.1-27,3.5-41c0,0-6.5,18.8,2.6,37.1c9.2,18.3,23.1,29.2,17.5,39.7c-5.7,10.5-10.9,10.5-10.9,10.5s9.2,1.7,14-7s4.8-18.5,1.7-24.3
	s-11.3-18.9-7.9-30.3c3.5-11.3,14.4-6.4,14.4-6.4l2.3,34.9c0,0-3.2,7.3,7.7,18.2c0,0-4.8-6.2-2.4-16.5s9.1-98.5,9.1-98.5
	L-682.9,2557z"/>
<path fill="#705A4A" d="M-666.8,2524.2c0,0-7.6,45-32,83.3c-12,18.8-18.1,31.9-15,41.7c0,0,3.7-6.6,12.4-25
	C-691.4,2602.9-671.9,2587.8-666.8,2524.2z"/>
<path fill="#705A4A" d="M-670,2496.9c14.6-23.4,39.8-54.3,69.2-56.6c6.6-0.5,12.9,2.5,17.3,7.3c4.4,4.5,7.9,9.8,10.7,15.3
	c2.9,5.6,5.1,11.3,6.8,17.4c0.3,1-0.3,2-1.3,2.3s-2-0.3-2.3-1.3c-4-12-13.3-22.8-25.6-26.7c-4-1.3-8.2-1.9-12.1-0.9
	c-8.5,2.1-13.2,10.8-18.7,17.1c-5.9,6.8-13.1,13.3-22,15.4l-0.1-0.4c8.4-3,14.8-9.7,20.2-16.6c5.5-7.3,10.2-16.4,19.7-19.1
	c4.8-1.4,9.9-0.8,14.3,0.6c9.1,2.7,16.8,9,21.9,16.9c2.6,4,4.6,8.1,6,12.7l-3.6,0.9c-1.4-5.7-3.5-11.4-6.2-16.8
	c-2.6-5.4-5.9-10.4-9.9-14.8c-8.1-9.7-19.7-7.3-30.2-3.3c-17.6,7.3-31.3,21.4-43.2,35.9c-3.8,4.8-7.4,9.7-10.7,14.8L-670,2496.9z"/>
<path fill="#705A4A" d="M-580.5,2497.6c-2.6-10.9-9.2-31.1-23.1-30.2c-4.7,0.4-8.8,3.1-12.3,6c1.8-1.6,3.5-3.1,5.6-4.3
	c12.7-7.9,22.6,3.5,27.7,14.4c2.1,4.3,3.8,8.7,5.1,13.4c0.2,0.8-0.2,1.6-1,1.8C-579.5,2499-580.4,2498.5-580.5,2497.6L-580.5,2497.6
	z"/>
<path fill="#493627" d="M-636.8,2656c-6.6-16.7-12.4-33.5-15.3-54c0.7-9.8,1.3-18.3,2-24.3c2.1-19.4,13.1-55.1,25-65.7
	c7.5-6.7,16.3-8.9,28.5-9.7c-12.8-17.7-26.9-14.1-33.4,1.5s-23.8,79.2-31.2,93c-7.4,13.9-29.9,38.1-35.2,54.7
	c-4,12.7-1.2,23.2,1,34.5c1.8,6.3,7.8,13.2,9.4,15c-2.4-11.5-4.8-27.3-2.5-37c3.9-16.6,30.8-32.6,30.8-32.6l4.8,13.1
	c0,0-9.4,15.5-10.4,32.8c0,0,2.6-20,14.3-28.2l4.2,10.8c0,0-11.3,17.9-11.8,31.1c-0.3,6.9-0.9,15.8-1,23.3c0.1,0.1,0.9,1.3,2.3,1.6
	c0.5-10.5,1.8-24.7,3.7-29.8C-646,2670-636.7,2656.2-636.8,2656L-636.8,2656z"/>
<path fill="#493627" d="M-518.3,2458.4c-2.6-1.1-5.2-2.1-7.7-2.9c0.2,0.1,13.6,7.5,17.8,14.4s4.1,13.5,2.6,19.4s-9.4,15.3-9.4,15.3
	s-34.1-4.4-37.5-8.6c-4-5.1-6.4-14.4-6.4-14.4l4.8,21c22.5,1.5,40.6,6.7,43.7,5.1c7.7-4.1,11.6-26.9,11.6-26.9
	C-498,2476.2-498.3,2466.9-518.3,2458.4L-518.3,2458.4z"/>
<path fill="#493627" d="M-566,2457.5c-0.5-1.5-1.1-2.9-1.6-4.1c-1.9,0.3-3.3,0.6-4.1,0.5c0,0,9.2,16.9,12.2,24.8
	C-559.5,2478.7-563.6,2464.3-566,2457.5L-566,2457.5z"/>
<path fill="#493627" d="M-535.2,2454.9c6.7,2.9,13.4,7.4,16.6,14.2c1,2.3,1.6,4.8,2,7.3c1.1,7.4,0.9,15-0.5,22.3
	c-0.6,2.6-1.1,5.1-2.6,7.4l-2.4-1.7c2.4-3.9,3.1-8.8,3.7-13.3c0.7-7.1,1-14.6-1.4-21.4C-522.6,2462.9-528.8,2458.2-535.2,2454.9
	L-535.2,2454.9z"/>
<path fill="#493627" d="M-531.3,2690c-0.1,2-0.2,3.7-0.2,4.8c0,0.6-0.1,1.2-0.2,1.8c-9,4.3-16.3,5.7-17.4,3c-0.6-1.5-2.4-7.8-5.5-9.4
	c-1-0.5-5.3-0.9-7-0.9c-1,0-1.8,0.1-2.6,0.4c-0.8-0.2-1.6-0.4-2.6-0.4c-1.6,0-5.9,0.3-7,0.9c-3.1,1.6-5,8-5.5,9.4
	c-1.2,3.3-11,0.8-22.1-5.4c0-1.1-0.1-2.5-0.2-4.2c-0.4,1.2-0.7,2.5-0.7,3.8c0,4,3.7,5.7,2.3,8.5s-2.3,4.6-1.1,9.2s0.2,5,0.4,12.5
	s8.4,10.7,8.4,10.7s-0.7,4.3,1.5,7.8s2.4,11.3,2.4,11.3s1.7-2.8,1.7-10.8s0-9.4,0.4-14.6s3.9-7.5,3.9-7.5s-3,5.4-1.5,12
	s16.4,13.3,16.4,13.3l21.4-2.4c0,0,5.4-8.7,5.2-18c0,0,0.2,8,0,13.9c0,0,6.5-4.3,6.3-24.4c0-0.1,0-0.2,0-0.3c1.6,1.2,4.7,4.4,4.6,10
	c0,0,0.7-8.6,0-16.5C-530.8,2700.7-531.3,2690-531.3,2690L-531.3,2690z"/>
<path fill="#493627" d="M-483.1,2515.8c-0.3-11.3-6-15.8-14.1-14.5c-5.6,0.9-11,4.8-13.5,6.7c5.8,3.9,17.4,9.1,20.3,21.9
	c2,8.9,2.4,32.2,6.2,56.7C-486.9,2565.4-482.9,2526.2-483.1,2515.8L-483.1,2515.8z"/>
<path fill="#493627" d="M-483.4,2592c0,0.2,0.1,0.5,0.1,0.7C-483.3,2592.5-483.3,2592.3-483.4,2592z"/>
<path fill="#493627" d="M-621.3,2747.5c0,0-0.1-0.1-0.1-0.3C-621.5,2747.7-621.3,2747.5-621.3,2747.5z"/>
<path fill="#493627" d="M-620.5,2683.3c0,0-1.8,9.2,0,13.4s3.1,5.5,1.6,8.7s-2.3,9-0.7,14.8s4.8,5.7,0.7,15c-3.3,7.6-2.8,10.9-2.5,12
	c0.1-0.5,0.4-1.8,1.5-4.9c2.2-5.9,5.3-15.8,4.4-19c-0.8-3.2-3.6-5.5-1.8-10.1c1.8-4.7,3.7-5.7,3.1-10.2s-2.8-2.6-3.7-10.9
	c-0.3-2.5-0.4-6.1-0.5-10c0,0.1-0.1,0.2-0.1,0.3c-5.8-5.2-10.9-11.2-14.1-17.7c-0.6-1.1-1.2-2.3-1.8-3.5c-0.3,2.2-0.6,5.8,0.3,7.6
	C-632.8,2671.4-620.5,2683.3-620.5,2683.3L-620.5,2683.3z"/>
<path fill="#493627" d="M-507.9,2683.3c0,0,1.8,9.2,0,13.4s-3.1,5.5-1.6,8.7s2.3,9,0.7,14.8s-4.8,5.7-0.7,15c3.3,7.6,2.8,10.9,2.5,12
	c-0.1-0.5-0.4-1.8-1.5-4.9c-2.2-5.9-5.3-15.8-4.4-19c0.8-3.2,3.6-5.5,1.8-10.1c-1.8-4.7-3.7-5.7-3.1-10.2s2.8-2.6,3.7-10.9
	c0.3-2.5,0.4-6.1,0.5-10c0,0.1,0.1,0.2,0.1,0.3c5.8-5.2,10.9-11.2,14.1-17.7c0.6-1.1,1.2-2.3,1.8-3.5c0.3,2.2,0.6,5.8-0.3,7.6
	C-495.6,2671.4-507.9,2683.3-507.9,2683.3L-507.9,2683.3z"/>
<path fill="#705A4A" d="M-543,2454.9c6.8,2.9,12.9,8.2,16.1,14.9c1.5,3.1,1.9,6.7,1.4,10.1v0.1h-0.2v-0.1
	c-2.6-10.9-7.5-19.3-17.5-24.8h-0.1L-543,2454.9z"/>
<path fill="#705A4A" d="M-549.5,2456.3c9.9,9.5,23.4,27.1,14.7,41l-0.1,0.1l-0.2-0.1v-0.1c3.4-11.1-1.2-22.7-7.6-31.8
	c-2.1-3.2-4.5-6.2-7.1-9l-0.1-0.1L-549.5,2456.3z"/>
<path fill="#705A4A" d="M-691.2,2707.7c-9.2-12.9-16.6-35.7-14.5-51.6c1.6-10.9,7.4-20.8,14.1-29.3c6.6-8.6,14.4-16.2,21.4-24.4
	c2.3-2.7,4.4-5.6,6.1-8.8c7.3-12.5,11.8-26.2,16.5-39.8l0.2,0.1c-4.5,13.7-8.8,27.6-15.8,40.2c-3.3,6.5-8.4,11.8-13.2,17.2
	c-13.9,15.4-29.8,33.5-27.4,55.7c1.1,10.7,3.7,21.2,7.9,31.1c1.4,3.3,3,6.5,4.9,9.6H-691.2z"/>
<path fill="#705A4A" d="M-608.3,2683.1c0,0.4,0.1,0.6,0.1,0.6S-608.2,2683.5-608.3,2683.1z"/>
<path fill="#705A4A" d="M-615.5,2728.4c-0.4,1.5-0.9,2.6-0.9,2.6S-615.7,2730.1-615.5,2728.4z"/>
<path fill="#705A4A" d="M-583,2653.6c0,0,7-2.4,8.3-2.7c1.3-0.2,1.3-0.2,1.3-0.2l-2.1,4c1.4-1.6,3.4-3.8,4-5.6
	c-7.6,1.5-26.9,5.3-36.9,13.4c-5.8,4.7-7.2,13.5-10.1,19.5c-0.1,0-0.1-0.1-0.2-0.1c-0.2,3.3-0.3,6.8-0.1,8.7c0.4,4.5,3,6.8,3.9,12.4
	c0.3,2-3.7,7.6-3.5,12.4c0.2,4.9,0.4,2.8,2.3,7.9c0.8,2.1,0.8,3.8,0.7,5.1c0.6-2.2,1-5.3-0.3-7.6c-2.3-4-0.7-6.1,1.8-13.1
	s-0.8-7.9-2.4-13.2s-0.3-8.2,0-11.9s2.6-7.8,2.6-7.8s0,0,0.7,2.3s0,5.6,0,5.6s1.1-3.2,1.3-3.8c0.2-0.7-1.1-6.6,0.4-9.7
	s2.8-1.5,2.8-1.5c0.9,1.8,0.8,6.4,0.2,8.8c-0.5,1.9-0.1,5.3,0.1,6.7c-0.1-1.1-0.2-3.4,0.7-5.5c1.2-2.9,1.4-7,0.7-9.3
	s0.9-4.2,2.3-5.8s5.4-2.7,5.4-2.7l1.3,4.3c0,0,0-4,1.4-5.1s5.7-2.4,5.7-2.4v4l3.5-5.4l-0.1,3.5C-586.4,2658.5-583,2653.6-583,2653.6
	L-583,2653.6z"/>
<path fill="#705A4A" d="M-550.2,2653.6c0,0-7-2.4-8.3-2.7c-1.3-0.2-1.3-0.2-1.3-0.2l2.1,4c-1.4-1.6-3.4-3.8-4-5.6
	c7.6,1.5,26.7,5.3,37,13.1c6.1,4.6,11.7,22.4,11.8,22.4c0.2,3.3,0.3,5,0.2,7c-0.4,4.5-4.1,5.9-5.6,11.4s2.4,6.6,3.5,11.4
	s-0.4,3.8-2.3,8.9c-0.8,2.1-0.8,3.8-0.7,5.1c-0.6-2.2-1-5.3,0.3-7.6c2.3-4,0.7-6.1-1.8-13.1s0.8-7.9,2.4-13.2s0.3-8.2,0-11.9
	s-2.6-7.8-2.6-7.8s0,0-0.7,2.3s0,5.6,0,5.6s-1.1-3.2-1.3-3.8c-0.2-0.7,1.1-6.6-0.4-9.7s-2.8-1.5-2.8-1.5c-0.9,1.8-0.8,6.4-0.2,8.8
	c0.5,1.9,0.1,5.3-0.1,6.7c0.1-1.1,0.2-3.4-0.7-5.5c-1.2-2.9-1.4-7-0.7-9.3s-0.9-4.2-2.3-5.8s-5.4-2.7-5.4-2.7l-1.3,4.3
	c0,0,0-4-1.4-5.1s-5.7-2.4-5.7-2.4v4l-3.5-5.4l0.1,3.5C-546.9,2658.5-550.2,2653.6-550.2,2653.6z"/>
<path fill="#705A4A" d="M-571.2,2654.7c-1.2,5.7-4.1,5.8-4.1,5.8l0.5-4l-1.3,4.6c0.7-0.2,1.4-0.3,1.8-0.4c4.1-0.6,4.6-11.9,4.6-11.9
	s-0.4,0.1-1.1,0.2C-570.7,2650.3-570.7,2652.2-571.2,2654.7L-571.2,2654.7z"/>
<path fill="#594432" d="M-629.2,2747.2v3.3c0,0-4.5-0.7-5.9-4.7c-1.4-4.1-3.2-6.3-3.2-6.3l-6.1-6v1.2c0,0-4.6-1-4.9-4.9s0-4.8,0-4.8
	l-3.5-4.1c0,0,8.7-5.6,9.1-5.5s11,0.5,11,0.5l9.6,4.4L-629.2,2747.2z"/>
<path fill="#705A4A" d="M-601.4,2694.1c-0.1-3.9-1-12.4,0.6-18.5s-2.1,3.7-2.3,10.6s-0.2,10.7,1.5,12.8c1.6,2.1-0.1,6.4-0.5,9
	s2.7,4.6,1.6,7.3c0,0,0.7-0.2,0.2-3s-1.6-2.6-1-4.8s1.9-5.5,1.2-8.1C-600.9,2696.6-601.3,2698-601.4,2694.1z"/>
<path fill="#493627" d="M-653.9,2702.2c0,0-0.1,0.1-0.2,0.3c-0.5,0.8-1.6,3-1.8,5.2c-0.3,2.8,0.1,8.8,2.5,11.5c0,0-0.1,4.1,3.3,7.1
	c0,0-0.5,4.3,0.9,5.5c1.4,1.3,4.1,3.6,4.3,6.3l0.9-3.3c0,0,1.2,5.2,6.4,8.3c0,0,1.2,5.3,4.6,6.7c3.5,1.4,3.3,3.3,3.2,5.4
	c-0.1,2.2,1.8,2.9,1.8,2.9s-1.8-1.2-1-3.1c0.7-2,2.4-5.1,1-8.7s-1.8-5.8-1.1-7.9c0,0-1.7,2-1.3,5.6s0.2,4.9,0.2,4.9
	s-4.5-2.5-4.9-5.3c-0.4-2.7-0.5-5.2,1.2-9.1c1.8-3.9,4.9-7,3.5-13.8c0,0,0.1,3.5-0.3,6s-5.7,7-6.3,12.5c0,0-4-1.6-5.8-5.9
	c0,0-0.6-5.7,2.9-11.6c0,0-4.4,4-5.1,12.1c0,0-2.6-1.6-3.2-3.8s0.1-4.9,1.8-8c0,0-2.2,0.8-2.7,2.3c0,0-2.6-1.2-2.6-4.2
	s3.7-4.5,5.2-7.1s-0.3-5.9-0.3-5.9s0.9,3-0.5,4.8c-1.4,1.9-4.1,3.1-5.1,4.8c0,0-2-1.9-2.2-6.4S-653.9,2702.2-653.9,2702.2
	L-653.9,2702.2z"/>
<path fill="#594432" d="M-523.7,2762.9l-1.1,3.9c0,0,5.5,0.8,8.6-3.5c3-4.3,6-6.3,6-6.3l9.3-5l-0.4,1.5c0,0,5.7,0.4,7.5-4.1
	c1.7-4.5,1.7-5.7,1.7-5.7l5.6-3.7c0,0-8.3-9.6-8.8-9.7s-13.1-3.2-13.1-3.2l-12.8,1.9L-523.7,2762.9z"/>
<path fill="#493627" d="M-479.1,2718.5c0,0,0,0.2,0.1,0.5c0.3,1.1,0.8,4.1,0.3,6.7c-0.7,3.4-3.1,10.4-7,12.7c0,0-1.3,4.9-6.4,7.2
	c0,0-0.9,5.2-3,6.2s-6.1,2.8-7.2,5.9l0.1-4.1c0,0-3.2,5.7-10.4,7.5c0,0-3.2,5.8-7.8,6.3s-5,2.7-5.6,5.3s-3.2,2.8-3.2,2.8
	s2.5-0.7,2.3-3.3s-1-6.9,1.8-10.6s4.2-6.1,4-8.9c0,0,1.3,2.9-0.4,7s-2,5.7-2,5.7s6.2-1.4,7.7-4.5c1.4-3.1,2.4-5.9,1.7-11.1
	s-3.4-10,0.7-17.5c0,0-1.3,4.1-1.7,7.1s4.3,10.2,3,16.9c0,0,5.3-0.5,8.8-4.9c0,0,2.7-6.5,0.6-14.7c0,0,3.8,6.2,1.8,16.1
	c0,0,3.6-1,5.1-3.4c1.5-2.3,1.6-5.8,0.6-10c0,0,2.3,1.7,2.4,3.7c0,0,3.5-0.4,4.6-4s-2.8-6.6-3.7-10.2c-0.9-3.5,2.4-6.8,2.4-6.8
	s-2.2,3.2-1.1,5.9s3.8,5.1,4.4,7.5c0,0,3-1.5,4.8-6.7C-479.5,2723.5-479.1,2718.5-479.1,2718.5L-479.1,2718.5z"/>
<path fill="#493627" d="M-642.9,2668.7c-2.5,3.5-4.7,7.6-5.7,11.8c-1,4.3-0.2,9.2-1.9,13.4c-1.3,3.8-3.5,7.1-4.6,10.9
	c-1.4,4.9-0.5,10.3,2.4,14.5c-3.1-4.1-4.2-9.6-3-14.6c1-3.8,3.1-7.3,4.2-11.1c1.5-4.4,0.4-8.9,1.3-13.4c1-4.6,3-8.8,5.6-12.7
	c0.3-0.5,0.9-0.6,1.4-0.3C-642.6,2667.6-642.5,2668.2-642.9,2668.7L-642.9,2668.7z"/>
<path fill="#493627" d="M-657,2699.1c-0.6,7.8-1.8,7.5-1.8,7.5s-4.7,1.9-5.3-4.2s0-23.8,0-23.8s-5.7,12-5.7,20.2
	c0,0-8.2-24.2,5.7-49.7c0,0-17.3,9.9-9.2,61.1c8.5,4,15.7,4,15.7,4S-657.4,2708.5-657,2699.1z"/>
<path fill="#493627" d="M-659.7,2707.6c0,0-0.6-19.8,0.9-31.1c1.5-11.2,3.7-21.1,3.7-21.1s-5.8,2.7-8.3,8.6c0,0-0.8-10.9,2.7-17.8
	l-6.2-10.5l7.9-11.6l9.2,12.2l8.1,18.6v4.6c0,0-8.3,17.4-8.5,31.6c-0.2,8.4-8.2,17.4-8.2,17.4L-659.7,2707.6z"/>
<path fill="#493627" d="M-643,2661.5c0,0-4.4,12.8-4.1,25.4c0.2,12.7,4.1,16.1,4.1,16.1s-1.4-11.1-0.4-15.4s5-8.8,6.2-10.6
	c1.1-1.9,2.8-7.9,2.8-7.9l5,5.5c0,0-2,0.1-1.8,6.9s1.7,9.1-1.6,12.4s-2.5,11.7-2.5,11.7s-0.3-5.4,2.2-8.6s4.6-4.1,4.6-6.3
	s-0.8-6.8-0.3-7.4s2.8-1.3,3.2,0.5c0.3,1.8-1.2,4.8-0.8,9.7s3.2,5.3,2.2,9.6c-1.1,4.3-3,8.7-1.5,14.3c0,0-0.8-5.8,1.7-10
	s3.8-4.4,3.2-7.6s0.2-8.8,0.2-8.8l1.6-9.5c0,0-9.6-8.2-14.9-20.1c-5.2-11.9-5.8-12.3-5.8-12.3L-643,2661.5z"/>
<path fill="#594432" d="M-578,2703.4c0,0-0.1,7.4,2.6,10.5l1.2-5.4c0,0,1.8,12.8,8.8,12.8c5.3,0,8.3-7,9-12.7c0,0,1.2,3.4,1.6,9.1
	c0,0,1.9-4.2,2.8-8.6c0,0,0.5-0.5,0.5,1.8c0,0,2.4-2.5,2-8.9c0,0-4.3-14.5-9.6-3.5c0,0,0.1,2.1-0.9,2.5s-1.5-0.7-1.5-0.7l-0.5,4.1
	l-0.5-1.5c0,0-1.3,2-2.2,0.5s-1.4-4-1.4-4l0.4,3.2c0,0-1.7-1-2.1-4.2c0,0-3.5-5-6.6-3.1C-577.1,2697.3-578,2703.4-578,2703.4
	L-578,2703.4z"/>
<path fill="#493627" d="M-555.8,2724.5l1.3-4.3c0,0-5.6,7-11,6.8s-8.8-8.6-8.8-8.6l-1.3,0.8c-2.8-1.3-3.6-4-3.7-6.8
	c-0.2,2-3.3,28.6,1.4,40.9c5,12.8,6.3,13.6,6.3,13.6s-0.1,6.6,2.4,9.6s4.9,3.5,4.9,3.5s-6.3-8-4.9-33.8c0,0,0.7,21.7,4.9,28.7
	s6.2-16.5,6.2-16.5s1.3,10.2,0,18.5c0,0,3.8-4.5,4-15.4c0,0,2.2,0.7,2.5,5.1c0,0,3-14.2,3.1-23.7l-0.8-26.2
	C-551.3,2723-555.8,2724.5-555.8,2724.5L-555.8,2724.5z"/>
<path fill="#705A4A" d="M-579.2,2709.9c-0.1,3.3,0.6,7.3,3.8,8.8l-0.9,0.4l0.7-2.8l0.7-2.7c1.1,5.1,3.5,12.1,9.5,12.5
	c4.8,0.4,9-2.9,9.8-7.7l0.9-4.9c0.4,3.5,1.9,8.1-0.1,11.4l-0.9-1c3.5-1.6,5.4-5.5,5.8-9.2c0.8-0.4,0.6,1.1,0.6,1.5
	c0-0.4-0.1-0.9-0.3-1.3c-0.1-0.1-0.2-0.1-0.2-0.1c0.4,3.6-1.7,8.5-5.5,10.3l-2,1l1.2-2.1c0.8-1.5,0.6-3.7,0.4-5.4h1.7
	c-0.7,5.7-5.9,10-11.7,9.4c-5.8-0.3-9.1-6.2-10-11.4l1.4,0.1c-0.2,0.5-1,3-1.1,3.5C-579.1,2718.3-580,2713.7-579.2,2709.9
	L-579.2,2709.9z"/>
<path fill="#705A4A" d="M-572.5,2697.1c-0.3,0.9-1,3.1-1.3,4c-0.1,0.4-0.2,0.7,0.2,0.9c1.3,0.6,2.7,2,2.2,3.7
	c-0.3,0.9-1.2,1.4-1.3,2.3c-0.1,1.4,1,2.9,0.1,4.4c-0.3,0.5-0.6,0.6-0.7,1c-0.3,1.3,0.6,2.3,0.1,4.1l-1.9-0.6
	c0.4-0.9-0.3-2.9,0.3-4.1c0.2-0.5,0.7-0.9,1-1.2c0.6-0.7-0.3-2.6,0-3.8c0.2-1.1,1.2-1.6,1.6-2.4c0.4-1.2-0.7-2.3-1.7-3
	c-0.2-0.1-0.5-0.4-0.5-0.7s0.1-0.6,0.2-0.8C-573.8,2700.1-572.8,2698-572.5,2697.1L-572.5,2697.1z"/>
<path fill="#705A4A" d="M-566.4,2700.9c0.7,2.2,1.5,4.6,0.4,6.9c-0.5,1.1-1.3,2-1.5,3c-0.3,1-0.1,2.2,0.1,3.2
	c0.7,3.2,4.6,6.6,2.6,10.2c-0.3,0.8-0.7,1.7-0.3,2.3l-1.6,1.2c-1-1.4-0.3-3,0.3-4.2c0.5-1,0.8-1.6,0.5-2.7c-1-3-3.5-6.6-2.3-10.1
	c0.4-1.2,1.3-2.1,1.8-3C-565.3,2705.5-565.9,2703.1-566.4,2700.9L-566.4,2700.9z"/>
<path fill="#705A4A" d="M-562.7,2730.2c1.7-2.8,2.3-5.9,1.6-9.1c-0.4-2.5-1.5-4.6-2.1-7.1c-0.1-0.9,0.1-1.8,0.5-2.6
	c0.1,0.9,0.2,1.7,0.5,2.4c1.2,2.1,2.7,4.4,3.1,7C-558.4,2724.2-559.7,2728.3-562.7,2730.2L-562.7,2730.2z"/>
<path fill="#705A4A" d="M-501,2728.4c-0.4-1.7-1.1-3.2-1.4-5c-0.3-2.2-0.1-4.4,0.2-6.5c0.1-0.6,0.1-1.7,0.1-2.3
	c0.1-4.6-2.6-8.8-2.6-13.5c0.3-4.4,1.8-8.5,3.7-12.4c-0.4,4.2-1.2,8.2-1.1,12.3c0.2,2.4,1.2,4.5,1.9,6.9c0.7,2.5,1.1,5.4,0.7,8
	c-0.1,0.6-0.4,1.9-0.6,2.5c-0.4,1.6-0.8,3.2-0.8,4.8C-501,2724.9-500.7,2726.7-501,2728.4L-501,2728.4z"/>
<path fill="#705A4A" d="M-486.9,2708.1c-0.5-1-1.1-1.8-1.6-2.8c-0.9-1.9-0.9-4.2-1.8-6c-1.2-2.9-4.3-5-4.8-8.3
	c-0.5-2.2-0.6-4.3-0.7-6.4c0-0.5,0.4-0.9,0.9-0.9c0.4,0,0.8,0.3,0.9,0.6c0.4,1.3,1,2.6,1.6,3.8c1,1.8,2.2,3.5,3.9,4.5
	c2.1,1.1,4,2.9,4.5,5.3c0.4,1.8,0.2,3.4,0.2,5.1c0,1.2,0.7,2.1,1.3,3.1c1.8,2.3,2.9,5.4,2.4,8.3c0-1.5-0.3-2.9-0.8-4.2
	c-0.8-2.1-2.6-3.4-3.7-5.4c-0.4-0.7-0.5-1.6-0.5-2.4c0.1-3-0.4-6.2-3.4-7.7c-1-0.5-2-1.2-2.8-2c-2.2-2.2-3.5-5-4.4-7.9l1.8-0.3
	c0.2,3,0,6.2,1.5,8.9c1.1,1.8,2.5,3.5,3.2,5.6c0.7,2,0.5,4.3,1.1,6.3C-487.8,2706.2-487.2,2707.1-486.9,2708.1L-486.9,2708.1z"/>
<path fill="#30231A" d="M-475.8,2620.9c0,0-2,8.4-2.1,14.5s2.1,12.7,3.7,16.3s6.9,9,7.5,15.3c0,0,1.3-4.9-0.8-11.6
	c-2.2-6.7-3.7-9-4.6-12.7s0.3-10.6,0.3-10.6l8.5,10.6C-463.5,2642.7-472.9,2627.6-475.8,2620.9z"/>
<path fill="#38291E" d="M-559.8,2732v30.2c0,0,4-9.1,4-14.8c0-5.8,1.3-11.7,1.3-11.7s1.3,7.3,1.3,9.7v5.8c0,0,2.2-3.1,2-10.4
	s-1.5-11.7-0.9-14.6c0,0-2,0.9-3.4,4.6c-1.4,3.8-2.1,9.7-2.1,9.7L-559.8,2732z"/>
<path fill="#30231A" d="M-652,2600.6c-1.3,2.6-3,5.4-5.1,8.2c-7.2,9.7-24.2,27-24.2,27s5.3-2.2,16.4-10.3c5.1-3.7,10.4-8.4,14.6-12.5
	c-0.7-3.6-1.3-7.3-1.9-11.1C-652,2601.5-652,2601-652,2600.6L-652,2600.6z"/>
<path fill="#705A4A" d="M-587.4,2775.5c-4.8-1.4-8.4-8.5-8.8-13.3c-0.3-2.7,0.3-5.4,0-8.1c-0.2-2.6-0.6-5.2-1.2-7.7l1.7-0.3
	c0,2.4-0.1,4.8-0.9,7.2c-0.2,0.5-0.6,1.1-0.9,1.6c-0.6,1-1.9,3.6-2.5,4.6c0.6-2.3,1.5-4.4,2.3-6.6c0.8-3.8,0-9.4-0.1-13.3
	c1.4,4.4,3.4,9.8,3.6,14.4c0.3,2.7-0.3,5.4-0.2,8.1c0.1,2.6,0.8,5,2,7.4S-589.8,2774.3-587.4,2775.5L-587.4,2775.5z"/>
<path fill="#705A4A" d="M-606.1,2731.8c-0.5,4.7-1.2,9.3-1.8,13.9c-0.3,3.9-1.8,9.3,2.1,11.7l5.5,2.6l-5.9-0.7c-5.7-0.6-9.3-3.7-9-9.7
	c0.2-4.7,2.5-8.7,3.1-13.3c0.4,8-6.4,19.6,6.1,21.1l-0.4,1.9c-5.3-2.9-3.8-9.1-3-13.8C-608.5,2740.8-607.4,2736.2-606.1,2731.8
	L-606.1,2731.8z"/>
<path fill="#705A4A" d="M-548.4,2774.2c2.3-2.3,3.6-5.5,3.8-8.7l0.3-3.5c1,2.6,2.1,5.8,2,8.6c0,1.8-0.2,3.5-0.7,5.2l-1.4-1.1
	c5.4-4,4.8-11.4,4.1-17.3c-0.3-2.8,0.7-5.5,1.9-7.9c0.6-1.2,1.2-2.5,2.2-3.3c-0.8,1-1.1,2.4-1.6,3.6c-0.8,2.5-1.5,4.9-1,7.5
	c1.5,6.6,1.6,14.9-4.6,19.1l-2.2,1.5l0.7-2.6c0.9-3,1.1-6.4,0.3-9.4l1.5-0.2C-543.6,2769-545.4,2772.4-548.4,2774.2L-548.4,2774.2z"
	/>
<path fill="#493627" d="M-682.9,2574.3c3.8-9.7,6.8-19.7,9-29.8c3.2-14.7,5-31.5,8.7-46.1c2.2-8.1,4.1-16.3,12.9-19.5
	c4.9-2,10-2.9,14.2-6c2.1-1.5,3.8-3.4,5.4-5.5c-1.2,2.3-2.8,4.4-4.8,6.2c-3.9,3.6-9.3,5-13.9,7.2c-2.2,1.1-4.3,2.5-5.8,4.3
	c-2.8,4.1-3.9,9.3-5.1,14.1c-3.5,15.2-5.2,30.7-9.2,45.9C-674.3,2555.2-678,2565.1-682.9,2574.3L-682.9,2574.3z"/>
<path style="{opacity:0.8;fill:#0071B7;enable-background:new    ;}" d="M-490,2902l5-38l0.3-1.2l14.5,39.2h17.8l-28.5-82.9c-12.1,1.3-22.5,10.2-27.4,32.7
	c-3.6,16.8-7.5,38.9-9.4,50.3h27.7V2902z"/>
<path style="{opacity:0.8;fill:#0071B7;enable-background:new    ;}" d="M-658.9,2902l14.5-39.2l0.3,1.2l5,38h27.6c-1.9-11.4-5.8-33.5-9.4-50.3c-4.9-22.5-15.3-31.4-27.4-32.7
	l-28.5,82.9h17.9L-658.9,2902z"/>
<path fill="#18689E" d="M-665.9,2772.4l0.1,0.5c0,0,1.3-0.1,3.3,1.6c5.6,4.9,15.3,23,17.7,89.6h0.1l0.4-1.1l0.2,1h0.3
	c-2.4-67.3-12.4-85.6-18.2-90.4c-1.2-1-2.2-1.4-2.9-1.6L-665.9,2772.4z"/>
<path fill="#0084C6" d="M-426.3,2902h9.5l-46.4-129.8l-40.2-15.9l-6.3,7.7l39.4,14.8L-426.3,2902z"/>
<path fill="#18689E" d="M-463.2,2772.4l-0.1,0.5c0,0-1.3-0.1-3.3,1.6c-5.6,4.9-15.3,23-17.7,89.6h-0.1l-0.4-1.1l-0.2,1h-0.3
	c2.4-67.3,12.4-85.6,18.2-90.4c1.2-1,2.2-1.4,2.9-1.6L-463.2,2772.4z"/>
<g>
	<path fill="#E2C1B5" d="M78.4,466.9l17.8-51.4c0,0,9.2,15.1,16.5,51.4h126.4c7.3-36.3,16.5-51.4,16.5-51.4l17.8,51.4h38.8L264.5,342
		c0,0-1.6-3.3-24.5-10.9s-36.3-16-36.3-32.3c0-16.2,0-42.8,0-42.8h-27.5H176h-0.2h-0.2h-27.5v42.8c0,16.3-13.4,24.7-36.3,32.3
		S87.3,342,87.3,342L39.6,466.9H78.4z"/>
	<path fill="#007BC7" d="M84.5,466.9L99,427.7l0.3,1.2l5,38h149.1l5-38l0.3-1.2l14.5,39.2h53.4l-46.4-129.8l-62.4-24.7l-39,53.1
		l-39-53.1l-62.3,24.7L31.1,466.9H84.5z"/>
	<path fill="#F2DDCB" d="M280.8,142.6c0,79.3-35.2,134.2-103.6,134.2c-68.3,0-106.3-55.6-106.3-134.9S110,24.6,178.3,24.6
		C246.7,24.5,280.8,63.3,280.8,142.6L280.8,142.6z"/>
	<path fill="#A1A7A8" d="M149.1,179.5c0,10.9-8.9,19.7-19.9,19.7s-19.9-8.8-19.9-19.7s8.9-19.7,19.9-19.7S149.1,168.6,149.1,179.5z"/>
	<path fill="#2A1D01" d="M144,179.5c0,7.6-6.2,13.8-13.8,13.8s-13.8-6.2-13.8-13.8s6.2-13.8,13.8-13.8S144,171.9,144,179.5z"/>
	<path fill="#FFFFFF" d="M124.4,172.4c0,2.2-1.8,4-4,4s-4-1.8-4-4s1.8-4,4-4C122.7,168.4,124.4,170.2,124.4,172.4z"/>
	<path fill="#A38276" d="M136.5,229c12.1,7.3,25.1,11.9,38.2,11.7c13.2,0,25.9-5.1,38.5-11.7c-4.6,5.5-10.4,10-17,13.2
		c-6.6,3.3-14,5.1-21.5,5.2c-7.5,0-15-1.7-21.5-4.9S140.7,234.8,136.5,229z"/>
	<path fill="#A1A7A8" d="M202.6,179.5c0,10.9,8.9,19.7,19.9,19.7s19.9-8.8,19.9-19.7s-8.9-19.7-19.9-19.7S202.6,168.6,202.6,179.5z"/>
	<path fill="#2A1D01" d="M207.7,179.5c0,7.6,6.2,13.8,13.8,13.8s13.8-6.2,13.8-13.8s-6.2-13.8-13.8-13.8
		C213.8,165.7,207.7,171.9,207.7,179.5z"/>
	<path fill="#FFFFFF" d="M208.5,172.4c0,2.2,1.8,4,4,4s4-1.8,4-4s-1.8-4-4-4C210.2,168.4,208.5,170.2,208.5,172.4z"/>
	<path fill="#0084C6" d="M118.9,320.7L77.7,337c4.4,1.2,7,6.4,7,6.4l2.8,6.5l41.5-16.1L118.9,320.7z"/>
	<path fill="#18689E" d="M178.8,396.7l-60.2-75.3l0.8-0.7l59.4,74.4l60.8-74.2l0.8,0.7L178.8,396.7z"/>
	<path fill="#594432" d="M270.2,100.8l-3.8,1.2c7.1,18,6.6,80.6-18.7,127.2c-3.7,7.6-10.1,14.5-17.1,20.3c-4.1-5.7-5-16.5-11.6-22.1
		c-11.3-9.4-38.7-13.7-38.7-13.7s0.5,11.3,4.6,11.9s19.5,6,23.8,9.8c5.3,4.7,3.3,19.6,3.3,24.3c0,0.6-0.1,1.2-0.2,1.8
		c-9,4.3-16.3,5.7-17.4,3c-0.6-1.5-2.4-7.8-5.5-9.4c-1-0.5-5.3-0.9-7-0.9c-1,0-1.8,0.1-2.6,0.4c-0.8-0.2-1.6-0.4-2.6-0.4
		c-1.6,0-5.9,0.3-7,0.9c-3.1,1.6-5,8-5.5,9.4c-1.2,3.3-11,0.8-22.1-5.4c-0.1-5.3-1.7-19.1,3.3-23.6c4.2-3.8,19.7-9.2,23.8-9.8
		s4.6-11.9,4.6-11.9s-27.4,4.3-38.7,13.7c-5.7,4.8-7.2,13.5-10.1,19.5c-5.8-5.2-10.9-11.2-14.1-17.7
		c-25.3-46.6-24.3-108.5-17.2-126.5l-6-3c0,0-30.8,33.7-26.3,71.5c3.5,29.9,8,72.3,22.5,103.7c1.5,3.2,3.7,5,5.4,8
		c2.7,4.6,5.1,10.3,8.4,14.2c17.2,20.2,30.1,28.4,40.6,31.4c9.3,6.7,11.8,19.7,41.1,19.7s31.8-13,41.1-19.7
		c10.4-3,23.4-11.2,40.6-31.4c25.9-30.3,21.8-88,26.2-125.8C291.6,133.4,270.2,100.8,270.2,100.8L270.2,100.8z"/>
	<path fill="#493627" d="M286.5,173.1l-14.9-16.3c-2.2,11.5-5.2,23.6-9,35.2v0.1c-2.5,9-6.7,19-9.7,25.5c-0.8,1.9-1.7,3.7-2.6,5.5
		c-0.4,0.8-0.6,1.3-0.6,1.3s0.4,18.9,9.9,30.3c0,0-6.9-13-6.9-20.9s5-12.2,5-12.2s0.4,9.3,5.3,17.3c4.8,8,13.2,27.2,8.6,39.5
		C284.9,247.4,283.1,204,286.5,173.1L286.5,173.1z"/>
	<path fill="#594432" d="M230.1,71.3c0,0,18.6,4.8,22.8,23.4c2.8,12.2,2.4,51.3,12.1,83.7c5.1,17.1,18.8,34.4,18.8,34.4
		s-1.2,4.1-3,30.7c0,0,25.8-3.1,19.9-33.9c0,0,9.8-11,8.8-31.7c-1.4-29.2-18-42.9-22.3-59.1c-10.6-40-11.7-68.1-25.4-72.6
		c-18.3-6.1-19.3,0.1-19.3,0.1L230.1,71.3z"/>
	<path fill="#493627" d="M291.8,264.8c-0.6-5,3.8-8.7,6.5-12.2c10.7-12.4,5.6-25-3.5-36.5c-6.1-7.2-10.5-15.7-14.4-24.2
		c-3.9-8.6-7.1-17.4-9.5-26.5l0.3-0.1c4,13.4,9.8,26.3,17,38.3l1.8,3c1.8,3,4.2,5.4,6.5,8.2c4.5,5.4,9.3,11.5,10.4,18.8
		c1.1,7.4-2.2,14.8-7.3,20c-3,3.4-7.4,6.2-7.5,11.2H291.8z"/>
	<path fill="#493627" d="M284.2,124c5.4,17,13.5,21.5,13.5,21.5s9.1,17.7,9.8,29.6c0.8,11.9-4.2,23.5-4.2,23.5s-0.2-2.1-2.8-7.1
		c-4.8-9.2-13.6-9.1-21.2-23.8s-14.5-46.8-14.5-46.8c8.1,55.9,15.1,57.6,25.1,70.1c10.9,13.6,11.4,22.7,11.4,22.7
		s10.5-10.4,10.8-31.1c0.2-14.6-7.1-28.6-13.8-41c-1.6-0.6-3.2-1.7-4.3-2.7C287.5,133.5,284.2,124,284.2,124z"/>
	<path fill="#38291E" d="M281.3,236.4c0,0,7-2.8,8.1-8.4s-1.6-9-5.6-15.1L281.3,236.4z"/>
	<path fill="#705A4A" d="M277.2,102c0,0-1.8-28.1-9.8-37.9c-8-9.9-15.6-8.7-15.6-8.7s8.7-3.2,16.8,4.2c-2.7-4.3-5.8-7.1-9.7-8.4
		c-3.7-1.2-6.8-1.9-9.5-2.2c-3.4,1-6.9,2.1-8.2,3c-3,2-4.5,6.4-4.5,6.4s2.8-3,7.2-3.2c4.3-0.3,4.3-0.3,4.3-0.3s-8.7,3.2-10.8,4.9
		c-2.1,1.8-4.9,10.4-4.9,10.4s2.4-3.6,4.6-4.8c0,0,5.4-3.9,14.3-3.7c8.9,0.2,14.6,4.8,18,11.7C272.9,80.3,277.2,102,277.2,102
		L277.2,102z"/>
	<path fill="#705A4A" d="M268.2,91.6c2.8,12.6,5.8,25,8.7,37.5c2.3,10.2,3.7,21.1,9.8,29.8c3.7,5.2,7.9,10.2,11.2,15.7
		c2.3,3.7,4.2,7.6,6,11.5l-2.5,0.4c0.3-2.2,0.6-4.5,0.8-6.7c0.4-6.7,1-13.7-1.4-20.1l0.3-0.1c1.2,2,1.9,4.3,2.4,6.5
		c1.7,8.2,1.1,16.7,0.2,25c-2.7-5-5.4-10.2-8.4-14.9c-4.4-7.4-10.4-13.8-13.9-21.7c-3.5-8-4.5-16.7-6.1-25.1
		c-2.5-12.6-5-25.2-7.3-37.8C267.9,91.7,268.2,91.6,268.2,91.6L268.2,91.6z"/>
	<path fill="#594432" d="M235.6,72.4c0,0-40.6-5.6-65.8-5.6s-40-0.2-51.5,10.1c-11.9,10.6-22.9,46.3-25,65.7
		c-3.5,32.1-7.5,136.6-7.5,136.6s-35.4,0-41.9-44c-3.2-21.8,11.3-47.4,12.1-83.6S40.3,121.9,75.9,49.4c8-16.3,59.6-76,95.7-30.6
		c4,0.4,24.9-7.6,53.5,4.5c22.7,9.6,19.5,21.4,19.5,21.4L235.6,72.4z"/>
	<path fill="#594432" d="M60.5,121.9c3.4,10.9-4.1,31.3-10.2,49c-6.1,17.8-25.3,43.5-25.8,62.7c-0.4,19.2,3.9,26.2,3.9,26.2
		s-6.1-27,3.5-41c0,0-6.5,18.8,2.6,37.1c9.2,18.3,23.1,29.2,17.5,39.7c-5.7,10.5-10.9,10.5-10.9,10.5s9.2,1.7,14-7
		s4.8-18.5,1.7-24.3s-11.3-18.9-7.9-30.3c3.5-11.3,14.4-6.4,14.4-6.4l2.3,34.9c0,0-3.2,7.3,7.7,18.2c0,0-4.8-6.2-2.4-16.5
		s9.1-98.5,9.1-98.5L60.5,121.9z"/>
	<path fill="#705A4A" d="M76.6,89.1c0,0-7.6,45-32,83.3c-12,18.8-18.1,31.9-15,41.7c0,0,3.7-6.6,12.4-25
		C52,167.8,71.5,152.7,76.6,89.1z"/>
	<path fill="#705A4A" d="M73.4,61.8C88,38.4,113.2,7.5,142.6,5.2c6.6-0.5,12.9,2.5,17.3,7.3c4.4,4.5,7.9,9.8,10.7,15.3
		c2.9,5.6,5.1,11.3,6.8,17.4c0.3,1-0.3,2-1.3,2.3s-2-0.3-2.3-1.3c-4-12-13.3-22.8-25.6-26.7c-4-1.3-8.2-1.9-12.1-0.9
		c-8.5,2.1-13.2,10.8-18.7,17.1c-5.9,6.8-13.1,13.3-22,15.4l-0.1-0.4c8.4-3,14.8-9.7,20.2-16.6c5.5-7.3,10.2-16.4,19.7-19.1
		c4.8-1.4,9.9-0.8,14.3,0.6c9.1,2.7,16.8,9,21.9,16.9c2.6,4,4.6,8.1,6,12.7l-3.6,0.9c-1.4-5.7-3.5-11.4-6.2-16.8
		c-2.6-5.4-5.9-10.4-9.9-14.8c-8.1-9.7-19.7-7.3-30.2-3.3c-17.6,7.3-31.3,21.4-43.2,35.9c-3.8,4.8-7.4,9.7-10.7,14.8L73.4,61.8z"/>
	<path fill="#705A4A" d="M162.9,62.5c-2.6-10.9-9.2-31.1-23.1-30.2c-4.7,0.4-8.8,3.1-12.3,6c1.8-1.6,3.5-3.1,5.6-4.3
		c12.7-7.9,22.6,3.5,27.7,14.4c2.1,4.3,3.8,8.7,5.1,13.4c0.2,0.8-0.2,1.6-1,1.8C163.9,63.9,163,63.4,162.9,62.5L162.9,62.5z"/>
	<path fill="#493627" d="M106.6,220.9c-6.6-16.7-12.4-33.5-15.3-54c0.7-9.8,1.3-18.3,2-24.3c2.1-19.4,13.1-55.1,25-65.7
		c7.5-6.7,16.3-8.9,28.5-9.7c-12.8-17.7-26.9-14.1-33.4,1.5s-23.8,79.2-31.2,93c-7.4,13.9-29.9,38.1-35.2,54.7
		c-4,12.7-1.2,23.2,1,34.5c1.8,6.3,7.8,13.2,9.4,15c-2.4-11.5-4.8-27.3-2.5-37c3.9-16.6,30.8-32.6,30.8-32.6l4.8,13.1
		c0,0-9.4,15.5-10.4,32.8c0,0,2.6-20,14.3-28.2l4.2,10.8c0,0-11.3,17.9-11.8,31.1c-0.3,6.9-0.9,15.8-1,23.3c0.1,0.1,0.9,1.3,2.3,1.6
		c0.5-10.5,1.8-24.7,3.7-29.8C97.4,234.9,106.7,221.1,106.6,220.9L106.6,220.9z"/>
	<path fill="#493627" d="M225.1,23.3c-2.6-1.1-5.2-2.1-7.7-2.9c0.2,0.1,13.6,7.5,17.8,14.4s4.1,13.5,2.6,19.4s-9.4,15.3-9.4,15.3
		s-34.1-4.4-37.5-8.6c-4-5.1-6.4-14.4-6.4-14.4l4.8,21c22.5,1.5,40.6,6.7,43.7,5.1c7.7-4.1,11.6-26.9,11.6-26.9
		C245.4,41.1,245.1,31.8,225.1,23.3L225.1,23.3z"/>
	<path fill="#493627" d="M177.4,22.4c-0.5-1.5-1.1-2.9-1.6-4.1c-1.9,0.3-3.3,0.6-4.1,0.5c0,0,9.2,16.9,12.2,24.8
		C183.9,43.6,179.8,29.2,177.4,22.4L177.4,22.4z"/>
	<path fill="#493627" d="M208.2,19.8c6.7,2.9,13.4,7.4,16.6,14.2c1,2.3,1.6,4.8,2,7.3c1.1,7.4,0.9,15-0.5,22.3
		c-0.6,2.6-1.1,5.1-2.6,7.4l-2.4-1.7c2.4-3.9,3.1-8.8,3.7-13.3c0.7-7.1,1-14.6-1.4-21.4C220.8,27.8,214.6,23.1,208.2,19.8
		L208.2,19.8z"/>
	<path fill="#493627" d="M212.1,254.9c-0.1,2-0.2,3.7-0.2,4.8c0,0.6-0.1,1.2-0.2,1.8c-9,4.3-16.3,5.7-17.4,3c-0.6-1.5-2.4-7.8-5.5-9.4
		c-1-0.5-5.3-0.9-7-0.9c-1,0-1.8,0.1-2.6,0.4c-0.8-0.2-1.6-0.4-2.6-0.4c-1.6,0-5.9,0.3-7,0.9c-3.1,1.6-5,8-5.5,9.4
		c-1.2,3.3-11,0.8-22.1-5.4c0-1.1-0.1-2.5-0.2-4.2c-0.4,1.2-0.7,2.5-0.7,3.8c0,4,3.7,5.7,2.3,8.5s-2.3,4.6-1.1,9.2s0.2,5,0.4,12.5
		s8.4,10.7,8.4,10.7s-0.7,4.3,1.5,7.8s2.4,11.3,2.4,11.3s1.7-2.8,1.7-10.8s0-9.4,0.4-14.6s3.9-7.5,3.9-7.5s-3,5.4-1.5,12
		s16.4,13.3,16.4,13.3l21.4-2.4c0,0,5.4-8.7,5.2-18c0,0,0.2,8,0,13.9c0,0,6.5-4.3,6.3-24.4c0-0.1,0-0.2,0-0.3
		c1.6,1.2,4.7,4.4,4.6,10c0,0,0.7-8.6,0-16.5C212.6,265.6,212.1,254.9,212.1,254.9L212.1,254.9z"/>
	<path fill="#493627" d="M260.3,80.7c-0.3-11.3-6-15.8-14.1-14.5c-5.6,0.9-11,4.8-13.5,6.7c5.8,3.9,17.4,9.1,20.3,21.9
		c2,8.9,2.4,32.2,6.2,56.7C256.5,130.3,260.5,91.1,260.3,80.7L260.3,80.7z"/>
	<path fill="#493627" d="M260,156.9c0,0.2,0.1,0.5,0.1,0.7C260.1,157.4,260.1,157.2,260,156.9z"/>
	<path fill="#493627" d="M122.1,312.4c0,0-0.1-0.1-0.1-0.3C121.9,312.6,122.1,312.4,122.1,312.4z"/>
	<path fill="#493627" d="M122.9,248.2c0,0-1.8,9.2,0,13.4s3.1,5.5,1.6,8.7s-2.3,9-0.7,14.8s4.8,5.7,0.7,15c-3.3,7.6-2.8,10.9-2.5,12
		c0.1-0.5,0.4-1.8,1.5-4.9c2.2-5.9,5.3-15.8,4.4-19c-0.8-3.2-3.6-5.5-1.8-10.1c1.8-4.7,3.7-5.7,3.1-10.2s-2.8-2.6-3.7-10.9
		c-0.3-2.5-0.4-6.1-0.5-10c0,0.1-0.1,0.2-0.1,0.3c-5.8-5.2-10.9-11.2-14.1-17.7c-0.6-1.1-1.2-2.3-1.8-3.5c-0.3,2.2-0.6,5.8,0.3,7.6
		C110.6,236.3,122.9,248.2,122.9,248.2L122.9,248.2z"/>
	<path fill="#493627" d="M235.5,248.2c0,0,1.8,9.2,0,13.4s-3.1,5.5-1.6,8.7s2.3,9,0.7,14.8s-4.8,5.7-0.7,15c3.3,7.6,2.8,10.9,2.5,12
		c-0.1-0.5-0.4-1.8-1.5-4.9c-2.2-5.9-5.3-15.8-4.4-19c0.8-3.2,3.6-5.5,1.8-10.1c-1.8-4.7-3.7-5.7-3.1-10.2s2.8-2.6,3.7-10.9
		c0.3-2.5,0.4-6.1,0.5-10c0,0.1,0.1,0.2,0.1,0.3c5.8-5.2,10.9-11.2,14.1-17.7c0.6-1.1,1.2-2.3,1.8-3.5c0.3,2.2,0.6,5.8-0.3,7.6
		C247.8,236.3,235.5,248.2,235.5,248.2L235.5,248.2z"/>
	<path fill="#705A4A" d="M200.4,19.8c6.8,2.9,12.9,8.2,16.1,14.9c1.5,3.1,1.9,6.7,1.4,10.1v0.1h-0.2v-0.1
		c-2.6-10.9-7.5-19.3-17.5-24.8h-0.1L200.4,19.8z"/>
	<path fill="#705A4A" d="M193.9,21.2c9.9,9.5,23.4,27.1,14.7,41l-0.1,0.1l-0.2-0.1v-0.1c3.4-11.1-1.2-22.7-7.6-31.8
		c-2.1-3.2-4.5-6.2-7.1-9l-0.1-0.1L193.9,21.2z"/>
	<path fill="#705A4A" d="M52.2,272.6C43,259.7,35.6,236.9,37.7,221c1.6-10.9,7.4-20.8,14.1-29.3c6.6-8.6,14.4-16.2,21.4-24.4
		c2.3-2.7,4.4-5.6,6.1-8.8c7.3-12.5,11.8-26.2,16.5-39.8l0.2,0.1c-4.5,13.7-8.8,27.6-15.8,40.2c-3.3,6.5-8.4,11.8-13.2,17.2
		c-13.9,15.4-29.8,33.5-27.4,55.7c1.1,10.7,3.7,21.2,7.9,31.1c1.4,3.3,3,6.5,4.9,9.6H52.2z"/>
	<path fill="#705A4A" d="M135.1,248c0,0.4,0.1,0.6,0.1,0.6S135.2,248.4,135.1,248z"/>
	<path fill="#705A4A" d="M127.9,293.3c-0.4,1.5-0.9,2.6-0.9,2.6S127.7,295,127.9,293.3z"/>
	<path fill="#705A4A" d="M160.4,218.5c0,0,7-2.4,8.3-2.7c1.3-0.2,1.3-0.2,1.3-0.2l-2.1,4c1.4-1.6,3.4-3.8,4-5.6
		c-7.6,1.5-26.9,5.3-36.9,13.4c-5.8,4.7-7.2,13.5-10.1,19.5c-0.1,0-0.1-0.1-0.2-0.1c-0.2,3.3-0.3,6.8-0.1,8.7
		c0.4,4.5,3,6.8,3.9,12.4c0.3,2-3.7,7.6-3.5,12.4c0.2,4.9,0.4,2.8,2.3,7.9c0.8,2.1,0.8,3.8,0.7,5.1c0.6-2.2,1-5.3-0.3-7.6
		c-2.3-4-0.7-6.1,1.8-13.1s-0.8-7.9-2.4-13.2s-0.3-8.2,0-11.9s2.6-7.8,2.6-7.8s0,0,0.7,2.3s0,5.6,0,5.6s1.1-3.2,1.3-3.8
		c0.2-0.7-1.1-6.6,0.4-9.7s2.8-1.5,2.8-1.5c0.9,1.8,0.8,6.4,0.2,8.8c-0.5,1.9-0.1,5.3,0.1,6.7c-0.1-1.1-0.2-3.4,0.7-5.5
		c1.2-2.9,1.4-7,0.7-9.3s0.9-4.2,2.3-5.8s5.4-2.7,5.4-2.7l1.3,4.3c0,0,0-4,1.4-5.1s5.7-2.4,5.7-2.4v4l3.5-5.4l-0.1,3.5
		C157,223.4,160.4,218.5,160.4,218.5L160.4,218.5z"/>
	<path fill="#705A4A" d="M193.2,218.5c0,0-7-2.4-8.3-2.7c-1.3-0.2-1.3-0.2-1.3-0.2l2.1,4c-1.4-1.6-3.4-3.8-4-5.6
		c7.6,1.5,26.7,5.3,37,13.1c6.1,4.6,11.7,22.4,11.8,22.4c0.2,3.3,0.3,5,0.2,7c-0.4,4.5-4.1,5.9-5.6,11.4s2.4,6.6,3.5,11.4
		s-0.4,3.8-2.3,8.9c-0.8,2.1-0.8,3.8-0.7,5.1c-0.6-2.2-1-5.3,0.3-7.6c2.3-4,0.7-6.1-1.8-13.1s0.8-7.9,2.4-13.2s0.3-8.2,0-11.9
		s-2.6-7.8-2.6-7.8s0,0-0.7,2.3s0,5.6,0,5.6s-1.1-3.2-1.3-3.8c-0.2-0.7,1.1-6.6-0.4-9.7s-2.8-1.5-2.8-1.5c-0.9,1.8-0.8,6.4-0.2,8.8
		c0.5,1.9,0.1,5.3-0.1,6.7c0.1-1.1,0.2-3.4-0.7-5.5c-1.2-2.9-1.4-7-0.7-9.3s-0.9-4.2-2.3-5.8s-5.4-2.7-5.4-2.7l-1.3,4.3
		c0,0,0-4-1.4-5.1s-5.7-2.4-5.7-2.4v4l-3.5-5.4l0.1,3.5C196.5,223.4,193.2,218.5,193.2,218.5z"/>
	<path fill="#705A4A" d="M172.2,219.6c-1.2,5.7-4.1,5.8-4.1,5.8l0.5-4l-1.3,4.6c0.7-0.2,1.4-0.3,1.8-0.4c4.1-0.6,4.6-11.9,4.6-11.9
		s-0.4,0.1-1.1,0.2C172.7,215.2,172.7,217.1,172.2,219.6L172.2,219.6z"/>
	<path fill="#594432" d="M114.2,312.1v3.3c0,0-4.5-0.7-5.9-4.7c-1.4-4.1-3.2-6.3-3.2-6.3l-6.1-6v1.2c0,0-4.6-1-4.9-4.9s0-4.8,0-4.8
		l-3.5-4.1c0,0,8.7-5.6,9.1-5.5s11,0.5,11,0.5l9.6,4.4L114.2,312.1z"/>
	<path fill="#705A4A" d="M142,259c-0.1-3.9-1-12.4,0.6-18.5s-2.1,3.7-2.3,10.6s-0.2,10.7,1.5,12.8c1.6,2.1-0.1,6.4-0.5,9
		s2.7,4.6,1.6,7.3c0,0,0.7-0.2,0.2-3s-1.6-2.6-1-4.8s1.9-5.5,1.2-8.1C142.5,261.5,142.1,262.9,142,259z"/>
	<path fill="#493627" d="M89.5,267.1c0,0-0.1,0.1-0.2,0.3c-0.5,0.8-1.6,3-1.8,5.2c-0.3,2.8,0.1,8.8,2.5,11.5c0,0-0.1,4.1,3.3,7.1
		c0,0-0.5,4.3,0.9,5.5c1.4,1.3,4.1,3.6,4.3,6.3l0.9-3.3c0,0,1.2,5.2,6.4,8.3c0,0,1.2,5.3,4.6,6.7c3.5,1.4,3.3,3.3,3.2,5.4
		c-0.1,2.2,1.8,2.9,1.8,2.9s-1.8-1.2-1-3.1c0.7-2,2.4-5.1,1-8.7s-1.8-5.8-1.1-7.9c0,0-1.7,2-1.3,5.6s0.2,4.9,0.2,4.9
		s-4.5-2.5-4.9-5.3c-0.4-2.7-0.5-5.2,1.2-9.1c1.8-3.9,4.9-7,3.5-13.8c0,0,0.1,3.5-0.3,6s-5.7,7-6.3,12.5c0,0-4-1.6-5.8-5.9
		c0,0-0.6-5.7,2.9-11.6c0,0-4.4,4-5.1,12.1c0,0-2.6-1.6-3.2-3.8s0.1-4.9,1.8-8c0,0-2.2,0.8-2.7,2.3c0,0-2.6-1.2-2.6-4.2
		s3.7-4.5,5.2-7.1s-0.3-5.9-0.3-5.9s0.9,3-0.5,4.8c-1.4,1.9-4.1,3.1-5.1,4.8c0,0-2-1.9-2.2-6.4S89.5,267.1,89.5,267.1L89.5,267.1z"
		/>
	<path fill="#594432" d="M219.7,327.8l-1.1,3.9c0,0,5.5,0.8,8.6-3.5c3-4.3,6-6.3,6-6.3l9.3-5l-0.4,1.5c0,0,5.7,0.4,7.5-4.1
		c1.7-4.5,1.7-5.7,1.7-5.7l5.6-3.7c0,0-8.3-9.6-8.8-9.7S235,292,235,292l-12.8,1.9L219.7,327.8z"/>
	<path fill="#493627" d="M264.3,283.4c0,0,0,0.2,0.1,0.5c0.3,1.1,0.8,4.1,0.3,6.7c-0.7,3.4-3.1,10.4-7,12.7c0,0-1.3,4.9-6.4,7.2
		c0,0-0.9,5.2-3,6.2s-6.1,2.8-7.2,5.9l0.1-4.1c0,0-3.2,5.7-10.4,7.5c0,0-3.2,5.8-7.8,6.3s-5,2.7-5.6,5.3s-3.2,2.8-3.2,2.8
		s2.5-0.7,2.3-3.3s-1-6.9,1.8-10.6s4.2-6.1,4-8.9c0,0,1.3,2.9-0.4,7s-2,5.7-2,5.7s6.2-1.4,7.7-4.5c1.4-3.1,2.4-5.9,1.7-11.1
		s-3.4-10,0.7-17.5c0,0-1.3,4.1-1.7,7.1s4.3,10.2,3,16.9c0,0,5.3-0.5,8.8-4.9c0,0,2.7-6.5,0.6-14.7c0,0,3.8,6.2,1.8,16.1
		c0,0,3.6-1,5.1-3.4c1.5-2.3,1.6-5.8,0.6-10c0,0,2.3,1.7,2.4,3.7c0,0,3.5-0.4,4.6-4c1.1-3.6-2.8-6.6-3.7-10.2
		c-0.9-3.5,2.4-6.8,2.4-6.8s-2.2,3.2-1.1,5.9s3.8,5.1,4.4,7.5c0,0,3-1.5,4.8-6.7C263.9,288.4,264.3,283.4,264.3,283.4L264.3,283.4z"
		/>
	<path fill="#493627" d="M100.5,233.6c-2.5,3.5-4.7,7.6-5.7,11.8c-1,4.3-0.2,9.2-1.9,13.4c-1.3,3.8-3.5,7.1-4.6,10.9
		c-1.4,4.9-0.5,10.3,2.4,14.5c-3.1-4.1-4.2-9.6-3-14.6c1-3.8,3.1-7.3,4.2-11.1c1.5-4.4,0.4-8.9,1.3-13.4c1-4.6,3-8.8,5.6-12.7
		c0.3-0.5,0.9-0.6,1.4-0.3C100.8,232.5,100.9,233.1,100.5,233.6L100.5,233.6z"/>
	<path fill="#493627" d="M86.4,264c-0.6,7.8-1.8,7.5-1.8,7.5s-4.7,1.9-5.3-4.2s0-23.8,0-23.8s-5.7,12-5.7,20.2c0,0-8.2-24.2,5.7-49.7
		c0,0-17.3,9.9-9.2,61.1c8.5,4,15.7,4,15.7,4S86,273.4,86.4,264z"/>
	<path fill="#493627" d="M83.7,272.5c0,0-0.6-19.8,0.9-31.1c1.5-11.2,3.7-21.1,3.7-21.1s-5.8,2.7-8.3,8.6c0,0-0.8-10.9,2.7-17.8
		l-6.2-10.5l7.9-11.6l9.2,12.2l8.1,18.6v4.6c0,0-8.3,17.4-8.5,31.6c-0.2,8.4-8.2,17.4-8.2,17.4L83.7,272.5z"/>
	<path fill="#493627" d="M100.4,226.4c0,0-4.4,12.8-4.1,25.4c0.2,12.7,4.1,16.1,4.1,16.1s-1.4-11.1-0.4-15.4s5-8.8,6.2-10.6
		c1.1-1.9,2.8-7.9,2.8-7.9l5,5.5c0,0-2,0.1-1.8,6.9s1.7,9.1-1.6,12.4s-2.5,11.7-2.5,11.7s-0.3-5.4,2.2-8.6s4.6-4.1,4.6-6.3
		s-0.8-6.8-0.3-7.4s2.8-1.3,3.2,0.5c0.3,1.8-1.2,4.8-0.8,9.7s3.2,5.3,2.2,9.6c-1.1,4.3-3,8.7-1.5,14.3c0,0-0.8-5.8,1.7-10
		s3.8-4.4,3.2-7.6s0.2-8.8,0.2-8.8l1.6-9.5c0,0-9.6-8.2-14.9-20.1c-5.2-11.9-5.8-12.3-5.8-12.3L100.4,226.4z"/>
	<path fill="#594432" d="M165.4,268.3c0,0-0.1,7.4,2.6,10.5l1.2-5.4c0,0,1.8,12.8,8.8,12.8c5.3,0,8.3-7,9-12.7c0,0,1.2,3.4,1.6,9.1
		c0,0,1.9-4.2,2.8-8.6c0,0,0.5-0.5,0.5,1.8c0,0,2.4-2.5,2-8.9c0,0-4.3-14.5-9.6-3.5c0,0,0.1,2.1-0.9,2.5s-1.5-0.7-1.5-0.7l-0.5,4.1
		l-0.5-1.5c0,0-1.3,2-2.2,0.5s-1.4-4-1.4-4l0.4,3.2c0,0-1.7-1-2.1-4.2c0,0-3.5-5-6.6-3.1C166.3,262.2,165.4,268.3,165.4,268.3
		L165.4,268.3z"/>
	<path fill="#493627" d="M187.6,289.4l1.3-4.3c0,0-5.6,7-11,6.8s-8.8-8.6-8.8-8.6l-1.3,0.8c-2.8-1.3-3.6-4-3.7-6.8
		c-0.2,2-3.3,28.6,1.4,40.9c5,12.8,6.3,13.6,6.3,13.6s-0.1,6.6,2.4,9.6s4.9,3.5,4.9,3.5s-6.3-8-4.9-33.8c0,0,0.7,21.7,4.9,28.7
		s6.2-16.5,6.2-16.5s1.3,10.2,0,18.5c0,0,3.8-4.5,4-15.4c0,0,2.2,0.7,2.5,5.1c0,0,3-14.2,3.1-23.7l-0.8-26.2
		C192.1,287.9,187.6,289.4,187.6,289.4L187.6,289.4z"/>
	<path fill="#705A4A" d="M164.2,274.8c-0.1,3.3,0.6,7.3,3.8,8.8l-0.9,0.4l0.7-2.8l0.7-2.7c1.1,5.1,3.5,12.1,9.5,12.5
		c4.8,0.4,9-2.9,9.8-7.7l0.9-4.9c0.4,3.5,1.9,8.1-0.1,11.4l-0.9-1c3.5-1.6,5.4-5.5,5.8-9.2c0.8-0.4,0.6,1.1,0.6,1.5
		c0-0.4-0.1-0.9-0.3-1.3c-0.1-0.1-0.2-0.1-0.2-0.1c0.4,3.6-1.7,8.5-5.5,10.3l-2,1l1.2-2.1c0.8-1.5,0.6-3.7,0.4-5.4h1.7
		c-0.7,5.7-5.9,10-11.7,9.4c-5.8-0.3-9.1-6.2-10-11.4l1.4,0.1c-0.2,0.5-1,3-1.1,3.5C164.3,283.2,163.4,278.6,164.2,274.8
		L164.2,274.8z"/>
	<path fill="#705A4A" d="M170.9,262c-0.3,0.9-1,3.1-1.3,4c-0.1,0.4-0.2,0.7,0.2,0.9c1.3,0.6,2.7,2,2.2,3.7c-0.3,0.9-1.2,1.4-1.3,2.3
		c-0.1,1.4,1,2.9,0.1,4.4c-0.3,0.5-0.6,0.6-0.7,1c-0.3,1.3,0.6,2.3,0.1,4.1l-1.9-0.6c0.4-0.9-0.3-2.9,0.3-4.1c0.2-0.5,0.7-0.9,1-1.2
		c0.6-0.7-0.3-2.6,0-3.8c0.2-1.1,1.2-1.6,1.6-2.4c0.4-1.2-0.7-2.3-1.7-3c-0.2-0.1-0.5-0.4-0.5-0.7s0.1-0.6,0.2-0.8
		C169.6,265,170.6,262.9,170.9,262L170.9,262z"/>
	<path fill="#705A4A" d="M177,265.8c0.7,2.2,1.5,4.6,0.4,6.9c-0.5,1.1-1.3,2-1.5,3c-0.3,1-0.1,2.2,0.1,3.2c0.7,3.2,4.6,6.6,2.6,10.2
		c-0.3,0.8-0.7,1.7-0.3,2.3l-1.6,1.2c-1-1.4-0.3-3,0.3-4.2c0.5-1,0.8-1.6,0.5-2.7c-1-3-3.5-6.6-2.3-10.1c0.4-1.2,1.3-2.1,1.8-3
		C178.1,270.4,177.5,268,177,265.8L177,265.8z"/>
	<path fill="#705A4A" d="M180.7,295.1c1.7-2.8,2.3-5.9,1.6-9.1c-0.4-2.5-1.5-4.6-2.1-7.1c-0.1-0.9,0.1-1.8,0.5-2.6
		c0.1,0.9,0.2,1.7,0.5,2.4c1.2,2.1,2.7,4.4,3.1,7C185,289.1,183.7,293.2,180.7,295.1L180.7,295.1z"/>
	<path fill="#705A4A" d="M242.4,293.3c-0.4-1.7-1.1-3.2-1.4-5c-0.3-2.2-0.1-4.4,0.2-6.5c0.1-0.6,0.1-1.7,0.1-2.3
		c0.1-4.6-2.6-8.8-2.6-13.5c0.3-4.4,1.8-8.5,3.7-12.4c-0.4,4.2-1.2,8.2-1.1,12.3c0.2,2.4,1.2,4.5,1.9,6.9c0.7,2.5,1.1,5.4,0.7,8
		c-0.1,0.6-0.4,1.9-0.6,2.5c-0.4,1.6-0.8,3.2-0.8,4.8C242.4,289.8,242.7,291.6,242.4,293.3L242.4,293.3z"/>
	<path fill="#705A4A" d="M256.5,273c-0.5-1-1.1-1.8-1.6-2.8c-0.9-1.9-0.9-4.2-1.8-6c-1.2-2.9-4.3-5-4.8-8.3c-0.5-2.2-0.6-4.3-0.7-6.4
		c0-0.5,0.4-0.9,0.9-0.9c0.4,0,0.8,0.3,0.9,0.6c0.4,1.3,1,2.6,1.6,3.8c1,1.8,2.2,3.5,3.9,4.5c2.1,1.1,4,2.9,4.5,5.3
		c0.4,1.8,0.2,3.4,0.2,5.1c0,1.2,0.7,2.1,1.3,3.1c1.8,2.3,2.9,5.4,2.4,8.3c0-1.5-0.3-2.9-0.8-4.2c-0.8-2.1-2.6-3.4-3.7-5.4
		c-0.4-0.7-0.5-1.6-0.5-2.4c0.1-3-0.4-6.2-3.4-7.7c-1-0.5-2-1.2-2.8-2c-2.2-2.2-3.5-5-4.4-7.9l1.8-0.3c0.2,3,0,6.2,1.5,8.9
		c1.1,1.8,2.5,3.5,3.2,5.6c0.7,2,0.5,4.3,1.1,6.3C255.6,271.1,256.2,272,256.5,273L256.5,273z"/>
	<path fill="#30231A" d="M267.6,185.8c0,0-2,8.4-2.1,14.5s2.1,12.7,3.7,16.3s6.9,9,7.5,15.3c0,0,1.3-4.9-0.8-11.6
		c-2.2-6.7-3.7-9-4.6-12.7s0.3-10.6,0.3-10.6l8.5,10.6C279.9,207.6,270.5,192.5,267.6,185.8z"/>
	<path fill="#38291E" d="M183.6,296.9v30.2c0,0,4-9.1,4-14.8c0-5.8,1.3-11.7,1.3-11.7s1.3,7.3,1.3,9.7v5.8c0,0,2.2-3.1,2-10.4
		s-1.5-11.7-0.9-14.6c0,0-2,0.9-3.4,4.6c-1.4,3.8-2.1,9.7-2.1,9.7L183.6,296.9z"/>
	<path fill="#30231A" d="M91.4,165.5c-1.3,2.6-3,5.4-5.1,8.2c-7.2,9.7-24.2,27-24.2,27s5.3-2.2,16.4-10.3c5.1-3.7,10.4-8.4,14.6-12.5
		c-0.7-3.6-1.3-7.3-1.9-11.1C91.4,166.4,91.4,165.9,91.4,165.5L91.4,165.5z"/>
	<path fill="#705A4A" d="M156,340.4c-4.8-1.4-8.4-8.5-8.8-13.3c-0.3-2.7,0.3-5.4,0-8.1c-0.2-2.6-0.6-5.2-1.2-7.7l1.7-0.3
		c0,2.4-0.1,4.8-0.9,7.2c-0.2,0.5-0.6,1.1-0.9,1.6c-0.6,1-1.9,3.6-2.5,4.6c0.6-2.3,1.5-4.4,2.3-6.6c0.8-3.8,0-9.4-0.1-13.3
		c1.4,4.4,3.4,9.8,3.6,14.4c0.3,2.7-0.3,5.4-0.2,8.1c0.1,2.6,0.8,5,2,7.4S153.6,339.2,156,340.4L156,340.4z"/>
	<path fill="#705A4A" d="M137.3,296.7c-0.5,4.7-1.2,9.3-1.8,13.9c-0.3,3.9-1.8,9.3,2.1,11.7l5.5,2.6l-5.9-0.7c-5.7-0.6-9.3-3.7-9-9.7
		c0.2-4.7,2.5-8.7,3.1-13.3c0.4,8-6.4,19.6,6.1,21.1l-0.4,1.9c-5.3-2.9-3.8-9.1-3-13.8C134.9,305.7,136,301.1,137.3,296.7
		L137.3,296.7z"/>
	<path fill="#705A4A" d="M195,339.1c2.3-2.3,3.6-5.5,3.8-8.7l0.3-3.5c1,2.6,2.1,5.8,2,8.6c0,1.8-0.2,3.5-0.7,5.2l-1.4-1.1
		c5.4-4,4.8-11.4,4.1-17.3c-0.3-2.8,0.7-5.5,1.9-7.9c0.6-1.2,1.2-2.5,2.2-3.3c-0.8,1-1.1,2.4-1.6,3.6c-0.8,2.5-1.5,4.9-1,7.5
		c1.5,6.6,1.6,14.9-4.6,19.1l-2.2,1.5l0.7-2.6c0.9-3,1.1-6.4,0.3-9.4l1.5-0.2C199.8,333.9,198,337.3,195,339.1L195,339.1z"/>
	<path fill="#493627" d="M60.5,139.2c3.8-9.7,6.8-19.7,9-29.8c3.2-14.7,5-31.5,8.7-46.1c2.2-8.1,4.1-16.3,12.9-19.5
		c4.9-2,10-2.9,14.2-6c2.1-1.5,3.8-3.4,5.4-5.5c-1.2,2.3-2.8,4.4-4.8,6.2c-3.9,3.6-9.3,5-13.9,7.2c-2.2,1.1-4.3,2.5-5.8,4.3
		c-2.8,4.1-3.9,9.3-5.1,14.1c-3.5,15.2-5.2,30.7-9.2,45.9C69.1,120.1,65.4,130,60.5,139.2L60.5,139.2z"/>
	<path fill="#0071B7" d="M253.4,466.9l5-38l0.3-1.2l14.5,39.2H291L262.5,384c-12.1,1.3-22.5,10.2-27.4,32.7
		c-3.6,16.8-7.5,38.9-9.4,50.3h27.7V466.9z"/>
	<path fill="#0071B7" d="M84.5,466.9L99,427.7l0.3,1.2l5,38h27.6c-1.9-11.4-5.8-33.5-9.4-50.3c-4.9-22.5-15.3-31.4-27.4-32.7
		l-28.5,82.9h17.9L84.5,466.9z"/>
	<path fill="#18689E" d="M77.5,337.3l0.1,0.5c0,0,1.3-0.1,3.3,1.6c5.6,4.9,15.3,23,17.7,89.6h0.1l0.4-1.1l0.2,1h0.3
		c-2.4-67.3-12.4-85.6-18.2-90.4c-1.2-1-2.2-1.4-2.9-1.6L77.5,337.3z"/>
	<path fill="#0084C6" d="M317.1,466.9h9.5l-46.4-129.8L240,321.2l-6.3,7.7l39.4,14.8L317.1,466.9z"/>
	<path fill="#18689E" d="M280.2,337.3l-0.1,0.5c0,0-1.3-0.1-3.3,1.6c-5.6,4.9-15.3,23-17.7,89.6H259l-0.4-1.1l-0.2,1h-0.3
		c2.4-67.3,12.4-85.6,18.2-90.4c1.2-1,2.2-1.4,2.9-1.6L280.2,337.3z"/>
</g>
<radialGradient id="SVGID_00000127742753370891464820000010470468751513296278_" cx="124.543" cy="211.7968" r="15.9853" gradientUnits="userSpaceOnUse">
		<stop  offset="0" style="stop-color:#EDCDB5"/>
		<stop  offset="1" style="stop-color:#F2DDCB"/>
	</radialGradient>
	<path style="fill:url(#SVGID_00000127742753370891464820000010470468751513296278_);" d="M140.5,214.8c0,8.8-4.2,16-16,16
		c-8.8,0-16-7.2-16-16c0-8.8,7.2-16,16-16C143.4,205.8,145.5,213,145.5,211.8z"/>
	
		<radialGradient id="SVGID_00000158722232218175883800000017582648743169563280_" cx="226.7017" cy="211.7968" r="15.9853" gradientUnits="userSpaceOnUse">
		<stop  offset="0" style="stop-color:#EDCDB5"/>
		<stop  offset="1" style="stop-color:#F2DDCB"/>
	</radialGradient>
	<path style="fill:url(#SVGID_00000158722232218175883800000017582648743169563280_);" d="M245.7,216.8c0,8.8-7.2,16-16,16
		s-16-7.2-16-16c0-8.8,7.2-16,16-16S242.7,203,242.7,211.8z"/>
</svg>
