<svg viewBox="0 0 351 467" fill="none" xmlns="http://www.w3.org/2000/svg">
	 <title>Avatar van Rian</title>

<g clip-path="url(#clip0_1040_453)">
<path d="M84.1 185.3C84.1 185.3 59.1 253.7 66 284C66 284 93.2 320.2 101.9 314.5C103.7 313.3 107.3 311.7 112 310C112.5 310.8 113 311.6 113.6 312.3C115.3 311.9 117 311.5 118.7 311.1C118.7 311.1 119.4 309.5 119.4 309.6C121 309.6 122.4 310.4 124.3 310C124.8 308.5 124.8 307 125.5 305.4C126.2 306.5 126.9 307.6 127.7 308.7C129.6 308.3 131.4 307.8 133.2 307.4C134.1 305.9 133.7 304.9 134.6 303.2C151.7 298 168.9 293.4 180.6 292.9C192.1 292.3 220 298.1 220.2 299.2C222.2 300.1 227.2 301.6 229.2 302.6C229.2 302 229.3 301.4 229.4 300.7C229.9 301 230.7 302.6 230.9 303.8C233.6 305.5 235.3 306.9 237.4 308.2C237.4 307.5 238.3 306.2 238.3 305.5C244.1 312.1 249 315.3 251 315.6C251 315.6 280.4 183.5 286.1 175C291.7 166.5 84.1 185.3 84.1 185.3Z" fill="#675743"/>
<path d="M82.5 328.4C82.5 328.4 86.4 314.7 108.2 307.5C130 300.2 152.4 292 152.4 276.5C152.4 261 152.4 235.6 152.4 235.6H176.8H201.2C201.2 235.6 201.2 260.9 201.2 276.5C201.2 292 223.6 300.2 245.4 307.5C267.2 314.8 270.4 328.4 270.4 328.4L345.5 467H301L244.9 378.8L242 464.8H176.7H112.5L108.5 378.8L56 467H9L82.5 328.4Z" fill="#EAD1BD"/>
<path d="M75.9 308.2C82.1 316.2 70.3 329.9 70.3 329.9C70.3 329.9 85.3 320.3 81.5 306.4C84.9 309.2 89.5 313.5 89.9 316.6C90.5 321.5 87.8 327.4 82.5 330.7C82.5 330.7 96.4 328.8 96.4 313.8C96.4 298.9 89.6 300.2 96.4 291.9C90.6 281 85.4 269.1 86.9 263C88.6 256.6 69.8 300.3 75.9 308.2Z" fill="#675743"/>
<path d="M122.4 286.3C120.7 296.2 137.6 302.8 137.6 302.8C137.6 302.8 119.9 301.4 116.7 287.4C115 291.5 113 297.5 114.1 300.3C115.9 304.9 121.1 308.8 127.2 309.2C127.2 309.2 114 314 107 300.9C100 287.7 106.6 285.7 96.7 281.6C96.7 269.3 95.7 256.3 91.4 251.6C87 246.8 124.1 276.4 122.4 286.3Z" fill="#675743"/>
<path d="M269 142.3C269 221.6 236.9 276.5 174.7 276.5C112.5 276.5 78 220.9 78 141.6C78 62.3 113.6 24.3 175.8 24.3C238 24.2 269 63 269 142.3Z" fill="#F2DDCB"/>
<path d="M147.7 174.2C147.7 185.1 138.8 193.9 127.8 193.9C116.8 193.9 107.9 185.1 107.9 174.2C107.9 163.3 116.8 154.5 127.8 154.5C138.8 154.5 147.7 163.3 147.7 174.2Z" fill="#94836E"/>
<path d="M142.6 174.2C142.6 181.8 136.4 188 128.8 188C121.2 188 115 181.8 115 174.2C115 166.6 121.2 160.4 128.8 160.4C136.4 160.4 142.6 166.6 142.6 174.2Z" fill="#2A1D01"/>
<path d="M123 167.1C123 169.3 121.2 171.1 119 171.1C116.8 171.1 115 169.3 115 167.1C115 164.9 116.8 163.1 119 163.1C121.2 163.1 123 164.9 123 167.1Z" fill="white"/>
<path d="M135 223.6C147.1 230.9 160.1 235.5 173.2 235.3C186.4 235.3 199.1 230.2 211.7 223.6C207.1 229.1 201.3 233.6 194.7 236.8C188.1 240.1 180.7 241.9 173.2 242C165.7 242 158.2 240.3 151.7 237.1C145.1 234 139.2 229.5 135 223.6Z" fill="#A38276"/>
<path d="M201.1 174.2C201.1 185.1 210 193.9 221 193.9C232 193.9 240.9 185.1 240.9 174.2C240.9 163.3 232 154.5 221 154.5C210 154.5 201.1 163.3 201.1 174.2Z" fill="#94836E"/>
<path d="M206.2 174.2C206.2 181.8 212.4 188 220 188C227.6 188 233.8 181.8 233.8 174.2C233.8 166.6 227.6 160.4 220 160.4C212.4 160.4 206.2 166.6 206.2 174.2Z" fill="#2A1D01"/>
<path d="M207 167.1C207 169.3 208.8 171.1 211 171.1C213.2 171.1 215 169.3 215 167.1C215 164.9 213.2 163.1 211 163.1C208.8 163.1 207 164.9 207 167.1Z" fill="white"/>
<path d="M140.5 211.8C140.5 220.6 133.3 227.8 124.5 227.8C115.7 227.8 108.5 220.6 108.5 211.8C108.5 203 115.7 195.8 124.5 195.8C133.4 195.8 140.5 203 140.5 211.8Z" fill="url(#paint0_radial_1040_453)"/>
<path d="M242.7 211.8C242.7 220.6 235.5 227.8 226.7 227.8C217.9 227.8 210.7 220.6 210.7 211.8C210.7 203 217.9 195.8 226.7 195.8C235.5 195.8 242.7 203 242.7 211.8Z" fill="url(#paint1_radial_1040_453)"/>
<path d="M236.6 82.1C236.6 82.1 266.5 116.5 278.5 134.6C290.5 152.7 298.1 161 298 177.1C297.9 195.5 276.7 219.5 278.7 235.5C278.7 235.5 275.7 205.7 276.5 196.3C277.2 186.8 285.7 183.3 282.9 169.8C280.1 156.4 262.4 138 254 121.8C245.4 105.5 236.6 82.1 236.6 82.1Z" fill="#7B674E"/>
<path d="M283.5 293.5C277.2 288.8 270.4 281.5 270.7 272.4L275 187.4L255 227C255 227 235.4 287.1 250.4 299C253.7 301.6 256.4 303.6 258.6 305.2C259.7 304.8 260.8 304.4 262 304C259.8 301 257.9 297.5 257.8 294.5C257.8 294.5 280.9 295.4 283.5 293.5Z" fill="#675743"/>
<path d="M284.7 161.3C284.8 181.8 271.5 200 265.1 220.3C256.4 244.8 264.8 274.2 287.3 290.3C287.4 290.2 287.5 290.1 287.6 290C246 235 294.4 207.3 284.7 161.3Z" fill="#675743"/>
<path d="M185 69.4C185 69.4 188.6 65.9 186.6 62.6C184.6 59.3 161.6 44.6 148 53.5C134.4 62.4 145 66 145 66L185 69.4Z" fill="#8C8279"/>
<path d="M189.4 69.4C189.4 69.4 209.5 67.2 223.5 77.9C237.5 88.6 247.2 132.1 256.9 139.7L266.1 166.8C266.1 166.8 271.5 195.2 273 204.9C273 204.9 292 166.2 292.1 151.2C292.7 69.4 242.5 16.6 200.2 28L189.4 69.4Z" fill="#7B674E"/>
<path d="M185 69.4C185 69.4 199.7 47.9 200.2 28.1C200.2 28.1 183.1 15.9 149.6 26C90 43.9 66.6 83.5 59.5 102.7C35.8 167.1 45.8 225.9 46.6 247.9C47.4 269.9 57.3 284.7 57.3 284.7C57.3 284.7 58.1 239.2 72.2 224.1C86.3 209 104.1 184.1 108 164.7C111.9 145.2 120.1 111.8 131.6 86.7C142.5 63 173.8 42.6 185 69.4Z" fill="#7B674E"/>
<path d="M96.7999 296.1C101.7 305.6 120.6 318.3 123 317.9C123.8 317.9 81.7999 256.8 88.1999 198.8C88.1999 198.8 54.5999 238.2 57.3999 290.6C57.8999 300.7 61.5999 315.1 65.5999 325.8C68.3999 325.7 70.0999 294.8 72.6999 282.3C72.6999 282.3 81.4999 307.3 93.9999 323.8C94.4999 323.7 97.2999 302.1 96.7999 296.1Z" fill="#675743"/>
<path d="M157.6 56.6C144.6 62.6 135.8 75.4 128.8 87.3C123.3 96.5 118.1 105.2 113.2 115.3C105.8 129.7 102.7 146.7 98.9999 162.5C94.7999 180 86.0999 195.8 75.6999 211.6C50.9999 245.7 45.3999 288.4 67.6999 324.4C67.9999 324.4 68.2999 324.4 68.4999 324.4C56.6999 299.5 55.3999 268.7 67.1999 242.7C75.4999 224.1 89.8999 208.4 98.8999 189.4C110.3 167.3 109.7 142.1 119.6 119.5C128.6 100.8 136.5 78.8 152.3 63.4C160.2 56.1 174.9 50.5 184 59.2C178.4 52.2 166.5 52.1 157.6 56.6Z" fill="#8C8279"/>
<path d="M122.9 304.1C116.4 298.7 111.6 291.4 108.6 283.6C106.6 277.7 105.3 271.5 103.1 265.7C96.1999 248.3 91.9999 230.3 87.8999 212.1L88.2999 212C90.3999 215.6 92.1999 219.4 93.6999 223.3C96.7999 231 98.8999 239.1 100.6 247.2C102.5 255.2 103.3 263.5 106.3 271.3C107.8 275.2 109.8 278.7 111.7 282.4C113.5 286 115.3 289.7 117.2 293.3C119.1 296.9 121.3 300.4 123.3 304C123.1 303.9 122.9 304.1 122.9 304.1Z" fill="#9C9081"/>
<path d="M101.5 322.1C91.3 297.2 85.9 268.4 80.8 242.3C76.1 267.3 99.7 322.5 101.5 322.1Z" fill="#9C9081"/>
<path d="M171 42.8C137.3 40.3 107.8 62.9 93 89.9C74.8 121.7 72.4 158.9 61 193.4C90.3 142.3 90.6 53.1 171 42.8Z" fill="#997F63"/>
<path d="M61.6001 210.7C45.0001 234.6 27.7001 274.1 47.5001 302.1C41.1001 273.1 55.3001 240.7 61.6001 210.7Z" fill="#8C8279"/>
<path d="M188.3 23.4C164.1 20.4 141.8 25 121.1 34.3C48.5001 66.7 35.2001 150.3 44.4001 214.5C44.9001 155.5 57.2001 73.1 129.8 38.5C147.2 30.2 168 22.6 188.3 23.4Z" fill="#997F63"/>
<path d="M215 26.6C248.2 38.9 289.5 90.3 291.5 134.6C289 78.9 257.1 30 215 26.6Z" fill="#997F63"/>
<path d="M254.2 239.7C249.4 258.4 281.6 294.9 283.4 293.6C267.8 281.1 259.4 257.7 254.2 239.7Z" fill="#9C9081"/>
<path d="M241.6 259.3C233.6 273.6 259.1 305.1 261.2 304.3C250.6 292.4 244.1 275.7 241.6 259.3Z" fill="#9C9081"/>
<path d="M251.9 256.8C243.9 271.1 249.2 293 264 302.7C266 301.9 254.4 273.2 251.9 256.8Z" fill="#997F63"/>
<path d="M189.4 69.4C237.9 64.4 227.6 139 278.9 152.3C269.5 145.2 259.8 134.6 253.7 120.1C248.3 107.2 245.4 91.5 235.8 80.1C227.1 69.5 200.9 62.7 189.4 69.4Z" fill="#877158"/>
<path d="M185 69.4H189.4C189.4 69.4 196 52 198 49C200 46 201.2 45 201.1 40.5C201 36 201.2 27.2 202.1 27.6C203 28 201.8 26.2 199.4 27.6C197 29 198 36 197 39C196 42 192 50 191 55C190 60 184.1 65.9 184.1 67.5C184 69 185 69.4 185 69.4Z" fill="#9C9081"/>
<path d="M260.3 142.7C262 157.8 282.5 160.8 288.3 173.7C289.8 167.1 284.9 160.5 279.8 156.2C274 150.9 265.5 149.1 260.3 142.7Z" fill="#8C8279"/>
<path d="M281.3 199.9C279.6 208.4 274.2 217.2 273.5 226.6C271.3 242 278.5 260.6 294.1 266.5C284.7 257.4 279.4 244.1 279.6 228.8C279.1 219.6 282.8 209.4 281.3 199.9Z" fill="#8C8279"/>
<path d="M207.6 42C227.3 50.2 250.7 61.4 262.3 81.3C258.2 56.3 232.2 42.4 207.6 42Z" fill="#997F63"/>
<path d="M199.4 34.6C199.4 34.6 189.1 28.5 171 32.7C152.9 36.9 154 38 154 38C154 38 176 31 186 33C196 35 198.9 38 198.9 38" fill="#9C9081"/>
<path d="M193.4 54.6C193.4 54.6 181.2 48.5 160 52.7C138.8 56.9 96 116 96 116C96 116 147.1 55.6 159 55C179 54 192.8 58 192.8 58" fill="#9C9081"/>
<path d="M199.4 44.6C199.4 44.6 188.6 38.5 169.8 42.7C151 46.9 152 48 152 48C152 48 175 41 185.4 43C195.8 45 198.8 48 198.8 48" fill="#9C9081"/>
<path d="M200 29.6C200 29.6 207.7 23.5 221.2 27.7C234.7 31.9 234 33 234 33C234 33 217.5 26 210.1 28C202.6 30 200.5 33 200.5 33" fill="#9C9081"/>
<path d="M193 50.6C193 50.6 205.2 44.5 226.4 48.7C247.6 52.9 246.4 54 246.4 54C246.4 54 220.5 47 208.8 49C197 51 193.7 54 193.7 54" fill="#9C9081"/>
<path d="M190 62.6C190 62.6 202.2 56.5 223.4 60.7C244.6 64.9 267 132 267 132C267 132 235.7 64.1 224 62C213 60 191 64 191 64" fill="#9C9081"/>
<path d="M200 39.6C200 39.6 208 33.5 221.9 37.7C235.8 42 235 43 235 43C235 43 218.1 36 210.4 38C202.7 40 200.5 43 200.5 43" fill="#9C9081"/>
<path d="M82.9999 93C74.6999 110 65.4999 127 60.6999 145.4C57.2999 163.7 56.8999 183.8 54.1999 202.2C53.7999 204.9 53.3999 207.6 52.7999 210.3C52.1999 212.9 51.6999 215.8 49.8999 217.9C51.4999 215.7 51.6999 212.8 52.1999 210.2C52.5999 207.5 52.8999 204.8 53.1999 202.1C55.0999 183.1 55.1999 163.8 58.7999 145C60.6999 136.9 63.9999 129.3 67.3999 121.8C72.0999 112 77.3999 102.4 82.9999 93Z" fill="#5B4B43"/>
<path d="M130 78C122.6 88.3 115.4 98.8 108.7 109.5C103.8 117.6 98.9 125.7 95.7 134.6C91.1 149.7 90.3 165.7 88.1 181.3C87.3 187.6 86.4 193.9 85.3 200.2C84.7 203.3 84.1 206.4 83.2 209.5C82.3 212.5 81.5 215.9 79 217.9C84.1 213.4 85.5 188.9 86.6 181.1C87.2 174.8 87.9 168.5 88.7 162.2C89.9 152.7 90.9 143.1 94 134C97.4 125 102.3 116.7 107.5 108.7C114.4 98.1 121.9 87.8 130 78Z" fill="#877158"/>
<path d="M251 401.5C251 401.5 277.3 321 267 313C258.9 306.7 220.1 295 220.1 295C220.1 295 208.6 306.4 173.7 305.2C133.6 303.8 136 295 136 295L80 310.5C80 312.3 98 401.5 98 401.5L102 467H248L251 401.5Z" fill="#22252C"/>
<path d="M61.3 460.1L97.7 401.8C97.7 401.8 97 447 101 467H164.7V359.1C125.8 356.2 122 299 122 299C122 299 80.5 308.6 80 310.5C79.1 314.2 -0.5 467 -0.5 467H57.5L61.3 460.1Z" fill="#687167"/>
<path opacity="0.8" d="M101 466.9L100 461.5L99.5 455.5L98.5 443.5L97.3 401.5L57.5 467H54L90.5 384C102.6 385.3 113 394.2 117.9 416.7C121.5 433.5 125.4 455.6 127.3 467L101 466.9Z" fill="#5F675E"/>
<path d="M292.9 460.1L256.5 401.8C256.5 401.8 257.2 447 253.2 467H189.5V359.1C228.4 356.2 232.2 299 232.2 299C232.2 299 273.7 308.6 274.2 310.5C275.1 314.2 350.5 467 350.5 467H296.7L292.9 460.1Z" fill="#687167"/>
<path opacity="0.8" d="M253.2 466.9L254.2 461.5L254.7 455.5L255.7 443.5L256.9 401.5L296.7 467H300.2L263.7 384C251.6 385.3 241.2 394.2 236.3 416.7C232.7 433.5 228.8 455.6 226.9 467L253.2 466.9Z" fill="#5F675E"/>
</g>
<defs>
<radialGradient id="paint0_radial_1040_453" cx="0" cy="0" r="1" gradientUnits="userSpaceOnUse" gradientTransform="translate(124.543 211.797) scale(15.9853)">
<stop stop-color="#EDCDB5"/>
<stop offset="1" stop-color="#F2DDCB"/>
</radialGradient>
<radialGradient id="paint1_radial_1040_453" cx="0" cy="0" r="1" gradientUnits="userSpaceOnUse" gradientTransform="translate(226.702 211.797) scale(15.9853)">
<stop stop-color="#EDCDB5"/>
<stop offset="1" stop-color="#F2DDCB"/>
</radialGradient>
<clipPath id="clip0_1040_453">
<rect width="351" height="467" fill="white"/>
</clipPath>
</defs>
</svg>
