<?xml version="1.0" encoding="utf-8"?>
<!-- Generator: Adobe Illustrator 27.1.0, SVG Export Plug-In . SVG Version: 6.00 Build 0)  -->
<svg version="1.1" id="Laag_1" xmlns="http://www.w3.org/2000/svg" xmlns:xlink="http://www.w3.org/1999/xlink" x="0px" y="0px"
	 viewBox="0 0 351 467" style="enable-background:new 0 0 351 467;" xml:space="preserve">

<path d="M308.4,406.4c0,0.1,0.1,0.1,0.1,0.1S308.4,406.4,308.4,406.4z"/>
<path d="M308.4,406.3C308.4,406.4,308.5,406.4,308.4,406.3C308.5,406.4,308.4,406.4,308.4,406.3z"/>
<g>
	<g>
		<path fill="#335082" d="M156.9,285.6c0-1.2,9.1-16.9,9.1-18.2c-7.1,1.1-27.2,10.5-30.8,12.7c-2,1.2-0.5,9.9,1.5,18.3
			C145.7,293.4,156.9,293.8,156.9,285.6z"/>
		<path fill="#335082" d="M201.3,274.7c0,1.5,0,2.9,0,4.3c0,9.7,8.6,16.6,20.4,22.2c-0.8-8.1-2.1-19-3.4-21
			C216.8,277.7,210.2,275.9,201.3,274.7z"/>
	</g>
	<path fill="#EAD1BD" d="M273.4,325.2c0,0-3.2-13.8-25.3-21.2c-22.1-7.4-44.8-15.7-44.8-31.4c0-15.7,0-41.4,0-41.4h-24.7H154
		c0,0,0,25.7,0,41.4c0,15.7-22.7,24-44.8,31.4C87.2,311.4,84,325.2,84,325.2l91.1,24.2L273.4,325.2z"/>
	<path fill="#F2DDCB" d="M261.4,126.3c6.5,76.3-19.2,139.2-84.8,139.2c-65.6,0-93-63.9-86.1-140c6.9-76.3,57.3-92.1,87.2-92.1
		S255.1,51.8,261.4,126.3z"/>
	<path fill="#798384" d="M151.4,170.4c0,11-9,20-20.2,20c-11.1,0-20.2-8.9-20.2-20c0-11,9-20,20.2-20
		C142.3,150.4,151.4,159.3,151.4,170.4z"/>
	<path fill="#51433A" d="M275.3,110.6l-3.4-12.8c-2.6-3.4-7.9-9.8-7.9-9.8s4.7,2.4,6.4,4l-1.2-4.6c-3.1-3.1-6.5-5.9-9.9-8.5
		c0-0.1-0.1-0.2-0.1-0.3c2.9,0.7,5.7,2.1,8.6,3.5l-0.3-1c-2.7-3-8.3-7.9-14.5-12c-0.1-0.1-0.2-0.2-0.2-0.3c-0.6-1.4-1.3-2.8-1.9-4.1
		c3.3,0.9,6.3,2.8,8.5,4.4c2,1.4,3.3,2.7,3.4,2.8c0-0.1-0.4-0.9-1.1-2.2c-2-3.5-6.5-9.9-13.7-10.8c0,0-0.1,0-0.1,0
		c-1.7-3.2-3.3-5.6-4.7-7.1c-3.2-3.3-12.6-8.2-23.4-13.1c-0.2-0.1-0.4-0.2-0.6-0.2c-14-8.1-29.5-12.6-45.5-12.6l-0.4,0.2l0.2-0.2
		c-21,0-41.1,7.7-58.2,21.2c-0.6,0.3-1,0.5-1.1,0.7c0,0.1-0.1,0.2-0.1,0.3c-8.3,6.8-15.8,15-22.4,24.4c-4.8,6.8-7.5,16.2-9,26.7
		c-1-1-7.8,11.4-7.8,11.4l0,0c0.6-0.7,1.5-1.2,2.8-1.2c-1.3,0.9-1.9,2.3-2.2,3.7l0.5,2.2c0.8-0.8,2-1.6,2.5-2.6
		c0.4,2.3-0.8,3.8-1.9,5.4l0.5,2.2c0.8-1,1.6-1.7,3-1.7c-1.1,1.1-0.4,12.8-0.4,12.8c0.7,0.3,1.4,0.5,2,0.7
		c1.4,25.3,9.7,49.1,11.4,53.3l-2-33.4c0,0,6.1-16.7,6.9-31.7c0-0.8,0.1-1.6,0.3-2.4c1-3,2.1-5.8,3.2-8.3c0.8-1.7,1.6-3.2,2.4-4.5
		c-0.6,0-1.2,0.1-1.8,0.1c2.2-5.9,4.6-11.5,4.7-14.4c2-4.5,3.6-8.7,7.7-12.3c0,0,0.1,0.1,0.1,0.1c0.6,0.7,1.1,1.3,1.7,2c0,0,0,0,0,0
		c0.3,0.3,0.5,0.6,0.8,1c0.6,0.7,1.2,1.4,1.8,2.1c0.3,0.3,0.6,0.6,0.8,0.9c0.9,1,1.9,2,2.8,2.9c0.3,0.3,0.6,0.1,0.9-0.2
		c9,6.3,35,23.5,42.5,16v-9.1l5.2,5.2c1.2-0.7,2.6-1.4,3.9-2v-3.2l2.2,2.2c2.2-0.8,4.5-1.5,6.9-2v-0.2v-2.2c2.5,0.2,7.9,1,7.9,1
		c0.9-0.1,1.8-0.2,2.8-0.3c15.6,0.8,29.9,1.1,37,1.1c3.6,2,8,4.8,11.9,8.2c1.4,1.3,2.8,3.4,4.2,6.2c0.9,5.8,1.9,12,2.1,17.2
		c0.7,12.8,4.3,23.9,6.5,30.7c0.1,1.3,0.2,2.4,0.4,3.2c0.5,1.7,0.1,35.9,0.1,35.9l5.9-25c2.8-10,4.4-21.7,4.4-21.7s0.5-2.6,0.9-6.9
		l5.6-24.3c-0.8-1.4-1.7-2.6-2.7-3.8c1.4-0.5,2.3,0.5,3.3,1.5l0.4-1.9c-0.7-1.5-1.6-2.9-2.9-3.8c1.4,0,2.2,0.6,3.4,1.3L275.3,110.6z
		 M242,55.2c0.5,0.7,1.2,1.8,1.9,3.2c-2.3-2.4-4.6-4.7-7-6.9C239.5,53,241.4,54.3,242,55.2z"/>
	<path fill="#2A1D01" d="M146.2,170.4c0,7.7-6.2,13.9-13.9,13.9c-7.7,0-13.9-6.2-13.9-13.9c0-7.7,6.2-13.9,13.9-13.9
		C139.9,156.4,146.2,162.7,146.2,170.4z"/>
	<path fill="#798384" d="M201.4,170.4c0,11,9,20,20.2,20c11.1,0,20.2-8.9,20.2-20c0-11-9-20-20.2-20
		C210.5,150.4,201.4,159.3,201.4,170.4z"/>
	<path fill="#2A1D01" d="M206.6,170.4c0,7.7,6.2,13.9,13.9,13.9c7.7,0,13.9-6.2,13.9-13.9c0-7.7-6.2-13.9-13.9-13.9
		C212.8,156.4,206.6,162.7,206.6,170.4z"/>
	<path fill="#FFFFFF" d="M207.4,163.1c0,2.2,1.8,4,4,4c2.2,0,4-1.8,4-4c0-2.2-1.8-4-4-4C209.2,159.1,207.4,160.9,207.4,163.1z"/>
	<path fill="#575B5B" d="M141.6,229.5c0-0.1,0.1-0.1,0.1-0.2C141.7,229.3,141.7,229.4,141.6,229.5C141.7,229.5,141.6,229.5,141.6,229.5
		z"/>
	<radialGradient id="SVGID_1_" cx="132.2411" cy="206.7568" r="16.1832" gradientUnits="userSpaceOnUse">
		<stop  offset="0" style="stop-color:#EDCDB5"/>
		<stop  offset="1" style="stop-color:#F2DDCB"/>
	</radialGradient>
	<path fill="url(#SVGID_1_)" d="M148.4,206.8c0,8.9-7.3,16.2-16.2,16.2c-8.9,0-16.2-7.2-16.2-16.2c0-8.9,7.2-16.2,16.2-16.2
		C141.2,190.6,148.4,197.8,148.4,206.8z"/>
	
		<radialGradient id="SVGID_00000129916721873209232420000007131002167906259128_" cx="223.5155" cy="206.7568" r="16.1832" gradientUnits="userSpaceOnUse">
		<stop  offset="0" style="stop-color:#EDCDB5"/>
		<stop  offset="1" style="stop-color:#F2DDCB"/>
	</radialGradient>
	<path style="fill:url(#SVGID_00000129916721873209232420000007131002167906259128_);" d="M239.7,206.8c0,8.9-7.2,16.2-16.2,16.2
		c-8.9,0-16.2-7.2-16.2-16.2c0-8.9,7.3-16.2,16.2-16.2C232.5,190.6,239.7,197.8,239.7,206.8z"/>
	<path fill="#B05143" d="M120.6,129.8c0,0,0,0,0.1-0.1C120.6,129.7,120.6,129.8,120.6,129.8z"/>
	<path fill="#666158" d="M162.2,270.1c0,0.2,0.1,0.3,0.1,0.3C162.3,270.3,162.3,270.2,162.2,270.1z"/>
	<path d="M312,406c0,0.1,0.1,0.1,0.1,0.1S312.1,406.1,312,406z"/>
	<path fill="#F1F1F1" d="M181.1,272.9c-0.1,0.1-0.1,0.2-0.1,0.4C181,273.3,181.1,273.2,181.1,272.9z"/>
	<path fill="#DADADA" d="M156.3,262.2c-0.1,0.1-0.1,0.1-0.1,0.2C156.1,262.4,156.2,262.4,156.3,262.2z"/>
	<path fill="#DADADA" d="M151.3,263.3c0,0,0-0.1,0-0.2C151.3,263.1,151.3,263.2,151.3,263.3z"/>
	<path d="M312.1,406C312.1,406.1,312.2,406.1,312.1,406C312.2,406.1,312.1,406.1,312.1,406z"/>
	<path fill="#FFFFFF" d="M176.7,339.7c-18.8,0-35.2-6.9-44.6-17.4v54.1h88.4v-53.3C211.1,333.1,195,339.7,176.7,339.7z"/>
	<path fill="none" stroke="#E6E7E8" stroke-width="1.0952" stroke-miterlimit="10" d="M220.6,334.5c-9.5,10-25.6,16.6-43.9,16.6c-18.8,0-35.2-6.9-44.6-17.4"/>
	<polygon fill="#CCD9DB" points="176.9,360.9 177,379.4 180.5,379.9 182,361.9 176.9,361 176.9,360.9 	"/>
	<path d="M274.1,313.1c0,0-0.2-3.9-7.8-7.4c-10.5-4.8-7.8-6.7-45.7-20.1c0,0-36.4,63.8-45.6,63.8s-39.9-63.8-39.9-63.8
		c-37.9,13.5-40,15.3-50.6,20.1c-7.6,3.5-7.8,7.4-7.8,7.4l-65,154.7h50.5l36.1-73.2l3.4,73.2h73.7h73.7l3.4-73.2l36.1,73.2h50.5
		L274.1,313.1z"/>
	<g>
		<g>
			<path fill="#FFFFFF" d="M177.4,348.1c3.4-4.6,38.5-52.4,41.3-66.7l15.6,16.6c-0.3,16.4-32.7,72.4-36.7,79.2L177.4,348.1z"/>
			<path fill="#335082" d="M219,282.4l14.8,15.8c-0.5,16.1-30.9,69-36.2,78.1l-19.5-28.2C182.4,342.2,215,297.6,219,282.4 M218.4,280.3
				c-1.1,13.1-41.6,67.8-41.6,67.8l20.8,30.1c0,0,37.2-62.9,37.2-80.4L218.4,280.3L218.4,280.3z"/>
		</g>
	</g>
	<g>
		<g>
			<path fill="#335082" d="M216.9,290.4l14.1,16c-0.9,3-2.2,6.6-3.9,10.8l-14.8-17.9C214.2,295.8,215.7,292.9,216.9,290.4 M216.4,286.7
				c-1.5,3.5-3.8,7.9-6.5,12.6l17.8,21.6c2.4-5.6,4.4-10.8,5.6-15.1L216.4,286.7L216.4,286.7z"/>
		</g>
		<g>
			<path fill="#335082" d="M190.2,333.1l18.6,21.2c-1.7,3.1-3.4,6.2-5.2,9.4l-18.9-22.9C186.6,338.2,188.4,335.6,190.2,333.1
				 M190,329.9c-2.9,4.2-5.6,7.9-7.7,11l21.7,26.3c2.1-3.8,4.6-8.3,7.3-13.2L190,329.9L190,329.9z"/>
		</g>
		<g>
			<path fill="#335082" d="M204.1,312.5l16.6,18.8c-1.5,3.1-3.1,6.4-4.9,9.8l-17-20.6C200.7,317.7,202.4,315,204.1,312.5 M203.8,309.2
				c-2.4,3.8-5,7.7-7.5,11.4l19.8,24.1c2.3-4.5,4.7-9.2,6.8-13.7L203.8,309.2L203.8,309.2z"/>
		</g>
	</g>
	<g opacity="0.7">
		<g>
			<path fill="#335082" d="M219.4,284.3l3.3,3.5c-6.2,18.1-28.5,50.4-39.6,65.8l-3.8-5.5C184.8,340.6,213.8,300.7,219.4,284.3
				 M218.4,280.3c-1.1,13.1-41.6,67.8-41.6,67.8l6.3,9c10.5-14.5,35.9-50.7,41.9-69.8L218.4,280.3L218.4,280.3z"/>
		</g>
	</g>
	<g opacity="0.7">
		<g>
			<path fill="#335082" d="M232.4,298.2l0.3,0.3c-0.3,5.2-3.9,17.3-18.3,45c-6.9,13.3-13.9,25.6-17,30.8l-5.1-7.4
				c10.1-14.4,33.4-53.2,37.7-62.9C230.9,302.1,231.7,300.1,232.4,298.2 M231.6,294.4c-0.8,2.5-1.9,5.4-3.4,8.9
				c-4.3,9.7-28.7,50.4-38.3,63.7l7.7,11.1c0,0,37.2-62.9,37.2-80.4L231.6,294.4L231.6,294.4z"/>
		</g>
	</g>
	<g>
		<g>
			<path fill="#FFFFFF" d="M135.2,280.3c1.1,13.1,41.6,67.8,41.6,67.8L156,378.1c0,0-37.2-62.9-37.2-80.4L135.2,280.3z"/>
		</g>
	</g>
	<g>
		<g>
			<path fill="#335082" d="M136.7,290.4c1.2,2.5,2.8,5.5,4.7,8.8l-14.8,17.9c-1.7-4.1-3-7.7-3.9-10.8L136.7,290.4 M137.3,286.7
				l-16.8,19.1c1.2,4.3,3.2,9.5,5.6,15.1l17.8-21.6C141,294.6,138.7,290.2,137.3,286.7L137.3,286.7z"/>
		</g>
		<g>
			<path fill="#335082" d="M163.4,333.1c1.8,2.5,3.6,5.1,5.4,7.7L150,363.6c-1.8-3.2-3.5-6.3-5.2-9.4L163.4,333.1 M163.6,329.9
				L142.4,354c2.6,4.9,5.1,9.4,7.3,13.2l21.7-26.3C169.2,337.8,166.5,334,163.6,329.9L163.6,329.9z"/>
		</g>
		<g>
			<path fill="#335082" d="M149.6,312.5c1.6,2.5,3.4,5.2,5.3,8l-17,20.6c-1.7-3.4-3.4-6.7-4.9-9.8L149.6,312.5 M149.8,309.2L130.6,331
				c2.2,4.6,4.5,9.2,6.8,13.7l19.8-24.1C154.8,316.9,152.2,313,149.8,309.2L149.8,309.2z"/>
		</g>
	</g>
	<g opacity="0.7">
		<path fill="#335082" d="M134.2,284.3c5.7,16.4,34.6,56.3,40.2,63.8l-3.8,5.5c-11.1-15.4-33.4-47.7-39.6-65.8L134.2,284.3
			 M135.2,280.3l-6.6,7.1c6.1,19.1,31.4,55.3,41.9,69.8l6.3-9C176.8,348.1,136.3,293.4,135.2,280.3L135.2,280.3z"/>
	</g>
	<g opacity="0.7">
		<path fill="#335082" d="M121.2,298.2c0.7,1.9,1.5,3.9,2.4,5.9c4.3,9.7,27.6,48.5,37.7,62.9l-5.1,7.4c-3-5.3-10-17.5-17-30.8
			c-14.4-27.8-18-39.8-18.3-45L121.2,298.2 M122,294.4l-3.1,3.3c0,17.5,37.2,80.4,37.2,80.4l7.7-11.1c-9.6-13.4-34-54-38.3-63.7
			C123.9,299.8,122.8,296.9,122,294.4L122,294.4z"/>
	</g>
	<g>
		<g>
			<path fill="#335082" d="M134.2,284.3c5.7,16.4,34.6,56.3,40.2,63.8l-18.2,26.3c-3-5.3-10-17.5-17-30.8c-14.4-27.8-18-39.8-18.3-45
				L134.2,284.3 M135.2,280.3l-16.4,17.5c0,17.5,37.2,80.4,37.2,80.4l20.8-30.1C176.8,348.1,136.3,293.4,135.2,280.3L135.2,280.3z"
				/>
		</g>
	</g>
	<g>
		<g>
			<path fill="#335082" d="M219.4,284.3l13.3,14.2c-0.3,5.2-3.9,17.3-18.3,45c-6.9,13.3-13.9,25.6-17,30.8l-18.2-26.3
				C184.8,340.6,213.8,300.7,219.4,284.3 M218.4,280.3c-1.1,13.1-41.6,67.8-41.6,67.8l20.8,30.1c0,0,37.2-62.9,37.2-80.4
				L218.4,280.3L218.4,280.3z"/>
		</g>
	</g>
	<path opacity="0.24" fill="#D8C8BF" d="M95.7,197.4c11.2,40.5,37.8,68.1,80.9,68.1c44,0,70.1-28.3,80.5-69.9c0-10.8,0-19.3,0-19.3s0,18.2-9.1,36.4
		c-9.1,18.2-18.2,27.3-27.3,18.2c-9.1-9.1-9.1-27.3-27.3-27.3s-18.2,0-18.2,0s-27.3,0-36.4,9.1c-9.1,9.1-9.1,27.3-9.1,27.3
		s-9.1,0-18.2-18.2C105.2,209.5,99,201.4,95.7,197.4z"/>
	<path fill="#51433A" d="M82.6,126.4l-2.1-8.8c0.7-1.5,1.4-2.9,2.5-4c-1.4,0-2.3,0.8-3.1,1.7l-0.5-2.2c1.1-1.6,2.4-3.1,1.9-5.4
		c-0.5,1.1-1.8,1.8-2.6,2.6l-0.5-2.2c0.3-1.5,0.9-2.8,2.3-3.7c-1.4,0-2.2,0.5-2.9,1.2l0,0c0,0,13.4-29.4,17.1-32.1
		c-3.1,0.6-6.1,2.1-9.2,3.6l0.3-1l10.5-7.8l4.5-1.7c-3.6,0.8-1.9-4.1,4.7-4.4c1.2-0.1,2.2-0.1,3.2-0.1c-3.3-4.7-1.1-5.1-0.1-1.9
		c0.4,1.1,0.8,2.2,1.2,3c1.9,2.8,15.1,17,18.9,21.1c0.6,0.7,1,1.1,1,1.1s-0.8,0.3-2.1,0.9c-2.1,0.9-5.5,2.6-9.2,4.9
		c-2.7,1.6-5.5,3.6-8.1,5.8c-0.9,0.7-1.7,1.8-2.6,3.1c-0.8,1.3-1.7,2.8-2.5,4.5c-0.4,0.8-0.7,1.6-1.1,2.4
		c-2.3,5.3-4.3,11.7-5.9,17.5c-2.3,8.3-3.8,15.3-3.9,15.7l0,0"/>
	<path fill="#51433A" d="M274.2,114.8c0,0-3.9-10.3-7.5-21.3c-2.1-2.7-4.4-5.2-7.1-7.5c2.1,0,3.8,0.6,5.3,1.7c-0.5-1.7-1-3.4-1.5-5
		c-3.3-4-8-7.1-11.3-10.9c3,0,8.6-2.5,9-3.2c-2.7-1.7-5.5-3.2-8.1-4.3c0.3-0.1,0.7-0.1,1-0.2c5.4-0.7,11,2.4,14.5,4.8
		c0.8,0.2-5.8-7.5-13.2-8.3c-6.2-0.7-10.2-0.1-13.5,2c-0.1,0-3.3,2.5-3.3,2.5l1.8,1.8l-7.2,23.4c0,0,11,4.4,19.4,11.6
		c3.2,2.8,6.3,9.8,8.9,17.4c2.6,7.7,3,20,5,29.5l5.7-22.6l-2.6-10.2l3.5,5.4L274.2,114.8z"/>
	<path fill="#51433A" d="M276.2,114.2c0.2-0.5,0.5-22.7-6.7-28.8c-7.2-6.1-22.8-13.1-22.8-13.1s9.2,1,12.2,2.9c3,1.9,11,7.7,11,7.7
		s-6.6-13.2-15.7-15.4c-9.1-2.2-18.6-2.2-18.6-2.2l8,14.1c0,0,12.1,3.6,19.2,21.6"/>
	<path fill="#66574F" d="M116.8,64.1c0,0,26.8-16.6,51.6-12.8c24.8,3.8,31.4,19.3,40.6,27.1c9.2,7.8,20.8,15.9,20.8,15.9
		s-16.8-4.3-26.5-13.9c-9.7-9.7-21.9-25.5-35.8-27C144,50.7,116.8,64.1,116.8,64.1z"/>
	<path fill="#5B4B43" d="M233.4,69.6c-11.8-14.1-33.4-25.1-50.6-29.4c-17.2-4.3-44,4.6-54.2,7.1c-1.9,0.5-3.8,1.4-5.5,2.6
		c-7.2,4.9-12.7,14.2-13.3,15.6c-0.6-0.7-0.9-1.1-1-1.2c0,0,0,0,0,0c0,0,0,0,0,0s0,0.3,0.1,0.8c0.1,0.4,0.2,0.9,0.4,1.5
		c-2.6,0.2-14.7,1.3-21.6,6.8c-7.8,6.2-14,18.9-12.5,20.3C88,72,106.6,74,106.6,74s-8.5-0.2-17.1,9.3c-8.6,9.5-6.4,27.7-6.4,27.7
		s1.7-18.4,13.4-26.4c3.4-2.3,6.4-4.1,9-5.4c-2.7,2-5.5,4.5-7.7,7.8c-6,8.9-9.1,25.2-9.1,25.2s5.8-15.6,12.6-23.8
		c5.2-6.3,14-8,17.8-8.4c4.4,4,8.5,6.7,8.8,6.9c-0.3-0.4-5.2-6.6-8.8-10.9c1.5-1.8,5.2-5.7,11.1-5c0.7,0.1,1.4,0.2,2.1,0.4
		c6.1,1.7,21.4,12.1,13.3,3.3c-4.9-5.4-11-6.5-16.4-6c-3.4,0.3-6.5,1.1-8.9,1.9c2.1-1.4,4.8-3,7.9-4.6c9.4-4.9,22.9-9.6,37.6-8
		C181,59.6,194,85.4,194,85.4c8,7.4,14.9,12.2,5.7,0.8c-10.9-13.4-20.4-31.8-33.7-33.3c-13.5-1.6-28.4,4.1-39,9.6
		c-6.1,3.2-10.7,6.3-12.8,8c-0.2-0.2-0.3-0.3-0.5-0.5c0.5-3.2,4.6-8.5,11.4-13.2c1.4-1,3-1.9,4.7-2.8c14.7-7.8,36.9-12.5,47.7-9.1
		c13.9,4.4,38.6,18.3,46.9,25.7c4.3,3.9,10.7,13,15.9,20.8c0,0,0,0,0,0C244.9,98.5,245.2,83.8,233.4,69.6z"/>
	<path fill="#5B4B43" d="M269.5,112c-0.8-1.7-8.2-18.2-15.3-33.2c0.3-0.1,0.6-0.1,1-0.1c0.6-0.1,1.2-0.1,1.8-0.1
		C263.3,94,268.9,110.3,269.5,112z"/>
	
		<linearGradient id="SVGID_00000158732606208948268970000017247523719181761198_" gradientUnits="userSpaceOnUse" x1="262.1328" y1="106.2791" x2="253.6807" y2="103.2931">
		<stop  offset="0" style="stop-color:#FFE9DA"/>
		<stop  offset="0.9944" style="stop-color:#EA7052"/>
	</linearGradient>
	<path style="opacity:0.5;fill:url(#SVGID_00000158732606208948268970000017247523719181761198_);" d="M259.6,100.9
		c3.8,6.6,6.4,11.3,6.4,11.3S263.7,107.6,259.6,100.9z"/>
	<path fill="#FFFFFF" d="M126.4,163.1c0,2.2-1.8,4-4,4c-2.2,0-4-1.8-4-4c0-2.2,1.8-4,4-4C124.6,159.1,126.4,160.9,126.4,163.1z"/>
	<path fill="#3F3631" d="M117.6,73.1c-4.3-5.4-7.8-7.6-7.8-7.6s-0.3,3.4,3.7,9.2c3.5,5,11.6,10.3,13.8,11.8c0.1,0,0.1-0.1,0.2-0.1
		c0,0,0,0,0,0C126.2,84.5,121.3,77.8,117.6,73.1z"/>
	<g>
		<path fill="#D1A49F" d="M144.1,222.2c9.9,4.9,20.2,7.7,30.6,7.6c11.1,0,19.3-1.8,29.9-6.9c2.1-1,5.2-1.1,3.2,0.7
			c-3.4,3-7.3,5.7-11.5,7.8c-6.6,3.4-14,5.2-21.6,5.3c-7.5,0-15-1.7-21.7-5C149.1,229.7,141.4,220.9,144.1,222.2z"/>
		<path opacity="0.36" fill="#D1A49F" d="M143.4,222c0,0,9.5,5.4,12.2,2.7c4-4,6.4,4.9,10.4,6.2s14-0.8,14-0.8l-19,1.4L143.4,222z"/>
	</g>
</g>
</svg>
