<?xml version="1.0" encoding="utf-8"?>
<!-- Generator: Adobe Illustrator 27.1.0, SVG Export Plug-In . SVG Version: 6.00 Build 0)  -->
<svg version="1.1" id="Laag_1" xmlns="http://www.w3.org/2000/svg" xmlns:xlink="http://www.w3.org/1999/xlink" x="0px" y="0px"
	 viewBox="0 0 351 467" style="enable-background:new 0 0 351 467;" xml:space="preserve">

<path fill="#080051" d="M1142.9,1807.9C1142.9,1808,1142.8,1808,1142.9,1807.9C1142.8,1808,1142.8,1808,1142.9,1807.9z"/>
<path fill="#205E20" d="M-68.6,1865.9C-68.6,1866-68.5,1866-68.6,1865.9C-68.5,1866-68.5,1866-68.6,1865.9z"/>
<ellipse transform="matrix(0.9183 -0.3959 0.3959 0.9183 -143.2151 147.4882)" cx="285.7" cy="420.7" rx="25.2" ry="7.1"/>
<path fill="#271E19" d="M255.1,348.4c0,0,35.1,7.2,41.8-20.1c15.2-61.9,6.1-195.7-23.8-241.1C230,21.8,198.9,21.9,163.2,21.9
	s-56.8,27.3-78.9,65.4S60.5,193.6,63.8,219.1c3.3,25.5-24.6,48.1-16.5,71.9s44.2,32.3,47.6,44.8s-3.4,23.8-3.4,23.8L255.1,348.4z"/>
<ellipse transform="matrix(0.3959 -0.9183 0.9183 0.3959 -341.7421 321.8152)" cx="73.7" cy="420.6" rx="7.1" ry="25.2"/>
<path fill="#EAD1BD" d="M31.4,467H78l29-65l7,65h132l13-51l24,51h50l-62.6-126.6c0,0-3.1-13.6-25-20.9c-21.8-7.3-44.2-15.5-44.2-31
	s0-40.9,0-40.9h-24.4h-24.4v40.9c0,15.5-22.4,23.7-44.2,31s-21,22.8-21,22.8L31.4,467z"/>
<path fill="#F2DDCB" d="M273,142.3c0,79.3-33.4,134.2-98.3,134.2c-64.8,0-100.8-55.6-100.8-134.9S111,24.3,175.8,24.3
	C240.7,24.2,273,63,273,142.3z"/>
<path fill="#96A6AA" d="M147.7,174.2c0,10.9-8.9,19.7-19.9,19.7s-19.9-8.8-19.9-19.7s8.9-19.7,19.9-19.7S147.7,163.3,147.7,174.2z"/>
<path fill="#2A1D01" d="M142.6,174.2c0,7.6-6.2,13.8-13.8,13.8s-13.8-6.2-13.8-13.8s6.2-13.8,13.8-13.8S142.6,166.6,142.6,174.2z"/>
<path fill="#FFFFFF" d="M123,167.1c0,2.2-1.8,4-4,4s-4-1.8-4-4s1.8-4,4-4S123,164.9,123,167.1z"/>
<path fill="#A38276" d="M135.1,223.6c12.1,7.3,25.1,11.9,38.2,11.7c13.2,0,25.9-5.1,38.5-11.7c-4.6,5.5-10.4,10-17,13.2
	c-6.6,3.3-14,5.1-21.5,5.2c-7.5,0-15-1.7-21.5-4.9C145.2,234,139.3,229.5,135.1,223.6z"/>
<path fill="#96A6AA" d="M201.1,174.2c0,10.9,8.9,19.7,19.9,19.7s19.9-8.8,19.9-19.7s-8.9-19.7-19.9-19.7S201.1,163.3,201.1,174.2z"/>
<path fill="#2A1D01" d="M206.2,174.2c0,7.6,6.2,13.8,13.8,13.8s13.8-6.2,13.8-13.8s-6.2-13.8-13.8-13.8S206.2,166.6,206.2,174.2z"/>
<path fill="#FFFFFF" d="M207,167.1c0,2.2,1.8,4,4,4s4-1.8,4-4s-1.8-4-4-4S207,164.9,207,167.1z"/>
<radialGradient id="SVGID_1_" cx="124.543" cy="256.2" r="15.9785" gradientTransform="matrix(1 0 0 -1 0 468)" gradientUnits="userSpaceOnUse">
	<stop  offset="0" style="stop-color:#EDCDB5"/>
	<stop  offset="1" style="stop-color:#F2DDCB"/>
</radialGradient>
<path fill="url(#SVGID_1_)" d="M140.5,211.8c0,8.8-7.2,16-16,16s-16-7.2-16-16s7.2-16,16-16C133.4,195.8,140.5,203,140.5,211.8z"/>
<radialGradient id="SVGID_00000088108644139853143760000014336289449932506752_" cx="226.7" cy="256.2" r="16" gradientTransform="matrix(1 0 0 -1 0 468)" gradientUnits="userSpaceOnUse">
	<stop  offset="0" style="stop-color:#EDCDB5"/>
	<stop  offset="1" style="stop-color:#F2DDCB"/>
</radialGradient>
<path style="fill:url(#SVGID_00000088108644139853143760000014336289449932506752_);" d="M242.7,211.8c0,8.8-7.2,16-16,16
	s-16-7.2-16-16s7.2-16,16-16S242.7,203,242.7,211.8z"/>
<path fill="#D5D5D7" d="M179.7,353.8c-30.4-1.9-46.6-30.6-49.4-42.4l-10.1,3.1c8.3,21.3,23.1,48.4,59.5,49.1L179.7,353.8z"/>
<path stroke="#FFFFFF" stroke-width="1.0189" stroke-miterlimit="10" d="M120.2,314.5c7.3,19.4,22.5,49.1,59.5,49.1"/>
<path fill="#D5D5D7" d="M179.5,353.8c30.4-1.9,46.2-29.3,49.1-41.1l10,4c-8.3,21.3-22.7,46.2-59.1,46.9V353.8z"/>
<path stroke="#FFFFFF" stroke-width="1.0189" stroke-miterlimit="10" d="M238.6,316.7c-7.3,19.4-22,46.9-59.1,46.9"/>
<path fill="#4C4C4C" d="M187.3,168.4c0.5,7.5,1.5,16,5.3,21.1c7.6,10.3,21.8,14.8,33.2,14.8c17,0,29.4-12.9,29.3-32.5
	c0-10.7-2-12.6-6.5-17.1c-4.7-4.7-19.6-6.8-27.5-6.8C204.5,147.9,186.2,152.2,187.3,168.4z M220.7,149.7c7.3,0,21.3,1.9,25.6,6.2
	c4.1,4.1,5.9,5.8,5.9,15.7c0.1,18-11.2,29.8-26.9,29.8c-10.4,0-23.5-4.1-30.4-13.6c-3.5-4.7-4.4-12.5-4.8-19.4
	C189.1,153.6,205.5,149.7,220.7,149.7L220.7,149.7z"/>
<path fill="#4C4C4C" d="M128.4,147.9c-8,0-22.9,2.1-27.5,6.8c-4.5,4.5-6.4,6.4-6.5,17.1c-0.1,19.6,12.3,32.5,29.3,32.5
	c11.4,0,25.6-4.5,33.2-14.8c3.8-5.1,4.8-13.7,5.3-21.1C163.3,152.2,145,147.9,128.4,147.9z M159.4,168.4c-0.4,6.8-1.4,14.7-4.8,19.4
	c-7,9.5-20,13.6-30.4,13.6c-15.6,0-26.9-11.8-26.9-29.8c0-9.8,1.8-11.6,5.9-15.7c4.3-4.3,18.3-6.2,25.6-6.2
	C144,149.7,160.4,153.6,159.4,168.4z"/>
<path fill="#161616" d="M264.1,156c0-0.1,0-0.2,0-0.3c0-0.2,0-0.3,0-0.5s0-0.3-0.1-0.5c0-0.3-0.1-0.5-0.1-0.8c0-0.1,0-0.2,0-0.3
	c0-0.3-0.1-0.7-0.2-1c0-0.1,0-0.1,0-0.2c-0.1-0.3-0.1-0.6-0.2-0.9c0,0,0,0,0-0.1s-0.1-0.2-0.1-0.3c-0.2-0.6-24.3-4.5-42.5-4.4
	c-11.1,0-17.5,1.4-28.9,6.4c-1.5,0.7-4.1,2.3-7,2.5c-2.4,0.2-6.4-0.2-10-0.1c-3.7,0-7.7,0.3-10,0.1c-2.9-0.2-5.5-1.8-7-2.5
	c-11.4-5-17.8-6.4-28.9-6.4c-18.2,0-42.3,3.8-42.5,4.4c0,0.1-0.1,0.2-0.1,0.3v0.1c-0.1,0.3-0.2,0.6-0.2,0.9v0.2
	c-0.1,0.3-0.1,0.6-0.2,1v0.3c0,0.3-0.1,0.5-0.1,0.8c0,0.2,0,0.4-0.1,0.5v0.5v0.3c-0.1,1.6-0.1,3-0.1,3.3c0.1,0.9,0.3,3.8,1.8,4.2
	c2.8,1,3.7,1.2,5.2,3.6c1.3,2.1,1.8,11.6,3.1,16c2.2,7.2,9.9,23.3,29.4,22.4c22.4-1,31.3-13.1,32.8-15.1c5.3-7.1,6.6-18.9,7.3-20.8
	c0.7-1.8,2.9-4.3,10.2-4.3s8.6,2.6,9.3,4.3c0.7,1.9,2.1,13.7,7.3,20.8c1.5,2,10.4,14.2,32.8,15.1c19.5,0.8,27.3-15.2,29.4-22.4
	c1.3-4.4,1.8-13.8,3.1-16c1.5-2.4,2.4-2.7,5.2-3.6c1.4-0.5,1.7-3.4,1.8-4.2C264.1,159,264.2,157.6,264.1,156z M160.5,168.8
	c-0.5,7.1-1.4,15.1-5,20c-7.2,9.8-20.7,14.1-31.5,14.1c-16.2,0-27.8-12.2-27.8-30.8c0-10.2,1.9-12,6.1-16.2
	c4.4-4.4,18.8-6.4,26.3-6.4C144.4,149.4,161.4,153.4,160.5,168.8L160.5,168.8z M225.5,202.9c-10.8,0-24.3-4.3-31.5-14.1
	c-3.6-4.9-4.5-12.9-5-20c-1-15.4,16.1-19.4,31.8-19.4c7.5,0,21.9,2,26.3,6.4c4.2,4.3,6.1,6,6.1,16.2
	C253.3,190.7,241.7,202.9,225.5,202.9L225.5,202.9z"/>
<path fill="#3F342F" d="M101.6,146c0,0,25.9-15.2,32.4-33.9s5.3-46.8,4.6-57.5c-0.8-10.7-28.2,22.5-28.2,22.5L101.6,146z"/>
<path fill="#EBEBEC" d="M48.6,435.7c0,0.1-0.1,0.1-0.1,0.1S48.5,435.8,48.6,435.7z"/>
<path fill="#EBEBEC" d="M307,435.7c0,0.1,0.1,0.1,0.1,0.1S307,435.8,307,435.7z"/>
<path fill="#4C4C4C" d="M88.1,152c8-1.5,15.9-2.7,24-3.5c8-0.8,16.2-1.7,24.2-0.5c-8-1-16.1,0.1-24.1,1c-8,1-16,2.4-23.8,4
	C87.7,153.1,87.5,152.1,88.1,152z"/>
<path fill="#3F342F" d="M177.6,6.3c-12.4,0-24.1,9.1-35.5,11.4s-29.7,8.8-42.5,21.5c-17.2,17-16,30.5-17,66.8
	c-0.4,14.4-5.2,22.8-19,42.5s-3,14.7-17.7,36.7c-4.6,6.8-15.7,26-18,33.6c-7.6,29,3,40.8,3,40.8S21.6,291.3,29,307
	c9.1,19.3,28,25.8,34.5,35.3c6.5,9.6-5.9,26.1-5.9,26.1s15.9-11.5,11.9-28.2c3.6,3.4,8.5,8.6,8.9,12.2c0.6,5.8-2.3,13-7.8,16.9
	c0,0,14.7-2.3,14.7-20.3c0-17.9-7.2-16.4,0-26.3c7.2-10,16.6-15.2,12.9-31.9c0,0,13.8,5.7,4.3,25.3c-7.2,14.8-6.6,20.5-1.4,28.5
	s1.2,15-6,14.9c0,0,10.6,2.3,9.6-9.7c-0.4-5.4-6.1-11.3-4.6-18.5c1.9-8.7,9.5-18.9,10.9-26.3c2.4-12.9-1.6-17.6-14.4-27.5
	c-9.6-7.2-11.4-11-11.6-12.5c0.1,2.5,0.8,10.7,5.8,16.4c0,0-14.6-13.1-8.6-32.5c0.1-0.4,19.6-47,24.2-64.5
	c9.4-35.9-2.3-57.9,4.7-78.7s12-33.6,39.9-46.6c27.9-13.1,53.4,0,53.4,0s18.1-18.2,18.9-32.5C223.9,12.3,189.9,6.3,177.6,6.3
	L177.6,6.3z"/>
<path fill="#3F342F" d="M94.3,54.6c0,0-15.5,13.3-25.3,33.5s-5.8,75-9.3,87.4s35.1,3.8,34.5-14.1S94.3,54.6,94.3,54.6z"/>
<path fill="#3F342F" d="M193.1,21.9L204.3,59c0,0,5.6-2.5,10.8,5.8c2.5,4,10.8,28.3,21.9,42.5c8.5,10.9,18,22.7,18,22.7
	s16,61,23.5,73.1c21.7,35.2-6.6,55.3,0,76.5s20.7,26.8,18.8,45.6s-5.6,21.6-5.6,21.6s9.8-7.7,10.9-21.4c1.1-13.8-1.7-17.8-1.7-17.8
	s11.3,24.1,22.5,15.4c0,0-5.6-0.3-1.2-5.5c5.3-6.3,12-15.6,16.4-26.1c8-19.2,6-83.8-9.7-105.5c-12.3-17-16.5-7-20.6-47.8
	c-2.6-26.7,1.2-19.6-4.1-36.9c-6.4-21.2-24.6-27.9-24.6-27.9s-12.2-34.5-25.4-40c-13-5.4-30.5-2-40.2-1.4
	C197.9,32.9,193.1,21.9,193.1,21.9L193.1,21.9z"/>
<path fill="#271E19" d="M221.2,31.9c3-8.7-0.4-12-0.4-12s5.3,4.9,5.3,11.8S211.5,57,211.5,57s2.2-0.9,3.9,2.1
	c4.7,8.1,14,39.9,25.5,52.2c0,0-12-8.2-27.9-47.7c-0.9-2.3-3-4.6-8.7-4.5C204.3,59,218.3,40.6,221.2,31.9z"/>
<path fill="#5A5047" d="M210.1,56.4c6.8-1.2,15.1,0,19.1,6.3c2.1,3.7,3.1,7.5,5,11.3c4.3,9.5,9.8,18.8,17.5,25.8
	c5.7,5.3,12.7,8.6,20,11.2c5.3,1.9,10.7,3.6,15.4,7.1c7.4,5.3,9.9,14.5,11.6,23c2.4,10.5,3.1,21.7,4.4,32.2c1,7.8,4.2,15,8.9,21.2
	c4.9,6.4,10.7,12,15.9,18.2c11.5,13.2,18.5,28,10.4,45.1l-0.6-0.2c7-16.9-0.2-30.7-11.9-43c-11.5-12.3-24.4-22.7-27.1-40.5
	c-1.7-10.8-2.6-21.2-5.5-31.6c-1.4-4.8-2.5-10-5.1-14.2c-5.6-8.8-17.1-9.9-26.2-14.7c-5.1-2.5-9.9-5.8-13.9-9.8
	c-9.9-9.9-15.6-22.9-19.7-36.1c-1.7-8.4-10.4-11.1-18-10.6C210.2,57,210.1,56.4,210.1,56.4L210.1,56.4z"/>
<path fill="#5A5047" d="M271.5,146.9c5.3,17.6,9.4,35.4,14.4,53.1c1.7,5.7,3.5,11.4,7.3,16.1c3.6,4.7,8.3,8.5,13.2,12.1
	c6.1,4.6,13.5,8.6,16.9,15.8c1.9,4.3,2.7,9,3.3,13.6c0.7,6,1.4,12.4,5.8,16.8l-0.3,0.3c-1.1-1.1-2.1-2.3-2.9-3.6
	c-4.5-8.1-3.1-18.1-7.4-26.3c-3.6-6.7-10.8-10.3-16.8-14.6c-5.1-3.4-10.1-7.3-14.2-12.2c-4.2-4.8-6.4-10.9-8.5-16.8
	c-2.1-5.8-3.8-11.8-5.2-17.8c-2.8-12-4.9-24.1-6-36.4L271.5,146.9z"/>
<path fill="#3F342F" d="M242.3,277c0,0-10.5,13.4-4,27s8.8,17.4,4,25.9c0,0,10.5-5.1,7.1-18.7c0,0,14.8,8.3,11.7,23.4
	c-3.5,16.9,3.9,14.3,3.9,14.3s-2.8-0.2-2-4.5s6.5-10.3,6.5-10.3s-3,21.4,7.5,25c0,0-4.5-3.5,3.5-16.7c3.7-6.1,10.2-11.6,11.3-16.3
	c0,0,0.8,6.8-2.8,14.2s2.8,12.1,2.8,12.1s-3.9-4.2-2.9-6.9c0.9-2.8,11-16.6,11.2-22.2c0.2-5.5-7.3-29.9-7.3-29.9l3.6-42.4
	c0,0-12.6,19.4-10.8,29c1.8,9.7-1.7,11.8-1.7,11.8s-6.9-2.9-9-8.9c-2.2-6.1-2.5-14.3-2.5-14.3s-3.7,10.9-2.1,16.2
	c-2.8-1.7-4.7-5.3-5-14.4c0,0-3.2,7.6,1.9,19.1c0,0-8.3-5.8-8.9-14.3s1.1-13.2,1.1-13.2s-7.9,9.3-8.9,14.9c-1.7,9,1.9,11.4,1.9,11.4
	S242.9,286.3,242.3,277L242.3,277z"/>
<path fill="#3F342F" d="M278.6,234.4c-0.3,3.9-0.4,7.8-1.2,11.6c-0.7,3.8-1.9,7.6-2.7,11.3c-1.6,7.5-2,15.2-1,22.8l-3,0.3
	c-0.2-4-0.2-7.9,0.3-11.9c0.7-7.8,3.6-15.2,5.7-22.7C277.7,242.1,278,238.2,278.6,234.4L278.6,234.4z"/>
<path fill="#5A5047" d="M285.6,246.5c-3.2,12-9.4,25.7,2,43.8s9.2,32,8.3,36.9c0,0,1.3-13.2-5.4-21.2c0,0,3.9,11.6-0.4,20.4
	c-4.2,8.8-19.6,11.4-18.3,22.1c0,0-2.6-6.7-0.1-14.1s6.3-12,6.3-12s-10.1,5.7-13,12.2c0,0,3.5-7.6,3.1-15.5
	c-0.4-8-8.2-16.5-8.2-16.5s10.8,7.1,11.9,13.4c0,0,2.4-10.2-12.8-32.4c0,0,2.8,3.5,7.7,7.3c7,5.3,13,12.2,12.9,17.9
	c0,0,2.1-4.3-1.1-13.4c0,0,7.8,9.8,8,17.7c0,0,2.5-10.1-0.7-18.8C282.6,285.5,273.5,271.1,285.6,246.5L285.6,246.5z"/>
<path fill="#493E38" d="M41.8,213c0.6-10.4,12.8-34.5,12.8-34.5c-2.7,1.3-6.5,8-12.8,13.3c-5.2,8.7-12.1,21.2-13.9,27
	c-6.3,23.8-0.2,36,2.2,39.7l19-16.6C49.1,241.8,41.1,223.4,41.8,213z"/>
<path fill="#5A5047" d="M305.2,152.2c-1.5-10.3-2.6-20.9-7.1-30.3c-2.2-4.6-6.4-7.8-11.1-9.8s-10.4-2.7-14.4-6.2
	c2.2,1.4,4.7,2.2,7.3,2.7c7.9,1.5,16.3,4.5,20,12.3C304.4,130.7,305.3,141.7,305.2,152.2L305.2,152.2z"/>
<path fill="#473C38" d="M322.1,317.4c5.3-6.3,12-15.6,16.4-26.1c3.5-8.5,5.1-25.7,4.4-44.2c-2.6,12.2-6.5,15.7-7.7,21.3
	c-1.1,5.7,2.2,9.4,2.2,9.4c-7.5-1-10.9-6.9-10.9-6.9c1.5,6.2,8.5,11.3,8.5,11.3c-8.4-4-11.1-9.3-10.9-20.4s-7.4-17-14.6-21.4
	s-21.8-16.7-21.8-16.7s6.3,9.1,11.1,16.5c4.9,7.4,1.4,19.5-0.5,25.3s-5.2,22.3,0,36c2.1,5.6,6.2,12.1,10.4,17.8
	c4.1,4.4,9.4,7.5,14.6,3.4C323.4,323,317.8,322.7,322.1,317.4z"/>
<path fill="#5A5047" d="M253.6,75.7c-4.4-1.8-8.7-4.9-10.9-9.4c-1.9-4.3-3.1-9.1-6.5-12.5c-2.1-2.1-5-3.6-7.8-3.4l-3.7,0.3l3.2-2.1
	c2.2-1.4,4.8-1.9,7.3-1.6s4.9,1.5,6.7,3.4l-1.7,0.8c-0.6-4.7-5.2-8.6-9.9-8.5l-3.5,0.1l3.1-1.5c3.4-1.6,7.5-1.7,10.9-0.1
	c3.3,1.6,5.9,4.6,6.8,8.1c-2.4-6.8-10.7-10.1-17-6.6l-0.4-1.4c2.8-0.2,5.6,0.9,7.7,2.6c2.1,1.8,3.8,4.3,4.2,7.1l0.4,3.1l-2.1-2.3
	c-2.8-3.1-8-3.8-11.5-1.5l-0.6-1.8c3.6-0.2,6.9,1.6,9.3,4.1c3.5,3.7,4.6,8.7,6.3,13.2C245.6,70.2,249.4,73.4,253.6,75.7z"/>
<path fill="#493E38" d="M218.6,26.7c1.5-5.6-8.9-7.1-21.4-12.7s-22.5-1.5-33.9,3.5c-8.9,3.9-18.2,1.5-22,0.2
	c-11.4,2.4-29.2,8.9-41.7,21.3c-7.5,7.5-11.5,14.2-13.7,22.5c2-0.7,4.3-1.5,6.9-2.4c12.1-4.3,14.8-11.9,25.4-16.3s34.9,1.4,45.1-0.7
	s15.4-6.2,22.1-5.9c6.7,0.4,7.8,11.7,7.8,11.7c3,5.6,11.2,5.6,11.2,5.6C214.3,43.2,217.1,32.4,218.6,26.7L218.6,26.7z"/>
<path fill="#493E38" d="M53.5,322c0,0,20.3,32.1-8.6,48.9c0,0,9.7-4.7,10.7-17.7c1-13.1-35.1-24.8-36.1-59.6
	C18.2,247.2,53.5,322,53.5,322L53.5,322z"/>
<path d="M268.3,327.4c-1.8-1.3-39.1-16.3-39.1-16.3c-3.1,10.1-15,42.5-47.3,42.5s-49.7-23.2-52.1-42.5c0,0-37,12.6-38.8,13.9
	c-1.7,1.3-39.2,82.4-40.6,85.7c0.2-0.4,1.5-2,7.4-1.8c6.9,0.3,41.1,12.5,38.7,22.9l4.2-8.5l8.1,43.6h141.5l8.2-43.6l4.2,8.5
	c-2.4-10.4,31.8-22.6,38.7-22.9c5.9-0.2,7.2,1.3,7.4,1.8C307.3,407.4,270,328.7,268.3,327.4L268.3,327.4z"/>
<path fill="#271E19" d="M295.1,265.5c0,0,3.9-12.9,2.3-20.5s-13.2-18.8-17.2-34.7s-1.6,20.4-1.6,20.4l-0.3,26.7l7.5-22.9
	c0,0,8.1,7.5,8.4,14c0.3,6.4-4.8,23.3-1.2,28.8C293.1,277.2,291.9,274.4,295.1,265.5L295.1,265.5z"/>
<path fill="#271E19" d="M268.1,65.6c3.2,3.9,7.6,6.4,11.4,7.5c-0.4-1.2-2.7-7.4-6.2-14.6c-0.7,0.2-1.5,0.2-2.4-0.2
	c-3.2-1.3-5.5-5.7-7.9-8.6c-2.3-2.7-4.8-4.1-4.8-4.1S264,60.6,268.1,65.6z"/>
<path fill="#5A5047" d="M204.3,51.3c4.4-6,10.3-15.6,4-22.1c-2.5-2.6-5.9-4.4-9.4-5c-5.8-1-11.8,0.7-16.7,3.8
	c-8.7,6-14.5,10.1-26,10.1c-19.7,1.7-47.6-5.6-58,16.5c6.9-20.1,31.2-19,48.6-19c5.8-0.3,12.4-0.2,18.1-1.5c4.3-1.1,8.2-3.5,11.9-6
	c6.4-4.7,14.5-8,22.6-6.2c4,0.8,7.7,3,10.4,6.1C216.2,35.3,209.8,45.4,204.3,51.3L204.3,51.3z"/>
<path fill="#5A5047" d="M100.1,43.1c6.5-10.5,19.8-14.6,31.6-14.1c5.2,0.1,12.5,1.3,17.8,2.1c5.8,0.9,11.8,1.1,17.4-0.9
	c-5.4,2.7-11.7,3.1-17.6,2.5c-6-0.6-11.8-1.5-17.6-1.6C120,30.5,107.6,33.8,100.1,43.1L100.1,43.1z"/>
<path fill="#5A5047" d="M196.9,43.1c0.2-2.5-1-5.2-3.8-5.1l-2.4-0.2l2.2-0.9c4.6-1.9,7.7,1.1,7.7,5.7v1.6l-1.8-0.6
	c0.4-0.6,0.7-1.4,0.9-2.1c0.7-2.1,0.9-4.5-0.2-6.6l-2-4.3l3.4,3.1c3.7,3.3,3.9,8.9,1.6,13l-0.8-0.7c0.4-0.2,0.9-0.6,1.3-1
	c1.3-1.2,2.3-2.6,3.1-4.3c-0.6,2.4-1.8,4.7-3.9,6.2l-1.2,0.8l0.5-1.5c1.5-3.7,1.2-8.4-1.9-11.1l1.5-1.2c1.8,3.4,1,7.4-0.8,10.6
	l-2,3.3l0.2-3.9c0.2-2.3,0.2-5.8-2.7-6.3c-0.8-0.1-1.8,0-2.6,0.2l-0.2-1.1C196.4,37.1,197.7,40.2,196.9,43.1z"/>
<path fill="#493E38" d="M70.9,369.4c0,0,15.7-6.9,10.3-21.5c-5.3-14.1-6.3-20.1-0.4-28.3c6-8.2,12.5-12.6,12.7-22.5
	c0.1-4-1-7-2.7-10.2c-2.5-4.8-6.5-10-10.3-19.1c-6.2-15.2-6.2-36.6,6.2-59.3c17.9-32.6,3.7-51.2,1.4-67c-1.4-9.2,12-19.5,12-19.5
	c11.4-10.3,18.2-11.7,22.8-49.9c0,0-4.3,9.3-10.5,12.6c-12.1,6.4-35.4,16.7-36.7,37.7c-0.6,10.4,1.4,19.9,2.7,30.8
	c0,0-2.2-6.5-3.6-11.6c0,0-1.4,2.8,2.2,18.8c2,8.7-12,11.4-16.5,20.8c-6.4,13.5-1.3,39.9-5.8,48.8c-3.6,7.2-33.1,31.7-35.5,46.4
	c-1.8,11.4-0.9,16.5,1.5,26.7c1.3,5.8,14.6,11.1,16.7,15.7C46.9,329.4,59,335,64,342.2c6.5,9.6-5.9,26.1-5.9,26.1S74,356.8,70,340.1
	c3.6,3.4,8.5,8.6,8.9,12.2C79.3,358.4,76.4,365.5,70.9,369.4L70.9,369.4z"/>
<path fill="none" stroke="#4C4C4C" stroke-linecap="round" stroke-miterlimit="10" d="M165.8,157.8c0,0,7.7-1.2,18.7,0"/>
<path fill="#4C4C4C" d="M260.8,153c-7.9-1.6-15.9-3-23.8-4c-8-0.9-16.1-2-24.1-1c8-1.1,16.2-0.3,24.2,0.5c8,0.9,16,2.1,24,3.6
	C261.6,152.1,261.4,153.1,260.8,153z"/>
<path fill="#5A5047" d="M88.1,297.5l-13-24.7c0,0,1.8,7.1-3.2,17.3v-7.7c0,0-9.6,6.7-10.4,11.2c0,0-2.5-2.1-0.6-6.7s7.9-8.7,7.6-16.7
	s-7.1-15.3-7.1-15.3s-0.3,12-2.9,15.3s-5.3,7-5.3,7s1.6-2.2,2-10.8s-1-11.5-1-11.5s0.6,10-6.6,24.1c0,0,3.1-14.1,1.2-18.6
	c0,0-14,15.5-13.4,31s16.5,27.1,16.5,27.1s12.3,14,10.4,22.8l0.9,1.2c6.5,9.6-5.9,26.1-5.9,26.1s15.9-11.5,11.9-28.2
	c3.6,3.4,8.5,8.6,8.9,12.2c0.6,5.8-2.3,13-7.8,16.9c0,0,15.7-6.9,10.3-21.5c-5.3-14.1-6.3-20.1-0.4-28.3
	C83.1,315.7,90.6,309.6,88.1,297.5L88.1,297.5z"/>
<path fill="#5A5047" d="M72.7,368.4c5.4-4.4,9.5-11.4,8-18.4c-1.6-6.9-5.9-13.2-6.3-20.6c-0.6-5.5,0.3-11.6,3.9-16
	c1.1-1.5,2.2-2.8,3.1-4.2c2.3-3.5,3.1-7.9,3.2-12.1c-0.2-2.3-1.6-4.5-2.7-6.7l-5.3-9.3c-11-20-12-31.7-2.6-52.6
	c2.8-6.6,6.2-13,9.6-19.4c4.7-9.2,10.1-18.7,10.4-29.1c-0.3-16.8-15.6-37.5-2.1-52.5c5-5.4,11.2-9.1,16.2-14.2
	c5.2-4.9,7.8-11.5,9.9-18.2c2.3-6.8,3.3-13.8,4.1-20.9c0.7-7.2,3.3-14.2,8.2-19.6c-4.5,5.7-6.7,12.6-7.1,19.7
	c-0.5,7.1-1.3,14.4-3.3,21.3c-1.9,7-4.6,14.1-9.8,19.4c-6.8,7.9-18.2,12.5-19.9,23.2c-1.7,14.3,7.4,27.3,7.8,41.7
	c-0.4,17.3-13.9,34.3-20.3,50.1c-11.8,25.3-5.3,36,7.1,58.9c1.2,2.6,2.8,5.1,2.9,8.3c-0.2,4.7-1.2,9.4-4,13.4c-2,3-4.7,5.3-6,8.6
	c-2.4,6.4-1.4,13.9,0.9,20.3c1.1,3.3,2.7,6.7,3.2,10.3C83,357.2,78.5,364.3,72.7,368.4L72.7,368.4z"/>
<path fill="#5A5047" d="M32.1,284.8c-1.3-9.8,3.2-20.1,10.4-26.6c1-0.9,2.2-1.8,3.3-2.6c-0.8,1.1-1.8,2.1-2.6,3.2
	C37.2,266.3,33.4,275.3,32.1,284.8z"/>
<path fill="#8C8279" d="M67.3,342.3c-0.4-3.6-2.2-6.9-3.9-10.1s-3.5-6.4-5.2-9.6c-3.2-6.7-6.4-13.6-7.2-21c-0.9-7.9,3.2-15,7.6-21.1
	c2.1-3,4.3-5.9,5.1-8.8c1-3.1,0-6.2-1.4-9l3.7-1.5c0.6,2.5,0.4,5.1-0.3,7.6c-1.2,4.7-5.2,7.9-8.6,11c-4.5,4.2-8.9,9.2-9.9,15.4
	c-0.6,3-0.3,6.1,0.4,9.1c0.6,1.9,2.2,6.8,2.8,8.8l-3.9-4.4c-5.9-7.1-5.9-17.3-2.7-25.5c0.5-1.1,1-2.3,1.5-3.4
	c-0.4,1.2-0.8,2.4-1.1,3.5c-1.6,6.1-1.8,12.8,0.8,18.6c0.8,1.8,1.9,3.7,3.3,5l-2,1.4L45,305c-3.6-11,1.5-20.5,9.5-28
	c4.1-3.8,8.4-7.3,7.8-13.5c0-0.4-0.1-0.9-0.2-1.2l-4.5-18.2l8.2,16.8c3.3,5.9,2.9,11.9-0.9,17.4c-6.6,9.7-13,15.7-10.1,28.4
	C56,311.9,57.9,317,60,322C62.6,328.5,67,335,67.3,342.3L67.3,342.3z"/>
<path fill="#8C8279" d="M79.9,287.9c6.7,6.4,7.4,18.5,0,24.7C84.7,304.5,84,296.2,79.9,287.9z"/>
<path fill="#8C8279" d="M79.9,305.5c0.2-3.4,0.1-6.4-0.1-9.8C81.4,298.7,81.5,302.5,79.9,305.5z"/>
<path fill="#8C8279" d="M273.2,338.6c0.1-4.7,1.7-9.7,4.4-13.5c1.9-3.5,1.6-8.3,0.9-12.3c-0.8-4.4-2.7-8.1-5.7-11.4
	c-3-3.6-5.9-7.3-8.5-11.3c3.8,2.8,7.3,5.9,10.7,9.1c7.2,5.9,10,17.3,6.2,25.9c-0.8,1.7-2.2,2.9-3.3,4.4
	C276,332.3,274.6,335.3,273.2,338.6L273.2,338.6z"/>
<path fill="#5A5047" d="M322.1,317.5c3.3-4,7.2-9.1,10.8-15v-0.1c-14.5-7.2-16.2-27.6-16.2-27.6c-1.6,12,1.8,15.3,1.8,15.3
	c-5.1-5.7-7.4-26-7.4-26c-4.1,17.5-1.6,24.4-1.6,24.4c-2.2-3.1-3.6-11.4-3.6-11.4c-1.8,10.2,2.5,17.8,2.5,17.8
	c-3.5-2.4-4.3-11.7-4.3-11.7c-4.1,10.4,5.9,25.4,5.9,25.4l-5.9-4.8c7.3,18.2,15.6,19.2,19.2,19.2C323.4,323,317.8,322.7,322.1,317.5
	L322.1,317.5z"/>
<path fill="#8C8279" d="M305.4,295.5c2,5,5.4,9.6,9.4,13.3c5.3,5,16.9,6,15.5,15.6c-0.3,2.1-1.6,4.1-3.5,4.8l-0.2-0.3
	c2.2-2.6,1.9-6.4-0.1-9c-3.2-3.5-9.3-6.1-12.9-9.8c-3.8-4.1-6.9-9.1-8.5-14.6C305.1,295.6,305.4,295.5,305.4,295.5L305.4,295.5z"/>
<path fill="#5A5047" d="M173.6,53.3c0,0-15.8-8.7-20.2,3.8c-2.8,7.9,3.2,33.9-6.3,51.4c-7.9,14.6-17.9,16-17.9,16s15.9-10.1,16.8-22.3
	c1-12.1-2.1-33.7,0-44.8c2.7-14.5,19.1-19,32.8-4.2L173.6,53.3z"/>
<path fill="#8C8279" d="M310.1,280.3c0.4,10.3,4.6,20.8,12.7,27.4c0.9,0.6,1.8,1.3,2.6,1.9v0.1c-0.9-0.5-2-1-2.9-1.5
	c-4-2.6-7.1-6.5-8.9-10.9C311.2,292,309.7,285.8,310.1,280.3L310.1,280.3z"/>
<path fill="#3F342F" d="M76.8,92.5c0,0,2.7,4.9-8.7,18.6c-14.9,17.9-30.2,36-30.2,51c0,19.3,6.8,26.2,6.8,26.2l23-32L76.8,92.5z"/>
<path fill="#493E38" d="M54.2,156.4l-2.4,3.3v-7.2l-3.4,11.6c0,0-3.4-2.4-2.9-6.6c0.5-4.1,7.3-18,10.6-24.1c3.2-6.1,7.2-13.4,8-14
	c0.8-0.6-2.6,7.1,0.8-0.6c0.6-1.5,0.8-3,0.7-4.5c-14,16.8-27.4,33.7-27.5,47.8c-0.1,13.1,3.5,21.7,6.2,26.2c0.7-0.9,1.9-2.6,3.5-4.3
	c2.4-2.7,8.8-8.2,11.2-12.5C58.8,171.4,53,167,54.2,156.4L54.2,156.4z"/>
<path fill="#5A5047" d="M53.3,147c0,0-4,7.7-5.4,14.9c0.1-0.3,0-0.6,0.1-1c0.3-2.8,0.8-5.5,1.5-8.2s1.6-5.4,2.6-7.9v-0.1
	c0.3-0.8,4.4-11.9,4.4-11.9s-7,9.3-7.6,10.1c-1.6,2.2-3,4.7-4,7.2c-1.1,2.5-1.8,5.2-2.3,7.8c-0.5,2.7-0.8,5.3-0.8,8
	c-0.1,8.3,2.6,12.2,2.5,11.6v-3.9c-0.1-1.2-0.1-2.4-0.1-3.7c0.2,1.4,2.5,6.4,5.3,7c0,0-0.4-1.1-0.5-6.4
	C48.5,159.2,53.3,147,53.3,147L53.3,147z"/>
<path fill="#271E19" d="M54.4,179.6c2-2.3,4-4.5,6.1-6.8c2-2.3,3.9-5.1,4.9-8c1.1-2.9,1.7-6,2.1-9s0.6-6.1,0.8-9.1
	c0.4-6,0.6-12.1,0.7-18.1c-0.5,6-1,12-1.8,18s-1.5,12-3.9,17.4c-1.2,2.7-2.8,5-5,7c-8.5,8.3-17.5,21.3-19.1,25.1
	C40,195.2,50.4,184.1,54.4,179.6L54.4,179.6z"/>
<path fill="#5A5047" d="M105,107.8c-4.1,5.5-9.2,10.1-14.3,14.6c-1.6,1.5-3.5,2.7-4.8,4.5c-4.4,6.3-3.7,14.6-3.4,21.9
	c0.1,1.1,0.2,2.3,0.2,3.4l-0.3,0.1c-0.5-1.1-0.9-2.1-1.3-3.2c-3.6-10.9-2.1-21.8,8.4-28.2c5.3-4.2,10.7-8.3,15.3-13.3
	C104.7,107.6,105,107.8,105,107.8L105,107.8z"/>
<path fill="#8C8279" d="M84.4,153.3c-2.7-9.2-5.1-23.5,5.2-28.8l0.1,0.2c-5.1,5.8-6.8,13.5-6.1,21c0.1,2.6,0.6,5.1,1,7.6H84.4z"/>
<path fill="#3F342F" d="M90.2,312.1c0,0-13.8,15.7-10.1,23.2s8.5,13,5.4,25.8c-2,8.2-0.5,14.8,4.8,17.9c0,0-5.5,9.3,2.1,15
	s2.2,10.7,0.8,11.4c0,0,3.7-0.8,4-5.8s-4.9-5.6-6.3-10.1s1.5-8.3,5-13.8c3.5-5.6,8.9-15.1,4.3-26c-4.5-10.8-3.5-14.7-1.7-19.8
	c1.8-5,7.4-11.2,8.1-20s-3.9-21.6-3.9-21.6l-7.8-1.4L90.2,312.1z"/>
<path fill="#3F342F" d="M117.6,313.9c0,0,9.9,11.2,7.2,16.5s-6.1,9.2-3.9,18.4c1.4,5.8,0.4,10.6-3.4,12.8c0,0,4,6.6-1.5,10.7
	c-5.4,4.1-1.6,7.7-0.5,8.1c0,0-2.7-0.6-2.9-4.2s3.5-4,4.5-7.2s-1-5.9-3.6-9.9c-2.5-4-6.3-10.8-3.1-18.5s2.5-10.5,1.2-14.1
	s-5.3-8-5.8-14.3c-0.6-6.3,2.8-15.4,2.8-15.4S91.4,275,105,284.7C118.5,294.5,117.6,313.9,117.6,313.9z"/>
<path fill="#8C8279" d="M276.8,75.7c16.1,6.2,26.1,21.4,26.4,38.5c-2-9.9-6-19.3-12.5-27.1C286.8,82.6,281.8,79.1,276.8,75.7z"/>
<path fill="#8C8279" d="M241.6,96.9c7.7,9.9,19.2,15.9,30.5,20.8c1.7,0.7,3.3,1.3,5,2.1C263.5,117.3,247.9,109.8,241.6,96.9z"/>
<path fill="#8C8279" d="M147.1,66.5c-1.3-10.8,2.8-22,15.5-20.7c1.4,0.2,2.8,0.4,4.2,0.6c-2.8-0.1-5.7-0.4-8.4,0.2
	C149.1,48.5,147.3,58.4,147.1,66.5z"/>
<path fill="#5A5047" d="M286.3,187.9c4,12.3,8.9,25,18.5,34.1c1.4,1.3,2.9,2.4,4.4,3.5c-1.8-0.7-3.4-1.6-5-2.7
	C293.3,214.7,287.8,200.9,286.3,187.9z"/>
<path fill="#8C8279" d="M67.4,290.1c-5.3,5-6.2,12.6-5.5,19.4l0.3,3h-0.1c-2.2-5.8-1.6-12.5,1.4-17.9C64.4,293,65.7,291.3,67.4,290.1z
	"/>
<path fill="#5A5047" d="M102.7,172c-3.5-7.5-5.9-16.1-3.5-24.4c1.1-4.2,4.5-7.4,7.7-10c18.5-13.9,25.6-29.4,27.5-52.3
	c0.2,23.3-7.4,40-26.3,53.8c-3.2,2.5-6.2,5.1-7.5,9C98.1,155.9,100,164.5,102.7,172z"/>
<path fill="#5A5047" d="M93,374.8c3.6-6.4,6.8-13.5,5.7-20.9l-0.3-1.8c-0.3-1-0.7-2.6-1.2-3.5l-0.8-1.7h0.1l0.9,1.7
	c2,3.9,2.6,8.5,1.9,12.9C98.6,366.2,96.5,371.5,93,374.8z"/>
<path fill="#5A5047" d="M88.1,356.8c0,0-2.3,8.6-1.5,13.2s4.7,7.5,4.7,7.5l3.1-4.7c0,0-4.1-0.9-4.8-5.7c0,0-0.8,1.3-1,3.4
	C88.6,370.6,87,369.6,88.1,356.8L88.1,356.8z"/>
<path fill="#5A5047" d="M115.9,358.4c-2.8-2.1-4.5-5.5-4.8-8.9c-0.6-5.3,1.8-10.2,3.5-15.1c0.9-3.3-0.5-6.7-1.7-9.8
	c-3.1-8-10.4-14.5-10.7-23.5c-0.2-3.5,0.6-7,0.1-10.3c-0.5-3.4-2.7-6.2-5.4-8.4l0.1-0.1c1.4,1,2.8,2.1,3.8,3.5
	c4.7,5.8,0.7,13.7,3.3,20.1c1.5,5,4.7,9,7.2,13.6c1.6,3.1,3,6.3,3.8,9.7c0.4,1.7,0.5,3.6,0,5.3c-1.7,4.9-4.2,9.6-3.7,14.9
	C111.6,352.8,113.2,356.2,115.9,358.4L115.9,358.4z"/>
<path fill="#5A5047" d="M24.2,272.4c0,0-7.6,13.4,1.7,36.5c0,0-3.8-8.9-2.3-18.8c0,0,1.5,4.1,3.4,5.6C27,295.7,22.1,284.3,24.2,272.4
	L24.2,272.4z"/>
<path fill="#5A5047" d="M76.9,178.7c0,0-6.2,5-7.5,9.5c-1.4,4.5-0.5,17.6-1.4,21.8s-6,11.4-6,11.4s3.4-6.3,3.5-10s-3.3-16.2-3.3-16.2
	l-1,10.9c0,0-0.1-9.9-0.2-12.4s0.1-5.6,0.1-5.6l-1.6,7.9c0,0-0.9-10.8,3.2-16.3s7-6.6,7-6.6s-4.6,4-5.1,6.8c0,0,5.1-4.9,8.5-6.8
	c3.4-1.8,5.7-2.8,5.7-5.1c0,0,1.9,2.5,0,5.9s-7,6.3-8.3,8.8C70.5,182.7,73,180.1,76.9,178.7L76.9,178.7z"/>
<path fill="#5A5047" d="M40.2,251.1c5-5.5,10-11,14.8-16.6c3.3-3.7,6-7.7,8.4-12c3.5-6.5,3.1-13.9,1.8-21c-0.3-1.9,2.6-2.5,3-0.5
	c1.1,7.5,1,15.8-3,22.5c-2.6,4.3-5.7,8.3-9.2,11.9C50.9,240.7,45.6,245.9,40.2,251.1L40.2,251.1z"/>
<path fill="#8C8279" d="M69.4,177.7c-3.7,2.6-6,6.8-7.1,11.2c-0.2,0.6-0.3,1.3-0.5,1.9c0-0.7,0-1.3,0-2
	C62.2,184.1,64.8,179.2,69.4,177.7L69.4,177.7z"/>
<path fill="#8C8279" d="M44.2,170.1c-8.9-15.4,4.8-31.6,14.5-42.9c4.3-4.9,8.2-9.6,10.3-15.5c1.4-3.7,2-7.4,3.5-11.3
	C77.1,87.9,84.7,84,96.6,79.7c4.8-1.9,10-3.4,13.8-7.1c-3,4.4-8.3,6.7-12.8,9.2c-6.9,3.6-13.9,6.6-17.6,13.4
	c-3.5,5.5-4.1,11.9-6.3,18.1c-2.2,6.6-6.8,12.1-11.4,17C52.5,141,38.6,154.2,44.2,170.1L44.2,170.1z"/>
<path fill="#8C8279" d="M27.4,303.9c-6.6-9.3-9.2-22.6-3.6-33.1c9.1-17.3,26.5-27.5,38.2-42.7c-4.1,6.5-9.3,12.2-14.7,17.7
	C29.8,263.4,13.5,277.7,27.4,303.9z"/>
<path d="M-52.7,892.9C-52.7,893-52.6,893-52.7,892.9C-52.6,893-52.7,893-52.7,892.9z"/>
<path d="M-56.7,1378.9C-56.7,1379-56.6,1379-56.7,1378.9C-56.6,1379-56.7,1379-56.7,1378.9z"/>
<path fill="#FFF1D2" d="M-65,386l-0.1-0.1L-65,386z"/>
<path fill="#FFF1D2" d="M-66,387.4c0-0.1,0-0.1,0-0.2V387.4z"/>
<path fill="#FFF1D2" d="M-68.3,388.2C-68.2,388.2-68.2,388.2-68.3,388.2z"/>
<path fill="#FFF1D2" d="M-67.2,386.2C-67.1,386.2-67.1,386.2-67.2,386.2z"/>
<path fill="#FFF1D2" d="M-69,386.5v-0.1V386.5L-69,386.5z"/>
<path d="M-52.7,405.9c0,0.1,0.1,0.1,0.1,0.1S-52.7,406-52.7,405.9z"/>
<path d="M-57.2,404.2c0,0.1,0.1,0.1,0.1,0.1S-57.1,404.3-57.2,404.2z"/>
<path d="M-56.7,2352.9c0,0.1,0.1,0.1,0.1,0.1S-56.7,2353-56.7,2352.9z"/>
</svg>
