<svg viewBox="0 0 351 467" fill="none" x="0" y="0" enable-background="new 0 0 351 467" xmlns="http://www.w3.org/2000/svg">
	 <title>Avatar van Renate</title>
    <style>.st0{fill:#3a6180}.st1{fill:#dda559}.st2{fill:#424242}.st3{fill:#80a0b4}.st4{fill:#593319}.st5{fill:#5a3d13}.st6{fill:#4c360d}.st7{fill:#755028}.st8{fill:#e0c7b3}.st9{fill:#5b3414}.st10{fill:#78431c}.st11{opacity:.11;fill:#3a6180}.st12{fill:#e8d3c1}.st13{fill:url(#SVGID_1_)}.st14{fill:#205e20}.st16{fill:#1f807c}.st17{fill:#2a1d01}.st18{fill:#fff}.st19{fill:#c7847f}.st20{fill:#738d91}.st21{fill:#1c3135}.st22{fill:#646464}.st23{fill:#bdbdbd}.st24{fill:#466f81}.st25{opacity:8.000000e-02;fill:#3a6180}.st26{fill:#66809d}.st27,.st28{fill:none;stroke:#dda559;stroke-width:.5;stroke-linecap:square;stroke-miterlimit:10}.st28{stroke-dasharray:2.0587,1.0294}.st29{fill:#2d2d2d}.st30{fill:#768aa5}.st31{fill:#6380a8}.st32{filter:url(#Adobe_OpacityMaskFilter)}.st35{fill:#7e93aa}.st36{fill:#7c96a8}.st37{fill:#080051}</style><path d="M171.5 453.9c0 .6 2.4 1.1 5.3 1.1s5.3-.5 5.3-1.1-2.4-1.1-5.3-1.1c-2.9.1-5.3.5-5.3 1.1z" class="st0"/><path d="M127.4 463.9c-.1 0-.2.1-.2.3l.1 1.9c0 .1.1.2.2.2s.2-.1.2-.3l-.1-1.9c0-.1-.1-.2-.2-.2zM126.7 452.2c-.1 0-.2.1-.2.3l.1 1.9c0 .1.1.2.2.2s.2-.1.2-.3l-.1-1.9c0-.1-.1-.2-.2-.2zM127.2 461c-.1 0-.2.1-.2.3l.1 1.9c0 .1.1.2.2.2s.2-.1.2-.3l-.1-1.9c.1-.1 0-.2-.2-.2zM127 458.1c-.1 0-.2.1-.2.3l.1 1.9c0 .1.1.2.2.2s.2-.1.2-.3l-.1-1.9c.1-.1 0-.2-.2-.2zM126.9 455.2c-.1 0-.2.1-.2.3l.1 1.9c0 .1.1.2.2.2s.2-.1.2-.3l-.1-1.9c0-.2-.1-.2-.2-.2zM123.4 464c-.1 0-.2.1-.2.3l.1 1.9c0 .1.1.2.2.2s.2-.1.2-.3l-.1-1.9c0-.1-.1-.2-.2-.2zM123 458.1c-.1 0-.2.1-.2.3l.1 1.9c0 .1.1.2.2.2s.2-.1.2-.3l-.1-1.9c.1-.1 0-.2-.2-.2zM122.7 452.3c-.1 0-.2.1-.2.3l.1 1.9c0 .1.1.2.2.2s.2-.1.2-.3l-.1-1.9c.1-.1-.1-.2-.2-.2zM122.9 455.2c-.1 0-.3.1-.2.3l.1 1.9c0 .1.1.2.2.2s.2-.1.2-.3l-.1-1.9c0-.1-.1-.2-.2-.2zM123.2 461c-.1 0-.2.1-.2.3l.1 1.9c0 .1.1.2.2.2s.2-.1.2-.3l-.1-1.9c.1-.1 0-.2-.2-.2z" class="st1"/><path d="M265.3 330.1s-3.1-13.6-25-20.9c-6.8-2.3-13.2-4.5-19.3-7.2l-11.9 48H131l-6-39c-6.2 2.6-14.2 3.7-21 6-21.8 7.3-25.8 13.1-25.8 13.1L54 384l24 19 25.6-22.5L109 467h125l5.9-86.5L267 408l9-31-10.7-46.9z" class="st2"/><path d="m60 467 26-59 10.6-26.5-22.5-56.3-.8.4C68.6 331.4 29.2 425.8 15 467" class="st3"/><path d="M80.7 94s-10.7 15-8 88.9c1.2 32.3 21.1 44.2 20.7 66.7S93 296 87 305s-5.1 38.1-5.1 38.1l93.6-53.6-16.3-59.3L80.7 94z" class="st4"/><path d="M265.4 98.7s13.5 74.7 12.9 107.4-24 54.1-21.3 80.9c2.7 26.8-5 42.7-5 42.7s-40.4 29.6-53.4-2.2-2.6-87.3-2.6-87.3l69.4-141.5z" class="st5"/><path d="M96.8 207.8s-6.3 22.2-3.3 32 13.6 38.2 13.8 44c.2 5.8-3.2 29.7-3.2 29.7L226 304s-5.5-26.5 3.5-37.5 13.3-12.9 11.1-25.4-3.9-22.9-3.9-22.9L96.8 207.8z" class="st6"/><path d="M216 287.3c-6.6-3.7-11-11.9-8.5-19.4.7-1.9 1.4-3.3 2-5 1.6-4.8 2.3-9.8 2.6-15 .3-4.6.4-9.3.5-14.1 3.3 10 4.2 22.5-.1 32.3-4.4 7.7-2 14.7 3.5 21.2zM140 281.3c-6.6-3.7-11-11.9-8.5-19.4.7-1.9 1.4-3.3 2-5 1.6-4.8 2.3-9.8 2.6-15 .3-4.6.4-9.3.5-14.1 3.3 10 4.2 22.5-.1 32.3-4.4 7.7-2 14.7 3.5 21.2z" class="st7"/><path d="M226 304c-21.8-7.3-28.9-10.3-28.9-25.9v-40.9h-48.8v40.9c0 15.5-20.5 30.6-42.4 37.9-21.8 7.3-26.8 14.1-26.8 14.1L130 355h84s33.8-43.7 12-51z" class="st8"/><path d="M88.1 114.8S74 150.6 71.5 167.3s-1.8 50 0 84.8c1.8 34.9 6.2 46.4 9 66.1s7.6 43.2 7.6 43.2l35-56.3-5.8-92.8-16.7-90-12.5-7.5z" class="st5"/><path d="M100.1 196.7c.6 1.2 1.6 1.4 2.8 1.4 1.5 4.9-1.1 8.3-4 11.6h-8.3c-.7-.3-1.3-.7-2-1 1.3-6.4 3.3-12.1 11.5-12z" class="st9"/><path d="M103.3 361.5c-1.2-10.6-6.8-19.6-10.6-29.3-1.1-2.7-2.8-5.2-2.5-8.3 1.1.6 2.2 1.1 3.2 1.7.9 3.8 1.6 7.7 6.5 8.2l1.6 1.6c0 2.4 1.1 4 3.3 4.9l3.3 8.1c0 1.4.3 2.6 1.6 3.3 2.4 5.2 4 10.5 3.3 16.4-5.1-4.5-3.6-12.5-8.7-17.8-.8 3.6.8 5.9 1.5 8.4.7 2.7 1.6 5.5-2.6 6.1.1-1.2.1-2.3.1-3.3z" class="st10"/><path d="M100 333.7c-4.9-.5-5.7-4.4-6.5-8.2 4.7.7 6.7 3.6 6.5 8.2zM104.9 340.2c-2.2-.9-3.3-2.5-3.3-4.9 3.3.2 3.3 2.5 3.3 4.9zM90.2 359.8c1.4.7 1.7 1.9 1.6 3.3-2-.4-4-.8-1.6-3.3z" class="st9"/><path d="M90.3 323.9c-1.7-1.1-1.7-2.2 0-3.3v3.3zM79.3 222.7c.4-.5.8-1 1.2-1.4-.4.4-.8.9-1.2 1.4zM80.5 219.2c-.3-.2-.7-.4-1-.6.4-.1.7-.3 1.1-.4 0 .3 0 .7-.1 1z" class="st10"/><path d="M350 467s-59.1-120.3-61.2-124.6c-.8-1.6-6.8-14.4-8.8-16.4-.8-.8-1.2-.5-2-1l-.5.3h.1c-.5-.4-1-.9-1.5-1.3-.1-.1-4.1-2.6-8-4.2-4.8-2-27.5-9.1-27.5-9.1-.1-.2-13.2-8.4-13.2-8.4s-4.1-4.3-8.4-5.6c-3.1-.9-4.6-1.7-5.1-1.6-.1 0-7 22.1-8 32-.5 5.1-2.8 17.1-4 21-.1 0-5.2 17-6.6 29 0 .2.4 42.1.6 43.1 2.1 8.4 4.2 16.8 6.4 25.2.3 1.3 6.2 19.9 6.6 21.7h66c.8-6.1-.1-35.4.5-38.3 3.3 5 24.2 35.8 24.5 38.3 5.1-.1 50.1-.1 50.1-.1z" class="st3"/><path d="M195.4 378.9s9.6-6.4 22.6-13.6c13-7.3 41.4-3.1 46.2-8.2 4.8-5.1 5-3.9 5-3.9L276 383l-1 84h-27c-.7 0-38.8.8-39 0-4.2-14.6-12.6-42.7-13-47-1-10-.6-21.8-.6-21.8v-19.3z" class="st11"/><path d="M132.2 207.4c-13.8 9-17.3 38.5-18.9 53.9-.7 15.5-5.8 30.1-17.5 40.7-4.1 4-9.4 7.1-13.8 10.5-.6.5-1.1 1-1.5 1.6-1.3 4.2-.5 8.9.9 13-2.9-3.8-5-8.9-4.4-13.9.3-1.5 1.2-2.7 2-3.7 2.1-2.4 4.3-4.2 6.3-6.2 6-5.5 11.4-11.9 14.7-19.2 2.2-4.8 3.7-10 4.5-15.3.8-5.6 1.2-11.5 2.3-17 2.6-14.4 10-39.7 25.4-44.4z" class="st6"/><path d="M268.2 120.6c0 75.7-26.9 137.5-95.9 137.5-31.5 0-54-13.1-69.1-34.5-17.9-25.4-25.4-62.6-25.4-103.7 0-75.7 64.2-91 95.7-91s94.7 16 94.7 91.7z" class="st12"/><radialGradient id="SVGID_1_" cx="120.101" cy="200.809" r="15.985" gradientUnits="userSpaceOnUse"><stop offset="0" stop-color="#e3c3ab"/><stop offset="1" stop-color="#e8d3c1"/></radialGradient><path d="M136.1 200.8c0 8.8-7.2 16-16 16s-16-7.2-16-16 7.2-16 16-16 16 7.2 16 16z" class="st13"/><path d="M160.5 46.5c7.9 5.7 15.1 12.3 21.8 19.4 5.6 6 10.7 12.6 14 20.3 6.6 12.7 14.5 24.8 22.7 36.7 3.6 5.3 7.5 10.4 11.5 15.3 5.4 6.2 12.8 16.4 22.2 13.6 2.9-1.2 4.2-4.6 4.4-7.6.3 3.3-.7 7-3.8 8.8-10 4.6-19.4-5.7-25.7-12.3-8.8-9.7-16.4-20.3-23.4-31.2-5.2-8.2-10.2-16.7-14-25.7-7.4-14.2-18.9-25.7-29.7-37.3z" class="st7"/><path d="M44 404.9v.1-.1zM302.4 404.9c0 .1.1.1.1.1l-.1-.1z" class="st14"/><radialGradient id="SVGID_00000168118446466782248490000001526647898599434122_" cx="222.26" cy="200.809" r="15.985" gradientUnits="userSpaceOnUse"><stop offset="0" stop-color="#e3c3ab"/><stop offset="1" stop-color="#e8d3c1"/></radialGradient><path fill="url(#SVGID_00000168118446466782248490000001526647898599434122_)" d="M238.2 200.8c0 8.8-7.2 16-16 16s-16-7.2-16-16 7.2-16 16-16 16 7.2 16 16z"/><path d="M147.2 164.2c0 10.9-8.9 19.7-19.9 19.7-11 0-19.9-8.8-19.9-19.7 0-10.9 8.9-19.7 19.9-19.7 10.9-.1 19.9 8.8 19.9 19.7z" class="st16"/><path d="M142 164.2c0 7.6-6.2 13.8-13.8 13.8-7.6 0-13.8-6.2-13.8-13.8 0-7.6 6.2-13.8 13.8-13.8 7.7 0 13.8 6.2 13.8 13.8z" class="st17"/><path d="M122.5 157c0 2.2-1.8 4-4 4s-4-1.8-4-4 1.8-4 4-4c2.2.1 4 1.8 4 4z" class="st18"/><path d="M130 213.1c13.2 7.3 27.3 11.8 41.6 11.7 14.4 0 28.2-5.1 41.9-11.7-5 5.4-11.3 9.9-18.5 13.2-7.1 3.3-15.2 5.1-23.3 5.2-8.1 0-16.3-1.6-23.4-4.9-7.2-3.2-13.7-7.7-18.3-13.5z" class="st19"/><path d="M200.6 164.2c0 10.9 8.9 19.7 19.9 19.7 11 0 19.9-8.8 19.9-19.7 0-10.9-8.9-19.7-19.9-19.7-11-.1-19.9 8.8-19.9 19.7z" class="st16"/><path d="M205.7 164.2c0 7.6 6.2 13.8 13.8 13.8 7.6 0 13.8-6.2 13.8-13.8 0-7.6-6.2-13.8-13.8-13.8-7.6 0-13.8 6.2-13.8 13.8z" class="st17"/><path d="M206.5 157c0 2.2 1.8 4 4 4s4-1.8 4-4-1.8-4-4-4c-2.2.1-4 1.8-4 4z" class="st18"/><path d="M173.5 28.9C142 28.9 75 45.3 75 121c0 26.5 5.9 50.2 12.9 71.3.2-3.4.3-7.3.5-12 1.4-31.7 14.6-54.3 31.7-72.1 17.1-17.8 51.7-74.1 51.7-74.1l3.4-5.2h-1.7z" class="st5"/><path d="M265.5 159.8c0-.3.1-.5.1-.8 0 .4 0 .6-.1.8zM265.7 159c1.7-12.2 2.6-25.1 2.6-38.4 0-75.7-63.2-91.7-94.7-91.7-2.9 0-6 .1-9.4.4C159.9 37.9 158 45 158 45s22 34.7 48.5 49.9C233 110 268.3 143 265.7 159z" class="st4"/><path d="M158 30s-3.3 57.5 49.5 78.2 58.6 48.8 58.6 48.8 20-77.6-29.1-108-79-19-79-19z" class="st5"/><path d="M230.5 119.2s23.1 19.8 22.8 39.8c-.3 20-7.1 36.5-6.7 47.2.4 10.8-1.8 13.1-4.7 19.9-2.9 6.8 9.6 7.4 9.6 7.4l18.7-89.1-29.7-33.8-10 8.6z" class="st5"/><path d="m205.6 371.8.6-.6-.6.6z" class="st20"/><path d="M266.9 444.2c.1.1.1.1 0 0 .1 0 0 0 0 0z" class="st21"/><path d="M205.1 369.3c.1 0 .1.1.2.1-.1 0-.2 0-.2-.1z" class="st20"/><path d="M205.5 352.9c0 2.6 2.1 4.6 4.6 4.6 2.6 0 4.6-2.1 4.6-4.6 0-2.6-2.1-4.6-4.6-4.6-2.6-.1-4.6 2-4.6 4.6z" class="st22"/><path d="M205.5 351.9c0 2.6 2.1 4.6 4.6 4.6 2.6 0 4.6-2.1 4.6-4.6 0-2.6-2.1-4.6-4.6-4.6-2.6-.1-4.6 2-4.6 4.6z" class="st23"/><path d="M199.5 388.9c0 2.6 2.1 4.6 4.6 4.6 2.6 0 4.6-2.1 4.6-4.6 0-2.6-2.1-4.6-4.6-4.6-2.6-.1-4.6 2-4.6 4.6z" class="st22"/><path d="M199.5 387.9c0 2.6 2.1 4.6 4.6 4.6 2.6 0 4.6-2.1 4.6-4.6 0-2.6-2.1-4.6-4.6-4.6-2.6-.1-4.6 2-4.6 4.6z" class="st23"/><path d="M211.5 456.9c0 2.6 2.1 4.6 4.6 4.6 2.6 0 4.6-2.1 4.6-4.6 0-2.6-2.1-4.6-4.6-4.6-2.6-.1-4.6 2-4.6 4.6z" class="st22"/><path d="M211.5 455.9c0 2.6 2.1 4.6 4.6 4.6 2.6 0 4.6-2.1 4.6-4.6 0-2.6-2.1-4.6-4.6-4.6-2.6-.1-4.6 2-4.6 4.6z" class="st23"/><path d="M266.9 448.2c.1.1.1.1 0 0z" class="st21"/><path d="M206 327c-.1 1-.3 2.4-.5 3.8 4.6 2.6 18.5 10.1 23.2 9.9 6-.2-4.2-38.7-7.3-42.9-.2-.3-.5-.5-.7-.7-.5-.2-1-.4-1.4-.6-.6-.2-1.2-.4-1.7-.5-1.4 0-2.9.3-4.1.9-1.9 5.7-6.7 22-7.5 30.1z" class="st24"/><path d="m275 428 .4-32.9s4.8 29.6 11.4 37.6c6.6 8 23.2 34.3 23.2 34.3h-10c-3-6-22.6-35.5-25-39z" class="st25"/><path d="M206 283c.3-.1 12.2 8.8 15.3 12.9 3.1 4.1 13.4 42.6 7.3 42.9-5.6.2-22.6-10.6-22.6-10.6s4.1-28.2 4.2-30.4c.1-2.2-4.2-14.8-4.2-14.8z" class="st26"/><path d="M206.5 326.5s.3.2.8.6" class="st27"/><path d="M208.2 327.6c2 1.3 5.4 3.3 8.3 4.5 3.3 1.4 8.4 3.3 10.8 4.2" class="st28"/><path d="M227.8 336.6c.6.2.9.4.9.4" class="st27"/><path d="m106 419.4 11 .6s-10-29-13-40l2 39.4z" class="st29"/><path d="M261 294.7c3.9-8.6 4.3-19 4.9-27.8 1.4-21.9 3.8-43.9 2.1-65.9-2.2-27.4-4.3-54.9-10.7-81.6-.5-1.9-.4-4 0-6.1 16.8 52.2 14.3 106.5 14 161.2 3.3-2.8-.3-8.7 4.9-9.5-2.4 31-6.4 75.5-8.9 86.9-1.1-6.4-3.1-12.9-3.2-19.3-.2-13-7.2-24.9-3.1-37.9z" class="st5"/><path d="M75.9 121.6c10.8-7.9 20.1-18.9 22.9-32.2.5-2.5 1-5.4 1.7-7.9 2.5-9 7.1-17.4 13.7-24 6.1-6.1 13.6-11.1 21.9-13.4-5.7 2.9-10.7 6.7-15.3 11-9.9 9.3-16 21.9-18.3 35.1-3.4 13.8-14 25.3-26.6 31.4z" class="st7"/><path d="M240.6 138.1c-3.3-15.7-12.3-31.8-27.8-37.8-2.5-1-5.2-1.7-7.8-2.3-27.1-7.1-41.9-31.5-39-58.9.6 21.9 11.4 43.9 32.4 52.4 2.5 1.1 5 2 7.6 2.8 2.7.7 5.6 1.5 8.2 2.6 16.2 6.7 25.4 24.3 26.4 41.2z" class="st6"/><path d="M248 129c-3.8-18.5-11.4-42.2-31.9-47.2-15.3-3.6-34.7-10.4-42.6-25.1-1.1-2.4-2-5.1-1.6-7.7.7 2.4 2.2 4.4 3.8 6.1 5 5.2 11.5 8.3 18 11.1 6.6 2.8 13.6 5 20.6 7 5.2 1.3 10.5 3.1 14.8 6.4C244.3 90.8 249 111.3 248 129zM231.2 77.4C227 65.2 219.8 51 206 48.4c-1.4-.3-3.6-.3-5-.4-9.9-.7-28.9-4-31.7-15.3 4.1 8.5 18.3 10.6 26.8 11.8 3.4.5 7 .5 10.4 1.1 14.7 2.9 22.2 18.4 24.7 31.8z" class="st7"/><path d="m241 467-2.4-42.5-7.1-2L234 467z" class="st30"/><path d="M239.4 463.9c-.1 0-.2.1-.2.3l.1 1.9c0 .1.1.2.2.2s.2-.1.2-.3l-.1-1.9c0-.1-.1-.2-.2-.2zM238.7 452.2c-.1 0-.2.1-.2.3l.1 1.9c0 .1.1.2.2.2s.2-.1.2-.3l-.1-1.9c0-.1-.1-.2-.2-.2zM239.2 461c-.1 0-.2.1-.2.3l.1 1.9c0 .1.1.2.2.2s.2-.1.2-.3l-.1-1.9c.1-.1 0-.2-.2-.2zM239 458.1c-.1 0-.2.1-.2.3l.1 1.9c0 .1.1.2.2.2s.2-.1.2-.3l-.1-1.9c.1-.1 0-.2-.2-.2zM238.9 455.2c-.1 0-.2.1-.2.3l.1 1.9c0 .1.1.2.2.2s.2-.1.2-.3l-.1-1.9c0-.2-.1-.2-.2-.2zM237.4 431.8c-.1 0-.2.1-.2.3l.1 1.9c0 .1.1.2.2.2s.2-.1.2-.3l-.1-1.9c.1-.1 0-.2-.2-.2zM238 440.5c-.1 0-.2.1-.2.3l.1 1.9c0 .1.1.2.2.2s.2-.1.2-.3l-.1-1.9c0-.1-.1-.1-.2-.2zM238.1 443.5c-.1 0-.2.1-.2.3l.1 1.9c0 .1.1.2.2.2s.2-.1.2-.3l-.1-1.9c.1-.1 0-.2-.2-.2zM238.3 446.4c-.1 0-.2.1-.2.3l.1 1.9c0 .1.1.2.2.2s.2-.1.2-.3l-.1-1.9c.1-.1-.1-.2-.2-.2zM237.8 437.6c-.1 0-.2.1-.2.3l.1 1.9c0 .1.1.2.2.2s.2-.1.2-.3l-.1-1.9c0-.1-.1-.2-.2-.2zM237.6 434.7c-.1 0-.2.1-.2.3l.1 1.9c0 .1.1.2.2.2s.2-.1.2-.3l-.1-1.9c0-.1-.1-.2-.2-.2zM238.5 449.3c-.1 0-.2.1-.2.3l.1 1.9c0 .1.1.2.2.2s.2-.1.2-.3l-.1-1.9c0-.1-.1-.2-.2-.2zM235.4 464c-.1 0-.2.1-.2.3l.1 1.9c0 .1.1.2.2.2s.2-.1.2-.3l-.1-1.9c0-.1-.1-.2-.2-.2zM235 458.1c-.1 0-.2.1-.2.3l.1 1.9c0 .1.1.2.2.2s.2-.1.2-.3l-.1-1.9c.1-.1 0-.2-.2-.2zM234.7 452.3c-.1 0-.2.1-.2.3l.1 1.9c0 .1.1.2.2.2s.2-.1.2-.3l-.1-1.9c.1-.1-.1-.2-.2-.2zM234.9 455.2c-.1 0-.3.1-.2.3l.1 1.9c0 .1.1.2.2.2s.2-.1.2-.3l-.1-1.9c0-.1-.1-.2-.2-.2zM235.2 461c-.1 0-.2.1-.2.3l.1 1.9c0 .1.1.2.2.2s.2-.1.2-.3l-.1-1.9c.1-.1 0-.2-.2-.2zM233.5 431.8c-.1 0-.2.1-.2.3l.1 1.9c0 .1.1.2.2.2s.2-.1.2-.3l-.1-1.9c.1-.1 0-.2-.2-.2zM237.4 428.8c-.1 0-.2.1-.2.3l.1 1.9c0 .1.1.2.2.2s.2-.1.2-.3l-.1-1.9c.1-.1 0-.2-.2-.2zM233.5 428.8c-.1 0-.2.1-.2.3l.1 1.9c0 .1.1.2.2.2s.2-.1.2-.3l-.1-1.9c.1-.1 0-.2-.2-.2zM234.5 449.4c-.1 0-.2.1-.2.3l.1 1.9c0 .1.1.2.2.2s.2-.1.2-.3l-.1-1.9c.1-.1-.1-.2-.2-.2zM234.2 443.5c-.1 0-.2.1-.2.3l.1 1.9c0 .1.1.2.2.2s.2-.1.2-.3l-.1-1.9c0-.1-.1-.2-.2-.2zM233.7 434.8c-.1 0-.3.1-.2.3l.1 1.9c0 .1.1.2.2.2s.2-.1.2-.3l-.1-1.9c0-.1-.1-.2-.2-.2zM234.4 446.4c-.1 0-.3.1-.2.3l.1 1.9c0 .1.1.2.2.2s.2-.1.2-.3l-.1-1.9c0-.1-.1-.2-.2-.2zM234 440.6c-.1 0-.3.1-.2.3l.1 1.9c0 .1.1.2.2.2s.2-.1.2-.3l-.1-1.9c.1-.1 0-.2-.2-.2zM233.8 437.7c-.1 0-.2.1-.2.3l.1 1.9c0 .1.1.2.2.2s.2-.1.2-.3l-.1-1.9c.1-.1 0-.2-.2-.2z" class="st1"/><path d="M82 141c19.9-7 37.5-21.6 45-41.6 6.4-16.6 15-33.5 28.9-45.2 4.5-3.5 9.9-7 15.8-7-9.6 3.8-16.8 15-22.1 23.6-5.6 9.4-10.2 19.5-14.6 29.6-2.3 5.4-5 10.8-8.6 15.5-10.5 13.9-27 23.4-44.4 25.1z" class="st7"/><path d="M75 143c15.9-15.9 31.7-33.8 39.9-54.9 3.8-11.4 8.2-22.6 16.4-31.8 7.8-9 20.6-16.2 32.7-12.4-5.7.2-11.1 2.4-15.7 5.5-10.3 7-16.6 18.2-21.5 29.5-2.8 6.7-5.1 13.9-8.7 20.2-10.3 18-25.7 33-43.1 43.9z" class="st6"/><path d="M78.8 177c-.4 11.1.9 22 1.8 33 .7 7.7 2.1 21.2 2.8 28.7 1.3 12.7.8 25.6-1.7 38.1-1.3 6.9-3.5 13.4-5.1 20.1-.7 3.9-.4 7.9.5 11.9-2.6-3.4-4.4-7.9-4.4-12.3.4-7 1.9-13.9 2.5-20.7 1.1-10.8 1.4-21.5.7-32.3-.5-6.3-1.1-14.4-1.3-20.7-.3-9.7-.1-19.6.9-29.3.6-5.6 1.3-11.2 3.3-16.5zM103.8 300.5c2.1-6.6 2.5-13.9-.7-20.1-.6-1.2-2.1-3.6-2.6-4.8-2.4-5.1-3.7-10.7-4.4-16.1-.6-4.9-.8-9.8-.4-14.7 1.2 4.8 2.3 9.4 3.4 14.1 1.5 5.7 3 11.4 5.6 16.6l.8 1.5c4.4 7.2 3.3 17.1-1.7 23.5z" class="st7"/><path d="M231.6 427c-.1 0-.2-.1-.2-.2l.1-1.8c0-.1.1-.2.2-.2s.2.1.2.2l-.1 1.8c0 .1-.1.2-.2.2zm.2-2.7c-.1 0-.2-.1-.2-.2l.1-1.8c0-.1.1-.2.2-.2s.2.1.2.2l-.1 1.8c0 .1-.1.2-.2.2zm.1-2.7c-.1 0-.2-.1-.2-.2l.1-1.8c0-.1.1-.2.2-.2s.2.1.2.2l-.1 1.8c0 .1-.1.2-.2.2zm.1-2.7c-.1 0-.2-.1-.2-.2l.1-1.8c0-.1.1-.2.2-.2s.2.1.2.2l-.1 1.8c.1.1 0 .2-.2.2zm.2-2.7c-.1 0-.2-.1-.2-.2l.1-1.8c0-.1.1-.2.2-.2s.2.1.2.2l-.1 1.8c0 .1-.1.2-.2.2zm.1-2.6c-.1 0-.2-.1-.2-.2l.1-1.8c0-.1.1-.2.2-.2s.2.1.2.2l-.1 1.8c0 .1-.1.2-.2.2zm.2-2.7c-.1 0-.2-.1-.2-.2l.1-1.8c0-.1.1-.2.2-.2s.2.1.2.2l-.1 1.8c0 .1-.1.2-.2.2zm.1-2.7c-.1 0-.2-.1-.2-.2l.1-1.8c0-.1.1-.2.2-.2s.2.1.2.2l-.1 1.8c0 .1-.1.2-.2.2zm.2-2.7c-.1 0-.1 0 0 0-.1 0-.2-.1-.2-.2l.1-1.8c0-.1.1-.2.2-.2s.2.1.2.2l-.1 1.8c0 .1-.1.2-.2.2zm.1-2.7c-.1 0-.2-.1-.2-.2l.1-1.8c0-.1.1-.2.2-.2s.2.1.2.2l-.1 1.8c0 .1-.1.2-.2.2zm.1-2.7c-.1 0-.2-.1-.2-.2l.1-1.8c0-.1.1-.2.2-.2s.2.1.2.2l-.1 1.8c0 .2 0 .2-.2.2zm.2-2.6c-.1 0-.2-.1-.2-.2l.1-1.8c0-.1.1-.2.2-.2s.2.1.2.2l-.1 1.8c0 .1-.1.2-.2.2zm.1-2.7c-.1 0-.2-.1-.2-.2v-.8c0-.1.1-.2.2-.2s.2.1.2.2v.8c0 .1-.1.2-.2.2z" class="st31"/><path d="m211.9 418 23.8 10.6 23.3-11.3-.6-33.3-47.1.7z" class="st3"/><defs><filter id="Adobe_OpacityMaskFilter" width="47.5" height="19.9" x="211.1" y="386.1" filterUnits="userSpaceOnUse"><feColorMatrix values="1 0 0 0 0 0 1 0 0 0 0 0 1 0 0 0 0 0 1 0"/></filter></defs><mask id="SVGID_00000085235842485469119870000011264861423032519845_" width="47.5" height="19.9" x="211.1" y="386.1" maskUnits="userSpaceOnUse"><g class="st32"><defs><filter id="Adobe_OpacityMaskFilter_00000047772552298791463260000006440268455900527532_" width="47.5" height="19.9" x="211.1" y="386.1" filterUnits="userSpaceOnUse"><feFlood flood-color="#fff" flood-opacity="1" result="back"/><feBlend in="SourceGraphic" in2="back"/></filter></defs><linearGradient id="SVGID_00000047050011100289715930000017893947604051338660_" x1="257.545" x2="257.545" y1="424.936" y2="407.461" gradientTransform="matrix(1.0199 -.05341 .0523 .9986 -49.165 -5.81)" gradientUnits="userSpaceOnUse"><stop offset="0"/><stop offset=".104" stop-color="#050505"/><stop offset=".228" stop-color="#131313"/><stop offset=".361" stop-color="#2b2b2b"/><stop offset=".502" stop-color="#4d4d4d"/><stop offset=".648" stop-color="#787878"/><stop offset=".798" stop-color="#acacac"/><stop offset=".949" stop-color="#e9e9e9"/><stop offset="1" stop-color="#fff"/></linearGradient><path fill="url(#SVGID_00000047050011100289715930000017893947604051338660_)" d="m258.6 388-23.9 9.2s-12.2-2.8-16.1-1.5c-6.8 2.2-6.6 10.4-6.6 10.4l-.9-17.1 47.4-2.8.1 1.8z" mask="url(#SVGID_00000085235842485469119870000011264861423032519845_)"/></g></mask><path d="m258.6 388-23.9 9.2s-12.2-2.8-16.1-1.5c-6.8 2.2-6.6 10.4-6.6 10.4l-.9-17.1 47.4-2.8.1 1.8z" class="st0"/><path d="m235.6 425.3-1-.4c-.1-.1-.2-.2-.1-.3.1-.1.2-.2.3-.1l.7.3.8-.4c.1-.1.3 0 .3.1.1.1 0 .2-.1.3l-.9.5zm1.8-.9c-.1 0-.2 0-.2-.1-.1-.1 0-.2.1-.3l1.7-.8c.1-.1.3 0 .3.1.1.1 0 .2-.1.3l-1.8.8c.1 0 0 0 0 0zm-3.5.1h-.1l-1.8-.8c-.1-.1-.2-.2-.1-.3.1-.1.2-.2.3-.1l1.8.8c.1.1.2.2.1.3-.1 0-.1.1-.2.1zm6.1-1.4c-.1 0-.2 0-.2-.1-.1-.1 0-.2.1-.3l1.7-.8c.1-.1.3 0 .3.1.1.1 0 .2-.1.3l-1.8.8c.1 0 0 0 0 0zm-8.8.2h-.1l-1.8-.8c-.1-.1-.2-.2-.1-.3.1-.1.2-.2.3-.1l1.8.8c.1.1.2.2.1.3 0 0-.1.1-.2.1zm11.4-1.4c-.1 0-.2 0-.2-.1-.1-.1 0-.2.1-.3l1.7-.8c.1-.1.3 0 .3.1.1.1 0 .2-.1.3l-1.8.8c.1-.1 0 0 0 0zm-14 .2h-.1l-1.8-.8c-.1-.1-.2-.2-.1-.3.1-.1.2-.2.3-.1l1.8.8c.1.1.2.2.1.3-.1.1-.1.1-.2.1zm16.6-1.5c-.1 0-.2 0-.2-.1-.1-.1 0-.2.1-.3l1.7-.8c.1-.1.3 0 .3.1.1.1 0 .2-.1.3l-1.8.8c.1 0 0 0 0 0zm-19.3.3h-.1l-1.8-.8c-.1-.1-.2-.2-.1-.3.1-.1.2-.2.3-.1l1.8.8c.1.1.2.2.1.3 0 .1-.1.1-.2.1zm21.9-1.6c-.1 0-.2 0-.2-.1-.1-.1 0-.2.1-.3l1.7-.8c.1-.1.3 0 .3.1.1.1 0 .2-.1.3l-1.8.8c.1 0 0 0 0 0zm2.6-1.2c-.1 0-.2 0-.2-.1-.1-.1 0-.2.1-.3l1.7-.8c.1-.1.3 0 .3.1.1.1 0 .2-.1.3l-1.8.8c.1-.1 0-.1 0 0zm-27.1 1.6h-.1l-1.8-.8c-.1-.1-.2-.2-.1-.3.1-.1.2-.2.3-.1l1.8.8c.1.1.2.2.1.3 0 .1-.1.1-.2.1zm29.7-2.9c-.1 0-.2 0-.2-.1-.1-.1 0-.2.1-.3l1.7-.8c.1-.1.3 0 .3.1.1.1 0 .2-.1.3l-1.8.8c.1 0 0 0 0 0zm-32.4 1.8h-.1l-1.8-.8c-.1-.1-.2-.2-.1-.3.1-.1.2-.2.3-.1l1.8.8c.1.1.2.2.1.3 0 0-.1.1-.2.1zm34.6-3.3c-.1 0-.3-.1-.3-.2v-1.8c0-.1.1-.2.2-.2s.2.1.3.2v1.8c.1.1 0 .2-.2.2zm-37.2 2.1h-.1l-1.8-.8c-.1-.1-.2-.2-.1-.3.1-.1.2-.2.3-.1l1.8.8c.1.1.2.2.1.3 0 0-.1.1-.2.1zm-2.4-1.4c-.1 0-.3-.1-.3-.2V414c0-.1.1-.2.2-.2s.2.1.3.2v1.8c.1.1 0 .2-.2.2zm39.6-3.4c-.1 0-.3-.1-.3-.2v-1.8c0-.1.1-.2.2-.2s.2.1.3.2v1.8c0 .1-.1.2-.2.2zm-39.6.7c-.1 0-.3-.1-.3-.2v-1.8c0-.1.1-.2.2-.2s.2.1.3.2v1.8c0 .1-.1.2-.2.2zm39.5-3.4s0 .1 0 0c-.1 0-.3-.1-.3-.2v-1.8c0-.1.1-.2.2-.2s.2.1.2.2v1.8c.2.1.1.2-.1.2zm-39.6.8c-.1 0-.3-.1-.3-.2v-1.8c0-.1.1-.2.2-.2s.2.1.3.2v1.8c.1.1 0 .1-.2.2zm39.6-3.4c-.1 0-.3-.1-.3-.2v-1.8c0-.1.1-.2.2-.2s.2.1.2.2v1.8c.1.1 0 .2-.1.2zm-39.6.7c-.1 0-.3-.1-.3-.2V406c0-.1.1-.2.2-.2s.2.1.3.2v1.8c0 .1-.1.2-.2.2zm39.5-3.4c-.1 0-.3-.1-.3-.2v-1.8c0-.1.1-.2.2-.2s.2.1.3.2v1.8c.1.1 0 .2-.2.2zm-39.6.7c-.1 0-.3-.1-.3-.2v-1.8c0-.1.1-.2.2-.2s.2.1.2.2v1.8c.1.1 0 .2-.1.2zm39.6-3.4c-.1 0-.3-.1-.3-.2v-1.8c0-.1.1-.2.2-.2s.2.1.3.2v1.8c0 .1-.1.2-.2.2zm-39.6.7c-.1 0-.3-.1-.3-.2v-1.8c0-.1.1-.2.2-.2s.2.1.3.2v1.8c0 .1-.1.2-.2.2zm39.5-3.4c-.1 0-.3-.1-.3-.2v-1.8c0-.1.1-.2.2-.2s.2.1.3.2v1.8c.1.1 0 .2-.2.2zm-39.6.7c-.1 0-.3-.1-.3-.2v-1.8c0-.1.1-.2.2-.2s.2.1.3.2v1.8c0 .1-.1.2-.2.2zm39.6-3.4c-.1 0-.3-.1-.3-.2v-1.8c0-.1.1-.2.2-.2s.2.1.3.2v1.8c0 .1-.1.2-.2.2zm-39.6.7c-.1 0-.3-.1-.3-.2v-1.8c0-.1.1-.2.2-.2s.2.1.3.2v1.8c0 .1-.1.2-.2.2zm39.5-3.4c-.1 0-.3-.1-.3-.2v-1.8c0-.1.1-.2.2-.2s.2.1.3.2v1.8c0 .1-.1.2-.2.2zm-39.6.7c-.1 0-.3-.1-.3-.2v-1.8c0-.1.1-.2.2-.2s.2.1.3.2v1.8c0 .1-.1.2-.2.2zm39.6-3.3c-.1 0-.3-.1-.3-.2v-1.8c0-.1.1-.2.2-.2s.2.1.2.2v1.8c.1 0 0 .1-.1.2zm-39.6.7s-.1 0 0 0c-.1 0-.3-.1-.3-.2v-1.8c0-.1.1-.2.2-.2s.2.1.3.2v1.8c0 .1-.1.2-.2.2zm39.5-3.4c-.1 0-.3-.1-.3-.2v-1.8c0-.1.1-.2.2-.2s.2.1.2.2v1.8c.1.1 0 .2-.1.2zm-39.6.7c-.1 0-.3-.1-.3-.2v-1.8c0-.1.1-.2.2-.2s.2.1.3.2v1.8c0 .1-.1.2-.2.2zm39.6-3.4c-.1 0-.3-.1-.3-.2v-1.7c0-.1.1-.2.2-.2s.2.1.3.2v1.7c0 .1-.1.2-.2.2zm-39.6.7c-.1 0-.1 0 0 0-.1 0-.3-.1-.3-.2v-1.8c0-.1.1-.2.2-.2s.2.1.2.2v1.8c.1.1 0 .2-.1.2zM235.9 427.6c-.1 0-.2 0-.2-.1-.1-.1 0-.2.1-.3l1.7-.9c.1-.1.3 0 .3.1.1.1 0 .2-.1.3l-1.8.9c.1 0 0 0 0 0zm-.9-.2h-.1l-1.8-.8c-.1-.1-.2-.2-.1-.3.1-.1.2-.2.3-.1l1.8.8c.1.1.2.2.1.3 0 .1-.1.1-.2.1zm3.5-1.1c-.1 0-.2 0-.2-.1-.1-.1 0-.2.1-.3l1.7-.9c.1-.1.3 0 .3.1.1.1 0 .2-.1.3l-1.8.9c.1 0 0 0 0 0zm-6.1-.1h-.1l-1.8-.8c-.1-.1-.2-.2-.1-.3.1-.1.2-.2.3-.1l1.8.8c.1.1.2.2.1.3-.1.1-.1.1-.2.1zm8.7-1.1c-.1 0-.2 0-.2-.1-.1-.1 0-.2.1-.3l1.7-.9c.1-.1.3 0 .3.1.1.1 0 .2-.1.3l-1.7.9c-.1-.1-.1-.1-.1 0zm-11.4-.1h-.1l-1.8-.8c-.1-.1-.2-.2-.1-.3.1-.1.2-.2.3-.1l1.8.8c.1.1.2.2.1.3 0 .1-.1.1-.2.1zm14-1.2c-.1 0-.2 0-.2-.1-.1-.1 0-.2.1-.3l1.7-.9c.1-.1.3 0 .3.1.1.1 0 .2-.1.3l-1.7.9h-.1zm-16.6 0h-.1l-1.8-.8c-.1-.1-.2-.2-.1-.3.1-.1.2-.2.3-.1l1.8.8c.1.1.2.2.1.3-.1.1-.1.1-.2.1zm19.2-1.3c-.1 0-.2 0-.2-.1-.1-.1 0-.2.1-.3l1.7-.9c.1-.1.3 0 .3.1.1.1 0 .2-.1.3l-1.7.9h-.1zm2.6-1.3c-.1 0-.2 0-.2-.1-.1-.1 0-.2.1-.3l1.7-.9c.1-.1.3 0 .3.1.1.1 0 .2-.1.3l-1.8.9zm-24.5 1.4h-.1l-1.8-.8c-.1-.1-.2-.2-.1-.3.1-.1.2-.2.3-.1l1.8.8c.1.1.2.2.1.3 0 .1-.1.1-.2.1zm27.1-2.7c-.1 0-.2 0-.2-.1-.1-.1 0-.2.1-.3l1.7-.9c.1-.1.3 0 .3.1.1.1 0 .2-.1.3l-1.8.9zm-29.7 1.5h-.1l-1.8-.8c-.1-.1-.2-.2-.1-.3.1-.1.2-.2.3-.1l1.8.8c.1.1.2.2.1.3 0 .1-.1.1-.2.1zm32.3-2.7c-.1 0-.2 0-.2-.1-.1-.1 0-.2.1-.3l1.7-.9c.1-.1.3 0 .3.1.1.1 0 .2-.1.3l-1.7.9c-.1-.1-.1 0-.1 0zm-35 1.6h-.1l-1.8-.8c-.1-.1-.2-.2-.1-.3.1-.1.2-.2.3-.1l1.8.8c.1.1.2.2.1.3 0 0-.1 0-.2.1zm37.6-2.9c-.1 0-.2 0-.2-.1-.1-.1 0-.2.1-.3l1.2-.6v-.2c0-.1.1-.2.2-.2s.2.1.3.2v.5l-1.5.7h-.1zm-40.2 1.7h-.1l-1.8-.8c-.1-.1-.2-.2-.1-.3.1-.1.2-.2.3-.1l1.8.8c.1.1.2.2.1.3 0 0-.1.1-.2.1zm41.5-3.7c-.1 0-.3-.1-.3-.2v-1.8c0-.1.1-.2.2-.2s.2.1.3.2v1.8c0 .1-.1.2-.2.2zm-44.1 2.5h-.1l-1.1-.5v-1c0-.1.1-.2.2-.2s.2.1.3.2v.7l.8.4c.1.1.2.2.1.3-.1 0-.2.1-.2.1zm-1-2.2c-.1 0-.3-.1-.3-.2v-1.8c0-.1.1-.2.2-.2s.2.1.3.2v1.8c0 .1-.1.2-.2.2zm45-3c-.1 0-.3-.1-.3-.2v-1.8c0-.1.1-.2.2-.2s.2.1.3.2v1.8c.1.1 0 .2-.2.2zm-45.1.3c-.1 0-.3-.1-.3-.2V411c0-.1.1-.2.2-.2s.2.1.3.2v1.8c0 .1-.1.2-.2.2zm45.1-2.9c-.1 0-.3-.1-.3-.2v-1.8c0-.1.1-.2.2-.2s.2.1.3.2v1.8c0 .1-.1.2-.2.2zm-45.1.2c-.1 0-.3-.1-.3-.2v-1.8c0-.1.1-.2.2-.2s.2.1.3.2v1.8c0 .1-.1.2-.2.2zm45-2.9c-.1 0-.3-.1-.3-.2v-1.8c0-.1.1-.2.2-.2s.2.1.2.2v1.8c.2.1.1.2-.1.2zm-45.1.3c-.1 0-.3-.1-.3-.2v-1.8c0-.1.1-.2.2-.2s.2.1.2.2v1.8c.1.1 0 .2-.1.2zm45.1-3c-.1 0-.3-.1-.3-.2v-1.8c0-.1.1-.2.2-.2s.2.1.3.2v1.8c0 .1-.1.2-.2.2zm-45.1.3c-.1 0-.3-.1-.3-.2V403c0-.1.1-.2.2-.2s.2.1.3.2v1.8c0 .1-.1.2-.2.2zm45-3c-.1 0-.3-.1-.3-.2V400c0-.1.1-.2.2-.2s.2.1.3.2v1.8c.1.1 0 .2-.2.2zm-45.1.3c-.1 0-.3-.1-.3-.2v-1.8c0-.1.1-.2.2-.2s.2.1.3.2v1.8c0 .1-.1.2-.2.2zm45.1-3c-.1 0-.3-.1-.3-.2v-1.8c0-.1.1-.2.2-.2s.2.1.3.2v1.8c0 .1-.1.2-.2.2zm-45.1.3s-.1 0 0 0c-.1 0-.3-.1-.3-.2v-1.8c0-.1.1-.2.2-.2s.2.1.3.2v1.8c0 .1-.1.2-.2.2zm45-3c-.1 0-.3-.1-.3-.2v-1.8c0-.1.1-.2.2-.2s.2.1.3.2v1.8c.1.1 0 .2-.2.2zm-45.1.3c-.1 0-.3-.1-.3-.2v-1.8c0-.1.1-.2.2-.2s.2.1.2.2v1.8c.1.1 0 .2-.1.2zm45.1-3c-.1 0-.3-.1-.3-.2v-1.8c0-.1.1-.2.2-.2s.2.1.3.2v1.8c0 .1-.1.2-.2.2zm-45.1.3c-.1 0-.1 0 0 0-.1 0-.3-.1-.3-.2v-1.8c0-.1.1-.2.2-.2s.2.1.3.2v1.8c0 .1-.1.2-.2.2zm45-2.9c-.1 0-.3-.1-.3-.2v-1.8c0-.1.1-.2.2-.2s.2.1.2.2v1.8c.2.1.1.2-.1.2zm-45.1.3c-.1 0-.3-.1-.3-.2v-1.8c0-.1.1-.2.2-.2s.2.1.2.2v1.8c.1 0 0 .1-.1.2zm45.1-3c-.1 0-.3-.1-.3-.2v-1.8c0-.1.1-.2.2-.2s.2.1.2.2v1.8c.1.1 0 .2-.1.2zm-45.2.3c-.1 0-.3-.1-.3-.2v-1.8c0-.1.1-.2.2-.2s.2.1.2.2v1.8c.2.1.1.2-.1.2zm45.1-3c-.1 0-.3-.1-.3-.2v-1.8c0-.1.1-.2.2-.2s.2.1.3.2v1.8c0 .1-.1.2-.2.2zm-45.1.3c-.1 0-.3-.1-.3-.2v-1.8c0-.1.1-.2.2-.2s.2.1.3.2v1.8c0 .1-.1.2-.2.2z" class="st1"/><path d="M230.9 388.3c-.1 2.1.2 3.8.8 3.8.5 0 1-1.6 1.1-3.7.1-2.1-.2-3.8-.8-3.8-.5-.1-1 1.6-1.1 3.7z" class="st0"/><path d="M229 389.4c-.1 1.6 1.1 2.9 2.7 3 1.6.1 2.9-1.1 3-2.7.1-1.6-1.1-2.9-2.7-3-1.6-.1-3 1.1-3 2.7z" class="st23"/><path d="M209.1 388.8 236 397l25-9-1-11-50.2-1.4z" class="st35"/><path d="M88.6 422c.9 14.7 1.8 30.4 2.7 45h92c-.1-15.3-.2-31.5-.4-46.7-.7-47.7-19.5-65.7-25-82.1-3.5-10.4-20.3-29.5-29.6-33.4-2.3-1-35.8 10.3-49.3 18-7.8 4.5.5 10.6 2.4 39.7C84 402 88.6 422 88.6 422z" class="st3"/><path d="m129 467-2.4-42.5-7.1-2L122 467zM83.8 377.5l-1.4-7.1 84.8.6-.9 7.2z" class="st30"/><path d="M83.6 342.9s26.7-1.5 45.3 11.6S164 386 164 386l5 18-1 63H91l-6.2-89.1-1.2-35z" class="st25"/><path d="M162.3 377.3h-2c-.1 0-.2-.1-.2-.2s.1-.3.2-.2h2c.1 0 .2.1.2.2s-.1.2-.2.2zm-2.9 0h-2c-.1 0-.2-.1-.2-.2s.1-.2.2-.2h2c.1 0 .2.1.2.2s-.1.2-.2.2zm-3-.1h-2c-.1 0-.2-.1-.2-.2s.1-.2.2-.2h2c.1 0 .2.1.2.2.1.1 0 .2-.2.2zm-2.9 0h-2c-.1 0-.2-.1-.2-.2s.1-.2.2-.2h2c.1 0 .2.1.2.2.1.1-.1.2-.2.2zm-2.9-.1h-2c-.1 0-.2-.1-.2-.2s.1-.2.2-.2h2c.1 0 .2.1.2.2s-.1.2-.2.2zm-2.9 0h-2c-.1 0-.2-.1-.2-.2s.1-.2.2-.2h2c.1 0 .2.1.2.2s-.1.2-.2.2zm-3-.1h-2c-.1 0-.2-.1-.2-.2s.1-.2.2-.2h2c.1 0 .2.1.2.2.1.1 0 .2-.2.2zm-2.9 0h-2c-.1 0-.2-.1-.2-.2s.1-.2.2-.2h2c.1 0 .2.1.2.2.1.1-.1.2-.2.2zm-2.9-.1h-2c-.1 0-.2-.1-.2-.2s.1-.2.2-.2h2c.1 0 .2.1.2.2s-.1.2-.2.2zm-2.9 0h-2c-.1 0-.2-.1-.2-.2s.1-.2.2-.2h2c.1 0 .2.1.2.2s-.1.2-.2.2zm-3 0h-2c-.1 0-.2-.1-.2-.2s.1-.2.2-.2h2c.1 0 .2.1.2.2.1 0 0 .2-.2.2zm-2.9-.1h-2c-.1 0-.2-.1-.2-.2s.1-.2.2-.2h2c.1 0 .2.1.2.2.1.1-.1.2-.2.2zm-2.9 0h-2c-.1 0-.2-.1-.2-.2s.1-.2.2-.2h2c.1 0 .2.1.2.2s-.1.2-.2.2zm-2.9-.1h-2c-.1 0-.2-.1-.2-.2s.1-.3.2-.2h2c.1 0 .2.1.2.2s-.1.2-.2.2zm-3 0h-2c-.1 0-.2-.1-.2-.2s.1-.2.2-.2h2c.1 0 .2.1.2.2.1.1 0 .2-.2.2zm-2.9-.1h-2c-.1 0-.2-.1-.2-.2s.1-.2.2-.2h2c.1 0 .2.1.2.2s-.1.2-.2.2zm-2.9 0h-2c-.1 0-.2-.1-.2-.2s.1-.3.2-.2h2c.1 0 .2.1.2.2s-.1.2-.2.2zm-2.9-.1h-2c-.1 0-.2-.1-.2-.2s.1-.2.2-.2h2c.1 0 .2.1.2.2s-.1.2-.2.2zm-3 0h-2c-.1 0-.2-.1-.2-.2s.1-.2.2-.2h2c.1 0 .2.1.2.2.1.1 0 .2-.2.2zm-2.9-.1h-2c-.1 0-.2-.1-.2-.2s.1-.2.2-.2h2c.1 0 .2.1.2.2s-.1.2-.2.2zm-2.9 0h-2c-.1 0-.2-.1-.2-.2s.1-.2.2-.2h1.9c.1 0 .2.1.2.2.1.1 0 .2-.1.2zm-2.9-.1c-.1 0-.1 0 0 0h-2c-.1 0-.2-.1-.2-.2s.1-.2.2-.2h2c.1 0 .2.1.2.2s-.1.2-.2.2zm-3 0h-2c-.1 0-.2-.1-.2-.2s.1-.2.2-.2h2c.1 0 .2.1.2.2.1.1 0 .2-.2.2zm-2.9-.1h-2c-.1 0-.2-.1-.2-.2s.1-.2.2-.2h2c.1 0 .2.1.2.2s-.1.2-.2.2zm-2.9 0h-2c-.1 0-.2-.1-.2-.2s.1-.2.2-.2h2c.1 0 .2.1.2.2s-.1.2-.2.2zm-3-.1h-2c-.1 0-.2-.1-.2-.2s.1-.2.2-.2H89c.1 0 .2.1.2.2.2.1.1.2-.1.2zm-2.9 0h-2c-.1 0-.2-.1-.2-.2s.1-.2.2-.2h2c.1 0 .2.1.2.2.1.1 0 .2-.2.2zm-2.9 0h-2c-.1 0-.2-.1-.2-.2s.1-.2.2-.2h2c.1 0 .2.1.2.2 0 0-.1.2-.2.2z" class="st1"/><path d="M166.7 401.5c.5 4 .7 16.1.7 16.1.1 22.9.2 26.1.4 49.4h16.9c.1-24.7.2-29.3.4-53.6 0 0 0-10.5-.6-13.9-1.3-8.8-9.3-37.6-9.3-37.6-6.4-19.2-9.4-22.7-16.2-41.9-4.6 4.3-8.1 4-12.6 8.3 4.8 16.2 7.2 24.3 11.8 40.6 0 0 7.3 24.2 8.5 32.6z" class="st36"/><path d="M157.7 321.4c.2-.1.3-.2.2-.3l-.6-1.9c0-.1-.2-.2-.3-.2-.1 0-.2.2-.2.3l.6 1.9c0 .1.1.2.3.2z" class="st31"/><path d="m168.2 352.7.6 1.9c0 .1.1.2.2.2h.1c.1 0 .2-.2.2-.3l-.6-1.9c0-.1-.2-.2-.3-.2-.2 0-.3.1-.2.3zM165.3 344.3l.6 1.9c0 .1.1.2.2.2h.1c.1 0 .2-.2.2-.3l-.6-1.8c0-.1-.2-.2-.3-.2-.1 0-.2.1-.2.2zM162.5 336l.6 1.9c0 .1.1.2.2.2h.1c.1 0 .2-.2.2-.3l-.6-1.9c0-.1-.2-.2-.3-.2-.2.1-.2.2-.2.3zM163.4 338.8l.6 1.9c0 .1.1.2.2.2h.1c.1 0 .2-.2.2-.3l-.6-1.9c0-.1-.2-.2-.3-.2-.1 0-.2.2-.2.3zM164.4 341.6l.6 1.8c0 .1.1.2.2.2h.1c.1 0 .2-.2.2-.3l-.6-1.9c0-.1-.2-.2-.3-.2-.2.1-.2.2-.2.4zM169.1 355.4l.6 1.9c0 .1.1.2.2.2h.1c.1 0 .2-.2.2-.3l-.6-1.9c0-.1-.2-.2-.3-.2-.1.1-.2.2-.2.3zM170.1 358.2l.6 1.9c0 .1.1.2.2.2h.1c.1 0 .2-.2.2-.3l-.6-1.9c0-.1-.2-.2-.3-.2-.2.1-.3.2-.2.3zM167.2 349.9l.1.3c.2.5.4 1 .5 1.6 0 .1.1.2.2.2h.1c.1 0 .2-.2.2-.3-.2-.5-.4-1-.5-1.6l-.1-.3c0-.1-.2-.2-.3-.2-.1 0-.2.2-.2.3zM157.7 322.1l.6 1.9c0 .1.1.2.2.2h.1c.1 0 .2-.2.2-.3l-.6-1.9c0-.1-.2-.2-.3-.2-.1.1-.2.2-.2.3zM158.7 324.9l.6 1.9c0 .1.1.2.2.2h.1c.1 0 .2-.2.2-.3l-.6-1.9c0-.1-.2-.2-.3-.2-.2 0-.3.2-.2.3zM161.5 333.2l.6 1.9c0 .1.1.2.2.2h.1c.1 0 .2-.2.2-.3l-.6-1.9c0-.1-.2-.2-.3-.2-.1.1-.2.2-.2.3zM160.6 330.5l.6 1.9c0 .1.1.2.2.2h.1c.1 0 .2-.2.2-.3l-.6-1.9c0-.1-.2-.2-.3-.2-.2 0-.3.1-.2.3zM159.6 327.7c.2.6.4 1.2.6 1.9 0 .1.1.2.2.2h.1c.1 0 .2-.2.2-.3-.2-.6-.4-1.3-.6-1.9 0-.1-.2-.2-.3-.2-.1 0-.2.2-.2.3zM166.3 347.1l.6 1.8c0 .1.1.2.2.2h.1c.1 0 .2-.2.2-.3l-.6-1.9c0-.1-.2-.2-.3-.2-.2.2-.3.3-.2.4zM179.1 386.1c.2.6.3 1.2.5 1.9 0 .1.1.2.3.2h.1c.1 0 .2-.2.2-.3-.2-.6-.3-1.3-.5-1.9 0-.1-.2-.2-.3-.2-.3 0-.3.1-.3.3zM178.3 383.3c.2.6.4 1.2.5 1.9 0 .1.1.2.3.2h.1c.1 0 .2-.2.2-.3-.2-.6-.4-1.3-.6-1.9 0-.1-.2-.2-.3-.2-.2 0-.3.1-.2.3zM179.8 388.9c.2.6.3 1.2.5 1.9 0 .1.1.2.3.2h.1c.1 0 .2-.2.2-.3-.2-.6-.3-1.3-.5-1.9 0-.1-.2-.2-.3-.2-.2 0-.3.2-.3.3zM177.4 380.5c.2.6.4 1.2.6 1.9 0 .1.1.2.2.2h.1c.1 0 .2-.2.2-.3-.2-.6-.4-1.3-.6-1.9 0-.1-.2-.2-.3-.2-.1 0-.2.2-.2.3zM181.7 397.4c.1.6.2 1.3.3 1.9 0 .1.1.2.3.2.1 0 .2-.1.2-.3-.1-.6-.2-1.3-.3-1.9 0-.1-.1-.2-.3-.2-.2.1-.3.2-.2.3zM181.1 394.6c.1.6.2 1.3.4 1.9 0 .1.1.2.3.2.1 0 .2-.1.2-.3-.1-.6-.2-1.3-.4-1.9 0-.1-.2-.2-.3-.2-.1 0-.2.1-.2.3zM180.5 391.7c.1.6.3 1.3.4 1.9 0 .1.1.2.3.2.1 0 .2-.2.2-.3-.1-.6-.3-1.3-.4-1.9 0-.1-.2-.2-.3-.2-.1.1-.2.2-.2.3zM174.7 372.1l.6 1.9c0 .1.1.2.2.2h.1c.1 0 .2-.2.2-.3l-.6-1.9c0-.1-.2-.2-.3-.2-.2.1-.2.2-.2.3zM173.8 369.3c.2.7.4 1.3.6 1.9 0 .1.1.2.2.2h.1c.1 0 .2-.2.2-.3-.2-.6-.4-1.2-.6-1.9 0-.1-.2-.2-.3-.2-.2.1-.2.2-.2.3zM172.9 366.6c.2.6.4 1.3.6 1.9 0 .1.1.2.2.2h.1c.1 0 .2-.2.2-.3-.2-.6-.4-1.2-.6-1.9 0-.1-.2-.2-.3-.2-.2 0-.3.1-.2.3zM171.9 363.8l.6 1.9c0 .1.1.2.2.2h.1c.1 0 .2-.2.2-.3l-.6-1.9c0-.1-.2-.2-.3-.2-.1 0-.2.1-.2.3zM175.6 374.9l.6 1.9c0 .1.1.2.2.2h.1c.1 0 .2-.2.2-.3l-.6-1.9c0-.1-.2-.2-.3-.2-.2.1-.2.2-.2.3zM176.5 377.7c.2.6.4 1.2.6 1.9 0 .1.1.2.2.2h.1c.1 0 .2-.2.2-.3-.2-.6-.4-1.3-.6-1.9 0-.1-.2-.2-.3-.2-.1 0-.2.2-.2.3zM171 361l.6 1.9c0 .1.1.2.2.2h.1c.1 0 .2-.2.2-.3l-.6-1.9c0-.1-.2-.2-.3-.2-.2 0-.2.2-.2.3z" class="st1"/><path d="M150.3 332.8s.1 0 0 0c.2 0 .3-.2.2-.3l-.5-1.9c0-.1-.2-.2-.3-.2-.1 0-.2.2-.2.3l.5 1.9c.1.2.2.2.3.2z" class="st31"/><path d="m155.8 353.4.5 1.9c0 .1.1.2.2.2h.1c.1 0 .2-.2.2-.3l-.5-1.9c0-.1-.2-.2-.3-.2-.2 0-.2.1-.2.3zM157.4 359l.5 1.9c0 .1.1.2.2.2h.1c.1 0 .2-.2.2-.3l-.5-1.9c0-.1-.2-.2-.3-.2-.2.1-.3.2-.2.3zM156.6 356.2l.5 1.9c0 .1.1.2.2.2h.1c.1 0 .2-.2.2-.3l-.5-1.9c0-.1-.2-.2-.3-.2-.2 0-.2.2-.2.3zM155 350.6l.5 1.9c0 .1.1.2.2.2h.1c.1 0 .2-.2.2-.3l-.5-1.9c0-.1-.2-.2-.3-.2-.1 0-.2.1-.2.3zM159 364.7l.5 1.9c0 .1.1.2.2.2h.1c.1 0 .2-.2.2-.3l-.5-1.9c0-.1-.2-.2-.3-.2-.2 0-.3.1-.2.3zM158.2 361.8c.2.6.4 1.3.5 1.9 0 .1.1.2.2.2h.1c.1 0 .2-.2.2-.3-.2-.6-.4-1.2-.5-1.9 0-.1-.2-.2-.3-.2-.2.1-.3.2-.2.3zM154.2 347.7c.2.6.3 1.3.5 1.9 0 .1.1.2.2.2h.1c.1 0 .2-.2.2-.3-.2-.6-.4-1.3-.5-1.9 0-.1-.2-.2-.3-.2-.1.1-.2.2-.2.3zM153.5 344.9l.5 1.9c0 .1.1.2.2.2h.1c.1 0 .2-.2.2-.3l-.5-1.9c0-.1-.2-.2-.3-.2-.2 0-.3.2-.2.3zM150.3 333.6l.5 1.9c0 .1.1.2.2.2h.1c.1 0 .2-.2.2-.3l-.5-1.9c0-.1-.2-.2-.3-.2-.1 0-.2.2-.2.3zM151.1 336.4l.5 1.9c0 .1.1.2.2.2h.1c.1 0 .2-.2.2-.3l-.5-1.9c0-.1-.2-.2-.3-.2-.1.1-.2.2-.2.3zM151.9 339.2l.5 1.9c0 .1.1.2.2.2h.1c.1 0 .2-.2.2-.3l-.5-1.9c0-.1-.2-.2-.3-.2-.2.1-.2.2-.2.3zM152.7 342.1l.5 1.9c0 .1.1.2.2.2h.1c.1 0 .2-.2.2-.3l-.5-1.9c0-.1-.2-.2-.3-.2-.2 0-.3.1-.2.3zM159.8 367.5l.5 1.9c0 .1.1.2.2.2h.1c.1 0 .2-.2.2-.3l-.5-1.9c0-.1-.2-.2-.3-.2-.2 0-.3.2-.2.3zM167.2 392.8c.2.6.3 1.3.4 1.9 0 .1.1.2.2.2h.1c.1 0 .2-.2.2-.3-.1-.6-.3-1.3-.4-1.9 0-.1-.2-.2-.3-.2-.1 0-.2.1-.2.3zM160.5 370.3l.5 1.9c0 .1.1.2.2.2h.1c.1 0 .2-.2.2-.3l-.5-1.9c0-.1-.2-.2-.3-.2-.1.1-.2.2-.2.3zM166.5 389.9c.2.6.3 1.2.5 1.9 0 .1.1.2.2.2h.1c.1 0 .2-.2.2-.3-.2-.6-.3-1.3-.5-1.9 0-.1-.2-.2-.3-.2-.2.1-.2.2-.2.3zM167.9 395.6c.1.6.3 1.3.4 1.9 0 .1.1.2.2.2s.2-.2.2-.3c-.1-.6-.3-1.3-.4-1.9 0-.1-.2-.2-.3-.2-.1 0-.1.2-.1.3zM162.2 376l.1.4c.1.5.3 1 .5 1.5 0 .1.1.2.2.2h.1c.1 0 .2-.2.2-.3-.2-.5-.3-1-.5-1.5l-.1-.4c0-.1-.2-.2-.3-.2-.2 0-.3.1-.2.3zM163 378.8c.2.6.4 1.2.6 1.9 0 .1.1.2.2.2h.1c.1 0 .2-.2.2-.3-.2-.6-.4-1.3-.6-1.9 0-.1-.2-.2-.3-.2-.1 0-.2.1-.2.3zM165.7 387.1c.2.6.4 1.2.5 1.9 0 .1.1.2.2.2h.1c.1 0 .2-.2.2-.3-.2-.6-.4-1.3-.5-1.9 0-.1-.2-.2-.3-.2-.2.1-.2.2-.2.3zM161.4 373.1l.5 1.9c0 .1.1.2.2.2h.1c.1 0 .2-.2.2-.3l-.5-1.9c0-.1-.2-.2-.3-.2-.2.1-.3.2-.2.3zM163.9 381.5l.6 1.9c0 .1.1.2.2.2h.1c.1 0 .2-.2.2-.3l-.6-1.9c0-.1-.2-.2-.3-.2-.1.1-.2.2-.2.3zM164.8 384.3c.2.6.4 1.2.6 1.9 0 .1.1.2.2.2h.1c.1 0 .2-.2.2-.3-.2-.6-.4-1.3-.6-1.9 0-.1-.2-.2-.3-.2-.1.1-.2.2-.2.3z" class="st1"/><path d="M95.4 447.4c0 .1 0 .1 0 0 0 .1 0 .1 0 0z" class="st37"/><path d="m146.2 419.1-22.7 13.2-23.9-10.8-1.9-36.2 46.6-2.5z" class="st3"/><path d="m123.3 428.6-1-.5c-.1-.1-.2-.2-.1-.3.1-.1.2-.2.3-.1l.8.4.7-.4c.1-.1.3 0 .3.1.1.1 0 .3-.1.3l-.9.5zm-1.8-.8s-.1 0 0 0l-1.9-.8c-.1-.1-.2-.2-.1-.3.1-.1.2-.2.3-.1l1.8.8c.1.1.2.2.1.3 0 0-.1.1-.2.1zm3.5-.2c-.1 0-.2 0-.2-.1-.1-.1 0-.3.1-.3l1.7-1c.1-.1.3 0 .3.1.1.1 0 .3-.1.3l-1.7 1h-.1zm-6.2-1h-.1l-1.8-.8c-.1-.1-.2-.2-.1-.3.1-.1.2-.2.3-.1l1.8.8c.1.1.2.2.1.3 0 0-.1.1-.2.1zm8.7-.4c-.1 0-.2 0-.2-.1-.1-.1 0-.3.1-.3l1.7-1c.1-.1.3 0 .3.1.1.1 0 .3-.1.3l-1.7 1c0-.1-.1 0-.1 0zm-11.3-.8c-.1 0-.1 0 0 0l-1.9-.8c-.1-.1-.2-.2-.1-.3.1-.1.2-.2.3-.1l1.8.8c.1.1.2.2.1.3-.1 0-.1.1-.2.1zm13.8-.7c-.1 0-.2 0-.2-.1-.1-.1 0-.3.1-.3l1.7-1c.1-.1.3 0 .3.1.1.1 0 .3-.1.3l-1.7 1h-.1zm-16.5-.5s-.1 0 0 0l-1.9-.8c-.1-.1-.2-.2-.1-.3.1-.1.2-.2.3-.1l1.8.8c.1.1.2.2.1.3 0 0-.1.1-.2.1zm19.1-1c-.1 0-.2 0-.2-.1-.1-.1 0-.3.1-.3l1.7-1c.1-.1.3 0 .3.1.1.1 0 .3-.1.3l-1.7 1h-.1zm-21.8-.2-1.9-.8c-.1-.1-.2-.2-.1-.3.1-.1.2-.2.3-.1l1.8.8c.1.1.2.2.1.3 0 0-.1.1-.2.1zm-2.6-1.2c-.1 0-.1 0 0 0l-1.9-.8c-.1-.1-.2-.2-.1-.3.1-.1.2-.2.3-.1l1.8.8c.1.1.2.2.1.3-.1 0-.2.1-.2.1zm26.9-.1c-.1 0-.2 0-.2-.1-.1-.1 0-.3.1-.3l1.7-1c.1-.1.3 0 .3.1.1.1 0 .3-.1.3l-1.7 1h-.1zm-29.6-1.1c-.1 0-.1 0 0 0l-1.9-.8c-.1-.1-.2-.2-.1-.3.1-.1.2-.2.3-.1l1.8.8c.1.1.2.2.1.3 0 0-.1.1-.2.1zm32.1-.3c-.1 0-.2 0-.2-.1-.1-.1 0-.3.1-.3l1.7-1c.1-.1.3 0 .3.1.1.1 0 .3-.1.3l-1.7 1h-.1zm-34.4-1.1c-.1 0-.2-.1-.2-.2l-.1-1.9c0-.1.1-.2.2-.3.1 0 .2.1.2.2l.1 1.9c0 .1-.1.2-.2.3zm36.9-.4c-.1 0-.2 0-.2-.1-.1-.1 0-.3.1-.3l1.7-1c.1-.1.3 0 .3.1.1.1 0 .3-.1.3l-1.7 1h-.1zm2.3-1.6c-.1 0-.2-.1-.2-.2l-.2-2c0-.1.1-.2.2-.3.1 0 .2.1.2.2l.1 1.9c.1.3 0 .4-.1.4zm-39.4-1c-.1 0-.2-.1-.2-.2l-.1-1.9c0-.1.1-.2.2-.3.1 0 .2.1.2.2l.1 1.9c.1.2-.1.3-.2.3zm39.2-1.9c-.1 0-.2-.1-.2-.2l-.1-1.9c0-.1.1-.2.2-.3.1 0 .2.1.2.2l.1 1.9c.1.1 0 .2-.2.3zm-39.4-1c-.1 0-.2-.1-.2-.2l-.1-1.9c0-.1.1-.2.2-.3.1 0 .2.1.2.2l.1 1.9c.1.2 0 .3-.2.3.1 0 .1 0 0 0zm39.3-2c-.1 0-.2-.1-.2-.2l-.1-1.9c0-.1.1-.2.2-.3.1 0 .2.1.2.2l.1 1.9c0 .2-.1.3-.2.3zm-39.4-.9c-.1 0-.2-.1-.2-.2l-.1-1.9c0-.1.1-.2.2-.3.1 0 .2.1.2.2l.1 1.9c0 .2-.1.3-.2.3zm39.2-2c-.1 0-.2-.1-.2-.2l-.1-1.9c0-.1.1-.2.2-.3.1 0 .2.1.2.2l.1 1.9c.1.2 0 .3-.2.3zm-39.4-.9c-.1 0-.2-.1-.2-.2l-.1-1.9c0-.1.1-.2.2-.3.1 0 .2.1.2.2l.1 1.9c.1.1 0 .3-.2.3zm39.3-2c-.1 0-.2-.1-.2-.2l-.1-1.9c0-.1.1-.2.2-.3.1 0 .2.1.2.2l.1 1.9c0 .2-.1.3-.2.3zm-39.4-1c-.1 0-.2-.1-.2-.2l-.1-1.9c0-.1.1-.2.2-.3.1 0 .2.1.2.2l.1 1.9c0 .2-.1.3-.2.3zm39.2-1.9c-.1 0-.2-.1-.2-.2l-.1-1.9c0-.1.1-.2.2-.3.1 0 .2.1.2.2l.1 1.9c.1.1 0 .3-.2.3zm-39.4-1c-.1 0-.2-.1-.2-.2l-.1-1.9c0-.1.1-.2.2-.3.1 0 .2.1.2.2l.1 1.9c.1.2 0 .3-.2.3zm39.3-2c-.1 0-.2-.1-.2-.2l-.1-1.9c0-.1.1-.2.2-.3.1 0 .2.1.2.2l.1 1.9c0 .2-.1.3-.2.3zm-39.4-.9c-.1 0-.2-.1-.2-.2l-.1-1.9c0-.1.1-.2.2-.3.1 0 .2.1.2.2l.1 1.9c0 .2-.1.3-.2.3zm39.2-2c-.1 0-.2-.1-.2-.2l-.1-1.9c0-.1.1-.2.2-.3.1 0 .2.1.2.2l.1 1.9c.1.2 0 .3-.2.3zm-39.4-.9c-.1 0-.2-.1-.2-.2l-.1-1.9c0-.1.1-.2.2-.3.2 0 .2.1.3.2l.1 1.9c0 .2-.1.3-.3.3zm39.3-2c-.1 0-.2-.1-.2-.2l-.1-1.9c0-.1.1-.2.2-.3.1 0 .2.1.2.2l.1 1.9c0 .2-.1.3-.2.3zm-39.4-.9c-.1 0-.2-.1-.2-.2l-.1-1.9c0-.1.1-.2.2-.3.1 0 .2.1.2.2l.1 1.9c0 .1-.1.2-.2.3zm39.2-2c-.1 0-.2-.1-.2-.2l-.1-1.9c0-.1.1-.2.2-.3.1 0 .2.1.2.2l.1 1.9c.1.2-.1.3-.2.3zm-39.4-1c-.1 0-.2-.1-.2-.2l-.1-1.9c0-.1.1-.2.2-.3.1 0 .2.1.2.2l.1 1.9c.1.2 0 .3-.2.3zm39.3-1.9c-.1 0-.2-.1-.2-.2l-.1-1.9c0-.1.1-.2.2-.3.1 0 .2.1.2.2l.1 1.9c0 .1-.1.2-.2.3zm-39.4-1c-.1 0-.2-.1-.2-.2l-.1-1.9c0-.1.1-.2.2-.3.1 0 .2.1.2.2l.1 1.9c0 .2-.1.3-.2.3zm39.2-2c-.1 0-.2-.1-.2-.2l-.1-1.9c0-.1.1-.2.2-.3.1 0 .2.1.2.2l.1 1.9c0 .2-.1.3-.2.3zM123.2 431.2h-.1l-1.8-.8c-.1-.1-.2-.2-.1-.3.1-.1.2-.2.3-.1l1.8.8c.1.1.2.2.1.3 0 0-.1.1-.2.1zm.9-.3c-.1 0-.2 0-.2-.1-.1-.1 0-.3.1-.3l1.7-1c.1-.1.3 0 .3.1.1.1 0 .3-.1.3l-1.7 1h-.1zm-3.5-.9h-.1l-1.8-.8c-.1-.1-.2-.2-.1-.3.1-.1.2-.2.3-.1l1.8.8c.1.1.2.2.1.3-.1 0-.1.1-.2.1zm6-.6c-.1 0-.2 0-.2-.1-.1-.1 0-.3.1-.3l1.7-1c.1-.1.3 0 .3.1.1.1 0 .3-.1.3l-1.7 1h-.1zm-8.7-.7h-.1l-1.8-.8c-.1-.1-.2-.2-.1-.3.1-.1.2-.2.3-.1l1.8.8c.1.1.2.2.1.3 0 .1-.1.1-.2.1zm11.2-.8c-.1 0-.2 0-.2-.1-.1-.1 0-.3.1-.3l1.7-1c.1-.1.3 0 .3.1.1.1 0 .3-.1.3l-1.7 1h-.1zm-13.9-.4h-.1l-1.8-.8c-.1-.1-.2-.2-.1-.3.1-.1.2-.2.3-.1l1.8.8c.1.1.2.2.1.3 0 .1-.1.1-.2.1zm16.4-1c-.1 0-.2 0-.2-.1-.1-.1 0-.3.1-.3l1.7-1c.1-.1.3 0 .3.1.1.1 0 .3-.1.3l-1.7 1c0-.1 0 0-.1 0zm-19-.2h-.1l-1.8-.8c-.1-.1-.2-.2-.1-.3.1-.1.2-.2.3-.1l1.8.8c.1.1.2.2.1.3-.1.1-.1.1-.2.1zm-2.7-1.2h-.1l-1.8-.8c-.1-.1-.2-.2-.1-.3.1-.1.2-.2.3-.1l1.8.8c.1.1.2.2.1.3 0 .1-.1.1-.2.1zm24.3-.1c-.1 0-.2 0-.2-.1-.1-.1 0-.3.1-.3l1.7-1c.1-.1.3 0 .3.1.1.1 0 .3-.1.3l-1.7 1h-.1zm-27-1.1h-.1l-1.8-.8c-.1-.1-.2-.2-.1-.3.1-.1.2-.2.3-.1l1.8.8c.1.1.2.2.1.3 0 .1-.1.1-.2.1zm29.5-.4c-.1 0-.2 0-.2-.1-.1-.1 0-.3.1-.3l1.7-1c.1-.1.3 0 .3.1.1.1 0 .3-.1.3l-1.7 1h-.1zm-32.1-.8h-.1l-1.8-.8c-.1-.1-.2-.2-.1-.3.1-.1.2-.2.3-.1l1.8.8c.1.1.2.2.1.3 0 0-.1.1-.2.1zm34.6-.7c-.1 0-.2 0-.2-.1-.1-.1 0-.3.1-.3l1.7-1c.1-.1.3 0 .3.1.1.1 0 .3-.1.3l-1.7 1h-.1zm-37.3-.5h-.1l-1.5-.7v-.6c0-.1.1-.2.2-.3.1 0 .2.1.2.2v.3l1.3.6c.1.1.2.2.1.3 0 .1-.1.2-.2.2zm39.8-1c-.1 0-.2 0-.2-.1-.1-.1 0-.3.1-.3l1.7-1c.1-.1.3 0 .3.1.1.1 0 .3-.1.3l-1.7 1h-.1zm-41.3-1c-.1 0-.2-.1-.2-.2l-.1-1.9c0-.1.1-.2.2-.3.1 0 .2.1.2.2l.1 1.9c.1.1 0 .3-.2.3zm43.9-.5c-.1 0-.2 0-.2-.1-.1-.1 0-.3.1-.3l.8-.5v-.7c0-.1.1-.2.2-.3.1 0 .2.1.2.2l.1 1-1 .6-.2.1zm.8-2.4c-.1 0-.2-.1-.2-.2l-.1-1.9c0-.1.1-.2.2-.3.1 0 .2.1.2.2l.1 1.9c0 .2-.1.3-.2.3zm-44.8-.1c-.1 0-.2-.1-.2-.2l-.1-1.9c0-.1.1-.2.2-.3.1 0 .2.1.2.2l.1 1.9c0 .2-.1.3-.2.3zm44.6-2.8c-.1 0-.2-.1-.2-.2l-.1-1.9c0-.1.1-.2.2-.3.1 0 .2.1.2.2l.1 1.9c.1.2 0 .3-.2.3zm-44.8-.1c-.1 0-.2-.1-.2-.2l-.1-1.9c0-.1.1-.2.2-.3.1 0 .2.1.2.2l.1 1.9c.1.2 0 .3-.2.3zm44.7-2.8c-.1 0-.2-.1-.2-.2l-.1-1.9c0-.1.1-.2.2-.3.1 0 .2.1.2.2l.1 1.9c0 .2-.1.3-.2.3zm-44.8-.1c-.1 0-.2-.1-.2-.2l-.1-1.9c0-.1.1-.2.2-.3.1 0 .2.1.2.2l.1 1.9c0 .2-.1.3-.2.3zm44.6-2.8c-.1 0-.2-.1-.2-.2l-.1-1.9c0-.1.1-.2.2-.3.1 0 .2.1.2.2l.1 1.9c.1.2 0 .3-.2.3zm-44.8-.1c-.1 0-.2-.1-.2-.2l-.1-1.9c0-.1.1-.2.2-.3.1 0 .2.1.2.2l.1 1.9c.1.1 0 .3-.2.3zm44.7-2.8c-.1 0-.2-.1-.2-.2l-.1-1.9c0-.1.1-.2.2-.3.2 0 .2.1.3.2l.1 1.9c-.1.1-.2.3-.3.3zm-44.8-.2c-.1 0-.2-.1-.2-.2l-.1-1.9c0-.1.1-.2.2-.3.1 0 .2.1.2.2l.1 1.9c0 .2-.1.3-.2.3zm44.6-2.8c-.1 0-.2-.1-.2-.2l-.1-1.9c0-.1.1-.2.2-.3.1 0 .2.1.2.2l.1 1.9c.1.2 0 .3-.2.3zm-44.8-.1c-.1 0-.2-.1-.2-.2l-.1-1.9c0-.1.1-.2.2-.3.1 0 .2.1.2.2l.1 1.9c.1.2 0 .3-.2.3zm44.7-2.8c-.1 0-.2-.1-.2-.2l-.1-1.9c0-.1.1-.2.2-.3.1 0 .2.1.2.2l.1 1.9c0 .2-.1.3-.2.3zm-44.8-.1c-.1 0-.2-.1-.2-.2l-.1-1.9c0-.1.1-.2.2-.3.1 0 .2.1.2.2l.1 1.9c0 .2-.1.3-.2.3zm44.6-2.8c-.1 0-.2-.1-.2-.2l-.1-1.9c0-.1.1-.2.2-.3.1 0 .2.1.2.2l.1 1.9c.1.2 0 .3-.2.3zm-44.8-.1c-.1 0-.2-.1-.2-.2l-.1-1.9c0-.1.1-.2.2-.3.1 0 .2.1.2.2l.1 1.9c.1.2 0 .3-.2.3zm44.7-2.8c-.1 0-.2-.1-.2-.2l-.1-1.9c0-.1.1-.2.2-.3.1 0 .2.1.2.2l.1 1.9c0 .1-.1.3-.2.3zm-44.8-.1c-.1 0-.2-.1-.2-.2l-.1-1.9c0-.1.1-.2.2-.3.2 0 .2.1.3.2l.1 1.9c-.1.1-.2.3-.3.3zm44.6-2.9c-.1 0-.2-.1-.2-.2l-.1-1.9c0-.1.1-.2.2-.3.1 0 .2.1.2.2l.1 1.9c.1.2-.1.3-.2.3zm-44.8-.1c-.1 0-.2-.1-.2-.2l-.1-1.9c0-.1.1-.2.2-.3.1 0 .2.1.2.2l.1 1.9c.1.2 0 .3-.2.3zm44.6-2.8c-.1 0-.2-.1-.2-.2l-.1-1.9c0-.1.1-.2.2-.3.1 0 .2.1.2.2l.1 1.9c.1.2 0 .3-.2.3.1 0 .1 0 0 0zm-44.7-.1c-.1 0-.2-.1-.2-.2l-.1-1.9c0-.1.1-.2.2-.3.1 0 .2.1.2.2l.1 1.9c0 .2-.1.3-.2.3zm44.6-2.8c-.1 0-.2-.1-.2-.2l-.1-1.9c0-.1.1-.2.2-.3.1 0 .2.1.2.2l.1 1.9c0 .2-.1.3-.2.3zM235.3 394.6s-.1 0 0 0l-2-.5c-.1 0-.2-.2-.2-.3 0-.1.2-.2.3-.2l1.9.5c.1 0 .2.2.2.3 0 .1-.1.2-.2.2zm.9-.1c-.1 0-.2-.1-.2-.2s0-.3.1-.3l1.8-.7c.1 0 .3 0 .3.1s0 .3-.1.3l-1.9.8c.1 0 0 0 0 0zm-3.8-.6-2-.5c-.1 0-.2-.2-.2-.3 0-.1.2-.2.3-.2l1.9.5c.1 0 .2.2.2.3 0 .1-.1.2-.2.2zm6.6-.4c-.1 0-.2-.1-.2-.2s0-.3.1-.3l1.8-.7c.1 0 .3 0 .3.1s0 .3-.1.3l-1.9.8zm-9.4-.3-2-.5c-.1 0-.2-.2-.2-.3 0-.1.2-.2.3-.2l1.9.5c.1 0 .2.2.2.3 0 .1-.1.2-.2.2zm12.1-.7c-.1 0-.2-.1-.2-.2s0-.3.1-.3l1.8-.7c.1 0 .3 0 .3.1s0 .3-.1.3l-1.9.8c.1 0 0 0 0 0zm-15 0-2-.5c-.1 0-.2-.2-.2-.3 0-.1.2-.2.3-.2l1.9.5c.1 0 .2.2.2.3.1.1 0 .2-.2.2zm-2.8-.7-2-.5c-.1 0-.2-.2-.2-.3 0-.1.2-.2.3-.2l1.9.5c.1 0 .2.2.2.3 0 .1-.1.2-.2.2zm20.6-.3c-.1 0-.2-.1-.2-.2s0-.3.1-.3l1.8-.7c.1 0 .3 0 .3.1s0 .3-.1.3l-1.9.8zm-23.4-.4c-.1 0-.1 0 0 0l-2-.5c-.1 0-.2-.2-.2-.3 0-.1.2-.2.3-.2l1.9.5c.1 0 .2.2.2.3 0 .1-.1.2-.2.2zm26.1-.5c-.1 0-.2-.1-.2-.2s0-.3.1-.3l1.8-.7c.1 0 .3 0 .3.1s0 .3-.1.3l-1.9.8c.1-.1 0 0 0 0zm-29-.2-2-.5c-.1 0-.2-.2-.2-.3 0-.1.2-.2.3-.2l1.9.5c.1 0 .2.2.2.3 0 .1-.1.2-.2.2zm-2.8-.7s-.1 0 0 0l-2-.5c-.1 0-.2-.2-.2-.3 0-.1.2-.2.3-.2l1.9.5c.1 0 .2.2.2.3 0 .1-.1.2-.2.2zm34.6-.1c-.1 0-.2-.1-.2-.2s0-.3.1-.3l1.8-.7c.1 0 .3 0 .3.1s0 .3-.1.3l-1.9.8zm-37.5-.6-.9-.2c-.1 0-.2-.1-.2-.2l-.1-1.1c0-.1.1-.2.2-.3.1 0 .2.1.2.2v.9l.7.2c.1 0 .2.2.2.3.1.1 0 .2-.1.2zm40.2-.4c-.1 0-.2-.1-.2-.2s0-.3.1-.3l1.8-.7c.1 0 .3 0 .3.1s0 .3-.1.3l-1.9.8c.1 0 0 0 0 0zm2.8-1c-.1 0-.2-.1-.2-.2s0-.3.1-.3l1.8-.7c.1 0 .3 0 .3.1s0 .3-.1.3l-1.9.8zm-43.9-.9c-.1 0-.2-.1-.2-.2l-.1-1.9c0-.1.1-.2.2-.3.1 0 .2.1.2.2l.1 1.9c0 .2-.1.3-.2.3zm46.6-.1c-.1 0-.2-.1-.2-.2s0-.3.1-.3l.6-.2v-1c0-.1.1-.2.2-.3.1 0 .2.1.2.2l.1 1.1c0 .1-.1.2-.2.2l-.8.5c.1 0 .1 0 0 0zm.7-2.4c-.1 0-.2-.1-.2-.2l-.1-1.9c0-.1.1-.2.2-.3.1 0 .2.1.2.2l.1 1.9c0 .2-.1.3-.2.3zm-47.5-.4c-.1 0-.2-.1-.2-.2l-.1-1.9c0-.1.1-.2.2-.3.1 0 .2.1.2.2l.1 1.9c.1.2 0 .3-.2.3zm47.3-2.5c-.1 0-.2-.1-.2-.2l-.1-1.9c0-.1.1-.2.2-.3.1 0 .2.1.2.2l.1 1.9c.1.1 0 .3-.2.3zm-47.4-.4c-.1 0-.2-.1-.2-.2l-.1-1.9c0-.1.1-.2.2-.3.1 0 .2.1.2.2l.1 1.9c0 .2-.1.3-.2.3zm47.3-2.6c-.1 0-.2-.1-.2-.2l-.1-1.9c0-.1.1-.2.2-.3.1 0 .2.1.2.2l.1 1.9c0 .2-.1.3-.2.3zm-47.5-.3c-.1 0-.2-.1-.2-.2l-.1-1.9c0-.1.1-.2.2-.3.1 0 .2.1.2.2l.1 1.9c.1.2 0 .3-.2.3zm47.3-2.6c-.1 0-.2-.1-.2-.2l-.1-1.9c0-.1.1-.2.2-.3.1 0 .2.1.2.2l.1 1.9c.1.2 0 .3-.2.3zM235.6 392.5h-.2c-.1 0-.2-.2-.2-.3 0-.1.2-.2.3-.2l1.6-.6c.1 0 .3 0 .3.1s0 .3-.1.3l-1.7.7c.1 0 0 0 0 0zm-1.1-.3-2-.5c-.1 0-.2-.2-.2-.3 0-.1.2-.2.3-.2l1.9.5c.1 0 .2.2.2.3 0 .2-.1.2-.2.2zm3.7-.7c-.1 0-.2-.1-.2-.2s0-.3.1-.3l1.8-.7c.1 0 .3 0 .3.1s0 .3-.1.3l-1.9.8c.1 0 .1 0 0 0zm-6.5 0-2-.5c-.1 0-.2-.2-.2-.3 0-.1.2-.2.3-.2l1.9.5c.1 0 .2.2.2.3 0 .2-.1.2-.2.2zm-2.8-.7c-.1 0-.1 0 0 0l-2-.5c-.1 0-.2-.2-.2-.3 0-.1.2-.2.3-.2l1.9.5c.1 0 .2.2.2.3 0 .1-.1.2-.2.2zm12.1-.3c-.1 0-.2-.1-.2-.2s0-.3.1-.3l1.8-.7c.1 0 .3 0 .3.1s0 .3-.1.3l-1.9.8zm-15-.4-2-.5c-.1 0-.2-.2-.2-.3 0-.1.2-.2.3-.2l1.9.5c.1 0 .2.2.2.3 0 .1-.1.2-.2.2zm17.7-.6c-.1 0-.2-.1-.2-.2s0-.3.1-.3l1.8-.7c.1 0 .3 0 .3.1s0 .3-.1.3l-1.9.8c.1 0 0 0 0 0zm-20.5-.1s-.1 0 0 0l-2-.5c-.1 0-.2-.2-.2-.3 0-.1.2-.2.3-.2l1.9.5c.1 0 .2.2.2.3 0 .1-.1.2-.2.2zm-2.9-.7-2-.5c-.1 0-.2-.2-.2-.3 0-.1.2-.2.3-.2l1.9.5c.1 0 .2.2.2.3 0 .1-.1.2-.2.2zm26.2-.2c-.1 0-.2-.1-.2-.2s0-.3.1-.3l1.8-.7c.1 0 .3 0 .3.1s0 .3-.1.3l-1.9.8zm-29-.5s0-.1 0 0l-2-.5c-.1 0-.2-.2-.2-.3 0-.1.2-.2.3-.2l1.9.5c.1 0 .2.2.2.3 0 .1-.1.2-.2.2zm31.7-.5c-.1 0-.2-.1-.2-.2s0-.3.1-.3l1.8-.7c.1 0 .3 0 .3.1s0 .3-.1.3l-1.9.8c.1 0 0 0 0 0zm-34.5-.3c-.1 0-.1 0 0 0l-1.3-.3c-.1 0-.2-.1-.2-.2v-.7c0-.1.1-.2.2-.3.1 0 .2.1.2.2v.5l1 .3c.1 0 .2.2.2.3.1.2 0 .2-.1.2zm37.3-.7c-.1 0-.2-.1-.2-.2s0-.3.1-.3l1.8-.7c.1 0 .3 0 .3.1s0 .3-.1.3l-1.9.8zm2.7-1c-.1 0-.2-.1-.2-.2s0-.3.1-.3l1.8-.7c.1 0 .3 0 .3.1s0 .3-.1.3l-1.9.8c.1 0 0 0 0 0zm-41.3-.3c-.1 0-.2-.1-.2-.2l-.1-1.9c0-.1.1-.2.2-.3.1 0 .2.1.2.2l.1 1.9c0 .2-.1.3-.2.3zm43.6-1c-.1 0-.2-.1-.2-.2l-.1-1.9c0-.1.1-.2.2-.3.1 0 .2.1.2.2l.1 1.9c0 .2-.1.3-.2.3zm-43.8-1.9c-.1 0-.2-.1-.2-.2l-.1-1.9c0-.1.1-.2.2-.3.1 0 .2.1.2.2l.1 1.9c.1.2 0 .3-.2.3zm43.6-1c-.1 0-.2-.1-.2-.2l-.1-1.9c0-.1.1-.2.2-.3.1 0 .2.1.2.2l.1 1.9c.1.1 0 .3-.2.3.1 0 0 0 0 0zm-43.7-1.9c-.1 0-.2-.1-.2-.2l-.1-1.9c0-.1.1-.2.2-.3.1 0 .2.1.2.2l.1 1.9c0 .2-.1.3-.2.3zm43.6-1.1c-.1 0-.2-.1-.2-.2l-.1-1.9c0-.1.1-.2.2-.3.1 0 .2.1.2.2l.1 1.9c0 .2-.1.3-.2.3zm-43.8-1.8c-.1 0-.2-.1-.2-.2v-.7c0-.1.1-.2.2-.3.1 0 .2.1.2.2v.7c.1.2 0 .3-.2.3zm43.6-1.1c-.1 0-.2-.1-.2-.2l-.1-1.9c0-.1.1-.2.2-.3.1 0 .2.1.2.2l.1 1.9c.1.2 0 .3-.2.3z" class="st1"/><path d="m272 371.8-75.9.5c-.3 1.5-.6 3.1-.8 4.7v1.9l77.7-.9-1-6.2z" class="st30"/><defs><filter id="Adobe_OpacityMaskFilter_00000109018726387488191830000010642200365884315304_" width="46.5" height="19.9" x="98.1" y="388.1" filterUnits="userSpaceOnUse"><feColorMatrix values="1 0 0 0 0 0 1 0 0 0 0 0 1 0 0 0 0 0 1 0"/></filter></defs><mask id="SVGID_00000135660633553597864690000005662072923483481225_" width="46.5" height="19.9" x="98.1" y="388.1" maskUnits="userSpaceOnUse"><g filter="url(#Adobe_OpacityMaskFilter_00000109018726387488191830000010642200365884315304_)"><defs><filter id="Adobe_OpacityMaskFilter_00000164485523291454515000000015469187755270033793_" width="46.5" height="19.9" x="98.1" y="388.1" filterUnits="userSpaceOnUse"><feFlood flood-color="#fff" flood-opacity="1" result="back"/><feBlend in="SourceGraphic" in2="back"/></filter></defs><linearGradient id="SVGID_00000019655109544990387220000008430644651432194953_" x1="110.421" x2="110.421" y1="421.024" y2="403.549" gradientTransform="rotate(-2.998 -155.215 188.317)" gradientUnits="userSpaceOnUse"><stop offset="0"/><stop offset=".104" stop-color="#050505"/><stop offset=".228" stop-color="#131313"/><stop offset=".361" stop-color="#2b2b2b"/><stop offset=".502" stop-color="#4d4d4d"/><stop offset=".648" stop-color="#787878"/><stop offset=".798" stop-color="#acacac"/><stop offset=".949" stop-color="#e9e9e9"/><stop offset="1" stop-color="#fff"/></linearGradient><path fill="url(#SVGID_00000019655109544990387220000008430644651432194953_)" d="m144.6 390-23.4 9.1s-11.9-2.8-15.8-1.5C98.7 399.8 99 408 99 408l-.9-17.1 46.4-2.8.1 1.9z" mask="url(#SVGID_00000135660633553597864690000005662072923483481225_)"/></g></mask><path d="m144.6 390-23.4 9.1s-11.9-2.8-15.8-1.5C98.7 399.8 99 408 99 408l-.9-17.1 46.4-2.8.1 1.9z" class="st0"/><path d="M196.2 378.2c-.1 0-.2-.1-.2-.2s.1-.2.2-.2h1.8c.1 0 .2.1.2.2s-.1.2-.2.2h-1.8zm2.7-.1c-.1 0-.2-.1-.2-.2s.1-.2.2-.2h1.8c.1 0 .2.1.2.2s-.1.2-.2.2h-1.8zm2.7 0c-.1 0-.2-.1-.2-.2s.1-.2.2-.2h1.8c.1 0 .2.1.2.2s-.1.2-.2.2h-1.8zm2.6-.1c-.1 0-.2-.1-.2-.2s.1-.2.2-.2h1.8c.1 0 .2.1.2.2s-.1.2-.2.2h-1.8zm2.7 0c-.1 0-.2-.1-.2-.2s.1-.2.2-.2h1.8c.1 0 .2.1.2.2s-.1.2-.2.2h-1.8zm2.7-.1c-.1 0-.2-.1-.2-.2s.1-.2.2-.2h1.8c.1 0 .2.1.2.2s-.1.2-.2.2h-1.8zm2.7 0c-.1 0-.2-.1-.2-.2s.1-.2.2-.2h1.8c.1 0 .2.1.2.2s-.1.2-.2.2h-1.8zm2.7 0c-.1 0-.2-.1-.2-.2s.1-.2.2-.2h1.8c.1 0 .2.1.2.2s-.1.2-.2.2H215zm2.7-.1c-.1 0-.2-.1-.2-.2s.1-.2.2-.2h1.8c.1 0 .2.1.2.2s-.1.2-.2.2h-1.8zm2.7 0c-.1 0-.2-.1-.2-.2s.1-.2.2-.2h1.8c.1 0 .2.1.2.2s-.1.2-.2.2h-1.8zm2.6-.1c-.1 0-.2-.1-.2-.2s.1-.2.2-.2h1.8c.1 0 .2.1.2.2s-.1.2-.2.2H223zm2.7 0c-.1 0-.2-.1-.2-.2s.1-.2.2-.2h1.8c.1 0 .2.1.2.2s-.1.2-.2.2h-1.8zm2.7-.1c-.1 0-.2-.1-.2-.2s.1-.2.2-.2h1.8c.1 0 .2.1.2.2s-.1.2-.2.2h-1.8zm2.7 0c-.1 0-.2-.1-.2-.2s.1-.2.2-.2h1.8c.1 0 .2.1.2.2s-.1.2-.2.2h-1.8zm2.7 0c-.1 0-.2-.1-.2-.2s.1-.2.2-.2h1.8c.1 0 .2.1.2.2s-.1.2-.2.2h-1.8zm2.7-.1c-.1 0-.2-.1-.2-.2s.1-.2.2-.2h1.8c.1 0 .2.1.2.2s-.1.2-.2.2h-1.8zm2.7 0c-.1 0-.2-.1-.2-.2s.1-.2.2-.2h1.8c.1 0 .2.1.2.2s-.1.2-.2.2h-1.8zm2.6-.1c-.1 0-.2-.1-.2-.2s.1-.2.2-.2h1.8c.1 0 .2.1.2.2s-.1.2-.2.2h-1.8zm2.7 0c-.1 0-.2-.1-.2-.2s.1-.2.2-.2h1.8c.1 0 .2.1.2.2s-.1.2-.2.2h-1.8zm2.7-.1c-.1 0-.2-.1-.2-.2s.1-.2.2-.2h1.8c.1 0 .2.1.2.2s-.1.2-.2.2h-1.8zm2.7 0c-.1 0-.2-.1-.2-.2s.1-.2.2-.2h1.8c.1 0 .2.1.2.2s-.1.2-.2.2h-1.8zm2.7 0c-.1 0-.2-.1-.2-.2s.1-.2.2-.2h1.8c.1 0 .2.1.2.2s-.1.2-.2.2h-1.8zm2.7-.1c-.1 0-.2-.1-.2-.2s.1-.2.2-.2h1.8c.1 0 .2.1.2.2s-.1.2-.2.2h-1.8zm2.7 0c-.1 0-.2-.1-.2-.2s.1-.2.2-.2h1.8c.1 0 .2.1.2.2s-.1.2-.2.2H258zm2.6-.1c-.1 0-.2-.1-.2-.2s.1-.2.2-.2h1.8c.1 0 .2.1.2.2s-.1.2-.2.2h-1.8zm2.7 0c-.1 0-.2-.1-.2-.2s.1-.2.2-.2h1.8c.1 0 .2.1.2.2s-.1.2-.2.2h-1.8zm2.7-.1c-.1 0-.2-.1-.2-.2s.1-.2.2-.2h1.8c.1 0 .2.1.2.2s-.1.2-.2.2H266zm2.7 0c-.1 0-.2-.1-.2-.2s.1-.2.2-.2h1.8c.1 0 .2.1.2.2s-.1.2-.2.2h-1.8z" class="st1"/><path d="m146 388.9-24.3 8.5-25.1-5.9-.8-14.4 49.5-2.6z" class="st35"/><path d="M197 374.4c-.1 0-.2-.1-.2-.2s.1-.2.2-.2h1.8c.1 0 .2.1.2.2s-.1.2-.2.2H197zm2.6-.1c-.1 0-.2-.1-.2-.2s.1-.2.2-.2h1.8c.2 0 .2.1.2.2s-.1.2-.2.2h-1.8zm2.7 0c-.1 0-.2-.1-.2-.2s.1-.2.2-.2h1.8c.1 0 .2.1.2.2s-.1.2-.2.2h-1.8zm2.7 0c-.1 0-.2-.1-.2-.2s.1-.2.2-.2h1.8c.1 0 .2.1.2.2s-.1.2-.2.2H205zm2.7-.1c-.1 0-.2-.1-.2-.2s.1-.2.2-.2h1.8c.1 0 .2.1.2.2s-.1.2-.2.2h-1.8zm2.7 0c-.1 0-.2-.1-.2-.2s.1-.2.2-.2h1.8c.1 0 .2.1.2.2s-.1.2-.2.2h-1.8zm2.7-.1c-.1 0-.2-.1-.2-.2s.1-.2.2-.2h1.8c.1 0 .2.1.2.2s-.1.2-.2.2h-1.8zm2.7 0c-.1 0-.2-.1-.2-.2s.1-.2.2-.2h1.8c.1 0 .2.1.2.2s-.1.2-.2.2h-1.8zm2.6 0c-.1 0-.2-.1-.2-.2s.1-.2.2-.2h1.8c.1 0 .2.1.2.2s-.1.2-.2.2h-1.8zm2.7-.1c-.1 0-.2-.1-.2-.2s.1-.2.2-.2h1.8c.1 0 .2.1.2.2s-.1.2-.2.2h-1.8zm2.7 0c-.1 0-.2-.1-.2-.2s.1-.2.2-.2h1.8c.1 0 .2.1.2.2s-.1.2-.2.2h-1.8zm2.7 0c-.1 0-.2-.1-.2-.2s.1-.2.2-.2h1.8c.1 0 .2.1.2.2s-.1.2-.2.2h-1.8zm2.7-.1c-.1 0-.2-.1-.2-.2s.1-.2.2-.2h1.8c.1 0 .2.1.2.2s-.1.2-.2.2h-1.8zm2.7 0c-.1 0-.2-.1-.2-.2s.1-.2.2-.2h1.8c.1 0 .2.1.2.2s-.1.2-.2.2h-1.8zm2.7 0c-.1 0-.2-.1-.2-.2s.1-.2.2-.2h1.8c.1 0 .2.1.2.2s-.1.2-.2.2h-1.8zm2.6-.1c-.1 0-.2-.1-.2-.2s.1-.2.2-.2h1.8c.1 0 .2.1.2.2s-.1.2-.2.2h-1.8zm2.7 0c-.1 0-.2-.1-.2-.2s.1-.2.2-.2h1.8c.1 0 .2.1.2.2s-.1.2-.2.2h-1.8zm2.7 0c-.1 0-.2-.1-.2-.2s.1-.2.2-.2h1.8c.1 0 .2.1.2.2s-.1.2-.2.2h-1.8zm2.7-.1c-.1 0-.2-.1-.2-.2s.1-.2.2-.2h1.8c.1 0 .2.1.2.2s-.1.2-.2.2h-1.8zm2.7 0c-.1 0-.2-.1-.2-.2s.1-.2.2-.2h1.8c.1 0 .2.1.2.2s-.1.2-.2.2H248zm2.7-.1c-.1 0-.2-.1-.2-.2s.1-.2.2-.2h1.8c.1 0 .2.1.2.2s-.1.2-.2.2h-1.8zm2.7 0c-.1 0-.2-.1-.2-.2s.1-.2.2-.2h1.8c.1 0 .2.1.2.2s-.1.2-.2.2h-1.8zm2.6 0c-.1 0-.2-.1-.2-.2s.1-.2.2-.2h1.8c.1 0 .2.1.2.2s-.1.2-.2.2H256zm2.7-.1c-.1 0-.2-.1-.2-.2s.1-.2.2-.2h1.8c.1 0 .2.1.2.2s-.1.2-.2.2h-1.8zm2.7 0c-.1 0-.2-.1-.2-.2s.1-.2.2-.2h1.8c.1 0 .2.1.2.2s-.1.2-.2.2h-1.8zm2.7 0c-.1 0-.2-.1-.2-.2s.1-.2.2-.2h1.8c.1 0 .2.1.2.2s-.1.2-.2.2h-1.8zm2.7-.1c-.1 0-.2-.1-.2-.2s.1-.2.2-.2h1.8c.1 0 .2.1.2.2s-.1.2-.2.2h-1.8zM121.3 396.6s-.1 0 0 0l-2-.5c-.1 0-.2-.2-.2-.3 0-.1.2-.2.3-.2l1.9.5c.1 0 .2.2.2.3 0 .1-.1.2-.2.2zm.9-.1c-.1 0-.2-.1-.2-.2s0-.3.1-.3l1.8-.7c.1 0 .3 0 .3.1s0 .3-.1.3l-1.9.8c.1 0 0 0 0 0zm-3.8-.6-2-.5c-.1 0-.2-.2-.2-.3 0-.1.2-.2.3-.2l1.9.5c.1 0 .2.2.2.3 0 .1-.1.2-.2.2zm6.6-.4c-.1 0-.2-.1-.2-.2s0-.3.1-.3l1.8-.7c.1 0 .3 0 .3.1s0 .3-.1.3l-1.9.8zm-9.4-.3-2-.5c-.1 0-.2-.2-.2-.3 0-.1.2-.2.3-.2l1.9.5c.1 0 .2.2.2.3 0 .1-.1.2-.2.2zm12.1-.7c-.1 0-.2-.1-.2-.2s0-.3.1-.3l1.8-.7c.1 0 .3 0 .3.1s0 .3-.1.3l-1.9.8c.1 0 0 0 0 0zm-15 0-2-.5c-.1 0-.2-.2-.2-.3 0-.1.2-.2.3-.2l1.9.5c.1 0 .2.2.2.3.1.1 0 .2-.2.2zm-2.8-.7-2-.5c-.1 0-.2-.2-.2-.3 0-.1.2-.2.3-.2l1.9.5c.1 0 .2.2.2.3 0 .1-.1.2-.2.2zm20.6-.3c-.1 0-.2-.1-.2-.2s0-.3.1-.3l1.8-.7c.1 0 .3 0 .3.1s0 .3-.1.3l-1.9.8zm-23.4-.4c-.1 0-.1 0 0 0l-2-.5c-.1 0-.2-.2-.2-.3 0-.1.2-.2.3-.2l1.9.5c.1 0 .2.2.2.3 0 .1-.1.2-.2.2zm26.1-.5c-.1 0-.2-.1-.2-.2s0-.3.1-.3l1.8-.7c.1 0 .3 0 .3.1s0 .3-.1.3l-1.9.8c.1-.1 0 0 0 0zm-29-.2-2-.5c-.1 0-.2-.2-.2-.3 0-.1.2-.2.3-.2l1.9.5c.1 0 .2.2.2.3 0 .1-.1.2-.2.2zm-2.8-.7s-.1 0 0 0l-2-.5c-.1 0-.2-.2-.2-.3 0-.1.2-.2.3-.2l1.9.5c.1 0 .2.2.2.3 0 .1-.1.2-.2.2zm34.6-.1c-.1 0-.2-.1-.2-.2s0-.3.1-.3l1.8-.7c.1 0 .3 0 .3.1s0 .3-.1.3l-1.9.8zm-37.5-.6-.9-.2c-.1 0-.2-.1-.2-.2l-.1-1.1c0-.1.1-.2.2-.3.1 0 .2.1.2.2v.9l.7.2c.1 0 .2.2.2.3.1.1 0 .2-.1.2zm40.2-.4c-.1 0-.2-.1-.2-.2s0-.3.1-.3l1.8-.7c.1 0 .3 0 .3.1s0 .3-.1.3l-1.9.8c.1 0 0 0 0 0zm2.8-1c-.1 0-.2-.1-.2-.2s0-.3.1-.3l1.8-.7c.1 0 .3 0 .3.1s0 .3-.1.3l-1.9.8zm-43.9-.9c-.1 0-.2-.1-.2-.2l-.1-1.9c0-.1.1-.2.2-.3.1 0 .2.1.2.2l.1 1.9c0 .2-.1.3-.2.3zm46.6-.1c-.1 0-.2-.1-.2-.2s0-.3.1-.3l.6-.2v-1c0-.1.1-.2.2-.3.1 0 .2.1.2.2l.1 1.1c0 .1-.1.2-.2.2l-.8.5c.1 0 .1 0 0 0zm.7-2.4c-.1 0-.2-.1-.2-.2l-.1-1.9c0-.1.1-.2.2-.3.1 0 .2.1.2.2l.1 1.9c0 .2-.1.3-.2.3zm-47.5-.4c-.1 0-.2-.1-.2-.2l-.1-1.9c0-.1.1-.2.2-.3.1 0 .2.1.2.2l.1 1.9c.1.2 0 .3-.2.3zm47.3-2.5c-.1 0-.2-.1-.2-.2l-.1-1.9c0-.1.1-.2.2-.3.1 0 .2.1.2.2l.1 1.9c.1.1 0 .3-.2.3zm-47.4-.4c-.1 0-.2-.1-.2-.2l-.1-1.9c0-.1.1-.2.2-.3.1 0 .2.1.2.2l.1 1.9c0 .2-.1.3-.2.3zm47.3-2.6c-.1 0-.2-.1-.2-.2l-.1-1.9c0-.1.1-.2.2-.3.1 0 .2.1.2.2l.1 1.9c0 .2-.1.3-.2.3zm-47.5-.3c-.1 0-.2-.1-.2-.2l-.1-1.9c0-.1.1-.2.2-.3.1 0 .2.1.2.2l.1 1.9c.1.2 0 .3-.2.3zm47.3-2.6c-.1 0-.2-.1-.2-.2l-.1-1.9c0-.1.1-.2.2-.3.1 0 .2.1.2.2l.1 1.9c.1.2 0 .3-.2.3zM121.6 394.5h-.2c-.1 0-.2-.2-.2-.3 0-.1.2-.2.3-.2l1.6-.6c.1 0 .3 0 .3.1s0 .3-.1.3l-1.7.7c.1 0 0 0 0 0zm-1.1-.3-2-.5c-.1 0-.2-.2-.2-.3 0-.1.2-.2.3-.2l1.9.5c.1 0 .2.2.2.3 0 .2-.1.2-.2.2zm3.7-.7c-.1 0-.2-.1-.2-.2s0-.3.1-.3l1.8-.7c.1 0 .3 0 .3.1s0 .3-.1.3l-1.9.8c.1 0 .1 0 0 0zm-6.5 0-2-.5c-.1 0-.2-.2-.2-.3 0-.1.2-.2.3-.2l1.9.5c.1 0 .2.2.2.3 0 .2-.1.2-.2.2zm-2.8-.7c-.1 0-.1 0 0 0l-2-.5c-.1 0-.2-.2-.2-.3 0-.1.2-.2.3-.2l1.9.5c.1 0 .2.2.2.3 0 .1-.1.2-.2.2zm12.1-.3c-.1 0-.2-.1-.2-.2s0-.3.1-.3l1.8-.7c.1 0 .3 0 .3.1s0 .3-.1.3l-1.9.8zm-15-.4-2-.5c-.1 0-.2-.2-.2-.3 0-.1.2-.2.3-.2l1.9.5c.1 0 .2.2.2.3 0 .1-.1.2-.2.2zm17.7-.6c-.1 0-.2-.1-.2-.2s0-.3.1-.3l1.8-.7c.1 0 .3 0 .3.1s0 .3-.1.3l-1.9.8c.1 0 0 0 0 0zm-20.5-.1s-.1 0 0 0l-2-.5c-.1 0-.2-.2-.2-.3 0-.1.2-.2.3-.2l1.9.5c.1 0 .2.2.2.3 0 .1-.1.2-.2.2zm-2.9-.7-2-.5c-.1 0-.2-.2-.2-.3 0-.1.2-.2.3-.2l1.9.5c.1 0 .2.2.2.3 0 .1-.1.2-.2.2zm26.2-.2c-.1 0-.2-.1-.2-.2s0-.3.1-.3l1.8-.7c.1 0 .3 0 .3.1s0 .3-.1.3l-1.9.8zm-29-.5s0-.1 0 0l-2-.5c-.1 0-.2-.2-.2-.3 0-.1.2-.2.3-.2l1.9.5c.1 0 .2.2.2.3 0 .1-.1.2-.2.2zm31.7-.5c-.1 0-.2-.1-.2-.2s0-.3.1-.3l1.8-.7c.1 0 .3 0 .3.1s0 .3-.1.3l-1.9.8c.1 0 0 0 0 0zm-34.5-.3c-.1 0-.1 0 0 0l-1.3-.3c-.1 0-.2-.1-.2-.2v-.7c0-.1.1-.2.2-.3.1 0 .2.1.2.2v.5l1 .3c.1 0 .2.2.2.3.1.2 0 .2-.1.2zm37.3-.7c-.1 0-.2-.1-.2-.2s0-.3.1-.3l1.8-.7c.1 0 .3 0 .3.1s0 .3-.1.3l-1.9.8zm2.7-1c-.1 0-.2-.1-.2-.2s0-.3.1-.3l1.8-.7c.1 0 .3 0 .3.1s0 .3-.1.3l-1.9.8c.1 0 0 0 0 0zm-41.3-.3c-.1 0-.2-.1-.2-.2l-.1-1.9c0-.1.1-.2.2-.3.1 0 .2.1.2.2l.1 1.9c0 .2-.1.3-.2.3zm43.6-1c-.1 0-.2-.1-.2-.2l-.1-1.9c0-.1.1-.2.2-.3.1 0 .2.1.2.2l.1 1.9c0 .2-.1.3-.2.3zm-43.8-1.9c-.1 0-.2-.1-.2-.2l-.1-1.9c0-.1.1-.2.2-.3.1 0 .2.1.2.2l.1 1.9c.1.2 0 .3-.2.3zm43.6-1c-.1 0-.2-.1-.2-.2l-.1-1.9c0-.1.1-.2.2-.3.1 0 .2.1.2.2l.1 1.9c.1.1 0 .3-.2.3.1 0 0 0 0 0zm-43.7-1.9c-.1 0-.2-.1-.2-.2l-.1-1.9c0-.1.1-.2.2-.3.1 0 .2.1.2.2l.1 1.9c0 .2-.1.3-.2.3zm43.6-1.1c-.1 0-.2-.1-.2-.2l-.1-1.9c0-.1.1-.2.2-.3.1 0 .2.1.2.2l.1 1.9c0 .2-.1.3-.2.3zm-43.8-1.8c-.1 0-.2-.1-.2-.2v-.7c0-.1.1-.2.2-.3.1 0 .2.1.2.2v.7c.1.2 0 .3-.2.3zm43.6-1.1c-.1 0-.2-.1-.2-.2l-.1-1.9c0-.1.1-.2.2-.3.1 0 .2.1.2.2l.1 1.9c.1.2 0 .3-.2.3z" class="st1"/><path d="M122.3 388.3c.1 2.3-.2 4.1-.8 4.2-.6 0-1.1-1.8-1.2-4.1-.1-2.3.2-4.1.8-4.2.5.1 1 1.9 1.2 4.1z" class="st0"/><path d="M124.4 389.6c.1 1.7-1.2 3.2-3 3.3-1.7.1-3.2-1.2-3.3-3-.1-1.7 1.2-3.2 3-3.3 1.8-.1 3.2 1.3 3.3 3z" class="st23"/><path d="M236.3 386.3c.1 2.3-.2 4.1-.8 4.2-.6 0-1.1-1.8-1.2-4.1-.1-2.3.2-4.1.8-4.2.5.1 1 1.9 1.2 4.1z" class="st0"/><path d="M238.4 387.6c.1 1.7-1.2 3.2-3 3.3-1.7.1-3.2-1.2-3.3-3-.1-1.7 1.2-3.2 3-3.3 1.8-.1 3.2 1.3 3.3 3z" class="st23"/><path d="M159.3 373.2h-2c-.1 0-.2-.1-.2-.2s.1-.3.2-.2h1.9c.1 0 .2.1.2.2.1.1 0 .2-.1.2zm-2.9-.1h-2c-.1 0-.2-.1-.2-.2s.1-.2.2-.2h2c.1 0 .2.1.2.2s-.1.2-.2.2zm-3 0h-2c-.1 0-.2-.1-.2-.2s.1-.2.2-.2h2c.1 0 .2.1.2.2.1.1 0 .2-.2.2zm-2.9 0h-2c-.1 0-.2-.1-.2-.2s.1-.2.2-.2h2c.1 0 .2.1.2.2s-.1.2-.2.2zm-2.9-.1h-2c-.1 0-.2-.1-.2-.2s.1-.2.2-.2h2c.1 0 .2.1.2.2s-.1.2-.2.2zm-3 0h-2c-.1 0-.2-.1-.2-.2s.1-.2.2-.2h2c.1 0 .2.1.2.2.1.1 0 .2-.2.2zm-2.9-.1h-2c-.1 0-.2-.1-.2-.2s.1-.2.2-.2h2c.1 0 .2.1.2.2.1.1 0 .2-.2.2zm-2.9 0h-2c-.1 0-.2-.1-.2-.2s.1-.2.2-.2h2c.1 0 .2.1.2.2s-.1.2-.2.2zm-2.9 0h-2c-.1 0-.2-.1-.2-.2s.1-.2.2-.2h2c.1 0 .2.1.2.2s-.1.2-.2.2zm-3-.1h-2c-.1 0-.2-.1-.2-.2s.1-.2.2-.2h2c.1 0 .2.1.2.2.1.1 0 .2-.2.2zm-2.9 0h-2c-.1 0-.2-.1-.2-.2s.1-.2.2-.2h2c.1 0 .2.1.2.2.1.1 0 .2-.2.2zm-2.9 0h-2c-.1 0-.2-.1-.2-.2s.1-.2.2-.2h2c.1 0 .2.1.2.2 0 0-.1.2-.2.2zm-2.9-.1h-2c-.1 0-.2-.1-.2-.2s.1-.2.2-.2h2c.1 0 .2.1.2.2s-.1.2-.2.2zm-3 0h-2c-.1 0-.2-.1-.2-.2s.1-.2.2-.2h2c.1 0 .2.1.2.2.1.1 0 .2-.2.2zm-2.9-.1h-2c-.1 0-.2-.1-.2-.2s.1-.3.2-.2h2c.1 0 .2.1.2.2.1.1-.1.2-.2.2zm-2.9 0h-2c-.1 0-.2-.1-.2-.2s.1-.2.2-.2h1.9c.1 0 .2.1.2.2.1.1 0 .2-.1.2zm-2.9 0h-2c-.1 0-.2-.1-.2-.2s.1-.2.2-.2h2c.1 0 .2.1.2.2s-.1.2-.2.2zm-3-.1h-2c-.1 0-.2-.1-.2-.2s.1-.2.2-.2h2c.1 0 .2.1.2.2.1.1 0 .2-.2.2zm-2.9 0h-2c-.1 0-.2-.1-.2-.2s.1-.2.2-.2h2c.1 0 .2.1.2.2.1.1-.1.2-.2.2zm-2.9-.1h-2c-.1 0-.2-.1-.2-.2s.1-.3.2-.2h2c.1 0 .2.1.2.2s-.1.2-.2.2zm-2.9 0h-2c-.1 0-.2-.1-.2-.2s.1-.2.2-.2h2c.1 0 .2.1.2.2s-.1.2-.2.2zm-3 0h-2c-.1 0-.2-.1-.2-.2s.1-.2.2-.2h2c.1 0 .2.1.2.2.1.1 0 .2-.2.2zm-2.9-.1h-2c-.1 0-.2-.1-.2-.2s.1-.2.2-.2h2c.1 0 .2.1.2.2.1.1-.1.2-.2.2zm-2.9 0h-2c-.1 0-.2-.1-.2-.2s.1-.2.2-.2h2c.1 0 .2.1.2.2s-.1.2-.2.2zm-2.9 0h-2c-.1 0-.2-.1-.2-.2s.1-.2.2-.2h2c.1 0 .2.1.2.2 0 0-.1.2-.2.2zm-3-.1h-2c-.1 0-.2-.1-.2-.2s.1-.2.2-.2h2c.1 0 .2.1.2.2.1.1 0 .2-.2.2zm-2.9 0h-2c-.1 0-.2-.1-.2-.2s.1-.2.2-.2h2c.1 0 .2.1.2.2s-.1.2-.2.2z" class="st1"/><path d="M171.3 427.6c0 .6 2.4 1.1 5.3 1.1s5.3-.5 5.3-1.1c0-.6-2.4-1.1-5.3-1.1s-5.3.5-5.3 1.1zM159.2 360.7c.2.6 2.6.4 5.4-.3 2.8-.7 5-1.8 4.9-2.3-.1-.6-2.6-.4-5.4.3-2.9.7-5 1.7-4.9 2.3zM168.2 391.7c.2.6 2.6.4 5.4-.3 2.8-.7 5-1.8 4.9-2.3-.1-.6-2.6-.4-5.4.3-2.9.7-5 1.7-4.9 2.3z" class="st0"/><path d="M125.4 431.8c-.1 0-.2.1-.2.3l.1 1.9c0 .1.1.2.2.2s.2-.1.2-.3l-.1-1.9c.1-.1 0-.2-.2-.2zM126 440.5c-.1 0-.2.1-.2.3l.1 1.9c0 .1.1.2.2.2s.2-.1.2-.3l-.1-1.9c0-.1-.1-.1-.2-.2zM126.1 443.5c-.1 0-.2.1-.2.3l.1 1.9c0 .1.1.2.2.2s.2-.1.2-.3l-.1-1.9c.1-.1 0-.2-.2-.2zM126.3 446.4c-.1 0-.2.1-.2.3l.1 1.9c0 .1.1.2.2.2s.2-.1.2-.3l-.1-1.9c.1-.1-.1-.2-.2-.2zM125.8 437.6c-.1 0-.2.1-.2.3l.1 1.9c0 .1.1.2.2.2s.2-.1.2-.3l-.1-1.9c0-.1-.1-.2-.2-.2zM125.6 434.7c-.1 0-.2.1-.2.3l.1 1.9c0 .1.1.2.2.2s.2-.1.2-.3l-.1-1.9c0-.1-.1-.2-.2-.2zM126.5 449.3c-.1 0-.2.1-.2.3l.1 1.9c0 .1.1.2.2.2s.2-.1.2-.3l-.1-1.9c0-.1-.1-.2-.2-.2zM121.5 431.8c-.1 0-.2.1-.2.3l.1 1.9c0 .1.1.2.2.2s.2-.1.2-.3l-.1-1.9c.1-.1 0-.2-.2-.2zM122.5 449.4c-.1 0-.2.1-.2.3l.1 1.9c0 .1.1.2.2.2s.2-.1.2-.3l-.1-1.9c.1-.1-.1-.2-.2-.2zM122.2 443.5c-.1 0-.2.1-.2.3l.1 1.9c0 .1.1.2.2.2s.2-.1.2-.3l-.1-1.9c0-.1-.1-.2-.2-.2zM121.7 434.8c-.1 0-.3.1-.2.3l.1 1.9c0 .1.1.2.2.2s.2-.1.2-.3l-.1-1.9c0-.1-.1-.2-.2-.2zM122.4 446.4c-.1 0-.3.1-.2.3l.1 1.9c0 .1.1.2.2.2s.2-.1.2-.3l-.1-1.9c0-.1-.1-.2-.2-.2zM122 440.6c-.1 0-.3.1-.2.3l.1 1.9c0 .1.1.2.2.2s.2-.1.2-.3l-.1-1.9c.1-.1 0-.2-.2-.2zM121.8 437.7c-.1 0-.2.1-.2.3l.1 1.9c0 .1.1.2.2.2s.2-.1.2-.3l-.1-1.9c.1-.1 0-.2-.2-.2z" class="st1"/><path d="M86 408c-1-1-7.1-12.2-6.3-40.4.8-27.2-6.4-41.8-6.4-42l5.9-2.9c.3.9 7.6 16.9 6.8 45.1-.8 27 1 40.1 1 40.2h-1z" class="st30"/><path d="M85.9 408.1c-.2-.6-.4-1.2-.6-1.9 0-.1 0-.3.2-.3.1 0 .3 0 .3.2.2.7.4 1.3.6 1.8 0 .2-.5.3-.5.2zm-.7-2.6c-.1 0-.2-.1-.2-.2-.2-.6-.3-1.2-.5-1.9 0-.1 0-.3.2-.3.1 0 .3 0 .3.2.2.7.3 1.3.5 1.9 0 .1-.1.2-.3.3.1 0 .1 0 0 0zm-.7-2.9c-.1 0-.2-.1-.2-.2-.1-.6-.3-1.3-.4-1.9 0-.1.1-.3.2-.3s.3.1.3.2c.1.7.3 1.3.4 1.9 0 .2-.1.3-.3.3.1 0 0 0 0 0zm-.6-2.8c-.1 0-.2-.1-.2-.2-.1-.6-.2-1.3-.4-1.9 0-.1.1-.3.2-.3s.3.1.3.2c.1.7.2 1.3.4 1.9 0 .1-.1.3-.3.3zm-.5-2.9c-.1 0-.2-.1-.2-.2-.1-.6-.2-1.3-.3-1.9 0-.1.1-.3.2-.3s.3.1.3.2c.1.7.2 1.3.3 1.9 0 .2-.1.3-.3.3zM83 394c-.1 0-.2-.1-.2-.2-.1-.6-.2-1.3-.3-1.9 0-.1.1-.3.2-.3.2 0 .3.1.3.2.1.7.2 1.3.3 1.9-.1.2-.2.3-.3.3zm-.4-2.9c-.1 0-.2-.1-.2-.2-.1-.6-.2-1.3-.2-1.9 0-.1.1-.3.2-.3s.2.1.2.2c.1.7.2 1.3.2 1.9 0 .2-.1.3-.2.3zm-.4-2.9c-.1 0-.2-.1-.2-.2-.1-.6-.1-1.3-.2-1.9 0-.1.1-.3.2-.3s.3.1.3.2c.1.7.1 1.3.2 1.9 0 .2-.1.3-.3.3zm-.3-2.9c-.1 0-.2-.1-.2-.2-.1-.6-.1-1.3-.2-1.9 0-.1.1-.3.2-.3s.3.1.3.2c.1.7.1 1.3.2 1.9 0 .2-.1.3-.3.3.1 0 .1 0 0 0zm-.2-2.9c-.1 0-.2-.1-.2-.2 0-.6-.1-1.3-.1-2 0-.1.1-.2.2-.3.1 0 .2.1.3.2 0 .7.1 1.3.1 1.9 0 .2-.1.4-.3.4zm-.2-2.9c-.1 0-.2-.1-.2-.2 0-.6-.1-1.3-.1-1.9 0-.1.1-.2.2-.3.1 0 .2.1.2.2 0 .7.1 1.3.1 1.9.1.1 0 .2-.2.3zm-.1-3c-.1 0-.2-.1-.2-.2 0-.6-.1-1.3-.1-2 0-.1.1-.2.2-.3.1 0 .2.1.3.2 0 .7.1 1.3.1 1.9-.1.3-.2.4-.3.4zm-.2-2.9c-.1 0-.2-.1-.2-.2 0-.6 0-1.3-.1-2 0-.1.1-.2.2-.2s.2.1.2.2c0 .7 0 1.3.1 1.9.1.2 0 .3-.2.3zm0-2.9c-.1 0-.2-.1-.2-.2v-2c0-.1.1-.2.2-.2s.2.1.2.2v1.9c0 .2-.1.3-.2.3zm-.1-2.9c-.1 0-.2-.1-.2-.2v-1.9c0-.1.1-.2.2-.2s.2.1.2.2v1.9c.1 0 0 .1-.2.2zm0-3c-.1 0-.2-.1-.2-.2v-2c0-.1.1-.2.2-.2s.2.1.2.2v1.9c.1.2 0 .3-.2.3zm.1-2.9c-.1 0-.2-.1-.2-.3V359.7c0-.1.1-.2.2-.2s.2.1.2.2V361.6c0 .2-.1.3-.2.3zm0-2.9c-.1 0-.2-.1-.2-.2v-1.9c0-.1.1-.2.2-.3.1 0 .2.1.2.2v2c0 .1-.1.2-.2.2zm-.1-3c-.1 0-.2-.1-.2-.2 0-.7-.1-1.3-.1-1.9 0-.1.1-.3.2-.3s.3.1.3.2c0 .6.1 1.3.1 2 0 .1-.1.2-.3.2zm-.1-2.9c-.1 0-.2-.1-.2-.2 0-.7-.1-1.3-.2-1.9 0-.1.1-.3.2-.3s.3.1.3.2c.1.6.1 1.3.2 1.9-.1.2-.2.3-.3.3zm-.3-2.9c-.1 0-.2-.1-.2-.2-.1-.7-.1-1.3-.2-1.9 0-.1.1-.3.2-.3s.3.1.3.2c.1.6.2 1.3.2 1.9 0 .2-.1.3-.3.3zm-.3-2.9c-.1 0-.2-.1-.2-.2-.1-.7-.2-1.3-.3-1.9 0-.1.1-.3.2-.3.2 0 .3.1.3.2.1.6.2 1.3.3 1.9-.1.2-.2.3-.3.3zm-.5-2.9c-.1 0-.2-.1-.2-.2-.1-.7-.2-1.3-.3-1.9 0-.1.1-.3.2-.3s.3.1.3.2c.1.6.2 1.3.3 1.9 0 .2-.1.3-.3.3zm-.5-2.9c-.1 0-.2-.1-.2-.2-.1-.7-.3-1.3-.4-1.9 0-.1.1-.3.2-.3s.3.1.3.2c.1.6.3 1.3.4 1.9 0 .2-.1.3-.3.3zm-.6-2.8c-.1 0-.2-.1-.2-.2-.1-.7-.3-1.3-.5-1.9 0-.1 0-.3.2-.3.1 0 .3 0 .3.2.2.6.3 1.2.5 1.9 0 .1-.1.2-.3.3zm-.7-2.9c-.1 0-.2-.1-.2-.2-.2-.7-.3-1.3-.5-1.9 0-.1 0-.3.2-.3.1 0 .3 0 .3.2.2.6.3 1.2.5 1.9 0 .1-.1.3-.3.3zm-.8-2.8c-.1 0-.2-.1-.2-.2-.2-.7-.4-1.3-.6-1.9 0-.1 0-.3.2-.3.1 0 .3 0 .3.2.2.6.4 1.2.6 1.9 0 .1-.1.3-.3.3zm-.9-2.8c-.1 0-.2-.1-.2-.2-.2-.7-.4-1.3-.6-1.8 0-.1 0-.3.1-.3s.3 0 .3.1c.2.5.4 1.2.6 1.8.1.2 0 .4-.2.4.1 0 0 0 0 0zm-1-2.7c-.1 0-.2-.1-.2-.2-.4-1.2-.7-1.8-.7-1.8-.1-.1 0-.3.1-.3.1-.1.3 0 .3.1 0 0 .3.7.7 1.8.1.1 0 .3-.2.4.1-.1.1 0 0 0zM85.6 401c-.1 0-.2-.1-.2-.2l-.1-1.4c0-.1.1-.3.2-.3s.2.1.2.2l.1 1.4c0 .2-.1.3-.2.3zm-.2-2.4c-.1 0-.2-.1-.2-.2 0-.6-.1-1.3-.1-1.9 0-.1.1-.3.2-.3s.3.1.3.2c0 .6.1 1.3.1 1.9 0 .2-.1.3-.3.3zm-.2-2.9c-.1 0-.2-.1-.2-.2 0-.6-.1-1.3-.1-1.9 0-.1.1-.3.2-.3s.3.1.3.2c0 .7.1 1.3.1 1.9 0 .2-.1.3-.3.3zm-.2-2.9c-.1 0-.2-.1-.2-.2 0-.6-.1-1.3-.1-1.9 0-.1.1-.2.2-.3.1 0 .2.1.2.2 0 .7.1 1.3.1 1.9.1.2 0 .3-.2.3zm-.1-2.9c-.1 0-.2-.1-.2-.2 0-.6-.1-1.3-.1-1.9 0-.1.1-.2.2-.3.1 0 .2.1.3.2 0 .7.1 1.3.1 1.9-.1.2-.2.3-.3.3zm-.2-2.9c-.1 0-.2-.1-.2-.2 0-.6 0-1.3-.1-2 0-.1.1-.2.2-.3.1 0 .2.1.2.2 0 .7 0 1.3.1 1.9.1.2 0 .4-.2.4.1 0 .1 0 0 0zm0-3c-.1 0-.2-.1-.2-.2v-2c0-.1.1-.2.2-.2s.2.1.2.2v1.9c0 .2-.1.3-.2.3zm-.1-2.9c-.1 0-.2-.1-.2-.2v-2c0-.1.1-.2.2-.2s.2.1.2.2v1.9c0 .2-.1.3-.2.3zm0-2.9c-.1 0-.2-.1-.2-.2v-2c0-.1.1-.2.2-.2s.2.1.2.2v1.9c0 .2-.1.3-.2.3zm0-2.9c-.1 0-.2-.1-.2-.2v-2c0-.1.1-.2.2-.2s.2.1.2.2v1.9c0 .1-.1.3-.2.3zm0-3c-.1 0-.2-.1-.2-.2v-2c0-.1.1-.2.2-.2s.2.1.2.2v2c0 .1-.1.2-.2.2zm0-2.9c-.1 0-.2-.1-.2-.2v-2c0-.1.1-.2.2-.2s.2.1.2.2v1.9c0 .2-.1.3-.2.3zm0-2.9c-.1 0-.2-.1-.2-.2v-2c0-.1.1-.2.2-.2s.2.1.2.2v1.9c.1.2 0 .3-.2.3zm.1-2.9c-.1 0-.2-.1-.2-.2v-1.9c0-.1.1-.2.2-.2s.2.1.2.2v1.9s-.1.2-.2.2zm0-3c-.1 0-.2-.1-.2-.2v-1.9c0-.1.1-.2.2-.2s.2.1.2.2v1.9c.1.1 0 .2-.2.2zm0-2.9c-.1 0-.2-.1-.2-.2 0-.7 0-1.3-.1-1.9 0-.1.1-.2.2-.3.1 0 .2.1.3.2 0 .6 0 1.3.1 2 0 .1-.1.2-.3.2zm-.1-2.9c-.1 0-.2-.1-.2-.2 0-.7-.1-1.3-.1-1.9 0-.1.1-.3.2-.3.2 0 .3.1.3.2 0 .6.1 1.3.1 2 0 .1-.1.2-.3.2zm-.2-2.9c-.1 0-.2-.1-.2-.2-.1-.7-.1-1.3-.2-1.9 0-.1.1-.3.2-.3s.3.1.3.2c.1.6.1 1.3.2 1.9 0 .1-.1.2-.3.3zm-.2-3c-.1 0-.2-.1-.2-.2-.1-.7-.2-1.3-.2-1.9 0-.1.1-.3.2-.3.2 0 .3.1.3.2.1.6.2 1.3.2 1.9-.1.2-.2.3-.3.3zm-.4-2.9c-.1 0-.2-.1-.2-.2-.1-.7-.2-1.3-.3-1.9 0-.1.1-.3.2-.3s.3.1.3.2c.1.6.2 1.3.3 1.9-.1.2-.1.3-.3.3zm-.5-2.9c-.1 0-.2-.1-.2-.2-.1-.7-.2-1.3-.3-1.9 0-.1.1-.3.2-.3s.3.1.3.2c.1.6.2 1.3.3 1.9 0 .2-.1.3-.3.3.1 0 .1 0 0 0zm-.5-2.8c-.1 0-.2-.1-.2-.2-.1-.7-.3-1.3-.4-1.9 0-.1.1-.3.2-.3s.3.1.3.2c.1.6.3 1.3.4 1.9 0 .1-.1.2-.3.3zm-.6-2.9c-.1 0-.2-.1-.2-.2-.1-.7-.3-1.3-.4-1.9 0-.1 0-.3.2-.3.1 0 .3 0 .3.2.2.6.3 1.3.4 1.9 0 .1-.1.3-.3.3.1 0 0 0 0 0zm-.7-2.8c-.1 0-.2-.1-.2-.2-.2-.7-.3-1.3-.5-1.9 0-.1 0-.3.2-.3.1 0 .3 0 .3.2.2.6.3 1.2.5 1.9 0 .1-.1.2-.3.3.1-.1.1 0 0 0zm-.7-2.9c-.1 0-.2-.1-.2-.2-.2-.7-.4-1.3-.5-1.9 0-.1 0-.3.2-.3.1 0 .3 0 .3.2.2.6.4 1.2.5 1.9 0 .1-.1.3-.3.3zm-.8-2.8c-.1 0-.2-.1-.2-.2-.2-.7-.4-1.3-.6-1.9 0-.1 0-.3.2-.3.1 0 .3 0 .3.2.2.5.4 1.2.6 1.9-.1.1-.1.3-.3.3zm-1-2.8c-.1 0-.2-.1-.2-.2-.4-1.2-.7-1.8-.7-1.8 0-.1 0-.3.1-.3.1-.1.3 0 .3.1 0 0 .3.7.7 1.8.1.2 0 .4-.2.4.1 0 .1 0 0 0zM182.5 454.5c0 .1.1.2.3.2.1 0 .3-.1.3-.2v-1.9c0-.1-.1-.2-.3-.2-.1 0-.3.1-.3.2v1.9zM183 408.7c-.1 0-.3.1-.3.2V410.8c0 .1.1.2.3.2.1 0 .3-.1.3-.2V408.9c0-.1-.1-.2-.3-.2zM182.9 405.8c-.2 0-.3.1-.3.3 0 .6.1 1.3.1 1.9 0 .1.1.2.3.2.1 0 .3-.1.3-.3 0-.7-.1-1.3-.1-1.9 0-.1-.1-.2-.3-.2zM182.6 440c0 .1.1.2.3.2.1 0 .3-.1.3-.2v-1.9c0-.1-.1-.2-.3-.2-.1 0-.3.1-.3.2v1.9zM182.7 425.4c0 .1.1.2.3.2.1 0 .3-.1.3-.2v-1.9h-.6v1.9zM182.7 422.5c0 .1.1.2.3.2.1 0 .3-.1.3-.2v-1.9h-.6v1.9zM182.7 428.4c0 .1.1.2.3.2.1 0 .3-.1.3-.2v-1.9h-.6v1.9zM182.7 431.3c0 .1.1.2.3.2.1 0 .3-.1.3-.2v-1.9h-.6v1.9zM182.8 416.7c0 .1.1.2.3.2.1 0 .3-.1.3-.2v-1.9h-.6v1.9zM183.1 414.1c.1 0 .3-.1.3-.2V412c0-.1-.1-.2-.3-.2-.1 0-.3.1-.3.2v1.9c0 .1.1.2.3.2zM182.8 419.6c0 .1.1.2.3.2.1 0 .3-.1.3-.2v-1.9h-.6v1.9zM182.6 434.2c0 .1.1.2.3.2.1 0 .3-.1.3-.2v-1.9c0-.1-.1-.2-.3-.2-.1 0-.3.1-.3.2v1.9zM182.5 445.8c0 .1.1.2.3.2.1 0 .3-.1.3-.2v-1.9c0-.1-.1-.2-.3-.2-.1 0-.3.1-.3.2v1.9zM182.6 442.9c0 .1.1.2.3.2.1 0 .3-.1.3-.2V441c0-.1-.1-.2-.3-.2-.1 0-.3.1-.3.2v1.9zM182.5 448.7c0 .1.1.2.3.2.1 0 .3-.1.3-.2v-1.9c0-.1-.1-.2-.3-.2-.1 0-.3.1-.3.2v1.9zM182.4 403.2c.1.6.1 1.3.2 1.9 0 .1.1.2.3.2.1 0 .3-.1.2-.3 0-.6-.1-1.3-.2-1.9 0-.1-.2-.2-.3-.2-.1 0-.2.2-.2.3zM182.6 437.1c0 .1.1.2.3.2.1 0 .3-.1.3-.2v-1.9c0-.1-.1-.2-.3-.2-.1 0-.3.1-.3.2v1.9zM182.5 451.6c0 .1.1.2.3.2.1 0 .3-.1.3-.2v-1.9c0-.1-.1-.2-.3-.2-.1 0-.3.1-.3.2v1.9zM182.1 400.3c.1.6.2 1.3.2 1.9 0 .1.1.2.3.2.1 0 .2-.1.2-.3-.1-.6-.2-1.3-.2-1.9 0-.1-.1-.2-.3-.2-.1.1-.2.2-.2.3zM169.5 450c0 .1.1.2.2.2s.2-.1.2-.2v-1.9h-.4v1.9zM169.5 458.7c0 .1.1.2.2.2s.2-.1.2-.2v-1.9c0-.1-.1-.2-.2-.2s-.2.1-.2.2v1.9zM169.5 455.8c0 .1.1.2.2.2s.2-.1.2-.2v-1.9c0-.1-.1-.2-.2-.2s-.2.1-.2.2v1.9zM169.5 452.9c0 .1.1.2.2.2s.2-.1.2-.2V451h-.4v1.9zM169.9 415.2c.1 0 .2-.1.2-.2v-1.9c0-.1-.1-.2-.2-.2s-.2.1-.2.2v2s.1.1.2.1zM169.6 420.8c0 .1.1.2.2.2s.2-.1.2-.2v-1.9c0-.1-.1-.2-.2-.2s-.2.1-.2.2v1.9zM169.6 423.7c0 .1.1.2.2.2s.2-.1.2-.2v-1.9c0-.1-.1-.2-.2-.2s-.2.1-.2.2v1.9zM169.9 409.8c-.1 0-.2.1-.2.3v1.9c0 .1.1.2.2.2s.2-.1.2-.2v-2c0-.1-.1-.2-.2-.2zM169.6 417.8c0 .1.1.2.2.2s.2-.1.2-.2v-1.9c0-.1-.1-.2-.2-.2s-.2.1-.2.2v1.9zM169.6 426.6c0 .1.1.2.2.2s.2-.1.2-.2v-1.9c0-.1-.1-.2-.2-.2s-.2.1-.2.2v1.9zM169.5 441.2c0 .1.1.2.2.2s.2-.1.2-.2v-1.9c0-.1-.1-.2-.2-.2s-.2.1-.2.2v1.9zM169.5 447c0 .1.1.2.2.2s.2-.1.2-.2v-1.9h-.4v1.9zM169.5 438.3c0 .1.1.2.2.2s.2-.1.2-.2v-1.9c0-.1-.1-.2-.2-.2s-.2.1-.2.2v1.9zM169.5 444.1c0 .1.1.2.2.2s.2-.1.2-.2v-1.9c0-.1-.1-.2-.2-.2s-.2.1-.2.2v1.9zM169.6 429.5c0 .1.1.2.2.2s.2-.1.2-.2v-1.9c0-.1-.1-.2-.2-.2s-.2.1-.2.2v1.9zM169.6 432.4c0 .1.1.2.2.2s.2-.1.2-.2v-1.9c0-.1-.1-.2-.2-.2s-.2.1-.2.2v1.9zM169.6 435.4c0 .1.1.2.2.2s.2-.1.2-.2v-1.9c0-.1-.1-.2-.2-.2s-.2.1-.2.2v1.9zM169.7 406.9c-.1 0-.2.1-.2.3 0 .6.1 1.3.1 1.9 0 .1.1.2.2.2s.2-.1.2-.3c0-.7-.1-1.3-.1-2 .1 0 0-.1-.2-.1zM168.4 398.5c.1.6.2 1.3.3 1.9 0 .1.1.2.2.2s.2-.1.2-.3c-.1-.7-.2-1.3-.3-1.9 0-.1-.2-.2-.3-.2 0 0-.1.1-.1.3zM168.9 401.3c.1.6.2 1.3.2 1.9 0 .1.1.2.2.2s.2-.1.2-.3c-.1-.7-.2-1.3-.2-1.9 0-.1-.1-.2-.3-.2 0 .1-.1.2-.1.3zM169.3 404.2c.1.6.1 1.3.2 1.9 0 .1.1.2.2.2s.2-.1.2-.3c-.1-.7-.1-1.3-.2-1.9 0-.1-.1-.2-.3-.2-.1.1-.2.2-.1.3z" class="st1"/><path d="M182.9 453.9c0-.1-.1-.2-.2-.2s-.2.1-.2.2v1.9c0 .1.1.2.2.2s.2-.1.2-.2v-1.9zM182.9 456.8c0-.1-.1-.2-.2-.2s-.2.1-.2.2v1.9c0 .1.1.2.2.2s.2-.1.2-.2v-1.9zM182.5 451.4v1.5c0 .1.1.2.2.2s.2-.1.2-.2v-1.5h-.4zM169.4 464.6c0 .1.1.2.2.2s.2-.1.2-.2v-1.9c0-.1-.1-.2-.2-.2s-.2.1-.2.2v1.9zM169.5 461.6c0 .1.1.2.2.2s.2-.1.2-.2v-1.9c0-.1-.1-.2-.2-.2s-.2.1-.2.2v1.9zM169.9 467v-1.5c0-.1-.1-.2-.2-.2s-.2.1-.2.2v1.5h.4zM182.4 464.6c0 .1.1.2.2.2s.2-.1.2-.2v-1.9c0-.1-.1-.2-.2-.2s-.2.1-.2.2v1.9zM182.5 461.6c0 .1.1.2.2.2s.2-.1.2-.2v-1.9c0-.1-.1-.2-.2-.2s-.2.1-.2.2v1.9zM182.9 467v-1.5c0-.1-.1-.2-.2-.2s-.2.1-.2.2v1.5h.4z" class="st1"/><path d="M141.4 348.7s-22.7-23.9-21.9-38.6c.1-1.9 4.3-5.8 4.3-5.8l31.8 14.7 3.5.7" class="st24"/><path d="m159 319.8-17.1 27.5s-22.5-26.3-22.1-37.6c.3-8.3 21.9-31.6 20.6-23.9-3.3 18.5 18.6 34 18.6 34z" class="st26"/><path d="M142.3 343.5h-.1c-.1-.1-.1-.2-.1-.3l1-1.6c.1-.1.2-.1.3-.1.1.1.1.2.1.3l-1 1.6s-.1.1-.2.1zm-.6-.2c-.1 0-.1 0-.2-.1-.5-.5-.9-.9-1.3-1.4-.1-.1-.1-.3 0-.3.1-.1.2-.1.3 0 .4.5.9.9 1.3 1.4.1.1.1.3 0 .3 0 .1 0 .1-.1.1zm-2-2.1c-.1 0-.1 0-.2-.1-.4-.5-.9-1-1.3-1.5-.1-.1-.1-.3 0-.3.1-.1.3-.1.3 0 .4.5.9 1 1.3 1.4.1.1.1.3 0 .3 0 .2 0 .2-.1.2zm4.2-.2h-.1c-.1-.1-.1-.2-.1-.3l1-1.6c.1-.1.2-.1.3-.1.1.1.1.2.1.3l-1 1.6c-.1 0-.1.1-.2.1zm-6.2-2c-.1 0-.1 0-.2-.1-.4-.5-.9-1-1.3-1.5-.1-.1-.1-.3 0-.3.1-.1.3-.1.3 0 .4.5.8 1 1.3 1.5.1.1.1.3 0 .3.1.1 0 .1-.1.1zm7.8-.5h-.1c-.1-.1-.1-.2-.1-.3l1-1.6c.1-.1.2-.1.3-.1.1.1.1.2.1.3l-1 1.6c-.1.1-.2.1-.2.1zm-9.6-1.7c-.1 0-.1 0-.2-.1l-1.2-1.5c-.1-.1-.1-.3 0-.3.1-.1.3-.1.3 0l1.2 1.5c.1.1.1.3 0 .3 0 .1-.1.1-.1.1zm11.1-.8h-.1c-.1-.1-.1-.2-.1-.3l1-1.6c.1-.1.2-.1.3-.1.1.1.1.2.1.3l-1 1.6c0 .1-.1.1-.2.1zm-13-1.5c-.1 0-.1 0-.2-.1-.4-.5-.8-1-1.2-1.6-.1-.1-.1-.3.1-.3.1-.1.3-.1.3.1.4.5.8 1 1.2 1.6.1.1.1.3 0 .3h-.2zm14.6-.9h-.1c-.1-.1-.1-.2-.1-.3l1-1.6c.1-.1.2-.1.3-.1.1.1.1.2.1.3l-1 1.6s-.1.1-.2.1zm-16.3-1.4c-.1 0-.2 0-.2-.1-.4-.5-.8-1.1-1.1-1.6-.1-.1 0-.3.1-.3.1-.1.3-.1.3.1.4.5.7 1.1 1.1 1.6.1.1.1.3-.1.3 0-.1-.1 0-.1 0zm17.9-1.1h-.1c-.1-.1-.1-.2-.1-.3l1-1.6c.1-.1.2-.1.3-.1.1.1.1.2.1.3l-1 1.6c-.1.1-.2.1-.2.1zm-19.6-1.3c-.1 0-.2 0-.2-.1-.4-.6-.7-1.1-1.1-1.6-.1-.1 0-.3.1-.3.1-.1.3 0 .3.1.3.5.7 1.1 1.1 1.6.1.1 0 .3-.1.3h-.1zm21.1-1.2h-.1c-.1-.1-.1-.2-.1-.3l1-1.6c.1-.1.2-.1.3-.1.1.1.1.2.1.3l-1 1.6c0 .1-.1.1-.2.1zm-22.7-1.3c-.1 0-.2 0-.2-.1-.4-.6-.7-1.1-1-1.7-.1-.1 0-.3.1-.3.1-.1.3 0 .3.1.3.5.7 1.1 1 1.7.1.1 0 .3-.1.3h-.1zm24.3-1.1h-.1c-.1-.1-.1-.2-.1-.3l1-1.6c.1-.1.2-.1.3-.1.1.1.1.2.1.3l-1 1.6s-.1.1-.2.1zm-25.8-1.4c-.1 0-.2 0-.2-.1-.3-.6-.7-1.1-1-1.7-.1-.1 0-.3.1-.3.1-.1.3 0 .3.1.3.6.6 1.1 1 1.7.1.1 0 .3-.1.3h-.1zm27.4-1.1h-.1c-.1-.1-.1-.2-.1-.3l1-1.6c.1-.1.2-.1.3-.1.1.1.1.2.1.3l-1 1.6c-.1.1-.1.1-.2.1zm-28.8-1.4c-.1 0-.2 0-.2-.1-.3-.6-.6-1.2-.9-1.7-.1-.1 0-.3.1-.3.1-.1.3 0 .3.1.3.6.6 1.1.9 1.7.1.1 0 .3-.1.3h-.1zm-1.4-2.6c-.1 0-.2-.1-.2-.1-.3-.6-.6-1.2-.8-1.8-.1-.1 0-.3.1-.3.1-.1.3 0 .3.1.3.6.5 1.2.8 1.8.1.1 0 .3-.1.3 0-.1 0 0-.1 0zm-1.2-2.7c-.1 0-.2-.1-.2-.1-.3-.6-.5-1.2-.7-1.8 0-.1 0-.3.1-.3.1-.1.3 0 .3.1.2.6.5 1.2.7 1.8.1.1 0 .2-.2.3.1 0 0 0 0 0zm-1.1-2.7c-.1 0-.2-.1-.2-.2-.3-.7-.5-1.3-.6-1.9 0-.1 0-.3.2-.3.1 0 .3 0 .3.2.2.5.4 1.2.6 1.8 0 .2-.1.3-.3.4.1 0 0 0 0 0zm-.9-2.8c-.1 0-.2-.1-.2-.2-.4-1.2-.5-1.9-.5-1.9 0-.1.1-.3.2-.3s.3.1.3.2c0 0 .1.7.5 1.9 0 .1-.1.3-.3.3z" class="st1"/><path d="M269.9 118.6s11.7 65.2 7.9 109.2-15.4 72.5-19.6 90c-4.2 17.5-11.8 41.6-6 49.8 5.8 8.2 13.4 5 13.4 5s-23.6 20.7-35.6-2.3-13.5-61.6 8.2-90.5" class="st5"/><path d="M265.7 132.3c3.8 18.6 7.7 36.9 7.5 56-.1 5.7 3 57.5 2.9 77.8-5.1.7-1.5 6.7-4.9 9.5.3-54.7 2.8-109-14-161.2-.3 2.1-.4 4.2 0 6.1 6.4 26.8 8.5 54.2 10.7 81.6 1.8 22-.6 44-2.1 65.9-.6 8.9 1.1 18.4-2.8 27 0-1.8 0-3.6-.1-5.4.6-5.6-.3-11-2.9-18.2.1 7.5-2.7 12.5-1.8 18.2v16c-2.7 2.5-1.3 6-1.7 9-.6 4.2 1.5 8.8-1.7 12.5 0-9.5 0-19.1-.1-28.6-.4-4.2 1.8-20.7 1.6-23.4-.5-2.9 1.8-10.2 1.6-12.5 0-3.6 1.7-14.1 1.6-16.1 0-14.3 0-28.5.1-42.8-1.1-28.3-5-56.2-8.8-84.2-3-21.8-10.5-42-17.2-62.5 6.4 1.1 8.1 6.9 10.4 12.2 1.7 3 18.9 49.2 21.7 63.1z" class="st7"/><path d="M252.9 374.9c9.2-19.2 11.3-42.2 2.5-61.8-7.2-16.5-13-34.6-11.4-53 .7-5.7 2.1-12.1 6.2-16.3-4.2 9.6-1.3 22.8 1 32.6 2.7 10.7 6.5 21.2 10.5 31.7 2.2 5.5 4.1 11.3 4.8 17.2 2.6 17.5-2.4 36.1-13.6 49.6z" class="st7"/><path d="M244.9 362.6c-4.1-10.8-8.8-21.1-13.1-31.9-4.5-11.1-3.9-23.9-.3-35.1 2.1-7 5-13.5 7.5-20.3 1.4-3.9 1.9-7.9 2.2-12 .7-11.2.5-23.2 2.2-34.3.2 5.8.5 11.5.9 17.2.5 9.4 1.7 19.1-.4 28.4-1 3.9-3.6 10.6-5 14.4-13.2 34.3.1 41.5 6 73.6z" class="st6"/><path d="M204.1 343c13.9-13 22.5-32 19.6-51.1-2.3-17.8-3-40.5 8.4-55.6 1.7-2 3.7-4 6.2-4.9-1.9 1.7-3.1 4-4.1 6.2-2.9 6.8-3.7 14.2-4.1 21.6-.5 9.9.2 19.8 1.1 29.8.5 5.3.7 10.9-.2 16.2-2.5 15.9-12.9 30.3-26.9 37.8z" class="st7"/><path d="M275.2 402.4c.1-.5 4.8-13.6 1-39.2-3.7-24.7 1.8-38 1.8-38.2l-7-4c-.2.8-4.4 17.4-.6 43 3.6 24.5 3.5 36.6 3.5 36.7l1.3 1.7z" class="st30"/><path d="M274.7 401c-.2 0-.3-.2-.2-.3.1-.5.2-1.1.4-1.7 0-.1.1-.2.3-.2.1 0 .2.1.2.3-.1.6-.2 1.2-.4 1.8-.1 0-.2 0-.3.1zm.5-2.7c-.2 0-.3-.1-.2-.3.1-.6.2-1.1.2-1.8 0-.1.1-.2.2-.2s.2.1.2.2c-.1.6-.2 1.2-.2 1.8 0 .2-.1.3-.2.3zm.4-2.6s-.1 0 0 0c-.2 0-.3-.1-.2-.2.1-.6.1-1.2.2-1.8 0-.1.1-.2.2-.2s.2.1.2.2c-.1.6-.1 1.2-.2 1.8 0 .1-.1.1-.2.2zm.2-2.7c-.2 0-.3-.1-.3-.2 0-.6.1-1.2.1-1.8 0-.1.1-.2.2-.2s.2.1.2.2c0 .6-.1 1.2-.1 1.8.1.1 0 .2-.1.2zm.2-2.7s-.1 0 0 0c-.2 0-.3-.1-.2-.2 0-.6 0-1.2.1-1.8 0-.1.1-.2.2-.2s.2.1.2.2c0 .6 0 1.2-.1 1.8 0 .1-.1.2-.2.2zm.1-2.7c-.1 0-.1 0 0 0-.2 0-.3-.1-.3-.2v-1.8c0-.1.1-.2.2-.2s.2.1.2.2v1.8c.1.1 0 .2-.1.2zm0-2.7c-.2 0-.3-.1-.3-.2v-1.8c0-.1.1-.2.2-.2s.2.1.2.2v1.8c.1.1 0 .2-.1.2zm0-2.7c-.1 0-.2-.1-.2-.2v-1.8c0-.1.1-.2.2-.2s.2.1.2.2v1.8c0 .1-.1.2-.2.2zm-.1-2.6c-.1 0-.2-.1-.2-.2 0-.6 0-1.2-.1-1.8 0-.1.1-.2.2-.2s.2.1.2.2c0 .6 0 1.2.1 1.8l-.2.2zm-.1-2.7c-.1 0-.2-.1-.3-.2 0-.6-.1-1.2-.1-1.8 0-.1.1-.2.2-.2s.2.1.2.2c0 .6.1 1.2.1 1.8.1.1 0 .2-.1.2zm-.1-2.7c-.1 0-.2-.1-.3-.2 0-.6-.1-1.2-.1-1.8 0-.1.1-.2.2-.2s.2.1.2.2c0 .6.1 1.2.1 1.8.1.1 0 .2-.1.2zm-.2-2.7c-.1 0-.2-.1-.3-.2 0-.6-.1-1.2-.1-1.8 0-.1.1-.2.2-.2s.2.1.2.2c0 .6.1 1.2.1 1.8.1.1 0 .2-.1.2zm-.2-2.7c-.1 0-.2-.1-.2-.2-.1-.6-.1-1.2-.2-1.8 0-.1.1-.2.2-.2s.2.1.2.2c.1.6.1 1.2.2 1.8 0 .1-.1.2-.2.2zm-.3-2.7s0 .1 0 0c-.1 0-.2-.1-.2-.2-.1-.6-.1-1.2-.2-1.8 0-.1.1-.2.2-.2s.2.1.2.2c.1.6.1 1.2.2 1.8.1.1 0 .2-.2.2zm-.2-2.6c-.1 0-.2-.1-.2-.2l-.1-1.1-.1-.6c0-.1.1-.2.2-.2s.2.1.2.2l.1.6.1 1.1c0 .1-.1.2-.2.2zm-.4-2.7c-.1 0-.2-.1-.2-.2-.1-.6-.2-1.2-.2-1.8 0-.1.1-.2.2-.3.1 0 .2.1.2.2.1.6.2 1.2.2 1.8 0 .2 0 .3-.2.3zm-.3-2.7c-.1 0-.2-.1-.2-.2v-.3c-.1-.5-.1-1-.2-1.5 0-.1.1-.2.2-.2s.2.1.2.2c.1.5.1 1 .2 1.5v.3c0 .1-.1.2-.2.2zm-.4-2.6c-.1 0-.2-.1-.2-.2-.1-.6-.1-1.2-.2-1.8 0-.1.1-.2.2-.2s.2.1.2.2c.1.6.1 1.2.2 1.8 0 .1 0 .2-.2.2zm-.2-2.7c-.1 0-.2-.1-.2-.2 0-.6-.1-1.2-.1-1.8 0-.1.1-.2.2-.2s.2.1.2.2c0 .6.1 1.2.1 1.8 0 .1-.1.2-.2.2zm-.2-2.7c-.1 0-.2-.1-.3-.2 0-.6-.1-1.2-.1-1.8 0-.1.1-.2.2-.2s.2.1.2.2c0 .6 0 1.2.1 1.8.1.1 0 .2-.1.2zm-.1-2.7c-.1 0-.2-.1-.2-.2v-1.8c0-.1.1-.2.2-.2s.2.1.2.2v1.8c0 .1-.1.2-.2.2zm0-2.6c-.2 0-.3-.1-.3-.2v-1.8c0-.1.1-.2.2-.2s.2.1.2.2v1.8c.1.1 0 .1-.1.2zm.1-2.7c-.2 0-.3-.1-.2-.2 0-.6.1-1.2.1-1.8 0-.1.1-.2.2-.2s.2.1.2.2c0 .6-.1 1.2-.1 1.8 0 .1-.1.2-.2.2zm.2-2.7s-.1 0 0 0c-.2 0-.3-.1-.3-.2 0-.6.1-1.2.2-1.8 0-.1.1-.2.2-.2s.2.1.2.2c-.1.6-.1 1.2-.2 1.8.1.1 0 .2-.1.2zm.2-2.7c-.2 0-.3-.1-.2-.2.1-.6.1-1.2.2-1.8 0-.1.1-.2.2-.2s.2.1.2.3c-.1.6-.1 1.2-.2 1.8 0 0-.1.1-.2.1zm.3-2.7c0 .1 0 .1 0 0-.2 0-.3-.1-.2-.3l.3-1.8c0-.1.1-.2.3-.2.1 0 .2.1.2.3l-.3 1.8c-.1.2-.2.2-.3.2zm.4-2.6c-.2 0-.3-.1-.2-.3l.3-1.8c0-.1.1-.2.3-.2.1 0 .2.1.2.3-.1.5-.2 1.1-.3 1.8-.1.1-.2.2-.3.2zm.5-2.6c-.2 0-.3-.1-.2-.3.1-.7.3-1.2.4-1.8 0-.1.1-.2.3-.2.1 0 .2.1.2.3-.1.5-.2 1.1-.4 1.7-.1.2-.2.2-.3.3zm.6-2.7c-.2 0-.3-.2-.2-.3.3-1.1.5-1.7.5-1.7 0-.1.2-.2.3-.1.1 0 .2.2.1.3 0 0-.2.6-.5 1.7 0 .1-.1.1-.2.1zM274.4 394.3c-.1 0-.2-.1-.3-.2l-.1-1.3c0-.1.1-.2.2-.2s.2.1.2.2l.1 1.3c.1 0 0 .1-.1.2zm-.1-2.2c-.1 0-.2-.1-.3-.2 0-.6-.1-1.2-.1-1.8 0-.1.1-.2.2-.2s.2.1.2.2c0 .6.1 1.2.1 1.8.1.1 0 .2-.1.2zm-.1-2.7c-.1 0-.2-.1-.3-.2 0-.6-.1-1.2-.1-1.8 0-.1.1-.2.2-.2s.2.1.2.2c0 .6.1 1.2.1 1.8.1.1 0 .2-.1.2zm-.2-2.7c-.1 0-.2-.1-.3-.2 0-.6-.1-1.2-.1-1.8 0-.1.1-.2.2-.2s.2.1.2.2c0 .6.1 1.2.1 1.8.1.1.1.2-.1.2zm-.1-2.6c-.1 0-.2-.1-.3-.2 0-.6-.1-1.2-.1-1.8 0-.1.1-.2.2-.2s.2.1.2.2c0 .6.1 1.2.1 1.8.1 0 0 .1-.1.2zm-.2-2.7c-.1 0-.1 0 0 0-.1 0-.2-.1-.2-.2 0-.6-.1-1.2-.2-1.8 0-.1.1-.2.2-.2s.2.1.2.2c.1.6.1 1.2.2 1.8 0 .1-.1.2-.2.2zm-.3-2.7c-.1 0-.2-.1-.2-.2-.1-.6-.1-1.2-.2-1.8 0-.1.1-.2.2-.2s.2.1.2.2c.1.6.1 1.2.2 1.8 0 .1-.1.2-.2.2zm-.3-2.7c-.1 0-.2-.1-.2-.2-.1-.6-.1-1.2-.2-1.8 0-.1.1-.2.2-.2s.2.1.2.2c.1.6.1 1.2.2 1.8.1.1 0 .2-.2.2zm-.2-2.6c-.1 0-.2-.1-.2-.2-.1-.6-.1-1.2-.2-1.8 0-.1.1-.2.2-.2s.2.1.2.2c.1.6.1 1.2.2 1.8l-.2.2zm-.4-2.7c-.1 0-.2-.1-.2-.2-.1-.6-.1-1.2-.2-1.8 0-.1.1-.2.2-.2s.2.1.2.2c.1.6.1 1.2.2 1.8.1.1 0 .2-.2.2zm-.3-2.7c-.1 0-.2-.1-.2-.2l-.2-1.8c0-.1.1-.2.2-.3.1 0 .2.1.2.2l.2 1.8c0 .2-.1.3-.2.3zm-.3-2.6c-.1 0-.2-.1-.2-.2l-.2-1.8c0-.1.1-.2.2-.3.1 0 .2.1.3.2l.2 1.8-.3.3zm-.4-2.7c-.1 0-.2-.1-.2-.2-.1-.6-.2-1.2-.2-1.8 0-.1.1-.2.2-.3.1 0 .2.1.2.2.1.6.2 1.2.2 1.8 0 .2-.1.3-.2.3zm-.4-2.7c-.1 0-.2-.1-.2-.2l-.3-1.8.4-.1.3 1.8c.1.2 0 .3-.2.3.1 0 .1 0 0 0zm-.3-2.6c-.1 0-.2-.1-.2-.2 0-.3-.1-.6-.1-1 0-.3-.1-.6-.1-.8 0-.1.1-.2.2-.2s.2.1.2.2c0 .3.1.5.1.8 0 .3.1.6.1.9 0 .2-.1.3-.2.3zm-.3-2.7c-.1 0-.2-.1-.2-.2-.1-.6-.1-1.2-.2-1.8 0-.1.1-.2.2-.2s.2.1.2.2c0 .6.1 1.2.2 1.8 0 .1-.1.2-.2.2zm-.3-2.7c-.1 0-.2-.1-.3-.2 0-.6-.1-1.2-.1-1.8 0-.1.1-.2.2-.2s.2.1.2.2c0 .6.1 1.2.1 1.8.2.1.1.2-.1.2zm-.1-2.6c-.1 0-.2-.1-.3-.2v-1.8c0-.1.1-.2.2-.2s.2.1.2.2c0 .6 0 1.2.1 1.8l-.2.2zm-.1-2.7c-.1 0-.2-.1-.2-.2v-1.8c0-.1.1-.2.2-.2s.2.1.2.2v1.8c0 .1 0 .2-.2.2zm.1-2.7c-.1 0-.1 0 0 0-.2 0-.3-.1-.3-.2 0-.6 0-1.2.1-1.8 0-.1.1-.2.2-.2s.2.1.2.2c0 .6 0 1.2-.1 1.8.1.1 0 .2-.1.2zm0-2.7c-.2 0-.3-.1-.2-.2 0-.6.1-1.2.1-1.8 0-.1.1-.2.2-.2s.2.1.2.2c0 .6-.1 1.2-.1 1.8 0 .1 0 .2-.2.2zm.2-2.7c-.2 0-.3-.1-.3-.2 0-.6.1-1.2.1-1.8 0-.1.1-.2.2-.2s.2.1.2.2c-.1.6-.1 1.2-.1 1.8.1.1 0 .2-.1.2zm.2-2.7c-.2 0-.3-.1-.2-.2.1-.6.1-1.2.2-1.8 0-.1.1-.2.2-.2s.2.1.2.2c-.1.6-.1 1.2-.2 1.8 0 .1-.1.2-.2.2zm.3-2.6c-.2 0-.3-.1-.2-.3.1-.6.2-1.2.2-1.8 0-.1.1-.2.3-.2.1 0 .2.1.2.3-.1.6-.2 1.2-.2 1.8-.1.1-.2.2-.3.2zm.4-2.7c-.2 0-.3-.1-.2-.3l.3-1.8c0-.1.1-.2.3-.2.1 0 .2.1.2.3-.1.6-.2 1.1-.3 1.8-.1.1-.2.2-.3.2zm.5-2.6s-.1 0 0 0c-.2 0-.3-.1-.2-.3.1-.7.2-1.2.3-1.8 0-.1.1-.2.3-.2.1 0 .2.1.2.3-.1.5-.2 1.1-.3 1.8-.1.1-.2.1-.3.2zm.5-2.7c-.2 0-.3-.1-.2-.3.2-1.1.4-1.8.4-1.8 0-.1.2-.2.3-.2.1 0 .2.2.2.3 0 0-.2.6-.4 1.7-.1.2-.2.3-.3.3zM269.7 373.4c-.1 0-.2-.1-.2-.2s.1-.2.2-.2h1.8c.1 0 .2.1.2.2s-.1.2-.2.2h-1.8z" class="st1"/><path d="M204.5 427.9c0 2.6 2.1 4.6 4.6 4.6 2.6 0 4.6-2.1 4.6-4.6 0-2.6-2.1-4.6-4.6-4.6-2.6-.1-4.6 2-4.6 4.6z" class="st22"/><path d="M204.5 426.9c0 2.6 2.1 4.6 4.6 4.6 2.6 0 4.6-2.1 4.6-4.6 0-2.6-2.1-4.6-4.6-4.6-2.6-.1-4.6 2-4.6 4.6z" class="st23"/>
</svg>
