
<svg version="1.1" id="Layer_1" xmlns="http://www.w3.org/2000/svg" xmlns:xlink="http://www.w3.org/1999/xlink" x="0px" y="0px"
	 viewBox="0 0 578.9 578.9" style="enable-background:new 0 0 578.9 578.9;" xml:space="preserve">
<style type="text/css">
	.st0{fill:#1A84B6;}
	.st1{fill:#1A92C0;}
	.st2{fill:none;}
	.st3{fill:#60C3DB;}
	.st4{fill:#A7DEE6;}
	.st5{fill:#156B93;}
	.st6{fill:#FFFFFF;}
	.st7{fill:#74295F;}
	.st8{fill:#5E204D;}
	.st9{fill:#B765A5;}
	.st10{fill:#D8D7D7;}
	.st11{fill:#EFEFEF;}
</style>
<g>
	<g>
		<circle class="st0" cx="289.4" cy="289.5" r="289.5"/>
		<path class="st1" d="M37.5,147L520.4,464c36.7-48.6,58.5-109,58.5-174.5C579,129.6,449.4,0,289.4,0C181.4,0,87.2,59.3,37.5,147z"
			/>
	</g>
	<circle class="st2" cx="289.4" cy="289.5" r="289.5"/>
	<path class="st2" d="M289.4,0c159.8,0,289.5,129.6,289.5,289.5S449.3,578.9,289.4,578.9c-71.1,0-136.4-25.7-186.7-68.3
		c-3.1-2.6-6-5.2-9-7.9C36.1,449.8,0,373.8,0,289.5C0,129.6,129.6,0,289.4,0z"/>
</g>
<g>
	<path class="st3" d="M289.6,497.6h-0.1c-13.5,0-26.9-1.3-40-3.9l2.2-11.3c12.4,2.4,25.1,3.7,37.8,3.7L289.6,497.6z M329.7,493.7
		l-2.2-11.3c12.5-2.5,24.7-6.2,36.4-11.1l4.4,10.7C355.9,487.1,342.9,491.1,329.7,493.7z M210.8,482.1c-12.4-5.1-24.4-11.5-35.6-19
		l6.4-9.6c10.6,7.1,21.9,13.1,33.6,18L210.8,482.1z M403.9,462.9l-6.4-9.6c10.5-7.1,20.5-15.2,29.4-24.2l8.2,8.2
		C425.6,446.8,415.1,455.4,403.9,462.9z M144,437.4c-9.5-9.5-18.2-20-25.6-31.2l9.6-6.4c7.1,10.5,15.2,20.4,24.2,29.4L144,437.4z
		 M460.7,406.1l-9.6-6.4c7.1-10.6,13.1-21.9,18-33.6l10.7,4.4C474.6,382.9,468.2,394.9,460.7,406.1z M99.2,370.7
		c-5.2-12.4-9.1-25.4-11.7-38.6l11.3-2.3c2.5,12.5,6.2,24.7,11.1,36.4L99.2,370.7z M491.5,331.9l-11.3-2.2
		c2.5-12.4,3.7-25.2,3.7-37.9v-0.5h11.5v0.5C495.4,305.2,494.1,318.7,491.5,331.9z M95.1,291.9H83.5v-0.2c0-13.4,1.3-26.9,3.9-39.9
		l11.3,2.2c-2.4,12.3-3.7,25-3.7,37.7V291.9z M480,253.3c-2.5-12.5-6.2-24.7-11.1-36.4l10.7-4.4c5.2,12.4,9.1,25.4,11.8,38.6
		L480,253.3z M109.7,217.5L99,213.1c5.1-12.4,11.5-24.4,19-35.6l9.6,6.4C120.6,194.5,114.5,205.8,109.7,217.5z M450.9,183.4
		c-7.1-10.5-15.2-20.4-24.3-29.4l8.1-8.2c9.5,9.5,18.2,20,25.7,31.1L450.9,183.4z M151.8,154.4l-8.2-8.1c9.5-9.5,20-18.2,31.1-25.7
		l6.4,9.6C170.7,137.3,160.8,145.4,151.8,154.4z M397.1,129.8c-10.6-7.1-21.9-13.1-33.6-17.9l4.4-10.7c12.4,5.1,24.4,11.5,35.6,19
		L397.1,129.8z M214.8,112.2l-4.4-10.7c12.4-5.2,25.4-9.1,38.6-11.8l2.3,11.3C238.7,103.6,226.5,107.3,214.8,112.2z M327,100.9
		c-12.3-2.4-24.9-3.6-37.6-3.6h-0.3V85.8h0.3c13.4,0,26.8,1.3,39.8,3.8L327,100.9z"/>
</g>
<g>
	<polygon class="st4" points="245.2,135.9 233,130.2 249.8,95 214.6,78.2 220.4,66.1 267.7,88.6 	"/>
</g>
<g>
	<polygon class="st4" points="262.7,527.1 231.9,484.7 274.4,453.9 282.3,464.8 250.7,487.7 273.6,519.2 	"/>
</g>
<g>
	<path class="st5" d="M279.1,177.4H115.1c-3.1,0-5.6,2.5-5.6,5.6v231.5c0,3.1,2.5,5.6,5.6,5.6h157.3c6.7,0,12.2-5.5,12.2-12.2V183
		C284.6,179.9,282.1,177.4,279.1,177.4z"/>
	<path class="st5" d="M484.7,133.1H320.8c-3.1,0-5.6,2.5-5.6,5.6v195.6c0,3.1,2.5,5.6,5.6,5.6h156.5c7.2,0,13-5.8,13-13V138.7
		C490.2,135.6,487.7,133.1,484.7,133.1z"/>
	<path class="st5" d="M480.7,375.1H324.5c-5.2,0-9.4,4.2-9.4,9.4v70.1c0,5.2,4.2,9.4,9.4,9.4h156.2c5.2,0,9.4-4.2,9.4-9.4v-70.1
		C490.2,379.3,485.9,375.1,480.7,375.1z"/>
</g>
<path class="st6" d="M271.3,409.9H102c-1.6,0-2.9-1.3-2.9-2.9V170.1c0-1.6,1.3-2.9,2.9-2.9h169.3c1.6,0,2.9,1.3,2.9,2.9V407
	C274.2,408.6,272.9,409.9,271.3,409.9z"/>
<path class="st7" d="M476.9,329.6H307.6c-1.6,0-2.9-1.3-2.9-2.9V125.8c0-1.6,1.3-2.9,2.9-2.9h169.3c1.6,0,2.9,1.3,2.9,2.9v200.9
	C479.8,328.3,478.5,329.6,476.9,329.6z"/>
<path class="st7" d="M476.8,453.8H307.5c-1.6,0-2.9-1.3-2.9-2.9v-83.1c0-1.6,1.3-2.9,2.9-2.9h169.3c1.6,0,2.9,1.3,2.9,2.9v83.1
	C479.7,452.5,478.4,453.8,476.8,453.8z"/>
<path class="st8" d="M474.1,364.9H424v88.9h50.1c3.1,0,5.6-2.5,5.6-5.6v-77.8C479.7,367.4,477.2,364.9,474.1,364.9z"/>
<g>
	<rect x="342.4" y="401.7" class="st9" width="104.4" height="15.4"/>
</g>
<path class="st7" d="M268.6,167.2H104.7c-3.1,0-5.6,2.5-5.6,5.6v43.8h175v-43.8C274.2,169.7,271.7,167.2,268.6,167.2z"/>
<g>
	<rect x="135.2" y="258" class="st10" width="95.3" height="16"/>
</g>
<g>
	<rect x="135.2" y="303.8" class="st10" width="95.3" height="16"/>
</g>
<g>
	<rect x="135.2" y="349.7" class="st10" width="63.3" height="16"/>
</g>
<path class="st8" d="M304.7,218.3V324c0,3.1,2.5,5.6,5.6,5.6h163.9c3.1,0,5.6-2.5,5.6-5.6v-85L304.7,218.3z"/>
<g>
	<path class="st8" d="M462.1,232.6c0.3-2.3,0.4-4.7,0.4-7.1c0-2.4-0.2-4.7-0.4-7.1l-13.8-4.9c-1.2-4.7-3.1-9.2-5.5-13.3l6.3-13.2
		c-3-3.7-6.3-7.1-10.1-10l-13.2,6.3c-4.1-2.4-8.5-4.3-13.2-5.4l-4.9-13.7c-2.3-0.3-4.7-0.4-7.1-0.4s-4.8,0.2-7.1,0.4l-4.9,13.7
		c-4.7,1.2-9.1,3-13.2,5.4l-13.2-6.3c-3.7,2.9-7.1,6.3-10.1,10l6.3,13.2c-2.5,4.1-4.4,8.6-5.5,13.3l-13.8,4.9
		c-0.3,2.3-0.4,4.7-0.4,7.1s0.2,4.7,0.4,7.1l13.8,4.9c1.2,4.7,3.1,9.2,5.5,13.3l-6.3,13.2c3,3.7,6.3,7.1,10.1,10l13.2-6.3
		c4.1,2.4,8.5,4.3,13.2,5.4l4.9,13.7c2.3,0.3,4.7,0.4,7.1,0.4s4.8-0.2,7.1-0.4l4.9-13.7c4.7-1.2,9.1-3,13.2-5.4L439,274
		c3.7-2.9,7.1-6.3,10.1-10l-6.3-13.2c2.5-4.1,4.4-8.6,5.5-13.3L462.1,232.6z M400.6,247.4c-12.1,0-21.8-9.8-21.8-21.8
		c0-12.1,9.8-21.8,21.8-21.8c12.1,0,21.8,9.8,21.8,21.8C422.5,237.6,412.7,247.4,400.6,247.4z"/>
</g>
<g>
	<path class="st11" d="M455.6,229.2c0.3-2.2,0.4-4.5,0.4-6.8s-0.1-4.6-0.4-6.8l-13.3-4.7c-1.2-4.6-3-8.9-5.4-12.9l6-12.7
		c-2.9-3.6-6.1-6.8-9.7-9.7l-12.7,6.1c-3.9-2.3-8.2-4.1-12.7-5.3l-4.7-13.3c-2.3-0.3-4.6-0.4-6.9-0.4s-4.6,0.1-6.9,0.4l-4.7,13.3
		c-4.5,1.1-8.8,2.9-12.7,5.3l-12.7-6.1c-3.6,2.8-6.9,6.1-9.7,9.7l6,12.7c-2.4,4-4.2,8.3-5.4,12.9l-13.3,4.7
		c-0.3,2.2-0.4,4.5-0.4,6.8c0,2.3,0.1,4.6,0.4,6.8l13.3,4.7c1.2,4.6,3,8.9,5.4,12.9l-6,12.7c2.9,3.6,6.1,6.8,9.7,9.7l12.7-6.1
		c3.9,2.3,8.2,4.1,12.7,5.3l4.7,13.3c2.3,0.3,4.6,0.4,6.9,0.4s4.6-0.1,6.9-0.4l4.7-13.3c4.5-1.1,8.8-2.9,12.7-5.3l12.7,6.1
		c3.6-2.8,6.9-6.1,9.7-9.7l-6-12.7c2.4-4,4.2-8.3,5.4-12.9L455.6,229.2z M396.1,243.5c-11.7,0-21.1-9.5-21.1-21.1
		c0-11.7,9.5-21.1,21.1-21.1c11.7,0,21.1,9.5,21.1,21.1C417.2,234.1,407.8,243.5,396.1,243.5z"/>
</g>
<path class="st8" d="M246.6,203.8h-12.4c-3.7,0-6.7-3-6.7-6.7v-12.4c0-3.7,3-6.7,6.7-6.7h12.4c3.7,0,6.7,3,6.7,6.7V197
	C253.3,200.7,250.3,203.8,246.6,203.8z"/>
<path class="st10" d="M415.3,231.1c-3.3,7.3-10.7,12.4-19.2,12.4c-10.4,0-19-7.5-20.8-17.4l-39.1-4.8c0,0.4,0,0.8,0,1.1
	c0,2.3,0.1,4.6,0.4,6.8l13.3,4.7c1.2,4.6,3,8.9,5.4,12.9l-6,12.7c2.9,3.6,6.1,6.8,9.7,9.7l12.7-6.1c3.9,2.3,8.2,4.1,12.7,5.3
	l4.7,13.3c2.3,0.3,4.6,0.4,6.9,0.4c2.3,0,4.6-0.1,6.9-0.4l4.7-13.3c4.5-1.1,8.8-2.9,12.7-5.3l12.7,6.1c3.6-2.8,6.9-6.1,9.7-9.7
	l-6-12.7c2.3-3.8,4.1-8,5.2-12.4L415.3,231.1z"/>
</svg>
